<svg xmlns="http://www.w3.org/2000/svg" viewBox="0 0 791.23 582.13"><defs><style>.cls-1{fill:#b7b7b7;}.cls-2{font-size:39.6px;}.cls-10,.cls-11,.cls-2,.cls-28,.cls-32,.cls-47,.cls-51{fill:#e62b1e;}.cls-10,.cls-11,.cls-19,.cls-2,.cls-26,.cls-28,.cls-30,.cls-32,.cls-36,.cls-37,.cls-4,.cls-43,.cls-44,.cls-47,.cls-7{font-family:MyriadPro-Regular, Myriad Pro;}.cls-3{letter-spacing:-0.01em;}.cls-4{font-size:23.85px;}.cls-5{letter-spacing:-0.01em;}.cls-6{letter-spacing:0em;}.cls-19,.cls-7{font-size:17.07px;}.cls-8{letter-spacing:-0.01em;}.cls-9{letter-spacing:0em;}.cls-10{font-size:26.85px;}.cls-11{font-size:21.66px;}.cls-12{letter-spacing:0.02em;}.cls-13{letter-spacing:-0.01em;}.cls-14{letter-spacing:-0.01em;}.cls-15{letter-spacing:-0.01em;}.cls-16{letter-spacing:0em;}.cls-17{letter-spacing:0em;}.cls-18{letter-spacing:0.01em;}.cls-19{letter-spacing:-0.01em;}.cls-20{letter-spacing:0em;}.cls-21{letter-spacing:-0.01em;}.cls-22{letter-spacing:0em;}.cls-23{letter-spacing:0.02em;}.cls-24{letter-spacing:0em;}.cls-25{letter-spacing:-0.01em;}.cls-26{font-size:27.27px;}.cls-27{letter-spacing:-0.01em;}.cls-28{font-size:28.87px;}.cls-29{letter-spacing:-0.01em;}.cls-30{font-size:21.25px;}.cls-31{letter-spacing:-0.01em;}.cls-32{font-size:51.11px;}.cls-33{letter-spacing:0em;}.cls-34{letter-spacing:-0.01em;}.cls-35{letter-spacing:0.01em;}.cls-36{font-size:16.26px;}.cls-37{font-size:26.51px;}.cls-38{letter-spacing:-0.01em;}.cls-39{letter-spacing:-0.01em;}.cls-40{letter-spacing:-0.01em;}.cls-41{letter-spacing:-0.01em;}.cls-42{letter-spacing:0em;}.cls-43{font-size:20.01px;}.cls-44{font-size:27.26px;}.cls-45{letter-spacing:-0.01em;}.cls-46{letter-spacing:-0.01em;}.cls-47{font-size:15.91px;}.cls-48{letter-spacing:0em;}.cls-49{letter-spacing:-0.01em;}.cls-50{letter-spacing:0.02em;}</style></defs><title>breathe</title><g id="Layer_1" data-name="Layer 1"><path class="cls-1" d="M327.29,416.46l-7.9,5.83a4.94,4.94,0,0,1,7.9-5.83Z"/><path class="cls-1" d="M326.81,423.64a5,5,0,0,1-6.75-.45l7.9-5.83A4.93,4.93,0,0,1,326.81,423.64Z"/><text class="cls-2" transform="translate(368.49 441.91)">futu<tspan class="cls-3" x="68.3" y="0">r</tspan><tspan x="80.85" y="0">e</tspan></text><text class="cls-4" transform="translate(307.16 269.2)">desi<tspan class="cls-5" x="40.43" y="0">g</tspan><tspan class="cls-6" x="53.62" y="0">n</tspan></text><text class="cls-4" transform="translate(388.41 279.72)">global</text><text class="cls-7" transform="translate(333.89 322.99)">de<tspan class="cls-8" x="18.18" y="0">v</tspan><tspan x="26.22" y="0">elopme</tspan><tspan class="cls-9" x="80.67" y="0">n</tspan><tspan x="90.08" y="0">t</tspan></text><text class="cls-10" transform="translate(454.75 541.24)">AI</text><text class="cls-11" transform="translate(298.25 239.02)">a<tspan class="cls-12" x="10.44" y="0">r</tspan><tspan x="18.04" y="0">t</tspan></text><text class="cls-4" transform="translate(661.73 485.73)"><tspan class="cls-13">t</tspan><tspan x="7.75" y="0">ea</tspan><tspan class="cls-14" x="31.2" y="0">m</tspan><tspan class="cls-15" x="50.78" y="0">w</tspan><tspan class="cls-16" x="68.09" y="0">o</tspan><tspan class="cls-17" x="81.19" y="0">r</tspan><tspan x="89.08" y="0">k</tspan></text><text class="cls-4" transform="translate(464.75 501.35)">humani<tspan class="cls-18" x="76.58" y="0">t</tspan><tspan x="84.69" y="0">y</tspan></text><text class="cls-19" transform="translate(560.85 485.65)">t<tspan class="cls-20" x="5.55" y="0">echnology</tspan></text><text class="cls-11" transform="translate(424.42 302.68)">scien<tspan class="cls-21" x="46.22" y="0">c</tspan><tspan x="55.79" y="0">e</tspan></text><text class="cls-7" transform="translate(524.68 319.19)">t<tspan class="cls-22" x="5.65" y="0">r</tspan><tspan x="11.15" y="0">anspo</tspan><tspan class="cls-23" x="54.69" y="0">r</tspan><tspan x="60.68" y="0">t</tspan><tspan class="cls-24" x="66.33" y="0">a</tspan><tspan x="74.49" y="0">tion</tspan></text><text class="cls-7" transform="translate(731.2 451.87)"><tspan class="cls-25">r</tspan><tspan x="5.41" y="0">esea</tspan><tspan class="cls-25" x="37.5" y="0">r</tspan><tspan class="cls-20" x="42.91" y="0">ch</tspan></text><text class="cls-7" transform="translate(625.14 355.85)">health</text><text class="cls-26" transform="translate(508.23 355.88)">ene<tspan class="cls-27" x="42.47" y="0">r</tspan><tspan x="51.17" y="0">gy</tspan></text><text class="cls-7" transform="translate(618.16 452.34)">vision</text><text class="cls-28" transform="translate(595.79 526.22)"><tspan class="cls-29">y</tspan><tspan x="13.31" y="0">okohama</tspan></text><text class="cls-30" transform="translate(359.04 396.24)">di<tspan class="cls-31" x="16.96" y="0">g</tspan><tspan x="28.71" y="0">ital</tspan></text><text class="cls-2" transform="translate(419.56 373.42)">TED</text><text class="cls-32" transform="translate(508.01 429.18)">TE<tspan class="cls-33" x="50.55" y="0">D</tspan><tspan x="84.33" y="0">x</tspan><tspan class="cls-34" x="108" y="0">Y</tspan><tspan x="135.29" y="0">NU</tspan></text><text class="cls-4" transform="translate(716.9 390.9)">quali<tspan class="cls-35" x="49.28" y="0">t</tspan><tspan x="57.38" y="0">y</tspan></text><text class="cls-4" transform="translate(661.99 307.84)">su<tspan class="cls-13" x="22.59" y="0">cc</tspan><tspan class="cls-16" x="43.67" y="0">ess</tspan></text><text class="cls-36" transform="translate(326.99 383.66)">goal</text><text class="cls-4" transform="translate(678.06 341.9)">business</text><text class="cls-37" transform="translate(388.44 474.74)">l<tspan class="cls-38" x="6.26" y="0">o</tspan><tspan class="cls-39" x="20.62" y="0">v</tspan><tspan x="33.11" y="0">e</tspan></text><text class="cls-7" transform="translate(408.78 493.55)"><tspan class="cls-40">f</tspan><tspan x="4.76" y="0">ocus</tspan></text><text class="cls-11" transform="translate(306.92 307.01)">li<tspan class="cls-41" x="10.18" y="0">f</tspan><tspan class="cls-42" x="16.22" y="0">e</tspan></text><text class="cls-7" transform="translate(508.26 553.79)">n<tspan class="cls-9" x="9.47" y="0">a</tspan><tspan x="17.63" y="0">tu</tspan><tspan class="cls-8" x="32.69" y="0">r</tspan><tspan x="38.1" y="0">e</tspan></text><text class="cls-43" transform="translate(612.33 559.8)">minimal</text><text class="cls-44" transform="translate(605.41 286.87)">bet<tspan class="cls-45" x="38.2" y="0">t</tspan><tspan x="47.06" y="0">er</tspan></text><text class="cls-7" transform="translate(465.12 489.64)">spa<tspan class="cls-46" x="24.7" y="0">c</tspan><tspan x="32.24" y="0">e</tspan></text><text class="cls-7" transform="translate(560.66 577.86)">time</text><text class="cls-47" transform="translate(477.51 279.37)">e<tspan class="cls-48" x="7.97" y="0">n</tspan><tspan class="cls-49" x="16.74" y="0">t</tspan><tspan x="21.91" y="0">e</tspan><tspan class="cls-50" x="29.88" y="0">r</tspan><tspan x="35.47" y="0">tainme</tspan><tspan class="cls-48" x="82.2" y="0">n</tspan><tspan x="90.96" y="0">t</tspan></text><path d="M190.12,315.2c-5.38,5.38-10.41,15.77-14.17,26.07a22.6,22.6,0,0,1-21.26,14.78H51.94a22.69,22.69,0,0,1-21-31.19C40.72,300.52,50,270.29,45,252c-9.38-34.4-34.7-69.1-40.95-91.91S-5.36,86.35,26.23,49.06c30.6-36.12,91.93-67.92,171.88-35.77,91.4,36.76,79.74,128.2,78.49,140.09s26.44,47.51,29.23,53c1.37,2.69,6.88,6.88-19.39,18.76,0,0-2.5,5.63,3.13,14.38s-8.76,13.76-8.76,13.76,7.5,6.88,4.38,10.63-16.26,11.26-14.38,19.39,10.63,25.64-11.88,31.9S200.75,304.57,190.12,315.2Z"/><path class="cls-51" d="M26.26,137.79a25,25,0,0,0,25,25h.55a25,25,0,0,0,37.07,10A25,25,0,0,0,106,170a25,25,0,0,0,42.49,11.73,25,25,0,0,0,28.91-5,25,25,0,0,0,33.47-11.35,25,25,0,0,0,30.78-34.86A25,25,0,0,0,232,89.08a25.08,25.08,0,0,0-5.66-7.58c0-.24,0-.48,0-.72a25,25,0,0,0-22.45-24.87,25,25,0,0,0-41.42-8.83A24.89,24.89,0,0,0,155,48.56a25,25,0,0,0-30.1-8.91A25,25,0,0,0,86.18,50C85.6,50,85,50,84.41,50a25,25,0,0,0-23.72,17.1A25,25,0,0,0,40,98.61a25,25,0,0,0-7.51,22.69A24.9,24.9,0,0,0,26.26,137.79Zm144.24-.9-.1-.05.33-.26,0,0Z"/><path d="M20.27,106.32a79.75,79.75,0,0,1,10.46-1.7,93.15,93.15,0,0,1,11.74-.94,74.92,74.92,0,0,1,21.81,3.26,87.12,87.12,0,0,1,20,8.89c3.1,1.86,6,4,9.2,5.74s6,3,8.7,5.12a50.26,50.26,0,0,1,4.72-3.6,39.55,39.55,0,0,1,15.44-6,41,41,0,0,0,1.52-8.86,102.75,102.75,0,0,0,.74-13.59,60.72,60.72,0,0,0-8.45-28.34c-4.63-7.79-12.08-9-20.42-10.88-4.54-1-9.34-1.94-12.83-5.27-3.86-3.7-4.68-10.84-4-15.87.47-3.6,2.67-6.66,6.66-6.66s6.25,3.05,6.66,6.66c.25,2.22-.22,4.68.27,6.58a5.88,5.88,0,0,0,.18.57l.23.14c.1,0,.27.08.55.17,4.39,1.54,8.94,2.56,13.36,4a37.31,37.31,0,0,1,12.39,6.66c4,3.31,6.49,8.23,8.52,12.9a68,68,0,0,1,5.67,31.87,74.65,74.65,0,0,1-2.65,14.13,41.43,41.43,0,0,1-1.68,5.13,49.57,49.57,0,0,1,11.57,1.1c12,2.58,23.74,12.18,36.35,7.17l.36-.12c-.34-2.08-.59-4.16-.78-6.22-1.19-12.91.6-26.39,7.15-37.74,3.27-5.66,7.89-10,12.75-14.23,2.26-2,4.49-4,6.58-6.14a37.45,37.45,0,0,0,4.38-5.67,4.61,4.61,0,0,1,1.34-2.08,5.37,5.37,0,0,1,7-1.55c2.66,1.56,3.11,4.62,1.9,7.24-5.16,11.18-18,16.08-24.92,25.85-7.16,10.15-8.89,23.11-8.4,35.24.26,6.56,1.56,13.55,4.82,19.31,3,5.33,8.19,9.2,12.7,13.18a43.77,43.77,0,0,1,14.58,32.47c0,3.94-6.18,3.95-6.12,0a36.09,36.09,0,0,0-4.17-17.34c-3-5.74-7.59-9.81-12.45-13.9s-9-8.43-11.9-14a41.1,41.1,0,0,1-3.22-8.46h0c-12.12,3.72-23.62-1.18-35.14-4.6a35.78,35.78,0,0,0-30.23,4.65c-8.62,5.85-13.39,15.6-15.62,25.49a100.44,100.44,0,0,0-1.91,16.25c-.4,6.83-.42,14.55-3.64,20.75A6.22,6.22,0,0,1,85,196c-3.53-1-4.87-4.3-4.34-7.64.45-2.85,1.37-5.59,1.73-8.47.43-3.41.6-6.86.88-10.29a90.21,90.21,0,0,1,3.15-18.21,52.9,52.9,0,0,1,8.15-16.57l-.09-.07c-2.09-1.77-4.91-2.78-7.27-4.14-2.88-1.67-5.56-3.76-8.37-5.56a94.37,94.37,0,0,0-18-9,75.24,75.24,0,0,0-19.28-4.57,81.57,81.57,0,0,0-10.8-.13c-3.38.14-7.24.24-10.46-.88A2.18,2.18,0,0,1,20.27,106.32Z"/></g></svg>