<svg xmlns="http://www.w3.org/2000/svg" viewBox="0 0 2046.41 1080.53"><defs><style>.cls-1,.cls-10,.cls-11,.cls-12,.cls-4,.cls-5,.cls-6,.cls-7,.cls-8,.cls-9{fill:#ff2b06;}.cls-2,.cls-3{fill:#fff;}.cls-3{font-size:63.73px;}.cls-3,.cls-4{font-family:Helvetica, Helvetica;}.cls-10,.cls-12,.cls-4,.cls-5,.cls-6,.cls-7,.cls-9{font-size:315.29px;}.cls-5{font-family:ChalkboardSE-Regular, Chalkboard SE;}.cls-6{font-family:BradleyHandITCTT-Bold, Bradley Hand;font-weight:700;}.cls-7{font-family:Herculanum, Herculanum;}.cls-8{font-size:224.77px;font-family:MarkerFelt-Wide, Marker Felt;}.cls-9{font-family:SnellRoundhand, Snell Roundhand;}.cls-10{font-family:Phosphate-Inline, Phosphate;}.cls-11{font-size:264.71px;stroke:red;stroke-miterlimit:10;font-family:Bungee-Inline, Bungee;}.cls-12{font-family:GiddyupStd, Giddyup Std;}</style></defs><title>x</title><g id="BG"><rect width="371.84" height="476.98"/><rect y="525.75" width="371.84" height="476.98"/><rect x="417.24" width="371.84" height="476.98"/><rect x="417.24" y="525.75" width="371.84" height="476.98"/><rect x="826.66" width="371.84" height="476.98"/><rect x="826.66" y="525.75" width="371.84" height="476.98"/><rect x="1243.9" width="371.84" height="476.98"/><rect x="1243.9" y="525.75" width="371.84" height="476.98"/><rect x="1674.57" width="371.84" height="476.98"/><rect x="1674.57" y="525.75" width="371.84" height="476.98"/></g><g id="Layer_1" data-name="Layer 1"><path class="cls-1" d="M22,141.24l-3.28-4.73h3.13l1.76,2.61,1.74-2.61h3l-3.28,4.67,3.69,5.31H25.66l-2.09-3.15-2.09,3.15H18.42Z"/><path class="cls-2" d="M41.79,140.58H32v-2.07h9.75Zm0,4.13H32v-2.07h9.75Z"/><path class="cls-2" d="M49.26,135H46.52V132.7h2.74Zm-2.74,1.54h2.74v10H46.52Z"/><path class="cls-2" d="M51,136.51h2.61v1.39h.06a3.56,3.56,0,0,1,3.05-1.66c2.92,0,3.65,1.64,3.65,4.11v6.14H57.66v-5.64c0-1.64-.48-2.45-1.76-2.45-1.49,0-2.12.83-2.12,2.86v5.23H51Z"/><path class="cls-2" d="M69.23,145.22h0a3.31,3.31,0,0,1-3,1.54c-3,0-4.48-2.59-4.48-5.35s1.49-5.18,4.42-5.18a3.49,3.49,0,0,1,3,1.49h0v-5h2.74v13.79H69.23Zm-2.39-6.91c-1.8,0-2.41,1.54-2.41,3.19s.71,3.21,2.41,3.21,2.36-1.58,2.36-3.22S68.61,138.3,66.83,138.3Z"/><path class="cls-2" d="M75.77,142.16c.08,1.74.93,2.53,2.45,2.53a2.26,2.26,0,0,0,2.16-1.29H82.8a4.49,4.49,0,0,1-4.67,3.36c-3.15,0-5.1-2.16-5.1-5.25a5,5,0,0,1,5.1-5.27c3.4,0,5,2.86,4.85,5.93Zm4.46-1.74C80,139,79.38,138.3,78,138.3a2.16,2.16,0,0,0-2.28,2.12Z"/><path class="cls-2" d="M84.21,136.51h2.61v1.27h0a3.32,3.32,0,0,1,3-1.54c3.13,0,4.54,2.53,4.54,5.37,0,2.66-1.47,5.16-4.38,5.16a3.54,3.54,0,0,1-3-1.51h0V150H84.21Zm7.42,5c0-1.58-.64-3.22-2.39-3.22s-2.38,1.6-2.38,3.22.62,3.17,2.39,3.17S91.62,143.15,91.62,141.53Z"/><path class="cls-2" d="M97.88,142.16c.08,1.74.93,2.53,2.45,2.53a2.26,2.26,0,0,0,2.16-1.29h2.41a4.49,4.49,0,0,1-4.67,3.36c-3.15,0-5.1-2.16-5.1-5.25a5,5,0,0,1,5.1-5.27c3.4,0,5,2.86,4.85,5.93Zm4.46-1.74c-.25-1.39-.85-2.12-2.18-2.12a2.16,2.16,0,0,0-2.28,2.12Z"/><path class="cls-2" d="M106.32,136.51h2.61v1.39H109a3.56,3.56,0,0,1,3.05-1.66c2.92,0,3.65,1.64,3.65,4.11v6.14h-2.74v-5.64c0-1.64-.48-2.45-1.76-2.45-1.49,0-2.12.83-2.12,2.86v5.23h-2.74Z"/><path class="cls-2" d="M124.51,145.22h0a3.31,3.31,0,0,1-3,1.54c-3,0-4.48-2.59-4.48-5.35s1.49-5.18,4.42-5.18a3.49,3.49,0,0,1,3,1.49h0v-5h2.74v13.79h-2.61Zm-2.39-6.91c-1.8,0-2.41,1.54-2.41,3.19s.71,3.21,2.41,3.21,2.36-1.58,2.36-3.22S123.89,138.3,122.11,138.3Z"/><path class="cls-2" d="M131.05,142.16c.08,1.74.93,2.53,2.45,2.53a2.26,2.26,0,0,0,2.16-1.29h2.41a4.49,4.49,0,0,1-4.67,3.36c-3.15,0-5.1-2.16-5.1-5.25a5,5,0,0,1,5.1-5.27c3.4,0,5,2.86,4.85,5.93Zm4.46-1.74c-.25-1.39-.85-2.12-2.18-2.12a2.16,2.16,0,0,0-2.28,2.12Z"/><path class="cls-2" d="M139.49,136.51h2.61v1.39h.06a3.56,3.56,0,0,1,3.05-1.66c2.92,0,3.65,1.64,3.65,4.11v6.14h-2.74v-5.64c0-1.64-.48-2.45-1.76-2.45-1.49,0-2.12.83-2.12,2.86v5.23h-2.74Z"/><path class="cls-2" d="M154,136.51h2v1.83h-2v4.94c0,.93.23,1.16,1.16,1.16a4.22,4.22,0,0,0,.85-.08v2.14a10.51,10.51,0,0,1-1.6.1c-1.68,0-3.15-.39-3.15-2.38v-5.89h-1.66v-1.83h1.66v-3H154Z"/><path class="cls-2" d="M157,132.7h2.74v13.79H157Z"/><path class="cls-2" d="M166.48,147.75A3.13,3.13,0,0,1,163,150a16.3,16.3,0,0,1-1.68-.1v-2.26a14.55,14.55,0,0,0,1.6.1,1.29,1.29,0,0,0,.95-1.87l-3.51-9.37h2.94l2.26,6.84h0l2.18-6.84h2.84Z"/><path class="cls-2" d="M181,136.24a5.26,5.26,0,1,1-5.16,5.27A4.9,4.9,0,0,1,181,136.24Zm0,8.46c1.87,0,2.43-1.6,2.43-3.19s-.56-3.21-2.43-3.21-2.41,1.6-2.41,3.21S179.17,144.69,181,144.69Z"/><path class="cls-2" d="M187.2,136.51h2.61v1.85h0a3.53,3.53,0,0,1,3.19-2.12,2,2,0,0,1,.6.1v2.55a5,5,0,0,0-1-.1c-2,0-2.7,1.45-2.7,3.21v4.5H187.2Z"/><path class="cls-2" d="M203.93,145.85c0,1.64-.58,4.42-5.18,4.42-2,0-4.27-.93-4.4-3.21h2.72a1.86,1.86,0,0,0,2,1.37c1.53,0,2.22-1,2.2-2.47v-1.31h0a3.37,3.37,0,0,1-3,1.54c-3,0-4.27-2.28-4.27-5,0-2.59,1.49-4.94,4.29-4.94a3.11,3.11,0,0,1,3,1.6h0v-1.33h2.61Zm-2.61-4.48c0-1.62-.56-3.07-2.34-3.07-1.54,0-2.22,1.35-2.22,2.84s.54,3,2.22,3S201.32,142.8,201.32,141.37Z"/><path class="cls-2" d="M205.24,139.58c.15-2.57,2.45-3.34,4.69-3.34,2,0,4.38.44,4.38,2.84v5.19a5.12,5.12,0,0,0,.35,2.22h-2.78a4.07,4.07,0,0,1-.19-1,4.58,4.58,0,0,1-3.36,1.24c-1.89,0-3.4-.95-3.4-3,0-2.26,1.7-2.8,3.4-3s3.24-.19,3.24-1.31-.81-1.35-1.78-1.35-1.72.42-1.82,1.51Zm6.33,2a5.45,5.45,0,0,1-2.28.58c-.85.17-1.62.46-1.62,1.47s.79,1.27,1.68,1.27a2,2,0,0,0,2.22-2.3Z"/><path class="cls-2" d="M216.05,136.51h2.61v1.39h.06a3.56,3.56,0,0,1,3.05-1.66c2.92,0,3.65,1.64,3.65,4.11v6.14h-2.74v-5.64c0-1.64-.48-2.45-1.76-2.45-1.49,0-2.12.83-2.12,2.86v5.23h-2.74Z"/><path class="cls-2" d="M229.55,135h-2.74V132.7h2.74Zm-2.74,1.54h2.74v10h-2.74Z"/><path class="cls-2" d="M230.71,144.42l5.19-5.85h-4.81v-2.07h8.42v2.07l-5.19,5.85h5.56v2.07h-9.17Z"/><path class="cls-2" d="M243.22,142.16c.08,1.74.93,2.53,2.45,2.53a2.26,2.26,0,0,0,2.16-1.29h2.41a4.49,4.49,0,0,1-4.67,3.36c-3.15,0-5.1-2.16-5.1-5.25a5,5,0,0,1,5.1-5.27c3.4,0,5,2.86,4.85,5.93Zm4.46-1.74c-.25-1.39-.85-2.12-2.18-2.12a2.16,2.16,0,0,0-2.28,2.12Z"/><path class="cls-2" d="M258.78,145.22h0a3.31,3.31,0,0,1-3,1.54c-3,0-4.48-2.59-4.48-5.35s1.49-5.18,4.42-5.18a3.49,3.49,0,0,1,3,1.49h0v-5h2.74v13.79h-2.61Zm-2.39-6.91c-1.8,0-2.41,1.54-2.41,3.19s.71,3.21,2.41,3.21,2.36-1.58,2.36-3.22S258.16,138.3,256.39,138.3Z"/><path class="cls-2" d="M271.39,135.25h-4.13V132.7h11.3v2.55h-4.13v11.24h-3Z"/><path class="cls-2" d="M279.75,132.7h10.31v2.55h-7.28v3h6.68v2.36h-6.68v3.38h7.43v2.55H279.75Z"/><path class="cls-2" d="M291.49,132.7h5.95c3.57,0,6.26,2.24,6.26,6.82,0,4-2,7-6.26,7h-5.95Zm3,11.24h2.7c1.76,0,3.44-1.08,3.44-4.13,0-2.78-1-4.56-4-4.56h-2.16Z"/><path class="cls-2" d="M312.37,142.16c.08,1.74.93,2.53,2.45,2.53A2.26,2.26,0,0,0,317,143.4h2.41a4.49,4.49,0,0,1-4.67,3.36c-3.15,0-5.1-2.16-5.1-5.25a5,5,0,0,1,5.1-5.27c3.4,0,5,2.86,4.85,5.93Zm4.46-1.74c-.25-1.39-.85-2.12-2.18-2.12a2.16,2.16,0,0,0-2.28,2.12Z"/><path class="cls-2" d="M325.94,146.49h-3.05l-3.42-10h2.88l2.1,6.82h0l2.1-6.82h2.72Z"/><path class="cls-2" d="M331.95,142.16c.08,1.74.93,2.53,2.45,2.53a2.26,2.26,0,0,0,2.16-1.29H339a4.49,4.49,0,0,1-4.67,3.36c-3.15,0-5.1-2.16-5.1-5.25a5,5,0,0,1,5.1-5.27c3.4,0,5,2.86,4.85,5.93Zm4.46-1.74c-.25-1.39-.85-2.12-2.18-2.12a2.16,2.16,0,0,0-2.28,2.12Z"/><path class="cls-2" d="M340.38,136.51H343v1.39H343a3.56,3.56,0,0,1,3.05-1.66c2.92,0,3.65,1.64,3.65,4.11v6.14H347v-5.64c0-1.64-.48-2.45-1.76-2.45-1.49,0-2.12.83-2.12,2.86v5.23h-2.74Z"/><path class="cls-2" d="M354.92,136.51h2v1.83h-2v4.94c0,.93.23,1.16,1.16,1.16a4.22,4.22,0,0,0,.85-.08v2.14a10.5,10.5,0,0,1-1.6.1c-1.68,0-3.15-.39-3.15-2.38v-5.89h-1.66v-1.83h1.66v-3h2.74Z"/><path class="cls-1" d="M30.28,87.09H17.41V75.32H57.28V87.09H44.41v34.14H30.28Z"/><path class="cls-1" d="M59.47,75.32h38.7V87.09H73.62v5.72H98.17v10.93H73.62v5.72H98.17v11.77H59.47Z"/><path class="cls-1" d="M100.55,75.32h23.21c15.3,0,20.71,11.32,20.71,22.89,0,14.09-7.46,23-23.47,23H100.55Zm14.14,34.14h5.53c8.81,0,10.1-7.14,10.1-11.45,0-2.89-.9-10.92-11.13-10.92h-4.5Z"/><path class="cls-1" d="M164.79,103.54l-4.31-7.15-4.21,7.15H145.91l9.84-14.47-9.47-13.84h10.37l3.84,6.84,3.95-6.84h10.36l-9.47,13.84,9.84,14.47Z"/><text class="cls-3" transform="translate(181.22 121.15)">YNU</text><text class="cls-4" transform="translate(85.7 419.21)">X</text><path class="cls-1" d="M22,667l-3.28-4.73h3.13l1.76,2.61,1.74-2.61h3l-3.28,4.67,3.69,5.31H25.66l-2.09-3.15-2.09,3.15H18.42Z"/><path class="cls-2" d="M41.79,666.33H32v-2.07h9.75Zm0,4.13H32V668.4h9.75Z"/><path class="cls-2" d="M49.26,660.71H46.52v-2.26h2.74Zm-2.74,1.54h2.74v10H46.52Z"/><path class="cls-2" d="M51,662.26h2.61v1.39h.06A3.56,3.56,0,0,1,56.75,662c2.92,0,3.65,1.64,3.65,4.11v6.14H57.66V666.6c0-1.64-.48-2.45-1.76-2.45-1.49,0-2.12.83-2.12,2.86v5.23H51Z"/><path class="cls-2" d="M69.23,671h0a3.31,3.31,0,0,1-3,1.54c-3,0-4.48-2.59-4.48-5.35S63.16,662,66.1,662a3.49,3.49,0,0,1,3,1.49h0v-5h2.74v13.79H69.23Zm-2.39-6.91c-1.8,0-2.41,1.54-2.41,3.19s.71,3.21,2.41,3.21,2.36-1.58,2.36-3.22S68.61,664.05,66.83,664.05Z"/><path class="cls-2" d="M75.77,667.92c.08,1.74.93,2.53,2.45,2.53a2.26,2.26,0,0,0,2.16-1.29H82.8a4.49,4.49,0,0,1-4.67,3.36c-3.15,0-5.1-2.16-5.1-5.25a5,5,0,0,1,5.1-5.27c3.4,0,5,2.86,4.85,5.93Zm4.46-1.74c-.25-1.39-.85-2.12-2.18-2.12a2.16,2.16,0,0,0-2.28,2.12Z"/><path class="cls-2" d="M84.21,662.26h2.61v1.27h0a3.32,3.32,0,0,1,3-1.54c3.13,0,4.54,2.53,4.54,5.37,0,2.66-1.47,5.16-4.38,5.16A3.54,3.54,0,0,1,87,671h0v4.75H84.21Zm7.42,5c0-1.58-.64-3.22-2.39-3.22s-2.38,1.6-2.38,3.22.62,3.17,2.39,3.17S91.62,668.9,91.62,667.28Z"/><path class="cls-2" d="M97.88,667.92c.08,1.74.93,2.53,2.45,2.53a2.26,2.26,0,0,0,2.16-1.29h2.41a4.49,4.49,0,0,1-4.67,3.36c-3.15,0-5.1-2.16-5.1-5.25a5,5,0,0,1,5.1-5.27c3.4,0,5,2.86,4.85,5.93Zm4.46-1.74c-.25-1.39-.85-2.12-2.18-2.12a2.16,2.16,0,0,0-2.28,2.12Z"/><path class="cls-2" d="M106.32,662.26h2.61v1.39H109A3.56,3.56,0,0,1,112,662c2.92,0,3.65,1.64,3.65,4.11v6.14h-2.74V666.6c0-1.64-.48-2.45-1.76-2.45-1.49,0-2.12.83-2.12,2.86v5.23h-2.74Z"/><path class="cls-2" d="M124.51,671h0a3.31,3.31,0,0,1-3,1.54c-3,0-4.48-2.59-4.48-5.35s1.49-5.18,4.42-5.18a3.49,3.49,0,0,1,3,1.49h0v-5h2.74v13.79h-2.61Zm-2.39-6.91c-1.8,0-2.41,1.54-2.41,3.19s.71,3.21,2.41,3.21,2.36-1.58,2.36-3.22S123.89,664.05,122.11,664.05Z"/><path class="cls-2" d="M131.05,667.92c.08,1.74.93,2.53,2.45,2.53a2.26,2.26,0,0,0,2.16-1.29h2.41a4.49,4.49,0,0,1-4.67,3.36c-3.15,0-5.1-2.16-5.1-5.25a5,5,0,0,1,5.1-5.27c3.4,0,5,2.86,4.85,5.93Zm4.46-1.74c-.25-1.39-.85-2.12-2.18-2.12a2.16,2.16,0,0,0-2.28,2.12Z"/><path class="cls-2" d="M139.49,662.26h2.61v1.39h.06a3.56,3.56,0,0,1,3.05-1.66c2.92,0,3.65,1.64,3.65,4.11v6.14h-2.74V666.6c0-1.64-.48-2.45-1.76-2.45-1.49,0-2.12.83-2.12,2.86v5.23h-2.74Z"/><path class="cls-2" d="M154,662.26h2v1.83h-2V669c0,.93.23,1.16,1.16,1.16a4.22,4.22,0,0,0,.85-.08v2.14a10.51,10.51,0,0,1-1.6.1c-1.68,0-3.15-.39-3.15-2.38v-5.89h-1.66v-1.83h1.66v-3H154Z"/><path class="cls-2" d="M157,658.45h2.74v13.79H157Z"/><path class="cls-2" d="M166.48,673.5a3.13,3.13,0,0,1-3.44,2.26,16.3,16.3,0,0,1-1.68-.1V673.4a14.55,14.55,0,0,0,1.6.1,1.29,1.29,0,0,0,.95-1.87l-3.51-9.37h2.94l2.26,6.84h0l2.18-6.84h2.84Z"/><path class="cls-2" d="M181,662a5.26,5.26,0,1,1-5.16,5.27A4.9,4.9,0,0,1,181,662Zm0,8.46c1.87,0,2.43-1.6,2.43-3.19s-.56-3.21-2.43-3.21-2.41,1.6-2.41,3.21S179.17,670.44,181,670.44Z"/><path class="cls-2" d="M187.2,662.26h2.61v1.85h0A3.53,3.53,0,0,1,193,662a2,2,0,0,1,.6.1v2.55a5,5,0,0,0-1-.1c-2,0-2.7,1.45-2.7,3.21v4.5H187.2Z"/><path class="cls-2" d="M203.93,671.6c0,1.64-.58,4.42-5.18,4.42-2,0-4.27-.93-4.4-3.21h2.72a1.86,1.86,0,0,0,2,1.37c1.53,0,2.22-1,2.2-2.47v-1.31h0a3.37,3.37,0,0,1-3,1.54c-3,0-4.27-2.28-4.27-5,0-2.59,1.49-4.94,4.29-4.94a3.11,3.11,0,0,1,3,1.6h0v-1.33h2.61Zm-2.61-4.48c0-1.62-.56-3.07-2.34-3.07-1.54,0-2.22,1.35-2.22,2.84s.54,3,2.22,3S201.32,668.55,201.32,667.12Z"/><path class="cls-2" d="M205.24,665.33c.15-2.57,2.45-3.34,4.69-3.34,2,0,4.38.44,4.38,2.84V670a5.12,5.12,0,0,0,.35,2.22h-2.78a4.07,4.07,0,0,1-.19-1,4.58,4.58,0,0,1-3.36,1.24c-1.89,0-3.4-.95-3.4-3,0-2.26,1.7-2.8,3.4-3s3.24-.19,3.24-1.31-.81-1.35-1.78-1.35-1.72.42-1.82,1.51Zm6.33,2a5.45,5.45,0,0,1-2.28.58c-.85.17-1.62.46-1.62,1.47s.79,1.27,1.68,1.27a2,2,0,0,0,2.22-2.3Z"/><path class="cls-2" d="M216.05,662.26h2.61v1.39h.06a3.56,3.56,0,0,1,3.05-1.66c2.92,0,3.65,1.64,3.65,4.11v6.14h-2.74V666.6c0-1.64-.48-2.45-1.76-2.45-1.49,0-2.12.83-2.12,2.86v5.23h-2.74Z"/><path class="cls-2" d="M229.55,660.71h-2.74v-2.26h2.74Zm-2.74,1.54h2.74v10h-2.74Z"/><path class="cls-2" d="M230.71,670.17l5.19-5.85h-4.81v-2.07h8.42v2.07l-5.19,5.85h5.56v2.07h-9.17Z"/><path class="cls-2" d="M243.22,667.92c.08,1.74.93,2.53,2.45,2.53a2.26,2.26,0,0,0,2.16-1.29h2.41a4.49,4.49,0,0,1-4.67,3.36c-3.15,0-5.1-2.16-5.1-5.25a5,5,0,0,1,5.1-5.27c3.4,0,5,2.86,4.85,5.93Zm4.46-1.74c-.25-1.39-.85-2.12-2.18-2.12a2.16,2.16,0,0,0-2.28,2.12Z"/><path class="cls-2" d="M258.78,671h0a3.31,3.31,0,0,1-3,1.54c-3,0-4.48-2.59-4.48-5.35s1.49-5.18,4.42-5.18a3.49,3.49,0,0,1,3,1.49h0v-5h2.74v13.79h-2.61Zm-2.39-6.91c-1.8,0-2.41,1.54-2.41,3.19s.71,3.21,2.41,3.21,2.36-1.58,2.36-3.22S258.16,664.05,256.39,664.05Z"/><path class="cls-2" d="M271.39,661h-4.13v-2.55h11.3V661h-4.13v11.24h-3Z"/><path class="cls-2" d="M279.75,658.45h10.31V661h-7.28v3h6.68v2.36h-6.68v3.38h7.43v2.55H279.75Z"/><path class="cls-2" d="M291.49,658.45h5.95c3.57,0,6.26,2.24,6.26,6.82,0,4-2,7-6.26,7h-5.95Zm3,11.24h2.7c1.76,0,3.44-1.08,3.44-4.13,0-2.78-1-4.56-4-4.56h-2.16Z"/><path class="cls-2" d="M312.37,667.92c.08,1.74.93,2.53,2.45,2.53a2.26,2.26,0,0,0,2.16-1.29h2.41a4.49,4.49,0,0,1-4.67,3.36c-3.15,0-5.1-2.16-5.1-5.25a5,5,0,0,1,5.1-5.27c3.4,0,5,2.86,4.85,5.93Zm4.46-1.74c-.25-1.39-.85-2.12-2.18-2.12a2.16,2.16,0,0,0-2.28,2.12Z"/><path class="cls-2" d="M325.94,672.24h-3.05l-3.42-10h2.88l2.1,6.82h0l2.1-6.82h2.72Z"/><path class="cls-2" d="M331.95,667.92c.08,1.74.93,2.53,2.45,2.53a2.26,2.26,0,0,0,2.16-1.29H339a4.49,4.49,0,0,1-4.67,3.36c-3.15,0-5.1-2.16-5.1-5.25a5,5,0,0,1,5.1-5.27c3.4,0,5,2.86,4.85,5.93Zm4.46-1.74c-.25-1.39-.85-2.12-2.18-2.12a2.16,2.16,0,0,0-2.28,2.12Z"/><path class="cls-2" d="M340.38,662.26H343v1.39H343A3.56,3.56,0,0,1,346.1,662c2.92,0,3.65,1.64,3.65,4.11v6.14H347V666.6c0-1.64-.48-2.45-1.76-2.45-1.49,0-2.12.83-2.12,2.86v5.23h-2.74Z"/><path class="cls-2" d="M354.92,662.26h2v1.83h-2V669c0,.93.23,1.16,1.16,1.16a4.22,4.22,0,0,0,.85-.08v2.14a10.5,10.5,0,0,1-1.6.1c-1.68,0-3.15-.39-3.15-2.38v-5.89h-1.66v-1.83h1.66v-3h2.74Z"/><path class="cls-1" d="M30.28,612.84H17.41V601.07H57.28v11.77H44.41V647H30.28Z"/><path class="cls-1" d="M59.47,601.07h38.7v11.77H73.62v5.72H98.17v10.93H73.62v5.72H98.17V647H59.47Z"/><path class="cls-1" d="M100.55,601.07h23.21c15.3,0,20.71,11.32,20.71,22.89,0,14.09-7.46,23-23.47,23H100.55Zm14.14,34.14h5.53c8.81,0,10.1-7.14,10.1-11.45,0-2.89-.9-10.92-11.13-10.92h-4.5Z"/><path class="cls-1" d="M164.79,629.29l-4.31-7.15-4.21,7.15H145.91l9.84-14.47L146.27,601h10.37l3.84,6.84,3.95-6.84h10.36l-9.47,13.84,9.84,14.47Z"/><text class="cls-3" transform="translate(181.22 646.91)">YNU</text><text class="cls-5" transform="translate(87.55 944.96)">X</text><path class="cls-1" d="M439.26,141.24,436,136.51h3.13l1.76,2.61,1.74-2.61h3l-3.28,4.67,3.69,5.31h-3.13l-2.09-3.15-2.09,3.15h-3.07Z"/><path class="cls-2" d="M459,140.58h-9.75v-2.07H459Zm0,4.13h-9.75v-2.07H459Z"/><path class="cls-2" d="M466.5,135h-2.74V132.7h2.74Zm-2.74,1.54h2.74v10h-2.74Z"/><path class="cls-2" d="M468.28,136.51h2.61v1.39h.06a3.56,3.56,0,0,1,3.05-1.66c2.92,0,3.65,1.64,3.65,4.11v6.14H474.9v-5.64c0-1.64-.48-2.45-1.76-2.45-1.49,0-2.12.83-2.12,2.86v5.23h-2.74Z"/><path class="cls-2" d="M486.47,145.22h0a3.31,3.31,0,0,1-3,1.54c-3,0-4.48-2.59-4.48-5.35s1.49-5.18,4.42-5.18a3.49,3.49,0,0,1,3,1.49h0v-5h2.74v13.79h-2.61Zm-2.39-6.91c-1.8,0-2.41,1.54-2.41,3.19s.71,3.21,2.41,3.21,2.36-1.58,2.36-3.22S485.85,138.3,484.08,138.3Z"/><path class="cls-2" d="M493,142.16c.08,1.74.93,2.53,2.45,2.53a2.26,2.26,0,0,0,2.16-1.29H500a4.49,4.49,0,0,1-4.67,3.36c-3.15,0-5.1-2.16-5.1-5.25a5,5,0,0,1,5.1-5.27c3.4,0,5,2.86,4.85,5.93Zm4.46-1.74c-.25-1.39-.85-2.12-2.18-2.12a2.16,2.16,0,0,0-2.28,2.12Z"/><path class="cls-2" d="M501.45,136.51h2.61v1.27h0a3.32,3.32,0,0,1,3-1.54c3.13,0,4.54,2.53,4.54,5.37,0,2.66-1.47,5.16-4.38,5.16a3.54,3.54,0,0,1-3-1.51h0V150h-2.74Zm7.42,5c0-1.58-.64-3.22-2.39-3.22s-2.38,1.6-2.38,3.22.62,3.17,2.39,3.17S508.87,143.15,508.87,141.53Z"/><path class="cls-2" d="M515.12,142.16c.08,1.74.93,2.53,2.45,2.53a2.26,2.26,0,0,0,2.16-1.29h2.41a4.49,4.49,0,0,1-4.67,3.36c-3.15,0-5.1-2.16-5.1-5.25a5,5,0,0,1,5.1-5.27c3.4,0,5,2.86,4.85,5.93Zm4.46-1.74c-.25-1.39-.85-2.12-2.18-2.12a2.16,2.16,0,0,0-2.28,2.12Z"/><path class="cls-2" d="M523.56,136.51h2.61v1.39h.06a3.56,3.56,0,0,1,3.05-1.66c2.92,0,3.65,1.64,3.65,4.11v6.14h-2.74v-5.64c0-1.64-.48-2.45-1.76-2.45-1.49,0-2.12.83-2.12,2.86v5.23h-2.74Z"/><path class="cls-2" d="M541.75,145.22h0a3.31,3.31,0,0,1-3,1.54c-3,0-4.48-2.59-4.48-5.35s1.49-5.18,4.42-5.18a3.49,3.49,0,0,1,3,1.49h0v-5h2.74v13.79h-2.61Zm-2.39-6.91c-1.8,0-2.41,1.54-2.41,3.19s.71,3.21,2.41,3.21,2.36-1.58,2.36-3.22S541.13,138.3,539.36,138.3Z"/><path class="cls-2" d="M548.3,142.16c.08,1.74.93,2.53,2.45,2.53a2.26,2.26,0,0,0,2.16-1.29h2.41a4.49,4.49,0,0,1-4.67,3.36c-3.15,0-5.1-2.16-5.1-5.25a5,5,0,0,1,5.1-5.27c3.4,0,5,2.86,4.85,5.93Zm4.46-1.74c-.25-1.39-.85-2.12-2.18-2.12a2.16,2.16,0,0,0-2.28,2.12Z"/><path class="cls-2" d="M556.73,136.51h2.61v1.39h.06a3.56,3.56,0,0,1,3.05-1.66c2.92,0,3.65,1.64,3.65,4.11v6.14h-2.74v-5.64c0-1.64-.48-2.45-1.76-2.45-1.49,0-2.12.83-2.12,2.86v5.23h-2.74Z"/><path class="cls-2" d="M571.27,136.51h2v1.83h-2v4.94c0,.93.23,1.16,1.16,1.16a4.22,4.22,0,0,0,.85-.08v2.14a10.51,10.51,0,0,1-1.6.1c-1.68,0-3.15-.39-3.15-2.38v-5.89h-1.66v-1.83h1.66v-3h2.74Z"/><path class="cls-2" d="M574.29,132.7H577v13.79h-2.74Z"/><path class="cls-2" d="M583.73,147.75a3.13,3.13,0,0,1-3.44,2.26,16.3,16.3,0,0,1-1.68-.1v-2.26a14.55,14.55,0,0,0,1.6.1,1.29,1.29,0,0,0,.95-1.87l-3.51-9.37h2.94l2.26,6.84h0l2.18-6.84h2.84Z"/><path class="cls-2" d="M598.27,136.24a5.26,5.26,0,1,1-5.16,5.27A4.9,4.9,0,0,1,598.27,136.24Zm0,8.46c1.87,0,2.43-1.6,2.43-3.19s-.56-3.21-2.43-3.21-2.41,1.6-2.41,3.21S596.42,144.69,598.27,144.69Z"/><path class="cls-2" d="M604.45,136.51h2.61v1.85h0a3.53,3.53,0,0,1,3.19-2.12,2,2,0,0,1,.6.1v2.55a5,5,0,0,0-1-.1c-2,0-2.7,1.45-2.7,3.21v4.5h-2.74Z"/><path class="cls-2" d="M621.17,145.85c0,1.64-.58,4.42-5.18,4.42-2,0-4.27-.93-4.4-3.21h2.72a1.86,1.86,0,0,0,2,1.37c1.53,0,2.22-1,2.2-2.47v-1.31h0a3.37,3.37,0,0,1-3,1.54c-3,0-4.27-2.28-4.27-5,0-2.59,1.49-4.94,4.29-4.94a3.11,3.11,0,0,1,3,1.6h0v-1.33h2.61Zm-2.61-4.48c0-1.62-.56-3.07-2.34-3.07-1.54,0-2.22,1.35-2.22,2.84s.54,3,2.22,3S618.56,142.8,618.56,141.37Z"/><path class="cls-2" d="M622.48,139.58c.15-2.57,2.45-3.34,4.69-3.34,2,0,4.38.44,4.38,2.84v5.19a5.12,5.12,0,0,0,.35,2.22h-2.78a4.07,4.07,0,0,1-.19-1,4.58,4.58,0,0,1-3.36,1.24c-1.89,0-3.4-.95-3.4-3,0-2.26,1.7-2.8,3.4-3s3.24-.19,3.24-1.31-.81-1.35-1.78-1.35-1.72.42-1.82,1.51Zm6.33,2a5.45,5.45,0,0,1-2.28.58c-.85.17-1.62.46-1.62,1.47s.79,1.27,1.68,1.27a2,2,0,0,0,2.22-2.3Z"/><path class="cls-2" d="M633.3,136.51h2.61v1.39H636a3.56,3.56,0,0,1,3.05-1.66c2.92,0,3.65,1.64,3.65,4.11v6.14h-2.74v-5.64c0-1.64-.48-2.45-1.76-2.45-1.49,0-2.12.83-2.12,2.86v5.23H633.3Z"/><path class="cls-2" d="M646.79,135h-2.74V132.7h2.74Zm-2.74,1.54h2.74v10h-2.74Z"/><path class="cls-2" d="M648,144.42l5.19-5.85h-4.81v-2.07h8.42v2.07l-5.19,5.85h5.56v2.07H648Z"/><path class="cls-2" d="M660.46,142.16c.08,1.74.93,2.53,2.45,2.53a2.26,2.26,0,0,0,2.16-1.29h2.41a4.49,4.49,0,0,1-4.67,3.36c-3.15,0-5.1-2.16-5.1-5.25a5,5,0,0,1,5.1-5.27c3.4,0,5,2.86,4.85,5.93Zm4.46-1.74c-.25-1.39-.85-2.12-2.18-2.12a2.16,2.16,0,0,0-2.28,2.12Z"/><path class="cls-2" d="M676,145.22h0a3.31,3.31,0,0,1-3,1.54c-3,0-4.48-2.59-4.48-5.35s1.49-5.18,4.42-5.18a3.49,3.49,0,0,1,3,1.49h0v-5h2.74v13.79H676Zm-2.39-6.91c-1.8,0-2.41,1.54-2.41,3.19s.71,3.21,2.41,3.21,2.36-1.58,2.36-3.22S675.41,138.3,673.63,138.3Z"/><path class="cls-2" d="M688.64,135.25H684.5V132.7h11.3v2.55h-4.13v11.24h-3Z"/><path class="cls-2" d="M697,132.7h10.31v2.55H700v3h6.68v2.36H700v3.38h7.43v2.55H697Z"/><path class="cls-2" d="M708.74,132.7h5.95c3.57,0,6.26,2.24,6.26,6.82,0,4-2,7-6.26,7h-5.95Zm3,11.24h2.7c1.76,0,3.44-1.08,3.44-4.13,0-2.78-1-4.56-4-4.56h-2.16Z"/><path class="cls-2" d="M729.61,142.16c.08,1.74.93,2.53,2.45,2.53a2.26,2.26,0,0,0,2.16-1.29h2.41a4.49,4.49,0,0,1-4.67,3.36c-3.15,0-5.1-2.16-5.1-5.25a5,5,0,0,1,5.1-5.27c3.4,0,5,2.86,4.85,5.93Zm4.46-1.74c-.25-1.39-.85-2.12-2.18-2.12a2.16,2.16,0,0,0-2.28,2.12Z"/><path class="cls-2" d="M743.18,146.49h-3.05l-3.42-10h2.88l2.1,6.82h0l2.1-6.82h2.72Z"/><path class="cls-2" d="M749.19,142.16c.08,1.74.93,2.53,2.45,2.53a2.26,2.26,0,0,0,2.16-1.29h2.41a4.49,4.49,0,0,1-4.67,3.36c-3.15,0-5.1-2.16-5.1-5.25a5,5,0,0,1,5.1-5.27c3.4,0,5,2.86,4.85,5.93Zm4.46-1.74c-.25-1.39-.85-2.12-2.18-2.12a2.16,2.16,0,0,0-2.28,2.12Z"/><path class="cls-2" d="M757.63,136.51h2.61v1.39h.06a3.56,3.56,0,0,1,3.05-1.66c2.92,0,3.65,1.64,3.65,4.11v6.14h-2.74v-5.64c0-1.64-.48-2.45-1.76-2.45-1.49,0-2.12.83-2.12,2.86v5.23h-2.74Z"/><path class="cls-2" d="M772.17,136.51h2v1.83h-2v4.94c0,.93.23,1.16,1.16,1.16a4.22,4.22,0,0,0,.85-.08v2.14a10.5,10.5,0,0,1-1.6.1c-1.68,0-3.15-.39-3.15-2.38v-5.89h-1.66v-1.83h1.66v-3h2.74Z"/><path class="cls-1" d="M447.52,87.09H434.66V75.32h39.86V87.09H461.66v34.14H447.52Z"/><path class="cls-1" d="M476.72,75.32h38.7V87.09H490.86v5.72h24.55v10.93H490.86v5.72h24.56v11.77h-38.7Z"/><path class="cls-1" d="M517.79,75.32H541c15.3,0,20.71,11.32,20.71,22.89,0,14.09-7.46,23-23.47,23H517.79Zm14.14,34.14h5.53c8.81,0,10.1-7.14,10.1-11.45,0-2.89-.9-10.92-11.13-10.92h-4.5Z"/><path class="cls-1" d="M582,103.54l-4.31-7.15-4.21,7.15H563.15L573,89.07l-9.47-13.84h10.37l3.84,6.84,3.95-6.84H592l-9.47,13.84,9.84,14.47Z"/><text class="cls-3" transform="translate(598.46 121.15)">YNU</text><text class="cls-6" transform="translate(505.15 419.21)">X</text><path class="cls-1" d="M439.26,667,436,662.26h3.13l1.76,2.61,1.74-2.61h3l-3.28,4.67,3.69,5.31h-3.13l-2.09-3.15-2.09,3.15h-3.07Z"/><path class="cls-2" d="M459,666.33h-9.75v-2.07H459Zm0,4.13h-9.75V668.4H459Z"/><path class="cls-2" d="M466.5,660.71h-2.74v-2.26h2.74Zm-2.74,1.54h2.74v10h-2.74Z"/><path class="cls-2" d="M468.28,662.26h2.61v1.39h.06A3.56,3.56,0,0,1,474,662c2.92,0,3.65,1.64,3.65,4.11v6.14H474.9V666.6c0-1.64-.48-2.45-1.76-2.45-1.49,0-2.12.83-2.12,2.86v5.23h-2.74Z"/><path class="cls-2" d="M486.47,671h0a3.31,3.31,0,0,1-3,1.54c-3,0-4.48-2.59-4.48-5.35s1.49-5.18,4.42-5.18a3.49,3.49,0,0,1,3,1.49h0v-5h2.74v13.79h-2.61Zm-2.39-6.91c-1.8,0-2.41,1.54-2.41,3.19s.71,3.21,2.41,3.21,2.36-1.58,2.36-3.22S485.85,664.05,484.08,664.05Z"/><path class="cls-2" d="M493,667.92c.08,1.74.93,2.53,2.45,2.53a2.26,2.26,0,0,0,2.16-1.29H500a4.49,4.49,0,0,1-4.67,3.36c-3.15,0-5.1-2.16-5.1-5.25a5,5,0,0,1,5.1-5.27c3.4,0,5,2.86,4.85,5.93Zm4.46-1.74c-.25-1.39-.85-2.12-2.18-2.12a2.16,2.16,0,0,0-2.28,2.12Z"/><path class="cls-2" d="M501.45,662.26h2.61v1.27h0a3.32,3.32,0,0,1,3-1.54c3.13,0,4.54,2.53,4.54,5.37,0,2.66-1.47,5.16-4.38,5.16a3.54,3.54,0,0,1-3-1.51h0v4.75h-2.74Zm7.42,5c0-1.58-.64-3.22-2.39-3.22s-2.38,1.6-2.38,3.22.62,3.17,2.39,3.17S508.87,668.9,508.87,667.28Z"/><path class="cls-2" d="M515.12,667.92c.08,1.74.93,2.53,2.45,2.53a2.26,2.26,0,0,0,2.16-1.29h2.41a4.49,4.49,0,0,1-4.67,3.36c-3.15,0-5.1-2.16-5.1-5.25a5,5,0,0,1,5.1-5.27c3.4,0,5,2.86,4.85,5.93Zm4.46-1.74c-.25-1.39-.85-2.12-2.18-2.12a2.16,2.16,0,0,0-2.28,2.12Z"/><path class="cls-2" d="M523.56,662.26h2.61v1.39h.06a3.56,3.56,0,0,1,3.05-1.66c2.92,0,3.65,1.64,3.65,4.11v6.14h-2.74V666.6c0-1.64-.48-2.45-1.76-2.45-1.49,0-2.12.83-2.12,2.86v5.23h-2.74Z"/><path class="cls-2" d="M541.75,671h0a3.31,3.31,0,0,1-3,1.54c-3,0-4.48-2.59-4.48-5.35s1.49-5.18,4.42-5.18a3.49,3.49,0,0,1,3,1.49h0v-5h2.74v13.79h-2.61Zm-2.39-6.91c-1.8,0-2.41,1.54-2.41,3.19s.71,3.21,2.41,3.21,2.36-1.58,2.36-3.22S541.13,664.05,539.36,664.05Z"/><path class="cls-2" d="M548.3,667.92c.08,1.74.93,2.53,2.45,2.53a2.26,2.26,0,0,0,2.16-1.29h2.41a4.49,4.49,0,0,1-4.67,3.36c-3.15,0-5.1-2.16-5.1-5.25a5,5,0,0,1,5.1-5.27c3.4,0,5,2.86,4.85,5.93Zm4.46-1.74c-.25-1.39-.85-2.12-2.18-2.12a2.16,2.16,0,0,0-2.28,2.12Z"/><path class="cls-2" d="M556.73,662.26h2.61v1.39h.06a3.56,3.56,0,0,1,3.05-1.66c2.92,0,3.65,1.64,3.65,4.11v6.14h-2.74V666.6c0-1.64-.48-2.45-1.76-2.45-1.49,0-2.12.83-2.12,2.86v5.23h-2.74Z"/><path class="cls-2" d="M571.27,662.26h2v1.83h-2V669c0,.93.23,1.16,1.16,1.16a4.22,4.22,0,0,0,.85-.08v2.14a10.51,10.51,0,0,1-1.6.1c-1.68,0-3.15-.39-3.15-2.38v-5.89h-1.66v-1.83h1.66v-3h2.74Z"/><path class="cls-2" d="M574.29,658.45H577v13.79h-2.74Z"/><path class="cls-2" d="M583.73,673.5a3.13,3.13,0,0,1-3.44,2.26,16.3,16.3,0,0,1-1.68-.1V673.4a14.55,14.55,0,0,0,1.6.1,1.29,1.29,0,0,0,.95-1.87l-3.51-9.37h2.94l2.26,6.84h0l2.18-6.84h2.84Z"/><path class="cls-2" d="M598.27,662a5.26,5.26,0,1,1-5.16,5.27A4.9,4.9,0,0,1,598.27,662Zm0,8.46c1.87,0,2.43-1.6,2.43-3.19s-.56-3.21-2.43-3.21-2.41,1.6-2.41,3.21S596.42,670.44,598.27,670.44Z"/><path class="cls-2" d="M604.45,662.26h2.61v1.85h0a3.53,3.53,0,0,1,3.19-2.12,2,2,0,0,1,.6.1v2.55a5,5,0,0,0-1-.1c-2,0-2.7,1.45-2.7,3.21v4.5h-2.74Z"/><path class="cls-2" d="M621.17,671.6c0,1.64-.58,4.42-5.18,4.42-2,0-4.27-.93-4.4-3.21h2.72a1.86,1.86,0,0,0,2,1.37c1.53,0,2.22-1,2.2-2.47v-1.31h0a3.37,3.37,0,0,1-3,1.54c-3,0-4.27-2.28-4.27-5,0-2.59,1.49-4.94,4.29-4.94a3.11,3.11,0,0,1,3,1.6h0v-1.33h2.61Zm-2.61-4.48c0-1.62-.56-3.07-2.34-3.07-1.54,0-2.22,1.35-2.22,2.84s.54,3,2.22,3S618.56,668.55,618.56,667.12Z"/><path class="cls-2" d="M622.48,665.33c.15-2.57,2.45-3.34,4.69-3.34,2,0,4.38.44,4.38,2.84V670a5.12,5.12,0,0,0,.35,2.22h-2.78a4.07,4.07,0,0,1-.19-1,4.58,4.58,0,0,1-3.36,1.24c-1.89,0-3.4-.95-3.4-3,0-2.26,1.7-2.8,3.4-3s3.24-.19,3.24-1.31-.81-1.35-1.78-1.35-1.72.42-1.82,1.51Zm6.33,2a5.45,5.45,0,0,1-2.28.58c-.85.17-1.62.46-1.62,1.47s.79,1.27,1.68,1.27a2,2,0,0,0,2.22-2.3Z"/><path class="cls-2" d="M633.3,662.26h2.61v1.39H636A3.56,3.56,0,0,1,639,662c2.92,0,3.65,1.64,3.65,4.11v6.14h-2.74V666.6c0-1.64-.48-2.45-1.76-2.45-1.49,0-2.12.83-2.12,2.86v5.23H633.3Z"/><path class="cls-2" d="M646.79,660.71h-2.74v-2.26h2.74Zm-2.74,1.54h2.74v10h-2.74Z"/><path class="cls-2" d="M648,670.17l5.19-5.85h-4.81v-2.07h8.42v2.07l-5.19,5.85h5.56v2.07H648Z"/><path class="cls-2" d="M660.46,667.92c.08,1.74.93,2.53,2.45,2.53a2.26,2.26,0,0,0,2.16-1.29h2.41a4.49,4.49,0,0,1-4.67,3.36c-3.15,0-5.1-2.16-5.1-5.25a5,5,0,0,1,5.1-5.27c3.4,0,5,2.86,4.85,5.93Zm4.46-1.74c-.25-1.39-.85-2.12-2.18-2.12a2.16,2.16,0,0,0-2.28,2.12Z"/><path class="cls-2" d="M676,671h0a3.31,3.31,0,0,1-3,1.54c-3,0-4.48-2.59-4.48-5.35S670,662,672.9,662a3.49,3.49,0,0,1,3,1.49h0v-5h2.74v13.79H676Zm-2.39-6.91c-1.8,0-2.41,1.54-2.41,3.19s.71,3.21,2.41,3.21,2.36-1.58,2.36-3.22S675.41,664.05,673.63,664.05Z"/><path class="cls-2" d="M688.64,661H684.5v-2.55h11.3V661h-4.13v11.24h-3Z"/><path class="cls-2" d="M697,658.45h10.31V661H700v3h6.68v2.36H700v3.38h7.43v2.55H697Z"/><path class="cls-2" d="M708.74,658.45h5.95c3.57,0,6.26,2.24,6.26,6.82,0,4-2,7-6.26,7h-5.95Zm3,11.24h2.7c1.76,0,3.44-1.08,3.44-4.13,0-2.78-1-4.56-4-4.56h-2.16Z"/><path class="cls-2" d="M729.61,667.92c.08,1.74.93,2.53,2.45,2.53a2.26,2.26,0,0,0,2.16-1.29h2.41a4.49,4.49,0,0,1-4.67,3.36c-3.15,0-5.1-2.16-5.1-5.25A5,5,0,0,1,732,662c3.4,0,5,2.86,4.85,5.93Zm4.46-1.74c-.25-1.39-.85-2.12-2.18-2.12a2.16,2.16,0,0,0-2.28,2.12Z"/><path class="cls-2" d="M743.18,672.24h-3.05l-3.42-10h2.88l2.1,6.82h0l2.1-6.82h2.72Z"/><path class="cls-2" d="M749.19,667.92c.08,1.74.93,2.53,2.45,2.53a2.26,2.26,0,0,0,2.16-1.29h2.41a4.49,4.49,0,0,1-4.67,3.36c-3.15,0-5.1-2.16-5.1-5.25a5,5,0,0,1,5.1-5.27c3.4,0,5,2.86,4.85,5.93Zm4.46-1.74c-.25-1.39-.85-2.12-2.18-2.12a2.16,2.16,0,0,0-2.28,2.12Z"/><path class="cls-2" d="M757.63,662.26h2.61v1.39h.06a3.56,3.56,0,0,1,3.05-1.66c2.92,0,3.65,1.64,3.65,4.11v6.14h-2.74V666.6c0-1.64-.48-2.45-1.76-2.45-1.49,0-2.12.83-2.12,2.86v5.23h-2.74Z"/><path class="cls-2" d="M772.17,662.26h2v1.83h-2V669c0,.93.23,1.16,1.16,1.16a4.22,4.22,0,0,0,.85-.08v2.14a10.5,10.5,0,0,1-1.6.1c-1.68,0-3.15-.39-3.15-2.38v-5.89h-1.66v-1.83h1.66v-3h2.74Z"/><path class="cls-1" d="M447.52,612.84H434.66V601.07h39.86v11.77H461.66V647H447.52Z"/><path class="cls-1" d="M476.72,601.07h38.7v11.77H490.86v5.72h24.55v10.93H490.86v5.72h24.56V647h-38.7Z"/><path class="cls-1" d="M517.79,601.07H541c15.3,0,20.71,11.32,20.71,22.89,0,14.09-7.46,23-23.47,23H517.79Zm14.14,34.14h5.53c8.81,0,10.1-7.14,10.1-11.45,0-2.89-.9-10.92-11.13-10.92h-4.5Z"/><path class="cls-1" d="M582,629.29l-4.31-7.15-4.21,7.15H563.15L573,614.82,563.51,601h10.37l3.84,6.84,3.95-6.84H592l-9.47,13.84,9.84,14.47Z"/><text class="cls-3" transform="translate(598.46 646.91)">YNU</text><text class="cls-7" transform="translate(508.78 944.96)">X</text><path class="cls-1" d="M848.67,141.24l-3.28-4.73h3.13l1.76,2.61,1.74-2.61h3l-3.28,4.67,3.69,5.31h-3.13l-2.09-3.15-2.09,3.15h-3.07Z"/><path class="cls-2" d="M868.45,140.58h-9.75v-2.07h9.75Zm0,4.13h-9.75v-2.07h9.75Z"/><path class="cls-2" d="M875.92,135h-2.74V132.7h2.74Zm-2.74,1.54h2.74v10h-2.74Z"/><path class="cls-2" d="M877.69,136.51h2.61v1.39h.06a3.56,3.56,0,0,1,3.05-1.66c2.92,0,3.65,1.64,3.65,4.11v6.14h-2.74v-5.64c0-1.64-.48-2.45-1.76-2.45-1.49,0-2.12.83-2.12,2.86v5.23h-2.74Z"/><path class="cls-2" d="M895.88,145.22h0a3.31,3.31,0,0,1-3,1.54c-3,0-4.48-2.59-4.48-5.35s1.49-5.18,4.42-5.18a3.49,3.49,0,0,1,3,1.49h0v-5h2.74v13.79h-2.61Zm-2.39-6.91c-1.8,0-2.41,1.54-2.41,3.19s.71,3.21,2.41,3.21,2.36-1.58,2.36-3.22S895.27,138.3,893.49,138.3Z"/><path class="cls-2" d="M902.43,142.16c.08,1.74.93,2.53,2.45,2.53A2.26,2.26,0,0,0,907,143.4h2.41a4.49,4.49,0,0,1-4.67,3.36c-3.15,0-5.1-2.16-5.1-5.25a5,5,0,0,1,5.1-5.27c3.4,0,5,2.86,4.85,5.93Zm4.46-1.74c-.25-1.39-.85-2.12-2.18-2.12a2.16,2.16,0,0,0-2.28,2.12Z"/><path class="cls-2" d="M910.87,136.51h2.61v1.27h0a3.32,3.32,0,0,1,3-1.54c3.13,0,4.54,2.53,4.54,5.37,0,2.66-1.47,5.16-4.38,5.16a3.54,3.54,0,0,1-3-1.51h0V150h-2.74Zm7.42,5c0-1.58-.64-3.22-2.39-3.22s-2.38,1.6-2.38,3.22.62,3.17,2.39,3.17S918.28,143.15,918.28,141.53Z"/><path class="cls-2" d="M924.54,142.16c.08,1.74.93,2.53,2.45,2.53a2.26,2.26,0,0,0,2.16-1.29h2.41a4.49,4.49,0,0,1-4.67,3.36c-3.15,0-5.1-2.16-5.1-5.25a5,5,0,0,1,5.1-5.27c3.4,0,5,2.86,4.85,5.93Zm4.46-1.74c-.25-1.39-.85-2.12-2.18-2.12a2.16,2.16,0,0,0-2.28,2.12Z"/><path class="cls-2" d="M933,136.51h2.61v1.39h.06a3.56,3.56,0,0,1,3.05-1.66c2.92,0,3.65,1.64,3.65,4.11v6.14H939.6v-5.64c0-1.64-.48-2.45-1.76-2.45-1.49,0-2.12.83-2.12,2.86v5.23H933Z"/><path class="cls-2" d="M951.17,145.22h0a3.31,3.31,0,0,1-3,1.54c-3,0-4.48-2.59-4.48-5.35s1.49-5.18,4.42-5.18a3.49,3.49,0,0,1,3,1.49h0v-5h2.74v13.79h-2.61Zm-2.39-6.91c-1.8,0-2.41,1.54-2.41,3.19s.71,3.21,2.41,3.21,2.36-1.58,2.36-3.22S950.55,138.3,948.77,138.3Z"/><path class="cls-2" d="M957.71,142.16c.08,1.74.93,2.53,2.45,2.53a2.26,2.26,0,0,0,2.16-1.29h2.41a4.49,4.49,0,0,1-4.67,3.36c-3.15,0-5.1-2.16-5.1-5.25a5,5,0,0,1,5.1-5.27c3.4,0,5,2.86,4.85,5.93Zm4.46-1.74c-.25-1.39-.85-2.12-2.18-2.12a2.16,2.16,0,0,0-2.28,2.12Z"/><path class="cls-2" d="M966.15,136.51h2.61v1.39h.06a3.56,3.56,0,0,1,3.05-1.66c2.92,0,3.65,1.64,3.65,4.11v6.14h-2.74v-5.64c0-1.64-.48-2.45-1.76-2.45-1.49,0-2.12.83-2.12,2.86v5.23h-2.74Z"/><path class="cls-2" d="M980.69,136.51h2v1.83h-2v4.94c0,.93.23,1.16,1.16,1.16a4.22,4.22,0,0,0,.85-.08v2.14a10.51,10.51,0,0,1-1.6.1c-1.68,0-3.15-.39-3.15-2.38v-5.89h-1.66v-1.83h1.66v-3h2.74Z"/><path class="cls-2" d="M983.7,132.7h2.74v13.79H983.7Z"/><path class="cls-2" d="M993.14,147.75a3.13,3.13,0,0,1-3.44,2.26,16.3,16.3,0,0,1-1.68-.1v-2.26a14.55,14.55,0,0,0,1.6.1,1.29,1.29,0,0,0,.95-1.87l-3.51-9.37H990l2.26,6.84h0l2.18-6.84h2.84Z"/><path class="cls-2" d="M1007.68,136.24a5.26,5.26,0,1,1-5.16,5.27A4.9,4.9,0,0,1,1007.68,136.24Zm0,8.46c1.87,0,2.43-1.6,2.43-3.19s-.56-3.21-2.43-3.21-2.41,1.6-2.41,3.21S1005.83,144.69,1007.68,144.69Z"/><path class="cls-2" d="M1013.86,136.51h2.61v1.85h0a3.53,3.53,0,0,1,3.19-2.12,2,2,0,0,1,.6.1v2.55a5,5,0,0,0-1-.1c-2,0-2.7,1.45-2.7,3.21v4.5h-2.74Z"/><path class="cls-2" d="M1030.58,145.85c0,1.64-.58,4.42-5.18,4.42-2,0-4.27-.93-4.4-3.21h2.72a1.86,1.86,0,0,0,2,1.37c1.53,0,2.22-1,2.2-2.47v-1.31h0a3.37,3.37,0,0,1-3,1.54c-3,0-4.27-2.28-4.27-5,0-2.59,1.49-4.94,4.29-4.94a3.11,3.11,0,0,1,3,1.6h0v-1.33h2.61Zm-2.61-4.48c0-1.62-.56-3.07-2.34-3.07-1.54,0-2.22,1.35-2.22,2.84s.54,3,2.22,3S1028,142.8,1028,141.37Z"/><path class="cls-2" d="M1031.9,139.58c.15-2.57,2.45-3.34,4.69-3.34,2,0,4.38.44,4.38,2.84v5.19a5.12,5.12,0,0,0,.35,2.22h-2.78a4.07,4.07,0,0,1-.19-1,4.58,4.58,0,0,1-3.36,1.24c-1.89,0-3.4-.95-3.4-3,0-2.26,1.7-2.8,3.4-3s3.24-.19,3.24-1.31-.81-1.35-1.78-1.35-1.72.42-1.82,1.51Zm6.33,2a5.45,5.45,0,0,1-2.28.58c-.85.17-1.62.46-1.62,1.47s.79,1.27,1.68,1.27a2,2,0,0,0,2.22-2.3Z"/><path class="cls-2" d="M1042.71,136.51h2.61v1.39h.06a3.56,3.56,0,0,1,3.05-1.66c2.92,0,3.65,1.64,3.65,4.11v6.14h-2.74v-5.64c0-1.64-.48-2.45-1.76-2.45-1.49,0-2.12.83-2.12,2.86v5.23h-2.74Z"/><path class="cls-2" d="M1056.21,135h-2.74V132.7h2.74Zm-2.74,1.54h2.74v10h-2.74Z"/><path class="cls-2" d="M1057.36,144.42l5.19-5.85h-4.81v-2.07h8.42v2.07l-5.19,5.85h5.56v2.07h-9.17Z"/><path class="cls-2" d="M1069.88,142.16c.08,1.74.93,2.53,2.45,2.53a2.26,2.26,0,0,0,2.16-1.29h2.41a4.49,4.49,0,0,1-4.67,3.36c-3.15,0-5.1-2.16-5.1-5.25a5,5,0,0,1,5.1-5.27c3.4,0,5,2.86,4.85,5.93Zm4.46-1.74c-.25-1.39-.85-2.12-2.18-2.12a2.16,2.16,0,0,0-2.28,2.12Z"/><path class="cls-2" d="M1085.44,145.22h0a3.31,3.31,0,0,1-3,1.54c-3,0-4.48-2.59-4.48-5.35s1.49-5.18,4.42-5.18a3.49,3.49,0,0,1,3,1.49h0v-5H1088v13.79h-2.61ZM1083,138.3c-1.8,0-2.41,1.54-2.41,3.19s.71,3.21,2.41,3.21,2.36-1.58,2.36-3.22S1084.82,138.3,1083,138.3Z"/><path class="cls-2" d="M1098,135.25h-4.13V132.7h11.3v2.55h-4.13v11.24h-3Z"/><path class="cls-2" d="M1106.41,132.7h10.31v2.55h-7.28v3h6.68v2.36h-6.68v3.38h7.43v2.55h-10.47Z"/><path class="cls-2" d="M1118.15,132.7h5.95c3.57,0,6.26,2.24,6.26,6.82,0,4-2,7-6.26,7h-5.95Zm3,11.24h2.7c1.76,0,3.44-1.08,3.44-4.13,0-2.78-1-4.56-4-4.56h-2.16Z"/><path class="cls-2" d="M1139,142.16c.08,1.74.93,2.53,2.45,2.53a2.26,2.26,0,0,0,2.16-1.29h2.41a4.49,4.49,0,0,1-4.67,3.36c-3.15,0-5.1-2.16-5.1-5.25a5,5,0,0,1,5.1-5.27c3.4,0,5,2.86,4.85,5.93Zm4.46-1.74c-.25-1.39-.85-2.12-2.18-2.12a2.16,2.16,0,0,0-2.28,2.12Z"/><path class="cls-2" d="M1152.6,146.49h-3.05l-3.42-10H1149l2.1,6.82h0l2.1-6.82H1156Z"/><path class="cls-2" d="M1158.6,142.16c.08,1.74.93,2.53,2.45,2.53a2.26,2.26,0,0,0,2.16-1.29h2.41a4.49,4.49,0,0,1-4.67,3.36c-3.15,0-5.1-2.16-5.1-5.25a5,5,0,0,1,5.1-5.27c3.4,0,5,2.86,4.85,5.93Zm4.46-1.74c-.25-1.39-.85-2.12-2.18-2.12a2.16,2.16,0,0,0-2.28,2.12Z"/><path class="cls-2" d="M1167,136.51h2.61v1.39h.06a3.56,3.56,0,0,1,3.05-1.66c2.92,0,3.65,1.64,3.65,4.11v6.14h-2.74v-5.64c0-1.64-.48-2.45-1.76-2.45-1.49,0-2.12.83-2.12,2.86v5.23H1167Z"/><path class="cls-2" d="M1181.58,136.51h2v1.83h-2v4.94c0,.93.23,1.16,1.16,1.16a4.22,4.22,0,0,0,.85-.08v2.14a10.5,10.5,0,0,1-1.6.1c-1.68,0-3.15-.39-3.15-2.38v-5.89h-1.66v-1.83h1.66v-3h2.74Z"/><path class="cls-1" d="M856.94,87.09H844.07V75.32h39.86V87.09H871.07v34.14H856.94Z"/><path class="cls-1" d="M886.13,75.32h38.7V87.09H900.28v5.72h24.55v10.93H900.28v5.72h24.56v11.77h-38.7Z"/><path class="cls-1" d="M927.21,75.32h23.21c15.3,0,20.71,11.32,20.71,22.89,0,14.09-7.46,23-23.47,23H927.21Zm14.14,34.14h5.53c8.81,0,10.1-7.14,10.1-11.45,0-2.89-.9-10.92-11.13-10.92h-4.5Z"/><path class="cls-1" d="M991.45,103.54l-4.31-7.15-4.21,7.15H972.56l9.84-14.47-9.47-13.84H983.3l3.84,6.84,3.95-6.84h10.36L992,89.07l9.84,14.47Z"/><text class="cls-3" transform="translate(1007.88 121.15)">YNU</text><text class="cls-8" transform="translate(942.33 419.2)">X</text><path class="cls-1" d="M848.67,667l-3.28-4.73h3.13l1.76,2.61,1.74-2.61h3l-3.28,4.67,3.69,5.31h-3.13l-2.09-3.15-2.09,3.15h-3.07Z"/><path class="cls-2" d="M868.45,666.33h-9.75v-2.07h9.75Zm0,4.13h-9.75V668.4h9.75Z"/><path class="cls-2" d="M875.92,660.71h-2.74v-2.26h2.74Zm-2.74,1.54h2.74v10h-2.74Z"/><path class="cls-2" d="M877.69,662.26h2.61v1.39h.06a3.56,3.56,0,0,1,3.05-1.66c2.92,0,3.65,1.64,3.65,4.11v6.14h-2.74V666.6c0-1.64-.48-2.45-1.76-2.45-1.49,0-2.12.83-2.12,2.86v5.23h-2.74Z"/><path class="cls-2" d="M895.88,671h0a3.31,3.31,0,0,1-3,1.54c-3,0-4.48-2.59-4.48-5.35s1.49-5.18,4.42-5.18a3.49,3.49,0,0,1,3,1.49h0v-5h2.74v13.79h-2.61Zm-2.39-6.91c-1.8,0-2.41,1.54-2.41,3.19s.71,3.21,2.41,3.21,2.36-1.58,2.36-3.22S895.27,664.05,893.49,664.05Z"/><path class="cls-2" d="M902.43,667.92c.08,1.74.93,2.53,2.45,2.53a2.26,2.26,0,0,0,2.16-1.29h2.41a4.49,4.49,0,0,1-4.67,3.36c-3.15,0-5.1-2.16-5.1-5.25a5,5,0,0,1,5.1-5.27c3.4,0,5,2.86,4.85,5.93Zm4.46-1.74c-.25-1.39-.85-2.12-2.18-2.12a2.16,2.16,0,0,0-2.28,2.12Z"/><path class="cls-2" d="M910.87,662.26h2.61v1.27h0a3.32,3.32,0,0,1,3-1.54c3.13,0,4.54,2.53,4.54,5.37,0,2.66-1.47,5.16-4.38,5.16a3.54,3.54,0,0,1-3-1.51h0v4.75h-2.74Zm7.42,5c0-1.58-.64-3.22-2.39-3.22s-2.38,1.6-2.38,3.22.62,3.17,2.39,3.17S918.28,668.9,918.28,667.28Z"/><path class="cls-2" d="M924.54,667.92c.08,1.74.93,2.53,2.45,2.53a2.26,2.26,0,0,0,2.16-1.29h2.41a4.49,4.49,0,0,1-4.67,3.36c-3.15,0-5.1-2.16-5.1-5.25a5,5,0,0,1,5.1-5.27c3.4,0,5,2.86,4.85,5.93Zm4.46-1.74c-.25-1.39-.85-2.12-2.18-2.12a2.16,2.16,0,0,0-2.28,2.12Z"/><path class="cls-2" d="M933,662.26h2.61v1.39h.06a3.56,3.56,0,0,1,3.05-1.66c2.92,0,3.65,1.64,3.65,4.11v6.14H939.6V666.6c0-1.64-.48-2.45-1.76-2.45-1.49,0-2.12.83-2.12,2.86v5.23H933Z"/><path class="cls-2" d="M951.17,671h0a3.31,3.31,0,0,1-3,1.54c-3,0-4.48-2.59-4.48-5.35S945.1,662,948,662a3.49,3.49,0,0,1,3,1.49h0v-5h2.74v13.79h-2.61Zm-2.39-6.91c-1.8,0-2.41,1.54-2.41,3.19s.71,3.21,2.41,3.21,2.36-1.58,2.36-3.22S950.55,664.05,948.77,664.05Z"/><path class="cls-2" d="M957.71,667.92c.08,1.74.93,2.53,2.45,2.53a2.26,2.26,0,0,0,2.16-1.29h2.41a4.49,4.49,0,0,1-4.67,3.36c-3.15,0-5.1-2.16-5.1-5.25a5,5,0,0,1,5.1-5.27c3.4,0,5,2.86,4.85,5.93Zm4.46-1.74c-.25-1.39-.85-2.12-2.18-2.12a2.16,2.16,0,0,0-2.28,2.12Z"/><path class="cls-2" d="M966.15,662.26h2.61v1.39h.06a3.56,3.56,0,0,1,3.05-1.66c2.92,0,3.65,1.64,3.65,4.11v6.14h-2.74V666.6c0-1.64-.48-2.45-1.76-2.45-1.49,0-2.12.83-2.12,2.86v5.23h-2.74Z"/><path class="cls-2" d="M980.69,662.26h2v1.83h-2V669c0,.93.23,1.16,1.16,1.16a4.22,4.22,0,0,0,.85-.08v2.14a10.51,10.51,0,0,1-1.6.1c-1.68,0-3.15-.39-3.15-2.38v-5.89h-1.66v-1.83h1.66v-3h2.74Z"/><path class="cls-2" d="M983.7,658.45h2.74v13.79H983.7Z"/><path class="cls-2" d="M993.14,673.5a3.13,3.13,0,0,1-3.44,2.26,16.3,16.3,0,0,1-1.68-.1V673.4a14.55,14.55,0,0,0,1.6.1,1.29,1.29,0,0,0,.95-1.87l-3.51-9.37H990l2.26,6.84h0l2.18-6.84h2.84Z"/><path class="cls-2" d="M1007.68,662a5.26,5.26,0,1,1-5.16,5.27A4.9,4.9,0,0,1,1007.68,662Zm0,8.46c1.87,0,2.43-1.6,2.43-3.19s-.56-3.21-2.43-3.21-2.41,1.6-2.41,3.21S1005.83,670.44,1007.68,670.44Z"/><path class="cls-2" d="M1013.86,662.26h2.61v1.85h0a3.53,3.53,0,0,1,3.19-2.12,2,2,0,0,1,.6.1v2.55a5,5,0,0,0-1-.1c-2,0-2.7,1.45-2.7,3.21v4.5h-2.74Z"/><path class="cls-2" d="M1030.58,671.6c0,1.64-.58,4.42-5.18,4.42-2,0-4.27-.93-4.4-3.21h2.72a1.86,1.86,0,0,0,2,1.37c1.53,0,2.22-1,2.2-2.47v-1.31h0a3.37,3.37,0,0,1-3,1.54c-3,0-4.27-2.28-4.27-5,0-2.59,1.49-4.94,4.29-4.94a3.11,3.11,0,0,1,3,1.6h0v-1.33h2.61Zm-2.61-4.48c0-1.62-.56-3.07-2.34-3.07-1.54,0-2.22,1.35-2.22,2.84s.54,3,2.22,3S1028,668.55,1028,667.12Z"/><path class="cls-2" d="M1031.9,665.33c.15-2.57,2.45-3.34,4.69-3.34,2,0,4.38.44,4.38,2.84V670a5.12,5.12,0,0,0,.35,2.22h-2.78a4.07,4.07,0,0,1-.19-1,4.58,4.58,0,0,1-3.36,1.24c-1.89,0-3.4-.95-3.4-3,0-2.26,1.7-2.8,3.4-3s3.24-.19,3.24-1.31-.81-1.35-1.78-1.35-1.72.42-1.82,1.51Zm6.33,2a5.45,5.45,0,0,1-2.28.58c-.85.17-1.62.46-1.62,1.47s.79,1.27,1.68,1.27a2,2,0,0,0,2.22-2.3Z"/><path class="cls-2" d="M1042.71,662.26h2.61v1.39h.06a3.56,3.56,0,0,1,3.05-1.66c2.92,0,3.65,1.64,3.65,4.11v6.14h-2.74V666.6c0-1.64-.48-2.45-1.76-2.45-1.49,0-2.12.83-2.12,2.86v5.23h-2.74Z"/><path class="cls-2" d="M1056.21,660.71h-2.74v-2.26h2.74Zm-2.74,1.54h2.74v10h-2.74Z"/><path class="cls-2" d="M1057.36,670.17l5.19-5.85h-4.81v-2.07h8.42v2.07l-5.19,5.85h5.56v2.07h-9.17Z"/><path class="cls-2" d="M1069.88,667.92c.08,1.74.93,2.53,2.45,2.53a2.26,2.26,0,0,0,2.16-1.29h2.41a4.49,4.49,0,0,1-4.67,3.36c-3.15,0-5.1-2.16-5.1-5.25a5,5,0,0,1,5.1-5.27c3.4,0,5,2.86,4.85,5.93Zm4.46-1.74c-.25-1.39-.85-2.12-2.18-2.12a2.16,2.16,0,0,0-2.28,2.12Z"/><path class="cls-2" d="M1085.44,671h0a3.31,3.31,0,0,1-3,1.54c-3,0-4.48-2.59-4.48-5.35s1.49-5.18,4.42-5.18a3.49,3.49,0,0,1,3,1.49h0v-5H1088v13.79h-2.61Zm-2.39-6.91c-1.8,0-2.41,1.54-2.41,3.19s.71,3.21,2.41,3.21,2.36-1.58,2.36-3.22S1084.82,664.05,1083,664.05Z"/><path class="cls-2" d="M1098,661h-4.13v-2.55h11.3V661h-4.13v11.24h-3Z"/><path class="cls-2" d="M1106.41,658.45h10.31V661h-7.28v3h6.68v2.36h-6.68v3.38h7.43v2.55h-10.47Z"/><path class="cls-2" d="M1118.15,658.45h5.95c3.57,0,6.26,2.24,6.26,6.82,0,4-2,7-6.26,7h-5.95Zm3,11.24h2.7c1.76,0,3.44-1.08,3.44-4.13,0-2.78-1-4.56-4-4.56h-2.16Z"/><path class="cls-2" d="M1139,667.92c.08,1.74.93,2.53,2.45,2.53a2.26,2.26,0,0,0,2.16-1.29h2.41a4.49,4.49,0,0,1-4.67,3.36c-3.15,0-5.1-2.16-5.1-5.25a5,5,0,0,1,5.1-5.27c3.4,0,5,2.86,4.85,5.93Zm4.46-1.74c-.25-1.39-.85-2.12-2.18-2.12a2.16,2.16,0,0,0-2.28,2.12Z"/><path class="cls-2" d="M1152.6,672.24h-3.05l-3.42-10H1149l2.1,6.82h0l2.1-6.82H1156Z"/><path class="cls-2" d="M1158.6,667.92c.08,1.74.93,2.53,2.45,2.53a2.26,2.26,0,0,0,2.16-1.29h2.41a4.49,4.49,0,0,1-4.67,3.36c-3.15,0-5.1-2.16-5.1-5.25A5,5,0,0,1,1161,662c3.4,0,5,2.86,4.85,5.93Zm4.46-1.74c-.25-1.39-.85-2.12-2.18-2.12a2.16,2.16,0,0,0-2.28,2.12Z"/><path class="cls-2" d="M1167,662.26h2.61v1.39h.06a3.56,3.56,0,0,1,3.05-1.66c2.92,0,3.65,1.64,3.65,4.11v6.14h-2.74V666.6c0-1.64-.48-2.45-1.76-2.45-1.49,0-2.12.83-2.12,2.86v5.23H1167Z"/><path class="cls-2" d="M1181.58,662.26h2v1.83h-2V669c0,.93.23,1.16,1.16,1.16a4.22,4.22,0,0,0,.85-.08v2.14a10.5,10.5,0,0,1-1.6.1c-1.68,0-3.15-.39-3.15-2.38v-5.89h-1.66v-1.83h1.66v-3h2.74Z"/><path class="cls-1" d="M856.94,612.84H844.07V601.07h39.86v11.77H871.07V647H856.94Z"/><path class="cls-1" d="M886.13,601.07h38.7v11.77H900.28v5.72h24.55v10.93H900.28v5.72h24.56V647h-38.7Z"/><path class="cls-1" d="M927.21,601.07h23.21c15.3,0,20.71,11.32,20.71,22.89,0,14.09-7.46,23-23.47,23H927.21Zm14.14,34.14h5.53c8.81,0,10.1-7.14,10.1-11.45,0-2.89-.9-10.92-11.13-10.92h-4.5Z"/><path class="cls-1" d="M991.45,629.29l-4.31-7.15-4.21,7.15H972.56l9.84-14.47L972.93,601H983.3l3.84,6.84,3.95-6.84h10.36L992,614.82l9.84,14.47Z"/><text class="cls-3" transform="translate(1007.88 646.91)">YNU</text><text class="cls-9" transform="translate(834.73 944.96)">X</text><path class="cls-1" d="M1265.92,141.24l-3.28-4.73h3.13l1.76,2.61,1.74-2.61h3l-3.28,4.67,3.69,5.31h-3.13l-2.09-3.15-2.09,3.15h-3.07Z"/><path class="cls-2" d="M1285.69,140.58h-9.75v-2.07h9.75Zm0,4.13h-9.75v-2.07h9.75Z"/><path class="cls-2" d="M1293.16,135h-2.74V132.7h2.74Zm-2.74,1.54h2.74v10h-2.74Z"/><path class="cls-2" d="M1294.94,136.51h2.61v1.39h.06a3.56,3.56,0,0,1,3.05-1.66c2.92,0,3.65,1.64,3.65,4.11v6.14h-2.74v-5.64c0-1.64-.48-2.45-1.76-2.45-1.49,0-2.12.83-2.12,2.86v5.23h-2.74Z"/><path class="cls-2" d="M1313.13,145.22h0a3.31,3.31,0,0,1-3,1.54c-3,0-4.48-2.59-4.48-5.35s1.49-5.18,4.42-5.18a3.49,3.49,0,0,1,3,1.49h0v-5h2.74v13.79h-2.61Zm-2.39-6.91c-1.8,0-2.41,1.54-2.41,3.19s.71,3.21,2.41,3.21,2.36-1.58,2.36-3.22S1312.51,138.3,1310.73,138.3Z"/><path class="cls-2" d="M1319.67,142.16c.08,1.74.93,2.53,2.45,2.53a2.26,2.26,0,0,0,2.16-1.29h2.41a4.49,4.49,0,0,1-4.67,3.36c-3.15,0-5.1-2.16-5.1-5.25a5,5,0,0,1,5.1-5.27c3.4,0,5,2.86,4.85,5.93Zm4.46-1.74c-.25-1.39-.85-2.12-2.18-2.12a2.16,2.16,0,0,0-2.28,2.12Z"/><path class="cls-2" d="M1328.11,136.51h2.61v1.27h0a3.32,3.32,0,0,1,3-1.54c3.13,0,4.54,2.53,4.54,5.37,0,2.66-1.47,5.16-4.38,5.16a3.54,3.54,0,0,1-3-1.51h0V150h-2.74Zm7.42,5c0-1.58-.64-3.22-2.39-3.22s-2.38,1.6-2.38,3.22.62,3.17,2.39,3.17S1335.53,143.15,1335.53,141.53Z"/><path class="cls-2" d="M1341.78,142.16c.08,1.74.93,2.53,2.45,2.53a2.26,2.26,0,0,0,2.16-1.29h2.41a4.49,4.49,0,0,1-4.67,3.36c-3.15,0-5.1-2.16-5.1-5.25a5,5,0,0,1,5.1-5.27c3.4,0,5,2.86,4.85,5.93Zm4.46-1.74c-.25-1.39-.85-2.12-2.18-2.12a2.16,2.16,0,0,0-2.28,2.12Z"/><path class="cls-2" d="M1350.22,136.51h2.61v1.39h.06a3.56,3.56,0,0,1,3.05-1.66c2.92,0,3.65,1.64,3.65,4.11v6.14h-2.74v-5.64c0-1.64-.48-2.45-1.76-2.45-1.49,0-2.12.83-2.12,2.86v5.23h-2.74Z"/><path class="cls-2" d="M1368.41,145.22h0a3.31,3.31,0,0,1-3,1.54c-3,0-4.48-2.59-4.48-5.35s1.49-5.18,4.42-5.18a3.49,3.49,0,0,1,3,1.49h0v-5H1371v13.79h-2.61ZM1366,138.3c-1.8,0-2.41,1.54-2.41,3.19s.71,3.21,2.41,3.21,2.36-1.58,2.36-3.22S1367.79,138.3,1366,138.3Z"/><path class="cls-2" d="M1375,142.16c.08,1.74.93,2.53,2.45,2.53a2.26,2.26,0,0,0,2.16-1.29H1382a4.49,4.49,0,0,1-4.67,3.36c-3.15,0-5.1-2.16-5.1-5.25a5,5,0,0,1,5.1-5.27c3.4,0,5,2.86,4.85,5.93Zm4.46-1.74c-.25-1.39-.85-2.12-2.18-2.12a2.16,2.16,0,0,0-2.28,2.12Z"/><path class="cls-2" d="M1383.39,136.51H1386v1.39h.06a3.56,3.56,0,0,1,3.05-1.66c2.92,0,3.65,1.64,3.65,4.11v6.14H1390v-5.64c0-1.64-.48-2.45-1.76-2.45-1.49,0-2.12.83-2.12,2.86v5.23h-2.74Z"/><path class="cls-2" d="M1397.93,136.51h2v1.83h-2v4.94c0,.93.23,1.16,1.16,1.16a4.22,4.22,0,0,0,.85-.08v2.14a10.51,10.51,0,0,1-1.6.1c-1.68,0-3.15-.39-3.15-2.38v-5.89h-1.66v-1.83h1.66v-3h2.74Z"/><path class="cls-2" d="M1400.95,132.7h2.74v13.79h-2.74Z"/><path class="cls-2" d="M1410.39,147.75A3.13,3.13,0,0,1,1407,150a16.3,16.3,0,0,1-1.68-.1v-2.26a14.55,14.55,0,0,0,1.6.1,1.29,1.29,0,0,0,.95-1.87l-3.51-9.37h2.94l2.26,6.84h0l2.18-6.84h2.84Z"/><path class="cls-2" d="M1424.93,136.24a5.26,5.26,0,1,1-5.16,5.27A4.9,4.9,0,0,1,1424.93,136.24Zm0,8.46c1.87,0,2.43-1.6,2.43-3.19s-.56-3.21-2.43-3.21-2.41,1.6-2.41,3.21S1423.07,144.69,1424.93,144.69Z"/><path class="cls-2" d="M1431.11,136.51h2.61v1.85h0a3.53,3.53,0,0,1,3.19-2.12,2,2,0,0,1,.6.1v2.55a5,5,0,0,0-1-.1c-2,0-2.7,1.45-2.7,3.21v4.5h-2.74Z"/><path class="cls-2" d="M1447.83,145.85c0,1.64-.58,4.42-5.18,4.42-2,0-4.27-.93-4.4-3.21H1441a1.86,1.86,0,0,0,2,1.37c1.53,0,2.22-1,2.2-2.47v-1.31h0a3.37,3.37,0,0,1-3,1.54c-3,0-4.27-2.28-4.27-5,0-2.59,1.49-4.94,4.29-4.94a3.11,3.11,0,0,1,3,1.6h0v-1.33h2.61Zm-2.61-4.48c0-1.62-.56-3.07-2.34-3.07-1.54,0-2.22,1.35-2.22,2.84s.54,3,2.22,3S1445.22,142.8,1445.22,141.37Z"/><path class="cls-2" d="M1449.14,139.58c.15-2.57,2.45-3.34,4.69-3.34,2,0,4.38.44,4.38,2.84v5.19a5.12,5.12,0,0,0,.35,2.22h-2.78a4.07,4.07,0,0,1-.19-1,4.58,4.58,0,0,1-3.36,1.24c-1.89,0-3.4-.95-3.4-3,0-2.26,1.7-2.8,3.4-3s3.24-.19,3.24-1.31-.81-1.35-1.78-1.35-1.72.42-1.82,1.51Zm6.33,2a5.45,5.45,0,0,1-2.28.58c-.85.17-1.62.46-1.62,1.47s.79,1.27,1.68,1.27a2,2,0,0,0,2.22-2.3Z"/><path class="cls-2" d="M1460,136.51h2.61v1.39h.06a3.56,3.56,0,0,1,3.05-1.66c2.92,0,3.65,1.64,3.65,4.11v6.14h-2.74v-5.64c0-1.64-.48-2.45-1.76-2.45-1.49,0-2.12.83-2.12,2.86v5.23H1460Z"/><path class="cls-2" d="M1473.45,135h-2.74V132.7h2.74Zm-2.74,1.54h2.74v10h-2.74Z"/><path class="cls-2" d="M1474.61,144.42l5.19-5.85H1475v-2.07h8.42v2.07l-5.19,5.85h5.56v2.07h-9.17Z"/><path class="cls-2" d="M1487.12,142.16c.08,1.74.93,2.53,2.45,2.53a2.26,2.26,0,0,0,2.16-1.29h2.41a4.49,4.49,0,0,1-4.67,3.36c-3.15,0-5.1-2.16-5.1-5.25a5,5,0,0,1,5.1-5.27c3.4,0,5,2.86,4.85,5.93Zm4.46-1.74c-.25-1.39-.85-2.12-2.18-2.12a2.16,2.16,0,0,0-2.28,2.12Z"/><path class="cls-2" d="M1502.69,145.22h0a3.31,3.31,0,0,1-3,1.54c-3,0-4.48-2.59-4.48-5.35s1.49-5.18,4.42-5.18a3.49,3.49,0,0,1,3,1.49h0v-5h2.74v13.79h-2.61Zm-2.39-6.91c-1.8,0-2.41,1.54-2.41,3.19s.71,3.21,2.41,3.21,2.36-1.58,2.36-3.22S1502.07,138.3,1500.29,138.3Z"/><path class="cls-2" d="M1515.29,135.25h-4.13V132.7h11.3v2.55h-4.13v11.24h-3Z"/><path class="cls-2" d="M1523.65,132.7H1534v2.55h-7.28v3h6.68v2.36h-6.68v3.38h7.43v2.55h-10.47Z"/><path class="cls-2" d="M1535.39,132.7h5.95c3.57,0,6.26,2.24,6.26,6.82,0,4-2,7-6.26,7h-5.95Zm3,11.24h2.7c1.76,0,3.44-1.08,3.44-4.13,0-2.78-1-4.56-4-4.56h-2.16Z"/><path class="cls-2" d="M1556.27,142.16c.08,1.74.93,2.53,2.45,2.53a2.26,2.26,0,0,0,2.16-1.29h2.41a4.49,4.49,0,0,1-4.67,3.36c-3.15,0-5.1-2.16-5.1-5.25a5,5,0,0,1,5.1-5.27c3.4,0,5,2.86,4.85,5.93Zm4.46-1.74c-.25-1.39-.85-2.12-2.18-2.12a2.16,2.16,0,0,0-2.28,2.12Z"/><path class="cls-2" d="M1569.84,146.49h-3.05l-3.42-10h2.88l2.1,6.82h0l2.1-6.82h2.72Z"/><path class="cls-2" d="M1575.85,142.16c.08,1.74.93,2.53,2.45,2.53a2.26,2.26,0,0,0,2.16-1.29h2.41a4.49,4.49,0,0,1-4.67,3.36c-3.15,0-5.1-2.16-5.1-5.25a5,5,0,0,1,5.1-5.27c3.4,0,5,2.86,4.85,5.93Zm4.46-1.74c-.25-1.39-.85-2.12-2.18-2.12a2.16,2.16,0,0,0-2.28,2.12Z"/><path class="cls-2" d="M1584.29,136.51h2.61v1.39h.06a3.56,3.56,0,0,1,3.05-1.66c2.92,0,3.65,1.64,3.65,4.11v6.14h-2.74v-5.64c0-1.64-.48-2.45-1.76-2.45-1.49,0-2.12.83-2.12,2.86v5.23h-2.74Z"/><path class="cls-2" d="M1598.83,136.51h2v1.83h-2v4.94c0,.93.23,1.16,1.16,1.16a4.22,4.22,0,0,0,.85-.08v2.14a10.5,10.5,0,0,1-1.6.1c-1.68,0-3.15-.39-3.15-2.38v-5.89h-1.66v-1.83h1.66v-3h2.74Z"/><path class="cls-1" d="M1274.18,87.09h-12.87V75.32h39.86V87.09h-12.86v34.14h-14.14Z"/><path class="cls-1" d="M1303.38,75.32h38.7V87.09h-24.55v5.72h24.55v10.93h-24.55v5.72h24.56v11.77h-38.7Z"/><path class="cls-1" d="M1344.45,75.32h23.21c15.3,0,20.71,11.32,20.71,22.89,0,14.09-7.46,23-23.47,23h-20.45Zm14.14,34.14h5.53c8.81,0,10.1-7.14,10.1-11.45,0-2.89-.9-10.92-11.13-10.92h-4.5Z"/><path class="cls-1" d="M1408.69,103.54l-4.31-7.15-4.21,7.15h-10.36l9.84-14.47-9.47-13.84h10.37l3.84,6.84,3.95-6.84h10.36l-9.47,13.84,9.84,14.47Z"/><text class="cls-3" transform="translate(1425.12 121.15)">YNU</text><path class="cls-1" d="M1480.94,235.08a25.42,25.42,0,0,1,3.94.47q2.67.47,5.2,1.1,3.15.64,6.62,1.26,6.3,2.53,11.35,4.26a38,38,0,0,0,12.3,1.73q6.62,0,9,2.52t2.36,9.77a8.71,8.71,0,0,1-2.52,6.15,23.84,23.84,0,0,1-6,4.57,33.72,33.72,0,0,1-7.72,3,30,30,0,0,1-7.41,1.1,29.16,29.16,0,0,0-14.82,6.46A91.2,91.2,0,0,0,1480,290.57q-6.31,7.57-12.61,15.76a151.83,151.83,0,0,1-12.93,14.82v8.51a11.08,11.08,0,0,0,1.42,5.2q1.42,2.68,3.47,5.83t4.1,6.46a42.33,42.33,0,0,1,3.31,6.46,63.07,63.07,0,0,0,6,10.4,89.09,89.09,0,0,0,8.2,10.4,43.67,43.67,0,0,1,5.83,8.35q2.68,4.89,5.68,9.46a23.78,23.78,0,0,0,7.25,7.25q4.26,2.68,10.88,1.42h12.3a23,23,0,0,1,9.14,3.94,20.47,20.47,0,0,1,5.36,6,21.33,21.33,0,0,1,2.52,6.94,39.79,39.79,0,0,1,.63,6.78v6.94q0,1.89-3.47,3.63a13.41,13.41,0,0,1-5.36,1.73,6.26,6.26,0,0,1-3.78-.95c-.84-.63-1.73-1.37-2.68-2.21s-2-1.79-3.31-2.84a18.62,18.62,0,0,0-5-2.84h-11.67q-3.47.95-6.62,1.89a36.13,36.13,0,0,1-9.14,1.58L1478.11,428h-6a14.58,14.58,0,0,1-5.83-1.73,14.36,14.36,0,0,0-5.52-1.73,16.47,16.47,0,0,0-5.68-.32q-3.16.31-6,.32a11.58,11.58,0,0,1-4.89-.95q-2.05-.95-2-4.41,0-6,2.68-7.88a15.25,15.25,0,0,1,6.15-2.52,39.19,39.19,0,0,0,4.73-3.47q2.2-1.89,2.21-7.25a7.21,7.21,0,0,0-1.1-3.94q-1.11-1.73-2.52-3.63a49.89,49.89,0,0,1-2.84-4.26,17.15,17.15,0,0,1-2-5.52,38.8,38.8,0,0,1-3.31-5.83,54.42,54.42,0,0,0-4.1-7.09,28.25,28.25,0,0,0-5.2-5.83,9.24,9.24,0,0,0-6-2.36,6.89,6.89,0,0,0-4.26,2,20.37,20.37,0,0,0-4.57,6.78,52.21,52.21,0,0,1-7.25,8.67q-4.1,3.95-7.72,8.2a53.37,53.37,0,0,0-6.15,8.83,20.82,20.82,0,0,0-2.52,10.25,10.38,10.38,0,0,0,1.89,6.15,38.51,38.51,0,0,0,4.26,5q2.36,2.36,4.26,4.1t1.89,3c0,1-.74,1.63-2.21,1.73s-3,.16-4.73.16h-58.64a67.94,67.94,0,0,1-8.83-2.21,20.74,20.74,0,0,1-6.15-3.47,7,7,0,0,1-2.68-5.68q0-2.2,2.36-4.57a22.08,22.08,0,0,1,5.36-3.94,50.33,50.33,0,0,1,6-2.68,15.27,15.27,0,0,1,3.94-1.1h14.82a12.47,12.47,0,0,0,8-3.31,54.4,54.4,0,0,0,7.57-7.88q3.62-4.57,7.09-9.46a65,65,0,0,1,6.94-8.35,59.36,59.36,0,0,1,8.83-12.14,67.71,67.71,0,0,0,8.83-11.51,13,13,0,0,0,3.31-4.89,7.81,7.81,0,0,1,3-3.94V332.5a12.57,12.57,0,0,0-1.89-5.36,77.86,77.86,0,0,0-4.41-7.09,70.51,70.51,0,0,0-5-6.46,31.27,31.27,0,0,0-3.78-3.78,27.74,27.74,0,0,1-6-9,14,14,0,0,0-6.31-7.09,18.52,18.52,0,0,1-3.94-4.89q-1.74-3-3.63-6a36.88,36.88,0,0,0-4.26-5.52,12.35,12.35,0,0,0-5.52-3.47,40.47,40.47,0,0,0-6.78-1.26L1355,272a68,68,0,0,1-7.57-1.1,31.92,31.92,0,0,1-8.67-3.31,21.25,21.25,0,0,1-7.88-6q-3.47-4.09-3.47-7.88,0-5.36,3.15-7.57a10.25,10.25,0,0,1,5.68-2.21h6a10,10,0,0,0,5.83,2.21q3.62.32,5.83.32h35.63a29,29,0,0,0,3.31-.32,43,43,0,0,0,4.89-.95q2.84-.63,6-1.26h15.76a34.64,34.64,0,0,0,6.94-1.26,35,35,0,0,1,6.94-1.26l12.3,2.52H1451a22.71,22.71,0,0,1,5.36-2.36q4.09-1.42,8.83-2.84t9.3-2.52A32.39,32.39,0,0,1,1480.94,235.08Zm-35.31,14.82q-5,2.84-9.46,5.36-3.78,2.53-7.72,4.89A33.36,33.36,0,0,0,1422,265q-4.42,1.89-3.47,4.26a12.29,12.29,0,0,1,.95,4.57,45.44,45.44,0,0,0,1.58,6.62,114.59,114.59,0,0,0,4.26,12.3,59.63,59.63,0,0,0,6.31,11.82q3.62,5.2,8,5.2,2.2,0,7.09-5.68a146.33,146.33,0,0,0,9.93-13.08q5-7.4,8.83-14.19t3.78-9.3l-2.52-2.52q-1.26-.95-4.26-3.47t-6.31-5.2a67.63,67.63,0,0,0-6.31-4.57Q1446.89,249.9,1445.63,249.9Z"/><path class="cls-1" d="M1265.92,667l-3.28-4.73h3.13l1.76,2.61,1.74-2.61h3l-3.28,4.67,3.69,5.31h-3.13l-2.09-3.15-2.09,3.15h-3.07Z"/><path class="cls-2" d="M1285.69,666.33h-9.75v-2.07h9.75Zm0,4.13h-9.75V668.4h9.75Z"/><path class="cls-2" d="M1293.16,660.71h-2.74v-2.26h2.74Zm-2.74,1.54h2.74v10h-2.74Z"/><path class="cls-2" d="M1294.94,662.26h2.61v1.39h.06a3.56,3.56,0,0,1,3.05-1.66c2.92,0,3.65,1.64,3.65,4.11v6.14h-2.74V666.6c0-1.64-.48-2.45-1.76-2.45-1.49,0-2.12.83-2.12,2.86v5.23h-2.74Z"/><path class="cls-2" d="M1313.13,671h0a3.31,3.31,0,0,1-3,1.54c-3,0-4.48-2.59-4.48-5.35s1.49-5.18,4.42-5.18a3.49,3.49,0,0,1,3,1.49h0v-5h2.74v13.79h-2.61Zm-2.39-6.91c-1.8,0-2.41,1.54-2.41,3.19s.71,3.21,2.41,3.21,2.36-1.58,2.36-3.22S1312.51,664.05,1310.73,664.05Z"/><path class="cls-2" d="M1319.67,667.92c.08,1.74.93,2.53,2.45,2.53a2.26,2.26,0,0,0,2.16-1.29h2.41a4.49,4.49,0,0,1-4.67,3.36c-3.15,0-5.1-2.16-5.1-5.25A5,5,0,0,1,1322,662c3.4,0,5,2.86,4.85,5.93Zm4.46-1.74c-.25-1.39-.85-2.12-2.18-2.12a2.16,2.16,0,0,0-2.28,2.12Z"/><path class="cls-2" d="M1328.11,662.26h2.61v1.27h0a3.32,3.32,0,0,1,3-1.54c3.13,0,4.54,2.53,4.54,5.37,0,2.66-1.47,5.16-4.38,5.16a3.54,3.54,0,0,1-3-1.51h0v4.75h-2.74Zm7.42,5c0-1.58-.64-3.22-2.39-3.22s-2.38,1.6-2.38,3.22.62,3.17,2.39,3.17S1335.53,668.9,1335.53,667.28Z"/><path class="cls-2" d="M1341.78,667.92c.08,1.74.93,2.53,2.45,2.53a2.26,2.26,0,0,0,2.16-1.29h2.41a4.49,4.49,0,0,1-4.67,3.36c-3.15,0-5.1-2.16-5.1-5.25a5,5,0,0,1,5.1-5.27c3.4,0,5,2.86,4.85,5.93Zm4.46-1.74c-.25-1.39-.85-2.12-2.18-2.12a2.16,2.16,0,0,0-2.28,2.12Z"/><path class="cls-2" d="M1350.22,662.26h2.61v1.39h.06a3.56,3.56,0,0,1,3.05-1.66c2.92,0,3.65,1.64,3.65,4.11v6.14h-2.74V666.6c0-1.64-.48-2.45-1.76-2.45-1.49,0-2.12.83-2.12,2.86v5.23h-2.74Z"/><path class="cls-2" d="M1368.41,671h0a3.31,3.31,0,0,1-3,1.54c-3,0-4.48-2.59-4.48-5.35s1.49-5.18,4.42-5.18a3.49,3.49,0,0,1,3,1.49h0v-5H1371v13.79h-2.61Zm-2.39-6.91c-1.8,0-2.41,1.54-2.41,3.19s.71,3.21,2.41,3.21,2.36-1.58,2.36-3.22S1367.79,664.05,1366,664.05Z"/><path class="cls-2" d="M1375,667.92c.08,1.74.93,2.53,2.45,2.53a2.26,2.26,0,0,0,2.16-1.29H1382a4.49,4.49,0,0,1-4.67,3.36c-3.15,0-5.1-2.16-5.1-5.25a5,5,0,0,1,5.1-5.27c3.4,0,5,2.86,4.85,5.93Zm4.46-1.74c-.25-1.39-.85-2.12-2.18-2.12a2.16,2.16,0,0,0-2.28,2.12Z"/><path class="cls-2" d="M1383.39,662.26H1386v1.39h.06a3.56,3.56,0,0,1,3.05-1.66c2.92,0,3.65,1.64,3.65,4.11v6.14H1390V666.6c0-1.64-.48-2.45-1.76-2.45-1.49,0-2.12.83-2.12,2.86v5.23h-2.74Z"/><path class="cls-2" d="M1397.93,662.26h2v1.83h-2V669c0,.93.23,1.16,1.16,1.16a4.22,4.22,0,0,0,.85-.08v2.14a10.51,10.51,0,0,1-1.6.1c-1.68,0-3.15-.39-3.15-2.38v-5.89h-1.66v-1.83h1.66v-3h2.74Z"/><path class="cls-2" d="M1400.95,658.45h2.74v13.79h-2.74Z"/><path class="cls-2" d="M1410.39,673.5a3.13,3.13,0,0,1-3.44,2.26,16.3,16.3,0,0,1-1.68-.1V673.4a14.55,14.55,0,0,0,1.6.1,1.29,1.29,0,0,0,.95-1.87l-3.51-9.37h2.94l2.26,6.84h0l2.18-6.84h2.84Z"/><path class="cls-2" d="M1424.93,662a5.26,5.26,0,1,1-5.16,5.27A4.9,4.9,0,0,1,1424.93,662Zm0,8.46c1.87,0,2.43-1.6,2.43-3.19s-.56-3.21-2.43-3.21-2.41,1.6-2.41,3.21S1423.07,670.44,1424.93,670.44Z"/><path class="cls-2" d="M1431.11,662.26h2.61v1.85h0a3.53,3.53,0,0,1,3.19-2.12,2,2,0,0,1,.6.1v2.55a5,5,0,0,0-1-.1c-2,0-2.7,1.45-2.7,3.21v4.5h-2.74Z"/><path class="cls-2" d="M1447.83,671.6c0,1.64-.58,4.42-5.18,4.42-2,0-4.27-.93-4.4-3.21H1441a1.86,1.86,0,0,0,2,1.37c1.53,0,2.22-1,2.2-2.47v-1.31h0a3.37,3.37,0,0,1-3,1.54c-3,0-4.27-2.28-4.27-5,0-2.59,1.49-4.94,4.29-4.94a3.11,3.11,0,0,1,3,1.6h0v-1.33h2.61Zm-2.61-4.48c0-1.62-.56-3.07-2.34-3.07-1.54,0-2.22,1.35-2.22,2.84s.54,3,2.22,3S1445.22,668.55,1445.22,667.12Z"/><path class="cls-2" d="M1449.14,665.33c.15-2.57,2.45-3.34,4.69-3.34,2,0,4.38.44,4.38,2.84V670a5.12,5.12,0,0,0,.35,2.22h-2.78a4.07,4.07,0,0,1-.19-1,4.58,4.58,0,0,1-3.36,1.24c-1.89,0-3.4-.95-3.4-3,0-2.26,1.7-2.8,3.4-3s3.24-.19,3.24-1.31-.81-1.35-1.78-1.35-1.72.42-1.82,1.51Zm6.33,2a5.45,5.45,0,0,1-2.28.58c-.85.17-1.62.46-1.62,1.47s.79,1.27,1.68,1.27a2,2,0,0,0,2.22-2.3Z"/><path class="cls-2" d="M1460,662.26h2.61v1.39h.06a3.56,3.56,0,0,1,3.05-1.66c2.92,0,3.65,1.64,3.65,4.11v6.14h-2.74V666.6c0-1.64-.48-2.45-1.76-2.45-1.49,0-2.12.83-2.12,2.86v5.23H1460Z"/><path class="cls-2" d="M1473.45,660.71h-2.74v-2.26h2.74Zm-2.74,1.54h2.74v10h-2.74Z"/><path class="cls-2" d="M1474.61,670.17l5.19-5.85H1475v-2.07h8.42v2.07l-5.19,5.85h5.56v2.07h-9.17Z"/><path class="cls-2" d="M1487.12,667.92c.08,1.74.93,2.53,2.45,2.53a2.26,2.26,0,0,0,2.16-1.29h2.41a4.49,4.49,0,0,1-4.67,3.36c-3.15,0-5.1-2.16-5.1-5.25a5,5,0,0,1,5.1-5.27c3.4,0,5,2.86,4.85,5.93Zm4.46-1.74c-.25-1.39-.85-2.12-2.18-2.12a2.16,2.16,0,0,0-2.28,2.12Z"/><path class="cls-2" d="M1502.69,671h0a3.31,3.31,0,0,1-3,1.54c-3,0-4.48-2.59-4.48-5.35s1.49-5.18,4.42-5.18a3.49,3.49,0,0,1,3,1.49h0v-5h2.74v13.79h-2.61Zm-2.39-6.91c-1.8,0-2.41,1.54-2.41,3.19s.71,3.21,2.41,3.21,2.36-1.58,2.36-3.22S1502.07,664.05,1500.29,664.05Z"/><path class="cls-2" d="M1515.29,661h-4.13v-2.55h11.3V661h-4.13v11.24h-3Z"/><path class="cls-2" d="M1523.65,658.45H1534V661h-7.28v3h6.68v2.36h-6.68v3.38h7.43v2.55h-10.47Z"/><path class="cls-2" d="M1535.39,658.45h5.95c3.57,0,6.26,2.24,6.26,6.82,0,4-2,7-6.26,7h-5.95Zm3,11.24h2.7c1.76,0,3.44-1.08,3.44-4.13,0-2.78-1-4.56-4-4.56h-2.16Z"/><path class="cls-2" d="M1556.27,667.92c.08,1.74.93,2.53,2.45,2.53a2.26,2.26,0,0,0,2.16-1.29h2.41a4.49,4.49,0,0,1-4.67,3.36c-3.15,0-5.1-2.16-5.1-5.25a5,5,0,0,1,5.1-5.27c3.4,0,5,2.86,4.85,5.93Zm4.46-1.74c-.25-1.39-.85-2.12-2.18-2.12a2.16,2.16,0,0,0-2.28,2.12Z"/><path class="cls-2" d="M1569.84,672.24h-3.05l-3.42-10h2.88l2.1,6.82h0l2.1-6.82h2.72Z"/><path class="cls-2" d="M1575.85,667.92c.08,1.74.93,2.53,2.45,2.53a2.26,2.26,0,0,0,2.16-1.29h2.41a4.49,4.49,0,0,1-4.67,3.36c-3.15,0-5.1-2.16-5.1-5.25a5,5,0,0,1,5.1-5.27c3.4,0,5,2.86,4.85,5.93Zm4.46-1.74c-.25-1.39-.85-2.12-2.18-2.12a2.16,2.16,0,0,0-2.28,2.12Z"/><path class="cls-2" d="M1584.29,662.26h2.61v1.39h.06A3.56,3.56,0,0,1,1590,662c2.92,0,3.65,1.64,3.65,4.11v6.14h-2.74V666.6c0-1.64-.48-2.45-1.76-2.45-1.49,0-2.12.83-2.12,2.86v5.23h-2.74Z"/><path class="cls-2" d="M1598.83,662.26h2v1.83h-2V669c0,.93.23,1.16,1.16,1.16a4.22,4.22,0,0,0,.85-.08v2.14a10.5,10.5,0,0,1-1.6.1c-1.68,0-3.15-.39-3.15-2.38v-5.89h-1.66v-1.83h1.66v-3h2.74Z"/><path class="cls-1" d="M1274.18,612.84h-12.87V601.07h39.86v11.77h-12.86V647h-14.14Z"/><path class="cls-1" d="M1303.38,601.07h38.7v11.77h-24.55v5.72h24.55v10.93h-24.55v5.72h24.56V647h-38.7Z"/><path class="cls-1" d="M1344.45,601.07h23.21c15.3,0,20.71,11.32,20.71,22.89,0,14.09-7.46,23-23.47,23h-20.45Zm14.14,34.14h5.53c8.81,0,10.1-7.14,10.1-11.45,0-2.89-.9-10.92-11.13-10.92h-4.5Z"/><path class="cls-1" d="M1408.69,629.29l-4.31-7.15-4.21,7.15h-10.36l9.84-14.47L1390.17,601h10.37l3.84,6.84,3.95-6.84h10.36l-9.47,13.84,9.84,14.47Z"/><text class="cls-3" transform="translate(1425.12 646.91)">YNU</text><text class="cls-10" transform="translate(1344.42 944.96)">X</text><path class="cls-1" d="M1696.58,141.24l-3.28-4.73h3.13l1.76,2.61,1.74-2.61h3l-3.28,4.67,3.69,5.31h-3.13l-2.09-3.15-2.09,3.15H1693Z"/><path class="cls-2" d="M1716.36,140.58h-9.75v-2.07h9.75Zm0,4.13h-9.75v-2.07h9.75Z"/><path class="cls-2" d="M1723.83,135h-2.74V132.7h2.74Zm-2.74,1.54h2.74v10h-2.74Z"/><path class="cls-2" d="M1725.61,136.51h2.61v1.39h.06a3.56,3.56,0,0,1,3.05-1.66c2.92,0,3.65,1.64,3.65,4.11v6.14h-2.74v-5.64c0-1.64-.48-2.45-1.76-2.45-1.49,0-2.12.83-2.12,2.86v5.23h-2.74Z"/><path class="cls-2" d="M1743.8,145.22h0a3.31,3.31,0,0,1-3,1.54c-3,0-4.48-2.59-4.48-5.35s1.49-5.18,4.42-5.18a3.49,3.49,0,0,1,3,1.49h0v-5h2.74v13.79h-2.61Zm-2.39-6.91c-1.8,0-2.41,1.54-2.41,3.19s.71,3.21,2.41,3.21,2.36-1.58,2.36-3.22S1743.18,138.3,1741.4,138.3Z"/><path class="cls-2" d="M1750.34,142.16c.08,1.74.93,2.53,2.45,2.53a2.26,2.26,0,0,0,2.16-1.29h2.41a4.49,4.49,0,0,1-4.67,3.36c-3.15,0-5.1-2.16-5.1-5.25a5,5,0,0,1,5.1-5.27c3.4,0,5,2.86,4.85,5.93Zm4.46-1.74c-.25-1.39-.85-2.12-2.18-2.12a2.16,2.16,0,0,0-2.28,2.12Z"/><path class="cls-2" d="M1758.78,136.51h2.61v1.27h0a3.32,3.32,0,0,1,3-1.54c3.13,0,4.54,2.53,4.54,5.37,0,2.66-1.47,5.16-4.38,5.16a3.54,3.54,0,0,1-3-1.51h0V150h-2.74Zm7.42,5c0-1.58-.64-3.22-2.39-3.22s-2.38,1.6-2.38,3.22.62,3.17,2.39,3.17S1766.19,143.15,1766.19,141.53Z"/><path class="cls-2" d="M1772.45,142.16c.08,1.74.93,2.53,2.45,2.53a2.26,2.26,0,0,0,2.16-1.29h2.41a4.49,4.49,0,0,1-4.67,3.36c-3.15,0-5.1-2.16-5.1-5.25a5,5,0,0,1,5.1-5.27c3.4,0,5,2.86,4.85,5.93Zm4.46-1.74c-.25-1.39-.85-2.12-2.18-2.12a2.16,2.16,0,0,0-2.28,2.12Z"/><path class="cls-2" d="M1780.89,136.51h2.61v1.39h.06a3.56,3.56,0,0,1,3.05-1.66c2.92,0,3.65,1.64,3.65,4.11v6.14h-2.74v-5.64c0-1.64-.48-2.45-1.76-2.45-1.49,0-2.12.83-2.12,2.86v5.23h-2.74Z"/><path class="cls-2" d="M1799.08,145.22h0a3.31,3.31,0,0,1-3,1.54c-3,0-4.48-2.59-4.48-5.35s1.49-5.18,4.42-5.18a3.49,3.49,0,0,1,3,1.49h0v-5h2.74v13.79h-2.61Zm-2.39-6.91c-1.8,0-2.41,1.54-2.41,3.19s.71,3.21,2.41,3.21,2.36-1.58,2.36-3.22S1798.46,138.3,1796.68,138.3Z"/><path class="cls-2" d="M1805.62,142.16c.08,1.74.93,2.53,2.45,2.53a2.26,2.26,0,0,0,2.16-1.29h2.41a4.49,4.49,0,0,1-4.67,3.36c-3.15,0-5.1-2.16-5.1-5.25a5,5,0,0,1,5.1-5.27c3.4,0,5,2.86,4.85,5.93Zm4.46-1.74c-.25-1.39-.85-2.12-2.18-2.12a2.16,2.16,0,0,0-2.28,2.12Z"/><path class="cls-2" d="M1814.06,136.51h2.61v1.39h.06a3.56,3.56,0,0,1,3.05-1.66c2.92,0,3.65,1.64,3.65,4.11v6.14h-2.74v-5.64c0-1.64-.48-2.45-1.76-2.45-1.49,0-2.12.83-2.12,2.86v5.23h-2.74Z"/><path class="cls-2" d="M1828.6,136.51h2v1.83h-2v4.94c0,.93.23,1.16,1.16,1.16a4.22,4.22,0,0,0,.85-.08v2.14a10.51,10.51,0,0,1-1.6.1c-1.68,0-3.15-.39-3.15-2.38v-5.89h-1.66v-1.83h1.66v-3h2.74Z"/><path class="cls-2" d="M1831.61,132.7h2.74v13.79h-2.74Z"/><path class="cls-2" d="M1841.06,147.75a3.13,3.13,0,0,1-3.44,2.26,16.3,16.3,0,0,1-1.68-.1v-2.26a14.55,14.55,0,0,0,1.6.1,1.29,1.29,0,0,0,.95-1.87l-3.51-9.37h2.94l2.26,6.84h0l2.18-6.84h2.84Z"/><path class="cls-2" d="M1855.6,136.24a5.26,5.26,0,1,1-5.16,5.27A4.9,4.9,0,0,1,1855.6,136.24Zm0,8.46c1.87,0,2.43-1.6,2.43-3.19s-.56-3.21-2.43-3.21-2.41,1.6-2.41,3.21S1853.74,144.69,1855.6,144.69Z"/><path class="cls-2" d="M1861.77,136.51h2.61v1.85h0a3.53,3.53,0,0,1,3.19-2.12,2,2,0,0,1,.6.1v2.55a5,5,0,0,0-1-.1c-2,0-2.7,1.45-2.7,3.21v4.5h-2.74Z"/><path class="cls-2" d="M1878.5,145.85c0,1.64-.58,4.42-5.18,4.42-2,0-4.27-.93-4.4-3.21h2.72a1.86,1.86,0,0,0,2,1.37c1.53,0,2.22-1,2.2-2.47v-1.31h0a3.37,3.37,0,0,1-3,1.54c-3,0-4.27-2.28-4.27-5,0-2.59,1.49-4.94,4.29-4.94a3.11,3.11,0,0,1,3,1.6h0v-1.33h2.61Zm-2.61-4.48c0-1.62-.56-3.07-2.34-3.07-1.54,0-2.22,1.35-2.22,2.84s.54,3,2.22,3S1875.89,142.8,1875.89,141.37Z"/><path class="cls-2" d="M1879.81,139.58c.15-2.57,2.45-3.34,4.69-3.34,2,0,4.38.44,4.38,2.84v5.19a5.12,5.12,0,0,0,.35,2.22h-2.78a4.07,4.07,0,0,1-.19-1,4.58,4.58,0,0,1-3.36,1.24c-1.89,0-3.4-.95-3.4-3,0-2.26,1.7-2.8,3.4-3s3.24-.19,3.24-1.31-.81-1.35-1.78-1.35-1.72.42-1.82,1.51Zm6.33,2a5.45,5.45,0,0,1-2.28.58c-.85.17-1.62.46-1.62,1.47s.79,1.27,1.68,1.27a2,2,0,0,0,2.22-2.3Z"/><path class="cls-2" d="M1890.62,136.51h2.61v1.39h.06a3.56,3.56,0,0,1,3.05-1.66c2.92,0,3.65,1.64,3.65,4.11v6.14h-2.74v-5.64c0-1.64-.48-2.45-1.76-2.45-1.49,0-2.12.83-2.12,2.86v5.23h-2.74Z"/><path class="cls-2" d="M1904.12,135h-2.74V132.7h2.74Zm-2.74,1.54h2.74v10h-2.74Z"/><path class="cls-2" d="M1905.28,144.42l5.19-5.85h-4.81v-2.07h8.42v2.07l-5.19,5.85h5.56v2.07h-9.17Z"/><path class="cls-2" d="M1917.79,142.16c.08,1.74.93,2.53,2.45,2.53a2.26,2.26,0,0,0,2.16-1.29h2.41a4.49,4.49,0,0,1-4.67,3.36c-3.15,0-5.1-2.16-5.1-5.25a5,5,0,0,1,5.1-5.27c3.4,0,5,2.86,4.85,5.93Zm4.46-1.74c-.25-1.39-.85-2.12-2.18-2.12a2.16,2.16,0,0,0-2.28,2.12Z"/><path class="cls-2" d="M1933.35,145.22h0a3.31,3.31,0,0,1-3,1.54c-3,0-4.48-2.59-4.48-5.35s1.49-5.18,4.42-5.18a3.49,3.49,0,0,1,3,1.49h0v-5H1936v13.79h-2.61ZM1931,138.3c-1.8,0-2.41,1.54-2.41,3.19s.71,3.21,2.41,3.21,2.36-1.58,2.36-3.22S1932.74,138.3,1931,138.3Z"/><path class="cls-2" d="M1946,135.25h-4.13V132.7h11.3v2.55H1949v11.24h-3Z"/><path class="cls-2" d="M1954.32,132.7h10.31v2.55h-7.28v3H1964v2.36h-6.68v3.38h7.43v2.55h-10.47Z"/><path class="cls-2" d="M1966.06,132.7H1972c3.57,0,6.26,2.24,6.26,6.82,0,4-2,7-6.26,7h-5.95Zm3,11.24h2.7c1.76,0,3.44-1.08,3.44-4.13,0-2.78-1-4.56-4-4.56h-2.16Z"/><path class="cls-2" d="M1986.94,142.16c.08,1.74.93,2.53,2.45,2.53a2.26,2.26,0,0,0,2.16-1.29H1994a4.49,4.49,0,0,1-4.67,3.36c-3.15,0-5.1-2.16-5.1-5.25a5,5,0,0,1,5.1-5.27c3.4,0,5,2.86,4.85,5.93Zm4.46-1.74c-.25-1.39-.85-2.12-2.18-2.12a2.16,2.16,0,0,0-2.28,2.12Z"/><path class="cls-2" d="M2000.51,146.49h-3.05l-3.42-10h2.88l2.1,6.82h0l2.1-6.82h2.72Z"/><path class="cls-2" d="M2006.52,142.16c.08,1.74.93,2.53,2.45,2.53a2.26,2.26,0,0,0,2.16-1.29h2.41a4.49,4.49,0,0,1-4.67,3.36c-3.15,0-5.1-2.16-5.1-5.25a5,5,0,0,1,5.1-5.27c3.4,0,5,2.86,4.85,5.93Zm4.46-1.74c-.25-1.39-.85-2.12-2.18-2.12a2.16,2.16,0,0,0-2.28,2.12Z"/><path class="cls-2" d="M2015,136.51h2.61v1.39h.06a3.56,3.56,0,0,1,3.05-1.66c2.92,0,3.65,1.64,3.65,4.11v6.14h-2.74v-5.64c0-1.64-.48-2.45-1.76-2.45-1.49,0-2.12.83-2.12,2.86v5.23H2015Z"/><path class="cls-2" d="M2029.49,136.51h2v1.83h-2v4.94c0,.93.23,1.16,1.16,1.16a4.22,4.22,0,0,0,.85-.08v2.14a10.5,10.5,0,0,1-1.6.1c-1.68,0-3.15-.39-3.15-2.38v-5.89h-1.66v-1.83h1.66v-3h2.74Z"/><path class="cls-1" d="M1704.85,87.09H1692V75.32h39.86V87.09H1719v34.14h-14.14Z"/><path class="cls-1" d="M1734,75.32h38.7V87.09h-24.55v5.72h24.55v10.93h-24.55v5.72h24.56v11.77H1734Z"/><path class="cls-1" d="M1775.12,75.32h23.21c15.3,0,20.71,11.32,20.71,22.89,0,14.09-7.46,23-23.47,23h-20.45Zm14.14,34.14h5.53c8.81,0,10.1-7.14,10.1-11.45,0-2.89-.9-10.92-11.13-10.92h-4.5Z"/><path class="cls-1" d="M1839.36,103.54,1835,96.38l-4.21,7.15h-10.36l9.84-14.47-9.47-13.84h10.37l3.84,6.84,3.95-6.84h10.36l-9.47,13.84,9.84,14.47Z"/><text class="cls-3" transform="translate(1855.79 121.15)">YNU</text><text class="cls-11" transform="translate(1770.11 411)">X</text><path class="cls-1" d="M1696.58,667l-3.28-4.73h3.13l1.76,2.61,1.74-2.61h3l-3.28,4.67,3.69,5.31h-3.13l-2.09-3.15-2.09,3.15H1693Z"/><path class="cls-2" d="M1716.36,666.33h-9.75v-2.07h9.75Zm0,4.13h-9.75V668.4h9.75Z"/><path class="cls-2" d="M1723.83,660.71h-2.74v-2.26h2.74Zm-2.74,1.54h2.74v10h-2.74Z"/><path class="cls-2" d="M1725.61,662.26h2.61v1.39h.06a3.56,3.56,0,0,1,3.05-1.66c2.92,0,3.65,1.64,3.65,4.11v6.14h-2.74V666.6c0-1.64-.48-2.45-1.76-2.45-1.49,0-2.12.83-2.12,2.86v5.23h-2.74Z"/><path class="cls-2" d="M1743.8,671h0a3.31,3.31,0,0,1-3,1.54c-3,0-4.48-2.59-4.48-5.35s1.49-5.18,4.42-5.18a3.49,3.49,0,0,1,3,1.49h0v-5h2.74v13.79h-2.61Zm-2.39-6.91c-1.8,0-2.41,1.54-2.41,3.19s.71,3.21,2.41,3.21,2.36-1.58,2.36-3.22S1743.18,664.05,1741.4,664.05Z"/><path class="cls-2" d="M1750.34,667.92c.08,1.74.93,2.53,2.45,2.53a2.26,2.26,0,0,0,2.16-1.29h2.41a4.49,4.49,0,0,1-4.67,3.36c-3.15,0-5.1-2.16-5.1-5.25a5,5,0,0,1,5.1-5.27c3.4,0,5,2.86,4.85,5.93Zm4.46-1.74c-.25-1.39-.85-2.12-2.18-2.12a2.16,2.16,0,0,0-2.28,2.12Z"/><path class="cls-2" d="M1758.78,662.26h2.61v1.27h0a3.32,3.32,0,0,1,3-1.54c3.13,0,4.54,2.53,4.54,5.37,0,2.66-1.47,5.16-4.38,5.16a3.54,3.54,0,0,1-3-1.51h0v4.75h-2.74Zm7.42,5c0-1.58-.64-3.22-2.39-3.22s-2.38,1.6-2.38,3.22.62,3.17,2.39,3.17S1766.19,668.9,1766.19,667.28Z"/><path class="cls-2" d="M1772.45,667.92c.08,1.74.93,2.53,2.45,2.53a2.26,2.26,0,0,0,2.16-1.29h2.41a4.49,4.49,0,0,1-4.67,3.36c-3.15,0-5.1-2.16-5.1-5.25a5,5,0,0,1,5.1-5.27c3.4,0,5,2.86,4.85,5.93Zm4.46-1.74c-.25-1.39-.85-2.12-2.18-2.12a2.16,2.16,0,0,0-2.28,2.12Z"/><path class="cls-2" d="M1780.89,662.26h2.61v1.39h.06a3.56,3.56,0,0,1,3.05-1.66c2.92,0,3.65,1.64,3.65,4.11v6.14h-2.74V666.6c0-1.64-.48-2.45-1.76-2.45-1.49,0-2.12.83-2.12,2.86v5.23h-2.74Z"/><path class="cls-2" d="M1799.08,671h0a3.31,3.31,0,0,1-3,1.54c-3,0-4.48-2.59-4.48-5.35s1.49-5.18,4.42-5.18a3.49,3.49,0,0,1,3,1.49h0v-5h2.74v13.79h-2.61Zm-2.39-6.91c-1.8,0-2.41,1.54-2.41,3.19s.71,3.21,2.41,3.21,2.36-1.58,2.36-3.22S1798.46,664.05,1796.68,664.05Z"/><path class="cls-2" d="M1805.62,667.92c.08,1.74.93,2.53,2.45,2.53a2.26,2.26,0,0,0,2.16-1.29h2.41a4.49,4.49,0,0,1-4.67,3.36c-3.15,0-5.1-2.16-5.1-5.25A5,5,0,0,1,1808,662c3.4,0,5,2.86,4.85,5.93Zm4.46-1.74c-.25-1.39-.85-2.12-2.18-2.12a2.16,2.16,0,0,0-2.28,2.12Z"/><path class="cls-2" d="M1814.06,662.26h2.61v1.39h.06a3.56,3.56,0,0,1,3.05-1.66c2.92,0,3.65,1.64,3.65,4.11v6.14h-2.74V666.6c0-1.64-.48-2.45-1.76-2.45-1.49,0-2.12.83-2.12,2.86v5.23h-2.74Z"/><path class="cls-2" d="M1828.6,662.26h2v1.83h-2V669c0,.93.23,1.16,1.16,1.16a4.22,4.22,0,0,0,.85-.08v2.14a10.51,10.51,0,0,1-1.6.1c-1.68,0-3.15-.39-3.15-2.38v-5.89h-1.66v-1.83h1.66v-3h2.74Z"/><path class="cls-2" d="M1831.61,658.45h2.74v13.79h-2.74Z"/><path class="cls-2" d="M1841.06,673.5a3.13,3.13,0,0,1-3.44,2.26,16.3,16.3,0,0,1-1.68-.1V673.4a14.55,14.55,0,0,0,1.6.1,1.29,1.29,0,0,0,.95-1.87l-3.51-9.37h2.94l2.26,6.84h0l2.18-6.84h2.84Z"/><path class="cls-2" d="M1855.6,662a5.26,5.26,0,1,1-5.16,5.27A4.9,4.9,0,0,1,1855.6,662Zm0,8.46c1.87,0,2.43-1.6,2.43-3.19s-.56-3.21-2.43-3.21-2.41,1.6-2.41,3.21S1853.74,670.44,1855.6,670.44Z"/><path class="cls-2" d="M1861.77,662.26h2.61v1.85h0a3.53,3.53,0,0,1,3.19-2.12,2,2,0,0,1,.6.1v2.55a5,5,0,0,0-1-.1c-2,0-2.7,1.45-2.7,3.21v4.5h-2.74Z"/><path class="cls-2" d="M1878.5,671.6c0,1.64-.58,4.42-5.18,4.42-2,0-4.27-.93-4.4-3.21h2.72a1.86,1.86,0,0,0,2,1.37c1.53,0,2.22-1,2.2-2.47v-1.31h0a3.37,3.37,0,0,1-3,1.54c-3,0-4.27-2.28-4.27-5,0-2.59,1.49-4.94,4.29-4.94a3.11,3.11,0,0,1,3,1.6h0v-1.33h2.61Zm-2.61-4.48c0-1.62-.56-3.07-2.34-3.07-1.54,0-2.22,1.35-2.22,2.84s.54,3,2.22,3S1875.89,668.55,1875.89,667.12Z"/><path class="cls-2" d="M1879.81,665.33c.15-2.57,2.45-3.34,4.69-3.34,2,0,4.38.44,4.38,2.84V670a5.12,5.12,0,0,0,.35,2.22h-2.78a4.07,4.07,0,0,1-.19-1,4.58,4.58,0,0,1-3.36,1.24c-1.89,0-3.4-.95-3.4-3,0-2.26,1.7-2.8,3.4-3s3.24-.19,3.24-1.31-.81-1.35-1.78-1.35-1.72.42-1.82,1.51Zm6.33,2a5.45,5.45,0,0,1-2.28.58c-.85.17-1.62.46-1.62,1.47s.79,1.27,1.68,1.27a2,2,0,0,0,2.22-2.3Z"/><path class="cls-2" d="M1890.62,662.26h2.61v1.39h.06a3.56,3.56,0,0,1,3.05-1.66c2.92,0,3.65,1.64,3.65,4.11v6.14h-2.74V666.6c0-1.64-.48-2.45-1.76-2.45-1.49,0-2.12.83-2.12,2.86v5.23h-2.74Z"/><path class="cls-2" d="M1904.12,660.71h-2.74v-2.26h2.74Zm-2.74,1.54h2.74v10h-2.74Z"/><path class="cls-2" d="M1905.28,670.17l5.19-5.85h-4.81v-2.07h8.42v2.07l-5.19,5.85h5.56v2.07h-9.17Z"/><path class="cls-2" d="M1917.79,667.92c.08,1.74.93,2.53,2.45,2.53a2.26,2.26,0,0,0,2.16-1.29h2.41a4.49,4.49,0,0,1-4.67,3.36c-3.15,0-5.1-2.16-5.1-5.25a5,5,0,0,1,5.1-5.27c3.4,0,5,2.86,4.85,5.93Zm4.46-1.74c-.25-1.39-.85-2.12-2.18-2.12a2.16,2.16,0,0,0-2.28,2.12Z"/><path class="cls-2" d="M1933.35,671h0a3.31,3.31,0,0,1-3,1.54c-3,0-4.48-2.59-4.48-5.35s1.49-5.18,4.42-5.18a3.49,3.49,0,0,1,3,1.49h0v-5H1936v13.79h-2.61Zm-2.39-6.91c-1.8,0-2.41,1.54-2.41,3.19s.71,3.21,2.41,3.21,2.36-1.58,2.36-3.22S1932.74,664.05,1931,664.05Z"/><path class="cls-2" d="M1946,661h-4.13v-2.55h11.3V661H1949v11.24h-3Z"/><path class="cls-2" d="M1954.32,658.45h10.31V661h-7.28v3H1964v2.36h-6.68v3.38h7.43v2.55h-10.47Z"/><path class="cls-2" d="M1966.06,658.45H1972c3.57,0,6.26,2.24,6.26,6.82,0,4-2,7-6.26,7h-5.95Zm3,11.24h2.7c1.76,0,3.44-1.08,3.44-4.13,0-2.78-1-4.56-4-4.56h-2.16Z"/><path class="cls-2" d="M1986.94,667.92c.08,1.74.93,2.53,2.45,2.53a2.26,2.26,0,0,0,2.16-1.29H1994a4.49,4.49,0,0,1-4.67,3.36c-3.15,0-5.1-2.16-5.1-5.25a5,5,0,0,1,5.1-5.27c3.4,0,5,2.86,4.85,5.93Zm4.46-1.74c-.25-1.39-.85-2.12-2.18-2.12a2.16,2.16,0,0,0-2.28,2.12Z"/><path class="cls-2" d="M2000.51,672.24h-3.05l-3.42-10h2.88l2.1,6.82h0l2.1-6.82h2.72Z"/><path class="cls-2" d="M2006.52,667.92c.08,1.74.93,2.53,2.45,2.53a2.26,2.26,0,0,0,2.16-1.29h2.41a4.49,4.49,0,0,1-4.67,3.36c-3.15,0-5.1-2.16-5.1-5.25a5,5,0,0,1,5.1-5.27c3.4,0,5,2.86,4.85,5.93Zm4.46-1.74c-.25-1.39-.85-2.12-2.18-2.12a2.16,2.16,0,0,0-2.28,2.12Z"/><path class="cls-2" d="M2015,662.26h2.61v1.39h.06a3.56,3.56,0,0,1,3.05-1.66c2.92,0,3.65,1.64,3.65,4.11v6.14h-2.74V666.6c0-1.64-.48-2.45-1.76-2.45-1.49,0-2.12.83-2.12,2.86v5.23H2015Z"/><path class="cls-2" d="M2029.49,662.26h2v1.83h-2V669c0,.93.23,1.16,1.16,1.16a4.22,4.22,0,0,0,.85-.08v2.14a10.5,10.5,0,0,1-1.6.1c-1.68,0-3.15-.39-3.15-2.38v-5.89h-1.66v-1.83h1.66v-3h2.74Z"/><path class="cls-1" d="M1704.85,612.84H1692V601.07h39.86v11.77H1719V647h-14.14Z"/><path class="cls-1" d="M1734,601.07h38.7v11.77h-24.55v5.72h24.55v10.93h-24.55v5.72h24.56V647H1734Z"/><path class="cls-1" d="M1775.12,601.07h23.21c15.3,0,20.71,11.32,20.71,22.89,0,14.09-7.46,23-23.47,23h-20.45Zm14.14,34.14h5.53c8.81,0,10.1-7.14,10.1-11.45,0-2.89-.9-10.92-11.13-10.92h-4.5Z"/><path class="cls-1" d="M1839.36,629.29l-4.31-7.15-4.21,7.15h-10.36l9.84-14.47L1820.84,601h10.37l3.84,6.84L1839,601h10.36l-9.47,13.84,9.84,14.47Z"/><text class="cls-3" transform="translate(1855.79 646.91)">YNU</text><text class="cls-12" transform="translate(1754.28 944.96)">X</text></g></svg>