<svg xmlns="http://www.w3.org/2000/svg" viewBox="0 0 876.02 270.06"><defs><style>.cls-1{fill:#fff;}.cls-2{fill:#ff2b06;}.cls-3{font-size:146.9px;font-family:Helvetica, Helvetica;}</style></defs><title>ynuwhitelogo</title><g id="Layer_1" data-name="Layer 1"><rect class="cls-1" width="876.02" height="270.06"/><path class="cls-2" d="M60.37,189,52.8,178H60l4.05,6,4-6h7l-7.57,10.77L76,201.06H68.78L64,193.81l-4.81,7.25H52.09Z"/><path d="M105.95,187.44H83.47v-4.76h22.48Zm0,9.53H83.47V192.2h22.48Z"/><path d="M123.17,174.49h-6.32v-5.21h6.32ZM116.85,178h6.32v23h-6.32Z"/><path d="M127.26,178h6v3.2h.13a8.21,8.21,0,0,1,7-3.83c6.72,0,8.41,3.78,8.41,9.48v14.15h-6.32v-13c0-3.78-1.11-5.65-4.05-5.65-3.43,0-4.9,1.91-4.9,6.59v12.06h-6.32Z"/><path d="M169.19,198.12h-.09c-1.47,2.49-4.05,3.56-7,3.56-6.94,0-10.33-6-10.33-12.33,0-6.19,3.43-11.93,10.19-11.93a8,8,0,0,1,6.85,3.43h0V169.28h6.32v31.78h-6Zm-5.52-15.93c-4.14,0-5.56,3.56-5.56,7.34,0,3.6,1.65,7.39,5.56,7.39,4.18,0,5.43-3.65,5.43-7.43S167.77,182.19,163.67,182.19Z"/><path d="M184.28,191.09c.18,4,2.14,5.83,5.65,5.83,2.54,0,4.58-1.56,5-3h5.56c-1.78,5.43-5.56,7.74-10.77,7.74-7.26,0-11.75-5-11.75-12.11,0-6.9,4.76-12.15,11.75-12.15,7.83,0,11.62,6.59,11.17,13.66Zm10.28-4c-.58-3.2-2-4.9-5-4.9a5,5,0,0,0-5.25,4.9Z"/><path d="M203.73,178h6V181h.09a7.66,7.66,0,0,1,6.85-3.56c7.21,0,10.46,5.83,10.46,12.37,0,6.14-3.38,11.88-10.1,11.88a8.17,8.17,0,0,1-6.9-3.47H210v10.95h-6.32Zm17.09,11.57c0-3.65-1.47-7.43-5.52-7.43s-5.47,3.69-5.47,7.43,1.42,7.3,5.52,7.3S220.82,193.36,220.82,189.62Z"/><path d="M235.24,191.09c.18,4,2.14,5.83,5.65,5.83,2.54,0,4.58-1.56,5-3h5.56c-1.78,5.43-5.56,7.74-10.77,7.74-7.26,0-11.75-5-11.75-12.11,0-6.9,4.76-12.15,11.75-12.15,7.83,0,11.62,6.59,11.17,13.66Zm10.28-4c-.58-3.2-2-4.9-5-4.9a5,5,0,0,0-5.25,4.9Z"/><path d="M254.69,178h6v3.2h.13a8.21,8.21,0,0,1,7-3.83c6.72,0,8.41,3.78,8.41,9.48v14.15H270v-13c0-3.78-1.11-5.65-4.05-5.65-3.43,0-4.9,1.91-4.9,6.59v12.06h-6.32Z"/><path d="M296.61,198.12h-.09c-1.47,2.49-4.05,3.56-7,3.56-6.94,0-10.33-6-10.33-12.33,0-6.19,3.43-11.93,10.19-11.93a8,8,0,0,1,6.85,3.43h0V169.28h6.32v31.78h-6Zm-5.52-15.93c-4.14,0-5.56,3.56-5.56,7.34,0,3.6,1.65,7.39,5.56,7.39,4.18,0,5.43-3.65,5.43-7.43S295.19,182.19,291.09,182.19Z"/><path d="M311.7,191.09c.18,4,2.14,5.83,5.65,5.83,2.54,0,4.58-1.56,5-3h5.56c-1.78,5.43-5.56,7.74-10.77,7.74-7.26,0-11.75-5-11.75-12.11,0-6.9,4.76-12.15,11.75-12.15,7.83,0,11.62,6.59,11.17,13.66Zm10.28-4c-.58-3.2-2-4.9-5-4.9a5,5,0,0,0-5.25,4.9Z"/><path d="M331.15,178h6v3.2h.13a8.21,8.21,0,0,1,7-3.83c6.72,0,8.41,3.78,8.41,9.48v14.15h-6.32v-13c0-3.78-1.11-5.65-4.05-5.65-3.43,0-4.9,1.91-4.9,6.59v12.06h-6.32Z"/><path d="M364.66,178h4.63v4.23h-4.63v11.39c0,2.14.53,2.67,2.67,2.67a9.74,9.74,0,0,0,2-.18v4.94a24.22,24.22,0,0,1-3.69.22c-3.87,0-7.26-.89-7.26-5.47V182.28h-3.83V178h3.83v-6.9h6.32Z"/><path d="M371.6,169.28h6.32v31.78H371.6Z"/><path d="M393.37,204c-1.38,3.69-3.56,5.21-7.92,5.21a37.56,37.56,0,0,1-3.87-.22v-5.21a33.53,33.53,0,0,0,3.69.22c2.18-.22,2.89-2.49,2.18-4.32L379.35,178h6.77l5.21,15.76h.09l5-15.76H403Z"/><path d="M426.88,177.43c7.25,0,11.93,4.81,11.93,12.15s-4.67,12.11-11.93,12.11S415,196.88,415,189.58,419.67,177.43,426.88,177.43Zm0,19.5c4.32,0,5.61-3.69,5.61-7.34s-1.29-7.39-5.61-7.39-5.56,3.69-5.56,7.39S422.61,196.92,426.88,196.92Z"/><path d="M441.12,178h6v4.27h.09a8.14,8.14,0,0,1,7.34-4.9,4.7,4.7,0,0,1,1.38.22v5.87a11.55,11.55,0,0,0-2.27-.22c-4.63,0-6.23,3.34-6.23,7.39v10.37h-6.32Z"/><path d="M479.67,199.59c0,3.78-1.34,10.19-11.93,10.19-4.54,0-9.84-2.14-10.15-7.39h6.28c.58,2.36,2.49,3.16,4.72,3.16,3.52,0,5.12-2.4,5.07-5.7v-3h-.09a7.78,7.78,0,0,1-6.9,3.56c-6.9,0-9.84-5.25-9.84-11.57,0-6,3.43-11.39,9.88-11.39,3,0,5.34,1,6.85,3.69h.09V178h6Zm-6-10.33c0-3.74-1.29-7.08-5.39-7.08-3.56,0-5.12,3.12-5.12,6.54s1.25,6.9,5.12,6.9C471.88,195.63,473.66,192.56,473.66,189.27Z"/><path d="M482.69,185.13c.36-5.92,5.65-7.7,10.82-7.7,4.58,0,10.1,1,10.1,6.54v12c0,2.09.22,4.18.8,5.12H498a9.39,9.39,0,0,1-.44-2.23,10.55,10.55,0,0,1-7.75,2.85c-4.36,0-7.83-2.18-7.83-6.9,0-5.21,3.92-6.45,7.83-7s7.48-.44,7.48-3-1.87-3.12-4.1-3.12c-2.4,0-4,1-4.18,3.47Zm14.6,4.67c-1.07.94-3.29,1-5.25,1.34s-3.74,1.07-3.74,3.38,1.83,2.94,3.87,2.94c4.94,0,5.12-3.92,5.12-5.3Z"/><path d="M507.62,178h6v3.2h.13a8.21,8.21,0,0,1,7-3.83c6.72,0,8.41,3.78,8.41,9.48v14.15h-6.32v-13c0-3.78-1.11-5.65-4.05-5.65-3.43,0-4.9,1.91-4.9,6.59v12.06h-6.32Z"/><path d="M538.73,174.49h-6.32v-5.21h6.32ZM532.41,178h6.32v23h-6.32Z"/><path d="M541.4,196.3l12-13.49H542.29V178h19.41v4.76l-12,13.49h12.82v4.76H541.4Z"/><path d="M570.24,191.09c.18,4,2.14,5.83,5.65,5.83,2.54,0,4.58-1.56,5-3h5.56c-1.78,5.43-5.56,7.74-10.77,7.74-7.25,0-11.75-5-11.75-12.11,0-6.9,4.76-12.15,11.75-12.15,7.83,0,11.62,6.59,11.17,13.66Zm10.28-4c-.58-3.2-2-4.9-5-4.9a5,5,0,0,0-5.25,4.9Z"/><path d="M606.11,198.12H606c-1.47,2.49-4,3.56-7,3.56-6.94,0-10.33-6-10.33-12.33,0-6.19,3.43-11.93,10.19-11.93a8,8,0,0,1,6.85,3.43h0V169.28h6.32v31.78h-6Zm-5.52-15.93c-4.14,0-5.56,3.56-5.56,7.34,0,3.6,1.65,7.39,5.56,7.39,4.18,0,5.43-3.65,5.43-7.43S604.69,182.19,600.59,182.19Z"/><path d="M635.17,175.16h-9.52v-5.88h26v5.88h-9.53v25.9h-7Z"/><path d="M654.44,169.28h23.77v5.88H661.43V182h15.4v5.43h-15.4v7.79h17.14v5.88H654.44Z"/><path d="M681.5,169.28h13.71c8.23,0,14.42,5.16,14.42,15.71,0,9.21-4.72,16.07-14.42,16.07H681.5Zm7,25.9h6.23c4,0,7.92-2.49,7.92-9.52,0-6.41-2.23-10.5-9.17-10.5h-5Z"/><path d="M729.62,191.09c.18,4,2.14,5.83,5.65,5.83,2.54,0,4.58-1.56,5-3h5.56c-1.78,5.43-5.56,7.74-10.77,7.74-7.25,0-11.75-5-11.75-12.11,0-6.9,4.76-12.15,11.75-12.15,7.83,0,11.62,6.59,11.17,13.66Zm10.28-4c-.58-3.2-2-4.9-5-4.9a5,5,0,0,0-5.25,4.9Z"/><path d="M760.91,201.06h-7L746,178h6.63l4.85,15.71h.09L762.42,178h6.28Z"/><path d="M774.75,191.09c.18,4,2.14,5.83,5.65,5.83,2.54,0,4.58-1.56,5-3h5.56c-1.78,5.43-5.56,7.74-10.77,7.74-7.25,0-11.75-5-11.75-12.11,0-6.9,4.76-12.15,11.75-12.15,7.83,0,11.62,6.59,11.17,13.66Zm10.28-4c-.58-3.2-2-4.9-5-4.9a5,5,0,0,0-5.25,4.9Z"/><path d="M794.2,178h6v3.2h.13a8.21,8.21,0,0,1,7-3.83c6.72,0,8.41,3.78,8.41,9.48v14.15h-6.32v-13c0-3.78-1.11-5.65-4.05-5.65-3.43,0-4.9,1.91-4.9,6.59v12.06H794.2Z"/><path d="M827.71,178h4.63v4.23h-4.63v11.39c0,2.14.53,2.67,2.67,2.67a9.72,9.72,0,0,0,2-.18v4.94a24.2,24.2,0,0,1-3.69.22c-3.87,0-7.25-.89-7.25-5.47V182.28h-3.83V178h3.83v-6.9h6.32Z"/><path class="cls-2" d="M79.42,64.14H49.77V37h91.88V64.14H112v78.7H79.42Z"/><path class="cls-2" d="M146.71,37H235.9V64.14H179.31V77.32H235.9v25.2H179.31v13.19h56.6v27.12H146.71Z"/><path class="cls-2" d="M241.39,37h53.5c35.27,0,47.73,26.08,47.73,52.75,0,32.47-17.19,53.06-54.1,53.06H241.39Zm32.6,78.7h12.75C307,115.71,310,99.26,310,89.32c0-6.66-2.09-25.18-25.65-25.18H274Z"/><path class="cls-2" d="M389.46,102.06l-9.95-16.49-9.7,16.49H345.93l22.68-33.35-21.84-31.9h23.89l8.85,15.77,9.1-15.77h23.89l-21.83,31.9,22.68,33.35Z"/><text class="cls-3" transform="translate(425.57 142.85)">YNU</text></g></svg>