<svg xmlns="http://www.w3.org/2000/svg" xmlns:xlink="http://www.w3.org/1999/xlink" viewBox="0 0 231 231"><defs><style>.cls-1{fill:none;}.cls-2{fill:#b51e00;}.cls-3{font-size:18.62px;fill:#fff;font-family:MyriadPro-Regular, Myriad Pro;}.cls-4{letter-spacing:0em;}.cls-5{letter-spacing:0em;}.cls-6{clip-path:url(#clip-path);}.cls-7{opacity:0.31;}.cls-8{fill:#ccc;}.cls-9{fill:#e30d1f;}.cls-10{fill:#999;}.cls-11{fill:#4f4c5f;}.cls-12{fill:#5b5a6f;}.cls-13{fill:#7c0a13;}</style><clipPath id="clip-path"><rect class="cls-1" x="617.96" y="-773" width="259.07" height="372"/></clipPath></defs><title>ant</title><g id="BG"><rect class="cls-2" width="231" height="231"/><text class="cls-3" transform="translate(78.04 34.54)"><tspan class="cls-4">A</tspan><tspan class="cls-5" x="11.34" y="0">n</tspan><tspan x="21.59" y="0">t man</tspan></text><g class="cls-6"><image width="788" height="960" transform="translate(-757.11 -1822.57) scale(2.78)" xlink:href="../../infinity.jpg"/></g></g><g id="Layer_3" data-name="Layer 3"><polygon class="cls-7" points="231 142 231 231 139.16 231 85.93 177.77 85.5 177.5 73.5 157.5 62.5 129.5 69.5 82.17 92 104 97.31 67 136.1 107.1 144.07 73.44 165.2 94.2 166.81 77.11 231 142"/><ellipse class="cls-8" cx="89.73" cy="170.63" rx="6.32" ry="8.85"/><polygon class="cls-9" points="101.1 113.76 97.31 67 85.93 73.32 88.46 117.55 101.1 113.76"/><circle class="cls-10" cx="115" cy="170.63" r="11.37"/><path d="M112.47,163.49v14.28a7.57,7.57,0,0,1,0-14.28Z"/><path d="M122.58,170.63a7.56,7.56,0,0,1-5.05,7.14V163.49A7.56,7.56,0,0,1,122.58,170.63Z"/><polygon class="cls-9" points="113.74 113.76 90.99 109.97 74.56 118.81 73.3 130.19 80.88 140.3 113.74 125.13 113.74 113.76"/><polygon class="cls-11" points="69.5 82.17 69.5 142.82 82.14 160.52 80.88 169.36 61.92 154.2 58.13 104.91 63.19 101.12 63.19 77.11 69.5 82.17"/><polygon class="cls-12" points="115 144.09 101.1 151.67 98.57 171.89 106.15 159.25 115 156.72 115 144.09"/><ellipse class="cls-13" cx="85.93" cy="170.63" rx="2.53" ry="5.05"/><ellipse class="cls-8" cx="140.27" cy="170.63" rx="6.32" ry="8.85"/><polygon class="cls-9" points="128.9 113.76 132.69 67 144.07 73.32 141.54 117.55 128.9 113.76"/><polygon class="cls-9" points="116.26 113.76 139.01 109.97 155.44 118.81 156.7 130.19 149.12 140.3 116.26 125.13 116.26 113.76"/><polygon class="cls-11" points="160.5 82.17 160.5 142.82 147.86 160.52 149.12 169.36 168.08 154.2 171.87 104.91 166.81 101.12 166.81 77.11 160.5 82.17"/><polygon class="cls-12" points="115 144.09 128.9 151.67 131.43 171.89 123.85 159.25 115 156.72 115 144.09"/><ellipse class="cls-13" cx="144.07" cy="170.63" rx="2.53" ry="5.05"/><circle cx="115" cy="170.63" r="2.53"/></g></svg>