<svg xmlns="http://www.w3.org/2000/svg" xmlns:xlink="http://www.w3.org/1999/xlink" viewBox="0 0 231 231"><defs><style>.cls-1,.cls-7{fill:none;}.cls-2{font-size:18.62px;font-family:MyriadPro-Regular, Myriad Pro;}.cls-2,.cls-6,.cls-8{fill:#fff;}.cls-3{letter-spacing:0em;}.cls-4{clip-path:url(#clip-path);}.cls-5{fill:#333;}.cls-7{stroke:#fff;stroke-linecap:round;stroke-miterlimit:10;}.cls-8{opacity:0.1;}</style><clipPath id="clip-path"><rect class="cls-1" x="881.96" y="-773" width="259.07" height="372"/></clipPath></defs><title>black</title><g id="BG"><rect width="231" height="231"/><text class="cls-2" transform="translate(64.04 34.54)">Black pa<tspan class="cls-3" x="64.04" y="0">n</tspan><tspan x="74.29" y="0">ther</tspan></text><g class="cls-4"><image width="788" height="960" transform="translate(-493.11 -1822.57) scale(2.78)" xlink:href="../../infinity.jpg"/></g></g><g id="Layer_3" data-name="Layer 3"><polygon class="cls-5" points="121.38 81.78 121.38 180.4 112.63 178.81 102.2 166.48 101.41 165.55 95.13 158.13 87.17 131.08 87.17 104.05 94.33 71.44 96 72.99 98.18 75.01 105.47 81.78 121.38 81.78"/><polygon class="cls-6" points="100.7 127.11 103.08 133.47 109.45 135.86 115.01 135.86 116.6 134.27 108.65 128.7 100.7 127.11"/><path class="cls-6" d="M119.56,119.73v11.35a.57.57,0,0,1-.57.57.57.57,0,0,1-.57-.57V120.17l-11.93-13.52V94.39l2.61-12.61h1.15a.43.43,0,0,1,0,.11l-2.63,12.66v11.66Z"/><polygon class="cls-6" points="102.2 166.48 105.35 161.31 93.27 141.99 87.17 121.73 87.17 125.69 92.19 142.39 104 161.32 101.41 165.55 102.2 166.48"/><polyline class="cls-7" points="121.38 145.4 113.42 147.79 108.65 139.84 97.52 135.06 95.13 126.31"/><path class="cls-6" d="M117.18,123.7v9.45l-14.31-12.63H95.13a.57.57,0,1,1,0-1.14h8.18L116,130.62v-6.45l-15.12-15.11V83.49L96,73l2.18,2,3.88,8.36v25.21Z"/><polygon class="cls-5" points="155.58 104.05 155.58 131.08 147.62 158.13 130.13 178.81 121.74 180.33 121.38 180.4 121.38 81.78 137.28 81.78 147.3 72.49 148.42 71.44 148.97 73.95 155.58 104.05"/><polygon class="cls-6" points="142.06 127.11 139.67 133.47 133.31 135.86 127.74 135.86 126.15 134.27 134.1 128.7 142.06 127.11"/><path class="cls-6" d="M123.19,119.73v11.35a.57.57,0,0,0,.57.57.57.57,0,0,0,.57-.57V120.17l11.93-13.52V94.39l-2.61-12.61h-1.15a.43.43,0,0,0,0,.11l2.63,12.66v11.66Z"/><polygon class="cls-6" points="141.35 165.55 138.76 161.32 150.56 142.39 155.59 125.69 155.59 121.73 149.49 141.99 137.41 161.31 140.56 166.48 141.35 165.55"/><polyline class="cls-7" points="121.38 145.4 129.34 147.79 134.11 139.84 145.24 135.06 147.63 126.31"/><path class="cls-6" d="M125.58,123.7v9.45l14.31-12.63h7.74a.57.57,0,1,0,0-1.14h-8.18l-12.73,11.24v-6.45l15.12-15.11V83.49L146.76,73l-2.18,2-3.88,8.36v25.21Z"/></g><g id="shadow"><polygon class="cls-8" points="246.92 170.77 246.92 241.56 182.98 241.56 121.38 179.96 121.38 81.78 137.28 81.78 148.42 71.45 246.92 170.77"/></g></svg>