<svg xmlns="http://www.w3.org/2000/svg" viewBox="0 0 231 231"><defs><style>.cls-1{fill:#0071bc;}.cls-2{font-size:18.62px;font-family:MyriadPro-Regular, Myriad Pro;}.cls-2,.cls-7{fill:#fff;}.cls-3{letter-spacing:-0.01em;}.cls-4{letter-spacing:0em;}.cls-5{letter-spacing:0em;}.cls-6{letter-spacing:0em;}.cls-8{fill:#c69c6d;}.cls-9{opacity:0.1;}</style></defs><title>cap</title><g id="BG"><rect class="cls-1" width="231" height="231"/><text class="cls-2" transform="translate(47.04 30.54)"><tspan class="cls-3">C</tspan><tspan x="10.67" y="0">aptain </tspan><tspan class="cls-4" x="64" y="0">A</tspan><tspan class="cls-5" x="75.34" y="0">me</tspan><tspan class="cls-6" x="100.19" y="0">r</tspan><tspan x="106.35" y="0">ica</tspan></text></g><g id="Layer_3" data-name="Layer 3"><path class="cls-7" d="M111.45,82h6.38l9.54,24.48h-6.11l-1.78-5h-9.94l-1.83,5h-5.9Zm-.37,15.23H118l-3.41-9.63Z"/><polygon class="cls-8" points="85.01 120.98 89.92 128 105.37 128 108.88 125.19 104.67 120.98 87.11 117.47 85.01 120.98"/><polygon class="cls-8" points="145.49 120.98 140.57 128 125.13 128 121.62 125.19 125.83 120.98 143.38 117.47 145.49 120.98"/><polygon class="cls-8" points="150.7 131 150.7 157.97 132.43 182.32 97.63 182.32 79.37 157.97 79.37 131 85.45 138.83 100.24 139.7 115.03 133.61 129.82 139.7 144.61 138.83 150.7 131"/><polygon class="cls-8" points="115.22 133.69 115.11 142.2 115.03 133.61 115.22 133.69"/><polygon class="cls-9" points="150.7 144.52 150.7 157.97 132.43 182.32 115.5 182.32 115.2 151 115.11 142.2 115.22 133.69 116 73 134 73 150.67 95 150.67 144.4 150.7 144.52"/><polygon class="cls-7" points="115.2 151 115 151 115.11 142.2 115.2 151"/></g></svg>