<svg xmlns="http://www.w3.org/2000/svg" xmlns:xlink="http://www.w3.org/1999/xlink" viewBox="0 0 231 231"><defs><style>.cls-1{fill:none;}.cls-2{fill:#0071bc;}.cls-3{font-size:18.62px;font-family:MyriadPro-Regular, Myriad Pro;}.cls-11,.cls-3{fill:#fff;}.cls-4{letter-spacing:-0.01em;}.cls-5{letter-spacing:0em;}.cls-6{letter-spacing:0em;}.cls-7{letter-spacing:0em;}.cls-8{clip-path:url(#clip-path);}.cls-9{opacity:0.24;}.cls-10{opacity:0.3;}.cls-12{fill:#c69c6d;}</style><clipPath id="clip-path"><rect class="cls-1" x="881.96" y="-514" width="259.07" height="372"/></clipPath></defs><title>cap</title><g id="BG"><rect class="cls-2" width="231" height="231"/><text class="cls-3" transform="translate(47.04 30.54)"><tspan class="cls-4">C</tspan><tspan x="10.67" y="0">aptain </tspan><tspan class="cls-5" x="64" y="0">A</tspan><tspan class="cls-6" x="75.34" y="0">me</tspan><tspan class="cls-7" x="100.19" y="0">r</tspan><tspan x="106.35" y="0">ica</tspan></text><g class="cls-8"><image width="788" height="960" transform="translate(-493.11 -1563.57) scale(2.78)" xlink:href="../../infinity.jpg"/></g></g><g id="Layer_3" data-name="Layer 3"><polygon class="cls-9" points="231 170 231 231 165 231 116 182 115.42 161.78 115.13 152.04 115.17 148.49 116 73 134 73 231 170"/><polygon class="cls-10" points="115.17 148.49 115.13 152.04 115.03 148.42 115.17 148.49"/><polygon class="cls-10" points="115.42 161.78 115.03 161.58 115.13 152.04 115.42 161.78"/><path class="cls-11" d="M111.45,82h6.38l9.54,24.48h-6.11l-1.78-5h-9.94l-1.83,5h-5.9Zm-.37,15.23H118l-3.41-9.63Z"/><polygon class="cls-12" points="85.01 120.98 89.92 128 105.37 128 108.88 125.19 104.67 120.98 87.11 117.47 85.01 120.98"/><polygon class="cls-12" points="145.49 120.98 140.57 128 125.13 128 121.62 125.19 125.83 120.98 143.38 117.47 145.49 120.98"/><polygon class="cls-12" points="150.7 131 150.7 157.97 132.43 182.32 97.63 182.32 79.37 157.97 79.37 131 85.45 138.83 100.24 139.7 115.03 133.61 129.82 139.7 144.61 138.83 150.7 131"/><polygon class="cls-12" points="115.22 133.69 115.11 142.2 115.03 133.61 115.22 133.69"/></g></svg>