<svg xmlns="http://www.w3.org/2000/svg" xmlns:xlink="http://www.w3.org/1999/xlink" viewBox="0 0 231 231"><defs><style>.cls-1{fill:none;}.cls-2{fill:gray;}.cls-3{font-size:18.62px;font-family:MyriadPro-Regular, Myriad Pro;}.cls-14,.cls-3{fill:#fff;}.cls-4{letter-spacing:0em;}.cls-5{letter-spacing:-0.04em;}.cls-6{letter-spacing:-0.01em;}.cls-7{letter-spacing:0em;}.cls-8{letter-spacing:0em;}.cls-9{letter-spacing:-0.01em;}.cls-10{clip-path:url(#clip-path);}.cls-11{clip-path:url(#clip-path-2);}.cls-12{opacity:0.22;}.cls-13{fill:#c1272d;}</style><clipPath id="clip-path"><rect class="cls-1" x="510" y="-18" width="56.49" height="62"/></clipPath><clipPath id="clip-path-2"><rect class="cls-1" x="-179.04" y="-773" width="259.07" height="372"/></clipPath><image id="image" width="788" height="960" xlink:href="../../infinity.jpg"/></defs><title>drax</title><g id="BG"><rect class="cls-2" width="231" height="231"/><text class="cls-3" transform="translate(49.72 34.4)">D<tspan class="cls-4" x="12.4" y="0">r</tspan><tspan x="18.39" y="0">ax</tspan><tspan class="cls-5" x="35.98" y="0"> </tspan><tspan class="cls-6" x="39.17" y="0">T</tspan><tspan x="48.29" y="0">he </tspan><tspan class="cls-7" x="71.89" y="0">D</tspan><tspan class="cls-8" x="84.37" y="0">est</tspan><tspan class="cls-9" x="107.23" y="0">r</tspan><tspan class="cls-6" x="113.13" y="0">o</tspan><tspan class="cls-9" x="123.22" y="0">y</tspan><tspan x="131.8" y="0">er</tspan></text><g class="cls-10"><use transform="translate(111.82 -241.2) scale(0.58)" xlink:href="#image"/></g><g class="cls-11"><use transform="translate(-1554.11 -1822.57) scale(2.78)" xlink:href="#image"/></g></g><g id="shadow_back" data-name="shadow back"><path class="cls-12" d="M132.13,66l6.15,8,.42,8.75-3,26.63,8.33,4.37L133.4,113l-2.2,1-7.64,6.69L93.73,90.53,95,99.62l6.38,11.85-10.52,6.11L87.65,130l12,13.23v20.16L167.34,231H231V164.88Zm12.19,75.69-6.56-6.63,5.74.14,5.88-3.06Z"/></g><g id="Layer_3" data-name="Layer 3"><polygon class="cls-13" points="127.86 118.18 138.53 117.69 148.48 122.53 138.88 131.36 124.3 131.84 137.81 142.22 143.5 162 147.06 143.87 155.95 126.8 149.9 114.71 150.26 92.67 147.06 100.49 144.22 102.62 141.73 100.13 140.3 75.6 132.13 66 137.81 76.67 134.97 99.78 127.5 107.96 125.08 116.56 121.46 122.53 127.86 118.18"/><polygon class="cls-13" points="113.7 122.11 106.17 111.87 104.04 102.62 101.9 106.89 96.57 99.78 93.73 90.53 94.44 101.91 96.57 112.58 87.68 101.56 88.46 116.84 85.68 131.84 97.28 148.13 99.42 161.29 102.61 143.87 109.02 139.96 113.5 132.71 101.19 134.82 90 128 93.37 121.82 103.61 118.69 113.7 122.11"/><polygon class="cls-14" points="109 126.1 106.6 127.3 103 128.5 99.4 127.3 97 126.1 99.4 123.7 103 122.5 106.6 123.7 109 126.1"/><polygon class="cls-14" points="139 126.1 136.6 127.3 133 128.5 129.4 127.3 127 126.1 129.4 123.7 133 122.5 136.6 123.7 139 126.1"/></g></svg>