<svg xmlns="http://www.w3.org/2000/svg" xmlns:xlink="http://www.w3.org/1999/xlink" viewBox="0 0 231 231"><defs><style>.cls-1{fill:none;}.cls-2{fill:#603813;}.cls-3{font-size:18.62px;fill:#fff;font-family:MyriadPro-Regular, Myriad Pro;}.cls-4{letter-spacing:-0.04em;}.cls-5{letter-spacing:-0.01em;}.cls-6{clip-path:url(#clip-path);}.cls-7{opacity:0.22;}.cls-8{fill:#c1272d;}</style><clipPath id="clip-path"><rect class="cls-1" x="89.96" y="-1032" width="259.07" height="372"/></clipPath></defs><title>falcon</title><g id="BG"><rect class="cls-2" width="231" height="231"/><text class="cls-3" transform="translate(75.72 34.4)"><tspan class="cls-4">F</tspan><tspan x="8.23" y="0">al</tspan><tspan class="cls-5" x="21.59" y="0">c</tspan><tspan x="29.82" y="0">on</tspan></text><g class="cls-6"><image width="788" height="960" transform="translate(-1285.11 -2081.57) scale(2.78)" xlink:href="../../infinity.jpg"/></g><polygon class="cls-7" points="231 161.15 231 245.29 210 245.29 75.14 110.43 126.26 102.17 128.27 104.18 157.17 102.17 167.14 97.29 231 161.15"/></g><g id="Layer_3" data-name="Layer 3"><polygon points="118 98.43 94 91 75.14 97.29 75.14 112.14 99.14 123 118 115.57 118 98.43"/><polygon class="cls-8" points="112.29 104.14 93.43 97.29 82 100.71 82 111.57 98 117.86 112.29 111.57 112.29 104.14"/><polygon points="75.14 101.43 68.86 99 68.86 105.86 75.14 108.56 75.14 101.43"/><polyline points="118 98.43 142 91 160.86 97.29 160.86 112.14 136.86 123 118 115.57"/><polygon class="cls-8" points="123.71 104.14 142.57 97.29 154 100.71 154 111.57 138 117.86 123.71 111.57 123.71 104.14"/><polygon points="160.86 101.43 167.14 99 167.14 105.86 160.86 108.56 160.86 101.43"/></g></svg>