<svg xmlns="http://www.w3.org/2000/svg" xmlns:xlink="http://www.w3.org/1999/xlink" viewBox="0 0 231 231"><defs><style>.cls-1{fill:none;}.cls-2{fill:#007525;}.cls-3{clip-path:url(#clip-path);}.cls-4{opacity:0.23;}.cls-5{stroke:#000;stroke-miterlimit:10;}.cls-6{font-size:18.62px;font-family:MyriadPro-Regular, Myriad Pro;}.cls-6,.cls-7{fill:#fff;}</style><clipPath id="clip-path"><rect class="cls-1" x="353.96" y="-514" width="259.07" height="372"/></clipPath></defs><title>hulk</title><g id="BG"><rect class="cls-2" width="231" height="231"/><g class="cls-3"><image width="788" height="960" transform="translate(-1021.11 -1563.57) scale(2.78)" xlink:href="../../infinity.jpg"/></g></g><g id="shadow_back" data-name="shadow back"><polygon class="cls-4" points="231 129 231 231 152 231 93 172 129.11 164.73 126.7 162.32 112 163 85 136 97.27 132.89 60.88 96.5 115.5 78.76 124.96 86.37 170.5 68.5 231 129"/></g><g id="Layer_3" data-name="Layer 3"><polygon class="cls-5" points="176.5 88.5 169.2 112.5 160.22 98.5 143.16 109.5 142.26 101.5 111.1 109.5 111.73 102.5 73.7 105.5 75.81 96.5 60.88 96.5 75.5 75.5 62.34 67.5 99.16 61.5 92.94 52.5 142.09 63.5 138.88 52.5 170.5 68.5 176.5 88.5"/><text class="cls-6" transform="translate(98.77 30.17)">Hulk</text><polygon class="cls-7" points="156 166 122 168 93 172 86.53 167.96 105 165 86.34 165.78 96 157 126 160 148 157 150.9 160.27 134 162.94 151.95 161.44 156 166"/><polygon class="cls-7" points="79 128 91 124 109 130 105 136 85 136 79 128"/><polygon class="cls-7" points="156 128 144 124 126 130 130 136 150 136 156 128"/></g></svg>