<svg xmlns="http://www.w3.org/2000/svg" viewBox="0 0 231 231"><defs><style>.cls-1{fill:#007525;}.cls-2,.cls-4{fill:#fff;}.cls-3{stroke:#000;stroke-miterlimit:10;}.cls-4{font-size:18.62px;font-family:MyriadPro-Regular, Myriad Pro;}</style></defs><title>hulk</title><g id="BG"><rect class="cls-1" width="231" height="231"/><polygon class="cls-2" points="79 128 91 124 109 130 105 136 85 136 79 128"/><polygon class="cls-2" points="156 128 144 124 126 130 130 136 150 136 156 128"/></g><g id="Layer_3" data-name="Layer 3"><polygon class="cls-3" points="176.5 88.5 169.2 112.5 160.22 98.5 143.16 109.5 142.26 101.5 111.1 109.5 111.73 102.5 73.7 105.5 75.81 96.5 60.88 96.5 75.5 75.5 62.34 67.5 99.16 61.5 92.94 52.5 142.09 63.5 138.88 52.5 170.5 68.5 176.5 88.5"/><text class="cls-4" transform="translate(98.77 30.17)">Hulk</text><polygon class="cls-2" points="156 166 122 168 93 172 86.53 167.96 105 165 86.34 165.78 96 157 126 160 148 157 150.9 160.27 134 162.94 151.95 161.44 156 166"/></g></svg>