<svg xmlns="http://www.w3.org/2000/svg" viewBox="0 0 231 231"><defs><style>.cls-1{fill:#b51e00;}.cls-2{font-size:18.62px;font-family:MyriadPro-Regular, Myriad Pro;}.cls-2,.cls-7{fill:#fff;}.cls-3{letter-spacing:0em;}.cls-4{letter-spacing:-0.01em;}.cls-5{letter-spacing:0em;}.cls-6{fill:#ebbe00;}.cls-8{fill:none;stroke:#b51e00;stroke-miterlimit:10;stroke-width:2px;}.cls-9{opacity:0.1;}</style></defs><title>iron</title><g id="BG"><rect class="cls-1" width="231" height="231"/><text class="cls-2" transform="translate(74.04 30.54)">I<tspan class="cls-3" x="4.45" y="0">R</tspan><tspan x="14.52" y="0">ON </tspan><tspan class="cls-4" x="43.54" y="0">M</tspan><tspan class="cls-5" x="58.32" y="0">AN</tspan></text></g><g id="Layer_3" data-name="Layer 3"><polygon class="cls-6" points="149.5 130.5 131.5 177.5 121.5 173.5 105.5 173.5 95.5 177.5 77.5 130.5 81.5 113.5 80 83 100 72 106 99 121 99 127 72 147 83 145.5 113.5 149.5 130.5"/><polygon class="cls-6" points="149.5 130.5 131.5 177.5 121.5 173.5 114 173.5 114 99 121 99 127 72 147 83 145.5 113.5 149.5 130.5"/><polygon class="cls-7" points="87 122 104 126 103 128 94 128 86 125 87 122"/><polygon class="cls-7" points="140 122 123 126 124 128 133 128 141 125 140 122"/><polyline class="cls-8" points="86 159 95 165 99 162 114 162"/><polyline class="cls-8" points="140 159 131 165 127 162 112 162"/><polygon class="cls-9" points="114.5 173.5 114 173.5 114 173 114.5 173.5"/><polygon class="cls-9" points="231 167 231 231 172 231 114 173 114 99 121 99 127 72 147 83 231 167"/><g class="cls-9"><polygon points="121 99 122.09 94.09 100 72 106 99 121 99"/></g></g></svg>