<svg xmlns="http://www.w3.org/2000/svg" xmlns:xlink="http://www.w3.org/1999/xlink" viewBox="0 0 231 231"><defs><style>.cls-1{fill:none;}.cls-2{fill:#b51e00;}.cls-3{font-size:18.62px;font-family:MyriadPro-Regular, Myriad Pro;}.cls-3,.cls-6{fill:#fff;}.cls-4{letter-spacing:0.01em;}.cls-5{clip-path:url(#clip-path);}</style><clipPath id="clip-path"><rect class="cls-1" x="617.96" y="-1032" width="259.07" height="372"/></clipPath></defs><title>spider</title><g id="BG"><rect class="cls-2" width="231" height="231"/><text class="cls-3" transform="translate(73.6 44.26)">Spider <tspan class="cls-4" x="53.98" y="0">M</tspan><tspan x="69.06" y="0">an</tspan></text><g class="cls-5"><image width="788" height="960" transform="translate(-757.11 -2081.57) scale(2.78)" xlink:href="../../infinity.jpg"/></g></g><g id="Layer_3" data-name="Layer 3"><polyline points="113.58 121.17 98.89 104.15 82.64 93.32 78 87.91 78 117.3 84.96 131.23 93.47 135.09 103.53 133.55 113.58 121.94"/><polyline points="113.58 121.17 98.89 104.15 82.64 93.32 78 87.91 78 117.3 84.96 131.23 93.47 135.09 103.53 133.55 113.58 121.94"/><polygon class="cls-6" points="107.23 121.13 95.51 111.36 82.8 106.47 83.78 118.2 89.64 123.08 99.42 125.04 107.23 121.13"/><polyline points="119.42 121.17 134.11 104.15 150.36 93.32 155 87.91 155 117.3 148.04 131.23 139.53 135.09 129.47 133.55 119.42 121.94"/><polygon class="cls-6" points="125.77 121.13 137.49 111.36 150.2 106.47 149.22 118.2 143.36 123.08 133.58 125.04 125.77 121.13"/></g></svg>