<svg xmlns="http://www.w3.org/2000/svg" viewBox="0 0 231 231"><defs><style>.cls-1{fill:#4c2f41;}.cls-2{font-size:18.62px;fill:#fff;font-family:MyriadPro-Regular, Myriad Pro;}.cls-3{letter-spacing:0em;}.cls-4{letter-spacing:0em;}.cls-5{letter-spacing:-0.01em;}.cls-6{letter-spacing:-0.01em;}.cls-7{fill:#999;}.cls-8{fill:#feff44;}.cls-9{fill:#c1272d;stroke:#000;stroke-miterlimit:10;stroke-width:2px;}.cls-10{fill:#4d4d4d;}.cls-11{fill:#666;}</style></defs><title>star</title><g id="BG"><rect class="cls-1" width="231" height="231"/><text class="cls-2" transform="translate(70.04 34.54)"><tspan class="cls-3">S</tspan><tspan class="cls-4" x="9.12" y="0">tar </tspan><tspan class="cls-5" x="34.29" y="0">L</tspan><tspan x="42.82" y="0">o</tspan><tspan class="cls-6" x="53.04" y="0">r</tspan><tspan x="58.94" y="0">d</tspan></text></g><g id="Layer_3" data-name="Layer 3"><polygon class="cls-7" points="116 90 81 98 73 93 73 165 100 192 116 192 116 90"/><polygon class="cls-8" points="116 115 89 117 81 125 81 137 96 144 116 138 116 115"/><circle class="cls-9" cx="96.5" cy="129.5" r="10"/><polygon class="cls-10" points="116 152 110 152 98 156 98 171 105 177 113 173 116 174 116 152"/><rect x="90" y="167" width="9" height="19" transform="translate(-97.41 119.46) rotate(-45.28)"/><rect class="cls-11" x="95.68" y="180.63" width="9" height="3" transform="translate(-99.72 125.17) rotate(-45.28)"/><rect class="cls-11" x="84.32" y="169.37" width="9" height="3" transform="translate(-95.09 113.75) rotate(-45.28)"/><polygon class="cls-7" points="116 90 151 98 159 93 159 165 132 192 116 192 116 90"/><polygon class="cls-8" points="116 115 143 117 151 125 151 137 136 144 116 138 116 115"/><circle class="cls-9" cx="135.5" cy="129.5" r="10"/><polygon class="cls-10" points="116 152 122 152 134 156 134 171 127 177 119 173 116 174 116 152"/><rect x="133" y="167" width="9" height="19" transform="translate(108.83 398.39) rotate(-134.72)"/><rect class="cls-11" x="127.32" y="180.63" width="9" height="3" transform="translate(95.15 403.94) rotate(-134.72)"/><rect class="cls-11" x="138.68" y="169.37" width="9" height="3" transform="translate(122.51 392.84) rotate(-134.72)"/></g></svg>