<svg xmlns="http://www.w3.org/2000/svg" xmlns:xlink="http://www.w3.org/1999/xlink" viewBox="0 0 231 231"><defs><style>.cls-1{fill:none;}.cls-2{fill:#b51e00;}.cls-3{font-size:18.62px;fill:#fff;font-family:MyriadPro-Regular, Myriad Pro;}.cls-4{letter-spacing:0em;}.cls-5{letter-spacing:0em;}.cls-6{letter-spacing:0.01em;}.cls-7{letter-spacing:-0.01em;}.cls-8{letter-spacing:0em;}.cls-9{letter-spacing:0em;}.cls-10{clip-path:url(#clip-path);}.cls-11{opacity:0.2;}</style><clipPath id="clip-path"><rect class="cls-1" x="1145.96" y="-773" width="259.07" height="372"/></clipPath></defs><title>strange</title><g id="BG"><rect class="cls-2" width="231" height="231"/><text class="cls-3" transform="translate(56.04 34.54)"><tspan class="cls-4">D</tspan><tspan class="cls-5" x="12.47" y="0">o</tspan><tspan class="cls-6" x="22.69" y="0">c</tspan><tspan class="cls-7" x="31.27" y="0">t</tspan><tspan x="37.32" y="0">or </tspan><tspan class="cls-8" x="57.58" y="0">S</tspan><tspan x="66.7" y="0">t</tspan><tspan class="cls-9" x="72.86" y="0">r</tspan><tspan x="78.86" y="0">ange</tspan></text><g class="cls-10"><image width="788" height="960" transform="translate(-229.11 -1822.57) scale(2.78)" xlink:href="../../infinity.jpg"/></g></g><g id="shadow_back" data-name="shadow back"><polygon class="cls-11" points="231 176.06 231 231 136.71 231 97.44 191.73 100.41 178.78 104.35 177.21 113.35 173.78 76.84 137.27 76.84 94.51 89.82 90.49 98.58 98.95 125.02 92.17 160.18 105.24 231 176.06"/></g><g id="Layer_3" data-name="Layer 3"><polygon points="131.71 191.73 127.94 180.45 114.57 177.67 101.2 180.45 97.44 191.73 99.67 176.97 114.57 171.53 129.48 176.97 131.71 191.73"/><polygon points="160.18 105.24 149.78 139.23 143.69 112.43 133.46 100.92 113.1 107.08 106.53 107.08 87.14 101.89 88.31 111.48 93.23 116.89 86.86 111.32 86.1 108.05 83.98 121.74 76.84 137.27 70.97 95.06 84.36 84.5 95.14 74.39 115.15 71.44 126.88 77.47 134.39 77.15 154.59 90.54 153.23 95.29 160.18 105.24"/></g></svg>