<svg xmlns="http://www.w3.org/2000/svg" xmlns:xlink="http://www.w3.org/1999/xlink" viewBox="0 0 231 231"><defs><style>.cls-1{fill:none;}.cls-2{fill:#009830;}.cls-3{font-size:18.62px;font-family:MyriadPro-Regular, Myriad Pro;letter-spacing:-0.02em;}.cls-3,.cls-9{fill:#fff;}.cls-4{letter-spacing:0em;}.cls-5{clip-path:url(#clip-path);}.cls-6{clip-path:url(#clip-path-2);}.cls-7{fill:#006837;}.cls-8{fill:#ff3f8a;}.cls-10{fill:#ff0;}.cls-11{opacity:0.13;}</style><clipPath id="clip-path"><rect class="cls-1" x="-28" y="241" width="56.49" height="62"/></clipPath><clipPath id="clip-path-2"><rect class="cls-1" x="-717.04" y="-514" width="259.07" height="372"/></clipPath><image id="image" width="788" height="960" xlink:href="../../infinity.jpg"/></defs><title>vision</title><g id="BG"><rect class="cls-2" width="231" height="231"/><text class="cls-3" transform="translate(84.72 21.4)">V<tspan class="cls-4" x="10.09" y="0">ision</tspan></text><g class="cls-5"><use transform="translate(-426.18 17.8) scale(0.58)" xlink:href="#image"/></g><g class="cls-6"><use transform="translate(-2092.11 -1563.57) scale(2.78)" xlink:href="#image"/></g></g><g id="Layer_3" data-name="Layer 3"><polygon class="cls-2" points="119.68 113.92 115.96 103.61 120.02 97.8 125.57 97.8 129.63 103.61 125.9 113.92 119.68 113.92"/><path class="cls-7" d="M125.44,98l3.91,5.6-3.62,10h-5.87l-3.62-10,3.91-5.6h5.29m.26-.5h-5.81l-4.21,6,3.83,10.6h6.57l3.83-10.6-4.21-6Z"/><polygon class="cls-8" points="168.62 127.19 160.08 169.44 151.66 179.54 140.74 192.64 123.12 200.74 105.5 192.64 86.16 169.44 77.62 127.19 83.12 118.48 81.5 100.26 88.96 83.39 104.24 87.36 118.14 116.99 123.12 117.19 128.1 116.99 142 87.36 157.28 83.39 164.74 100.26 163.12 118.48 168.62 127.19"/><polygon class="cls-9" points="91.06 137.65 99.08 134.97 111.12 138.99 108.45 143 95.07 143 91.06 137.65"/><polygon class="cls-9" points="148.91 137.65 140.88 134.97 128.84 138.99 131.52 143 144.89 143 148.91 137.65"/><polygon class="cls-10" points="128.12 104.14 125.25 112.08 120.33 112.08 117.47 104.14 120.62 99.63 124.97 99.63 128.12 104.14"/></g><g id="shadow"><polygon class="cls-11" points="231 157.11 231 231 153.38 231 123.12 200.74 123.12 117.19 128.1 116.99 142 87.36 157.28 83.39 231 157.11"/></g></svg>