<svg id="BG" xmlns="http://www.w3.org/2000/svg" xmlns:xlink="http://www.w3.org/1999/xlink" viewBox="0 0 231 232"><defs><style>.cls-1,.cls-10,.cls-11,.cls-8{fill:none;}.cls-2{fill:#333;}.cls-3{font-size:18.62px;font-family:MyriadPro-Regular, Myriad Pro;}.cls-3,.cls-7{fill:#fff;}.cls-4{letter-spacing:-0.03em;}.cls-5{letter-spacing:0.01em;}.cls-6{fill:#999;stroke:#999;}.cls-10,.cls-11,.cls-6,.cls-8{stroke-miterlimit:10;}.cls-10,.cls-8{stroke:#333;}.cls-11,.cls-8{stroke-width:2px;}.cls-9{opacity:0.1;}.cls-10,.cls-11{stroke-linecap:round;}.cls-11{stroke:#1a1a1a;}.cls-12{clip-path:url(#clip-path);}</style><clipPath id="clip-path"><rect class="cls-1" x="353.96" y="-1032" width="259.07" height="372"/></clipPath></defs><title>war</title><rect class="cls-2" width="231" height="231"/><text class="cls-3" transform="translate(60.6 48.26)"><tspan class="cls-4">W</tspan><tspan x="15.13" y="0">ar </tspan><tspan class="cls-5" x="34.14" y="0">M</tspan><tspan x="49.22" y="0">achine</tspan></text><polygon class="cls-6" points="149.5 131.5 131.5 178.5 121.5 174.5 105.5 174.5 95.5 178.5 77.5 131.5 81.5 114.5 80 84 100 73 106 100 121 100 127 73 147 84 145.5 114.5 149.5 131.5"/><polygon class="cls-7" points="87 123 104 127 103 129 94 129 86 126 87 123"/><polygon class="cls-7" points="140 123 123 127 124 129 133 129 141 126 140 123"/><polyline class="cls-8" points="86 160 95 166 99 163 114 163"/><polyline class="cls-8" points="140 160 131 166 127 163 112 163"/><polygon class="cls-9" points="114.5 174.5 114 174.5 114 174 114.5 174.5"/><polygon class="cls-9" points="231 168 231 232 172 232 114 174 114 100 121 100 127 73 147 84 231 168"/><g class="cls-9"><polygon points="121 100 122.09 95.09 100 73 106 100 121 100"/></g><line class="cls-10" x1="106" y1="129" x2="122" y2="129"/><line class="cls-11" x1="106.5" y1="77.5" x2="122.5" y2="77.5"/><g class="cls-12"><image width="788" height="960" transform="translate(-1021.11 -2081.57) scale(2.78)" xlink:href="../../infinity.jpg"/></g></svg>