<svg id="Layer_1" data-name="Layer 1" xmlns="http://www.w3.org/2000/svg" viewBox="0 0 99.04 99.04"><defs><style>.cls-1{fill:#3c3c3c;}</style></defs><title>google</title><path class="cls-1" d="M84.53,14.5a49.51,49.51,0,1,0,14.5,35A49.33,49.33,0,0,0,84.53,14.5ZM51.63,61.64A14.94,14.94,0,0,1,42,66.16,16.88,16.88,0,0,1,24.32,55.55,16.83,16.83,0,0,1,37.21,33a16,16,0,0,1,13.55,3.7,2.41,2.41,0,0,0,.41.36L46.25,42a9,9,0,0,0-4.19-2.17,9.84,9.84,0,0,0-11,5.51,10.41,10.41,0,0,0-.66,2.28,9.8,9.8,0,0,0,8,11.68C43,60,47.19,58,48.53,54a4.48,4.48,0,0,0,.3-1.07H39.92c0-2.19,0-4.3,0-6.42,0-.14.33-.38.55-.38,1-.05,2.09,0,3.13,0,3.65,0,7.29,0,10.94-.05.85,0,1.21.16,1.32,1.07C56.51,52.59,55.49,57.52,51.63,61.64Zm24.18-14v3.26H70.05v5.76c-1.45,0-2.8,0-4.25,0V50.86c-.93,0-1.81,0-2.66,0-1.07,0-2.08-.05-3.1-.11-.08-1-.11-2.11-.17-3.15V46.53h5.9V40.69c1.34,0,2.63,0,3.89.06.11,0,.38.41.38.63,0,1.43,0,2.82,0,4.22v1h5.76Z"/></svg>