<svg xmlns="http://www.w3.org/2000/svg" viewBox="0 0 430.95 391.44"><defs><style>.cls-1{font-size:66.34px;font-family:CooperBlackStd, Cooper Std;}</style></defs><title>designer portfolio</title><g id="bg"><text class="cls-1" transform="translate(0 374.86)">Kitti Design</text></g><g id="Layer_1" data-name="Layer 1"><path d="M217.09,46.22a109.52,109.52,0,0,1,109.4,109.4v33.84a109.4,109.4,0,0,1-218.8,0V155.62a109.52,109.52,0,0,1,109.4-109.4m0-6.77h0A116.17,116.17,0,0,0,100.92,155.62v33.84A116.17,116.17,0,0,0,217.09,305.62h0A116.17,116.17,0,0,0,333.26,189.45V155.62A116.17,116.17,0,0,0,217.09,39.45Z"/><path d="M167.85,168.76a28.58,28.58,0,1,1-28.58,28.58,28.62,28.62,0,0,1,28.58-28.58m0-6.77a35.35,35.35,0,1,0,35.35,35.35A35.35,35.35,0,0,0,167.85,162Z"/><path d="M266.33,168.76a28.58,28.58,0,1,1-28.58,28.58,28.62,28.62,0,0,1,28.58-28.58m0-6.77a35.35,35.35,0,1,0,35.35,35.35A35.35,35.35,0,0,0,266.33,162Z"/><path d="M198.08,199.25l-2.38-6.34c.88-.33,21.69-8,40.4.06l-2.67,6.22C217.19,192.23,198.27,199.18,198.08,199.25Z"/><path d="M111.42,238.38C97.3,237.79,85.08,224.28,83,206.95c-2.17-17.93,5.1-32.61,18.1-36.53l2,6.48c-9.74,2.93-15.09,14.68-13.33,29.23,1.7,14.08,11.16,25,22,25.49Z"/><path d="M321,240.2l-.28-6.76c10.77-.45,19.82-11,21.52-25.05s-3.15-23.91-13.33-27l2-6.48c13.44,4.05,20.2,16.86,18.1,34.27S335.09,239.61,321,240.2Z"/><path d="M83.05,178.87c6.38-8.28,23.12-29.33,31.07-32.9a1.1,1.1,0,0,1,1.49,1.32c-1.84,6.53-8.12,28.23-10.44,28.23,0,0,60.2-16,80.81-32.29a1.11,1.11,0,0,1,1.79.6c1,4.33,3.32,15.76,1,22.33a1.09,1.09,0,0,0,1.46,1.38c12.07-5.41,58.51-26.41,78.2-38.16a1.08,1.08,0,0,1,1.55.51c2.13,4.85,10.85,23.49,19.92,25.42a1.1,1.1,0,0,0,1.32-1.21c-.48-3.91-1.69-15.15-.6-20.1a1.09,1.09,0,0,1,1.94-.4c5.34,6.94,27.87,35.55,40.55,41.18a1.1,1.1,0,0,0,1.49-1.33c-1.12-3.88-3.31-12.37-2.8-18.15a1.12,1.12,0,0,1,2.11-.43c2.12,4.11,6.21,12,9.21,18a1.12,1.12,0,0,0,2.1-.67l-3.61-23.73a1.11,1.11,0,0,1,1.21-1.28,23.4,23.4,0,0,1,7.31,2,1.09,1.09,0,0,0,1.53-.65c1.27-4.31,4.15-20.31-9.54-51.05a1.12,1.12,0,0,1,1-1.58h8.5a1.11,1.11,0,0,0,.93-1.73c-4.82-7.19-23.77-34.72-36.65-43.11a1.1,1.1,0,0,1,.15-1.91,12.93,12.93,0,0,1,9.35-.91,1.1,1.1,0,0,0,1.17-1.76c-4.43-5.22-15.69-14.81-41.32-20.5a1,1,0,0,1-.63-.41C283,23.3,273.36,9.12,269.14,5.34a1.11,1.11,0,0,0-1.81.65l-1.89,10.36a1.1,1.1,0,0,1-1.61.79c-6.68-3.56-37.66-18.89-72.9-17a1.11,1.11,0,0,0-.71,1.9,12.74,12.74,0,0,1,3.61,6.79A1.05,1.05,0,0,1,193,10c-7.6,1.72-59,17.74-79.12,33.86a1,1,0,0,0,.11,1.6c.93.58,2.53,1.68,5.26,3.76a1.06,1.06,0,0,1-.2,1.66C114,54.22,92.34,69.12,86.32,83.39a1.11,1.11,0,0,0,1.1,1.56c2.47-.23,6.78-.21,7.9,2.45a1,1,0,0,1-.09.89c-1.87,3.13-13.82,23.36-16.69,35.95a1.11,1.11,0,0,0,1.1,1.34h7.18a1.12,1.12,0,0,1,1.11,1.26L81.07,178A1.11,1.11,0,0,0,83.05,178.87Z"/></g></svg>