<svg id="Layer_1" data-name="Layer 1" xmlns="http://www.w3.org/2000/svg" viewBox="0 0 99.04 99.06"><defs><style>.cls-1{fill-rule:evenodd;}</style></defs><title>youtube</title><polygon class="cls-1" points="44.28 41.54 44.28 44.99 44.28 56.34 57.96 48.97 50.48 44.91 44.28 41.54"/><path class="cls-1" d="M84.53,14.5a49.54,49.54,0,1,0,14.5,35A49.45,49.45,0,0,0,84.53,14.5ZM74.8,48.26v3.26A83.81,83.81,0,0,1,74.3,60s-.52,3.65-2,5.26a7.12,7.12,0,0,1-5,2.25c-7.07.49-17.68.55-17.68.55s-13.16-.14-17.19-.55c-1.15-.22-3.67-.14-5.59-2.25-1.51-1.62-2-5.26-2-5.26a79.18,79.18,0,0,1-.52-8.5v-4a80.52,80.52,0,0,1,.52-8.5s.52-3.65,2-5.24a7.21,7.21,0,0,1,5.07-2.25C38.91,31,49.49,31,49.49,31h.06s10.61,0,17.68.52a7.24,7.24,0,0,1,5,2.25c1.51,1.59,2,5.24,2,5.24s.49,4.28.49,8.5Z"/></svg>