<svg xmlns="http://www.w3.org/2000/svg" viewBox="0 0 449 449"><defs><style>.cls-1{fill:#fff;}.cls-2{font-size:80.92px;font-family:Apple-Chancery, Apple Chancery;}.cls-2,.cls-3{fill:#f15a24;}</style></defs><title>logo</title><g id="bg"><rect class="cls-1" width="449" height="449"/></g><g id="Layer_1" data-name="Layer 1"><text class="cls-2" transform="translate(210.94 258.35) scale(0.56 1)">Anchor</text><circle class="cls-3" cx="159.63" cy="237.89" r="30.52"/><path class="cls-1" d="M135.29,241.15a16.86,16.86,0,0,0,2.63,1.58s2.46-12.37,4.9-15.84c2.67-3.8,7.4-6.07,11.92-7.39,4.16-1.22,5.25-3.68,5.25-3.68s1.1,2.46,5.25,3.68c4.51,1.33,9.24,3.59,11.92,7.39,2.44,3.47,4.9,15.84,4.9,15.84a16.86,16.86,0,0,0,2.63-1.58c.53-.53.53,5.78-1.58,9.46a25.72,25.72,0,0,1-7.36-5.78l3.88-1.39s-2.31-10.63-4.94-13.78S162.61,225,162.61,225v8.41h8.23c.36,0,.65.14.65.32v1.81c0,.17-.29.32-.65.32H149.12c-.36,0-.65-.14-.65-.32v-1.81c0-.17.29-.32.65-.32h8.23V225s-9.45,1.52-12.08,4.68-4.94,13.78-4.94,13.78l3.88,1.39a25.72,25.72,0,0,1-7.36,5.78C134.76,246.93,134.76,240.63,135.29,241.15Z"/></g></svg>