<svg xmlns="http://www.w3.org/2000/svg" viewBox="0 0 449 449"><defs><style>.cls-1{fill:#0071bc;}.cls-2{fill:#fff;}</style></defs><title>logo</title><g id="bg"><rect class="cls-1" width="449" height="449"/></g><g id="Layer_1" data-name="Layer 1"><rect class="cls-2" x="91.8" y="176" width="51.56" height="11.46" rx="4.53" ry="4.53"/><rect class="cls-2" x="91.8" y="216.1" width="51.56" height="11.46" rx="4.53" ry="4.53"/><rect class="cls-2" x="91.8" y="233.29" width="14.32" height="37.24" rx="4.53" ry="4.53"/><rect class="cls-2" x="151.95" y="190.32" width="11.46" height="80.2" rx="4.53" ry="4.53"/><rect class="cls-2" x="203.51" y="190.32" width="11.46" height="80.2" rx="4.53" ry="4.53"/><rect class="cls-2" x="151.95" y="176" width="63.02" height="11.46" rx="4.53" ry="4.53"/><rect class="cls-2" x="166.28" y="216.1" width="34.37" height="11.46" rx="4.53" ry="4.53"/><rect class="cls-2" x="232.16" y="176" width="54.42" height="11.46" rx="4.53" ry="4.53"/><rect class="cls-2" x="232.16" y="218.97" width="54.42" height="11.46" rx="4.53" ry="4.53"/><rect class="cls-2" x="232.16" y="259.07" width="54.42" height="11.46" rx="4.53" ry="4.53"/><rect class="cls-2" x="232.16" y="193.19" width="11.46" height="20.05" rx="4.53" ry="4.53"/><rect class="cls-2" x="275.13" y="233.29" width="11.46" height="20.05" rx="4.53" ry="4.53"/><rect class="cls-2" x="295.18" y="176" width="71.61" height="11.46" rx="4.53" ry="4.53"/><rect class="cls-2" x="323.82" y="190.32" width="14.32" height="83.07" rx="4.53" ry="4.53"/></g></svg>