<svg xmlns="http://www.w3.org/2000/svg" viewBox="0 0 449 449"><defs><style>.cls-1{fill:#fff;}.cls-2{fill:#ffce22;}.cls-3{fill:#333;}</style></defs><title>logo</title><g id="bg"><rect class="cls-1" width="449" height="449"/></g><g id="Layer_1" data-name="Layer 1"><rect class="cls-2" x="62.54" y="162" width="47.15" height="58.7" rx="6.45" ry="6.45"/><path class="cls-3" d="M96.76,172.62,79,176.78l2.67,11.39,14.85-3.48a4.58,4.58,0,0,1,3.3.2,3.27,3.27,0,0,1,1.6,2.24,3.2,3.2,0,0,1-.46,2.7,4.64,4.64,0,0,1-2.85,1.63l-14.85,3.48,3.43,14.67a6.06,6.06,0,0,1-.29,4.44,4.69,4.69,0,0,1-6.5,1.51,6.07,6.07,0,0,1-2.23-3.84l-8-34.26a7.71,7.71,0,0,1-.17-3.31,3.68,3.68,0,0,1,1.39-2.22,7.81,7.81,0,0,1,3-1.3l21.26-5a4.75,4.75,0,0,1,3.43.21,3.32,3.32,0,0,1,1.63,2.26,3.36,3.36,0,0,1-.45,2.78A4.75,4.75,0,0,1,96.76,172.62Z"/><path class="cls-3" d="M121.7,201.91V209a5.49,5.49,0,0,1-1.22,3.88,4.06,4.06,0,0,1-3.09,1.29,3.9,3.9,0,0,1-3-1.31,5.59,5.59,0,0,1-1.19-3.87V185.31q0-5.74,4.15-5.74a3.46,3.46,0,0,1,3.06,1.34,7.4,7.4,0,0,1,1,4,14.9,14.9,0,0,1,3.13-4,6.48,6.48,0,0,1,4.29-1.34,11,11,0,0,1,5.21,1.34q2.53,1.34,2.53,3.56A3.38,3.38,0,0,1,135.5,187a3.34,3.34,0,0,1-2.32,1,10.67,10.67,0,0,1-2.26-.58,10.53,10.53,0,0,0-3.17-.58,4.63,4.63,0,0,0-3.06,1,6.3,6.3,0,0,0-1.84,2.92,20.35,20.35,0,0,0-.9,4.6Q121.7,198.07,121.7,201.91Z"/><path class="cls-3" d="M167.69,199H151a11.3,11.3,0,0,0,1.17,5.12,7.83,7.83,0,0,0,7.19,4.46,10.2,10.2,0,0,0,2.79-.36,9.08,9.08,0,0,0,2.45-1.12,18.68,18.68,0,0,0,2.18-1.64q1-.87,2.59-2.37a2.79,2.79,0,0,1,1.87-.56,3.08,3.08,0,0,1,2.12.72,2.57,2.57,0,0,1,.81,2,5.54,5.54,0,0,1-.9,2.7,10.72,10.72,0,0,1-2.73,3,15.53,15.53,0,0,1-4.59,2.35,19.74,19.74,0,0,1-6.35.94q-8.2,0-12.76-4.68t-4.55-12.7a21.18,21.18,0,0,1,1.12-7,15.44,15.44,0,0,1,3.28-5.54,14.2,14.2,0,0,1,5.3-3.54,19,19,0,0,1,7-1.23,16.57,16.57,0,0,1,8.56,2.11,13.85,13.85,0,0,1,5.35,5.44,14.31,14.31,0,0,1,1.78,6.8q0,3.21-1.84,4.16A11.47,11.47,0,0,1,167.69,199ZM151,194.14h15.44q-.31-4.37-2.36-6.54a7.05,7.05,0,0,0-5.38-2.17,6.82,6.82,0,0,0-5.22,2.2A10.94,10.94,0,0,0,151,194.14Z"/><path class="cls-3" d="M209.93,199H193.27a11.3,11.3,0,0,0,1.17,5.12,7.83,7.83,0,0,0,7.19,4.46,10.2,10.2,0,0,0,2.79-.36,9.08,9.08,0,0,0,2.45-1.12,18.68,18.68,0,0,0,2.18-1.64q1-.87,2.59-2.37a2.79,2.79,0,0,1,1.87-.56,3.08,3.08,0,0,1,2.12.72,2.57,2.57,0,0,1,.81,2,5.54,5.54,0,0,1-.9,2.7,10.72,10.72,0,0,1-2.73,3,15.53,15.53,0,0,1-4.59,2.35,19.74,19.74,0,0,1-6.35.94q-8.2,0-12.76-4.68t-4.55-12.7a21.18,21.18,0,0,1,1.12-7,15.44,15.44,0,0,1,3.28-5.54,14.2,14.2,0,0,1,5.3-3.54,19,19,0,0,1,7-1.23,16.57,16.57,0,0,1,8.56,2.11,13.85,13.85,0,0,1,5.35,5.44,14.31,14.31,0,0,1,1.78,6.8q0,3.21-1.84,4.16A11.47,11.47,0,0,1,209.93,199Zm-16.66-4.83h15.44q-.31-4.37-2.36-6.54a7.05,7.05,0,0,0-5.38-2.17,6.82,6.82,0,0,0-5.22,2.2A10.94,10.94,0,0,0,193.27,194.14Z"/><path class="cls-3" d="M228.41,209V172.09a5.75,5.75,0,0,1,1.14-3.87,3.86,3.86,0,0,1,3.07-1.31,4,4,0,0,1,3.12,1.29,5.58,5.58,0,0,1,1.19,3.88V209a5.53,5.53,0,0,1-1.2,3.88,4,4,0,0,1-3.1,1.29,3.85,3.85,0,0,1-3-1.34A5.66,5.66,0,0,1,228.41,209Z"/><path class="cls-3" d="M271.52,209.4a26.34,26.34,0,0,1-6,3.6,16.71,16.71,0,0,1-6.47,1.2,12.27,12.27,0,0,1-5.76-1.29,9.47,9.47,0,0,1-3.82-3.51,9.1,9.1,0,0,1-1.34-4.8,8.6,8.6,0,0,1,2.21-6,11.07,11.07,0,0,1,6.08-3.31q.81-.19,4-.84t5.51-1.2q2.29-.55,5-1.33A8.89,8.89,0,0,0,269.6,187q-1.2-1.57-5-1.58a10.37,10.37,0,0,0-4.88.9,7.93,7.93,0,0,0-2.81,2.71,28.91,28.91,0,0,1-1.65,2.39,2.71,2.71,0,0,1-2.07.58,3.63,3.63,0,0,1-2.48-.92,3,3,0,0,1-1-2.36,7.2,7.2,0,0,1,1.59-4.37,11.38,11.38,0,0,1,5-3.49,22.35,22.35,0,0,1,8.39-1.37,23.75,23.75,0,0,1,8.83,1.33A8.21,8.21,0,0,1,278,185a18.35,18.35,0,0,1,1.33,7.61q0,3,0,5.08t0,4.65a17.12,17.12,0,0,0,.8,5,15.8,15.8,0,0,1,.8,3.35,3.14,3.14,0,0,1-1.23,2.39,4.13,4.13,0,0,1-2.79,1.08,3.77,3.77,0,0,1-2.59-1.23A18.24,18.24,0,0,1,271.52,209.4ZM271,197.07a42.8,42.8,0,0,1-5.44,1.45q-3.57.77-4.94,1.12a6.73,6.73,0,0,0-2.62,1.4,3.6,3.6,0,0,0-1.25,2.92,4.32,4.32,0,0,0,1.47,3.29,5.42,5.42,0,0,0,3.84,1.36,10,10,0,0,0,4.66-1.11,7.39,7.39,0,0,0,3.13-2.85q1.15-1.93,1.15-6.36Z"/><path class="cls-3" d="M300,184.28v1a14.91,14.91,0,0,1,4.91-4.35,13.09,13.09,0,0,1,6.13-1.39,12.24,12.24,0,0,1,6,1.47,9.32,9.32,0,0,1,4,4.15,9.87,9.87,0,0,1,1.09,3.37,35,35,0,0,1,.25,4.62V209a5.64,5.64,0,0,1-1.17,3.87,3.89,3.89,0,0,1-3,1.31,3.93,3.93,0,0,1-3.09-1.34,5.61,5.61,0,0,1-1.19-3.84V194.83a14.18,14.18,0,0,0-1.17-6.44q-1.17-2.23-4.66-2.23a6.91,6.91,0,0,0-4.15,1.36,7.8,7.8,0,0,0-2.74,3.73,26.67,26.67,0,0,0-.62,7.11V209a5.53,5.53,0,0,1-1.2,3.88,4,4,0,0,1-3.1,1.29,3.86,3.86,0,0,1-3-1.34A5.61,5.61,0,0,1,292,209V184.41a5.36,5.36,0,0,1,1.06-3.63,3.67,3.67,0,0,1,2.9-1.2,3.94,3.94,0,0,1,2,.53,3.8,3.8,0,0,1,1.45,1.59A5.61,5.61,0,0,1,300,184.28Z"/><path class="cls-3" d="M365.65,203.66a7.34,7.34,0,0,1-1,3.4,11.69,11.69,0,0,1-2.9,3.45,15,15,0,0,1-4.91,2.64,20.85,20.85,0,0,1-6.68,1q-7.89,0-12.32-4.6t-4.43-12.34a20.32,20.32,0,0,1,2-9.26,14.55,14.55,0,0,1,5.86-6.22,19.94,19.94,0,0,1,15.24-1.23,15.86,15.86,0,0,1,4.68,2.5,12,12,0,0,1,2.93,3.26,6.46,6.46,0,0,1,1,3.23,3.4,3.4,0,0,1-1.14,2.59,3.9,3.9,0,0,1-2.76,1.06,2.78,2.78,0,0,1-1.76-.55A8.63,8.63,0,0,1,358,190.8a12.92,12.92,0,0,0-3.26-3.56,8,8,0,0,0-10.4,1.76Q342,192,342,197.07a15.58,15.58,0,0,0,.59,4.41,10,10,0,0,0,1.72,3.43,7.34,7.34,0,0,0,2.71,2.15,8.24,8.24,0,0,0,3.49.73,7.87,7.87,0,0,0,4.38-1.19,10.37,10.37,0,0,0,3.23-3.62,8.33,8.33,0,0,1,1.68-2.25,3.2,3.2,0,0,1,2.22-.81,3.29,3.29,0,0,1,2.59,1.19A3.8,3.8,0,0,1,365.65,203.66Z"/><path class="cls-3" d="M401.12,199H384.47a11.3,11.3,0,0,0,1.17,5.12,7.83,7.83,0,0,0,7.19,4.46,10.2,10.2,0,0,0,2.79-.36,9.08,9.08,0,0,0,2.45-1.12,18.69,18.69,0,0,0,2.18-1.64q1-.87,2.59-2.37a2.8,2.8,0,0,1,1.87-.56,3.09,3.09,0,0,1,2.12.72,2.57,2.57,0,0,1,.81,2,5.54,5.54,0,0,1-.9,2.7,10.71,10.71,0,0,1-2.73,3,15.54,15.54,0,0,1-4.59,2.35,19.74,19.74,0,0,1-6.35.94q-8.2,0-12.76-4.68t-4.55-12.7a21.19,21.19,0,0,1,1.12-7,15.45,15.45,0,0,1,3.28-5.54,14.21,14.21,0,0,1,5.3-3.54,19,19,0,0,1,7-1.23,16.57,16.57,0,0,1,8.56,2.11,13.85,13.85,0,0,1,5.35,5.44,14.31,14.31,0,0,1,1.78,6.8q0,3.21-1.84,4.16A11.47,11.47,0,0,1,401.12,199Zm-16.66-4.83h15.44q-.31-4.37-2.35-6.54a7.05,7.05,0,0,0-5.38-2.17,6.82,6.82,0,0,0-5.22,2.2A10.94,10.94,0,0,0,384.47,194.14Z"/></g></svg>