<svg xmlns="http://www.w3.org/2000/svg" viewBox="0 0 635 635"><defs><style>.cls-1{fill:#fff;}.cls-2{font-size:61.75px;font-family:CooperBlackStd, Cooper Std;}</style></defs><title>kitti-logo</title><g id="bg"><rect class="cls-1" width="635" height="635"/></g><g id="Layer_1" data-name="Layer 1"><path d="M319.3,152.66a109.52,109.52,0,0,1,109.4,109.4V295.9a109.4,109.4,0,0,1-218.8,0V262.06a109.52,109.52,0,0,1,109.4-109.4m0-6.77h0A116.17,116.17,0,0,0,203.13,262.06V295.9A116.17,116.17,0,0,0,319.3,412.06h0A116.17,116.17,0,0,0,435.47,295.9V262.06A116.17,116.17,0,0,0,319.3,145.9Z"/><path d="M270.06,275.21a28.58,28.58,0,1,1-28.58,28.58,28.62,28.62,0,0,1,28.58-28.58m0-6.77a35.35,35.35,0,1,0,35.35,35.35,35.35,35.35,0,0,0-35.35-35.35Z"/><path d="M368.54,275.21A28.58,28.58,0,1,1,340,303.79a28.62,28.62,0,0,1,28.58-28.58m0-6.77a35.35,35.35,0,1,0,35.35,35.35,35.35,35.35,0,0,0-35.35-35.35Z"/><path d="M300.29,305.7l-2.38-6.34c.88-.33,21.69-8,40.4.06l-2.67,6.22C319.4,298.68,300.48,305.63,300.29,305.7Z"/><path d="M213.63,344.83c-14.12-.59-26.34-14.11-28.44-31.44-2.17-17.93,5.1-32.61,18.1-36.53l2,6.48c-9.74,2.93-15.09,14.68-13.33,29.23,1.7,14.08,11.16,25,22,25.49Z"/><path d="M423.2,346.65l-.28-6.76c10.77-.45,19.82-11,21.52-25.05s-3.15-23.91-13.33-27l2-6.48c13.44,4.05,20.2,16.86,18.1,34.27S437.3,346.05,423.2,346.65Z"/><path d="M185.26,285.31c6.38-8.28,23.12-29.33,31.07-32.9a1.1,1.1,0,0,1,1.49,1.32C216,260.27,209.69,282,207.37,282c0,0,60.2-16,80.81-32.29a1.11,1.11,0,0,1,1.79.6c1,4.33,3.32,15.76,1,22.33a1.09,1.09,0,0,0,1.46,1.38c12.07-5.41,58.51-26.41,78.2-38.16a1.08,1.08,0,0,1,1.55.51c2.13,4.85,10.85,23.49,19.92,25.42a1.1,1.1,0,0,0,1.32-1.21c-.48-3.91-1.69-15.15-.6-20.1a1.09,1.09,0,0,1,1.94-.4c5.34,6.94,27.87,35.55,40.55,41.18a1.1,1.1,0,0,0,1.49-1.33c-1.12-3.88-3.31-12.37-2.8-18.15a1.12,1.12,0,0,1,2.11-.43c2.12,4.11,6.21,12,9.21,18a1.12,1.12,0,0,0,2.1-.67l-3.61-23.73a1.11,1.11,0,0,1,1.21-1.28,23.4,23.4,0,0,1,7.31,2,1.09,1.09,0,0,0,1.53-.65c1.27-4.31,4.15-20.31-9.54-51.05a1.12,1.12,0,0,1,1-1.58h8.5a1.11,1.11,0,0,0,.93-1.73c-4.82-7.19-23.77-34.72-36.65-43.11a1.1,1.1,0,0,1,.15-1.91,12.93,12.93,0,0,1,9.35-.91,1.1,1.1,0,0,0,1.17-1.76c-4.43-5.22-15.69-14.81-41.32-20.5a1,1,0,0,1-.63-.41c-1.58-2.33-11.25-16.51-15.47-20.29a1.11,1.11,0,0,0-1.81.65l-1.89,10.36a1.1,1.1,0,0,1-1.61.79c-6.68-3.56-37.66-18.89-72.9-17a1.11,1.11,0,0,0-.71,1.9A12.74,12.74,0,0,1,296,115.3a1.05,1.05,0,0,1-.86,1.13c-7.6,1.72-59,17.74-79.12,33.86a1,1,0,0,0,.11,1.6c.93.58,2.53,1.68,5.26,3.76a1.06,1.06,0,0,1-.2,1.66c-5.06,3.34-26.67,18.25-32.69,32.52a1.11,1.11,0,0,0,1.1,1.56c2.47-.23,6.78-.21,7.9,2.45a1,1,0,0,1-.09.89c-1.87,3.13-13.82,23.36-16.69,35.95a1.11,1.11,0,0,0,1.1,1.34H189a1.12,1.12,0,0,1,1.11,1.26l-6.87,51.19A1.11,1.11,0,0,0,185.26,285.31Z"/><text class="cls-2" transform="translate(224.6 502.85)">KITTI</text></g></svg>