<svg xmlns="http://www.w3.org/2000/svg" viewBox="0 0 449 449"><defs><style>.cls-1{fill:#fff;}.cls-2{fill:#2dffbf;}.cls-3{fill:#fbb03b;}.cls-4{fill:#46b29d;}.cls-5{fill:#324d5c;}.cls-6{fill:#e37b40;}.cls-7{fill:#f53855;}</style></defs><title>logo</title><g id="bg"><rect class="cls-1" width="449" height="449"/></g><g id="Layer_1" data-name="Layer 1"><rect class="cls-2" x="113" y="333" width="51" height="51"/><rect class="cls-3" x="164" y="333" width="51" height="51"/><rect class="cls-3" x="215" y="333" width="51" height="51"/><rect class="cls-3" x="266" y="333" width="51" height="51"/><rect class="cls-4" x="164" y="333" width="51" height="51"/><rect class="cls-3" x="215" y="333" width="51" height="51"/><rect class="cls-3" x="266" y="333" width="51" height="51"/><rect class="cls-3" x="317" y="333" width="51" height="51"/><rect class="cls-5" x="215" y="333" width="51" height="51"/><rect class="cls-6" x="266" y="333" width="51" height="51"/><rect class="cls-7" x="317" y="333" width="51" height="51"/><path class="cls-2" d="M167.75,248.79a6.11,6.11,0,0,1-6.08-6.1v-.36L165.78,225c-7.71-8-11.78-17.46-11.78-27.29a36.7,36.7,0,0,1,5.48-19.14,51,51,0,0,1,14.62-15.26c12.63-8.87,29.38-13.76,47.14-13.76s34.51,4.89,47.14,13.76A51,51,0,0,1,283,178.54a36.12,36.12,0,0,1,0,38.27,51,51,0,0,1-14.62,15.26c-12.63,8.87-29.38,13.76-47.14,13.76a89.67,89.67,0,0,1-32-5.77l-19.49,8.42-.16,0A6.16,6.16,0,0,1,167.75,248.79Zm53.5-93.08c-16.51,0-32,4.49-43.59,12.63-11.27,7.91-17.48,18.33-17.48,29.33,0,8.25,3.51,16.24,10.16,23.12A6,6,0,0,1,172,225v.36l-4,17.11,19.25-8.31.16,0a6.14,6.14,0,0,1,4,.15,83.41,83.41,0,0,0,29.84,5.37c16.51,0,32-4.49,43.59-12.63,11.27-7.91,17.48-18.33,17.48-29.33s-6.21-21.42-17.48-29.33C253.24,160.19,237.76,155.71,221.25,155.71Z"/><path class="cls-7" d="M212.07,174.35a4.88,4.88,0,0,1-4,4c-1.51.16-2.72-1.16-2.33-3.26s2-4.09,3.61-4.34S212.3,172.26,212.07,174.35Zm-9,29.11c-.05-4.39-1-20.31,4.45-21.57,1.08-.25,2.25.29,1.95,3.77-.51,5.83-.61,11.77-.57,17.58s.2,11.49.53,17.17c.27,4.62-.53,4.54-1.94,4.47s-2.34-.64-3-4.53A108.13,108.13,0,0,1,203.05,203.46Z"/><path class="cls-7" d="M207.94,226.06l-.51,0c-2.32-.12-3.47-1.66-4.13-5.5a108.25,108.25,0,0,1-1.41-17.07h0c0-.41,0-.91,0-1.5-.26-10.32.21-20,5.38-21.22a2.54,2.54,0,0,1,2.3.5c.91.79,1.26,2.26,1.06,4.5-.43,5-.62,10.51-.57,17.48,0,6,.22,11.79.52,17.11.17,2.92-.05,4.3-.83,5.07A2.36,2.36,0,0,1,207.94,226.06Zm-3.73-22.62a106,106,0,0,0,1.37,16.71c.6,3.5,1.37,3.54,1.93,3.57a5.68,5.68,0,0,0,.59,0,8.64,8.64,0,0,0,.14-3.26c-.31-5.36-.49-11.15-.53-17.23,0-7,.14-12.66.58-17.69.19-2.11-.27-2.53-.27-2.54a.42.42,0,0,0-.25,0c-4,.93-3.69,14.45-3.58,18.89,0,.6,0,1.12,0,1.53Zm3.59-24a3.19,3.19,0,0,1-2.36-1,4.15,4.15,0,0,1-.87-3.63c.42-2.27,2.36-4.94,4.58-5.27a3.22,3.22,0,0,1,2.71.94,4.78,4.78,0,0,1,1.36,4h0a6,6,0,0,1-5,5Zm1.79-7.63h-.08c-.93.14-2.34,1.74-2.64,3.4a1.89,1.89,0,0,0,.29,1.62.88.88,0,0,0,.77.27,3.72,3.72,0,0,0,3-2.93,2.47,2.47,0,0,0-.66-2A1,1,0,0,0,209.59,171.85Z"/><path class="cls-6" d="M221.82,192.13c-.36,10.13.11,20.35-.28,30.38-.15,3.88-.6,4-2.44,4s-2.4-.2-2.89-3.86a155.72,155.72,0,0,1-1-23.74c.15-7,.56-9.56,1-11.76.79-3.73,1.53-4.11,2.89-4.15,2-.05,2.86,1,3,3.73,3.12-2.88,6.5-4.4,10-4.25a9.2,9.2,0,0,1,8.28,5.66c1.14,2.4,1.74,6,1.93,10.88.2,5.1.26,10.3.06,15.37-.15,3.94.08,10.87-3.62,11.77-1.31.32-2.56-.78-2.48-2.78.21-5.64.25-11.42.15-17.1-.08-4.51-.21-9.48-1.36-13.78-1-3.77-3-4-4.92-4C227,188.4,225,189.35,221.82,192.13Z"/><path class="cls-6" d="M219.3,227.64h-.23c-2.71-.06-3.5-1-4-4.87a154.69,154.69,0,0,1-1-23.92c.15-7.22.6-9.88,1.05-12,.82-3.82,1.75-5,4-5.07a3.53,3.53,0,0,1,3.84,2.66,14,14,0,0,1,9.16-3.18,10.38,10.38,0,0,1,9.28,6.32c1.19,2.51,1.84,6.11,2,11.34.22,5.58.24,10.78.06,15.46,0,.39,0,.81,0,1.26-.12,4.46-.28,10.58-4.47,11.6a3,3,0,0,1-2.6-.59,4.05,4.05,0,0,1-1.33-3.36c.21-5.43.25-11.17.14-17-.08-4.1-.17-9.2-1.32-13.51-.83-3.11-2.15-3.13-3.81-3.15-2.57,0-4.33.72-7.07,3.07-.16,4.79-.13,9.67-.11,14.4,0,5.09,0,10.35-.15,15.49C222.55,226.39,222.05,227.64,219.3,227.64Zm.07-43.52h-.24c-.69,0-1.11,0-1.79,3.23-.42,2-.85,4.53-1,11.55a152.44,152.44,0,0,0,1,23.56c.38,2.82.46,2.83,1.76,2.85a3.92,3.92,0,0,0,.91,0,8.09,8.09,0,0,0,.34-2.8c.2-5.08.17-10.32.15-15.39s0-10,.13-15l0-.5.37-.33c3.37-3,5.75-4,9-4,2.29,0,4.84.44,6,4.88s1.32,9.84,1.4,14.06c.11,5.92.06,11.69-.15,17.17a1.83,1.83,0,0,0,.47,1.48.63.63,0,0,0,.57.13c2.47-.6,2.6-5.9,2.7-9.4,0-.45,0-.88,0-1.28.18-4.62.15-9.76-.06-15.28-.19-4.84-.79-8.25-1.82-10.43a8.07,8.07,0,0,0-7.28-5c-3.08-.13-6.14,1.2-9.12,3.95L221,189.26l-.1-2.52C220.8,184.32,220.13,184.12,219.36,184.12Z"/><path class="cls-5" d="M267.75,203.9c-1.91,3.95-5.76,6.59-9.81,7.84-9.4,2.9-10.08-7.8-10-14.06.06-7.11,1.44-19.06,12.06-15.12a21.85,21.85,0,0,1,9,6.11c3.28,3.51,4.36,8.42,3.84,13.08-1.66,14.78-7.56,23.69-15.89,27.15-1.43.6-3.69,1.11-4.8.46-.7-.39-1.22-.7-.63-2.11a4.44,4.44,0,0,1,2.63-2.76c1.23-.32,2,1.08,5.94-.3C266.27,222,266.47,210.36,267.75,203.9Zm-.27-7.44a10,10,0,0,0-7.18-9.42c-5.9-1.88-7.18,5.36-7.19,9.59,0,3.88.66,11.43,6.35,10A10.68,10.68,0,0,0,267.48,196.46Z"/><path class="cls-5" d="M253.35,231a4,4,0,0,1-2-.46c-.67-.38-2.11-1.18-1.11-3.56a5.45,5.45,0,0,1,3.41-3.44,3.48,3.48,0,0,1,1.81.09,6,6,0,0,0,4-.36c4.22-1.49,5.33-8.7,6.18-14.65a18.7,18.7,0,0,1-7.58,4.4c-3,.92-5.46.67-7.36-.75-3.82-2.85-4.21-9.59-4.17-14.42.07-8.17,1.79-13.47,5.13-15.78,2.24-1.54,5.1-1.69,8.5-.43a23,23,0,0,1,9.46,6.43,17.51,17.51,0,0,1,4.13,14c-2.06,18.37-10.16,25.41-16.6,28.09A11.1,11.1,0,0,1,253.35,231Zm-1.12-2.65.28.16c.52.3,2.15.16,3.79-.52a19.36,19.36,0,0,0,4.88-2.94,7.12,7.12,0,0,1-.91.39,8.23,8.23,0,0,1-5.37.43,1.66,1.66,0,0,0-.67-.1c-1,.25-1.62,1.55-1.85,2.09A2.41,2.41,0,0,0,252.23,228.37Zm14.3-24.79,2.19.73c-.25,1.25-.46,2.72-.68,4.27-.6,4.2-1.29,9.06-3.15,12.56,3.44-4.67,5.68-11.18,6.59-19.33a15.21,15.21,0,0,0-3.54-12.16,20.75,20.75,0,0,0-8.55-5.82c-2.69-1-4.77-.94-6.37.16-2.64,1.82-4.06,6.62-4.12,13.88,0,2.49-.08,10.07,3.24,12.54,1.3,1,3,1.09,5.29.4A14.73,14.73,0,0,0,266.53,203.57ZM258,208.19a4.78,4.78,0,0,1-3-1c-2.62-2.07-3.17-6.77-3.16-10.35,0-2.27.36-7.78,3.52-10.09a5.54,5.54,0,0,1,5.19-.61,11.08,11.08,0,0,1,8,10.54A11.9,11.9,0,0,1,259.56,208,6.73,6.73,0,0,1,258,208.19Zm.36-20.12a2.75,2.75,0,0,0-1.67.53c-1.88,1.37-2.56,5.28-2.56,8.22,0,4.27.82,7.37,2.27,8.52a2.92,2.92,0,0,0,2.64.4,9.54,9.54,0,0,0,7.13-9.1h0a8.77,8.77,0,0,0-6.37-8.3A4.78,4.78,0,0,0,258.33,188.08Z"/><path class="cls-4" d="M176.83,214.67c.07,1.88-.72,4.09-2.8,4.15s-2.66-2.1-2.76-3.89c-.45-8.51-.35-17.25-.36-25.84,0-8.4,5.95-17,13.58-20.24,9.86-4.16,14.94,4.77,15.1,13.43.09,5.35-1.22,11.42-5.42,15.22-3.53,3.19-8.47,4.24-13,4.88-1.31.18-2.52.37-4.16.54Q176.91,208.79,176.83,214.67Zm7.31-39.42c-4.61,2-7,6-7,11,0,3.43-.38,10.13,0,10.4s4-1,6-1.41c7-1.48,10.11-5.53,10.22-12.68C193.39,177,190.08,172.71,184.13,175.24Z"/><path class="cls-2" d="M297.24,303a1.5,1.5,0,0,0,0-3,1.5,1.5,0,0,0,0,3Z"/></g></svg>