<svg xmlns="http://www.w3.org/2000/svg" xmlns:xlink="http://www.w3.org/1999/xlink" viewBox="0 0 449 449"><defs><style>.cls-1{fill:none;}.cls-2{fill:#fff;}.cls-3{fill:#fdff00;}.cls-4{fill:#fbb03b;}.cls-5{fill:#face22;}.cls-6{fill:#f26a24;}.cls-7{fill:#f46197;}.cls-8{fill:#d91f63;}.cls-9{fill:#a19900;}.cls-10{fill:#d4145a;}.cls-11{clip-path:url(#clip-path);}.cls-12{fill:#fce921;}.cls-13{fill:#fce821;}.cls-14{fill:#fbe721;}.cls-15{fill:#fbe621;}.cls-16{fill:#fbe521;}.cls-17{fill:#fbe421;}.cls-18{fill:#fbe321;}.cls-19{fill:#fbe221;}.cls-20{fill:#fbe121;}.cls-21{fill:#fbe021;}.cls-22{fill:#fbdf21;}.cls-23{fill:#fbde21;}.cls-24{fill:#fbdd21;}.cls-25{fill:#fbdc21;}.cls-26{fill:#fbdb21;}.cls-27{fill:#fbda21;}.cls-28{fill:#fad921;}.cls-29{fill:#fad821;}.cls-30{fill:#fad721;}.cls-31{fill:#fad621;}.cls-32{fill:#fad522;}.cls-33{fill:#fad422;}.cls-34{fill:#fad322;}.cls-35{fill:#fad222;}.cls-36{fill:#fad122;}.cls-37{fill:#fad022;}.cls-38{fill:#facf22;}.cls-39{fill:#facd22;}.cls-40{fill:#f9cc22;}.cls-41{fill:#f9cb22;}.cls-42{fill:#f9ca22;}.cls-43{fill:#f9c922;}.cls-44{fill:#f9c822;}.cls-45{fill:#f9c722;}.cls-46{fill:#f9c622;}.cls-47{fill:#f9c522;}.cls-48{fill:#f9c422;}.cls-49{fill:#f9c322;}.cls-50{fill:#f9c222;}.cls-51{fill:#f9c122;}.cls-52{fill:#f9c022;}.cls-53{fill:#f8bf22;}.cls-54{fill:#f8be22;}.cls-55{fill:#f8bd22;}.cls-56{fill:#f8bc22;}.cls-57{fill:#f8bb22;}.cls-58{fill:#f8ba22;}.cls-59{fill:#f8b922;}.cls-60{fill:#f8b822;}.cls-61{fill:#f8b722;}.cls-62{fill:#f8b622;}.cls-63{fill:#f8b522;}.cls-64{fill:#f8b422;}.cls-65{fill:#f8b322;}.cls-66{fill:#f8b222;}.cls-67{fill:#f7b122;}.cls-68{fill:#f7b022;}.cls-69{fill:#f7af22;}.cls-70{fill:#f7ae22;}.cls-71{fill:#f7ad22;}.cls-72{fill:#f7ac22;}.cls-73{fill:#f7ab22;}.cls-74{fill:#f7aa22;}.cls-75{fill:#f7a922;}.cls-76{fill:#f7a822;}.cls-77{fill:#f7a722;}.cls-78{fill:#f7a622;}.cls-79{fill:#f7a522;}.cls-80{fill:#f6a323;}.cls-81{fill:#f6a223;}.cls-82{fill:#f6a123;}.cls-83{fill:#f6a023;}.cls-84{fill:#f69f23;}.cls-85{fill:#f69e23;}.cls-86{fill:#f69d23;}.cls-87{fill:#f69c23;}.cls-88{fill:#f69b23;}.cls-89{fill:#f69a23;}.cls-90{fill:#f69923;}.cls-91{fill:#f69823;}.cls-92{fill:#f69723;}.cls-93{fill:#f59623;}.cls-94{fill:#f59523;}.cls-95{fill:#f59423;}.cls-96{fill:#f59323;}.cls-97{fill:#f59223;}.cls-98{fill:#f59123;}.cls-99{fill:#f59023;}.cls-100{fill:#f58f23;}.cls-101{fill:#f58e23;}.cls-102{fill:#f58d23;}.cls-103{fill:#f58c23;}.cls-104{fill:#f58b23;}.cls-105{fill:#f58a23;}.cls-106{fill:#f58923;}.cls-107{fill:#f48823;}.cls-108{fill:#f48723;}.cls-109{fill:#f48623;}.cls-110{fill:#f48523;}.cls-111{fill:#f48423;}.cls-112{fill:#f48323;}.cls-113{fill:#f48223;}.cls-114{fill:#f48123;}.cls-115{fill:#f48023;}.cls-116{fill:#f47f23;}.cls-117{fill:#f47e23;}.cls-118{fill:#f47d23;}.cls-119{fill:#f47c23;}.cls-120{fill:#f37b23;}.cls-121{fill:#f37a23;}.cls-122{fill:#f37923;}.cls-123{fill:#f37823;}.cls-124{fill:#f37723;}.cls-125{fill:#f37623;}.cls-126{fill:#f37523;}.cls-127{fill:#f37423;}.cls-128{fill:#f37323;}.cls-129{fill:#f37224;}.cls-130{fill:#f37124;}.cls-131{fill:#f37024;}.cls-132{fill:#f36f24;}.cls-133{fill:#f26e24;}.cls-134{fill:#f26d24;}.cls-135{fill:#f26c24;}.cls-136{fill:#f26b24;}.cls-137{fill:#f26924;}.cls-138{fill:#f26824;}.cls-139{fill:#f26724;}.cls-140{fill:#f26624;}.cls-141{fill:#f26524;}.cls-142{clip-path:url(#clip-path-2);}.cls-143{fill:#ec4e88;}.cls-144{fill:#ec4d87;}.cls-145{fill:#eb4c86;}.cls-146{fill:#eb4b85;}.cls-147{fill:#ea4a85;}.cls-148{fill:#ea4984;}.cls-149{fill:#ea4883;}.cls-150{fill:#e94682;}.cls-151{fill:#e94581;}.cls-152{fill:#e84481;}.cls-153{fill:#e84380;}.cls-154{fill:#e7427f;}.cls-155{fill:#e7417e;}.cls-156{fill:#e7407d;}.cls-157{fill:#e63f7d;}.cls-158{fill:#f0578f;}.cls-159{fill:#ef568e;}.cls-160{fill:#ef558d;}.cls-161{fill:#ef548d;}.cls-162{fill:#ee538c;}.cls-163{fill:#ee528b;}.cls-164{fill:#ed518a;}.cls-165{fill:#ed5089;}.cls-166{fill:#ec4f89;}.cls-167{fill:#e63e7c;}.cls-168{fill:#e53d7b;}.cls-169{fill:#e53c7a;}.cls-170{fill:#e43b79;}.cls-171{fill:#e43a79;}.cls-172{fill:#e43978;}.cls-173{fill:#e33877;}.cls-174{fill:#e33776;}.cls-175{fill:#e23675;}.cls-176{fill:#e23575;}.cls-177{fill:#e13474;}.cls-178{fill:#e13373;}.cls-179{fill:#e13272;}.cls-180{fill:#e03171;}.cls-181{fill:#e03071;}.cls-182{fill:#df2f70;}.cls-183{fill:#df2e6f;}.cls-184{fill:#df2d6e;}.cls-185{fill:#de2c6d;}.cls-186{fill:#de2b6c;}.cls-187{fill:#dd2a6c;}.cls-188{fill:#dd296b;}.cls-189{fill:#dc286a;}.cls-190{fill:#dc2769;}.cls-191{fill:#dc2668;}.cls-192{fill:#db2568;}.cls-193{fill:#db2467;}.cls-194{fill:#da2366;}.cls-195{fill:#da2265;}.cls-196{fill:#d92164;}.cls-197{fill:#ff7bac;}.cls-198{fill:#ff7aab;}.cls-199{fill:#fe79aa;}.cls-200{fill:#fe78aa;}.cls-201{fill:#fd77a9;}.cls-202{fill:#fd76a8;}.cls-203{fill:#fc75a7;}.cls-204{fill:#fc74a6;}.cls-205{fill:#fc73a6;}.cls-206{fill:#fb72a5;}.cls-207{fill:#fb71a4;}.cls-208{fill:#fa70a3;}.cls-209{fill:#fa6fa2;}.cls-210{fill:#fa6ea2;}.cls-211{fill:#f96da1;}.cls-212{fill:#f96ca0;}.cls-213{fill:#f86b9f;}.cls-214{fill:#f86a9e;}.cls-215{fill:#f7699e;}.cls-216{fill:#f7689d;}.cls-217{fill:#f7679c;}.cls-218{fill:#f6669b;}.cls-219{fill:#f6659a;}.cls-220{fill:#f5649a;}.cls-221{fill:#f56399;}.cls-222{fill:#f46298;}.cls-223{fill:#f46096;}.cls-224{fill:#f35f95;}.cls-225{fill:#f35e95;}.cls-226{fill:#f25d94;}.cls-227{fill:#f25c93;}.cls-228{fill:#f25b92;}.cls-229{fill:#f15a91;}.cls-230{fill:#f15991;}.cls-231{fill:#f05890;}.cls-232{fill:#d92064;}.cls-233{fill:#d81e62;}.cls-234{fill:#d81d61;}.cls-235{fill:#d71c60;}.cls-236{fill:#d71b60;}.cls-237{fill:#d71a5f;}.cls-238{fill:#d6195e;}.cls-239{fill:#d6185d;}.cls-240{fill:#d5175c;}.cls-241{fill:#d5165c;}.cls-242{fill:#d4155b;}.cls-243{clip-path:url(#clip-path-3);}</style><clipPath id="clip-path"><path class="cls-1" d="M332.29,198.95a19.54,19.54,0,0,1-1.88,8.14,20.79,20.79,0,0,1,1,6.32A19.68,19.68,0,0,1,322,230.3a28.65,28.65,0,0,1-15.58,4.13,29.76,29.76,0,0,1-9.45-1.44,23.29,23.29,0,0,1-10,2.28,20,20,0,0,1-11.24-3.44,31.44,31.44,0,0,1-11.17,2,25.8,25.8,0,0,1-11.71-2.71A31.66,31.66,0,0,1,240,233.87,25.24,25.24,0,0,1,223.5,228l-.55-.48-.71.6a26.17,26.17,0,0,1-16.62,6.33,19.85,19.85,0,0,1-8.45-1.82,21.48,21.48,0,0,1-8.29,1.65,21.87,21.87,0,0,1-10.05-2.38,29.87,29.87,0,0,1-5.1,4.28c-6.62,4.4-14.61,6.63-23.77,6.63s-17-2.11-23.46-6.26A26.37,26.37,0,0,1,114,213.66a21.51,21.51,0,0,1,4.61-13.44,19.52,19.52,0,0,1,5.58-4.87l-.77-1.53a22.59,22.59,0,0,1-2.21-10.65c0-9.15,4.66-16.95,13.12-22a43.33,43.33,0,0,1,22.49-5.86c7.87,0,14.67,1.84,20.2,5.45a23.1,23.1,0,0,1,11,19.15c.54-.05,1-.07,1.47-.07a16.33,16.33,0,0,1,9.14,2.69,14.49,14.49,0,0,1,5.35-1,20,20,0,0,1,14.25-5.39h.4l.33,0a19.18,19.18,0,0,1,13.34,6.31,23.8,23.8,0,0,1,9.84-2.11,21.46,21.46,0,0,1,12,3.52,23.79,23.79,0,0,1,12.5-3.52,22.57,22.57,0,0,1,6.71,1,14.54,14.54,0,0,1,9.87-5.53c.75-1.17,1.51-2.3,2.3-3.45a14.74,14.74,0,0,1,12.34-6.85h.52a14.57,14.57,0,0,1,12.16,7.65,19.53,19.53,0,0,1,2.3,6.45,23.92,23.92,0,0,1,10.63,3.44,18.29,18.29,0,0,1,8.79,15.29v.56Z"/></clipPath><clipPath id="clip-path-2"><path class="cls-1" d="M320.81,198.77v-.07a6.86,6.86,0,0,0-3.4-5.87A13.8,13.8,0,0,0,310,191a19.41,19.41,0,0,0-5.21.65,3.54,3.54,0,0,0-.52-2.3,6.43,6.43,0,0,0-3.27-2.67,13.32,13.32,0,0,0,.63-3.9,8.26,8.26,0,0,0-1-3.86A3.23,3.23,0,0,0,298,177c-1.65-.06-2.67,1.44-3,1.92-1.73,2.48-3.21,4.83-5.15,8.18a40.48,40.48,0,0,1-4.2.07c-2-.07-2.92.73-3.31,1.43s-.62,1.82.43,3.4a5.87,5.87,0,0,0,3.05,2.19c-2.4,4.48-4.81,9.46-6.22,12.91-.16.38-.32.77-.45,1.14H279a2.69,2.69,0,0,0-2,.71c-3.64,3.49-7.54,5.26-11.57,5.26-2.13,0-3.27-.58-3.93-1.29a27.56,27.56,0,0,0,10-4.24,10.12,10.12,0,0,0,4.26-8.45,7.73,7.73,0,0,0-2.71-6.16,9.74,9.74,0,0,0-6.51-2.23c-4.24,0-7.87,1.94-10.81,5.79a19.81,19.81,0,0,0-4.29,12.21A16.08,16.08,0,0,1,241,214.22c-2.13,0-3.27-.58-3.93-1.29a27.51,27.51,0,0,0,10-4.24,10.13,10.13,0,0,0,4.27-8.45,7.71,7.71,0,0,0-2.71-6.16,9.72,9.72,0,0,0-6.51-2.23c-4.23,0-7.87,1.94-10.81,5.79a21.54,21.54,0,0,0-1.44,2.13,31.12,31.12,0,0,1-4.06.86,23.92,23.92,0,0,0,.3-3.95,9.54,9.54,0,0,0-2.08-6.19,7.63,7.63,0,0,0-5.74-2.86h-.07a8.77,8.77,0,0,0-6.46,2.34,7.74,7.74,0,0,0-2.34,5.68,10.93,10.93,0,0,0,1.92,6.08,12.94,12.94,0,0,0,4,3.85c-.05.09-.09.16-.14.22l-.11.19a21.06,21.06,0,0,1-4.36,6.43c-1.61,1.59-3.15,2.39-4.6,2.39-.67,0-2,0-2-3.63a21.46,21.46,0,0,1,2.43-8.94c1.88-3.92,2.12-5.29,2.12-6.06,0-1-.41-3.17-4.25-3.17h-.25c-2.3,0-4,2.55-5.58,8.26l-1.28,2.9c-3.95,9-6.58,10.38-7.8,10.38-.51,0-1.88,0-1.88-3.95A18.89,18.89,0,0,1,191.31,200c.45-.62.82-1.15,1.13-1.61s.71-1,1.29-1.63l.1-.13.07-.14a3.29,3.29,0,0,0,.3-1.47,3.55,3.55,0,0,0-1.39-2.41,4.82,4.82,0,0,0-3.36-1.22c-1.44,0-2.78.88-4,2.61-.13.16-.38.51-1.12,1.59s-1.28,2-1.8,2.88-1.1,2-1.77,3.37a21,21,0,0,0-2.21,9.43,12.22,12.22,0,0,0,2.78,8.35,9.56,9.56,0,0,0,7.52,3.23c3.4,0,6.48-1.67,9.18-5a7.68,7.68,0,0,0,7.56,5.12,14.63,14.63,0,0,0,9.31-3.7,31.71,31.71,0,0,0,8.44-11.4l.47,0a22.37,22.37,0,0,0,3.31-.25,17.18,17.18,0,0,0-.14,2.21c0,4,1.3,7.2,3.88,9.36a13.72,13.72,0,0,0,9.11,3.18,20.61,20.61,0,0,0,10-2.61,26.63,26.63,0,0,0,3.73-2.42,9.94,9.94,0,0,0,1.72,1.86,13.76,13.76,0,0,0,9.12,3.18,20.63,20.63,0,0,0,10-2.61,26.34,26.34,0,0,0,3.95-2.6,8.84,8.84,0,0,0,8.49,6.61c3.7,0,7-1.92,9.38-4.13,2.34,2.18,5.71,3.29,10,3.29a17.44,17.44,0,0,0,9.45-2.35,8.21,8.21,0,0,0,4.08-7.19,8.37,8.37,0,0,0-1.46-5,10.44,10.44,0,0,0-2.9-2.59,4.79,4.79,0,0,0,3.07-1.6A8,8,0,0,0,320.81,198.77Zm-102.66.2a3.34,3.34,0,0,1-1-2.45,2.07,2.07,0,0,1,.37-1.25c.22-.3.35-.3.43-.3.37,0,.55.55.55,1.63A9.49,9.49,0,0,1,218.15,199Zm20,3.57c1.38-1.72,2.77-2.6,4.13-2.6s1.34.45,1.34,1c0,.8-.77,2.85-7.41,5.44A9.76,9.76,0,0,1,238.12,202.53Zm24.53,0c1.38-1.72,2.77-2.6,4.13-2.6s1.34.45,1.34,1c0,.8-.77,2.85-7.41,5.44A9.83,9.83,0,0,1,262.65,202.53Zm43.87,13.67a8.56,8.56,0,0,1-4.3-.79,2,2,0,0,1-.9-2,1.66,1.66,0,0,1,.28-.89,4.35,4.35,0,0,0,.8-2.29,2.67,2.67,0,0,0-1.3-2.42,3,3,0,0,0-2.41-1.74,3.54,3.54,0,0,0-3.41,2.34c-2.59,5.54-5.91,9-7.62,9.16a3.85,3.85,0,0,1-.41-2.05,12.4,12.4,0,0,1,1.17-4.81c2.37-5.15,6.21-11.89,9.06-16.77a21.53,21.53,0,0,1,2.9-.16,11.4,11.4,0,0,0-1,.88,7,7,0,0,0-2.19,5.12,6.8,6.8,0,0,0,1.05,4c.19.29.35.53.47.72a4.58,4.58,0,0,0,1.11,1.15l.77.6a10.71,10.71,0,0,0,1.07.69l.94.55,1.13.61,1.28.68c.34.18,1,.54,2.08,1.06s1.71.88,2.13,1.11a15.56,15.56,0,0,1,1.47,1,2,2,0,0,1,1,1.7C311.65,214.37,311.65,216.21,306.52,216.21Zm6.1-16.07-.18.2a3.47,3.47,0,0,0-.83,2.2,3.22,3.22,0,0,0,.28,1.32l-2.32-1.19c-.65-.33-1.13-.59-1.44-.76l-1.17-.64a4.86,4.86,0,0,1-.71-.43l-.58-.49-.05-.05,0-.07a1.6,1.6,0,0,1-.16-.7c0-.35.09-.78.81-1.26a6,6,0,0,1,3.32-.76c1.4,0,3.75.16,3.75,1.26A1.77,1.77,0,0,1,312.63,200.14Z"/></clipPath><clipPath id="clip-path-3"><path class="cls-1" d="M164.36,186.16a7.4,7.4,0,0,0,2.3-5.18c0-1.69-.85-3-2.67-4a15.43,15.43,0,0,0-7.66-1.73,17.68,17.68,0,0,0-8.78,2.35c-2.55,1.44-3.79,3-3.79,4.92a5.62,5.62,0,0,0,1.55,4.39,34.87,34.87,0,0,0,6.41,4.2l5.66,3.11,3,1.66,2.7,1.5c.45.26,1.23.72,2.38,1.44a22.41,22.41,0,0,1,2.35,1.61c.36.3.94.78,1.76,1.42a8.94,8.94,0,0,1,2,2c.26.43.64,1,1.13,1.69a13.55,13.55,0,0,1,2,7.81,15.27,15.27,0,0,1-7.31,13.31c-4.68,3.11-10.53,4.7-17.4,4.7s-12.67-1.5-17.26-4.44a14.87,14.87,0,0,1-7.21-13.23,10,10,0,0,1,2.15-6.34,6.93,6.93,0,0,1,5.62-2.88c2.53,0,4,1.34,4,3.59a10.63,10.63,0,0,1-.65,3.11,8.78,8.78,0,0,0-.51,2.52,7.28,7.28,0,0,0,3.38,6.5c2.42,1.61,6,2.42,10.56,2.42s8-.84,10.31-2.48a7,7,0,0,0,3.21-6,7.35,7.35,0,0,0-3.13-6.1,34.14,34.14,0,0,0-3.44-2.26c-1.12-.63-2.65-1.44-4.56-2.42s-3.28-1.72-4-2.15-1.72-1-3.09-1.82c-1.91-1.11-2.42-1.44-2.65-1.61s-.71-.49-2.08-1.36a11.65,11.65,0,0,1-2.43-1.8c-.27-.29-.79-.79-1.56-1.48a7.74,7.74,0,0,1-1.9-2.29c-.24-.52-.62-1.28-1.14-2.28a12,12,0,0,1-.93-5.38c0-5.07,2.52-9.14,7.49-12.09a32.08,32.08,0,0,1,16.64-4.25c5.6,0,10.28,1.2,13.91,3.58,3.81,2.48,5.76,5.87,5.79,10.07a14.66,14.66,0,0,1-3.79,10.32c-1.63,1.69-3.15,2.51-4.68,2.51a5,5,0,0,1-3.52-1.18,4,4,0,0,1-1.36-3A4.33,4.33,0,0,1,164.36,186.16Z"/></clipPath></defs><title>logo</title><g id="bg"><rect class="cls-2" width="449" height="449"/></g><g id="Layer_1" data-name="Layer 1"><rect class="cls-3" x="96" y="335" width="51" height="51"/><rect class="cls-4" x="147" y="335" width="51" height="51"/><rect class="cls-4" x="198" y="335" width="51" height="51"/><rect class="cls-4" x="249" y="335" width="51" height="51"/><rect class="cls-5" x="147" y="335" width="51" height="51"/><rect class="cls-4" x="198" y="335" width="51" height="51"/><rect class="cls-4" x="249" y="335" width="51" height="51"/><rect class="cls-4" x="300" y="335" width="51" height="51"/><rect class="cls-6" x="198" y="335" width="51" height="51"/><rect class="cls-7" x="249" y="335" width="51" height="51"/><rect class="cls-8" x="300" y="335" width="51" height="51"/><polygon class="cls-3" points="181.27 260.99 145.99 253.36 149.67 263.79 142.12 271.86 177.4 279.5 181.27 260.99"/><path d="M177.66,279.9l-36.19-7.83,7.82-8.36-3.81-10.8,36.2,7.83Zm-34.88-8.24,34.36,7.44,3.73-17.84-34.36-7.44,3.55,10.05Z"/><polygon class="cls-9" points="158.86 259.76 181.37 261 179.3 272.47 158.86 259.76"/><polygon class="cls-3" points="265.37 260.99 300.64 253.36 296.96 263.79 304.51 271.86 269.24 279.5 265.37 260.99"/><path d="M269,279.9l-4-19.17.33-.07,35.87-7.76-3.81,10.8,7.82,8.36Zm-3.21-18.65,3.73,17.84,34.36-7.44-7.29-7.79,3.55-10.05Z"/><polygon class="cls-9" points="287.77 259.76 265.26 261 267.33 272.48 287.77 259.76"/><path class="cls-3" d="M287.75,259.73c-42.77,16.37-86.19,16.37-129,0v23.63c42.77,16.37,86.19,16.37,129,0Q287.75,271.55,287.75,259.73Z"/><path d="M223.26,296a179.78,179.78,0,0,1-64.6-12.3l-.22-.08V259.24l.46.18c42.71,16.34,86,16.34,128.72,0l.46-.18V283.6l-.22.08A179.78,179.78,0,0,1,223.26,296Zm-64.14-12.85c42.56,16.23,85.73,16.23,128.29,0V260.22c-42.57,16.17-85.72,16.17-128.29,0Z"/><path class="cls-10" d="M174.34,272.69c-.18.67-.62.85-1.4.64A19.82,19.82,0,0,0,170,272c-2-.59-3.58.46-4.21,2.5-.69,2.23,0,4.1,2.16,4.72,2.68.78,3.29-.13,4.09.08.57.15.88.42.71,1.07-.36,1.38-3.24,1.34-5,.84-3.86-1.12-5.53-3.89-4.41-7.34,1-3,3.79-4.87,7.65-3.76C172.73,270.62,174.6,271.72,174.34,272.69Z"/><path class="cls-10" d="M183.3,283.38a5,5,0,0,1-4.33.73c-2.52-.57-5.21-2.5-4.13-6.71.84-3.28,3.23-5.49,6.74-4.69a4.62,4.62,0,0,1,3.37,2.53c.14-.68.36-1.54,1.42-1.33.46.09.87.4.71,1.59-.21,1.55-.38,2.72-.63,4-.31,1.6-.58,2.84-1,4.32-.36,1.31-.77,1.37-1.26,1.27C183.19,284.91,183.18,284.2,183.3,283.38Zm-2.08-8.54c-2.24-.51-3.47.83-4,2.91-.61,2.51.41,4.05,2.52,4.53,2.47.56,3.86-.92,4.28-3A3.46,3.46,0,0,0,181.22,274.84Z"/><path class="cls-10" d="M192.05,277.89c-.2,1.21-.85,5.22-1.33,7-.31,1.14-.5,1.23-1.26,1.1s-1-.28-.88-1.4.47-3.76.79-5.58a20.39,20.39,0,0,1,.71-3c.41-1.19.71-1.32,1.24-1.23.76.13,1.06.59,1,1.52a6.42,6.42,0,0,1,4.1-.95,3.5,3.5,0,0,1,2.92,2.3,7.53,7.53,0,0,1,.38,2.92c0,1-.11,1.71-.32,3.46-.23,1.9-.41,3.37-1.68,3.2-.74-.09-1.12-.5-1-1.13,0-.15.39-3.05.49-4.2a10.25,10.25,0,0,0-.12-3.16,1.8,1.8,0,0,0-1.71-1.39A5.74,5.74,0,0,0,192.05,277.89Z"/><path class="cls-10" d="M210.88,287.24a6,6,0,0,1-4,1.14c-2.22-.18-5.75-1.76-5.26-6.14.41-3.72,3.15-5.53,6.63-5.25a4.09,4.09,0,0,1,2.73,1c.1-1.62.29-4.29.39-5.09.13-1,.4-1.29,1.14-1.25s1,.39,1,1.3c0,1.15-.19,5.14-.2,5.19-.16,3-.5,5.87-.44,7.23,0,.6,1,1.21.93,1.94s-1.14,1.19-1.71,1.16A1.44,1.44,0,0,1,210.88,287.24Zm0-4.33q.23-3.6-2.8-3.84c-1.85-.15-3.76.72-4,3.09a3.52,3.52,0,0,0,3.46,4.06C209.49,286.38,210.68,285.4,210.84,282.91Z"/><path class="cls-10" d="M217.2,293.83c-.46,0-1.05-.32-1-.79,0-.89,1.71-3.49,2.63-5.19l.18-.33c-1.89-3.54-4-8.59-4-9.39a.8.8,0,0,1,.89-.68,1.26,1.26,0,0,1,1.17.71c1,1.84,2,4.76,3.22,7.13,1.46-2.43,3.31-5.48,4.14-6.89.42-.69.85-1,1.32-1a.72.72,0,0,1,.71.68c0,1.89-5.74,11.35-7.93,14.75C218.07,293.54,217.7,293.85,217.2,293.83Z"/><path class="cls-10" d="M241.57,278.19a.76.76,0,0,1-.74.9c-.8.08-2.12-.41-3.69-.29-1.29.1-2.2.53-2.15,1.36s1.39,1.18,3,1.42c2,.29,4.15.75,4.39,3.07.22,2.17-1.54,3.78-5.09,4-1.6.12-4.68,0-4.76-1.72a.83.83,0,0,1,.76-1c.73,0,1.47.91,3.77.75.85-.06,3-.35,2.93-1.69-.09-1.07-1.53-1.27-3.14-1.56-1.9-.34-4-.82-4.16-3s1.65-3.66,4.41-3.87C238.41,276.56,241.41,276.64,241.57,278.19Z"/><path class="cls-10" d="M246.42,279.13c0,.11.61,5.11.69,7,.06,1.27-.16,1.32-.65,1.38-1.08.13-1.24,0-1.49-1.06s-.66-4.1-1-6.82-.65-6.41-.67-7.48c0-.78,0-1.44.81-1.53.58-.07,1,.21,1.24,1.35s.48,3,.79,5.24a7.51,7.51,0,0,1,3.65-1.64,3.56,3.56,0,0,1,3.54,1.41,7.52,7.52,0,0,1,1.19,2.69c.23.92.38,1.68.67,3.41s.51,3.06-.68,3.25a1.16,1.16,0,0,1-1.44-1c0-.09-.44-2.66-.64-3.62a10.34,10.34,0,0,0-1-3,1.8,1.8,0,0,0-2-.85A7,7,0,0,0,246.42,279.13Z"/><path class="cls-10" d="M268.69,277.54c.88,3.61-1.22,6.53-4.84,7.29-3.94.83-6.54-1.5-7.08-4.52-.59-3.31,1.36-6.08,5-6.86C265.28,272.71,267.88,274.25,268.69,277.54Zm-2.35.74c-.45-2-1.8-3.27-4.16-2.77a3.51,3.51,0,0,0-2.9,4.43,3.31,3.31,0,0,0,4.25,2.87A3.48,3.48,0,0,0,266.33,278.28Z"/><path class="cls-10" d="M274.93,287.49c-.72.19-1.36-.06-1.7-1.17-.44-1.44-1.37-4.25-1.88-6.21-1.72-6.71-.13-9,3.7-10.13,3-.89,6.12,0,7.44,4,1.09,3.37-1.1,6.18-4.62,7.19a4.56,4.56,0,0,1-3.67-.41,42.73,42.73,0,0,1,1.45,4.22C276,286.08,276.19,287.15,274.93,287.49Zm-1.48-11.09c.52,1.91,1.71,3.29,4,2.62,1.75-.51,3.21-1.8,2.42-4.35s-2.76-3-4.31-2.52C273.42,272.77,272.92,274.42,273.45,276.4Z"/><g class="cls-11"><rect class="cls-12" x="114" y="155.35" width="218.29" height="0.04"/><rect class="cls-13" x="114" y="155.39" width="218.29" height="0.67"/><rect class="cls-14" x="114" y="156.06" width="218.29" height="0.67"/><rect class="cls-15" x="114" y="156.73" width="218.29" height="0.67"/><rect class="cls-16" x="114" y="157.4" width="218.29" height="0.67"/><rect class="cls-17" x="114" y="158.07" width="218.29" height="0.67"/><rect class="cls-18" x="114" y="158.74" width="218.29" height="0.67"/><rect class="cls-19" x="114" y="159.41" width="218.29" height="0.67"/><rect class="cls-20" x="114" y="160.08" width="218.29" height="0.67"/><rect class="cls-21" x="114" y="160.75" width="218.29" height="0.67"/><rect class="cls-22" x="114" y="161.42" width="218.29" height="0.67"/><rect class="cls-23" x="114" y="162.09" width="218.29" height="0.67"/><rect class="cls-24" x="114" y="162.76" width="218.29" height="0.67"/><rect class="cls-25" x="114" y="163.42" width="218.29" height="0.67"/><rect class="cls-26" x="114" y="164.09" width="218.29" height="0.67"/><rect class="cls-27" x="114" y="164.76" width="218.29" height="0.67"/><rect class="cls-28" x="114" y="165.43" width="218.29" height="0.67"/><rect class="cls-29" x="114" y="166.1" width="218.29" height="0.67"/><rect class="cls-30" x="114" y="166.77" width="218.29" height="0.67"/><rect class="cls-31" x="114" y="167.44" width="218.29" height="0.67"/><rect class="cls-32" x="114" y="168.11" width="218.29" height="0.67"/><rect class="cls-33" x="114" y="168.78" width="218.29" height="0.67"/><rect class="cls-34" x="114" y="169.45" width="218.29" height="0.67"/><rect class="cls-35" x="114" y="170.12" width="218.29" height="0.67"/><rect class="cls-36" x="114" y="170.79" width="218.29" height="0.67"/><rect class="cls-37" x="114" y="171.46" width="218.29" height="0.67"/><rect class="cls-38" x="114" y="172.13" width="218.29" height="0.67"/><rect class="cls-5" x="114" y="172.8" width="218.29" height="0.67"/><rect class="cls-39" x="114" y="173.46" width="218.29" height="0.67"/><rect class="cls-40" x="114" y="174.13" width="218.29" height="0.67"/><rect class="cls-41" x="114" y="174.8" width="218.29" height="0.67"/><rect class="cls-42" x="114" y="175.47" width="218.29" height="0.67"/><rect class="cls-43" x="114" y="176.14" width="218.29" height="0.67"/><rect class="cls-44" x="114" y="176.81" width="218.29" height="0.67"/><rect class="cls-45" x="114" y="177.48" width="218.29" height="0.67"/><rect class="cls-46" x="114" y="178.15" width="218.29" height="0.67"/><rect class="cls-47" x="114" y="178.82" width="218.29" height="0.67"/><rect class="cls-48" x="114" y="179.49" width="218.29" height="0.67"/><rect class="cls-49" x="114" y="180.16" width="218.29" height="0.67"/><rect class="cls-50" x="114" y="180.83" width="218.29" height="0.67"/><rect class="cls-51" x="114" y="181.5" width="218.29" height="0.67"/><rect class="cls-52" x="114" y="182.17" width="218.29" height="0.67"/><rect class="cls-53" x="114" y="182.83" width="218.29" height="0.67"/><rect class="cls-54" x="114" y="183.5" width="218.29" height="0.67"/><rect class="cls-55" x="114" y="184.17" width="218.29" height="0.67"/><rect class="cls-56" x="114" y="184.84" width="218.29" height="0.67"/><rect class="cls-57" x="114" y="185.51" width="218.29" height="0.67"/><rect class="cls-58" x="114" y="186.18" width="218.29" height="0.67"/><rect class="cls-59" x="114" y="186.85" width="218.29" height="0.67"/><rect class="cls-60" x="114" y="187.52" width="218.29" height="0.67"/><rect class="cls-61" x="114" y="188.19" width="218.29" height="0.67"/><rect class="cls-62" x="114" y="188.86" width="218.29" height="0.67"/><rect class="cls-63" x="114" y="189.53" width="218.29" height="0.67"/><rect class="cls-64" x="114" y="190.2" width="218.29" height="0.67"/><rect class="cls-65" x="114" y="190.87" width="218.29" height="0.67"/><rect class="cls-66" x="114" y="191.54" width="218.29" height="0.67"/><rect class="cls-67" x="114" y="192.21" width="218.29" height="0.67"/><rect class="cls-68" x="114" y="192.87" width="218.29" height="0.67"/><rect class="cls-69" x="114" y="193.54" width="218.29" height="0.67"/><rect class="cls-70" x="114" y="194.21" width="218.29" height="0.67"/><rect class="cls-71" x="114" y="194.88" width="218.29" height="0.67"/><rect class="cls-72" x="114" y="195.55" width="218.29" height="0.67"/><rect class="cls-73" x="114" y="196.22" width="218.29" height="0.67"/><rect class="cls-74" x="114" y="196.89" width="218.29" height="0.67"/><rect class="cls-75" x="114" y="197.56" width="218.29" height="0.67"/><rect class="cls-76" x="114" y="198.23" width="218.29" height="0.67"/><rect class="cls-77" x="114" y="198.9" width="218.29" height="0.67"/><rect class="cls-78" x="114" y="199.57" width="218.29" height="0.67"/><rect class="cls-79" x="114" y="200.24" width="218.29" height="0.67"/><rect class="cls-80" x="114" y="200.91" width="218.29" height="0.67"/><rect class="cls-81" x="114" y="201.58" width="218.29" height="0.67"/><rect class="cls-82" x="114" y="202.25" width="218.29" height="0.67"/><rect class="cls-83" x="114" y="202.91" width="218.29" height="0.67"/><rect class="cls-84" x="114" y="203.58" width="218.29" height="0.67"/><rect class="cls-85" x="114" y="204.25" width="218.29" height="0.67"/><rect class="cls-86" x="114" y="204.92" width="218.29" height="0.67"/><rect class="cls-87" x="114" y="205.59" width="218.29" height="0.67"/><rect class="cls-88" x="114" y="206.26" width="218.29" height="0.67"/><rect class="cls-89" x="114" y="206.93" width="218.29" height="0.67"/><rect class="cls-90" x="114" y="207.6" width="218.29" height="0.67"/><rect class="cls-91" x="114" y="208.27" width="218.29" height="0.67"/><rect class="cls-92" x="114" y="208.94" width="218.29" height="0.67"/><rect class="cls-93" x="114" y="209.61" width="218.29" height="0.67"/><rect class="cls-94" x="114" y="210.28" width="218.29" height="0.67"/><rect class="cls-95" x="114" y="210.95" width="218.29" height="0.67"/><rect class="cls-96" x="114" y="211.62" width="218.29" height="0.67"/><rect class="cls-97" x="114" y="212.29" width="218.29" height="0.67"/><rect class="cls-98" x="114" y="212.95" width="218.29" height="0.67"/><rect class="cls-99" x="114" y="213.62" width="218.29" height="0.67"/><rect class="cls-100" x="114" y="214.29" width="218.29" height="0.67"/><rect class="cls-101" x="114" y="214.96" width="218.29" height="0.67"/><rect class="cls-102" x="114" y="215.63" width="218.29" height="0.67"/><rect class="cls-103" x="114" y="216.3" width="218.29" height="0.67"/><rect class="cls-104" x="114" y="216.97" width="218.29" height="0.67"/><rect class="cls-105" x="114" y="217.64" width="218.29" height="0.67"/><rect class="cls-106" x="114" y="218.31" width="218.29" height="0.67"/><rect class="cls-107" x="114" y="218.98" width="218.29" height="0.67"/><rect class="cls-108" x="114" y="219.65" width="218.29" height="0.67"/><rect class="cls-109" x="114" y="220.32" width="218.29" height="0.67"/><rect class="cls-110" x="114" y="220.99" width="218.29" height="0.67"/><rect class="cls-111" x="114" y="221.66" width="218.29" height="0.67"/><rect class="cls-112" x="114" y="222.33" width="218.29" height="0.67"/><rect class="cls-113" x="114" y="222.99" width="218.29" height="0.67"/><rect class="cls-114" x="114" y="223.66" width="218.29" height="0.67"/><rect class="cls-115" x="114" y="224.33" width="218.29" height="0.67"/><rect class="cls-116" x="114" y="225" width="218.29" height="0.67"/><rect class="cls-117" x="114" y="225.67" width="218.29" height="0.67"/><rect class="cls-118" x="114" y="226.34" width="218.29" height="0.67"/><rect class="cls-119" x="114" y="227.01" width="218.29" height="0.67"/><rect class="cls-120" x="114" y="227.68" width="218.29" height="0.67"/><rect class="cls-121" x="114" y="228.35" width="218.29" height="0.67"/><rect class="cls-122" x="114" y="229.02" width="218.29" height="0.67"/><rect class="cls-123" x="114" y="229.69" width="218.29" height="0.67"/><rect class="cls-124" x="114" y="230.36" width="218.29" height="0.67"/><rect class="cls-125" x="114" y="231.03" width="218.29" height="0.67"/><rect class="cls-126" x="114" y="231.7" width="218.29" height="0.67"/><rect class="cls-127" x="114" y="232.36" width="218.29" height="0.67"/><rect class="cls-128" x="114" y="233.03" width="218.29" height="0.67"/><rect class="cls-129" x="114" y="233.7" width="218.29" height="0.67"/><rect class="cls-130" x="114" y="234.37" width="218.29" height="0.67"/><rect class="cls-131" x="114" y="235.04" width="218.29" height="0.67"/><rect class="cls-132" x="114" y="235.71" width="218.29" height="0.67"/><rect class="cls-133" x="114" y="236.38" width="218.29" height="0.67"/><rect class="cls-134" x="114" y="237.05" width="218.29" height="0.67"/><rect class="cls-135" x="114" y="237.72" width="218.29" height="0.67"/><rect class="cls-136" x="114" y="238.39" width="218.29" height="0.67"/><rect class="cls-6" x="114" y="239.06" width="218.29" height="0.67"/><rect class="cls-137" x="114" y="239.73" width="218.29" height="0.67"/><rect class="cls-138" x="114" y="240.4" width="218.29" height="0.67"/><rect class="cls-139" x="114" y="241.07" width="218.29" height="0.67"/><rect class="cls-140" x="114" y="241.74" width="218.29" height="0.67"/><rect class="cls-141" x="114" y="242.4" width="218.29" height="0.41"/></g><path d="M149.95,244.17c-9.34,0-17.48-2.18-24.19-6.47a27.68,27.68,0,0,1-13.11-24,22.85,22.85,0,0,1,4.9-14.28,21.17,21.17,0,0,1,4.88-4.53l-.21-.42a23.89,23.89,0,0,1-2.36-11.26c0-9.64,4.89-17.86,13.78-23.13a44.66,44.66,0,0,1,23.18-6c8.13,0,15.18,1.91,20.93,5.67a24.46,24.46,0,0,1,11.51,18.86,17.92,17.92,0,0,1,9.49,2.54,15.92,15.92,0,0,1,4.66-.87,21.42,21.42,0,0,1,14.8-5.4l.81,0a20.63,20.63,0,0,1,13.59,6,25.1,25.1,0,0,1,9.51-1.84,23.05,23.05,0,0,1,12.06,3.28A24.94,24.94,0,0,1,266.66,179a24.14,24.14,0,0,1,6.23.8,15.87,15.87,0,0,1,9.55-5.23c.58-.9,1.21-1.83,2-3a16.05,16.05,0,0,1,13.45-7.43h.58a15.9,15.9,0,0,1,13.28,8.33,20.51,20.51,0,0,1,2.26,5.89,25,25,0,0,1,10.22,3.53,19.6,19.6,0,0,1,9.43,16.4V199h0a20.9,20.9,0,0,1-1.79,8.22,22.25,22.25,0,0,1,.87,6.22,21,21,0,0,1-10,18,30,30,0,0,1-16.31,4.34,31.56,31.56,0,0,1-9.37-1.35,24.52,24.52,0,0,1-10.05,2.19,21.34,21.34,0,0,1-11.41-3.29,32.83,32.83,0,0,1-11,1.89,27.13,27.13,0,0,1-11.75-2.58A33,33,0,0,1,240,235.22a26.59,26.59,0,0,1-17.06-5.94,27.48,27.48,0,0,1-17.32,6.51,21.25,21.25,0,0,1-8.48-1.7,22.77,22.77,0,0,1-8.26,1.54,23.19,23.19,0,0,1-9.77-2.09,31.65,31.65,0,0,1-4.64,3.77C167.63,241.86,159.38,244.17,149.95,244.17Zm6.87-87.47a42,42,0,0,0-21.8,5.67c-8,4.76-12.46,12.15-12.46,20.8a21.33,21.33,0,0,0,2.07,10l.78,1.55.56,1.14-1.1.63a18.18,18.18,0,0,0-5.2,4.53,20.18,20.18,0,0,0-4.32,12.61,25.06,25.06,0,0,0,11.87,21.76c6.26,4,13.91,6,22.73,6s16.63-2.15,23-6.4a28.63,28.63,0,0,0,4.87-4.09l.7-.74.9.46a20.4,20.4,0,0,0,9.44,2.23,20.08,20.08,0,0,0,7.77-1.55l.55-.23.54.25a18.47,18.47,0,0,0,7.88,1.69,24.87,24.87,0,0,0,15.77-6l.61-.51,1-.85.88.82.5.44A23.9,23.9,0,0,0,240,232.52a30.33,30.33,0,0,0,12.28-2.6l.58-.26.57.29a24.37,24.37,0,0,0,11.11,2.57,30.14,30.14,0,0,0,10.69-2l.65-.25.58.39a18.65,18.65,0,0,0,10.48,3.21,21.94,21.94,0,0,0,9.39-2.15l.49-.23.51.17a28.6,28.6,0,0,0,9,1.38,27.32,27.32,0,0,0,14.86-3.92A18.36,18.36,0,0,0,330,213.41a19.43,19.43,0,0,0-.9-5.91L329,207l.23-.48a18.16,18.16,0,0,0,1.75-7.57v-.49a17,17,0,0,0-8.15-14.2,22.62,22.62,0,0,0-10-3.25l-1-.09-.17-1a18.08,18.08,0,0,0-2.13-6,13.26,13.26,0,0,0-11-7h-.47a13.42,13.42,0,0,0-11.22,6.26c-.92,1.33-1.62,2.38-2.28,3.41l-.34.53-.63.08a13.19,13.19,0,0,0-9,5l-.57.75-.9-.28a21.23,21.23,0,0,0-6.31-.93,22.31,22.31,0,0,0-11.8,3.32l-.74.45-.72-.48a20.23,20.23,0,0,0-11.28-3.29,22.42,22.42,0,0,0-9.29,2l-.9.41-.66-.73a17.92,17.92,0,0,0-12.41-5.87l-.65,0a18.69,18.69,0,0,0-13.32,5l-.39.37H204a13.18,13.18,0,0,0-4.86.93l-.66.27-.6-.4a14.88,14.88,0,0,0-8.39-2.47c-.44,0-.89,0-1.34.07l-1.45.15,0-1.46a21.8,21.8,0,0,0-10.36-18.05C171,158.46,164.42,156.7,156.82,156.7Z"/><g class="cls-142"><rect class="cls-143" x="305.42" y="197.48" width="7.88" height="0.42"/><rect class="cls-144" x="305.42" y="197.91" width="7.88" height="0.45"/><rect class="cls-145" x="305.42" y="198.36" width="7.88" height="0.45"/><rect class="cls-146" x="305.42" y="198.81" width="7.88" height="0.45"/><rect class="cls-147" x="305.42" y="199.27" width="7.88" height="0.45"/><rect class="cls-148" x="305.42" y="199.72" width="7.88" height="0.45"/><rect class="cls-149" x="305.42" y="200.18" width="7.88" height="0.45"/><rect class="cls-150" x="305.42" y="200.63" width="7.88" height="0.45"/><rect class="cls-151" x="305.42" y="201.08" width="7.88" height="0.45"/><rect class="cls-152" x="305.42" y="201.54" width="7.88" height="0.45"/><rect class="cls-153" x="305.42" y="201.99" width="7.88" height="0.45"/><rect class="cls-154" x="305.42" y="202.45" width="7.88" height="0.45"/><rect class="cls-155" x="305.42" y="202.9" width="7.88" height="0.45"/><rect class="cls-156" x="305.42" y="203.35" width="7.88" height="0.45"/><rect class="cls-157" x="305.42" y="203.81" width="7.88" height="0.04"/><rect class="cls-158" x="287.24" y="193.8" width="24.42" height="0.02"/><rect class="cls-159" x="287.24" y="193.82" width="24.42" height="0.45"/><rect class="cls-160" x="287.24" y="194.27" width="24.42" height="0.45"/><rect class="cls-161" x="287.24" y="194.73" width="24.42" height="0.45"/><rect class="cls-162" x="287.24" y="195.18" width="24.42" height="0.45"/><rect class="cls-163" x="287.24" y="195.63" width="24.42" height="0.45"/><rect class="cls-164" x="287.24" y="196.09" width="24.42" height="0.45"/><rect class="cls-165" x="287.24" y="196.54" width="24.42" height="0.45"/><rect class="cls-166" x="287.24" y="197" width="24.42" height="0.45"/><rect class="cls-143" x="287.24" y="197.45" width="24.42" height="0.45"/><rect class="cls-144" x="287.24" y="197.91" width="24.42" height="0.45"/><rect class="cls-145" x="287.24" y="198.36" width="24.42" height="0.45"/><rect class="cls-146" x="287.24" y="198.81" width="24.42" height="0.45"/><rect class="cls-147" x="287.24" y="199.27" width="24.42" height="0.45"/><rect class="cls-148" x="287.24" y="199.72" width="24.42" height="0.45"/><rect class="cls-149" x="287.24" y="200.18" width="24.42" height="0.45"/><rect class="cls-150" x="287.24" y="200.63" width="24.42" height="0.45"/><rect class="cls-151" x="287.24" y="201.08" width="24.42" height="0.45"/><rect class="cls-152" x="287.24" y="201.54" width="24.42" height="0.45"/><rect class="cls-153" x="287.24" y="201.99" width="24.42" height="0.45"/><rect class="cls-154" x="287.24" y="202.45" width="24.42" height="0.45"/><rect class="cls-155" x="287.24" y="202.9" width="24.42" height="0.45"/><rect class="cls-156" x="287.24" y="203.35" width="24.42" height="0.45"/><rect class="cls-157" x="287.24" y="203.81" width="24.42" height="0.45"/><rect class="cls-167" x="287.24" y="204.26" width="24.42" height="0.45"/><rect class="cls-168" x="287.24" y="204.72" width="24.42" height="0.45"/><rect class="cls-169" x="287.24" y="205.17" width="24.42" height="0.45"/><rect class="cls-170" x="287.24" y="205.62" width="24.42" height="0.45"/><rect class="cls-171" x="287.24" y="206.08" width="24.42" height="0.45"/><rect class="cls-172" x="287.24" y="206.53" width="24.42" height="0.45"/><rect class="cls-173" x="287.24" y="206.99" width="24.42" height="0.45"/><rect class="cls-174" x="287.24" y="207.44" width="24.42" height="0.45"/><rect class="cls-175" x="287.24" y="207.9" width="24.42" height="0.45"/><rect class="cls-176" x="287.24" y="208.35" width="24.42" height="0.45"/><rect class="cls-177" x="287.24" y="208.8" width="24.42" height="0.45"/><rect class="cls-178" x="287.24" y="209.26" width="24.42" height="0.45"/><rect class="cls-179" x="287.24" y="209.71" width="24.42" height="0.45"/><rect class="cls-180" x="287.24" y="210.17" width="24.42" height="0.45"/><rect class="cls-181" x="287.24" y="210.62" width="24.42" height="0.45"/><rect class="cls-182" x="287.24" y="211.07" width="24.42" height="0.45"/><rect class="cls-183" x="287.24" y="211.53" width="24.42" height="0.45"/><rect class="cls-184" x="287.24" y="211.98" width="24.42" height="0.45"/><rect class="cls-185" x="287.24" y="212.44" width="24.42" height="0.45"/><rect class="cls-186" x="287.24" y="212.89" width="24.42" height="0.45"/><rect class="cls-187" x="287.24" y="213.34" width="24.42" height="0.45"/><rect class="cls-188" x="287.24" y="213.8" width="24.42" height="0.45"/><rect class="cls-189" x="287.24" y="214.25" width="24.42" height="0.45"/><rect class="cls-190" x="287.24" y="214.71" width="24.42" height="0.45"/><rect class="cls-191" x="287.24" y="215.16" width="24.42" height="0.45"/><rect class="cls-192" x="287.24" y="215.62" width="24.42" height="0.45"/><rect class="cls-193" x="287.24" y="216.07" width="24.42" height="0.45"/><rect class="cls-194" x="287.24" y="216.52" width="24.42" height="0.45"/><rect class="cls-195" x="287.24" y="216.98" width="24.42" height="0.45"/><rect class="cls-196" x="287.24" y="217.43" width="24.42" height="0.18"/><rect class="cls-148" x="260.71" y="199.93" width="7.41" height="0.24"/><rect class="cls-149" x="260.71" y="200.18" width="7.41" height="0.45"/><rect class="cls-150" x="260.71" y="200.63" width="7.41" height="0.45"/><rect class="cls-151" x="260.71" y="201.08" width="7.41" height="0.45"/><rect class="cls-152" x="260.71" y="201.54" width="7.41" height="0.45"/><rect class="cls-153" x="260.71" y="201.99" width="7.41" height="0.45"/><rect class="cls-154" x="260.71" y="202.45" width="7.41" height="0.45"/><rect class="cls-155" x="260.71" y="202.9" width="7.41" height="0.45"/><rect class="cls-156" x="260.71" y="203.35" width="7.41" height="0.45"/><rect class="cls-157" x="260.71" y="203.81" width="7.41" height="0.45"/><rect class="cls-167" x="260.71" y="204.26" width="7.41" height="0.45"/><rect class="cls-168" x="260.71" y="204.72" width="7.41" height="0.45"/><rect class="cls-169" x="260.71" y="205.17" width="7.41" height="0.45"/><rect class="cls-170" x="260.71" y="205.62" width="7.41" height="0.45"/><rect class="cls-171" x="260.71" y="206.08" width="7.41" height="0.26"/><rect class="cls-148" x="236.17" y="199.93" width="7.41" height="0.24"/><rect class="cls-149" x="236.17" y="200.18" width="7.41" height="0.45"/><rect class="cls-150" x="236.17" y="200.63" width="7.41" height="0.45"/><rect class="cls-151" x="236.17" y="201.08" width="7.41" height="0.45"/><rect class="cls-152" x="236.17" y="201.54" width="7.41" height="0.45"/><rect class="cls-153" x="236.17" y="201.99" width="7.41" height="0.45"/><rect class="cls-154" x="236.17" y="202.45" width="7.41" height="0.45"/><rect class="cls-155" x="236.17" y="202.9" width="7.41" height="0.45"/><rect class="cls-156" x="236.17" y="203.35" width="7.41" height="0.45"/><rect class="cls-157" x="236.17" y="203.81" width="7.41" height="0.45"/><rect class="cls-167" x="236.17" y="204.26" width="7.41" height="0.45"/><rect class="cls-168" x="236.17" y="204.72" width="7.41" height="0.45"/><rect class="cls-169" x="236.17" y="205.17" width="7.41" height="0.45"/><rect class="cls-170" x="236.17" y="205.62" width="7.41" height="0.45"/><rect class="cls-171" x="236.17" y="206.08" width="7.41" height="0.26"/><rect class="cls-161" x="217.16" y="194.96" width="1.36" height="0.22"/><rect class="cls-162" x="217.16" y="195.18" width="1.36" height="0.45"/><rect class="cls-163" x="217.16" y="195.63" width="1.36" height="0.45"/><rect class="cls-164" x="217.16" y="196.09" width="1.36" height="0.45"/><rect class="cls-165" x="217.16" y="196.54" width="1.36" height="0.45"/><rect class="cls-166" x="217.16" y="197" width="1.36" height="0.45"/><rect class="cls-143" x="217.16" y="197.45" width="1.36" height="0.45"/><rect class="cls-144" x="217.16" y="197.91" width="1.36" height="0.45"/><rect class="cls-145" x="217.16" y="198.36" width="1.36" height="0.45"/><rect class="cls-146" x="217.16" y="198.81" width="1.36" height="0.16"/><rect class="cls-197" x="178.58" y="176.96" width="142.22" height="0.06"/><rect class="cls-197" x="178.58" y="177.02" width="142.22" height="0.45"/><rect class="cls-198" x="178.58" y="177.47" width="142.22" height="0.45"/><rect class="cls-199" x="178.58" y="177.92" width="142.22" height="0.45"/><rect class="cls-200" x="178.58" y="178.38" width="142.22" height="0.45"/><rect class="cls-201" x="178.58" y="178.83" width="142.22" height="0.45"/><rect class="cls-202" x="178.58" y="179.29" width="142.22" height="0.45"/><rect class="cls-203" x="178.58" y="179.74" width="142.22" height="0.45"/><rect class="cls-204" x="178.58" y="180.19" width="142.22" height="0.45"/><rect class="cls-205" x="178.58" y="180.65" width="142.22" height="0.45"/><rect class="cls-206" x="178.58" y="181.1" width="142.22" height="0.45"/><rect class="cls-207" x="178.58" y="181.56" width="142.22" height="0.45"/><rect class="cls-208" x="178.58" y="182.01" width="142.22" height="0.45"/><rect class="cls-209" x="178.58" y="182.47" width="142.22" height="0.45"/><rect class="cls-210" x="178.58" y="182.92" width="142.22" height="0.45"/><rect class="cls-211" x="178.58" y="183.37" width="142.22" height="0.45"/><rect class="cls-212" x="178.58" y="183.83" width="142.22" height="0.45"/><rect class="cls-213" x="178.58" y="184.28" width="142.22" height="0.45"/><rect class="cls-214" x="178.58" y="184.74" width="142.22" height="0.45"/><rect class="cls-215" x="178.58" y="185.19" width="142.22" height="0.45"/><rect class="cls-216" x="178.58" y="185.64" width="142.22" height="0.45"/><rect class="cls-217" x="178.58" y="186.1" width="142.22" height="0.45"/><rect class="cls-218" x="178.58" y="186.55" width="142.22" height="0.45"/><rect class="cls-219" x="178.58" y="187.01" width="142.22" height="0.45"/><rect class="cls-220" x="178.58" y="187.46" width="142.22" height="0.45"/><rect class="cls-221" x="178.58" y="187.91" width="142.22" height="0.45"/><rect class="cls-222" x="178.58" y="188.37" width="142.22" height="0.45"/><rect class="cls-7" x="178.58" y="188.82" width="142.22" height="0.45"/><rect class="cls-223" x="178.58" y="189.28" width="142.22" height="0.45"/><rect class="cls-224" x="178.58" y="189.73" width="142.22" height="0.45"/><rect class="cls-225" x="178.58" y="190.19" width="142.22" height="0.45"/><rect class="cls-226" x="178.58" y="190.64" width="142.22" height="0.45"/><rect class="cls-227" x="178.58" y="191.09" width="142.22" height="0.45"/><rect class="cls-228" x="178.58" y="191.55" width="142.22" height="0.45"/><rect class="cls-229" x="178.58" y="192" width="142.22" height="0.45"/><rect class="cls-230" x="178.58" y="192.46" width="142.22" height="0.45"/><rect class="cls-231" x="178.58" y="192.91" width="142.22" height="0.45"/><rect class="cls-158" x="178.58" y="193.36" width="142.22" height="0.45"/><rect class="cls-159" x="178.58" y="193.82" width="142.22" height="0.45"/><rect class="cls-160" x="178.58" y="194.27" width="142.22" height="0.45"/><rect class="cls-161" x="178.58" y="194.73" width="142.22" height="0.45"/><rect class="cls-162" x="178.58" y="195.18" width="142.22" height="0.45"/><rect class="cls-163" x="178.58" y="195.63" width="142.22" height="0.45"/><rect class="cls-164" x="178.58" y="196.09" width="142.22" height="0.45"/><rect class="cls-165" x="178.58" y="196.54" width="142.22" height="0.45"/><rect class="cls-166" x="178.58" y="197" width="142.22" height="0.45"/><rect class="cls-143" x="178.58" y="197.45" width="142.22" height="0.45"/><rect class="cls-144" x="178.58" y="197.91" width="142.22" height="0.45"/><rect class="cls-145" x="178.58" y="198.36" width="142.22" height="0.45"/><rect class="cls-146" x="178.58" y="198.81" width="142.22" height="0.45"/><rect class="cls-147" x="178.58" y="199.27" width="142.22" height="0.45"/><rect class="cls-148" x="178.58" y="199.72" width="142.22" height="0.45"/><rect class="cls-149" x="178.58" y="200.18" width="142.22" height="0.45"/><rect class="cls-150" x="178.58" y="200.63" width="142.22" height="0.45"/><rect class="cls-151" x="178.58" y="201.08" width="142.22" height="0.45"/><rect class="cls-152" x="178.58" y="201.54" width="142.22" height="0.45"/><rect class="cls-153" x="178.58" y="201.99" width="142.22" height="0.45"/><rect class="cls-154" x="178.58" y="202.45" width="142.22" height="0.45"/><rect class="cls-155" x="178.58" y="202.9" width="142.22" height="0.45"/><rect class="cls-156" x="178.58" y="203.35" width="142.22" height="0.45"/><rect class="cls-157" x="178.58" y="203.81" width="142.22" height="0.45"/><rect class="cls-167" x="178.58" y="204.26" width="142.22" height="0.45"/><rect class="cls-168" x="178.58" y="204.72" width="142.22" height="0.45"/><rect class="cls-169" x="178.58" y="205.17" width="142.22" height="0.45"/><rect class="cls-170" x="178.58" y="205.62" width="142.22" height="0.45"/><rect class="cls-171" x="178.58" y="206.08" width="142.22" height="0.45"/><rect class="cls-172" x="178.58" y="206.53" width="142.22" height="0.45"/><rect class="cls-173" x="178.58" y="206.99" width="142.22" height="0.45"/><rect class="cls-174" x="178.58" y="207.44" width="142.22" height="0.45"/><rect class="cls-175" x="178.58" y="207.9" width="142.22" height="0.45"/><rect class="cls-176" x="178.58" y="208.35" width="142.22" height="0.45"/><rect class="cls-177" x="178.58" y="208.8" width="142.22" height="0.45"/><rect class="cls-178" x="178.58" y="209.26" width="142.22" height="0.45"/><rect class="cls-179" x="178.58" y="209.71" width="142.22" height="0.45"/><rect class="cls-180" x="178.58" y="210.17" width="142.22" height="0.45"/><rect class="cls-181" x="178.58" y="210.62" width="142.22" height="0.45"/><rect class="cls-182" x="178.58" y="211.07" width="142.22" height="0.45"/><rect class="cls-183" x="178.58" y="211.53" width="142.22" height="0.45"/><rect class="cls-184" x="178.58" y="211.98" width="142.22" height="0.45"/><rect class="cls-185" x="178.58" y="212.44" width="142.22" height="0.45"/><rect class="cls-186" x="178.58" y="212.89" width="142.22" height="0.45"/><rect class="cls-187" x="178.58" y="213.34" width="142.22" height="0.45"/><rect class="cls-188" x="178.58" y="213.8" width="142.22" height="0.45"/><rect class="cls-189" x="178.58" y="214.25" width="142.22" height="0.45"/><rect class="cls-190" x="178.58" y="214.71" width="142.22" height="0.45"/><rect class="cls-191" x="178.58" y="215.16" width="142.22" height="0.45"/><rect class="cls-192" x="178.58" y="215.62" width="142.22" height="0.45"/><rect class="cls-193" x="178.58" y="216.07" width="142.22" height="0.45"/><rect class="cls-194" x="178.58" y="216.52" width="142.22" height="0.45"/><rect class="cls-195" x="178.58" y="216.98" width="142.22" height="0.45"/><rect class="cls-196" x="178.58" y="217.43" width="142.22" height="0.45"/><rect class="cls-232" x="178.58" y="217.89" width="142.22" height="0.45"/><rect class="cls-8" x="178.58" y="218.34" width="142.22" height="0.45"/><rect class="cls-233" x="178.58" y="218.79" width="142.22" height="0.45"/><rect class="cls-234" x="178.58" y="219.25" width="142.22" height="0.45"/><rect class="cls-235" x="178.58" y="219.7" width="142.22" height="0.45"/><rect class="cls-236" x="178.58" y="220.16" width="142.22" height="0.45"/><rect class="cls-237" x="178.58" y="220.61" width="142.22" height="0.45"/><rect class="cls-238" x="178.58" y="221.06" width="142.22" height="0.45"/><rect class="cls-239" x="178.58" y="221.52" width="142.22" height="0.45"/><rect class="cls-240" x="178.58" y="221.97" width="142.22" height="0.45"/><rect class="cls-241" x="178.58" y="222.43" width="142.22" height="0.45"/><rect class="cls-242" x="178.58" y="222.88" width="142.22" height="0.45"/><polygon class="cls-10" points="320.81 223.79 298.01 223.79 178.59 223.79 178.59 223.34 320.81 223.34 320.81 223.79"/><polygon class="cls-10" points="298.01 223.79 320.81 223.79 320.81 223.79 298.01 223.79"/></g><g class="cls-243"><rect class="cls-199" x="125.48" y="166.83" width="51.07" height="0.39"/><rect class="cls-200" x="125.48" y="167.22" width="51.07" height="0.67"/><rect class="cls-201" x="125.48" y="167.89" width="51.07" height="0.67"/><rect class="cls-202" x="125.48" y="168.57" width="51.07" height="0.67"/><rect class="cls-203" x="125.48" y="169.24" width="51.07" height="0.67"/><rect class="cls-204" x="125.48" y="169.91" width="51.07" height="0.67"/><rect class="cls-205" x="125.48" y="170.58" width="51.07" height="0.67"/><rect class="cls-206" x="125.48" y="171.26" width="51.07" height="0.67"/><rect class="cls-207" x="125.48" y="171.93" width="51.07" height="0.67"/><rect class="cls-208" x="125.48" y="172.6" width="51.07" height="0.67"/><rect class="cls-209" x="125.48" y="173.27" width="51.07" height="0.67"/><rect class="cls-210" x="125.48" y="173.95" width="51.07" height="0.67"/><rect class="cls-211" x="125.48" y="174.62" width="51.07" height="0.67"/><rect class="cls-212" x="125.48" y="175.29" width="51.07" height="0.67"/><rect class="cls-213" x="125.48" y="175.97" width="51.07" height="0.67"/><rect class="cls-214" x="125.48" y="176.64" width="51.07" height="0.67"/><rect class="cls-215" x="125.48" y="177.31" width="51.07" height="0.67"/><rect class="cls-216" x="125.48" y="177.98" width="51.07" height="0.67"/><rect class="cls-217" x="125.48" y="178.66" width="51.07" height="0.67"/><rect class="cls-218" x="125.48" y="179.33" width="51.07" height="0.67"/><rect class="cls-219" x="125.48" y="180" width="51.07" height="0.67"/><rect class="cls-220" x="125.48" y="180.67" width="51.07" height="0.67"/><rect class="cls-221" x="125.48" y="181.35" width="51.07" height="0.67"/><rect class="cls-222" x="125.48" y="182.02" width="51.07" height="0.67"/><rect class="cls-7" x="125.48" y="182.69" width="51.07" height="0.67"/><rect class="cls-223" x="125.48" y="183.36" width="51.07" height="0.67"/><rect class="cls-224" x="125.48" y="184.04" width="51.07" height="0.67"/><rect class="cls-225" x="125.48" y="184.71" width="51.07" height="0.67"/><rect class="cls-226" x="125.48" y="185.38" width="51.07" height="0.67"/><rect class="cls-227" x="125.48" y="186.06" width="51.07" height="0.67"/><rect class="cls-228" x="125.48" y="186.73" width="51.07" height="0.67"/><rect class="cls-229" x="125.48" y="187.4" width="51.07" height="0.67"/><rect class="cls-230" x="125.48" y="188.07" width="51.07" height="0.67"/><rect class="cls-231" x="125.48" y="188.75" width="51.07" height="0.67"/><rect class="cls-158" x="125.48" y="189.42" width="51.07" height="0.67"/><rect class="cls-159" x="125.48" y="190.09" width="51.07" height="0.67"/><rect class="cls-160" x="125.48" y="190.76" width="51.07" height="0.67"/><rect class="cls-161" x="125.48" y="191.44" width="51.07" height="0.67"/><rect class="cls-162" x="125.48" y="192.11" width="51.07" height="0.67"/><rect class="cls-163" x="125.48" y="192.78" width="51.07" height="0.67"/><rect class="cls-164" x="125.48" y="193.45" width="51.07" height="0.67"/><rect class="cls-165" x="125.48" y="194.13" width="51.07" height="0.67"/><rect class="cls-166" x="125.48" y="194.8" width="51.07" height="0.67"/><rect class="cls-143" x="125.48" y="195.47" width="51.07" height="0.67"/><rect class="cls-144" x="125.48" y="196.15" width="51.07" height="0.67"/><rect class="cls-145" x="125.48" y="196.82" width="51.07" height="0.67"/><rect class="cls-146" x="125.48" y="197.49" width="51.07" height="0.67"/><rect class="cls-147" x="125.48" y="198.16" width="51.07" height="0.67"/><rect class="cls-148" x="125.48" y="198.84" width="51.07" height="0.67"/><rect class="cls-149" x="125.48" y="199.51" width="51.07" height="0.67"/><rect class="cls-150" x="125.48" y="200.18" width="51.07" height="0.67"/><rect class="cls-151" x="125.48" y="200.85" width="51.07" height="0.67"/><rect class="cls-152" x="125.48" y="201.53" width="51.07" height="0.67"/><rect class="cls-153" x="125.48" y="202.2" width="51.07" height="0.67"/><rect class="cls-154" x="125.48" y="202.87" width="51.07" height="0.67"/><rect class="cls-155" x="125.48" y="203.54" width="51.07" height="0.67"/><rect class="cls-156" x="125.48" y="204.22" width="51.07" height="0.67"/><rect class="cls-157" x="125.48" y="204.89" width="51.07" height="0.67"/><rect class="cls-167" x="125.48" y="205.56" width="51.07" height="0.67"/><rect class="cls-168" x="125.48" y="206.24" width="51.07" height="0.67"/><rect class="cls-169" x="125.48" y="206.91" width="51.07" height="0.67"/><rect class="cls-170" x="125.48" y="207.58" width="51.07" height="0.67"/><rect class="cls-171" x="125.48" y="208.25" width="51.07" height="0.67"/><rect class="cls-172" x="125.48" y="208.93" width="51.07" height="0.67"/><rect class="cls-173" x="125.48" y="209.6" width="51.07" height="0.67"/><rect class="cls-174" x="125.48" y="210.27" width="51.07" height="0.67"/><rect class="cls-175" x="125.48" y="210.94" width="51.07" height="0.67"/><rect class="cls-176" x="125.48" y="211.62" width="51.07" height="0.67"/><rect class="cls-177" x="125.48" y="212.29" width="51.07" height="0.67"/><rect class="cls-178" x="125.48" y="212.96" width="51.07" height="0.67"/><rect class="cls-179" x="125.48" y="213.63" width="51.07" height="0.67"/><rect class="cls-180" x="125.48" y="214.31" width="51.07" height="0.67"/><rect class="cls-181" x="125.48" y="214.98" width="51.07" height="0.67"/><rect class="cls-182" x="125.48" y="215.65" width="51.07" height="0.67"/><rect class="cls-183" x="125.48" y="216.33" width="51.07" height="0.67"/><rect class="cls-184" x="125.48" y="217" width="51.07" height="0.67"/><rect class="cls-185" x="125.48" y="217.67" width="51.07" height="0.67"/><rect class="cls-186" x="125.48" y="218.34" width="51.07" height="0.67"/><rect class="cls-187" x="125.48" y="219.02" width="51.07" height="0.67"/><rect class="cls-188" x="125.48" y="219.69" width="51.07" height="0.67"/><rect class="cls-189" x="125.48" y="220.36" width="51.07" height="0.67"/><rect class="cls-190" x="125.48" y="221.03" width="51.07" height="0.67"/><rect class="cls-191" x="125.48" y="221.71" width="51.07" height="0.67"/><rect class="cls-192" x="125.48" y="222.38" width="51.07" height="0.67"/><rect class="cls-193" x="125.48" y="223.05" width="51.07" height="0.67"/><rect class="cls-194" x="125.48" y="223.73" width="51.07" height="0.67"/><rect class="cls-195" x="125.48" y="224.4" width="51.07" height="0.67"/><rect class="cls-196" x="125.48" y="225.07" width="51.07" height="0.67"/><rect class="cls-232" x="125.48" y="225.74" width="51.07" height="0.67"/><rect class="cls-8" x="125.48" y="226.42" width="51.07" height="0.67"/><rect class="cls-233" x="125.48" y="227.09" width="51.07" height="0.67"/><rect class="cls-234" x="125.48" y="227.76" width="51.07" height="0.67"/><rect class="cls-235" x="125.48" y="228.43" width="51.07" height="0.67"/><rect class="cls-236" x="125.48" y="229.11" width="51.07" height="0.67"/><rect class="cls-237" x="125.48" y="229.78" width="51.07" height="0.67"/><rect class="cls-238" x="125.48" y="230.45" width="51.07" height="0.67"/><rect class="cls-239" x="125.48" y="231.12" width="51.07" height="0.21"/></g><path class="cls-2" d="M137.17,184.47a1.35,1.35,0,0,1-1.32-1.07,8.39,8.39,0,0,1,1.6-6.17c2.7-3.88,8.22-6.43,16.41-7.6a1.35,1.35,0,1,1,.38,2.67c-9.24,1.32-13,4.25-14.58,6.48a5.77,5.77,0,0,0-1.17,4.06,1.35,1.35,0,0,1-1.32,1.63Z"/><path class="cls-2" d="M232.71,200a1,1,0,0,1-.82-1.6,14.82,14.82,0,0,1,9.48-5.82,1,1,0,0,1,.25,2,13,13,0,0,0-8.08,5A1,1,0,0,1,232.71,200Z"/><path class="cls-2" d="M257.7,200a1,1,0,0,1-.82-1.6,14.82,14.82,0,0,1,9.48-5.82,1,1,0,0,1,.25,2,13,13,0,0,0-8.08,5A1,1,0,0,1,257.7,200Z"/><path class="cls-2" d="M299.22,200.34a1,1,0,0,1-.95-1.37c2.22-5.93,10-6.7,10.31-6.73a1,1,0,0,1,.18,2h0c-.07,0-6.82.69-8.6,5.42A1,1,0,0,1,299.22,200.34Z"/><path class="cls-2" d="M181.4,205.4a1,1,0,0,1-1-1.33,41.44,41.44,0,0,1,4.86-9A1,1,0,0,1,187,196.2a40.11,40.11,0,0,0-4.59,8.51A1,1,0,0,1,181.4,205.4Z"/></g></svg>