<svg xmlns="http://www.w3.org/2000/svg" viewBox="0 0 449 449"><defs><style>.cls-1{fill:#fff;}.cls-2{fill:#df4337;}</style></defs><title>logo</title><g id="bg"><rect class="cls-1" width="449" height="449"/><rect class="cls-2" x="219" width="230" height="449"/></g><g id="Layer_1" data-name="Layer 1"><path class="cls-2" d="M100.85,220.17h-.3a30.57,30.57,0,0,1-26.77-15.89l-.51-.94a4,4,0,1,1,7-3.79l.46.84a22.65,22.65,0,0,0,19.84,11.77,22.93,22.93,0,0,0,20.28-11.56l18.62-32.17H94.69a4,4,0,0,1,0-8h48.45a5.91,5.91,0,0,1,5.12,8.88l-20.43,35.3A30.83,30.83,0,0,1,100.85,220.17Zm42.3-51.73h0Z"/><path class="cls-2" d="M123.36,250.94h-.3A30.57,30.57,0,0,1,96.29,235l-.51-.94a4,4,0,1,1,7-3.79l.46.84a22.65,22.65,0,0,0,19.84,11.77,22.94,22.94,0,0,0,20.28-11.56L162,199.21h-30.2a4,4,0,1,1,0-8h33.82a5.91,5.91,0,0,1,5.12,8.88l-20.43,35.3A30.83,30.83,0,0,1,123.36,250.94Zm42.3-51.73h0Z"/><path class="cls-2" d="M72.92,287c0,3-1.18,3.16-2.21,3.16-1.7,0-2-.47-2.21-3.11s-.28-11-.28-20.72c0-4.71,1.79-10,11-10,6.36,0,12,2.54,12,11,0,8.81-6.12,11.21-14.84,11.21-1.08,0-2.07,0-3.39-.09Zm5.93-26.19c-4.1,0-5.89,1.18-5.89,5.6,0,2.12,0,5.13,0,7.49,1.46,0,3.39,0,4.95,0,3.81,0,8.52-.57,8.52-6.78C86.49,262.93,84.32,260.81,78.86,260.81Z"/><path class="cls-2" d="M100.38,259.86a3,3,0,0,1-3.06,2.78,2.83,2.83,0,0,1,.14-5.65A3.06,3.06,0,0,1,100.38,259.86Zm-5.28,18.27c0-8.9,0-12.62,2.31-12.62,1.08,0,2,.47,2.12,3,.19,3.3.28,6.45.28,9.56s-.14,5.65-.28,8.9c-.14,3-.89,3.16-2.12,3.16s-1.93-.57-2.07-3.11C95.2,284.73,95.11,281.72,95.11,278.14Z"/><path class="cls-2" d="M112.44,290.15c-7.68,0-8.52-.09-8.52-1.7,0-3.06,4.57-8.38,6.08-10.36a56.48,56.48,0,0,1,6.59-7.21c-1.46.09-3.44.09-5.13.09-5.32,0-7,0-7-2.31,0-1.08.38-1.93,3-2.12a28.93,28.93,0,0,1,4-.28c2.54,0,4.95.09,7.63.24,1.22,0,3.39.38,3.39,2.17,0,3-7.35,10.55-12.48,16.86.71,0,1.74-.09,2.45-.09,2.83,0,4.95.09,7.91.24s3.16.94,3.16,2.17-.57,1.93-3.11,2.07C118.23,290.05,115.64,290.15,112.44,290.15Z"/><path class="cls-2" d="M134.29,290.15c-7.68,0-8.52-.09-8.52-1.7,0-3.06,4.57-8.38,6.08-10.36a56.48,56.48,0,0,1,6.59-7.21c-1.46.09-3.44.09-5.13.09-5.32,0-7,0-7-2.31,0-1.08.38-1.93,3-2.12a28.93,28.93,0,0,1,4-.28c2.54,0,4.95.09,7.63.24,1.22,0,3.39.38,3.39,2.17,0,3-7.35,10.55-12.48,16.86.71,0,1.74-.09,2.45-.09,2.83,0,4.95.09,7.91.24s3.16.94,3.16,2.17-.57,1.93-3.11,2.07C140.08,290.05,137.49,290.15,134.29,290.15Z"/><path class="cls-2" d="M166.31,286.95a9.38,9.38,0,0,1-7.77,3.44c-4.9,0-10.74-2.54-10.74-11.73,0-7.16,3.53-13,10.79-13a8.89,8.89,0,0,1,7.68,3.72c0-1.46.09-3.34,2.26-3.34.94,0,1.88.47,2,3,.19,3.3.28,5.79.28,8.57,0,3.44,0,6.12-.28,9.37-.19,2.87-.94,3.16-1.88,3.16C166.69,290.15,166.41,288.69,166.31,286.95Zm-7.49-16.72c-4.57,0-6.31,3.39-6.31,7.91,0,5.46,2.59,8.1,6.74,8.1,4.85,0,6.88-3.63,6.88-8.05C166.13,271.64,161.75,270.23,158.83,270.23Z"/><circle class="cls-1" cx="127.21" cy="263.98" r="2.25"/><circle class="cls-2" cx="100.27" cy="180.29" r="4.62"/><circle class="cls-2" cx="99.07" cy="199.58" r="4.62"/><circle class="cls-2" cx="112.13" cy="193.75" r="4.62"/><circle class="cls-2" cx="133.55" cy="225.96" r="4.62"/><circle class="cls-2" cx="119.49" cy="228.38" r="4.62"/><circle class="cls-2" cx="121.37" cy="180.29" r="4.62"/><circle class="cls-2" cx="141.59" cy="212.5" r="4.62"/><path class="cls-1" d="M309.4,220.17h-.3a30.57,30.57,0,0,1-26.77-15.89l-.51-.94a4,4,0,1,1,7-3.79l.46.84a22.65,22.65,0,0,0,19.84,11.77,22.93,22.93,0,0,0,20.28-11.56l18.62-32.17H303.24a4,4,0,1,1,0-8H351.7a5.91,5.91,0,0,1,5.12,8.88l-20.43,35.3A30.83,30.83,0,0,1,309.4,220.17Zm42.3-51.73h0Z"/><path class="cls-1" d="M331.9,250.94h-.3A30.57,30.57,0,0,1,304.84,235l-.51-.94a4,4,0,1,1,7-3.79l.46.84a22.65,22.65,0,0,0,19.84,11.77A22.94,22.94,0,0,0,352,231.37l18.62-32.17h-30.2a4,4,0,1,1,0-8H374.2a5.91,5.91,0,0,1,5.12,8.88l-20.43,35.3A30.83,30.83,0,0,1,331.9,250.94Zm42.3-51.73h0Z"/><path class="cls-1" d="M281.87,289c0,3.12-1.24,3.32-2.33,3.32-1.79,0-2.13-.5-2.33-3.27s-.3-11.56-.3-21.82c0-5,1.88-10.57,11.56-10.57,6.7,0,12.65,2.68,12.65,11.56,0,9.28-6.45,11.8-15.62,11.8-1.14,0-2.18,0-3.57-.1Zm6.25-27.58c-4.32,0-6.2,1.24-6.2,5.9,0,2.23,0,5.41,0,7.89,1.54,0,3.57,0,5.21,0,4,0,9-.6,9-7.14C296.16,263.62,293.88,261.39,288.12,261.39Z"/><path class="cls-1" d="M310.79,260.4a3.2,3.2,0,0,1-3.22,2.93,3,3,0,0,1,.15-6A3.22,3.22,0,0,1,310.79,260.4Zm-5.56,19.25c0-9.37,0-13.29,2.43-13.29,1.14,0,2.08.5,2.23,3.17.2,3.47.3,6.8.3,10.07s-.15,6-.3,9.37c-.15,3.12-.94,3.32-2.23,3.32s-2-.6-2.18-3.27C305.34,286.58,305.24,283.41,305.24,279.64Z"/><path class="cls-1" d="M323.49,292.29c-8.08,0-9-.1-9-1.79,0-3.22,4.81-8.83,6.4-10.91a59.52,59.52,0,0,1,6.94-7.59c-1.54.1-3.62.1-5.41.1-5.6,0-7.34,0-7.34-2.43,0-1.14.4-2,3.12-2.23a30.52,30.52,0,0,1,4.17-.3c2.68,0,5.21.1,8,.25,1.29,0,3.57.4,3.57,2.28,0,3.12-7.74,11.11-13.14,17.76.74,0,1.84-.1,2.58-.1,3,0,5.21.1,8.33.25s3.32,1,3.32,2.28-.6,2-3.27,2.18C329.59,292.19,326.86,292.29,323.49,292.29Z"/><path class="cls-1" d="M346.5,292.29c-8.08,0-9-.1-9-1.79,0-3.22,4.81-8.83,6.4-10.91a59.51,59.51,0,0,1,6.94-7.59c-1.54.1-3.62.1-5.41.1-5.6,0-7.34,0-7.34-2.43,0-1.14.4-2,3.12-2.23a30.52,30.52,0,0,1,4.17-.3c2.68,0,5.21.1,8,.25,1.29,0,3.57.4,3.57,2.28,0,3.12-7.74,11.11-13.14,17.76.74,0,1.84-.1,2.58-.1,3,0,5.21.1,8.33.25s3.32,1,3.32,2.28-.6,2-3.27,2.18C352.61,292.19,349.88,292.29,346.5,292.29Z"/><path class="cls-1" d="M380.23,288.92a9.88,9.88,0,0,1-8.18,3.62c-5.16,0-11.31-2.68-11.31-12.35,0-7.54,3.72-13.69,11.36-13.69a9.36,9.36,0,0,1,8.08,3.92c0-1.54.1-3.52,2.38-3.52,1,0,2,.5,2.13,3.17.2,3.47.3,6.1.3,9,0,3.62,0,6.45-.3,9.87-.2,3-1,3.32-2,3.32C380.63,292.29,380.33,290.75,380.23,288.92Zm-7.89-17.61c-4.81,0-6.65,3.57-6.65,8.33,0,5.75,2.73,8.53,7.09,8.53,5.11,0,7.24-3.82,7.24-8.48C380,272.8,375.42,271.31,372.35,271.31Z"/><circle class="cls-1" cx="308.82" cy="180.29" r="4.62"/><circle class="cls-1" cx="307.61" cy="199.58" r="4.62"/><circle class="cls-1" cx="320.68" cy="193.75" r="4.62"/><circle class="cls-1" cx="342.1" cy="225.96" r="4.62"/><circle class="cls-1" cx="328.04" cy="228.38" r="4.62"/><circle class="cls-1" cx="329.92" cy="180.29" r="4.62"/><circle class="cls-1" cx="350.14" cy="212.5" r="4.62"/></g></svg>