<svg xmlns="http://www.w3.org/2000/svg" xmlns:xlink="http://www.w3.org/1999/xlink" viewBox="0 0 449 449"><defs><style>.cls-1,.cls-4{fill:none;}.cls-2{isolation:isolate;}.cls-3{fill:#fff;}.cls-4{stroke:#000;stroke-miterlimit:10;stroke-width:2px;}.cls-5{fill:url(#linear-gradient);}.cls-6{opacity:0.5;}.cls-7{fill:#fbb03b;}.cls-8{fill:#999;}.cls-9{fill:#666;}.cls-10{fill:#4d4d4d;}.cls-11{fill:url(#linear-gradient-2);}.cls-12{fill:#71390b;}.cls-13{fill:#dc8e36;}.cls-14{fill:#6c3203;}.cls-15{fill:#ca7021;}.cls-16{fill:#009245;}.cls-17{fill:#39b54a;}.cls-18{fill:#006837;}.cls-19{fill:#6b420d;}.cls-20,.cls-22{fill:#cf974d;}.cls-21{clip-path:url(#clip-path);}.cls-22{opacity:0.63;mix-blend-mode:multiply;}.cls-23{font-size:30.78px;}.cls-23,.cls-26{font-family:Sniglet-Regular, Sniglet;}.cls-24{letter-spacing:-0.01em;}.cls-25{letter-spacing:-0.01em;}.cls-26{font-size:14.35px;}.cls-27{letter-spacing:-0.08em;}</style><linearGradient id="linear-gradient" x1="233.25" y1="107.4" x2="233.25" y2="250.63" gradientUnits="userSpaceOnUse"><stop offset="0" stop-color="#1b1464"/><stop offset="1" stop-color="#f15a24"/></linearGradient><linearGradient id="linear-gradient-2" x1="1836.47" y1="-694.18" x2="1845.19" y2="-694.18" gradientTransform="matrix(-0.06, 1.61, -1, -0.02, -357.43, -2681.03)" gradientUnits="userSpaceOnUse"><stop offset="0" stop-color="#301504"/><stop offset="0.46" stop-color="#8d5f31"/><stop offset="1" stop-color="#442309"/></linearGradient><clipPath id="clip-path"><path class="cls-1" d="M324.54,248c-23.49-.93-47.12-.46-70.68-.79-36.2-.49-72.52-2.77-108.67-1.79l-3.23,4.8a1.75,1.75,0,0,0-1.87,1.09c-.77,2.19-1.54,4.45-.27,6.59-2,0-2.65,1.24-2.69,2.16-.16,3.41-.7,7.12-.86,10.54l13,1a36.2,36.2,0,0,1,5.92.79c-5.35.57-10.86,1.38-16.34,1.58l-.49,3a.77.77,0,0,0,.13.72c.77.84,3.88.54,5.07,1.27-.67.4-2.32.3-2.73.77a.46.46,0,0,0-.07.41l1.4,8.58c59.19.19,118.82.68,177.94,2,.15-4.2.46-8.39.62-12.59a.37.37,0,0,0-.16-.37,2.08,2.08,0,0,0-.75-.2l-5.64-.84a62.1,62.1,0,0,1,8.61-1.15c.46-2.91,1.08-6,1.54-8.94.15-.92-.14-2.13-2.1-2.35l3.16-2.07L321,261.19a4.55,4.55,0,0,0,3.47-4.6C324.7,253.8,324.34,250.84,324.54,248Z"/></clipPath></defs><title>logo</title><g class="cls-2"><g id="bg"><rect class="cls-3" width="449" height="449"/></g><g id="Layer_1" data-name="Layer 1"><line class="cls-4" x1="138.83" y1="253.28" x2="138.83" y2="252.84"/><path class="cls-5" d="M333.64,210.26c0,.4,0,.8,0,1.19h0c0,1.71-.08,3.41-.19,5.09,0,.26,0,.52-.05.77-.11,1.61-.26,3.22-.45,4.81q-.34,2.9-.85,5.74T331,233.38h0q-.93,3.95-2.17,7.77c-.27.82-.54,1.63-.83,2.44s-.51,1.42-.78,2.13H139.32q-.28-.73-.54-1.46-.56-1.54-1.06-3.1c-.19-.57-.37-1.15-.54-1.72q-.45-1.48-.85-3h0c-.2-.72-.39-1.44-.57-2.17l-.1-.38c-.13-.55-.26-1.11-.38-1.67s-.22-1-.32-1.47c-.18-.85-.35-1.69-.5-2.55-.31-1.68-.57-3.37-.78-5.08h0q-.36-2.76-.56-5.58h0q-.2-2.67-.25-5.38a1.22,1.22,0,0,1,0-.14c0-.51,0-1,0-1.53v-.25q0-4.9.46-9.69.32-3.41.88-6.75a100.41,100.41,0,0,1,196.56-7.5q.89,3.63,1.51,7.37.78,4.73,1.13,9.61h0l.12,2C333.6,207,333.64,208.6,333.64,210.26Z"/><path class="cls-6" d="M333.64,210.26c0,.4,0,.8,0,1.19h0c0,1.71-.08,3.41-.19,5.09,0,.26,0,.52-.05.77-.11,1.61-.26,3.22-.45,4.81q-.34,2.9-.85,5.74T331,233.38h0q-.93,3.95-2.17,7.77c-.27.82-.54,1.63-.83,2.44s-.51,1.42-.78,2.13H139.32q-.28-.73-.54-1.46-.56-1.54-1.06-3.1c-.19-.57-.37-1.15-.54-1.72q-.45-1.48-.85-3h0c-.2-.72-.39-1.44-.57-2.17l-.1-.38c-.13-.55-.26-1.11-.38-1.67s-.22-1-.32-1.47c-.18-.85-.35-1.69-.5-2.55-.31-1.68-.57-3.37-.78-5.08h0q-.36-2.76-.56-5.58h0q-.2-2.67-.25-5.38a1.22,1.22,0,0,1,0-.14c0-.51,0-1,0-1.53v-.25q0-4.9.46-9.69.32-3.41.88-6.75a100.41,100.41,0,0,1,196.56-7.5q.89,3.63,1.51,7.37.78,4.73,1.13,9.61h0l.12,2C333.6,207,333.64,208.6,333.64,210.26Z"/><circle class="cls-7" cx="232.25" cy="190.13" r="37.49"/><path class="cls-8" d="M333.64,210.26c0,.4,0,.8,0,1.19h0c0,1.71-.08,3.41-.19,5.09H273.85l7.66-8.62,10.06-7.19,5.33-6.89,3.2-4.14,4.17-6.45.9-.54,4.65-2.79,4-2.42,5.75-5.75.28.33,5,5.89,5.9,8.33q.89,3.63,1.51,7.37.78,4.73,1.13,9.61h0l.12,2C333.6,207,333.64,208.6,333.64,210.26Z"/><path class="cls-9" d="M332.27,193.68l-4.57-3.41-7.82-18.18,5,5.89,5.9,8.33Q331.65,189.95,332.27,193.68Z"/><polygon class="cls-9" points="314.09 178.23 315.52 179.67 316.48 180.63 317.92 181.58 317.92 183.02 318.88 185.41 316.48 183.02 316 181.1 314.57 179.67 314.09 178.23"/><polygon class="cls-9" points="333.4 203.29 333.4 203.29 332.77 202.66 330.37 201.22 329.89 199.3 327.02 197.39 329.05 200.57 329.89 202.18 331.33 202.66 330.85 204.57 329.89 205.53 330.85 205.06 331.81 204.09 333.52 205.31 333.4 203.29"/><polygon class="cls-9" points="295.39 250.26 199.63 252.8 181.31 253.28 138.52 253.28 138.83 252.84 141.47 249.1 142.54 247.6 142.58 247.54 143.32 246.49 143.86 245.73 147.91 240.01 148.17 239.63 148.3 239.44 149.01 238.45 150.84 235.85 151.69 234.66 151.95 234.29 152.62 233.35 155.05 229.9 157.66 226.22 161.28 221.11 161.31 221.06 175.18 201.45 179.59 197.1 181.31 195.41 181.41 195.33 190.81 188.04 192.02 187.09 192.97 186.36 195.16 184.67 200.96 180.19 200.96 180.18 203.39 178.31 210.69 170.32 210.75 170.25 210.79 170.28 210.84 170.31 235.28 184.85 243.26 194.91 254.3 201.45 257.98 204.97 263.1 211.43 269.75 219.82 285.43 234.82 292.47 245.73 293.57 247.44 293.97 248.05 295.39 250.26"/><polygon class="cls-10" points="203.41 187.01 202.81 188.37 204.82 194.41 201.44 200.39 199.79 203.3 198.28 205.98 198.28 220.57 197.75 221.63 194.71 227.72 194.29 228.55 193.98 229.17 193.75 229.63 195.26 237.18 195.66 238.59 195.9 239.44 195.94 239.63 196.36 241.1 197.62 245.6 197.66 245.73 197.67 245.76 197.87 246.49 197.99 246.93 198.16 247.54 199.63 252.8 181.31 253.28 138.52 253.28 138.83 252.84 141.47 249.1 142.54 247.6 142.58 247.54 143.32 246.49 143.86 245.73 147.91 240.01 148.17 239.63 148.3 239.44 149.01 238.45 150.84 235.85 151.69 234.66 151.95 234.29 152.62 233.35 155.05 229.9 157.66 226.22 161.28 221.11 161.31 221.06 175.18 201.45 179.59 197.1 181.31 195.41 181.41 195.33 190.81 188.04 192.02 187.09 192.97 186.36 195.16 184.67 200.96 180.19 200.96 180.18 203.39 178.31 210.69 170.32 210.79 170.28 210.86 170.25 210.84 170.31 203.41 187.01 203.41 187.01"/><polygon class="cls-10" points="235.52 204.47 240.04 210.01 241.05 214.03 246.08 216.55 254.13 223.09 262.18 232.65 257.15 232.65 257.66 235.17 262.18 243.22 254.13 245.23 251.62 249.25 245.48 241.8 245.58 233.15 237.53 222.08 235.52 213.03 235.52 204.47"/><polygon class="cls-10" points="214.88 177.3 218.91 181.83 218.91 183.84 221.93 186.86 226.46 190.88 226.46 197.43 226.46 206.99 216.4 198.43 216.9 190.88 213.88 184.85 214.88 177.3"/><path class="cls-8" d="M135.76,234.29c.18.73.37,1.45.57,2.17h0q.39,1.49.85,3h107.9l-3.69-12.05h0l-.26-.83-1.44-4.72-2.81-2.69-12.43-11.9-20.63-19.12-.4-1.11h0L201,180.19h0l-1.67-4.64-1.45-.29L191.74,174l0-.06-.08-.11-17-22.48-.85.82L161,164.47l-22,25.72-2.11,2.46-2.69,1.17q-.55,3.34-.88,6.75-.46,4.79-.46,9.69,0,3.68.26,7.3h0q.2,2.82.56,5.58h0c.21,1.71.47,3.4.78,5.08.15.86.32,1.7.5,2.55.1.49.2,1,.32,1.47s.25,1.12.38,1.67Z"/><path class="cls-9" d="M157,184.85l-1.51,3,2.52,3.52-6.54,1.51-4-.5-1.23.78-4.31,2.74-1.39.75-2.2,1.19-5,2.71q.32-3.41.88-6.75l2.69-1.17,2.11-2.46,22-25.72,12.74-12.26-9.21,15-1,5L161,176.8l4,7Z"/><path class="cls-9" d="M148,212.52v9.06l-.68.5-1.37,1h0l-2.17,1.6-3.31,2.43v4l-2.9.62-.53.11-1.7.36c-.12-.49-.22-1-.32-1.47-.18-.85-.35-1.69-.5-2.55l1.41-.6,0,0,.34-.36h0l5.73-6.14h0l0,0,.92-1Z"/><polygon class="cls-9" points="194.25 195.92 203.31 207.99 212.85 210.26 213.88 215.54 217.92 214.27 219.92 210.01 210.01 205.73 194.25 195.92"/><polygon class="cls-9" points="183.19 185.85 179.66 191.39 181.68 195.92 178.15 197.93 169.1 203.97 164.06 210.01 159.03 210.01 169.1 199.94 171.11 195.41 178.15 189.88 183.19 185.85"/><polygon class="cls-9" points="182.18 200.95 182.18 201.96 180.17 204.47 179.16 208.5 174.13 209 178.15 206.48 179.66 202.46 182.18 200.95"/><polygon class="cls-9" points="191.74 173.78 190.73 177.8 185.7 180.82 185.7 183.84 181.17 183.34 188.22 177.8 188.72 175.79 191.74 173.78"/><polygon class="cls-9" points="199.29 175.79 195.26 181.32 193.75 182.33 191.74 187.87 186.2 188.87 184.19 186.86 189.73 184.34 190.23 182.33 192.75 180.32 194.76 176.8 199.29 175.79"/><path class="cls-8" d="M326.61,201.51l7,9.94h0c0,1.71-.08,3.41-.19,5.09,0,.26,0,.52-.05.77-.11,1.61-.26,3.22-.45,4.81q-.34,2.9-.85,5.74H234.26l.17-.32,0,0,.51-1,1-1.8,1.56-2.94.74-1.39,3.27-6.17,8-15.1.36-.35,16.54-16,1.83-3.35,13.19-24.16.06-.1h0v0h0L302.19,174l7.63,5.9,2.84,2.19.3.23h0l0,0,.27.21Z"/><path class="cls-9" d="M333.63,211.45h0c0,1.71-.08,3.41-.19,5.09,0,.26,0,.52-.05.77l-.89-.77L329.61,214l-5-5.59-2.61-2.9L320.55,204v-6l-9.82-9.71-2.32-2.29-3.25-3.21-.15-.14-8.62.26-15-27.63h0L302.19,174l7.63,5.9,2.84,2.19.3.23h0l0,0,.27.21,13.35,18.93Z"/><polygon class="cls-9" points="298.92 193.91 301.94 204.47 313.51 211.52 303.44 201.45 298.92 193.91"/><polygon class="cls-9" points="267.22 185.85 269.23 196.92 277.78 201.96 282.31 205.98 272.75 193.91 267.22 185.85"/><polygon class="cls-9" points="264.7 208.5 266.21 216.04 269.23 217.55 270.47 222.9 273.03 222.9 276.79 220.07 268.22 211.52 264.7 208.5"/><polygon class="cls-9" points="256.15 215.54 254.13 217.55 253.13 223.09 250.3 222.9 252.62 217.55 256.15 215.54"/><path class="cls-9" d="M326.61,201.51l7,9.94h0c0,1.71-.08,3.41-.19,5.09,0,.26,0,.52-.05.77-.11,1.61-.26,3.22-.45,4.81q-.34,2.9-.85,5.74h-13.3l-1.41-.2-2.77-.4-.59-.09-.51-.07L313,225l-2.11-8.45-.38-1.51-8.55-3.52-.9-10.18-4.14-5.42V185.85L281.38,155.3l-.07-.14.13,0h0L302.19,174l7.63,5.9,2.84,2.19.3.23h0l0,0,.27.21Z"/><polygon class="cls-8" points="313.01 182.33 310.99 187.36 308.98 193.91 301.94 193.91 307.47 189.38 308.98 183.84 313.01 182.33"/><polygon class="cls-8" points="326.61 201.51 324.58 204.97 324.58 209 322.06 211.52 316.53 215.04 313.51 215.54 320.05 210.01 323.07 202.96 326.61 201.51"/><path class="cls-9" d="M137.4,224.1l-1.14,3.12h0l-.21.57-1.08,3c-.18-.85-.35-1.69-.5-2.55-.31-1.68-.57-3.37-.78-5.08h0q-.36-2.76-.56-5.58Z"/><path class="cls-9" d="M147,191.39l-.72,1.79-1.74,4.27-4.08,10-.29.39-7,9.67q-.26-3.62-.26-7.3,0-4.9.46-9.69.32-3.41.88-6.75l2.69-1.17,2.11-2.46Z"/><polygon class="cls-8" points="137.4 192.9 140.53 196.67 146.96 197.93 149.47 202.96 151.48 205.98 140.92 208.5 136.39 204.97 138.91 200.95 137.4 192.9"/><path class="cls-9" d="M349,248.4a1.5,1.5,0,0,0,0-3,1.5,1.5,0,0,0,0,3Z"/><path class="cls-11" d="M178.15,302.08c-.49.78-6.79.11-7.21.1s-1.76,1.89-1.8,2.35.91,3.53,1.58,3.28a17.33,17.33,0,0,1,4.63-.71c19.56-.64,100.2.27,120.22-.43a9,9,0,0,0-.46-2c-17.64-3.58-97.82-.53-114.39-10.71-2.58,3.31-2.36,4.4-2.89,7.74.35,0,.53.09.32.42Z"/><path class="cls-12" d="M170.51,301.25a10.86,10.86,0,0,1,5.3.34,5.12,5.12,0,0,0,1.47.08c.21,0,.4,0,.55,0,.53-3.34.31-4.43,2.89-7.74a34.11,34.11,0,0,0-6.51-3.15,5.44,5.44,0,0,1-.61-.09c-1.45-.3-3.6,8.93-3.86,9.44-.17.35.3.52.77,1.13Z"/><path class="cls-12" d="M293.77,297.74h.6S292.92,297.71,293.77,297.74Z"/><path class="cls-12" d="M172.74,289.68a8.25,8.25,0,0,1,3,.88,2.85,2.85,0,0,1-1.54.21c5.91,1.89,38.49,5.94,44.43,7.55,14.28,3.88,62,3.32,76.46,6.3a9,9,0,0,1,.46,2s1.1-8.1.92-8.27c-.35-.33-.35-.45-.84-.56a8.16,8.16,0,0,0-1.26-.1h-.6c-.85,0-.16,0,.6,0a4.74,4.74,0,0,0,2.35-.45c.39-.28,1.84-5.64,1.84-5.64a1.42,1.42,0,0,0-1.16-1.2c-1-.13-1.06-.19,0-.18s1.16-.46,1.23-.79a2,2,0,0,0-1.63-2.61c-7.43-.11-48.07,1.17-55.55,1.41-12.09.39-51.91-.09-64.13-1.1-5.26-.43-7.52,1.52-7.52,1.52.3.26.45.39.75.66a7.21,7.21,0,0,0,2.2.29Z"/><path class="cls-13" d="M295.22,287l-1.87.09c-1.79.12-47.38.4-49.24.53-1.17.08-2.35.17-3.49.19-12.21.21-52.08-.09-64.39-1-5.31-.4-6.5-.07-6.5-.07,0,.62,0,1.08.06,2.11a14.83,14.83,0,0,0,1.91.08,9.77,9.77,0,0,1,3.18.88,3.58,3.58,0,0,1-2.24.09c-1.53-.3-2.79-.49-3-.1-.49,1.15-.15,10.48,0,10.66.46.58,4.18.09,5.37.44a4.93,4.93,0,0,0,1.44.12c.67,0,1.12,0,.81.43-.51.77-6.74,0-7.18-.05s-.92,2.44-1,2.91.2,1.27.87,1a14.14,14.14,0,0,1,4.5-.52c19.37.61,100.6.48,120.58-.15,0,0,.06-.63.07-1.5,0-.1,0-.2,0-.3,0-.46,0-1,0-1.48a12.64,12.64,0,0,1,.17-2c.1-.53.25-.93.3-1.23s0-.35,0-.36c-.35,0-3.83-.23-4.4-.34s.12-.49,1.58-.43a5.85,5.85,0,0,0,3.09-.52,14.91,14.91,0,0,0,1.4-3.38c.38-1.16.58-2,.58-2a1.2,1.2,0,0,0-1.14-1c-1-.13-1.32-.68-.27-.68s1.05-.15,1.22-.42a1.59,1.59,0,0,0,.1-.77s-.57-1.4-.89-1.4-1.72.09-1.72.09Z"/><path class="cls-14" d="M297.38,290.28h0Z"/><path class="cls-14" d="M297.4,290.29Z"/><path class="cls-14" d="M297.11,293.79l.19-.05s-.14,0-.18,0v0Z"/><path class="cls-14" d="M295.18,302h0Z"/><path class="cls-15" d="M169.69,290.38s6.46.54,7.53.48c6.28-.34,40.52.6,47.08,1.1l.58.07a24.91,24.91,0,0,0,3.44.22c3.4,0,8.24-.1,9.39-.19,8.93-.6,59.52-1.78,59.52-1.78h0a17.26,17.26,0,0,0-1.92-.07,44.8,44.8,0,0,0-6.31.55c-7.58,1.14-48.2,1-55.89,1a19.94,19.94,0,0,1-3.25-.2,11.35,11.35,0,0,0-1.38-.08c-8.93-.16-45.36-.29-54.17-1.24a27.56,27.56,0,0,0-4.6.1Z"/><path class="cls-15" d="M183.25,288.33a37.35,37.35,0,0,0-3.94.07l6.78.07C184.95,288.42,184,288.38,183.25,288.33Zm29.83.36c-.74,0-17.32-.13-27-.22,7.91.29,24.44.39,36.63.4C219.46,288.69,216.22,288.55,213.08,288.68Zm26.49.24a20.43,20.43,0,0,1-2.68-.09,10.31,10.31,0,0,0-1.17,0c-2.44,0-7.23.06-13,.06,3.27.17,6.57.38,9.81.4l.52,0c.63,0,1.72.06,3,0,2.76,0,6.37-.22,7.2-.28s2.07-.13,3.64-.2C243.46,288.87,240.85,288.9,239.57,288.93Zm7.29-.09c13.52-.11,39.59-.27,44.59-.88.72-.09,1.43-.16,2.11-.21C282.66,288,257.4,288.4,246.86,288.84Zm50.66-1.21h0l-.63,0H296c-.68,0-1.54.06-2.49.14l3.28-.09.69,0h0Z"/><path class="cls-15" d="M169.83,296.76c.21,0,3.94-.56,5-.63s38.24-.49,39.68-.55c5.83-.24,11.77-.73,17.57-.94,10.09-.37,63.3-.76,63.3-.76s-58.25.12-70.93.48c-5.91.17-42.09.24-43.91.38s-10.33,1.93-10.65,2h0Z"/><path class="cls-15" d="M237.28,303.77a113.38,113.38,0,0,0-23.41-1.55c-2.3.06-39.94,1-41.24,1a4.43,4.43,0,0,0-2.44.82c2.87,1.86,38.5-1,44.11-1.4.23,0,4.16.18,4.43.16a104.45,104.45,0,0,1,18.54,1Z"/><path class="cls-15" d="M169.67,300.42h0s.46-.21.83-.41c0,0,8.8-1.83,10.46-1.68s34,.05,34.94,0H216c-.23,0-35.1-.46-36.13-.62s-9.85.78-10.13,1.36a5.41,5.41,0,0,0,0,1.4Z"/><path class="cls-15" d="M286.32,301.74c4.23.17,8.3.3,8.86.31h0c-9.73-.6-52.2-1.17-61.93-1.44-1.56,0-14.88-.57-14.88-.57s6-2.06,7.69-2.31c9.54-1.47,52.91-.54,62.75-1.34,1.54-.13,8-1.74,8-1.74s-5,.72-8.19,1.06c-9.94,1.06-53.39-.6-63.39,1.73a39.64,39.64,0,0,0-8.32,2.64c5.8.52,11.63.63,17.43.85,6.42.25,45.57.54,52,.82Z"/><path class="cls-15" d="M289.64,297.84a12.58,12.58,0,0,0,1.62-.37S290.61,297.63,289.64,297.84Zm-7.88.15-48.28.94,15.31.14c10.89-.14,23.91-.35,32.17-.63,3.19-.11,5.66-.23,7-.36.64-.06,1.65-.24,1.65-.24Zm5.11,1.5c-1.32,0-4.08-.07-7.69-.11-8.13-.1-20.55-.22-30.39-.31-10.77.14-19.47.22-19.47.22s29,.28,49,.55c7.44.1,13.63.21,16.65.3C294.28,300.06,288.93,299.53,286.87,299.49Z"/><path class="cls-16" d="M138.73,244.35l0-.08q-.56-1.54-1.06-3.1c-.19-.57-.37-1.15-.54-1.72q-.45-1.48-.85-3h0a11,11,0,0,0,.92-2.17h-1.49l-.1-.38a17.69,17.69,0,0,0,1.51-1.71h0l.33-.43a18.66,18.66,0,0,0,1.92-3.21h-1.78c1.89-1.7,4.14-7,4.34-7.48h0v0c.08.19.78,1.86,1.72,3.63.22.41.45.84.69,1.24a11.65,11.65,0,0,0,1.94,2.63h-1.78a19.5,19.5,0,0,0,4.16,5.74h-2a12.35,12.35,0,0,0,2.26,4.16c.19.23.39.46.6.69l.3.3.2.19h-2.38l.17.38.36.78.2.41c.25.52.56,1.14.91,1.81s.83,1.55,1.29,2.34l.23.38c.16.26.31.51.48.76l.08.13.2.3.44.62H139.94Z"/><path class="cls-16" d="M161.21,246.49H141a51.88,51.88,0,0,0,4.35-7.91H143a12.45,12.45,0,0,0,3.36-5.34h-2a19.43,19.43,0,0,0,4.15-5.73h-1.78c2-1.78,4.35-7.51,4.35-7.51s2.37,5.73,4.35,7.51H153.7a19.43,19.43,0,0,0,4.15,5.73h-2a12.45,12.45,0,0,0,3.36,5.34h-2.37A51.88,51.88,0,0,0,161.21,246.49Z"/><path class="cls-17" d="M139.94,247.54h17c-.23-.31-.46-.65-.69-1h0l0,0-.48-.76-.27-.45c-.5-.85-1-1.73-1.38-2.53-.9-1.75-1.5-3.12-1.5-3.12h2.38l-.2-.19c-.24-.24-.47-.47-.68-.71a12.75,12.75,0,0,1-2.37-4.07c-.09-.23-.12-.37-.12-.37h2c-.33-.31-.64-.62-.93-.94s-.45-.5-.64-.75a19.23,19.23,0,0,1-2.58-4h1.78a14.4,14.4,0,0,1-2.49-3.61c-.57-1.07-1.07-2.12-1.41-2.86s-.45-1-.45-1-.36.87-.92,2h0c-.41.86-.92,1.88-1.48,2.84a11.65,11.65,0,0,1-1.94,2.63h1.78a19.43,19.43,0,0,1-4.15,5.74h2a12.41,12.41,0,0,1-2.52,4.47c-.2.23-.42.46-.65.68l-.2.19h2.38s-.12.28-.34.73l-.4.84c-.17.36-.37.77-.6,1.21s-.62,1.21-1,1.86l0,.08Z"/><path class="cls-17" d="M177.3,246.49H157.14a51.88,51.88,0,0,0,4.35-7.91h-2.37a12.45,12.45,0,0,0,3.36-5.34h-2a19.43,19.43,0,0,0,4.15-5.73h-1.78c2-1.78,4.35-7.51,4.35-7.51s2.37,5.73,4.35,7.51h-1.78a19.43,19.43,0,0,0,4.15,5.73h-2a12.45,12.45,0,0,0,3.36,5.34H173A51.88,51.88,0,0,0,177.3,246.49Z"/><path class="cls-16" d="M171.38,247.54H151.21a51.88,51.88,0,0,0,4.35-7.91h-2.37a12.45,12.45,0,0,0,3.36-5.34h-2a19.43,19.43,0,0,0,4.15-5.73h-1.78c2-1.78,4.35-7.51,4.35-7.51s2.37,5.73,4.35,7.51h-1.78a19.43,19.43,0,0,0,4.15,5.73h-2a12.45,12.45,0,0,0,3.36,5.34H167A51.88,51.88,0,0,0,171.38,247.54Z"/><path class="cls-18" d="M166,249.11H145.87a51.88,51.88,0,0,0,4.35-7.91h-2.37a12.45,12.45,0,0,0,3.36-5.34h-2a19.43,19.43,0,0,0,4.15-5.73H151.6c2-1.78,4.35-7.51,4.35-7.51s2.37,5.73,4.35,7.51h-1.78a19.43,19.43,0,0,0,4.15,5.73h-2a12.45,12.45,0,0,0,3.36,5.34h-2.37A51.88,51.88,0,0,0,166,249.11Z"/><path class="cls-18" d="M138.73,244.35l0-.08q-.56-1.54-1.06-3.1c-.19-.57-.37-1.15-.54-1.72q-.45-1.48-.85-3h0c-.2-.72-.39-1.44-.57-2.17l-.1-.38c-.13-.55-.26-1.11-.38-1.67s-.22-1-.32-1.47c-.18-.85-.35-1.69-.5-2.55-.31-1.68-.57-3.37-.78-5.08a45.25,45.25,0,0,0,2.23,4.43l.13.21a10.74,10.74,0,0,0,1.77,2.33H136a16.62,16.62,0,0,0,.95,1.75l.2.32h0a18.9,18.9,0,0,0,3,3.66h-2a11.72,11.72,0,0,0,1.35,2.9c.14.23.29.45.46.68l.14.19c.19.24.38.49.6.73a11.52,11.52,0,0,0,.82.84H139.2s.21.47.56,1.21,1,2.07,1.69,3.32l.06.1.37.66c.2.35.41.7.62,1h-2.56Z"/><path class="cls-18" d="M143.55,249.1h-2.08l1.07-1.5c.2.32.4.62.6.92S143.41,248.92,143.55,249.1Z"/><path class="cls-16" d="M181.89,247.54H161.72a51.88,51.88,0,0,0,4.35-7.91H163.7a12.45,12.45,0,0,0,3.36-5.34h-2a19.43,19.43,0,0,0,4.15-5.73h-1.78c2-1.78,4.35-7.51,4.35-7.51s2.37,5.73,4.35,7.51h-1.78a19.43,19.43,0,0,0,4.15,5.73h-2a12.45,12.45,0,0,0,3.36,5.34h-2.37A51.88,51.88,0,0,0,181.89,247.54Z"/><path class="cls-16" d="M191,246.49H170.85a51.88,51.88,0,0,0,4.35-7.91h-2.37a12.45,12.45,0,0,0,3.36-5.34h-2a19.43,19.43,0,0,0,4.15-5.73h-1.78c2-1.78,4.35-7.51,4.35-7.51s2.37,5.73,4.35,7.51H183.5a19.43,19.43,0,0,0,4.15,5.73h-2a12.45,12.45,0,0,0,3.36,5.34h-2.37A51.88,51.88,0,0,0,191,246.49Z"/><path class="cls-17" d="M186.72,247.54H166.55a51.88,51.88,0,0,0,4.35-7.91h-2.37a12.45,12.45,0,0,0,3.36-5.34h-2a19.43,19.43,0,0,0,4.15-5.73h-1.78c2-1.78,4.35-7.51,4.35-7.51s2.37,5.73,4.35,7.51H179.2a19.43,19.43,0,0,0,4.15,5.73h-2a12.45,12.45,0,0,0,3.36,5.34h-2.37A51.88,51.88,0,0,0,186.72,247.54Z"/><path class="cls-17" d="M207.11,246.49H186.94a51.88,51.88,0,0,0,4.35-7.91h-2.37a12.45,12.45,0,0,0,3.36-5.34h-2a19.43,19.43,0,0,0,4.15-5.73h-1.78c2-1.78,4.35-7.51,4.35-7.51s2.37,5.73,4.35,7.51H199.6a19.43,19.43,0,0,0,4.15,5.73h-2a12.45,12.45,0,0,0,3.36,5.34h-2.37A51.88,51.88,0,0,0,207.11,246.49Z"/><path class="cls-18" d="M195.84,249.11H175.67A51.88,51.88,0,0,0,180,241.2h-2.37a12.45,12.45,0,0,0,3.36-5.34h-2a19.43,19.43,0,0,0,4.15-5.73h-1.78c2-1.78,4.35-7.51,4.35-7.51s2.37,5.73,4.35,7.51h-1.78a19.43,19.43,0,0,0,4.15,5.73h-2a12.45,12.45,0,0,0,3.36,5.34h-2.37A51.88,51.88,0,0,0,195.84,249.11Z"/><path class="cls-16" d="M201.19,247.54H181a51.88,51.88,0,0,0,4.35-7.91H183a12.45,12.45,0,0,0,3.36-5.34h-2a19.43,19.43,0,0,0,4.15-5.73h-1.78c2-1.78,4.35-7.51,4.35-7.51s2.37,5.73,4.35,7.51h-1.78a19.43,19.43,0,0,0,4.15,5.73h-2a12.45,12.45,0,0,0,3.36,5.34h-2.37A51.88,51.88,0,0,0,201.19,247.54Z"/><path class="cls-16" d="M217.16,246.49H197a51.88,51.88,0,0,0,4.35-7.91H199a12.45,12.45,0,0,0,3.36-5.34h-2a19.43,19.43,0,0,0,4.15-5.73h-1.78c2-1.78,4.35-7.51,4.35-7.51s2.37,5.73,4.35,7.51h-1.78a19.43,19.43,0,0,0,4.15,5.73h-2a12.45,12.45,0,0,0,3.36,5.34h-2.37A51.88,51.88,0,0,0,217.16,246.49Z"/><path class="cls-18" d="M212.86,247.54H192.69a51.88,51.88,0,0,0,4.35-7.91h-2.37a12.45,12.45,0,0,0,3.36-5.34h-2a19.43,19.43,0,0,0,4.15-5.73h-1.78c2-1.78,4.35-7.51,4.35-7.51s2.37,5.73,4.35,7.51h-1.78a19.43,19.43,0,0,0,4.15,5.73h-2a12.45,12.45,0,0,0,3.36,5.34h-2.37A51.88,51.88,0,0,0,212.86,247.54Z"/><path class="cls-17" d="M233.26,246.49H213.09a51.88,51.88,0,0,0,4.35-7.91h-2.37a12.45,12.45,0,0,0,3.36-5.34h-2a19.43,19.43,0,0,0,4.15-5.73h-1.78c2-1.78,4.35-7.51,4.35-7.51s2.37,5.73,4.35,7.51h-1.78a19.43,19.43,0,0,0,4.15,5.73h-2a12.45,12.45,0,0,0,3.36,5.34h-2.37A51.88,51.88,0,0,0,233.26,246.49Z"/><path class="cls-17" d="M222,249.11H201.82a51.88,51.88,0,0,0,4.35-7.91H203.8a12.45,12.45,0,0,0,3.36-5.34h-2a19.43,19.43,0,0,0,4.15-5.73h-1.78c2-1.78,4.35-7.51,4.35-7.51s2.37,5.73,4.35,7.51h-1.78a19.43,19.43,0,0,0,4.15,5.73h-2A12.45,12.45,0,0,0,220,241.2h-2.37A51.88,51.88,0,0,0,222,249.11Z"/><path class="cls-16" d="M227.34,247.54H207.17a51.88,51.88,0,0,0,4.35-7.91h-2.37a12.45,12.45,0,0,0,3.36-5.34h-2a19.43,19.43,0,0,0,4.15-5.73H212.9c2-1.78,4.35-7.51,4.35-7.51s2.37,5.73,4.35,7.51h-1.78a19.43,19.43,0,0,0,4.15,5.73h-2a12.45,12.45,0,0,0,3.36,5.34H223A51.88,51.88,0,0,0,227.34,247.54Z"/><path class="cls-16" d="M239.41,247.54H219.24a51.88,51.88,0,0,0,4.35-7.91h-2.37a12.45,12.45,0,0,0,3.36-5.34h-2a19.43,19.43,0,0,0,4.15-5.73H225c2-1.78,4.35-7.51,4.35-7.51s2.37,5.73,4.35,7.51H231.9a19.43,19.43,0,0,0,4.15,5.73h-2a12.45,12.45,0,0,0,3.36,5.34h-2.37A51.88,51.88,0,0,0,239.41,247.54Z"/><path class="cls-16" d="M248.54,246.49H228.37a51.88,51.88,0,0,0,4.35-7.91h-2.37a12.45,12.45,0,0,0,3.36-5.34h-2a19.43,19.43,0,0,0,4.15-5.73H234.1c2-1.78,4.35-7.51,4.35-7.51s2.37,5.73,4.35,7.51H241a19.43,19.43,0,0,0,4.15,5.73h-2a12.45,12.45,0,0,0,3.36,5.34h-2.37A51.88,51.88,0,0,0,248.54,246.49Z"/><path class="cls-17" d="M244.24,247.54H224.07a51.88,51.88,0,0,0,4.35-7.91H226a12.45,12.45,0,0,0,3.36-5.34h-2a19.43,19.43,0,0,0,4.15-5.73H229.8c2-1.78,4.35-7.51,4.35-7.51s2.37,5.73,4.35,7.51h-1.78a19.43,19.43,0,0,0,4.15,5.73h-2a12.45,12.45,0,0,0,3.36,5.34h-2.37A51.88,51.88,0,0,0,244.24,247.54Z"/><path class="cls-17" d="M264.63,246.49H244.46a51.88,51.88,0,0,0,4.35-7.91h-2.37a12.45,12.45,0,0,0,3.36-5.34h-2a19.43,19.43,0,0,0,4.15-5.73H250.2c2-1.78,4.35-7.51,4.35-7.51s2.37,5.73,4.35,7.51h-1.78a19.43,19.43,0,0,0,4.15,5.73h-2a12.45,12.45,0,0,0,3.36,5.34h-2.37A51.88,51.88,0,0,0,264.63,246.49Z"/><path class="cls-16" d="M258.71,247.54H238.54a51.88,51.88,0,0,0,4.35-7.91h-2.37a12.45,12.45,0,0,0,3.36-5.34h-2a19.43,19.43,0,0,0,4.15-5.73h-1.78c2-1.78,4.35-7.51,4.35-7.51s2.37,5.73,4.35,7.51H251.2a19.43,19.43,0,0,0,4.15,5.73h-2a12.45,12.45,0,0,0,3.36,5.34h-2.37A51.88,51.88,0,0,0,258.71,247.54Z"/><path class="cls-18" d="M253.36,249.11H233.19a51.88,51.88,0,0,0,4.35-7.91h-2.37a12.45,12.45,0,0,0,3.36-5.34h-2a19.43,19.43,0,0,0,4.15-5.73h-1.78c2-1.78,4.35-7.51,4.35-7.51s2.37,5.73,4.35,7.51h-1.78a19.43,19.43,0,0,0,4.15,5.73h-2a12.45,12.45,0,0,0,3.36,5.34H249A51.88,51.88,0,0,0,253.36,249.11Z"/><path class="cls-16" d="M269.22,247.54H249.05a51.88,51.88,0,0,0,4.35-7.91H251a12.45,12.45,0,0,0,3.36-5.34h-2a19.43,19.43,0,0,0,4.15-5.73h-1.78c2-1.78,4.35-7.51,4.35-7.51s2.37,5.73,4.35,7.51h-1.78a19.43,19.43,0,0,0,4.15,5.73h-2a12.45,12.45,0,0,0,3.36,5.34h-2.37A51.88,51.88,0,0,0,269.22,247.54Z"/><path class="cls-16" d="M278.35,246.49H258.18a51.88,51.88,0,0,0,4.35-7.91h-2.37a12.45,12.45,0,0,0,3.36-5.34h-2a19.43,19.43,0,0,0,4.15-5.73h-1.78c2-1.78,4.35-7.51,4.35-7.51s2.37,5.73,4.35,7.51h-1.78a19.43,19.43,0,0,0,4.15,5.73h-2a12.45,12.45,0,0,0,3.36,5.34H274A51.88,51.88,0,0,0,278.35,246.49Z"/><path class="cls-17" d="M274,247.54H253.88a51.88,51.88,0,0,0,4.35-7.91h-2.37a12.45,12.45,0,0,0,3.36-5.34h-2a19.43,19.43,0,0,0,4.15-5.73h-1.78c2-1.78,4.35-7.51,4.35-7.51s2.37,5.73,4.35,7.51h-1.78a19.43,19.43,0,0,0,4.15,5.73h-2a12.45,12.45,0,0,0,3.36,5.34h-2.37A51.88,51.88,0,0,0,274,247.54Z"/><path class="cls-17" d="M294.44,246.49H274.27a51.88,51.88,0,0,0,4.35-7.91h-2.37a12.45,12.45,0,0,0,3.36-5.34h-2a19.43,19.43,0,0,0,4.15-5.73H280c2-1.78,4.35-7.51,4.35-7.51s2.37,5.73,4.35,7.51h-1.78a19.43,19.43,0,0,0,4.15,5.73h-2a12.45,12.45,0,0,0,3.36,5.34h-2.37A51.88,51.88,0,0,0,294.44,246.49Z"/><path class="cls-18" d="M283.17,249.11H263a51.88,51.88,0,0,0,4.35-7.91H265a12.45,12.45,0,0,0,3.36-5.34h-2a19.43,19.43,0,0,0,4.15-5.73h-1.78c2-1.78,4.35-7.51,4.35-7.51s2.37,5.73,4.35,7.51h-1.78a19.43,19.43,0,0,0,4.15,5.73h-2a12.45,12.45,0,0,0,3.36,5.34h-2.37A51.88,51.88,0,0,0,283.17,249.11Z"/><path class="cls-16" d="M326.06,247.54c.24-.6.47-1.2.7-1.81h.42c.27-.7.53-1.41.78-2.13l-.26-.5c-.63-1.25-1.11-2.28-1.31-2.73h0l-.1-.22h2.37a12.38,12.38,0,0,1-2.31-2.93,11.46,11.46,0,0,1-1.05-2.41h2l-.54-.52-.48-.51a19.94,19.94,0,0,1-2.5-3.46l-.11-.19c-.36-.64-.53-1-.53-1h1.78a7.41,7.41,0,0,1-1-1.21l0-.07a39.62,39.62,0,0,1-3.27-6.24,46.25,46.25,0,0,1-2.45,4.95c-.24.41-.48.8-.73,1.16l-.15.2a7.41,7.41,0,0,1-1,1.21H318a18.82,18.82,0,0,1-1.82,3.07c-.26.35-.54.72-.85,1.09l-.05.06a16.54,16.54,0,0,1-1.43,1.51h2a12.45,12.45,0,0,1-3.36,5.34h2.37s-.9,2-2.11,4.27c-.24.43-.48.88-.73,1.31l-.46.76c-.22.36-.45.71-.68,1l-.07.11-.15.21-.15.21h15.38Z"/><path class="cls-17" d="M326.34,249.1H306.17c.28-.38.56-.8.84-1.23h0l.18-.29,0,0c.18-.29.36-.58.53-.88l.1-.17.43-.76c1.28-2.34,2.25-4.53,2.25-4.53h-2.37a12.59,12.59,0,0,0,2.72-3.71,10.25,10.25,0,0,0,.64-1.64h-2c.1-.09.19-.18.28-.28a14.83,14.83,0,0,0,1.19-1.29,1.23,1.23,0,0,0,.13-.16,19.07,19.07,0,0,0,2.55-4H311.9a9.76,9.76,0,0,0,1.51-1.92l.21-.33.22-.36c.06-.11.13-.21.18-.32h0l.2-.35c1.14-2.07,2-4.22,2-4.22s.8,1.93,1.86,3.9c.25.46.51.92.77,1.36a10.85,10.85,0,0,0,1.72,2.25h-1.78a19.09,19.09,0,0,0,2.52,4,16.44,16.44,0,0,0,1.64,1.76h-2a9,9,0,0,0,.34,1,12.61,12.61,0,0,0,3,4.38H322s.81,1.84,1.93,3.94l.32.59c.33.6.69,1.22,1.05,1.81l.33.52.16.24C326,248.58,326.15,248.85,326.34,249.1Z"/><path class="cls-18" d="M326.06,247.54c.24-.6.47-1.2.7-1.81h.42c.27-.7.53-1.41.78-2.13s.56-1.63.83-2.44q1.24-3.82,2.17-7.77h0l-.34-.47a19.07,19.07,0,0,1-1.6-2.73l0-.06h1.78a7.65,7.65,0,0,1-1-1.23l-.24-.34c-.15-.22-.29-.45-.44-.68l-.13-.22a46,46,0,0,1-2.5-5,44.38,44.38,0,0,1-2.6,5.19l0,.07a10.84,10.84,0,0,1-1.72,2.25h1.78l-.09.19a19.69,19.69,0,0,1-2.43,3.78,16.51,16.51,0,0,1-1.64,1.76h2a9.57,9.57,0,0,1-.34,1,12.71,12.71,0,0,1-3,4.38h2.38s-.61,1.39-1.51,3.13c-.23.45-.48.92-.74,1.4-.14.25-.28.51-.43.76-.25.44-.52.89-.79,1.31l-.06.1-.11.17c-.24.37-.47.71-.71,1H327a5.19,5.19,0,0,0-1.21-.8l0,0h0l-.15-.21h.23Z"/><path class="cls-16" d="M288.52,247.54H268.35a51.88,51.88,0,0,0,4.35-7.91h-2.37a12.45,12.45,0,0,0,3.36-5.34h-2a19.43,19.43,0,0,0,4.15-5.73h-1.78c2-1.78,4.35-7.51,4.35-7.51s2.37,5.73,4.35,7.51H281a19.43,19.43,0,0,0,4.15,5.73h-2a12.45,12.45,0,0,0,3.36,5.34h-2.37A51.88,51.88,0,0,0,288.52,247.54Z"/><path class="cls-16" d="M304.49,246.49H284.32a51.88,51.88,0,0,0,4.35-7.91H286.3a12.45,12.45,0,0,0,3.36-5.34h-2a19.43,19.43,0,0,0,4.15-5.73h-1.78c2-1.78,4.35-7.51,4.35-7.51s2.37,5.73,4.35,7.51H297a19.43,19.43,0,0,0,4.15,5.73h-2a12.45,12.45,0,0,0,3.36,5.34h-2.37A51.88,51.88,0,0,0,304.49,246.49Z"/><path class="cls-18" d="M300.19,247.54H280a51.88,51.88,0,0,0,4.35-7.91H282a12.45,12.45,0,0,0,3.36-5.34h-2a19.43,19.43,0,0,0,4.15-5.73h-1.78c2-1.78,4.35-7.51,4.35-7.51s2.37,5.73,4.35,7.51h-1.78a19.43,19.43,0,0,0,4.15,5.73h-2a12.45,12.45,0,0,0,3.36,5.34h-2.37A51.88,51.88,0,0,0,300.19,247.54Z"/><path class="cls-17" d="M320.58,246.49H300.41a51.88,51.88,0,0,0,4.35-7.91h-2.37a12.45,12.45,0,0,0,3.36-5.34h-2a19.43,19.43,0,0,0,4.15-5.73h-1.78c2-1.78,4.35-7.51,4.35-7.51s2.37,5.73,4.35,7.51h-1.78a19.43,19.43,0,0,0,4.15,5.73h-2a12.45,12.45,0,0,0,3.36,5.34h-2.37A51.88,51.88,0,0,0,320.58,246.49Z"/><path class="cls-17" d="M332.94,222.13q-.34,2.9-.85,5.74T331,233.38h0q-.93,3.95-2.17,7.77c-.27.82-.54,1.63-.83,2.44s-.51,1.42-.78,2.13h-.42c-.23.6-.46,1.21-.7,1.81h-3.68c.4-.55.81-1.17,1.19-1.81l.35-.59c1.07-1.83,2-3.74,2.47-4.77h0l.1-.22.24-.52h-2.38a12.22,12.22,0,0,0,2-2.41,12,12,0,0,0,1.36-2.93h-2l.52-.51a19.05,19.05,0,0,0,2.76-3.59l0-.06c.31-.52.53-1,.67-1.23s.17-.34.17-.34h-1.78a5.68,5.68,0,0,0,.63-.68l.18-.22a37.23,37.23,0,0,0,3.54-6.61l.1.23C332.64,221.46,332.77,221.76,332.94,222.13Z"/><path class="cls-17" d="M309.32,249.11H289.15a51.88,51.88,0,0,0,4.35-7.91h-2.37a12.45,12.45,0,0,0,3.36-5.34h-2a19.43,19.43,0,0,0,4.15-5.73h-1.78c2-1.78,4.35-7.51,4.35-7.51s2.37,5.73,4.35,7.51H301.8a19.43,19.43,0,0,0,4.15,5.73h-2a12.45,12.45,0,0,0,3.36,5.34H305A51.88,51.88,0,0,0,309.32,249.11Z"/><path class="cls-16" d="M314.66,247.54H294.49a51.88,51.88,0,0,0,4.35-7.91h-2.37a12.45,12.45,0,0,0,3.36-5.34h-2a19.43,19.43,0,0,0,4.15-5.73h-1.78c2-1.78,4.35-7.51,4.35-7.51s2.37,5.73,4.35,7.51h-1.78a19.43,19.43,0,0,0,4.15,5.73h-2a12.45,12.45,0,0,0,3.36,5.34h-2.37A51.88,51.88,0,0,0,314.66,247.54Z"/><path class="cls-19" d="M324.94,265.57l3.16-2.07c-.82-.2-1.63-1.06-2.45-1.26a1.31,1.31,0,0,0-.44,0,4.35,4.35,0,0,1-1.49.21,7.18,7.18,0,0,0,.88-.36,4.47,4.47,0,0,0,2.59-4.24c.2-2.79-.17-5.76,0-8.55l-.24-.17a5.19,5.19,0,0,0-1.21-.8h0a3.3,3.3,0,0,0-1.1-.23h-.12q-3.65-.12-7.37-.16-3.25,0-6.55,0H307c-4.32,0-8.67.1-13,.18l-4.16.09-7.21.15c-6.46.13-12.88.24-19.19.25h0q-3.46,0-6.86,0l-3.64-.06h-.75l-1.23,0q-8.48-.16-17-.4l-13-.39-2.25-.07-6-.19-5.32-.16-4.26-.13-2.34-.07-2.82-.08-3.62-.09-1.17,0q-3.55-.09-7.09-.15l-4.43-.08h-.45l-3.9-.05-3.22,0-3.24,0h-.22l-3.36,0H160c-1.25,0-2.5,0-3.75,0h0c-1.45,0-2.91,0-4.37.08h-.4l-3.58.09-.56.84-1.05,1.56-1.62,2.4a1.75,1.75,0,0,0-1.87,1.09c-.08.23-.16.45-.24.68l0,.12c-.65,1.93-1.1,3.9,0,5.78-2,0-2.65,1.24-2.69,2.16-.12,2.6-2.82,5.64-3.49,8.37,0,0,0,0,0,0a0,0,0,0,0,0,0,5.22,5.22,0,0,0-.13.81c0,.55,2.79.78,2.77,1.32l12.65,1,.38,0c1,.08,1.95.16,2.9.27a22.79,22.79,0,0,1,3,.52l-2.38.27c-4.59.54-9.29,1.15-14,1.31-.17,1-2.92,1.39-3.08,2.39,0,.11.43.32,1,.55h0a13.46,13.46,0,0,1,1.74.78,1.73,1.73,0,0,0,.81.41h0c1.24.35,3.33.29,4.26.86-.67.4-2.32.3-2.73.76a.44.44,0,0,0-.07.41c.39,2.39-1.65,5-1.28,7.36,0,0,0,0,0,0a11.35,11.35,0,0,0,2.67,1.2l24.72.1,2.68,0,2.51,0h0q46.58.24,93.25.88h0l14.26.22h0l9.7.16,5.79.11.71,0q12.16.22,24.29.49c.15-4.2.46-8.39.61-12.59a.37.37,0,0,0-.16-.37,9.64,9.64,0,0,0-2.58-1.24l-.17,0c-1.05-.09-2.65.37-3.63.23.82-.17,1.65-.32,2.5-.46h0c2-.33,4-.56,6.1-.69.46-2.9,1.08-6,1.54-8.93C327.19,267,326.91,265.79,324.94,265.57Z"/><path class="cls-20" d="M324.54,248c-23.49-.93-47.12-.46-70.68-.79-36.2-.49-72.52-2.77-108.67-1.79l-3.23,4.8a1.75,1.75,0,0,0-1.87,1.09c-.77,2.19-1.54,4.45-.27,6.59-2,0-2.65,1.24-2.69,2.16-.16,3.41-.7,7.12-.86,10.54l13,1a36.2,36.2,0,0,1,5.92.79c-5.35.57-10.86,1.38-16.34,1.58l-.49,3a.77.77,0,0,0,.13.72c.77.84,3.88.54,5.07,1.27-.67.4-2.32.3-2.73.77a.46.46,0,0,0-.07.41l1.4,8.58c59.19.19,118.82.68,177.94,2,.15-4.2.46-8.39.62-12.59a.37.37,0,0,0-.16-.37,2.08,2.08,0,0,0-.75-.2l-5.64-.84a62.1,62.1,0,0,1,8.61-1.15c.46-2.91,1.08-6,1.54-8.94.15-.92-.14-2.13-2.1-2.35l3.16-2.07L321,261.19a4.55,4.55,0,0,0,3.47-4.6C324.7,253.8,324.34,250.84,324.54,248Z"/><g class="cls-21"><path class="cls-22" d="M333,266.35c-11.78-2.33-24.9-3.27-37.39-4.48-13.1-1.27-27-1.67-40.37-1.74-27.33-.14-54.44,3.15-81,5.65-7.32.69-14.73,1-22.11,1.53-6.57.47-13.77,1.36-20.33.44-.14,0-.37.08-.17.11A64.36,64.36,0,0,0,145,268c6.24-.42,12.45-.85,18.71-1.22,13.38-.78,26.49-2.48,39.77-3.57,14-1.15,28.28-2.41,42.53-2.72,14-.31,28.52.08,42.33,1.05,7.32.52,14.5,1.39,21.74,2.09,7.64.73,15.27,1.53,22.51,2.9C332.82,266.58,333.31,266.41,333,266.35Z"/><path class="cls-22" d="M331.53,269.57c-4.15-1.3-9.33-1.71-14-2.43-6.49-1-13.15-1.82-19.84-2.48a370.58,370.58,0,0,0-39.29-2c-27.29.19-53.94,3.43-80.69,5.57-7.64.61-15.36,1.37-23.12,1.53-8.08.16-16.15-.27-24.23-.16-.13,0,0,.11.07.11,6.82.13,13.66.34,20.48.33s13.69-.53,20.52-1.05c13.23-1,26.38-2.19,39.56-3.33,12.87-1.11,25.82-2.11,38.9-2.5a353.87,353.87,0,0,1,40.91,1.37c7.6.65,15.13,1.48,22.53,2.5,5.82.81,13,1.43,18.09,3C332,270.18,331.91,269.69,331.53,269.57Z"/><path class="cls-22" d="M334.94,272.85c-23.49-5.08-50.55-8.49-76.69-7.73-6.38.18-12.7.7-19.06,1-6.68.32-13.38.58-20,1.14s-13,1.35-19.62,1.78c-6.38.42-12.6,1.23-19,1.61-7.71.46-15.74.77-23.52.83-8,.06-16-.32-24-.28-.19,0-.39.19-.13.19,6.9.07,13.79.31,20.69.36s13.92-.29,20.86-.55c6.64-.24,12.87-.92,19.39-1.46,5.93-.5,11.87-.87,17.77-1.46,13.13-1.31,26.53-1.78,39.85-2.54a268.89,268.89,0,0,1,40.77,1c14.69,1.43,28.29,4.07,42.33,6.39C334.91,273.15,335.23,272.91,334.94,272.85Z"/><path class="cls-22" d="M330.67,275.45c-22.56-4.38-45.35-8.65-70.33-8-6.62.17-13.2.55-19.78.91s-12.9.61-19.27,1.22-12.82,1.4-19.28,2c-6.28.57-12.68.92-19,1.25-5.83.3-11.61.35-17.46.46-2,0-4,.09-6,.32a19.78,19.78,0,0,0-2.81.52c-.43.12-2.22.61-2,.88a.74.74,0,0,0,.37.19,21.28,21.28,0,0,0,6.39.73c5.31,0,10.51,0,15.82.19,11.84.53,23.79,1,35.54,1.82,12,.88,24.17,2,36.07,3.18,11.32,1.16,22.22,2.08,33.84,2.3,12.73.23,25.45.17,37.82-1.37.8-.1-.23-.47-.78-.4-12,1.46-24.25,1.54-36.54,1.32-11.9-.21-23.11-1.15-34.72-2.31-11-1.09-22.16-2-33.26-2.83-11.34-.86-22.83-1.16-34.25-1.73-5.22-.26-10.51-.49-15.77-.42-1.59,0-3.67.24-5.4.12-.81-.05-4.94-.59-4-1.12a11.34,11.34,0,0,1,3.71-.87,96.12,96.12,0,0,1,11.79-.39c5.41,0,10.81-.35,16.17-.66,11.14-.65,21.88-1.79,32.87-2.83,11.32-1.06,23.09-1.51,34.59-1.95a236.16,236.16,0,0,1,39.51,1.62c12.31,1.58,24,3.92,35.84,6.12C330.73,275.76,331.24,275.56,330.67,275.45Z"/><path class="cls-22" d="M327.4,282.43c-6.11.48-11.64,1.84-17.72,2.37-6.45.57-13.11.69-19.66.77s-13.21,0-19.71-.48-13-1.3-19.47-1.91-12.94-.91-19.43-1.39-12.89-1.37-19.32-2.06a141,141,0,0,0-16.58-1c-6.84.07-13.5.47-20.36.25-6.57-.22-13.75-.34-20.1-1.18-3-.4-5.64-1.17-8.44-1.79s-5.94-1.25-5.79-2.92c0-.13-.63-.17-.65,0-.22,1.75,3,2.45,6,3.12a83.85,83.85,0,0,0,13.59,2.31c6.29.42,12.75.73,19.11.84,7.67.13,15.29-.56,23-.19,7.17.35,14.08,1.34,21.05,2.14,6.48.74,13,1,19.62,1.51,13.72,1,26.88,3.09,40.89,3.23,7.7.08,15.57,0,23.21-.52,7.47-.46,14.07-2.06,21.41-2.68C329,282.77,328.05,282.38,327.4,282.43Z"/><path class="cls-22" d="M329.59,285.21c-11.63,2.62-24.48,3.1-37.26,2.88s-25.51-.82-38.1-1.61c-13.38-.84-26.09-2.47-39.11-4-12.18-1.47-24.06-1.66-36.6-1.67-7.69,0-15.47,0-23.11-.43s-15.17-1.41-22.57-2.51c-.21,0-.42.07-.15.11A238.89,238.89,0,0,0,170.06,281c14.88.13,29.51-.11,44,1.68,12.7,1.57,25.08,3.22,38.14,4.09,12.76.85,25.72,1.43,38.6,1.73,13.58.31,27.35-.12,39.74-2.88C331.36,285.42,330.17,285.08,329.59,285.21Z"/><path class="cls-22" d="M226.7,292.56c-3.44-.38-5.87-1.59-8.69-2.48a86.28,86.28,0,0,0-10.33-2.46,221.27,221.27,0,0,0-23.2-2.44c-8.22-.59-16.54-1.06-24.59-2.06s-15.65-2.29-24.06-2.24c-.13,0-.26.14-.1.14,8.27.17,16,1.5,23.86,2.53s16.32,1.53,24.54,2.12c8.46.61,17.25,1.22,25.11,2.84a75,75,0,0,1,9.28,2.41c2.36.82,4.77,1.93,7.84,2.1C226.82,293,227.21,292.61,226.7,292.56Z"/><path class="cls-22" d="M219.35,292.17c-6.85-.88-13.47-2.09-20.29-3s-13.72-1.35-20.73-1.72c-7.59-.41-14.87-1-22.18-2-6.37-.89-12.93-1.93-19.67-1.89-.15,0-.24.08,0,.09A202,202,0,0,1,157,285.83c6.92,1,13.92,1.5,21.09,1.9,7,.39,13.86.82,20.59,1.73s13.44,2.13,20.29,3C219.39,292.53,220,292.26,219.35,292.17Z"/><path class="cls-22" d="M162.78,290.24c-6.6-2.49-16.19-3.41-24.53-3.6-.3,0-.57.29-.22.3a109.89,109.89,0,0,1,24.54,3.47C162.74,290.46,162.93,290.29,162.78,290.24Z"/><path class="cls-22" d="M295.71,251c-.86-1-3-1.17-5.11-1.3-5.09-.31-10.08-.61-15-1.31-9.4-1.33-18.33-3.24-28.28-3.53-.52,0-.44.26,0,.28,13.62.58,25.78,3.88,39.34,4.71,1.44.09,9,.22,5.78,1.6-2.11.91-7.12,1.05-9.9,1.24-6.47.42-12.52,1-18.8,1.89-6.74.9-13.7,1.48-20.51,2.27-7.12.83-14.14,1.4-21.47,1.65-14.35.5-28.73.74-43.09,1.1-7.61.19-15.25.47-22.73,1.16-7.83.72-15.48,1.81-23.36,2.42-.55,0,0,.28.35.25,11.44-.83,22.44-2.5,34-3.07,11.17-.55,22.43-.61,33.64-.84,10.92-.23,22.18-.3,33-1.19,5.3-.44,10.48-1.1,15.7-1.7,5.43-.62,10.91-1.07,16.28-1.8s10.87-1.32,16.55-1.67a58.56,58.56,0,0,0,13.54-2C295.67,251.1,295.75,251,295.71,251Z"/><path class="cls-22" d="M315.76,248.37c-9.17-1.7-18.26-3.4-27.61-4.89-.22,0-.51.2-.28.25,7.75,1.58,15.8,2.87,23.63,4.37,3.12.6,6.33,1.1,9.31,1.84,2.3.57,6.61,1.72,6.59,3.12,0,2-9.1,2.17-12.18,2.26-7.69.22-15.32.22-23,.63-17.66.94-35.2,2.25-52.87,3.16-17.52.9-35,1.73-52.64,2.26-18.78.56-37.77,1.1-55.66,4-.14,0-.19.16,0,.13,17.91-2.76,36.77-3.33,55.51-3.81,19.37-.49,38.65-1.48,57.92-2.46s38.4-2.66,57.72-3.24c6.28-.19,12.78.07,19-.58,2.54-.27,6.56-.77,7.09-2.17C329.24,250.67,319.44,249,315.76,248.37Z"/><path class="cls-22" d="M291.34,258.36c5.93-.16,11.74.6,17.65.56a92.18,92.18,0,0,0,10.69-1.05c3.9-.47,8.21-.6,11.82-1.48.13,0-.07-.1-.16-.08-5,.7-10.22,1.12-15.29,1.79a66.83,66.83,0,0,1-12.55.44c-5.48-.27-14-1.26-18.76.51-.19.07.15.17.26.18,7.21,1,14.74.7,22.11,1.16,8,.5,15.56,1.93,23.27,3,.45.06.36-.18,0-.23-8.28-1.18-16.45-2.71-25.16-3.09-4.85-.21-9.76-.15-14.59-.46-.86-.06-4.81-.19-4.49-.68S290.58,258.38,291.34,258.36Z"/><path class="cls-22" d="M281.69,251.58c-1.33-1.53-7.73-1.77-10.66-2-7.44-.71-14-2.44-21.15-3.6-.36-.06-.89.15-.39.24,5.57,1.06,11.08,2.26,16.81,3.12,3.36.51,6.92.65,10.29,1.15a14.87,14.87,0,0,1,2.81.54c.91.36,1.17.13.42.61a4.56,4.56,0,0,1-1.56.39,65.05,65.05,0,0,1-9.07.74c-5.69.19-11.39,0-17.08.06-12.85.11-25.29,1.76-38,2.54-12.83.79-25.8,1.21-38.73,1.38-7.18.09-14.12.44-21.17,1.07-3.11.28-6.24.52-9.34.81a102.07,102.07,0,0,1-10.78.77c-.34,0-.37.16,0,.17,5.12.09,10.39-.69,15.39-1.11,6.59-.55,13.08-1.16,19.78-1.34,13.58-.37,27.07-.55,40.62-1.24s26.76-2.45,40.38-2.73c10.41-.21,21.48.64,31.28-1.39C281.65,251.69,281.73,251.63,281.69,251.58Z"/><path class="cls-22" d="M251.36,248.4c-5-1.57-10.49-2.75-15.94-3.91-.41-.09-.65.31-.3.39,5.36,1.14,10.82,2.3,15.71,3.84a11.37,11.37,0,0,1,2.71,1c1.81,1.51-1.13,1.34-2.5,1.3-2.09-.06-4.15-.26-6.25-.32-11.9-.34-23.79.31-35.53,1.15-6.26.45-12.5,1-18.76,1.39s-12.31.48-18.54.51c-12,0-23.54,1.45-35.47,1.6-.19,0-.26.19-.07.19,10.55.35,21.1-1.24,31.65-1.37,5.23-.06,10.46,0,15.68-.15,5.61-.19,11.19-.7,16.73-1.12,11.48-.87,23-1.74,34.67-1.88,4.78-.06,9.52,0,14.25.32,1.66.1,4.88.41,5.58-.59S252.84,248.86,251.36,248.4Z"/><path class="cls-22" d="M218.56,245.85a41.37,41.37,0,0,0-8.16-1.48c-.63,0-.54.27,0,.31,3.39.23,17.19,3.3,8.42,4.24-10.41,1.12-21.69.76-32.31,1-10.22.27-20.25,1.21-30.45,1.57-3.44.12-6.78.27-10.2.49s-8.93.79-12-.3c-.13,0-.4,0-.23.07,2,.76,4.93.74,7.42.68,4.27-.09,8.47-.5,12.74-.61,7-.18,13.89-.63,20.8-1.08,7.23-.47,14.52-.6,21.81-.72,6.48-.1,13-.2,19.4-.6,1.81-.11,6.94-.17,7.08-1.46C223,247.06,220,246.25,218.56,245.85Z"/><path class="cls-22" d="M187.39,247c-1.26-2.29-9.92-2.23-13.56-3.18-.35-.09-.49.31-.21.39a42.24,42.24,0,0,0,5.56.9c2.1.28,6.79.75,7.53,1.89,1.25,1.92-10.37,1.79-12.52,1.8-4,0-8-.12-12,0-4.55.11-9.14.2-13.66.45-3.62.2-7.37.82-11,.4-.19,0-.21.15-.06.17,3.9.65,8.35-.1,12.33-.26,4.79-.2,9.66-.4,14.47-.41,5.49,0,11,.21,16.45-.09C183.11,248.95,188.3,248.68,187.39,247Z"/><path class="cls-22" d="M330.65,277.41c-7.54-1.53-16.17-2.41-24.2-3.22-8.67-.87-17.33-1.78-26.15-2.3-9.74-.58-19.23-.11-29-.25-8.27-.12-16.61-.39-24.83.31-3.27.28-8.41.74-10.86,1.87s2.08,1.48,3.79,1.6c9.65.72,19.34,1.14,28.9,2.13,9.15.95,18.2,2.11,27.48,2.77,10,.71,20.37.76,30.5.74,5.41,0,13.18.28,17.6-1.43.26-.1-.27-.23-.47-.15-4.19,1.56-11.48,1.34-16.57,1.34-8,0-16.1-.09-24.11-.39-16.17-.61-31.61-3.22-47.6-4.34-4-.28-8-.51-12-.76-1.66-.1-9-.19-6.2-1.44,2.41-1.07,8-1.52,11.18-1.72,8.48-.53,16.78-.24,25.27-.19,8.21,0,16.31-.27,24.51.15,9.19.47,18.19,1.4,27.21,2.3,8.29.83,17.26,1.7,25,3.28C330.75,277.85,331.4,277.56,330.65,277.41Z"/><path class="cls-22" d="M323.63,278.41c-5.89-.14-11.8.27-17.68.38-6.38.12-12.6-.22-18.9-.66-5.87-.41-11.7-.91-17.51-1.46-2.73-.26-5.43-.56-8.2-.72-1.44-.09-2.88-.14-4.32-.24a22.72,22.72,0,0,1-4.58-.44c-1.57-.66,1-.63,2.34-.66s2.82,0,4.22.05c2.85.09,5.72.18,8.55.36,5.86.38,11.6.87,17.51,1.08,12.41.43,24.81.79,37.2,1.29.53,0,.63-.21.09-.26-6.53-.62-13.57-.65-20.21-.88s-13.12-.31-19.66-.58c-6.1-.25-12.08-.9-18.18-1.14-4.83-.19-10.24-.63-14.83.28-.28.05-.24.21,0,.26,4.68,1,9.85,1,14.87,1.42,6.69.59,13.33,1.27,20.06,1.76,6.34.47,12.73.93,19.17.88,6.69,0,13.43-.37,20.11-.58C324.06,278.56,323.9,278.42,323.63,278.41Z"/></g><text class="cls-23" transform="translate(155.89 277.43)"><tspan class="cls-24">W</tspan><tspan x="23.08" y="0">ena</tspan><tspan class="cls-25" x="74.33" y="0">t</tspan><tspan x="86.24" y="0">chee</tspan></text><text class="cls-26" transform="translate(187.58 303.21)">National <tspan class="cls-27" x="56.72" y="0">F</tspan><tspan x="63.32" y="0">orest</tspan></text></g></g></svg>