<svg xmlns="http://www.w3.org/2000/svg" viewBox="0 0 449 449"><defs><style>.cls-1{fill:#fff;}.cls-2{opacity:0.41;}</style></defs><title>logo</title><g id="bg"><rect width="449" height="449"/></g><g id="Layer_1" data-name="Layer 1"><circle class="cls-1" cx="125.41" cy="212.49" r="39.46"/><path d="M149.95,175.17s-47.74,15.47-69.26,33.62C88.76,201.39,114.31,183.91,149.95,175.17Z"/><path d="M80.69,206.1s55.14-1.34,90.78,16.14C171.47,222.24,140.54,208.12,80.69,206.1Z"/><path d="M168.3,220.43c-29.78,1.81-52,5.84-80.21,20C106.91,232.32,135.83,222.91,168.3,220.43Z"/><path class="cls-1" d="M221.13,217.78a10.36,10.36,0,0,1-1,4.6,10.86,10.86,0,0,1-2.87,3.63,13.38,13.38,0,0,1-4.45,2.38,18.59,18.59,0,0,1-5.79.85,28.7,28.7,0,0,1-6-.65,24.25,24.25,0,0,1-5.59-1.9l1.65-6.07a27.31,27.31,0,0,0,4.57,1.65,19.84,19.84,0,0,0,5.19.68,8.34,8.34,0,0,0,4.63-1.16,3.78,3.78,0,0,0,1.79-3.38,4,4,0,0,0-1.7-3.35,23.11,23.11,0,0,0-5.22-2.72,37.29,37.29,0,0,1-4.43-2.13,14.26,14.26,0,0,1-3.23-2.47,10,10,0,0,1-2-3,10.72,10.72,0,0,1,2.84-11.8q3.55-2.81,9.51-2.81a25.94,25.94,0,0,1,5.62.57,20,20,0,0,1,4.94,1.82L218,198.55a24,24,0,0,0-4.17-1.56,16.86,16.86,0,0,0-4.45-.6,7.65,7.65,0,0,0-4,.94,3.18,3.18,0,0,0-1.53,2.92,4.51,4.51,0,0,0,.26,1.59,3.22,3.22,0,0,0,.94,1.28,9.73,9.73,0,0,0,1.79,1.19q1.11.6,2.81,1.33,2.27,1,4.34,2a17.86,17.86,0,0,1,3.66,2.5,11.37,11.37,0,0,1,2.55,3.29A9.29,9.29,0,0,1,221.13,217.78Z"/><path class="cls-1" d="M250.58,228.56V212.68H234.92v15.89H227V190.77h7.94v15.32h15.66V190.77h7.94v37.79Z"/><path class="cls-1" d="M300.92,228.56h-8.23L290,220.62H274.47l-2.67,7.94h-8.23l14.36-37.79h8.63Zm-18.67-31.44-5.67,17.19h11.35Z"/><path class="cls-1" d="M333.32,202.29a10.31,10.31,0,0,1-2.27,6.78,14.26,14.26,0,0,1-6.53,4.23l12.77,15.26h-9.87l-11-13.79h-2.55v13.79H306V190.77h11.29a27.67,27.67,0,0,1,6.47.71,15.33,15.33,0,0,1,5.08,2.16,10.42,10.42,0,0,1,3.32,3.6A10.28,10.28,0,0,1,333.32,202.29Zm-7.94.17a4.48,4.48,0,0,0-2.27-4.2,11.76,11.76,0,0,0-5.9-1.31h-3.29v11.8h2.38a12.11,12.11,0,0,0,6.58-1.59A5.22,5.22,0,0,0,325.37,202.46Z"/><path class="cls-1" d="M367.59,202.69a11,11,0,0,1-1.31,5.45,11.5,11.5,0,0,1-3.58,3.89,16.27,16.27,0,0,1-5.36,2.33,27.44,27.44,0,0,1-6.61.77h-1.53v13.45h-7.94V190.77h10.33a26.79,26.79,0,0,1,6.33.71,15.32,15.32,0,0,1,5.08,2.18,10.6,10.6,0,0,1,3.38,3.72A10.94,10.94,0,0,1,367.59,202.69Zm-7.94,0a4.78,4.78,0,0,0-2.18-4.34,11,11,0,0,0-5.93-1.39h-2.33v12h1.93a11,11,0,0,0,6.24-1.53A5.29,5.29,0,0,0,359.65,202.69Z"/><path class="cls-2" d="M186.28,189.48l191-5.38L388,199.57s-90.1,9.41-201.72,12.1Z"/></g></svg>