<svg xmlns="http://www.w3.org/2000/svg" viewBox="0 0 449 449"><defs><style>.cls-1{fill:#fff;}</style></defs><title>logo</title><g id="bg"><rect width="449" height="449"/></g><g id="Layer_1" data-name="Layer 1"><path class="cls-1" d="M94.24,290.26A2.86,2.86,0,0,0,92,292.8c0,1.52.84,2.45,4.52,3.87,5.49,2.11,6.73,5,6.73,7.87,0,4.8-4,7.93-8.58,8v-1.8c1.49-.46,2.76-1.15,2.82-2.85.06-2-2.23-2.76-3.72-3.41-3.9-1.64-7.53-3.41-7.53-8.27,0-4.71,3.41-7.62,8-7.78Zm-8,14.91c0-.65.12-1.52,1-1.52a1.2,1.2,0,0,1,1.15,1c.43,2.48,2.17,5.55,4.9,6.1v1.8c-2.7-.06-3.29-1.15-4.4-1.15s-.9,1-1.67,1c-1,0-1-1.15-1-1.3Zm16.18-10c0,.71-.12,1.49-1,1.49-.74,0-1-.59-1.12-1.21a6.47,6.47,0,0,0-4.68-5.18v-1.8c2,0,4,1.21,4.37,1.21.81,0,.74-1.12,1.55-1.12,1,0,.9,1.05.9,1.3Z"/><path class="cls-1" d="M115.75,312.11h-3.69l-5.52-20.17c-.15-.59-.22-.81-.77-1.05s-.74-.37-.74-.93c0-1,1.27-1,2-1h7.19c.68,0,1.77-.09,1.77.9s-1.39.77-1.39,1.92a2.45,2.45,0,0,0,.16.77l3.07,11.37Zm7.16-23.18L127,304.39l-2,7.72h-3.69l-4-14.94,2.11-8.24Zm3.81,9.45,1.18-4.83a5.74,5.74,0,0,0,.22-1.27c0-1.61-2-1.36-2-2.51,0-.71.65-.84,1.21-.84h4c.59,0,1.27.06,1.27.87,0,.46-.25.59-.65.78-1.55.68-2,1.77-2.36,3.32l-2,7.87-.06,0Z"/><path class="cls-1" d="M142.5,290.26a2.08,2.08,0,0,0-1.58,2.23v16.05a2.08,2.08,0,0,0,1.58,2.23v1.8c-6.57-.59-9.64-5.89-9.64-12.06s3.07-11.47,9.64-12.05Zm1.39,20.52a2.08,2.08,0,0,0,1.58-2.23V292.49a2.08,2.08,0,0,0-1.58-2.23v-1.8c6.57.59,9.64,5.89,9.64,12.05s-3.07,11.47-9.64,12.06Z"/><path class="cls-1" d="M157.5,292.4c0-1.15,0-1.33-1.05-1.67a.86.86,0,0,1-.68-.84c0-.9,1-1,1.15-1h8.18v19.71c0,1.15,0,1.33,1.05,1.67a.86.86,0,0,1,.68.84c0,.9-1,1-1.15,1h-8.77c-.12,0-1.15-.06-1.15-1a.86.86,0,0,1,.68-.84c1.08-.34,1.05-.53,1.05-1.67Zm9-3.47h.15c2,0,4.12-.06,6,.84a5.35,5.35,0,0,1,3.16,5.08c.06,3.56-2.29,5.11-5.45,5.86v.06c2.76.4,5.39,1.21,5.45,4.49V308c0,.28-.09.9.31.9s.59-.9,1.33-.9a1,1,0,0,1,.9.9,4.25,4.25,0,0,1-1.7,2.57,5.11,5.11,0,0,1-3.5,1.12,4.71,4.71,0,0,1-3.5-1.3,5.21,5.21,0,0,1-1.24-3.94v-2.11c0-1.43,0-3.16-1.89-3.35v-1.83c1.67-.15,1.89-1.18,1.89-2.7v-3.75c0-1.55-.34-2.29-1.89-2.85Z"/><path class="cls-1" d="M188.09,312.11h-7.87c-.68,0-1.46-.06-1.46-1a.86.86,0,0,1,.68-.84c1.08-.34,1.05-.53,1.05-1.67V292.4c0-.46.06-1.3-.53-1.49s-1.21-.31-1.21-1.08.77-.9,1.39-.9h7.93Zm1.39-23.18c5.27-.06,9.67,3.59,10,11.59.34,7.28-4.9,11.59-10,11.59v-1.8c1.89-.25,2-2,2-3.19v-13.2c0-1.18-.09-2.94-2-3.19Z"/><path class="cls-1" d="M218.22,300.89a1.32,1.32,0,0,0-.43,1,1.44,1.44,0,0,0,.22.9l3.1,5.73c.68,1.3,1,1.15,2,1.15l.93,1.61c-6.66,3.72-12.24-1.05-12.09-5.33.12-3.1,2.7-5.61,5.42-6.57Zm.15-2.36a9.22,9.22,0,0,1-1.12-4.34c0-3.44,3.35-5.76,6.57-5.76l1.12.09v2.11a1.53,1.53,0,0,0-1.08,1.52,4.27,4.27,0,0,0,.62,2l7.87,14.66a3.24,3.24,0,0,0,1.36,1.58c.43.22.59.34.59.84,0,.9-.9.93-1.05.93h-7.31Zm8-9.79a4.13,4.13,0,0,1,3.41,4.09,4.9,4.9,0,0,1-2.32,4.06l-.84-1.55a3,3,0,0,0,1.3-2.42,2.49,2.49,0,0,0-1.55-2.29Zm3.9,13.39a3,3,0,0,0,.5-1.61c0-1.18-.71-1.61-.71-2.17,0-.77,1.27-1.12,1.89-1.12,1.05,0,1.27,1.08,1.27,1.92a6.6,6.6,0,0,1-2.08,4.59Z"/><path class="cls-1" d="M255,290.26a2.86,2.86,0,0,0-2.2,2.54c0,1.52.84,2.45,4.52,3.87,5.49,2.11,6.73,5,6.73,7.87,0,4.8-4,7.93-8.58,8v-1.8c1.49-.46,2.76-1.15,2.82-2.85.06-2-2.23-2.76-3.72-3.41-3.9-1.64-7.53-3.41-7.53-8.27,0-4.71,3.41-7.62,8-7.78Zm-8,14.91c0-.65.12-1.52,1-1.52a1.2,1.2,0,0,1,1.15,1c.43,2.48,2.17,5.55,4.9,6.1v1.8c-2.7-.06-3.29-1.15-4.4-1.15s-.9,1-1.67,1c-1,0-1-1.15-1-1.3Zm16.18-10c0,.71-.12,1.49-1,1.49-.74,0-1-.59-1.12-1.21a6.47,6.47,0,0,0-4.68-5.18v-1.8c2,0,4,1.21,4.37,1.21.81,0,.74-1.12,1.55-1.12,1,0,.9,1.05.9,1.3Z"/><path class="cls-1" d="M276.4,308.64c0,1.15,0,1.33,1.05,1.67a.86.86,0,0,1,.68.84c0,.9-1,1-1.15,1h-8.77c-.12,0-1.15-.06-1.15-1a.86.86,0,0,1,.68-.84c1.08-.34,1.05-.53,1.05-1.67V292.4c0-1.15,0-1.33-1.05-1.67a.86.86,0,0,1-.68-.84c0-.9,1-1,1.15-1H277c.12,0,1.15.06,1.15,1a.86.86,0,0,1-.68.84c-1.08.34-1.05.53-1.05,1.67Zm4.12-7.41h-2.73v-1.8h2.73v-7c0-1.15,0-1.33-1.05-1.67a.86.86,0,0,1-.68-.84c0-.9,1-1,1.15-1h8.77c.12,0,1.15.06,1.15,1a.86.86,0,0,1-.68.84c-1.08.34-1.05.53-1.05,1.67v16.24c0,1.15,0,1.33,1.05,1.67a.86.86,0,0,1,.68.84c0,.9-1,1-1.15,1h-8.77c-.12,0-1.15-.06-1.15-1a.86.86,0,0,1,.68-.84c1.08-.34,1.05-.53,1.05-1.67Z"/><path class="cls-1" d="M302.31,308.64c0,1.15,0,1.33,1.05,1.67a.86.86,0,0,1,.68.84c0,.9-1,1-1.15,1h-8.77c-.12,0-1.15-.06-1.15-1a.86.86,0,0,1,.68-.84c1.08-.34,1.05-.53,1.05-1.67V292.4c0-1.15,0-1.33-1.05-1.67a.86.86,0,0,1-.68-.84c0-.9,1-1,1.15-1h8.77c.12,0,1.15.06,1.15,1a.86.86,0,0,1-.68.84c-1.08.34-1.05.53-1.05,1.67Z"/><path class="cls-1" d="M307.74,288.93h8.18v23.18h-8.18c-.12,0-1.15-.06-1.15-1a.86.86,0,0,1,.68-.84c1.08-.34,1.05-.53,1.05-1.67V292.4c0-1.15,0-1.33-1.05-1.67a.86.86,0,0,1-.68-.84C306.59,289,307.61,288.93,307.74,288.93Zm9.58,0h6.91v6.29c0,.15,0,.74-1,.74-.53,0-.68-.31-.84-.77a6,6,0,0,0-5.11-4.46Zm0,10.35a3.31,3.31,0,0,0,2.17-2.73c.16-.53.34-1,1-1,1,0,.81,1.12.81,1.36v6.69c0,.25.15,1.36-.81,1.36-.65,0-.84-.5-1-1a3.31,3.31,0,0,0-2.17-2.73Zm0,11a6.35,6.35,0,0,0,5.27-4.49c.22-.46.4-1,1-1a.88.88,0,0,1,.9,1.05v6.2h-7.13Z"/><path class="cls-1" d="M336.41,312.11h-8.18c-.12,0-1.15-.06-1.15-1a.86.86,0,0,1,.68-.84c1.08-.34,1.05-.53,1.05-1.67V292.4c0-1.15,0-1.33-1.05-1.67a.86.86,0,0,1-.68-.84c0-.9,1-1,1.15-1H337c.12,0,1.15.06,1.15,1a.86.86,0,0,1-.68.84c-1.08.34-1.05.53-1.05,1.67Zm1.39-1.8c2.51-.34,3.94-2.51,4.59-5.39.16-.68.53-.87,1.18-.87s.77.59.77,1.18v6.88H337.8Z"/><path class="cls-1" d="M354.48,312.11h-7.87c-.68,0-1.46-.06-1.46-1a.86.86,0,0,1,.68-.84c1.08-.34,1.05-.53,1.05-1.67V292.4c0-.46.06-1.3-.53-1.49s-1.21-.31-1.21-1.08.77-.9,1.39-.9h7.93Zm1.39-23.18c5.27-.06,9.67,3.59,10,11.59.34,7.28-4.9,11.59-10,11.59v-1.8c1.89-.25,2-2,2-3.19v-13.2c0-1.18-.09-2.94-2-3.19Z"/><path class="cls-1" d="M237.81,195.76h-.15v-3.83a17.72,17.72,0,1,0-35.44,0v3.83h-.15a5.07,5.07,0,0,0-5.06,5.06v25.65a5.07,5.07,0,0,0,5.06,5.06h35.74a5.06,5.06,0,0,0,5.06-5.06V200.82A5.06,5.06,0,0,0,237.81,195.76Zm-28.3-3.83a10.42,10.42,0,1,1,20.85,0v3.83H209.52Z"/><path class="cls-1" d="M167.05,182a4.25,4.25,0,1,1,4.25-4.25A4.25,4.25,0,0,1,167.05,182Zm0-6.5a2.25,2.25,0,1,0,2.25,2.25A2.25,2.25,0,0,0,167.05,175.54Z"/><path class="cls-1" d="M165.85,171a4.25,4.25,0,1,1,4.25-4.25A4.25,4.25,0,0,1,165.85,171Zm0-6.5a2.25,2.25,0,1,0,2.25,2.25A2.25,2.25,0,0,0,165.85,164.46Z"/><path class="cls-1" d="M176.36,176.82a4.25,4.25,0,1,1,4.25-4.25A4.25,4.25,0,0,1,176.36,176.82Zm0-6.5a2.25,2.25,0,1,0,2.25,2.25A2.25,2.25,0,0,0,176.36,170.32Z"/><path class="cls-1" d="M188.19,176.17a4.25,4.25,0,1,1,4.25-4.25A4.25,4.25,0,0,1,188.19,176.17Zm0-6.5a2.25,2.25,0,1,0,2.25,2.25A2.25,2.25,0,0,0,188.19,169.67Z"/><path class="cls-1" d="M200,172.26a4.25,4.25,0,1,1,4.25-4.25A4.25,4.25,0,0,1,200,172.26Zm0-6.5a2.25,2.25,0,1,0,2.25,2.25A2.25,2.25,0,0,0,200,165.76Z"/><path class="cls-1" d="M209.78,167a4.25,4.25,0,1,1,4.25-4.25A4.25,4.25,0,0,1,209.78,167Zm0-6.5a2.25,2.25,0,1,0,2.25,2.25A2.25,2.25,0,0,0,209.78,160.55Z"/><path class="cls-1" d="M169,193.12a4.25,4.25,0,1,1,4.25-4.25A4.25,4.25,0,0,1,169,193.12Zm0-6.5a2.25,2.25,0,1,0,2.25,2.25A2.25,2.25,0,0,0,169,186.62Z"/><path class="cls-1" d="M171.15,204.85a4.25,4.25,0,1,1,4.25-4.25A4.25,4.25,0,0,1,171.15,204.85Zm0-6.5a2.25,2.25,0,1,0,2.25,2.25A2.25,2.25,0,0,0,171.15,198.35Z"/><path class="cls-1" d="M175.43,215.93a4.25,4.25,0,1,1,3.9-5.94h0a4.25,4.25,0,0,1-3.9,5.94Zm0-6.5a2.25,2.25,0,1,0,2.07,1.35A2.24,2.24,0,0,0,175.43,209.43Z"/><path class="cls-1" d="M179.53,227.66a4.25,4.25,0,1,1,1.69-.35A4.25,4.25,0,0,1,179.53,227.66Zm0-6.5a2.25,2.25,0,1,0,2.06,1.35h0a2.25,2.25,0,0,0-2.06-1.35Z"/><path class="cls-1" d="M184.09,238.09a4.25,4.25,0,0,1-1.7-8.14,4.25,4.25,0,0,1,5.59,2.2h0a4.25,4.25,0,0,1-3.89,5.94Zm0-6.5a2.25,2.25,0,1,0,.82.16A2.24,2.24,0,0,0,184.09,231.59Z"/><path class="cls-1" d="M192.57,247.22a4.25,4.25,0,1,1,3.89-5.94h0a4.25,4.25,0,0,1-3.89,5.94Zm0-6.5a2.25,2.25,0,1,0,2.07,1.35A2.24,2.24,0,0,0,192.56,240.72Z"/><path class="cls-1" d="M200.66,255a4.26,4.26,0,1,1,1.69-.35A4.24,4.24,0,0,1,200.66,255Zm0-6.5a2.25,2.25,0,1,0,2.06,1.35h0A2.25,2.25,0,0,0,200.66,248.54Z"/><path class="cls-1" d="M209.41,260.91a4.25,4.25,0,1,1,3.9-5.94h0a4.25,4.25,0,0,1-3.9,5.94Zm0-6.5a2.25,2.25,0,1,0,2.06,1.35h0a2.25,2.25,0,0,0-2.06-1.35Z"/><path class="cls-1" d="M218.53,263.51a4.25,4.25,0,1,1,3.9-5.94h0a4.25,4.25,0,0,1-3.9,5.94Zm0-6.5a2.25,2.25,0,1,0,2.07,1.35A2.24,2.24,0,0,0,218.53,257Z"/><path class="cls-1" d="M218.53,159.22a4.25,4.25,0,1,1,4.25-4.25A4.25,4.25,0,0,1,218.53,159.22Zm0-6.5a2.25,2.25,0,1,0,2.25,2.25A2.25,2.25,0,0,0,218.53,152.73Z"/><path class="cls-1" d="M218.53,263.51a4.25,4.25,0,0,1-3.9-5.94h0a4.25,4.25,0,1,1,3.9,5.94Zm-2.06-5.15a2.25,2.25,0,1,0,3-1.17,2.25,2.25,0,0,0-3,1.17Z"/><polygon class="cls-1" points="221.44 197.75 198.43 197.75 192.17 190.2 172.02 190.2 172.02 187.2 193.58 187.2 199.84 194.75 221.44 194.75 221.44 197.75"/><polygon class="cls-1" points="224.14 209.48 201.13 209.48 194.87 201.94 174.72 201.94 174.72 198.94 196.28 198.94 202.54 206.48 224.14 206.48 224.14 209.48"/><polygon class="cls-1" points="227.92 220.56 204.91 220.56 198.66 213.02 178.5 213.02 178.5 210.02 200.06 210.02 206.32 217.56 227.92 217.56 227.92 220.56"/><rect class="cls-1" x="217.53" y="233.83" width="2" height="22.19"/><polygon class="cls-1" points="210.34 253.41 208.34 253.41 208.34 232.17 212.12 227.61 212.12 197.33 214.12 197.33 214.12 228.33 210.34 232.89 210.34 253.41"/><polygon class="cls-1" points="201.7 247.54 199.7 247.54 199.7 226.95 203.75 222.07 203.75 196.25 205.75 196.25 205.75 222.79 201.7 227.67 201.7 247.54"/><rect class="cls-1" x="217.52" y="158.22" width="2" height="43.02"/><polygon class="cls-1" points="207.9 192.77 205.9 192.77 205.9 176.44 208.88 172.85 208.88 166.04 210.88 166.04 210.88 173.57 207.9 177.16 207.9 192.77"/><polygon class="cls-1" points="213.66 219.84 196.44 219.84 196.44 178.72 199.15 175.46 199.15 171.26 201.15 171.26 201.15 176.18 198.44 179.44 198.44 217.84 213.66 217.84 213.66 219.84"/><polygon class="cls-1" points="211.5 223.75 187.25 223.75 187.25 175.17 189.25 175.17 189.25 221.75 211.5 221.75 211.5 223.75"/><polygon class="cls-1" points="213.66 201.59 182.92 201.59 175.37 192.48 175.37 175.82 177.37 175.82 177.37 191.75 183.86 199.59 213.66 199.59 213.66 201.59"/><polygon class="cls-1" points="210.96 208.11 182.66 208.11 182.66 194.76 164.56 172.92 164.56 169.95 166.56 169.95 166.56 172.2 184.66 194.04 184.66 206.11 210.96 206.11 210.96 208.11"/><polygon class="cls-1" points="193.59 239.72 191.59 239.72 191.59 234.12 197.25 227.3 206.63 227.3 206.63 229.3 198.19 229.3 193.59 234.84 193.59 239.72"/><polygon class="cls-1" points="186.33 231.23 184.79 229.96 189.42 224.38 208.25 224.38 208.25 226.38 190.36 226.38 186.33 231.23"/><polygon class="cls-1" points="183.62 224.05 182.08 222.78 188.87 214.59 207.17 214.59 207.17 216.59 189.81 216.59 183.62 224.05"/><polygon class="cls-1" points="224.56 215.65 221.56 215.65 221.56 202.29 202.48 179.29 170.42 179.29 170.42 176.29 203.89 176.29 224.56 201.21 224.56 215.65"/><rect class="cls-1" x="217.53" y="233.83" width="2" height="22.19"/><rect class="cls-1" x="217.54" y="158.22" width="2" height="43.02"/><path class="cls-1" d="M270,182a4.25,4.25,0,1,1,4.25-4.25A4.25,4.25,0,0,1,270,182Zm0-6.5a2.25,2.25,0,1,0,2.25,2.25A2.25,2.25,0,0,0,270,175.54Z"/><path class="cls-1" d="M271.22,171a4.25,4.25,0,1,1,4.25-4.25A4.25,4.25,0,0,1,271.22,171Zm0-6.5a2.25,2.25,0,1,0,2.25,2.25A2.25,2.25,0,0,0,271.22,164.46Z"/><path class="cls-1" d="M260.7,176.82a4.25,4.25,0,1,1,4.25-4.25A4.25,4.25,0,0,1,260.7,176.82Zm0-6.5a2.25,2.25,0,1,0,2.25,2.25A2.25,2.25,0,0,0,260.7,170.32Z"/><path class="cls-1" d="M248.88,176.17a4.25,4.25,0,1,1,4.25-4.25A4.25,4.25,0,0,1,248.88,176.17Zm0-6.5a2.25,2.25,0,1,0,2.25,2.25A2.25,2.25,0,0,0,248.88,169.67Z"/><path class="cls-1" d="M237.06,172.26A4.25,4.25,0,1,1,241.3,168,4.25,4.25,0,0,1,237.06,172.26Zm0-6.5A2.25,2.25,0,1,0,239.3,168,2.25,2.25,0,0,0,237.06,165.76Z"/><path class="cls-1" d="M227.28,167a4.25,4.25,0,1,1,4.25-4.25A4.25,4.25,0,0,1,227.28,167Zm0-6.5a2.25,2.25,0,1,0,2.25,2.25A2.25,2.25,0,0,0,227.28,160.55Z"/><path class="cls-1" d="M209.78,158.93a4.25,4.25,0,1,1,4.25-4.25A4.25,4.25,0,0,1,209.78,158.93Zm0-6.5a2.25,2.25,0,1,0,2.25,2.25A2.25,2.25,0,0,0,209.78,152.43Z"/><path class="cls-1" d="M188,158.93a4.25,4.25,0,1,1,4.25-4.25A4.25,4.25,0,0,1,188,158.93Zm0-6.5a2.25,2.25,0,1,0,2.25,2.25A2.25,2.25,0,0,0,188,152.43Z"/><path class="cls-1" d="M249.11,158.93a4.25,4.25,0,1,1,4.25-4.25A4.25,4.25,0,0,1,249.11,158.93Zm0-6.5a2.25,2.25,0,1,0,2.25,2.25A2.25,2.25,0,0,0,249.11,152.43Z"/><path class="cls-1" d="M227.28,158.93a4.25,4.25,0,1,1,4.25-4.25A4.25,4.25,0,0,1,227.28,158.93Zm0-6.5a2.25,2.25,0,1,0,2.25,2.25A2.25,2.25,0,0,0,227.28,152.43Z"/><path class="cls-1" d="M218.54,101.5a4.25,4.25,0,1,1,4.25-4.25A4.25,4.25,0,0,1,218.54,101.5Zm0-6.5a2.25,2.25,0,1,0,2.25,2.25A2.25,2.25,0,0,0,218.54,95Z"/><path class="cls-1" d="M268.06,193.12a4.25,4.25,0,1,1,4.25-4.25A4.25,4.25,0,0,1,268.06,193.12Zm0-6.5a2.25,2.25,0,1,0,2.25,2.25A2.25,2.25,0,0,0,268.06,186.62Z"/><path class="cls-1" d="M265.92,204.85a4.25,4.25,0,1,1,4.25-4.25A4.25,4.25,0,0,1,265.92,204.85Zm0-6.5a2.25,2.25,0,1,0,2.25,2.25A2.25,2.25,0,0,0,265.92,198.35Z"/><path class="cls-1" d="M261.63,215.93a4.25,4.25,0,0,1-3.9-5.94h0a4.25,4.25,0,1,1,3.9,5.94Zm-2.06-5.15a2.25,2.25,0,1,0,3-1.17,2.23,2.23,0,0,0-3,1.17Z"/><path class="cls-1" d="M257.54,227.66a4.26,4.26,0,1,1,1.56-.3A4.24,4.24,0,0,1,257.54,227.66Zm0-6.5a2.25,2.25,0,1,0,.89.19A2.25,2.25,0,0,0,257.54,221.17Z"/><path class="cls-1" d="M253,238.09a4.25,4.25,0,0,1-3.89-5.94h0a4.25,4.25,0,1,1,3.89,5.94Zm0-6.5a2.25,2.25,0,0,0-2.06,1.35h0a2.24,2.24,0,1,0,2.06-1.35Z"/><path class="cls-1" d="M244.5,247.22a4.25,4.25,0,0,1-3.9-5.94h0a4.25,4.25,0,1,1,3.9,5.94Zm0-6.5a2.25,2.25,0,0,0-2.06,1.35h0a2.24,2.24,0,1,0,2.06-1.35Z"/><path class="cls-1" d="M236.4,255a4.25,4.25,0,0,1-3.9-5.94h0a4.25,4.25,0,1,1,3.9,5.94Zm0-6.5a2.25,2.25,0,0,0-2.06,1.35h0a2.25,2.25,0,1,0,2.06-1.35Z"/><path class="cls-1" d="M227.65,260.91a4.26,4.26,0,1,1,1.56-.3A4.23,4.23,0,0,1,227.65,260.91Zm0-6.5a2.25,2.25,0,0,0-2.07,1.35h0a2.25,2.25,0,1,0,2.07-1.35Z"/><path class="cls-1" d="M218.53,263.51a4.25,4.25,0,0,1-3.9-5.94h0a4.25,4.25,0,1,1,3.9,5.94Zm-2.06-5.15a2.25,2.25,0,1,0,3-1.17,2.25,2.25,0,0,0-3,1.17Z"/><path class="cls-1" d="M218.53,159.22a4.25,4.25,0,1,1,4.25-4.25A4.25,4.25,0,0,1,218.53,159.22Zm0-6.5a2.25,2.25,0,1,0,2.25,2.25A2.25,2.25,0,0,0,218.53,152.73Z"/><path class="cls-1" d="M218.53,263.51a4.25,4.25,0,1,1,3.9-5.94h0a4.25,4.25,0,0,1-3.9,5.94Zm0-6.5a2.25,2.25,0,1,0,2.07,1.35A2.24,2.24,0,0,0,218.53,257Z"/><polygon class="cls-1" points="238.64 197.75 215.63 197.75 215.63 194.75 237.23 194.75 243.48 187.2 265.05 187.2 265.05 190.2 244.89 190.2 238.64 197.75"/><polygon class="cls-1" points="235.93 209.48 212.93 209.48 212.93 206.48 234.52 206.48 240.78 198.94 262.35 198.94 262.35 201.94 242.19 201.94 235.93 209.48"/><polygon class="cls-1" points="232.15 220.56 209.14 220.56 209.14 217.56 230.74 217.56 237 210.02 258.56 210.02 258.56 213.02 238.41 213.02 232.15 220.56"/><rect class="cls-1" x="217.53" y="233.83" width="2" height="22.19"/><polygon class="cls-1" points="228.72 253.41 226.72 253.41 226.72 232.89 222.94 228.33 222.94 197.33 224.94 197.33 224.94 227.61 228.72 232.17 228.72 253.41"/><polygon class="cls-1" points="237.37 247.54 235.37 247.54 235.37 227.67 231.32 222.79 231.32 196.25 233.32 196.25 233.32 222.07 237.37 226.95 237.37 247.54"/><rect class="cls-1" x="217.54" y="158.22" width="2" height="43.02"/><polygon class="cls-1" points="231.16 192.77 229.16 192.77 229.16 177.16 226.19 173.57 226.19 166.04 228.19 166.04 228.19 172.85 231.16 176.44 231.16 192.77"/><polygon class="cls-1" points="240.62 219.84 223.41 219.84 223.41 217.84 238.62 217.84 238.62 179.44 235.92 176.18 235.92 171.26 237.92 171.26 237.92 175.46 240.62 178.72 240.62 219.84"/><polygon class="cls-1" points="249.81 223.75 225.57 223.75 225.57 221.75 247.81 221.75 247.81 175.17 249.81 175.17 249.81 223.75"/><polygon class="cls-1" points="254.14 201.59 223.41 201.59 223.41 199.59 253.2 199.59 259.7 191.75 259.7 175.82 261.7 175.82 261.7 192.48 254.14 201.59"/><polygon class="cls-1" points="254.4 208.11 226.11 208.11 226.11 206.11 252.4 206.11 252.4 194.04 270.51 172.2 270.51 169.95 272.51 169.95 272.51 172.92 254.4 194.76 254.4 208.11"/><polygon class="cls-1" points="245.47 239.72 243.47 239.72 243.47 234.84 238.88 229.3 230.43 229.3 230.43 227.3 239.81 227.3 245.47 234.12 245.47 239.72"/><polygon class="cls-1" points="250.73 231.23 246.7 226.38 228.81 226.38 228.81 224.38 247.64 224.38 252.27 229.96 250.73 231.23"/><polygon class="cls-1" points="253.44 224.05 247.25 216.59 229.89 216.59 229.89 214.59 248.19 214.59 254.98 222.78 253.44 224.05"/><polygon class="cls-1" points="215.51 215.65 212.51 215.65 212.51 201.21 233.18 176.29 266.64 176.29 266.64 179.29 234.59 179.29 215.51 202.29 215.51 215.65"/><rect class="cls-1" x="217.53" y="219.42" width="2" height="36.59"/><rect class="cls-1" x="217.52" y="158.22" width="2" height="43.02"/><rect class="cls-1" x="217.55" y="100.44" width="2" height="51.2"/><rect class="cls-1" x="230.66" y="153.79" width="15.33" height="2"/><rect class="cls-1" x="191.21" y="153.79" width="15.42" height="2"/><rect class="cls-1" x="226.3" y="157.87" width="2" height="1.74"/><rect class="cls-1" x="208.67" y="158.71" width="2" height="0.84"/></g></svg>