<svg xmlns="http://www.w3.org/2000/svg" viewBox="0 0 449 449"><defs><style>.cls-1{fill:#fff;}</style></defs><title>logo</title><g id="bg"><rect class="cls-1" width="449" height="449"/><rect x="224" width="225" height="449"/></g><g id="Layer_1" data-name="Layer 1"><path d="M68.23,195.89,109,183.45,105,171,45,189.1l19.8,53.74H75l2.55-23.47,27.44.28,4.81-22.34ZM104,173.19l1,3.2-4.16-2.24ZM92.1,176.76l12,6.46L95,185.92l-12-6.46Zm-17.78,5.31,12,6.46-9.05,2.7-12-6.46ZM59.46,196.54l-9.34-5-.6-2,7-2.1,12,6.46Z"/><polygon points="120.84 242.56 114.62 242.56 110.09 223.33 123.67 222.2 120.84 242.56"/><polygon points="143.15 242.56 135.55 242.56 130.74 202.68 143.71 204.66 143.15 242.56"/><path d="M150.16,223.76h6.68v2.72a9.33,9.33,0,0,1,2.91-2.43,8,8,0,0,1,3.55-.72,6.79,6.79,0,0,1,3.54.79,5.89,5.89,0,0,1,2.13,2.36A10.75,10.75,0,0,1,172,224a7.94,7.94,0,0,1,3.42-.66,6.13,6.13,0,0,1,4.68,1.78q1.68,1.78,1.68,5.58v11.72h-6v-5a3,3,0,0,0-.49-1.88,2.15,2.15,0,0,0-1.79-1,2.53,2.53,0,0,0-2,.91,4.52,4.52,0,0,0-.77,2.93v4h-7.17V237.8a6.45,6.45,0,0,0-.14-1.67,2.28,2.28,0,0,0-.79-1.13,2.12,2.12,0,0,0-1.32-.43,2.55,2.55,0,0,0-2,.93,4.7,4.7,0,0,0-.79,3.06v3.87h-8.3Z"/><path d="M116.6,210.12a3.31,3.31,0,1,0,3.31,3.31A3.31,3.31,0,0,0,116.6,210.12Zm-.19,4.23a.58.58,0,1,1,.58-.58A.58.58,0,0,1,116.41,214.36Zm1.16-1.16a1.16,1.16,0,1,1,1.16-1.16A1.16,1.16,0,0,1,117.57,213.2Z"/><path d="M116.6,206.64a6.79,6.79,0,1,0,6.79,6.79A6.79,6.79,0,0,0,116.6,206.64Zm0,11.44a4.65,4.65,0,1,1,4.65-4.65A4.66,4.66,0,0,1,116.6,218.08Z"/><path class="cls-1" d="M289.64,195.13l40.73-12.45-4-12.45-60,18.1,19.8,53.74h10.18L299,218.61l27.44.28,4.81-22.34Zm35.79-22.7,1,3.2-4.16-2.24ZM313.51,176l12,6.46-9.05,2.71-12-6.46Zm-17.78,5.31,12,6.46-9.05,2.7-12-6.46Zm-14.87,14.47-9.34-5-.6-2,7-2.1,12,6.46Z"/><polygon class="cls-1" points="342.25 241.8 336.03 241.8 331.5 222.57 345.08 221.44 342.25 241.8"/><polygon class="cls-1" points="364.56 241.8 356.96 241.8 352.15 201.92 365.13 203.9 364.56 241.8"/><path class="cls-1" d="M371.57,223h6.68v2.72a9.33,9.33,0,0,1,2.91-2.43,8,8,0,0,1,3.55-.72,6.79,6.79,0,0,1,3.54.79,5.89,5.89,0,0,1,2.13,2.36,10.75,10.75,0,0,1,3.07-2.49,7.94,7.94,0,0,1,3.42-.66,6.13,6.13,0,0,1,4.68,1.78q1.68,1.78,1.68,5.58v11.72h-6v-5a3,3,0,0,0-.49-1.88,2.15,2.15,0,0,0-1.79-1,2.53,2.53,0,0,0-2,.91,4.52,4.52,0,0,0-.77,2.93v4H385V237a6.45,6.45,0,0,0-.14-1.67,2.28,2.28,0,0,0-.79-1.13,2.12,2.12,0,0,0-1.32-.43,2.55,2.55,0,0,0-2,.93,4.7,4.7,0,0,0-.79,3.06v3.87h-8.3Z"/><path class="cls-1" d="M338,209.36a3.31,3.31,0,1,0,3.31,3.31A3.31,3.31,0,0,0,338,209.36Zm-.19,4.23a.58.58,0,1,1,.58-.58A.58.58,0,0,1,337.82,213.6Zm1.16-1.16a1.16,1.16,0,1,1,1.16-1.16A1.16,1.16,0,0,1,339,212.44Z"/><path class="cls-1" d="M338,205.88a6.79,6.79,0,1,0,6.79,6.79A6.79,6.79,0,0,0,338,205.88Zm0,11.44a4.65,4.65,0,1,1,4.65-4.65A4.66,4.66,0,0,1,338,217.32Z"/></g></svg>