<svg xmlns="http://www.w3.org/2000/svg" viewBox="0 0 449 449"><defs><style>.cls-1{fill:#fff;}.cls-2{fill:#a81317;}.cls-3{fill:#701900;}</style></defs><title>logo</title><g id="bg"><rect class="cls-1" width="449" height="449"/></g><g id="Layer_1" data-name="Layer 1"><path class="cls-2" d="M112.8,169.6v56.51s3.61,22.44,42.08,23.65,41.68-34.47,41.68-34.47V169.6l-21.64,9.22-21.24,11.62-13.63-10-22-10Z"/><path d="M156.75,251.6l-1.92,0c-11.3-.35-26.84-2.86-36.7-12.81-6-6.1-7.07-12.1-7.11-12.36l0-.14V167.5l7.53,1.16L141,178.86l12.85,9.45,20.31-11.11,24.23-10.32v48.58a45.24,45.24,0,0,1-6.69,18.5C186.47,242.08,176.22,251.6,156.75,251.6Zm-42.14-25.65a22.32,22.32,0,0,0,6.27,10.46c7.16,7.09,18.94,11.09,34.06,11.56,15.28.48,26.61-4.89,33.69-16a42.24,42.24,0,0,0,6.13-16.8V172.33l-19.05,8.11-22.17,12.13L139.14,182l-21.65-9.84-2.89-.44Z"/><polygon class="cls-2" points="134.05 175.62 142.46 181.23 154.89 178.82 167.31 182.43 176.53 177.22 165.71 172.01 153.69 169.6 140.86 173.21 134.05 175.62"/><path d="M167.54,184.37l-12.74-3.7-12.72,2.46-12-8,10.33-3.64,13.24-3.72,12.67,2.53,14.14,6.81ZM155,177l12.11,3.52,5.55-3.14-7.51-3.61-11.38-2.28-12.35,3.47L138,176.11l4.8,3.2Z"/><polygon class="cls-3" points="143.06 181.43 152.65 189.69 167.51 182.23 155.09 178.62 143.06 181.43"/><path d="M155.62,251.34c-11.74,0-23.44-3.17-31.62-8.13-8.45-5.12-13-11.86-12.82-19-.22-3.65,3.26-8.34,10.91-14.73a220,220,0,0,1,25.05-17.42c19.22-11.77,40.34-22.28,49.13-24.43l2.23-.55v45.48c0,18.81-9.7,28.22-17.83,32.8C173.28,249.55,164.44,251.34,155.62,251.34ZM194.9,171.8c-9.46,3.08-28.72,12.85-45.87,23.36-25.72,15.76-34.52,25.42-34.25,28.9v.2c-.18,5.79,3.75,11.43,11.08,15.87,13.45,8.15,37,11.17,53,2.12,10.46-5.89,16-16.15,16-29.66Z"/><path d="M175.81,178.71c-.11-.06-11-6.28-21.09-7.48A89,89,0,0,0,134,177.59l-1.54-3.26a91.08,91.08,0,0,1,21.93-6.7l.24,0,.24,0c11,1.22,22.27,7.7,22.74,8Z"/><path d="M166.15,183.59a42.26,42.26,0,0,0-11.3-3.14,58.56,58.56,0,0,0-11.16,2.68l-1.24-3.39a61,61,0,0,1,12.15-2.9l.19,0,.19,0a44.94,44.94,0,0,1,12.66,3.47Z"/><path d="M114.79,224.2h-3.61V167.41l2,.2c.75.07,18.66,2,41.44,20l-2.24,2.83c-17.62-13.91-32.39-17.9-37.58-18.94Z"/><path d="M216.11,183.08c-1.78-3.51,3-5.84,3-5.84,3.76-1.84,6.23,0,6.23,0,3.65,2.5,2.45,13.64,2.45,13.64-.36,5.12-4,4.84-4,4.84-2.89,0-3.48-3.34-3.48-3.34a22.48,22.48,0,0,1,.53-9.3S217.42,185.67,216.11,183.08Z"/><path d="M242.33,187.31a2.72,2.72,0,0,1-2,3.06,16.76,16.76,0,0,1-7.6.25,3.09,3.09,0,0,1,0-6.1,17.8,17.8,0,0,1,7.1-.06A3.1,3.1,0,0,1,242.33,187.31Z"/><path d="M252.15,196.22c-4.43,0-7.6-2.23-7.6-6.46a5.59,5.59,0,0,1,2.73-5.29,4.32,4.32,0,0,1-1.45-3.45c0-3.23,2.64-5.07,6.18-5.07s6.1,1.81,6.1,5.07a4.49,4.49,0,0,1-1.25,3.48,5.84,5.84,0,0,1,2.92,5.26C259.78,194,256.58,196.22,252.15,196.22Zm-1-14.28a1,1,0,0,0,1.11,1,1,1,0,0,0,1.09-1,1.1,1.1,0,0,0-1.09-1.17A1.13,1.13,0,0,0,251.12,181.94Zm0,7.35a1,1,0,0,0,1.11,1,1,1,0,0,0,1.09-1,1.1,1.1,0,0,0-1.09-1.17A1.13,1.13,0,0,0,251.12,189.29Z"/><path d="M269.21,195.6c-4.17,0-7.32-3.12-7.32-8.52s1.14-11,7.32-11c6.68,0,7.32,5.62,7.32,11S273.39,195.6,269.21,195.6Zm-.89-9.3a1,1,0,0,0,1.09,1.06.92.92,0,0,0,1-1c0-.83-.42-1.25-1-1.25S268.32,185.5,268.32,186.31Z"/><path d="M285.69,195.6c-4.17,0-7.32-3.12-7.32-8.52s1.14-11,7.32-11c6.68,0,7.32,5.62,7.32,11S289.87,195.6,285.69,195.6Zm-.89-9.3a1,1,0,0,0,1.09,1.06.92.92,0,0,0,1-1c0-.83-.42-1.25-1-1.25S284.8,185.5,284.8,186.31Z"/><path d="M307.32,187.31a2.72,2.72,0,0,1-2,3.06,16.76,16.76,0,0,1-7.6.25,3.09,3.09,0,0,1,0-6.1,17.8,17.8,0,0,1,7.1-.06A3.1,3.1,0,0,1,307.32,187.31Z"/><path d="M231,221c5.4,4.59,1.31,7.65,1.31,7.65-4.17,3.34-7.35-4-7.49-4.4.72,4.79-3.09,5.12-3.09,5.12-3.73.47-4.7-3.34-4.7-3.34a19.57,19.57,0,0,1-.19-11.13c1.59-6.1,8-5.48,8-5.48,6.54,0,7.54,5.29,7.54,5.29A7.64,7.64,0,0,1,231,221Zm-7.29-3.2a1,1,0,0,0,1.11,1,1,1,0,0,0,1.09-1,1.1,1.1,0,0,0-1.09-1.17A1.13,1.13,0,0,0,223.74,217.76Z"/><path d="M245.75,229a8.26,8.26,0,0,1-2.81.61c-8.13,0-8.13-7.07-8.13-7.07,0-8.6,8.13-7.82,8.13-7.82,7.18,0,7.18,7,7.18,7a8.85,8.85,0,0,1-.86,4.09A7.85,7.85,0,0,1,245.75,229Zm-4.09-6.37a1,1,0,0,0,1.11,1,1,1,0,0,0,1.09-1,1.1,1.1,0,0,0-1.09-1.17A1.13,1.13,0,0,0,241.66,222.66Z"/><path d="M265.37,224.94c0,4.87-6.07,5-6.07,5-8.24.33-7.82-3.37-7.82-3.37-.14-3.7,5.29-3.67,5.29-3.67-5-1.17-4.76-4.06-4.76-4.06.22-4.73,7.13-4.56,7.13-4.56,5.2.11,6.21,1.56,6.12,3.37-.17,3.34-6,2.59-6,2.59C265.79,221.07,265.37,224.94,265.37,224.94Z"/><path d="M281.49,226.11a2.76,2.76,0,0,1-2,2.87,13.43,13.43,0,0,1-8.68-.39,6.72,6.72,0,0,1-3.81-6.74s0-5.34,4.62-7c0,0,4.9-1.7,8.46,1.48a5.44,5.44,0,0,1,1.56,3.9c0,2.87-2.92,3.65-5.51,3.15C278.29,225.08,281.16,223.52,281.49,226.11ZM274.31,221a1,1,0,0,0,1.11,1,1,1,0,0,0,1.09-1,1.1,1.1,0,0,0-1.09-1.17A1.13,1.13,0,0,0,274.31,221Z"/><path d="M291.43,215.62a6.75,6.75,0,0,1,7.71,1.73c1.59,1.81,1.81,5.48.75,7.74a6.74,6.74,0,0,1-3.4,3.48c-4.26,1.95-9.1.36-11.08-2.23-3.31-4.34-1.53-14-1.53-14s.61-4.82,4.45-4.48C293.1,208.27,291.43,215.62,291.43,215.62Zm-.42,6.62a1,1,0,0,0,1.11,1,1,1,0,0,0,1.09-1,1.1,1.1,0,0,0-1.09-1.17A1.13,1.13,0,0,0,291,222.24Z"/><path d="M310,218.43c0,1.28-.06,3.34.89,3.34s.84-1,.86-3.34c0-3.65,3.17-3.65,3.17-3.65a3.68,3.68,0,0,1,4.12,3,13.65,13.65,0,0,1-.83,7.51,7.09,7.09,0,0,1-7,4.26c-5.76-.14-7.29-2.89-7.29-2.89-2.28-3.34-1.09-8.8-1.09-8.8a3.68,3.68,0,0,1,4.23-3.09A3.37,3.37,0,0,1,310,218.43Z"/><path d="M334.71,228.48c-2.87,1.48-7.29,1.7-10,.31a6.31,6.31,0,0,1-3-3.7c-.58-2.28-.5-5.84,1.7-7.93,3.42-3.23,8-1.56,8-1.56s-1.36-7.49,3.4-7.49c4.2,0,4.56,5.12,4.56,5.12a28.67,28.67,0,0,1-.67,9.82c2.17,1,2.06,3.81.72,5.23C337.57,230.28,334.71,228.45,334.71,228.48Zm-4.51-5.93a1,1,0,0,0,1.11,1,1,1,0,0,0,1.09-1,1.1,1.1,0,0,0-1.09-1.17A1.13,1.13,0,0,0,330.2,222.55Z"/></g></svg>