<svg xmlns="http://www.w3.org/2000/svg" viewBox="0 0 449 449"><defs><style>.cls-1{fill:#fff;}.cls-2{font-size:20.45px;font-family:ArialRoundedMTBold, Arial Rounded MT Bold;}.cls-3{letter-spacing:-0.04em;}.cls-4{letter-spacing:-0.02em;}.cls-5{letter-spacing:0em;}.cls-6{letter-spacing:-0.01em;}.cls-7{fill:#cadac8;}</style></defs><title>logo</title><g id="bg"><rect class="cls-1" width="449" height="449"/></g><g id="Layer_1" data-name="Layer 1"><path d="M359.82,218.94c0,6.73-16.15,18.85-45.77,14.81s-25.58-24.23-25.58-24.23c4.31-19,15.78-27.43,23.49-31.08-3-4.09-9.36-11.32-9.36-11.32-1.35,26.92-32.31,32.31-32.31,32.31-8.08-37.69,22.88-59.23,31-53.84C308,150,313.72,170.16,315.51,177a25.84,25.84,0,0,1,3.93-1.1,37.25,37.25,0,0,1,10.77,1.35c.35.05.69.12,1,.2a90,90,0,0,0-.36-17C329.53,151,325.49,124,347,103.85c0,0,17.5,31,6.73,61.92a62.13,62.13,0,0,0-6.64,23.87C355,200.36,359.82,214.71,359.82,218.94Z"/><circle class="cls-1" cx="301.26" cy="200.77" r="12.11"/><path d="M301.26,213.65a12.88,12.88,0,1,1,12.88-12.88A12.9,12.9,0,0,1,301.26,213.65Zm0-24.23a11.35,11.35,0,1,0,11.35,11.35A11.36,11.36,0,0,0,301.26,189.42Z"/><path class="cls-1" d="M318.76,212.88s13.46-4,26.92-1.35c0,0,3.66-11.89-5.61-17.58a14.45,14.45,0,0,0-16.09.58C320.11,197.4,316.74,202.79,318.76,212.88Z"/><path d="M318.18,213.86,318,213c-1.2-6-1.21-14.14,5.51-19.11a15.3,15.3,0,0,1,17-.62c9.67,5.93,6,18.33,5.94,18.46l-.2.66-.68-.14c-13.11-2.62-26.42,1.29-26.55,1.33Zm14.24-21.28a13.41,13.41,0,0,0-8,2.58c-4.71,3.48-6.41,9.12-5.07,16.76,3.09-.82,14.25-3.38,25.76-1.27a20.37,20.37,0,0,0,.46-5.76c-.32-4.6-2.31-8.06-5.91-10.27A13.89,13.89,0,0,0,332.42,192.58Z"/><path class="cls-1" d="M344.7,123s-8.89,8.14-7.55,27.42c.68,9.86,2.76,12,2.76,17.36C339.91,167.79,358.15,137.25,344.7,123Z"/><path class="cls-1" d="M304.63,225.67s-2.69-1.35-2.69-2.69,6.73-1.35,6.73,0S304.63,225.67,304.63,225.67Z"/><text class="cls-2" transform="translate(59.87 283.85)"><tspan class="cls-3">T</tspan><tspan x="12" y="0">wit</tspan><tspan class="cls-4" x="41.4" y="0">c</tspan><tspan class="cls-5" x="53.05" y="0">hy </tspan><tspan class="cls-6" x="81.59" y="0">Rab</tspan><tspan x="120.42" y="0">bit</tspan></text><path class="cls-7" d="M173.55,216.63c0,6.73-16.15,18.85-45.77,14.81s-25.58-24.23-25.58-24.23c4.31-19,15.78-27.43,23.49-31.08-3-4.09-9.36-11.32-9.36-11.32C115,191.72,84,197.11,84,197.11c-8.08-37.69,22.88-59.23,31-53.84,6.69,4.46,12.45,24.58,14.24,31.39a25.84,25.84,0,0,1,3.93-1.1,37.25,37.25,0,0,1,10.77,1.35c.35.05.69.12,1,.2a90,90,0,0,0-.36-17c-1.35-9.42-5.38-36.34,16.15-56.54,0,0,17.5,31,6.73,61.92a62.13,62.13,0,0,0-6.64,23.87C168.76,198.05,173.55,212.4,173.55,216.63Z"/><path d="M139.27,233.21a86.06,86.06,0,0,1-11.62-.82c-10.93-1.49-18.66-5.31-23-11.36a19.28,19.28,0,0,1-3.43-14c4.12-18.13,14.54-27,23-31.24-2.13-2.76-5.28-6.47-7.12-8.62-1.21,10.31-7,18.82-16.93,24.72a51.84,51.84,0,0,1-16,6.18l-.91.16-.19-.9c-2.47-11.52-1.51-22.81,2.77-32.66a44.44,44.44,0,0,1,15.39-19.14c5.76-3.91,11.23-5.08,14.27-3.05,6.56,4.37,12.07,22.37,14.37,31a24.1,24.1,0,0,1,3.11-.81h.16a39.2,39.2,0,0,1,10.91,1.34,85.74,85.74,0,0,0-.42-15.73l0-.22a82.75,82.75,0,0,1-.44-24.53,54.66,54.66,0,0,1,16.92-32.63L161,100l.6,1.06a88.67,88.67,0,0,1,7.5,19.58c2.8,10.72,4.95,26.91-.7,43.13l-.07.15a61.77,61.77,0,0,0-6.5,23.11,80.85,80.85,0,0,1,9.22,17c2.1,5.24,3.45,10.17,3.45,12.57s-1.56,5-4.4,7.46c-3.74,3.26-9.36,5.91-15.84,7.45A64.79,64.79,0,0,1,139.27,233.21ZM115.5,162.38l1.56,1.79c.26.3,6.39,7.3,9.4,11.38l.7.94-1.06.5c-8.2,3.88-18.84,12.31-23,30.43a17.67,17.67,0,0,0,3.13,12.53c4,5.58,11.27,9.12,21.64,10.54,13.36,1.82,31.13.72,40.94-7.84,2.38-2.07,3.74-4.27,3.74-6,0-4.14-4.75-18.2-12.51-28.73l-.21-.28,0-.35a62.63,62.63,0,0,1,6.71-24.2c5.44-15.72,3.35-31.45.64-41.88a92.63,92.63,0,0,0-6.74-18.07c-20,19.58-16.36,45-15,54.6l0,.22a90.59,90.59,0,0,1,.37,17.22l-.07,1.13-1.11-.26c-.35-.08-.66-.14-1-.19l-.16,0a36.78,36.78,0,0,0-10.38-1.3,26.48,26.48,0,0,0-3.7,1l-1,.35-.27-1c-6.39-24.31-12.21-29.75-13.84-30.84-2.31-1.54-7.18-.32-12.13,3a43.44,43.44,0,0,0-14.7,18.31A51.27,51.27,0,0,0,84.78,196a51.77,51.77,0,0,0,14.46-5.78c10.17-6.08,15.6-14.64,16.14-25.44Z"/><circle class="cls-1" cx="115" cy="198.46" r="12.11"/><path d="M115,211.34a12.88,12.88,0,1,1,12.88-12.88A12.9,12.9,0,0,1,115,211.34Zm0-24.23a11.35,11.35,0,1,0,11.35,11.35A11.36,11.36,0,0,0,115,187.11Z"/><path class="cls-1" d="M132.5,210.57s13.46-4,26.92-1.35c0,0,4.95-16.08-11.24-19.78a9.8,9.8,0,0,0-4.76.08C138.73,190.8,129.44,195.28,132.5,210.57Z"/><path d="M131.91,211.55l-.17-.83c-1.38-6.88-.47-12.4,2.71-16.4a16.69,16.69,0,0,1,8.77-5.54,10.6,10.6,0,0,1,5.13-.09c5,1.13,8.51,3.51,10.56,7.06,3.52,6.1,1.34,13.39,1.24,13.69l-.2.66-.68-.14c-13.11-2.62-26.42,1.29-26.55,1.33Zm14-21.59a8.85,8.85,0,0,0-2.32.31c-5,1.36-12.92,5.68-10.52,19.34,3.09-.82,14.25-3.38,25.75-1.27.43-1.87,1.33-7.31-1.28-11.82-1.83-3.16-5.05-5.29-9.57-6.32A9.24,9.24,0,0,0,145.94,190Z"/><path class="cls-1" d="M158.43,120.7s-8.89,8.14-7.55,27.42c.68,9.86,2.76,12,2.76,17.36C153.65,165.48,171.88,134.94,158.43,120.7Z"/><path d="M152.88,168.26v-2.79a23.81,23.81,0,0,0-1-6.29,56.84,56.84,0,0,1-1.79-11c-1.35-19.42,7.42-27.7,7.79-28l.56-.51.52.55c5.7,6,6.68,15.89,2.83,28.48a88.39,88.39,0,0,1-7.51,17.22Zm5.54-46.43c-1.86,2.14-7.87,10.36-6.77,26.23a55.48,55.48,0,0,0,1.75,10.75,36.34,36.34,0,0,1,.84,4C158,155.67,168.32,133.46,158.42,121.83Z"/><path class="cls-1" d="M118.36,223.36s-2.69-1.35-2.69-2.69,6.73-1.35,6.73,0S118.36,223.36,118.36,223.36Z"/><path d="M118.29,224.4l-.36-.18c-.76-.38-3.22-1.75-3.22-3.55s2.71-2,4.33-2,4.33.26,4.33,2c0,.76-.61,2.24-4.7,3.6Zm-1.57-3.5a5.68,5.68,0,0,0,1.72,1.41,10.22,10.22,0,0,0,2.79-1.45A9.87,9.87,0,0,0,116.72,220.9Z"/><text class="cls-2" transform="translate(247.04 283.85)"><tspan class="cls-3">T</tspan><tspan x="12" y="0">wit</tspan><tspan class="cls-4" x="41.4" y="0">c</tspan><tspan class="cls-5" x="53.05" y="0">hy </tspan><tspan class="cls-6" x="81.59" y="0">Rab</tspan><tspan x="120.42" y="0">bit</tspan></text></g></svg>