<svg xmlns="http://www.w3.org/2000/svg" xmlns:xlink="http://www.w3.org/1999/xlink" viewBox="0 0 449 449"><defs><style>.cls-1{fill:none;}.cls-2{fill:#fff;}.cls-3{fill:aqua;}.cls-4{fill:#fbb03b;}.cls-5{fill:#00ada1;}.cls-6{fill:#c1272d;}.cls-7{fill:#858d99;}.cls-8{fill:#4d4d4d;}.cls-9{fill:#1a1a1a;}.cls-10{fill:#00a99d;}.cls-11{clip-path:url(#clip-path);}.cls-12{fill:#00f3f1;}.cls-13{fill:#00f2f0;}.cls-14{fill:#00f1ef;}.cls-15{fill:#00f0ee;}.cls-16{fill:#00efed;}.cls-17{fill:#00eeec;}.cls-18{fill:#00edeb;}.cls-19{fill:#00ecea;}.cls-20{fill:#00ebe9;}.cls-21{fill:#00ebe8;}.cls-22{fill:#00eae7;}.cls-23{fill:#00e9e6;}.cls-24{fill:#00e8e5;}.cls-25{fill:#00e7e4;}.cls-26{fill:#00e6e3;}.cls-27{fill:#00e5e2;}.cls-28{fill:#00e4e1;}.cls-29{fill:#00e4e0;}.cls-30{fill:#00e3df;}.cls-31{fill:#00e2de;}.cls-32{fill:#00e1dd;}.cls-33{fill:#00fefe;}.cls-34{fill:#00fdfd;}.cls-35{fill:#00fcfc;}.cls-36{fill:#00fbfb;}.cls-37{fill:#00fbfa;}.cls-38{fill:#00faf9;}.cls-39{fill:#00f9f8;}.cls-40{fill:#00f8f7;}.cls-41{fill:#00f7f6;}.cls-42{fill:#00f6f5;}.cls-43{fill:#00f5f4;}.cls-44{fill:#00f4f3;}.cls-45{fill:#00f3f2;}.cls-46{fill:#00e0dc;}.cls-47{fill:#00dfdb;}.cls-48{fill:#00deda;}.cls-49{fill:#00ddd9;}.cls-50{fill:#00dcd8;}.cls-51{fill:#00dcd7;}.cls-52{fill:#00dbd6;}.cls-53{fill:#00dad5;}.cls-54{fill:#00d9d4;}.cls-55{fill:#00d8d3;}.cls-56{fill:#00d7d2;}.cls-57{fill:#00d6d1;}.cls-58{fill:#00d5d0;}.cls-59{fill:#00d4cf;}.cls-60{fill:#00d4cd;}.cls-61{fill:#00d3cc;}.cls-62{fill:#00d2cb;}.cls-63{fill:#00d1ca;}.cls-64{fill:#00d0c9;}.cls-65{fill:#00cfc8;}.cls-66{fill:#00cec7;}.cls-67{fill:#00cdc6;}.cls-68{fill:#00ccc5;}.cls-69{fill:#00ccc4;}.cls-70{fill:#00cbc3;}.cls-71{fill:#00cac2;}.cls-72{fill:#00c9c1;}.cls-73{fill:#00c8c0;}.cls-74{fill:#00c7bf;}.cls-75{fill:#00c6be;}.cls-76{fill:#00c5bd;}.cls-77{fill:#00c4bc;}.cls-78{fill:#00c4bb;}.cls-79{fill:#00c3ba;}.cls-80{fill:#00c2b9;}.cls-81{fill:#00c1b8;}.cls-82{fill:#00c0b7;}.cls-83{fill:#00bfb6;}.cls-84{fill:#00beb5;}.cls-85{fill:#00bdb4;}.cls-86{fill:#00bdb3;}.cls-87{fill:#00bcb2;}.cls-88{fill:#00bbb1;}.cls-89{fill:#00bab0;}.cls-90{clip-path:url(#clip-path-2);}.cls-91{clip-path:url(#clip-path-3);}.cls-92{fill:#00b9af;}.cls-93{fill:#00b8ae;}.cls-94{fill:#00b7ad;}.cls-95{fill:#00b6ac;}.cls-96{fill:#00b5ab;}.cls-97{fill:#00b5aa;}.cls-98{fill:#00b4a9;}.cls-99{fill:#00b3a8;}.cls-100{fill:#00b2a7;}.cls-101{fill:#00b1a6;}.cls-102{fill:#00b0a5;}.cls-103{fill:#00afa4;}.cls-104{fill:#00aea3;}.cls-105{fill:#00ada2;}.cls-106{clip-path:url(#clip-path-4);}</style><clipPath id="clip-path"><path class="cls-1" d="M242.52,208.67s26.76-2.95,22.68-21.77S239.8,171.59,235,174.32c0,0-5.33,2.72-5.9,10.66s-1.36,29.14,1.81,37.87,13.27,2.83,11.79-8.84Zm-.16-21.46a2.12,2.12,0,0,1,.89-1.24c3.57-2.29,8.23.56,8.23,3.67,0,3.32-5.73,8.9-8.29,5.58C241.2,192.65,241.93,188.81,242.36,187.21Z"/></clipPath><clipPath id="clip-path-2"><path class="cls-1" d="M276.15,203.86a4,4,0,0,0-3.07,4.69,30.49,30.49,0,0,1,.5,5.1c0,3.25-.51,5.76-1.56,7a3.2,3.2,0,0,1-2.79,1.11,2.79,2.79,0,0,1-2.35-1c-2.31-2.63-2.24-9.6-1.85-12.57a4,4,0,0,0-7.85-1.06c-.18,1.29-1.56,12.78,3.73,18.84a10.72,10.72,0,0,0,8.32,3.69,11.09,11.09,0,0,0,8.94-4,12.72,12.72,0,0,0,1.84-3.13c2.64-6.3,1-14.57.82-15.64A4,4,0,0,0,276.15,203.86Z"/></clipPath><clipPath id="clip-path-3"><path class="cls-1" d="M302.3,206.65c-3.19-2-7.27-1.65-10.48-.84a4,4,0,0,0-7.41,1.62c-.07.9-1.7,22.11-.48,31.91a4,4,0,0,0,3.93,3.47,3.5,3.5,0,0,0,.5,0,4,4,0,0,0,3.44-4.42,73.58,73.58,0,0,1-.4-8.31h.55a15.41,15.41,0,0,0,9.68-3c2.23-1.78,4.88-5.25,4.88-11.64C306.5,210.35,304.21,207.85,302.3,206.65Zm-5.61,14.16a6.49,6.49,0,0,1-3.27,1.22c-1,.12-1.63-.67-1.82-1.65-.37-1.95-.77-5.91,1.42-6.68a5.7,5.7,0,0,1,4.55,0,2.91,2.91,0,0,1,1,1.69A5.29,5.29,0,0,1,296.68,220.81Z"/></clipPath><clipPath id="clip-path-4"><path class="cls-1" d="M321.22,213.89c-.93-.45-2.22-1.07-3.27-1.66a.79.79,0,0,1,.37-1.48c1.54,0,3.57,1.53,4.32,2.3a4,4,0,0,0,5.74-5.46c-.47-.5-4.74-4.86-10.19-4.76a10.18,10.18,0,0,0-7.55,3.68,7.28,7.28,0,0,0-2,6.42c.83,4.1,5.07,6.14,9.17,8.11,1,.46,2.33,1.12,3.36,1.72a.87.87,0,0,1-.23,1.6h0a5.28,5.28,0,0,1-5.76-2.43,4,4,0,0,0-5.76-1.4,4.19,4.19,0,0,0-1.11,5.36,13,13,0,0,0,11.46,6.53,12.77,12.77,0,0,0,3.07-.37c4.53-1.12,7.46-4.68,7.46-9.06C330.26,218.25,325.45,215.94,321.22,213.89Z"/></clipPath></defs><title>logo</title><g id="bg"><rect class="cls-2" width="449" height="449"/></g><g id="Layer_1" data-name="Layer 1"><rect class="cls-3" x="108" y="335" width="51" height="51"/><rect class="cls-4" x="159" y="335" width="51" height="51"/><rect class="cls-4" x="210" y="335" width="51" height="51"/><rect class="cls-4" x="261" y="335" width="51" height="51"/><rect class="cls-5" x="159" y="335" width="51" height="51"/><rect class="cls-4" x="210" y="335" width="51" height="51"/><rect class="cls-4" x="261" y="335" width="51" height="51"/><rect class="cls-4" x="312" y="335" width="51" height="51"/><rect class="cls-6" x="210" y="335" width="51" height="51"/><rect class="cls-7" x="261" y="335" width="51" height="51"/><rect class="cls-8" x="312" y="335" width="51" height="51"/><path class="cls-9" d="M342.07,227.07A17.61,17.61,0,0,1,328.3,244.2a21.09,21.09,0,0,1-5.07.61A21.66,21.66,0,0,1,308.35,239a22.07,22.07,0,0,1-4.84,2.24l0,.17a12.28,12.28,0,1,1-24.38,3c-.12-1-.22-2.06-.3-3.2a21.07,21.07,0,0,1-6.14.89,19.07,19.07,0,0,1-14.59-6.53,22.75,22.75,0,0,1-4.48-8.21,19.09,19.09,0,0,1-3.86,7,14.1,14.1,0,0,1-10.58,5.07h0c-5.6,0-10.42-3.7-12.59-9.66-4.17-11.48-2.64-36.42-2.29-41.31.81-11.34,8.19-16.22,10.06-17.29a24.33,24.33,0,0,1,6.65-2.38,38.63,38.63,0,0,1,8.19-.89c14.38,0,24.69,8,27.58,21.32a24.06,24.06,0,0,1,0,10.87q.56-.17,1.14-.3a12.55,12.55,0,0,1,2.52-.26,12.14,12.14,0,0,1,5.7,1.42,12.09,12.09,0,0,1,5.69-1.42q.48,0,1,0a12.23,12.23,0,0,1,4.94,1.47q1.19-.11,2.33-.11a18.88,18.88,0,0,1,9.55,2.41,18.27,18.27,0,0,1,11.92-4.75h.32c8.42,0,14.41,5.64,16,7.37a12.3,12.3,0,0,1,2.18,13.72A14.24,14.24,0,0,1,342.07,227.07Z"/><path class="cls-10" d="M242.52,208.67s26.76-2.95,22.68-21.77S239.8,171.59,235,174.32c0,0-5.33,2.72-5.9,10.66s-1.36,29.14,1.81,37.87,13.27,2.83,11.79-8.84Zm-.16-21.46a2.12,2.12,0,0,1,.89-1.24c3.57-2.29,8.23.56,8.23,3.67,0,3.32-5.73,8.9-8.29,5.58C241.2,192.65,241.93,188.81,242.36,187.21Z"/><path class="cls-10" d="M276.15,203.86a4,4,0,0,0-3.07,4.69,30.49,30.49,0,0,1,.5,5.1c0,3.25-.51,5.76-1.56,7a3.2,3.2,0,0,1-2.79,1.11,2.79,2.79,0,0,1-2.35-1c-2.31-2.63-2.24-9.6-1.85-12.57a4,4,0,0,0-7.85-1.06c-.18,1.29-1.56,12.78,3.73,18.84a10.72,10.72,0,0,0,8.32,3.69,11.09,11.09,0,0,0,8.94-4c5.09-6.26,2.93-17.5,2.67-18.77A4,4,0,0,0,276.15,203.86Z"/><path class="cls-10" d="M302.3,206.65c-3.19-2-7.27-1.65-10.48-.84a4,4,0,0,0-7.41,1.62c-.07.9-1.7,22.11-.48,31.91a4,4,0,0,0,3.93,3.47,3.5,3.5,0,0,0,.5,0,4,4,0,0,0,3.44-4.42,73.58,73.58,0,0,1-.4-8.31h.55a15.41,15.41,0,0,0,9.68-3c2.23-1.78,4.88-5.25,4.88-11.64C306.5,210.35,304.21,207.85,302.3,206.65Zm-5.61,14.16a6.49,6.49,0,0,1-3.27,1.22c-1,.12-1.63-.67-1.82-1.65-.37-1.95-.77-5.91,1.42-6.68a5.7,5.7,0,0,1,4.55,0,2.91,2.91,0,0,1,1,1.69A5.29,5.29,0,0,1,296.68,220.81Z"/><path class="cls-10" d="M321.22,213.89c-.93-.45-2.22-1.07-3.27-1.66a.79.79,0,0,1,.37-1.48c1.54,0,3.57,1.53,4.32,2.3a4,4,0,0,0,5.74-5.46c-.47-.5-4.74-4.86-10.19-4.76a10.18,10.18,0,0,0-7.55,3.68,7.28,7.28,0,0,0-2,6.42c.83,4.1,5.07,6.14,9.17,8.11,1,.46,2.33,1.12,3.36,1.72a.87.87,0,0,1-.23,1.6h0a5.28,5.28,0,0,1-5.76-2.43,4,4,0,0,0-5.76-1.4,4.19,4.19,0,0,0-1.11,5.36,13,13,0,0,0,11.46,6.53,12.77,12.77,0,0,0,3.07-.37c4.53-1.12,7.46-4.68,7.46-9.06C330.26,218.25,325.45,215.94,321.22,213.89Z"/><path class="cls-8" d="M338.58,223a17.61,17.61,0,0,1-13.77,17.14,21.09,21.09,0,0,1-5.07.61,21.66,21.66,0,0,1-14.87-5.84,22.07,22.07,0,0,1-4.84,2.24l0,.17a12.28,12.28,0,1,1-24.38,3c-.12-1-.22-2.06-.3-3.2a21.07,21.07,0,0,1-6.14.89,19.07,19.07,0,0,1-14.59-6.53,22.75,22.75,0,0,1-4.48-8.21,19.09,19.09,0,0,1-3.86,7,14.1,14.1,0,0,1-10.58,5.07h0c-5.6,0-10.42-3.7-12.59-9.66-4.17-11.48-2.64-36.42-2.29-41.31.81-11.34,8.19-16.22,10.06-17.29a24.33,24.33,0,0,1,6.65-2.38,38.63,38.63,0,0,1,8.19-.89c14.38,0,24.69,8,27.58,21.32a24.06,24.06,0,0,1,0,10.87q.56-.17,1.14-.3a12.55,12.55,0,0,1,2.52-.26,12.14,12.14,0,0,1,5.7,1.42,12.09,12.09,0,0,1,5.69-1.42q.48,0,1,0a12.23,12.23,0,0,1,4.94,1.47q1.19-.11,2.33-.11a18.88,18.88,0,0,1,9.55,2.41A18.27,18.27,0,0,1,318,194.5h.32c8.42,0,14.41,5.64,16,7.37a12.3,12.3,0,0,1,2.18,13.72A14.24,14.24,0,0,1,338.58,223Z"/><path class="cls-10" d="M276.15,203.86a4,4,0,0,0-3.07,4.69,30.49,30.49,0,0,1,.5,5.1c0,3.25-.51,5.76-1.56,7a3.2,3.2,0,0,1-2.79,1.11,2.79,2.79,0,0,1-2.35-1c-2.31-2.63-2.24-9.6-1.85-12.57a4,4,0,0,0-7.85-1.06c-.18,1.29-1.56,12.78,3.73,18.84a10.72,10.72,0,0,0,8.32,3.69,11.09,11.09,0,0,0,8.94-4c5.09-6.26,2.93-17.5,2.67-18.77A4,4,0,0,0,276.15,203.86Z"/><path class="cls-10" d="M302.3,206.65c-3.19-2-7.27-1.65-10.48-.84a4,4,0,0,0-7.41,1.62c-.07.9-1.7,22.11-.48,31.91a4,4,0,0,0,3.93,3.47,3.5,3.5,0,0,0,.5,0,4,4,0,0,0,3.44-4.42,73.58,73.58,0,0,1-.4-8.31h.55a15.41,15.41,0,0,0,9.68-3c2.23-1.78,4.88-5.25,4.88-11.64C306.5,210.35,304.21,207.85,302.3,206.65Zm-5.61,14.16a6.49,6.49,0,0,1-3.27,1.22c-1,.12-1.63-.67-1.82-1.65-.37-1.95-.77-5.91,1.42-6.68a5.7,5.7,0,0,1,4.55,0,2.91,2.91,0,0,1,1,1.69A5.29,5.29,0,0,1,296.68,220.81Z"/><path class="cls-10" d="M321.22,213.89c-.93-.45-2.22-1.07-3.27-1.66a.79.79,0,0,1,.37-1.48c1.54,0,3.57,1.53,4.32,2.3a4,4,0,0,0,5.74-5.46c-.47-.5-4.74-4.86-10.19-4.76a10.18,10.18,0,0,0-7.55,3.68,7.28,7.28,0,0,0-2,6.42c.83,4.1,5.07,6.14,9.17,8.11,1,.46,2.33,1.12,3.36,1.72a.87.87,0,0,1-.23,1.6h0a5.28,5.28,0,0,1-5.76-2.43,4,4,0,0,0-5.76-1.4,4.19,4.19,0,0,0-1.11,5.36,13,13,0,0,0,11.46,6.53,12.77,12.77,0,0,0,3.07-.37c4.53-1.12,7.46-4.68,7.46-9.06C330.26,218.25,325.45,215.94,321.22,213.89Z"/><g class="cls-11"><rect class="cls-12" x="241.2" y="183.68" width="10.28" height="0.25"/><rect class="cls-13" x="241.2" y="183.93" width="10.28" height="0.75"/><rect class="cls-14" x="241.2" y="184.68" width="10.28" height="0.75"/><rect class="cls-15" x="241.2" y="185.43" width="10.28" height="0.75"/><rect class="cls-16" x="241.2" y="186.18" width="10.28" height="0.75"/><rect class="cls-17" x="241.2" y="186.92" width="10.28" height="0.75"/><rect class="cls-18" x="241.2" y="187.67" width="10.28" height="0.75"/><rect class="cls-19" x="241.2" y="188.42" width="10.28" height="0.75"/><rect class="cls-20" x="241.2" y="189.17" width="10.28" height="0.75"/><rect class="cls-21" x="241.2" y="189.92" width="10.28" height="0.75"/><rect class="cls-22" x="241.2" y="190.67" width="10.28" height="0.75"/><rect class="cls-23" x="241.2" y="191.41" width="10.28" height="0.75"/><rect class="cls-24" x="241.2" y="192.16" width="10.28" height="0.75"/><rect class="cls-25" x="241.2" y="192.91" width="10.28" height="0.75"/><rect class="cls-26" x="241.2" y="193.66" width="10.28" height="0.75"/><rect class="cls-27" x="241.2" y="194.41" width="10.28" height="0.75"/><rect class="cls-28" x="241.2" y="195.16" width="10.28" height="0.75"/><rect class="cls-29" x="241.2" y="195.9" width="10.28" height="0.75"/><rect class="cls-30" x="241.2" y="196.65" width="10.28" height="0.75"/><rect class="cls-31" x="241.2" y="197.4" width="10.28" height="0.75"/><rect class="cls-32" x="241.2" y="198.15" width="10.28" height="0.4"/><rect class="cls-3" x="227.78" y="168.08" width="41.5" height="4.63"/><rect class="cls-3" x="227.78" y="172.71" width="41.5" height="0.75"/><rect class="cls-33" x="227.78" y="173.45" width="41.5" height="0.75"/><rect class="cls-34" x="227.78" y="174.2" width="41.5" height="0.75"/><rect class="cls-35" x="227.78" y="174.95" width="41.5" height="0.75"/><rect class="cls-36" x="227.78" y="175.7" width="41.5" height="0.75"/><rect class="cls-37" x="227.78" y="176.45" width="41.5" height="0.75"/><rect class="cls-38" x="227.78" y="177.2" width="41.5" height="0.75"/><rect class="cls-39" x="227.78" y="177.94" width="41.5" height="0.75"/><rect class="cls-40" x="227.78" y="178.69" width="41.5" height="0.75"/><rect class="cls-41" x="227.78" y="179.44" width="41.5" height="0.75"/><rect class="cls-42" x="227.78" y="180.19" width="41.5" height="0.75"/><rect class="cls-43" x="227.78" y="180.94" width="41.5" height="0.75"/><rect class="cls-44" x="227.78" y="181.69" width="41.5" height="0.75"/><rect class="cls-45" x="227.78" y="182.43" width="41.5" height="0.75"/><rect class="cls-12" x="227.78" y="183.18" width="41.5" height="0.75"/><rect class="cls-13" x="227.78" y="183.93" width="41.5" height="0.75"/><rect class="cls-14" x="227.78" y="184.68" width="41.5" height="0.75"/><rect class="cls-15" x="227.78" y="185.43" width="41.5" height="0.75"/><rect class="cls-16" x="227.78" y="186.18" width="41.5" height="0.75"/><rect class="cls-17" x="227.78" y="186.92" width="41.5" height="0.75"/><rect class="cls-18" x="227.78" y="187.67" width="41.5" height="0.75"/><rect class="cls-19" x="227.78" y="188.42" width="41.5" height="0.75"/><rect class="cls-20" x="227.78" y="189.17" width="41.5" height="0.75"/><rect class="cls-21" x="227.78" y="189.92" width="41.5" height="0.75"/><rect class="cls-22" x="227.78" y="190.67" width="41.5" height="0.75"/><rect class="cls-23" x="227.78" y="191.41" width="41.5" height="0.75"/><rect class="cls-24" x="227.78" y="192.16" width="41.5" height="0.75"/><rect class="cls-25" x="227.78" y="192.91" width="41.5" height="0.75"/><rect class="cls-26" x="227.78" y="193.66" width="41.5" height="0.75"/><rect class="cls-27" x="227.78" y="194.41" width="41.5" height="0.75"/><rect class="cls-28" x="227.78" y="195.16" width="41.5" height="0.75"/><rect class="cls-29" x="227.78" y="195.9" width="41.5" height="0.75"/><rect class="cls-30" x="227.78" y="196.65" width="41.5" height="0.75"/><rect class="cls-31" x="227.78" y="197.4" width="41.5" height="0.75"/><rect class="cls-32" x="227.78" y="198.15" width="41.5" height="0.75"/><rect class="cls-46" x="227.78" y="198.9" width="41.5" height="0.75"/><rect class="cls-47" x="227.78" y="199.64" width="41.5" height="0.75"/><rect class="cls-48" x="227.78" y="200.39" width="41.5" height="0.75"/><rect class="cls-49" x="227.78" y="201.14" width="41.5" height="0.75"/><rect class="cls-50" x="227.78" y="201.89" width="41.5" height="0.75"/><rect class="cls-51" x="227.78" y="202.64" width="41.5" height="0.75"/><rect class="cls-52" x="227.78" y="203.39" width="41.5" height="0.75"/><rect class="cls-53" x="227.78" y="204.13" width="41.5" height="0.75"/><rect class="cls-54" x="227.78" y="204.88" width="41.5" height="0.75"/><rect class="cls-55" x="227.78" y="205.63" width="41.5" height="0.75"/><rect class="cls-56" x="227.78" y="206.38" width="41.5" height="0.75"/><rect class="cls-57" x="227.78" y="207.13" width="41.5" height="0.75"/><rect class="cls-58" x="227.78" y="207.88" width="41.5" height="0.75"/><rect class="cls-59" x="227.78" y="208.62" width="41.5" height="0.75"/><rect class="cls-60" x="227.78" y="209.37" width="41.5" height="0.75"/><rect class="cls-61" x="227.78" y="210.12" width="41.5" height="0.75"/><rect class="cls-62" x="227.78" y="210.87" width="41.5" height="0.75"/><rect class="cls-63" x="227.78" y="211.62" width="41.5" height="0.75"/><rect class="cls-64" x="227.78" y="212.37" width="41.5" height="0.75"/><rect class="cls-65" x="227.78" y="213.11" width="41.5" height="0.75"/><rect class="cls-66" x="227.78" y="213.86" width="41.5" height="0.75"/><rect class="cls-67" x="227.78" y="214.61" width="41.5" height="0.75"/><rect class="cls-68" x="227.78" y="215.36" width="41.5" height="0.75"/><rect class="cls-69" x="227.78" y="216.11" width="41.5" height="0.75"/><rect class="cls-70" x="227.78" y="216.86" width="41.5" height="0.75"/><rect class="cls-71" x="227.78" y="217.6" width="41.5" height="0.75"/><rect class="cls-72" x="227.78" y="218.35" width="41.5" height="0.75"/><rect class="cls-73" x="227.78" y="219.1" width="41.5" height="0.75"/><rect class="cls-74" x="227.78" y="219.85" width="41.5" height="0.75"/><rect class="cls-75" x="227.78" y="220.6" width="41.5" height="0.75"/><rect class="cls-76" x="227.78" y="221.35" width="41.5" height="0.75"/><rect class="cls-77" x="227.78" y="222.09" width="41.5" height="0.75"/><rect class="cls-78" x="227.78" y="222.84" width="41.5" height="0.75"/><rect class="cls-79" x="227.78" y="223.59" width="41.5" height="0.75"/><rect class="cls-80" x="227.78" y="224.34" width="41.5" height="0.75"/><rect class="cls-81" x="227.78" y="225.09" width="41.5" height="0.75"/><rect class="cls-82" x="227.78" y="225.84" width="41.5" height="0.75"/><rect class="cls-83" x="227.78" y="226.58" width="41.5" height="0.75"/><rect class="cls-84" x="227.78" y="227.33" width="41.5" height="0.75"/><rect class="cls-85" x="227.78" y="228.08" width="41.5" height="0.75"/><rect class="cls-86" x="227.78" y="228.83" width="41.5" height="0.75"/><rect class="cls-87" x="227.78" y="229.58" width="41.5" height="0.75"/><rect class="cls-88" x="227.78" y="230.33" width="41.5" height="0.75"/><rect class="cls-89" x="227.78" y="231.07" width="41.5" height="0.5"/></g><g class="cls-90"><rect class="cls-52" x="255.62" y="203.41" width="27.03" height="0.72"/><rect class="cls-53" x="255.62" y="204.13" width="27.03" height="0.75"/><rect class="cls-54" x="255.62" y="204.88" width="27.03" height="0.75"/><rect class="cls-55" x="255.62" y="205.63" width="27.03" height="0.75"/><rect class="cls-56" x="255.62" y="206.38" width="27.03" height="0.75"/><rect class="cls-57" x="255.62" y="207.13" width="27.03" height="0.75"/><rect class="cls-58" x="255.62" y="207.88" width="27.03" height="0.75"/><rect class="cls-59" x="255.62" y="208.62" width="27.03" height="0.75"/><rect class="cls-60" x="255.62" y="209.37" width="27.03" height="0.75"/><rect class="cls-61" x="255.62" y="210.12" width="27.03" height="0.75"/><rect class="cls-62" x="255.62" y="210.87" width="27.03" height="0.75"/><rect class="cls-63" x="255.62" y="211.62" width="27.03" height="0.75"/><rect class="cls-64" x="255.62" y="212.37" width="27.03" height="0.75"/><rect class="cls-65" x="255.62" y="213.11" width="27.03" height="0.75"/><rect class="cls-66" x="255.62" y="213.86" width="27.03" height="0.75"/><rect class="cls-67" x="255.62" y="214.61" width="27.03" height="0.75"/><rect class="cls-68" x="255.62" y="215.36" width="27.03" height="0.75"/><rect class="cls-69" x="255.62" y="216.11" width="27.03" height="0.75"/><rect class="cls-70" x="255.62" y="216.86" width="27.03" height="0.75"/><rect class="cls-71" x="255.62" y="217.6" width="27.03" height="0.75"/><rect class="cls-72" x="255.62" y="218.35" width="27.03" height="0.75"/><rect class="cls-73" x="255.62" y="219.1" width="27.03" height="0.75"/><rect class="cls-74" x="255.62" y="219.85" width="27.03" height="0.75"/><rect class="cls-75" x="255.62" y="220.6" width="27.03" height="0.75"/><rect class="cls-76" x="255.62" y="221.35" width="27.03" height="0.75"/><rect class="cls-77" x="255.62" y="222.09" width="27.03" height="0.75"/><rect class="cls-78" x="255.62" y="222.84" width="27.03" height="0.75"/><rect class="cls-79" x="255.62" y="223.59" width="27.03" height="0.75"/><rect class="cls-80" x="255.62" y="224.34" width="27.03" height="0.75"/><rect class="cls-81" x="255.62" y="225.09" width="27.03" height="0.75"/><rect class="cls-82" x="255.62" y="225.84" width="27.03" height="0.75"/><rect class="cls-83" x="255.62" y="226.58" width="27.03" height="0.75"/><rect class="cls-84" x="255.62" y="227.33" width="27.03" height="0.75"/><rect class="cls-85" x="255.62" y="228.08" width="27.03" height="0.75"/><rect class="cls-86" x="255.62" y="228.83" width="27.03" height="0.75"/><rect class="cls-87" x="255.62" y="229.58" width="27.03" height="0.15"/></g><g class="cls-91"><rect class="cls-64" x="290.83" y="212.95" width="8.34" height="0.16"/><rect class="cls-65" x="290.83" y="213.11" width="8.34" height="0.75"/><rect class="cls-66" x="290.83" y="213.86" width="8.34" height="0.75"/><rect class="cls-67" x="290.83" y="214.61" width="8.34" height="0.75"/><rect class="cls-68" x="290.83" y="215.36" width="8.34" height="0.75"/><rect class="cls-69" x="290.83" y="216.11" width="8.34" height="0.75"/><rect class="cls-70" x="290.83" y="216.86" width="8.34" height="0.75"/><rect class="cls-71" x="290.83" y="217.6" width="8.34" height="0.75"/><rect class="cls-72" x="290.83" y="218.35" width="8.34" height="0.75"/><rect class="cls-73" x="290.83" y="219.1" width="8.34" height="0.75"/><rect class="cls-74" x="290.83" y="219.85" width="8.34" height="0.75"/><rect class="cls-75" x="290.83" y="220.6" width="8.34" height="0.75"/><rect class="cls-76" x="290.83" y="221.35" width="8.34" height="0.75"/><rect class="cls-77" x="290.83" y="222.09" width="8.34" height="0.06"/><rect class="cls-52" x="282.7" y="203.61" width="23.8" height="0.52"/><rect class="cls-53" x="282.7" y="204.13" width="23.8" height="0.75"/><rect class="cls-54" x="282.7" y="204.88" width="23.8" height="0.75"/><rect class="cls-55" x="282.7" y="205.63" width="23.8" height="0.75"/><rect class="cls-56" x="282.7" y="206.38" width="23.8" height="0.75"/><rect class="cls-57" x="282.7" y="207.13" width="23.8" height="0.75"/><rect class="cls-58" x="282.7" y="207.88" width="23.8" height="0.75"/><rect class="cls-59" x="282.7" y="208.62" width="23.8" height="0.75"/><rect class="cls-60" x="282.7" y="209.37" width="23.8" height="0.75"/><rect class="cls-61" x="282.7" y="210.12" width="23.8" height="0.75"/><rect class="cls-62" x="282.7" y="210.87" width="23.8" height="0.75"/><rect class="cls-63" x="282.7" y="211.62" width="23.8" height="0.75"/><rect class="cls-64" x="282.7" y="212.37" width="23.8" height="0.75"/><rect class="cls-65" x="282.7" y="213.11" width="23.8" height="0.75"/><rect class="cls-66" x="282.7" y="213.86" width="23.8" height="0.75"/><rect class="cls-67" x="282.7" y="214.61" width="23.8" height="0.75"/><rect class="cls-68" x="282.7" y="215.36" width="23.8" height="0.75"/><rect class="cls-69" x="282.7" y="216.11" width="23.8" height="0.75"/><rect class="cls-70" x="282.7" y="216.86" width="23.8" height="0.75"/><rect class="cls-71" x="282.7" y="217.6" width="23.8" height="0.75"/><rect class="cls-72" x="282.7" y="218.35" width="23.8" height="0.75"/><rect class="cls-73" x="282.7" y="219.1" width="23.8" height="0.75"/><rect class="cls-74" x="282.7" y="219.85" width="23.8" height="0.75"/><rect class="cls-75" x="282.7" y="220.6" width="23.8" height="0.75"/><rect class="cls-76" x="282.7" y="221.35" width="23.8" height="0.75"/><rect class="cls-77" x="282.7" y="222.09" width="23.8" height="0.75"/><rect class="cls-78" x="282.7" y="222.84" width="23.8" height="0.75"/><rect class="cls-79" x="282.7" y="223.59" width="23.8" height="0.75"/><rect class="cls-80" x="282.7" y="224.34" width="23.8" height="0.75"/><rect class="cls-81" x="282.7" y="225.09" width="23.8" height="0.75"/><rect class="cls-82" x="282.7" y="225.84" width="23.8" height="0.75"/><rect class="cls-83" x="282.7" y="226.58" width="23.8" height="0.75"/><rect class="cls-84" x="282.7" y="227.33" width="23.8" height="0.75"/><rect class="cls-85" x="282.7" y="228.08" width="23.8" height="0.75"/><rect class="cls-86" x="282.7" y="228.83" width="23.8" height="0.75"/><rect class="cls-87" x="282.7" y="229.58" width="23.8" height="0.75"/><rect class="cls-88" x="282.7" y="230.33" width="23.8" height="0.75"/><rect class="cls-89" x="282.7" y="231.07" width="23.8" height="0.75"/><rect class="cls-92" x="282.7" y="231.82" width="23.8" height="0.75"/><rect class="cls-93" x="282.7" y="232.57" width="23.8" height="0.75"/><rect class="cls-94" x="282.7" y="233.32" width="23.8" height="0.75"/><rect class="cls-95" x="282.7" y="234.07" width="23.8" height="0.75"/><rect class="cls-96" x="282.7" y="234.81" width="23.8" height="0.75"/><rect class="cls-97" x="282.7" y="235.56" width="23.8" height="0.75"/><rect class="cls-98" x="282.7" y="236.31" width="23.8" height="0.75"/><rect class="cls-99" x="282.7" y="237.06" width="23.8" height="0.75"/><rect class="cls-100" x="282.7" y="237.81" width="23.8" height="0.75"/><rect class="cls-101" x="282.7" y="238.56" width="23.8" height="0.75"/><rect class="cls-102" x="282.7" y="239.3" width="23.8" height="0.75"/><rect class="cls-103" x="282.7" y="240.05" width="23.8" height="0.75"/><rect class="cls-104" x="282.7" y="240.8" width="23.8" height="0.75"/><rect class="cls-105" x="282.7" y="241.55" width="23.8" height="0.75"/><rect class="cls-5" x="282.7" y="242.3" width="23.8" height="0.51"/></g><g class="cls-106"><rect class="cls-51" x="307.29" y="202.73" width="22.97" height="0.66"/><rect class="cls-52" x="307.29" y="203.39" width="22.97" height="0.75"/><rect class="cls-53" x="307.29" y="204.13" width="22.97" height="0.75"/><rect class="cls-54" x="307.29" y="204.88" width="22.97" height="0.75"/><rect class="cls-55" x="307.29" y="205.63" width="22.97" height="0.75"/><rect class="cls-56" x="307.29" y="206.38" width="22.97" height="0.75"/><rect class="cls-57" x="307.29" y="207.13" width="22.97" height="0.75"/><rect class="cls-58" x="307.29" y="207.88" width="22.97" height="0.75"/><rect class="cls-59" x="307.29" y="208.62" width="22.97" height="0.75"/><rect class="cls-60" x="307.29" y="209.37" width="22.97" height="0.75"/><rect class="cls-61" x="307.29" y="210.12" width="22.97" height="0.75"/><rect class="cls-62" x="307.29" y="210.87" width="22.97" height="0.75"/><rect class="cls-63" x="307.29" y="211.62" width="22.97" height="0.75"/><rect class="cls-64" x="307.29" y="212.37" width="22.97" height="0.75"/><rect class="cls-65" x="307.29" y="213.11" width="22.97" height="0.75"/><rect class="cls-66" x="307.29" y="213.86" width="22.97" height="0.75"/><rect class="cls-67" x="307.29" y="214.61" width="22.97" height="0.75"/><rect class="cls-68" x="307.29" y="215.36" width="22.97" height="0.75"/><rect class="cls-69" x="307.29" y="216.11" width="22.97" height="0.75"/><rect class="cls-70" x="307.29" y="216.86" width="22.97" height="0.75"/><rect class="cls-71" x="307.29" y="217.6" width="22.97" height="0.75"/><rect class="cls-72" x="307.29" y="218.35" width="22.97" height="0.75"/><rect class="cls-73" x="307.29" y="219.1" width="22.97" height="0.75"/><rect class="cls-74" x="307.29" y="219.85" width="22.97" height="0.75"/><rect class="cls-75" x="307.29" y="220.6" width="22.97" height="0.75"/><rect class="cls-76" x="307.29" y="221.35" width="22.97" height="0.75"/><rect class="cls-77" x="307.29" y="222.09" width="22.97" height="0.75"/><rect class="cls-78" x="307.29" y="222.84" width="22.97" height="0.75"/><rect class="cls-79" x="307.29" y="223.59" width="22.97" height="0.75"/><rect class="cls-80" x="307.29" y="224.34" width="22.97" height="0.75"/><rect class="cls-81" x="307.29" y="225.09" width="22.97" height="0.75"/><rect class="cls-82" x="307.29" y="225.84" width="22.97" height="0.75"/><rect class="cls-83" x="307.29" y="226.58" width="22.97" height="0.75"/><rect class="cls-84" x="307.29" y="227.33" width="22.97" height="0.75"/><rect class="cls-85" x="307.29" y="228.08" width="22.97" height="0.75"/><rect class="cls-86" x="307.29" y="228.83" width="22.97" height="0.75"/><rect class="cls-87" x="307.29" y="229.58" width="22.97" height="0.75"/><rect class="cls-88" x="307.29" y="230.33" width="22.97" height="0.75"/><rect class="cls-89" x="307.29" y="231.07" width="22.97" height="0.75"/><rect class="cls-92" x="307.29" y="231.82" width="22.97" height="0.6"/></g><path class="cls-7" d="M126.11,191.11s11.64-7.56,16.3-6.4,14,2.33,18.63,14.55c0,0,5.37-12.84,14-14s13-1.22,20.37,5.82c0,0-8.15-26.2-33.76-26.2S126.11,191.11,126.11,191.11Z"/><path class="cls-7" d="M189.56,160.26c2.91.58,1.75,19.21,1.75,19.21l-4.61-4.4a119.51,119.51,0,0,1,8.68,12c1.75-42.49-1.75-35.51-1.75-35.51-10.48,1.75-19.79,13.39-19.79,13.39l-.54,1.87s8.11,5.11,11,6.19a2.92,2.92,0,0,1,.65.38l-6.41-6.12S186.65,159.68,189.56,160.26Z"/><path class="cls-7" d="M184.91,173.36l1.79,1.71A13,13,0,0,0,184.91,173.36Z"/><path class="cls-7" d="M132.51,160.84c-2.91.58-1.75,19.21-1.75,19.21l4.61-4.4a119.51,119.51,0,0,0-8.68,12c-1.75-42.49,1.75-35.51,1.75-35.51,10.48,1.75,19.79,13.39,19.79,13.39l.54,1.87s-8.11,5.11-11,6.19a2.92,2.92,0,0,0-.65.38l6.41-6.12S135.42,160.26,132.51,160.84Z"/><path class="cls-7" d="M137.16,173.94l-1.79,1.71A13,13,0,0,1,137.16,173.94Z"/><path class="cls-6" d="M152.88,235.35v5.82l6.4,4.66h4.66l4.07-5.24,1-5.43S158.12,237.1,152.88,235.35Z"/><path class="cls-6" d="M178.5,167.83s7.57-8.15,11.06-7.57,1.75,20.69,1.75,20.69S179.66,167.83,178.5,167.83Z"/><path class="cls-6" d="M144.15,167.83s-7.57-8.15-11.06-7.57-1.75,20.69-1.75,20.69S143,167.83,144.15,167.83Z"/><path d="M161,247.38c-5.46,0-9.9-3.66-9.9-8.15V235h3.49v4.27c0,2.52,2.93,4.66,6.4,4.66s6.4-2.13,6.4-4.66V235h3.49v4.27C170.93,243.73,166.49,247.38,161,247.38Z"/><path d="M126.69,188.78a1.75,1.75,0,0,1-1.74-1.6c-.07-.81-1.7-20-.67-32.07a5.39,5.39,0,0,1,2.85-4.42,6.82,6.82,0,0,1,6.46.32c7.72,4.4,13.1,9,17,14.44a1.75,1.75,0,1,1-2.85,2c-3.54-5-8.57-9.28-15.83-13.42a3.37,3.37,0,0,0-3.11-.26,1.89,1.89,0,0,0-1,1.63c-1,11.74.66,31.27.67,31.47a1.75,1.75,0,0,1-1.59,1.89Z"/><path d="M131.93,181.21a1.75,1.75,0,0,1-1.73-1.56c-.05-.48-1.26-11.86-.7-18.4a3.68,3.68,0,0,1,2-3,4.47,4.47,0,0,1,4.24.19,27.76,27.76,0,0,1,9.35,8,1.75,1.75,0,1,1-2.85,2,24.44,24.44,0,0,0-8.23-7,1,1,0,0,0-.89-.13s-.09,0-.1.22c-.53,6.21.68,17.62.69,17.73a1.75,1.75,0,0,1-1.55,1.92Z"/><circle class="cls-3" cx="148.19" cy="200.72" r="6.37"/><path d="M148.19,207.66a6.95,6.95,0,1,1,6.95-6.95A7,7,0,0,1,148.19,207.66Zm0-12.73a5.78,5.78,0,1,0,5.78,5.78A5.79,5.79,0,0,0,148.19,194.93Z"/><circle cx="148.19" cy="200.72" r="2.83"/><circle class="cls-2" cx="146.78" cy="200.01" r="1.06"/><path d="M161,201.59a1.75,1.75,0,0,1-1.55-.94l-4.3-8.31a14,14,0,0,0-9.67-5.41c-5.79-.62-12.31,2.09-18.83,7.83a1.75,1.75,0,0,1-2.31-2.62c9.19-8.09,16.77-9.18,21.51-8.68a17.47,17.47,0,0,1,12.19,6.92l.15.24,4.37,8.44a1.75,1.75,0,0,1-1.55,2.55Z"/><path d="M169.25,223.5c-1.17,2.75-3.64,6.61-8.21,6.61s-7-3.85-8.21-6.61c-.54-1.25,3-3.87,8.21-3.87S169.79,222.25,169.25,223.5Z"/><rect x="159.87" y="228.95" width="2.33" height="6.4"/><path d="M161,247.38c-5.46,0-9.9-3.66-9.9-8.15V235h3.49v4.27c0,2.52,2.93,4.66,6.4,4.66s6.4-2.13,6.4-4.66V235h3.49v4.27C170.93,243.73,166.49,247.38,161,247.38Z"/><path d="M161.62,237.68h-1.16a37.3,37.3,0,0,1-29.57-14.6,16.76,16.76,0,0,0-2.27,3.11,2.08,2.08,0,0,1-3.82-.66c-.38-1.93-.68-4.59-.85-6.32a31.07,31.07,0,0,0-3,1.2,2.07,2.07,0,0,1-2.91-2.16c.5-3.78,4.53-15,4.7-15.5l.08-.18h0a5.64,5.64,0,0,0,.4-2.14,37.3,37.3,0,0,1,37.26-37.26h1.16a37.3,37.3,0,0,1,37.26,37.26,5.61,5.61,0,0,0,.41,2.15l.07.17c.17.48,4.2,11.73,4.7,15.5a2.07,2.07,0,0,1-2.91,2.16h0a31.07,31.07,0,0,0-3-1.2c-.17,1.74-.47,4.4-.85,6.32a2.08,2.08,0,0,1-3.82.66,16.61,16.61,0,0,0-2.27-3.11A37.3,37.3,0,0,1,161.62,237.68Zm-.58-3.5h.58a33.8,33.8,0,0,0,27.67-14.42l.64-.92,1.1.2c.46.08,1.6.29,3.34,2.36.27-2.19.43-4.2.43-4.23l.05-.64.45-.45c.76-.76,1.83-1,4.72.1-1-3.78-3-9.66-3.94-12.17a9.05,9.05,0,0,1-.71-3.57,33.8,33.8,0,0,0-33.76-33.76h-1.16a33.8,33.8,0,0,0-33.76,33.76A9.05,9.05,0,0,1,126,204c-.9,2.52-2.92,8.39-3.94,12.17,2.89-1.07,4-.85,4.72-.1l.45.45.05.64s.17,2,.43,4.23c1.74-2.07,2.88-2.27,3.34-2.36l1.1-.2.64.92a33.8,33.8,0,0,0,27.67,14.42H161Zm41.54-17h0Z"/><path d="M196,191.11h-.09a1.75,1.75,0,0,1-1.66-1.83c0-.22,1.1-22.09.1-33.86a1.89,1.89,0,0,0-1-1.63,3.37,3.37,0,0,0-3.11.26c-7.26,4.14-12.29,8.4-15.83,13.42a1.75,1.75,0,1,1-2.85-2c3.85-5.45,9.23-10,17-14.44a6.82,6.82,0,0,1,6.46-.32,5.39,5.39,0,0,1,2.85,4.42c1,12,0,33.43-.09,34.33A1.75,1.75,0,0,1,196,191.11Z"/><path d="M191.3,181.21h0a1.75,1.75,0,0,1-1.73-1.76c0-.12.07-11.61-.46-17.9,0-.18-.06-.21-.1-.22a1,1,0,0,0-.89.13,24.44,24.44,0,0,0-8.22,7,1.75,1.75,0,1,1-2.85-2,27.75,27.75,0,0,1,9.35-8,4.47,4.47,0,0,1,4.24-.19,3.68,3.68,0,0,1,2,3c.55,6.45.48,17.75.48,18.22A1.75,1.75,0,0,1,191.3,181.21Z"/><circle class="cls-3" cx="173.88" cy="200.72" r="6.37"/><path d="M173.88,207.66a6.95,6.95,0,1,1,6.95-6.95A7,7,0,0,1,173.88,207.66Zm0-12.73a5.78,5.78,0,1,0,5.78,5.78A5.79,5.79,0,0,0,173.88,194.93Z"/><circle cx="173.88" cy="200.72" r="2.83"/><circle class="cls-2" cx="175.29" cy="200.01" r="1.06"/><path d="M161,201.59a1.75,1.75,0,0,1-1.55-2.55l4.51-8.68a19.23,19.23,0,0,1,14-7.3c4.73-.3,11.91,1,19.2,8.59a1.75,1.75,0,1,1-2.53,2.41c-6.36-6.67-12.46-7.76-16.46-7.52a15.65,15.65,0,0,0-11.36,5.79l-4.3,8.31A1.75,1.75,0,0,1,161,201.59Z"/><line x1="161.03" y1="228.95" x2="161.03" y2="235.35"/><rect x="159.87" y="228.95" width="2.33" height="6.4"/></g></svg>