<svg xmlns="http://www.w3.org/2000/svg" xmlns:xlink="http://www.w3.org/1999/xlink" viewBox="0 0 449 449"><defs><style>.cls-1{fill:none;}.cls-2{fill:#fff;}.cls-3{clip-path:url(#clip-path);}.cls-4{fill:#f56399;}.cls-5{fill:#f46298;}.cls-6{fill:#f46197;}.cls-7{fill:#f46096;}.cls-8{fill:#f35f95;}.cls-9{fill:#f35e95;}.cls-10{fill:#f25d94;}.cls-11{fill:#f25c93;}.cls-12{fill:#f25b92;}.cls-13{fill:#f15a91;}.cls-14{fill:#f15991;}.cls-15{fill:#f05890;}.cls-16{fill:#f0578f;}.cls-17{fill:#ef568e;}.cls-18{fill:#ef558d;}.cls-19{fill:#fc75a7;}.cls-20{fill:#fc74a6;}.cls-21{fill:#fc73a6;}.cls-22{fill:#fb72a5;}.cls-23{fill:#fb71a4;}.cls-24{fill:#fa70a3;}.cls-25{fill:#fa6fa2;}.cls-26{fill:#fa6ea2;}.cls-27{fill:#f96da1;}.cls-28{fill:#f96ca0;}.cls-29{fill:#f86b9f;}.cls-30{fill:#f86a9e;}.cls-31{fill:#f7699e;}.cls-32{fill:#f7689d;}.cls-33{fill:#f7679c;}.cls-34{fill:#f6669b;}.cls-35{fill:#f6659a;}.cls-36{fill:#f5649a;}.cls-37{fill:#ef548d;}.cls-38{fill:#ee538c;}.cls-39{fill:#ee528b;}.cls-40{fill:#ed518a;}.cls-41{fill:#ed5089;}.cls-42{fill:#ec4f89;}.cls-43{fill:#ec4e88;}.cls-44{fill:#ec4d87;}.cls-45{fill:#eb4c86;}.cls-46{fill:#eb4b85;}.cls-47{fill:#ea4a85;}.cls-48{fill:#ea4984;}.cls-49{fill:#ea4883;}.cls-50{fill:#e94682;}.cls-51{fill:#e94581;}.cls-52{fill:#e84481;}.cls-53{fill:#e84380;}.cls-54{fill:#e7427f;}.cls-55{fill:#e7417e;}.cls-56{fill:#e7407d;}.cls-57{fill:#e63f7d;}.cls-58{fill:#e63e7c;}.cls-59{fill:#e53d7b;}.cls-60{fill:#e53c7a;}.cls-61{fill:#e43b79;}.cls-62{fill:#e43a79;}.cls-63{fill:#e43978;}.cls-64{fill:#e33877;}.cls-65{fill:#e33776;}.cls-66{fill:#e23675;}.cls-67{fill:#e23575;}.cls-68{fill:#e13474;}.cls-69{fill:#e13373;}.cls-70{fill:#e13272;}.cls-71{fill:#e03171;}.cls-72{fill:#e03071;}.cls-73{fill:#df2f70;}.cls-74{fill:#df2e6f;}.cls-75{fill:#df2d6e;}.cls-76{fill:#de2c6d;}.cls-77{fill:#de2b6c;}.cls-78{fill:#dd2a6c;}.cls-79{fill:#dd296b;}.cls-80{fill:#dc286a;}.cls-81{fill:#dc2769;}.cls-82{fill:#dc2668;}.cls-83{fill:#db2568;}.cls-84{fill:#db2467;}.cls-85{fill:#da2366;}.cls-86{fill:#da2265;}.cls-87{fill:#d92164;}.cls-88{fill:#d92064;}.cls-89{fill:#d91f63;}.cls-90{fill:#d81e62;}.cls-91{fill:#d81d61;}.cls-92{fill:#d71c60;}.cls-93{fill:#d71b60;}.cls-94{fill:#d71a5f;}.cls-95{fill:#d6195e;}</style><clipPath id="clip-path"><path class="cls-1" d="M346.16,237a9.66,9.66,0,0,0-7.61-3.89,9.35,9.35,0,0,0-4.25,1c-.44-.54-.89-1.07-1.33-1.57a12.91,12.91,0,0,0,.17-2.13,9.87,9.87,0,0,0-3.57-7.67,10.63,10.63,0,0,0-6.93-2.5,11.66,11.66,0,0,0-8.93,4.06,13.86,13.86,0,0,0-8.25-3.18,27.48,27.48,0,0,0,2.3-10.26c0-7.82-5.06-13.08-12.58-13.08-3.22,0-8,1-12.7,5.69a34.84,34.84,0,0,0-6.88,10.28c-.5,2.36-.14.32,0,0a16.57,16.57,0,0,0,.4-3.54,13,13,0,0,0-3.47-9.21,12.67,12.67,0,0,0-9.54-3.8,19.08,19.08,0,0,0-13.22,5.39,31.05,31.05,0,0,0-7.36,10.73,71.3,71.3,0,0,0-2.59,7.45c-.35,0-.7,0-1.07,0h-.37l-1,.1a16.6,16.6,0,0,0-6.23,1.94,9.35,9.35,0,0,0-1.72-1c0-.42.06-.86.06-1.3,0-7-4.77-11.65-11.86-11.65a12.61,12.61,0,0,0-8.29,3,11.51,11.51,0,0,0-4.07,8.93,13.31,13.31,0,0,0,.07,1.49,12.89,12.89,0,0,0-5.66-1.2,9.63,9.63,0,0,0-4.66,1.22,7.41,7.41,0,0,0-1.15-.38,10,10,0,0,0-4.2-.91,11.19,11.19,0,0,0-6.75,2.25,13.86,13.86,0,0,0-8.09-2.33,22.12,22.12,0,0,0-8.94,1.78,16.5,16.5,0,0,0-4.58,3,19.5,19.5,0,0,0-1.47-6.42,10.24,10.24,0,0,0,1.46-.94c3.49-2.7,7.73-8.79,8.73-12.18,1.43-4.84,2.61-12.08.16-19.12-3.84-11-16.8-17.09-32.78-17.09h-.86c-9.36.12-17.28,2.9-22.9,8A25.76,25.76,0,0,0,105.22,195a27.09,27.09,0,0,0,22.45,28.87c7.25,1.3,11.69,2.5,13.25,3.56a16,16,0,0,1-1.26,4.85c-3.22,8.42-6.06,12-7.13,13.13a10.13,10.13,0,0,0-1.76,11.28,10.18,10.18,0,0,0,16.62,2.66c.24-.25.48-.52.72-.79-1.83,8.46-1.83,9.42-1.83,10.35,0,5.75,4,8.75,7.94,8.75h.34l.88-.08a12.13,12.13,0,0,0,6.51-2.35,14,14,0,0,0,3.2-3,13.54,13.54,0,0,0,2.85-5.34c.5-1.63,1.05-3.83,1.67-6.71a18.41,18.41,0,0,0,9.42-4.07,10.55,10.55,0,0,0,8.11,3.63,11.35,11.35,0,0,0,10.34-6.12l.24-.45.18-.49.64-1.71a14.66,14.66,0,0,0,2.51,4.12,13.89,13.89,0,0,0,10.84,4.93,19.85,19.85,0,0,0,5.82-.88,10.7,10.7,0,0,0,3.77.73,10.24,10.24,0,0,0,6.75-2.31,13.25,13.25,0,0,0,7.84,2.31,18.47,18.47,0,0,0,6.15-1.09A9.42,9.42,0,0,0,247,260a14.4,14.4,0,0,0,8.87-3.13l.44.35a14.65,14.65,0,0,0,8.78,3.07A19.24,19.24,0,0,0,275.64,257a14.68,14.68,0,0,0,9.09,3,20.1,20.1,0,0,0,8.31-1.78,19.72,19.72,0,0,0,8.61,1.85,24.43,24.43,0,0,0,10.88-2.53,24.09,24.09,0,0,0,11,2.53h.22a35.11,35.11,0,0,0,13.82-2.53,19.16,19.16,0,0,0,10-8.84,11.11,11.11,0,0,0,1.15-5A10.65,10.65,0,0,0,346.16,237ZM145.54,207.11a91.65,91.65,0,0,0-14.26-3.33,6.81,6.81,0,0,1-5.76-7.14,5.1,5.1,0,0,1,2.85-4.31c2-1.2,7.12-1.57,10.41-1.61h.68c7.09,0,11.47,1.55,12.26,3C152.56,196.33,154.2,200.66,145.54,207.11Z"/></clipPath></defs><title>logo</title><g id="bg"><rect class="cls-2" width="449" height="449"/></g><g id="Layer_1" data-name="Layer 1"><g class="cls-3"><rect class="cls-4" x="125.33" y="190.71" width="28.87" height="0.61"/><rect class="cls-5" x="125.33" y="191.32" width="28.87" height="1.18"/><rect class="cls-6" x="125.33" y="192.5" width="28.87" height="1.18"/><rect class="cls-7" x="125.33" y="193.68" width="28.87" height="1.18"/><rect class="cls-8" x="125.33" y="194.87" width="28.87" height="1.18"/><rect class="cls-9" x="125.33" y="196.05" width="28.87" height="1.18"/><rect class="cls-10" x="125.33" y="197.23" width="28.87" height="1.18"/><rect class="cls-11" x="125.33" y="198.42" width="28.87" height="1.18"/><rect class="cls-12" x="125.33" y="199.6" width="28.87" height="1.18"/><rect class="cls-13" x="125.33" y="200.78" width="28.87" height="1.18"/><rect class="cls-14" x="125.33" y="201.97" width="28.87" height="1.18"/><rect class="cls-15" x="125.33" y="203.15" width="28.87" height="1.18"/><rect class="cls-16" x="125.33" y="204.34" width="28.87" height="1.18"/><rect class="cls-17" x="125.33" y="205.52" width="28.87" height="1.18"/><rect class="cls-18" x="125.33" y="206.7" width="28.87" height="0.41"/><rect class="cls-19" x="104.07" y="170" width="244.59" height="0.01"/><rect class="cls-20" x="104.07" y="170.01" width="244.59" height="1.18"/><rect class="cls-21" x="104.07" y="171.2" width="244.59" height="1.18"/><rect class="cls-22" x="104.07" y="172.38" width="244.59" height="1.18"/><rect class="cls-23" x="104.07" y="173.56" width="244.59" height="1.18"/><rect class="cls-24" x="104.07" y="174.75" width="244.59" height="1.18"/><rect class="cls-25" x="104.07" y="175.93" width="244.59" height="1.18"/><rect class="cls-26" x="104.07" y="177.11" width="244.59" height="1.18"/><rect class="cls-27" x="104.07" y="178.3" width="244.59" height="1.18"/><rect class="cls-28" x="104.07" y="179.48" width="244.59" height="1.18"/><rect class="cls-29" x="104.07" y="180.67" width="244.59" height="1.18"/><rect class="cls-30" x="104.07" y="181.85" width="244.59" height="1.18"/><rect class="cls-31" x="104.07" y="183.03" width="244.59" height="1.18"/><rect class="cls-32" x="104.07" y="184.22" width="244.59" height="1.18"/><rect class="cls-33" x="104.07" y="185.4" width="244.59" height="1.18"/><rect class="cls-34" x="104.07" y="186.58" width="244.59" height="1.18"/><rect class="cls-35" x="104.07" y="187.77" width="244.59" height="1.18"/><rect class="cls-36" x="104.07" y="188.95" width="244.59" height="1.18"/><rect class="cls-4" x="104.07" y="190.13" width="244.59" height="1.18"/><rect class="cls-5" x="104.07" y="191.32" width="244.59" height="1.18"/><rect class="cls-6" x="104.07" y="192.5" width="244.59" height="1.18"/><rect class="cls-7" x="104.07" y="193.68" width="244.59" height="1.18"/><rect class="cls-8" x="104.07" y="194.87" width="244.59" height="1.18"/><rect class="cls-9" x="104.07" y="196.05" width="244.59" height="1.18"/><rect class="cls-10" x="104.07" y="197.23" width="244.59" height="1.18"/><rect class="cls-11" x="104.07" y="198.42" width="244.59" height="1.18"/><rect class="cls-12" x="104.07" y="199.6" width="244.59" height="1.18"/><rect class="cls-13" x="104.07" y="200.78" width="244.59" height="1.18"/><rect class="cls-14" x="104.07" y="201.97" width="244.59" height="1.18"/><rect class="cls-15" x="104.07" y="203.15" width="244.59" height="1.18"/><rect class="cls-16" x="104.07" y="204.34" width="244.59" height="1.18"/><rect class="cls-17" x="104.07" y="205.52" width="244.59" height="1.18"/><rect class="cls-18" x="104.07" y="206.7" width="244.59" height="1.18"/><rect class="cls-37" x="104.07" y="207.89" width="244.59" height="1.18"/><rect class="cls-38" x="104.07" y="209.07" width="244.59" height="1.18"/><rect class="cls-39" x="104.07" y="210.25" width="244.59" height="1.18"/><rect class="cls-40" x="104.07" y="211.44" width="244.59" height="1.18"/><rect class="cls-41" x="104.07" y="212.62" width="244.59" height="1.18"/><rect class="cls-42" x="104.07" y="213.8" width="244.59" height="1.18"/><rect class="cls-43" x="104.07" y="214.99" width="244.59" height="1.18"/><rect class="cls-44" x="104.07" y="216.17" width="244.59" height="1.18"/><rect class="cls-45" x="104.07" y="217.35" width="244.59" height="1.18"/><rect class="cls-46" x="104.07" y="218.54" width="244.59" height="1.18"/><rect class="cls-47" x="104.07" y="219.72" width="244.59" height="1.18"/><rect class="cls-48" x="104.07" y="220.9" width="244.59" height="1.18"/><rect class="cls-49" x="104.07" y="222.09" width="244.59" height="1.18"/><rect class="cls-50" x="104.07" y="223.27" width="244.59" height="1.18"/><rect class="cls-51" x="104.07" y="224.45" width="244.59" height="1.18"/><rect class="cls-52" x="104.07" y="225.64" width="244.59" height="1.18"/><rect class="cls-53" x="104.07" y="226.82" width="244.59" height="1.18"/><rect class="cls-54" x="104.07" y="228.01" width="244.59" height="1.18"/><rect class="cls-55" x="104.07" y="229.19" width="244.59" height="1.18"/><rect class="cls-56" x="104.07" y="230.37" width="244.59" height="1.18"/><rect class="cls-57" x="104.07" y="231.56" width="244.59" height="1.18"/><rect class="cls-58" x="104.07" y="232.74" width="244.59" height="1.18"/><rect class="cls-59" x="104.07" y="233.92" width="244.59" height="1.18"/><rect class="cls-60" x="104.07" y="235.11" width="244.59" height="1.18"/><rect class="cls-61" x="104.07" y="236.29" width="244.59" height="1.18"/><rect class="cls-62" x="104.07" y="237.47" width="244.59" height="1.18"/><rect class="cls-63" x="104.07" y="238.66" width="244.59" height="1.18"/><rect class="cls-64" x="104.07" y="239.84" width="244.59" height="1.18"/><rect class="cls-65" x="104.07" y="241.02" width="244.59" height="1.18"/><rect class="cls-66" x="104.07" y="242.21" width="244.59" height="1.18"/><rect class="cls-67" x="104.07" y="243.39" width="244.59" height="1.18"/><rect class="cls-68" x="104.07" y="244.57" width="244.59" height="1.18"/><rect class="cls-69" x="104.07" y="245.76" width="244.59" height="1.18"/><rect class="cls-70" x="104.07" y="246.94" width="244.59" height="1.18"/><rect class="cls-71" x="104.07" y="248.12" width="244.59" height="1.18"/><rect class="cls-72" x="104.07" y="249.31" width="244.59" height="1.18"/><rect class="cls-73" x="104.07" y="250.49" width="244.59" height="1.18"/><rect class="cls-74" x="104.07" y="251.68" width="244.59" height="1.18"/><rect class="cls-75" x="104.07" y="252.86" width="244.59" height="1.18"/><rect class="cls-76" x="104.07" y="254.04" width="244.59" height="1.18"/><rect class="cls-77" x="104.07" y="255.23" width="244.59" height="1.18"/><rect class="cls-78" x="104.07" y="256.41" width="244.59" height="1.18"/><rect class="cls-79" x="104.07" y="257.59" width="244.59" height="1.18"/><rect class="cls-80" x="104.07" y="258.78" width="244.59" height="1.18"/><rect class="cls-81" x="104.07" y="259.96" width="244.59" height="1.18"/><rect class="cls-82" x="104.07" y="261.14" width="244.59" height="1.18"/><rect class="cls-83" x="104.07" y="262.33" width="244.59" height="1.18"/><rect class="cls-84" x="104.07" y="263.51" width="244.59" height="1.18"/><rect class="cls-85" x="104.07" y="264.69" width="244.59" height="1.18"/><rect class="cls-86" x="104.07" y="265.88" width="244.59" height="1.18"/><rect class="cls-87" x="104.07" y="267.06" width="244.59" height="1.18"/><rect class="cls-88" x="104.07" y="268.24" width="244.59" height="1.18"/><rect class="cls-89" x="104.07" y="269.43" width="244.59" height="1.18"/><rect class="cls-90" x="104.07" y="270.61" width="244.59" height="1.18"/><rect class="cls-91" x="104.07" y="271.79" width="244.59" height="1.18"/><rect class="cls-92" x="104.07" y="272.98" width="244.59" height="1.18"/><rect class="cls-93" x="104.07" y="274.16" width="244.59" height="1.18"/><rect class="cls-94" x="104.07" y="275.35" width="244.59" height="1.18"/><rect class="cls-95" x="104.07" y="276.53" width="244.59" height="1.09"/></g><path class="cls-2" d="M154.2,270.11q-.43,0-.43-1.25t2.22-11.3q2.22-10,2.65-11.12t1.36-3.76q.93-2.68,1.68-4.43a31.44,31.44,0,0,1,2.65-4.61,10.52,10.52,0,0,1,4.51-4,14.65,14.65,0,0,1,5.94-1.14,5.85,5.85,0,0,1,4.9,2,8.09,8.09,0,0,1,1.57,5.15c0,.57,0,1.17-.07,1.79a12.66,12.66,0,0,0,4-2.22,43.56,43.56,0,0,0,3.61-2.93q1.22-1.14,3.08-3a.14.14,0,0,1,.21.07c0,.1.21.17.5.21s.6.32.93.82a2.66,2.66,0,0,1,.43,1.72,1.45,1.45,0,0,1-.86,1.32,31.47,31.47,0,0,1-5.86,5,29.72,29.72,0,0,1-7.37,4,18.57,18.57,0,0,1-5,7.37,10.84,10.84,0,0,1-7.33,2.93,5.64,5.64,0,0,1-3.58-1.57q-.07.29-.46,2.15t-.89,4q-2,9.73-3,9.73h-.07a5.11,5.11,0,0,1-1.86,2,4.72,4.72,0,0,1-2.65,1Zm13.45-22.82a5,5,0,0,0,1.79-.36,9.91,9.91,0,0,0,4.43-4.43,2.83,2.83,0,0,1-2-2.68,3.59,3.59,0,0,1,.79-2.61,15.35,15.35,0,0,1,2.22-1.65,2.41,2.41,0,0,0-2.18-1.57,4.7,4.7,0,0,0-2.54.72q-2.22,1.5-4.36,8.58l-.86,2.86A4.91,4.91,0,0,0,167.65,247.3Z"/><path class="cls-2" d="M196.19,237.43q-.21.5-1.86,4.11T190.89,250a3.9,3.9,0,0,1-3.72,2.15q-3.5,0-3.5-5.08v-1.43a48.21,48.21,0,0,1,1.86-13.59q1.36-3.5,4.08-3.5a2.31,2.31,0,0,1,1.75.71,2.14,2.14,0,0,1,.68,1.47,39.63,39.63,0,0,1-.89,4.86,51.16,51.16,0,0,1-1.47,5.69,41.61,41.61,0,0,1,4.94-8.33q3.22-4.33,5-4.33,3.58,0,3.58,2.36a8.75,8.75,0,0,1-.79,3.36q-.79,1.86-.79,1.93c0,.24.37.36,1.11.36s2.71-.64,5.9-1.93h.07q.71,0,1.72,1.22a3.54,3.54,0,0,1,1,2q0,.36-.21.43a16,16,0,0,1-10,3.93q-5.11,0-5.11-3.58A6.57,6.57,0,0,1,196.19,237.43Z"/><path class="cls-2" d="M204.77,243.79a25.51,25.51,0,0,1,1-6.72,24.86,24.86,0,0,1,2.47-6.11,4.36,4.36,0,0,1,3.83-2.47,4.06,4.06,0,0,1,2.32.61,1.71,1.71,0,0,1,.89,1.39,3.32,3.32,0,0,1-.36,1.5q-3.43,6.58-3.43,11.52,0,3.58,2.22,3.58,2.65,0,6.72-4.72a2,2,0,0,1,1.72-.86,2.6,2.6,0,0,1,1.86.75,2.32,2.32,0,0,1,.79,1.72,3.47,3.47,0,0,1-.93,2.11,19.07,19.07,0,0,1-5.69,4.72,13.27,13.27,0,0,1-6.26,1.65,6.48,6.48,0,0,1-5.15-2.32A9.37,9.37,0,0,1,204.77,243.79Zm7.94-23a4,4,0,0,1,1.43-3.22,5.12,5.12,0,0,1,3.43-1.22q4.36,0,4.36,4.15a4,4,0,0,1-1.29,3.15,4.76,4.76,0,0,1-3.29,1.14Q212.71,224.84,212.71,220.83Z"/><path class="cls-2" d="M238.74,228.27q3.29,0,3.29,3.15a21.31,21.31,0,0,1-1.79,6.51q-3.36,8.37-1.14,8.37,1.72,0,5.65-3.36a1.87,1.87,0,0,1,1.25-.5,1.57,1.57,0,0,1,1.25.89,3.71,3.71,0,0,1,.57,2,2.28,2.28,0,0,1-.72,1.79q-6.15,5.15-11,5.15t-4.86-4.22a22.67,22.67,0,0,1,1.32-6.47,41,41,0,0,0,1.32-4.51c0-.26-.1-.39-.29-.39h-.14q-1.79.64-4.26,3.93a32,32,0,0,0-4.33,8.58,6.49,6.49,0,0,1-1.32,2.43,2.87,2.87,0,0,1-2,.64q-3.15,0-3.15-6a40.38,40.38,0,0,1,3.15-15q1.14-2.86,3.36-2.86a3.16,3.16,0,0,1,2,.57,1.62,1.62,0,0,1,.75,1.29,11.17,11.17,0,0,1-.93,3,46.3,46.3,0,0,0-1.93,7,33.43,33.43,0,0,1,6.72-8.62q3.5-3,6.58-3.33Z"/><path class="cls-2" d="M258.62,246.51a5.42,5.42,0,0,1,1.11-3.29,9.73,9.73,0,0,1,2.4-2.36q3.72-2.36,3.93-3.43c.14-.19.12-.29-.07-.29q-3.93,0-7.87,5.44l-3.29,4.58q-3.79,5.36-7.8,5.36a2,2,0,0,1-1.32-.5,3.21,3.21,0,0,1-.89-1.11,10.56,10.56,0,0,1-.54-1.43,8.16,8.16,0,0,1-.29-1.11l-.11-.82a19.57,19.57,0,0,1-.07-2.11A87.14,87.14,0,0,1,246,227a66,66,0,0,1,3.36-10.73,23.42,23.42,0,0,1,5.58-8.15,11.5,11.5,0,0,1,8.08-3.36,5.42,5.42,0,0,1,4.11,1.47,5.62,5.62,0,0,1,1.39,4q0,7.8-15.81,25.32L251,237.43q-.21.86-.75,4.72t-.54,4.36a43.3,43.3,0,0,1,8.69-12.09q5.18-5,10.41-5a4.62,4.62,0,0,1,3.36,1.18,4.57,4.57,0,0,1,1.22,3.43,6.66,6.66,0,0,1-1.36,4.08,10.11,10.11,0,0,1-3,2.79,20.58,20.58,0,0,0-3.47,2.58,4.66,4.66,0,0,0-1.79,3.47q0,1.07,1.57,1.07a10.78,10.78,0,0,0,1.93-.21c0-.09.23-.2.68-.32a8.12,8.12,0,0,0,2.22-1.32,15.6,15.6,0,0,0,3.18-3.43,1.54,1.54,0,0,1,1.39-1.07,2.11,2.11,0,0,1,1.65,1,3.27,3.27,0,0,1,.75,2q0,2.08-5,5.65a12.23,12.23,0,0,1-7,2.5,7.28,7.28,0,0,1-4.33-1.61A5.46,5.46,0,0,1,258.62,246.51Zm2.43-34.69q-2.72,0-5.4,6.26a43,43,0,0,0-3.33,11.34q1.43-2,3.75-4.86t3.25-4.15a13.19,13.19,0,0,0,2.57-7.58Q261.91,211.82,261.06,211.82Z"/><path class="cls-2" d="M284.73,252.52a7.2,7.2,0,0,1-6.15-3.18,13.82,13.82,0,0,1-2.29-8.26,18,18,0,0,1,.07-1.86,74.09,74.09,0,0,1,5.72-21.53,27.83,27.83,0,0,1,5.72-8.9,10.27,10.27,0,0,1,7.37-3.47q5.08,0,5.08,5.58t-5.4,14.7a51.13,51.13,0,0,1-11.91,14.27,10.36,10.36,0,0,0-.14,1.72q0,5.44,3,5.44,3.36,0,7.51-4.72a2,2,0,0,1,1.57-.72,2.57,2.57,0,0,1,1.75.75,2.42,2.42,0,0,1,.82,1.86,3,3,0,0,1-1,2.11Q291,252.52,284.73,252.52Zm8.3-40.27q-2.79,0-5.47,7.08a72.39,72.39,0,0,0-3.83,14.23,57.5,57.5,0,0,0,6.9-10.73q3.25-6.36,3.33-9.23Q294,212.25,293,212.25Z"/><path class="cls-2" d="M291.38,243.08a15.24,15.24,0,0,1,3.86-9.73q3.86-4.72,9.15-4.72a6.58,6.58,0,0,1,4.86,1.79,7,7,0,0,1,1.79,5.15,7.39,7.39,0,0,1-3.22,5.9q-3.22,2.54-9.58,3.61,1,1.86,3.83,1.86a15,15,0,0,0,5.65-1.14,15.83,15.83,0,0,0,4.9-3.08,1.66,1.66,0,0,1,1.22-.5,2,2,0,0,1,1.39.64,2,2,0,0,1,.68,1.47,2.81,2.81,0,0,1-.64,1.68,15.31,15.31,0,0,1-5.58,4.58,17,17,0,0,1-8,2,11.75,11.75,0,0,1-7.26-2.25Q291.38,248.08,291.38,243.08Zm12.34-8.87q-2,0-4,2.29a7.71,7.71,0,0,0-2,5.22,16.41,16.41,0,0,0,5.22-2.54q2.72-1.89,2.72-3.61Q305.68,234.21,303.72,234.21Z"/><path class="cls-2" d="M323.71,252.59h-.21a16.62,16.62,0,0,1-7.8-1.82,12.24,12.24,0,0,1-5.22-4.9q.86-1.29,4.76-8.65t3.68-7.37a4.23,4.23,0,0,1,3.72-2.07,3.18,3.18,0,0,1,2.11.75,2.41,2.41,0,0,1,.89,1.93,4.18,4.18,0,0,1-.5,2.07,3.39,3.39,0,0,0-.5,1.18q0,.93,1.72,2.75a51.51,51.51,0,0,1,3.43,4.08,7,7,0,0,1,1.72,4.11,4.14,4.14,0,0,1-.64,2.15q2.93-1.21,6.29-5.51a1.67,1.67,0,0,1,1.39-.64,2.34,2.34,0,0,1,1.75,1.07,3.3,3.3,0,0,1,.86,2,3.63,3.63,0,0,1-.36,1.64,11.82,11.82,0,0,1-6.22,5.29A27.54,27.54,0,0,1,323.71,252.59Zm-1.57-4.79q3.22,0,3.22-2.79t-2.93-7.08l-2.43,5q-1,2-1.25,2.68t-.32.82a9.19,9.19,0,0,0,3.22,1.36Z"/><path class="cls-2" d="M136.91,253.75h0a3.38,3.38,0,0,1,.58-3.75c1.86-2,5.08-6.38,8.51-15.34,1.9-5,2.22-8.42,1-10.61-2.11-3.74-9.77-5.4-18.11-6.9C118.38,215.26,110.11,206,111,195.52c.7-8.5,9.26-19.86,26.27-20.08,9.43-.12,22.77,3.31,26.46,13.89a24.48,24.48,0,0,1,.42,14.62c-1.44,4.88-5.9,9.66-9.08,12.12a3.46,3.46,0,0,1-4,.16,3.53,3.53,0,0,1-1.37-4c1.78-6.52,13-10.41,7.13-21.91-2.36-4.59-9.78-8.22-19.43-8.09-8.16.11-18.85,4.8-19.59,13.85-.49,5.9,4.33,12.94,12.34,14.38,10.37,1.87,19.25,3.93,22.82,10.25,2.32,4.12,2.15,9.32-.55,16.38-3.67,9.57-7.29,14.78-9.9,17.56A3.39,3.39,0,0,1,136.91,253.75Zm19.61-39.4h0Z"/></g></svg>