<svg xmlns="http://www.w3.org/2000/svg" viewBox="0 0 449 449"><defs><style>.cls-1{fill:#88f9d4;}</style></defs><title>logo</title><g id="bg"><rect width="449" height="449"/></g><g id="Layer_1" data-name="Layer 1"><path class="cls-1" d="M88.18,272.36c-2.15,0-3.09-1-3.09-3.05v-9.46c0-2,.76-2.79,2.59-2.83,7.26-.15,14.49-.77,21.72-1.47,1.49-.15,2.17-1.49,2-3.06-.22-2.26-1.13-3-2.65-3-4.23,0-8.46.06-12.68,0-7.17,0-11.19-4-11-11.25v-8c.08-8.54,2.75-16.27,10.77-20.37,9.21-5.06,18.56-9.87,28-14.51,3.09-1.5,4.56-1.3,4.62,1q.15,6.06.27,12.12c.06,2.76-1.24,4.59-4.07,5.8-7.75,3.31-15.46,6.71-23.16,10.13a3.38,3.38,0,0,0-1.92,3.66c.18,1.61,1.1,2.39,2.55,2q7-1.63,14-3.24c11.14-2.57,17.06,3.59,16.93,14.71v12.69c.08,11.12-6.56,18.29-17.79,18.05ZM97,217.25a11.49,11.49,0,0,0-6.23,11l.55,6.69c.37,4.48,2.08,5.29,4.78,5.19,6.2-.21,12.4-.52,18.6-.74,4.84-.38,6.45,4.13,6.53,8.26.15,2.55.23,3.82.38,6.28.37,5-3.07,9.79-8.4,9.69-7,.25-14,.45-21,.46l.06.82c7,0,14-.15,21.06-.36,6-.1,9.63-4.94,9.24-10.71-.14-2.49-.21-3.76-.35-6.34-.58-4.76-1.66-9.56-7.4-9.21-6.22.29-12.43.67-18.65,1-2.39.13-3.84-.65-4.18-4.51L91.43,228a10.32,10.32,0,0,1,5.7-9.91q10.42-5.36,21-10.47l-.07-1Q107.47,211.84,97,217.25Z"/><path class="cls-1" d="M145.58,272.36c-2.15,0-3.09-.88-3.09-3.27V188.77a5.22,5.22,0,0,1,3.1-5c7.63-4.27,15.24-8.59,22.91-12.79,4.79-2.58,12.21-6.33,17.72-3.83,6.14,2.78,5.82,12.06,5.94,17.62v23.58c0,15.15-2.32,37.29-21.23,39.18q-4.76.44-9.52.85c.14,6.88.28,13.77.48,20.65.07,2.47-.84,3.31-3,3.31Zm36.29-64.81q-.15-6.48-.3-13c-.15-9-2.58-20.07-13.76-13.72q-8.1,4.23-16.16,8.55c.15,24.64.24,49.28.4,73.92h.85q-.1-13.15-.17-26.3c5.55-1,11.1-1.92,16.65-2.89C181.64,232.07,182.11,217.33,181.87,207.55Zm-29.45-17.38q7.7-4.07,15.44-8.06c10.39-5.94,12.62,4.74,12.76,12.89q.16,6.44.31,12.88c.24,9.12-.26,22.59-11.6,24.62-5.54,1-11.08,2-16.62,3.06Q152.57,212.86,152.42,190.17Zm8.32,30.42,7.14-2c3.56-1.31,3.84-6.2,3.63-9.41q-.13-4.36-.26-8.72c.06-2.06-.4-7.77-4-6l-6.91,3.1Q160.53,209.09,160.73,220.59Z"/><path class="cls-1" d="M286.8,272.36c-17.78.2-20.89-11.83-21.14-27.53V187c.09-5.43-.8-16.57,5-19.81,4.69-2.61,11.87,1.47,15.9,3.67,7.41,3.95,14.8,7.92,22.1,12.07,2.34,1.34,3.39,2.85,3.38,5.25,0,4.44-.08,8.89-.14,13.33,0,3.06-1.09,4-3.38,2.9-6-2.83-12-5.56-18.07-8.25-4.19-2.2-5.42,2.13-5.34,5.48q0,19.87,0,39.74c0,3.68,1,7.63,5.27,8,5.84.54,11.68,1.12,17.5,1.77,2.19.25,3.14,1.81,3.1,4.86-.06,4.36-.11,8.73-.14,13.09,0,2.4-1,3.28-3.1,3.28Zm1.81-10.66c-11.39-.19-13-8.33-12.91-18.26q0-24.65-.05-49.3c.16-10.19,1.73-17.49,13-11.61q7.52,3.82,15,7.72c0-.47,0-.7,0-1.15q-7.47-4-15-7.8c-3-1.56-7.92-4.25-11.08-1.73-3.4,2.71-2.68,10.55-2.73,14.2q0,24.78.05,49.56c0,10.71,1.4,19.43,13.77,19.59q7.2.16,14.41.35c0-.46,0-.69,0-1.15Q295.82,261.88,288.61,261.7Z"/><path class="cls-1" d="M323.66,272.36c-2.15,0-3.09-.89-3.09-3.25V192.4c0-2.36.79-2.84,2.7-1.85q20.26,10.59,40.19,21.81c2.22,1.25,3.18,2.75,3.18,4.86v9.65c0,2-1,2.45-3.16,1.42q-12.18-5.68-24.43-11.2c0,3.22.07,4.88.11,8.21q8.61,3.24,17.18,6.56c2.21.86,3.19,2.19,3.2,4.35l0,9.26c0,2.16-.95,2.93-3.14,2.52q-8.5-1.6-17-3.13.06,4.59.13,9.18c8,.76,16,1.57,24,2.38,2.17.22,3.12,1.19,3.12,3.21v9.65c0,2.11-.95,3.07-3.09,3.07Zm7-9.52q-.18-14.77-.34-29.54c7.12,1.85,14.22,3.8,21.3,5.78v-1c-7.09-2.06-14.19-4.08-21.31-6q-.16-14.29-.33-28.58,14.41,7.26,28.68,14.79v-.87q-14.69-7.81-29.51-15.36c.25,20.58.43,41.17.68,61.75,9.68.19,19.36.45,29,.72v-.87C349.46,263.38,340.06,263.07,330.66,262.84Z"/><path class="cls-1" d="M254.41,236.1a128.15,128.15,0,0,0,2.34-15.23c4.88-50.43-28.65-81.22-28.65-81.22s-33.53,30.79-28.65,81.22a128.15,128.15,0,0,0,2.34,15.23l-6.6,4.54v32.22l17.89-11.45c4.87,5.51,9.76,7.14,12.59,7.61v4.15h4.88V269c2.83-.47,7.72-2.1,12.59-7.61L261,272.86V240.64ZM216.21,186.9c1.22-11,11.58-25,11.58-25s10.36,14,11.58,25Z"/><polygon class="cls-1" points="103.42 210.06 91.84 215.55 90.01 225.91 88.79 239.33 94.89 243.59 103.42 243.59 113.17 246.03 113.17 253.35 107.69 259.44 88.79 263.1 88.79 268.59 119.88 268.59 127.81 260.06 124.15 239.33 118.05 233.84 105.25 235.67 94.28 231.4 96.71 222.87 121.1 210.06 121.1 203.36 103.42 210.06"/><polygon class="cls-1" points="148.53 186.9 149.75 266.15 155.24 266.15 156.46 239.94 177.8 235.67 188.77 215.55 183.28 177.14 167.43 177.14 158.9 181.41 163.17 188.12 171.7 186.9 174.14 195.43 176.58 212.5 172.31 223.47 155.85 227.74 155.24 197.26 159.51 191.16 154.02 183.85 148.53 186.9"/><polygon class="cls-1" points="290.58 188.12 304.61 194.82 308.26 186.9 276.56 174.09 271.69 186.9 272.9 261.27 283.88 269.2 308.26 265.54 300.34 256.4 288.76 255.18 279.61 243.59 280.22 206.41 282.05 189.33 290.58 188.12"/><polygon class="cls-1" points="324.12 199.7 325.95 269.2 363.13 269.2 363.13 261.88 336.31 259.44 334.48 239.33 353.99 243.59 354.6 234.45 334.48 227.13 335.09 211.89 364.35 225.3 363.13 214.94 324.12 199.7"/></g></svg>