<svg xmlns="http://www.w3.org/2000/svg" viewBox="0 0 449 449"><defs><style>.cls-1{fill:#fff;}.cls-2{fill:#f2d338;}.cls-3{fill:#fbb03b;}.cls-4{fill:#eafffa;}.cls-10,.cls-11,.cls-15,.cls-5,.cls-9{fill:#c1272d;}.cls-5{stroke:#c1272d;}.cls-10,.cls-11,.cls-12,.cls-13,.cls-14,.cls-15,.cls-5,.cls-9{stroke-miterlimit:10;}.cls-6{fill:#ccc;}.cls-12,.cls-7{fill:#105380;}.cls-8{fill:#ed1c24;}.cls-10,.cls-11,.cls-15,.cls-9{stroke:#fff;}.cls-9{stroke-width:4px;}.cls-11{stroke-width:5px;}.cls-12,.cls-13,.cls-14{stroke:#000;}.cls-12,.cls-13,.cls-15{stroke-width:2px;}.cls-13,.cls-14{fill:none;}</style></defs><title>logo</title><g id="bg"><rect class="cls-1" width="449" height="449"/></g><g id="Layer_1" data-name="Layer 1"><rect class="cls-2" x="100" y="334" width="51" height="51"/><rect class="cls-3" x="151" y="334" width="51" height="51"/><rect class="cls-3" x="202" y="334" width="51" height="51"/><rect class="cls-3" x="253" y="334" width="51" height="51"/><rect class="cls-4" x="151" y="334" width="51" height="51"/><rect class="cls-3" x="202" y="334" width="51" height="51"/><rect class="cls-3" x="253" y="334" width="51" height="51"/><rect class="cls-3" x="304" y="334" width="51" height="51"/><rect class="cls-5" x="202" y="334" width="51" height="51"/><rect class="cls-6" x="253" y="334" width="51" height="51"/><rect class="cls-7" x="304" y="334" width="51" height="51"/><path class="cls-2" d="M170.36,181.35l6.35,4.76h25.39l14.28-3.17,11.11-3.17,3.17-1.59,3.17-4.76,3.17-4.76,6.35-4.76,3.17,1.59s9.52,3.17,19-4.76L276.7,156,291,146.43l4.76-4.76-3.17-6.35L287.81,129l-6.35,4.76-25.39,11.11-12.7,6.35L237,156l-7.94,6.35-15.87,9.52-19,6.35S187.82,181.35,170.36,181.35Z"/><path class="cls-4" d="M162.43,171.82s-4.76,7.94,3.17,9.52,19.47-.93,19.47-.93,33.73-7.28,46.81-20.63,31.33-18.06,31.33-18.06l18.25-8,6.35-4.76-3.17-9.52-4.76-6.35-7.94,6.35L214.8,159.13,191,170.24S168.78,175,162.43,171.82Z"/><path class="cls-5" d="M165.6,171.82,191,157.54S208.45,156,227.5,121c0,0,28.57,12.7,41.27-19l11.11,11.11L261.07,127s-49.44,38.48-57.38,38.48C203.69,165.48,171.95,176.59,165.6,171.82Z"/><path class="cls-7" d="M191,157.54S210,156,225.91,121l-1.59-7.94-3.17-1.59L218,108.34h-1.59l-4.76,9.52v1.59l4.76,4.76s4.76,3.17,0,3.17L210,122.62h-1.59l-1.59,3.17L210,129l3.17,1.59s3.17,4.76-1.59,3.17L205.28,129l-1.59,3.17v1.59l3.17,3.17h1.59s3.17,4.76-1.59,3.17l-4.76-3.17a1.55,1.55,0,0,0-1.59,1.59,1.55,1.55,0,0,1-1.59,1.59l1.59,1.59,3.17,1.59s1.59,4.76-1.59,3.17a19.64,19.64,0,0,1-4.76-3.17L191,156Z"/><path class="cls-6" d="M219.56,103.58l6.35,15.87s28.57,15.87,42.85-17.46l-6.35-14.28Z"/><polyline class="cls-8" points="141 190.08 141 186.9 314 186.9 314 190.08"/><path class="cls-9" d="M159.47,223.82H155c-.75,0-1.08-.33-1.08-1.08v-7.95a14,14,0,0,1,1.17-4.82l2.62-6.83a1.41,1.41,0,0,1,1.54-1h8.1a1.4,1.4,0,0,1,1.51,1l2.62,6.83a14,14,0,0,1,1.17,4.82v7.95c0,.75-.33,1.08-1.08,1.08h-4.55c-.81,0-1.17-.33-1.17-1.08v-4.21h-5.33v4.21C160.55,223.49,160.22,223.82,159.47,223.82Zm10-2.71V214.7a8,8,0,0,0-.51-2.92l-2.08-4.91c-.48-1.17-.84-2-2.17-2h-3c-1.38,0-1.75.87-2.2,2l-1.93,4.94a8,8,0,0,0-.51,2.92v6.41h.3v-5.18h11.74v5.18Zm-11.56-9.21,1.93-4.94c.39-1,.72-1.81,1.93-1.81h3c1.11,0,1.44.78,1.9,1.84l2.08,4.91a7.89,7.89,0,0,1,.48,2.8v.93H157.45v-.93A7.88,7.88,0,0,1,157.94,211.9Zm2.92,1.14h4.73l-1.41-4.58c-.15-.36-.33-.51-.57-.51h-.75c-.24,0-.42.15-.57.51Z"/><path class="cls-9" d="M185.55,224.27c-7.47,0-9.3-2.47-9.3-6.14v-14.9c0-.75.33-1.08,1.08-1.08h4.73c.75,0,1.08.33,1.08,1.08V217c0,.81.36,1.42,2.47,1.42s2.5-.6,2.5-1.42V203.23c0-.75.3-1.08,1.08-1.08h4.58c.75,0,1.08.33,1.08,1.08v14.9C194.85,221.8,193,224.27,185.55,224.27Zm-6-6.86c0,2.44,1.29,4.06,6,4.06s6.05-1.63,6.05-4.06V204.85h-.3v12.55c0,2.26-1.26,3.76-5.75,3.76s-5.72-1.51-5.72-3.76V204.85h-.3Z"/><path class="cls-9" d="M199.4,223.82c-.75,0-1.08-.33-1.08-1.08v-3.52c0-.75.33-1.08,1.08-1.08h8.1a.78.78,0,0,0,.78-.87c0-.69-.27-1-.78-1L203,215.6c-2.83-.42-4.67-1.63-4.67-5v-3.16c0-3.43,2.32-5.3,6.23-5.3H213c.75,0,1.08.33,1.08,1.08v3.58c0,.75-.33,1.08-1.08,1.08h-7a.8.8,0,0,0-.81.9.89.89,0,0,0,.81,1l4.49.6c2.83.42,4.7,1.63,4.7,5v3.16c0,3.43-2.35,5.3-6.23,5.3Zm5.27-19a2.77,2.77,0,0,0-3.07,2.74v2.47c0,1.66.72,2.11,1.78,2.32l6.35,1.29c1.11.24,1.84.75,1.84,2.65v1.75a2.74,2.74,0,0,1-3,2.74H201v.3h7.5a3,3,0,0,0,3.34-3v-1.75c0-2.11-.87-2.71-2.08-2.95l-6.35-1.3c-.93-.18-1.54-.6-1.54-2v-2.47a2.49,2.49,0,0,1,2.77-2.44h6.68v-.3Z"/><path class="cls-9" d="M223.49,223.82c-.75,0-1.08-.33-1.08-1.08V208H218c-.75,0-1.08-.33-1.08-1.08v-3.64c0-.75.33-1.08,1.08-1.08h15.89c.75,0,1.08.33,1.08,1.08v3.64c0,.75-.33,1.08-1.08,1.08h-4.43v14.78c0,.75-.33,1.08-1.08,1.08Zm2.59-2.71v-16h6.17v-.3H219.61v.3h6.17v16Z"/><path class="cls-9" d="M237.41,222.73v-3.58c0-.75.33-1.08,1.08-1.08h3V208h-3c-.75,0-1.08-.33-1.08-1.08v-3.64c0-.75.33-1.08,1.08-1.08h12.82c.75,0,1.08.33,1.08,1.08v3.64c0,.75-.33,1.08-1.08,1.08h-2.92v10.11h2.92c.75,0,1.08.33,1.08,1.08v3.58c0,.75-.33,1.08-1.08,1.08H238.49C237.74,223.82,237.41,223.49,237.41,222.73Zm12.28-1.93h-4.61V205.15h4.61v-.3h-9.57v.3h4.67v15.65h-4.67v.3h9.57Z"/><path class="cls-9" d="M257.19,223.82c-.75,0-1.08-.33-1.08-1.08V203.23c0-.75.33-1.08,1.08-1.08h3.13a2,2,0,0,1,1.78.81l5.84,6.68v-6.41c0-.75.33-1.08,1.08-1.08h4.52c.75,0,1.08.33,1.08,1.08v19.51c0,.75-.33,1.08-1.08,1.08H269c-.75,0-1.08-.33-1.08-1.08V219l-5.15-6.23v9.93c0,.75-.33,1.08-1.08,1.08Zm2.44-19a.35.35,0,0,0-.36.36v15.92h.3V205.24s0-.09.06-.09.09,0,.15.09L271.16,218v3.1h.3V204.85h-.3v12.7l-11.08-12.46C259.87,204.88,259.81,204.82,259.63,204.82Z"/><path class="cls-10" d="M159.47,223.82H155c-.75,0-1.08-.33-1.08-1.08v-7.95a14,14,0,0,1,1.17-4.82l2.62-6.83a1.41,1.41,0,0,1,1.54-1h8.1a1.4,1.4,0,0,1,1.51,1l2.62,6.83a14,14,0,0,1,1.17,4.82v7.95c0,.75-.33,1.08-1.08,1.08h-4.55c-.81,0-1.17-.33-1.17-1.08v-4.21h-5.33v4.21C160.55,223.49,160.22,223.82,159.47,223.82Zm10-2.71V214.7a8,8,0,0,0-.51-2.92l-2.08-4.91c-.48-1.17-.84-2-2.17-2h-3c-1.38,0-1.75.87-2.2,2l-1.93,4.94a8,8,0,0,0-.51,2.92v6.41h.3v-5.18h11.74v5.18Zm-11.56-9.21,1.93-4.94c.39-1,.72-1.81,1.93-1.81h3c1.11,0,1.44.78,1.9,1.84l2.08,4.91a7.89,7.89,0,0,1,.48,2.8v.93H157.45v-.93A7.88,7.88,0,0,1,157.94,211.9Zm2.92,1.14h4.73l-1.41-4.58c-.15-.36-.33-.51-.57-.51h-.75c-.24,0-.42.15-.57.51Z"/><path class="cls-10" d="M185.55,224.27c-7.47,0-9.3-2.47-9.3-6.14v-14.9c0-.75.33-1.08,1.08-1.08h4.73c.75,0,1.08.33,1.08,1.08V217c0,.81.36,1.42,2.47,1.42s2.5-.6,2.5-1.42V203.23c0-.75.3-1.08,1.08-1.08h4.58c.75,0,1.08.33,1.08,1.08v14.9C194.85,221.8,193,224.27,185.55,224.27Zm-6-6.86c0,2.44,1.29,4.06,6,4.06s6.05-1.63,6.05-4.06V204.85h-.3v12.55c0,2.26-1.26,3.76-5.75,3.76s-5.72-1.51-5.72-3.76V204.85h-.3Z"/><path class="cls-10" d="M199.4,223.82c-.75,0-1.08-.33-1.08-1.08v-3.52c0-.75.33-1.08,1.08-1.08h8.1a.78.78,0,0,0,.78-.87c0-.69-.27-1-.78-1L203,215.6c-2.83-.42-4.67-1.63-4.67-5v-3.16c0-3.43,2.32-5.3,6.23-5.3H213c.75,0,1.08.33,1.08,1.08v3.58c0,.75-.33,1.08-1.08,1.08h-7a.8.8,0,0,0-.81.9.89.89,0,0,0,.81,1l4.49.6c2.83.42,4.7,1.63,4.7,5v3.16c0,3.43-2.35,5.3-6.23,5.3Zm5.27-19a2.77,2.77,0,0,0-3.07,2.74v2.47c0,1.66.72,2.11,1.78,2.32l6.35,1.29c1.11.24,1.84.75,1.84,2.65v1.75a2.74,2.74,0,0,1-3,2.74H201v.3h7.5a3,3,0,0,0,3.34-3v-1.75c0-2.11-.87-2.71-2.08-2.95l-6.35-1.3c-.93-.18-1.54-.6-1.54-2v-2.47a2.49,2.49,0,0,1,2.77-2.44h6.68v-.3Z"/><path class="cls-10" d="M223.49,223.82c-.75,0-1.08-.33-1.08-1.08V208H218c-.75,0-1.08-.33-1.08-1.08v-3.64c0-.75.33-1.08,1.08-1.08h15.89c.75,0,1.08.33,1.08,1.08v3.64c0,.75-.33,1.08-1.08,1.08h-4.43v14.78c0,.75-.33,1.08-1.08,1.08Zm2.59-2.71v-16h6.17v-.3H219.61v.3h6.17v16Z"/><path class="cls-10" d="M237.41,222.73v-3.58c0-.75.33-1.08,1.08-1.08h3V208h-3c-.75,0-1.08-.33-1.08-1.08v-3.64c0-.75.33-1.08,1.08-1.08h12.82c.75,0,1.08.33,1.08,1.08v3.64c0,.75-.33,1.08-1.08,1.08h-2.92v10.11h2.92c.75,0,1.08.33,1.08,1.08v3.58c0,.75-.33,1.08-1.08,1.08H238.49C237.74,223.82,237.41,223.49,237.41,222.73Zm12.28-1.93h-4.61V205.15h4.61v-.3h-9.57v.3h4.67v15.65h-4.67v.3h9.57Z"/><path class="cls-10" d="M257.19,223.82c-.75,0-1.08-.33-1.08-1.08V203.23c0-.75.33-1.08,1.08-1.08h3.13a2,2,0,0,1,1.78.81l5.84,6.68v-6.41c0-.75.33-1.08,1.08-1.08h4.52c.75,0,1.08.33,1.08,1.08v19.51c0,.75-.33,1.08-1.08,1.08H269c-.75,0-1.08-.33-1.08-1.08V219l-5.15-6.23v9.93c0,.75-.33,1.08-1.08,1.08Zm2.44-19a.35.35,0,0,0-.36.36v15.92h.3V205.24s0-.09.06-.09.09,0,.15.09L271.16,218v3.1h.3V204.85h-.3v12.7l-11.08-12.46C259.87,204.88,259.81,204.82,259.63,204.82Z"/><path class="cls-9" d="M159.47,223.82H155c-.75,0-1.08-.33-1.08-1.08v-7.95a14,14,0,0,1,1.17-4.82l2.62-6.83a1.41,1.41,0,0,1,1.54-1h8.1a1.4,1.4,0,0,1,1.51,1l2.62,6.83a14,14,0,0,1,1.17,4.82v7.95c0,.75-.33,1.08-1.08,1.08h-4.55c-.81,0-1.17-.33-1.17-1.08v-4.21h-5.33v4.21C160.55,223.49,160.22,223.82,159.47,223.82Zm10-2.71V214.7a8,8,0,0,0-.51-2.92l-2.08-4.91c-.48-1.17-.84-2-2.17-2h-3c-1.38,0-1.75.87-2.2,2l-1.93,4.94a8,8,0,0,0-.51,2.92v6.41h.3v-5.18h11.74v5.18Zm-11.56-9.21,1.93-4.94c.39-1,.72-1.81,1.93-1.81h3c1.11,0,1.44.78,1.9,1.84l2.08,4.91a7.89,7.89,0,0,1,.48,2.8v.93H157.45v-.93A7.88,7.88,0,0,1,157.94,211.9Zm2.92,1.14h4.73l-1.41-4.58c-.15-.36-.33-.51-.57-.51h-.75c-.24,0-.42.15-.57.51Z"/><path class="cls-9" d="M185.55,224.27c-7.47,0-9.3-2.47-9.3-6.14v-14.9c0-.75.33-1.08,1.08-1.08h4.73c.75,0,1.08.33,1.08,1.08V217c0,.81.36,1.42,2.47,1.42s2.5-.6,2.5-1.42V203.23c0-.75.3-1.08,1.08-1.08h4.58c.75,0,1.08.33,1.08,1.08v14.9C194.85,221.8,193,224.27,185.55,224.27Zm-6-6.86c0,2.44,1.29,4.06,6,4.06s6.05-1.63,6.05-4.06V204.85h-.3v12.55c0,2.26-1.26,3.76-5.75,3.76s-5.72-1.51-5.72-3.76V204.85h-.3Z"/><path class="cls-9" d="M199.4,223.82c-.75,0-1.08-.33-1.08-1.08v-3.52c0-.75.33-1.08,1.08-1.08h8.1a.78.78,0,0,0,.78-.87c0-.69-.27-1-.78-1L203,215.6c-2.83-.42-4.67-1.63-4.67-5v-3.16c0-3.43,2.32-5.3,6.23-5.3H213c.75,0,1.08.33,1.08,1.08v3.58c0,.75-.33,1.08-1.08,1.08h-7a.8.8,0,0,0-.81.9.89.89,0,0,0,.81,1l4.49.6c2.83.42,4.7,1.63,4.7,5v3.16c0,3.43-2.35,5.3-6.23,5.3Zm5.27-19a2.77,2.77,0,0,0-3.07,2.74v2.47c0,1.66.72,2.11,1.78,2.32l6.35,1.29c1.11.24,1.84.75,1.84,2.65v1.75a2.74,2.74,0,0,1-3,2.74H201v.3h7.5a3,3,0,0,0,3.34-3v-1.75c0-2.11-.87-2.71-2.08-2.95l-6.35-1.3c-.93-.18-1.54-.6-1.54-2v-2.47a2.49,2.49,0,0,1,2.77-2.44h6.68v-.3Z"/><path class="cls-9" d="M223.49,223.82c-.75,0-1.08-.33-1.08-1.08V208H218c-.75,0-1.08-.33-1.08-1.08v-3.64c0-.75.33-1.08,1.08-1.08h15.89c.75,0,1.08.33,1.08,1.08v3.64c0,.75-.33,1.08-1.08,1.08h-4.43v14.78c0,.75-.33,1.08-1.08,1.08Zm2.59-2.71v-16h6.17v-.3H219.61v.3h6.17v16Z"/><path class="cls-9" d="M237.41,222.73v-3.58c0-.75.33-1.08,1.08-1.08h3V208h-3c-.75,0-1.08-.33-1.08-1.08v-3.64c0-.75.33-1.08,1.08-1.08h12.82c.75,0,1.08.33,1.08,1.08v3.64c0,.75-.33,1.08-1.08,1.08h-2.92v10.11h2.92c.75,0,1.08.33,1.08,1.08v3.58c0,.75-.33,1.08-1.08,1.08H238.49C237.74,223.82,237.41,223.49,237.41,222.73Zm12.28-1.93h-4.61V205.15h4.61v-.3h-9.57v.3h4.67v15.65h-4.67v.3h9.57Z"/><path class="cls-9" d="M257.19,223.82c-.75,0-1.08-.33-1.08-1.08V203.23c0-.75.33-1.08,1.08-1.08h3.13a2,2,0,0,1,1.78.81l5.84,6.68v-6.41c0-.75.33-1.08,1.08-1.08h4.52c.75,0,1.08.33,1.08,1.08v19.51c0,.75-.33,1.08-1.08,1.08H269c-.75,0-1.08-.33-1.08-1.08V219l-5.15-6.23v9.93c0,.75-.33,1.08-1.08,1.08Zm2.44-19a.35.35,0,0,0-.36.36v15.92h.3V205.24s0-.09.06-.09.09,0,.15.09L271.16,218v3.1h.3V204.85h-.3v12.7l-11.08-12.46C259.87,204.88,259.81,204.82,259.63,204.82Z"/><path class="cls-11" d="M159.47,223.82H155c-.75,0-1.08-.33-1.08-1.08v-7.95a14,14,0,0,1,1.17-4.82l2.62-6.83a1.41,1.41,0,0,1,1.54-1h8.1a1.4,1.4,0,0,1,1.51,1l2.62,6.83a14,14,0,0,1,1.17,4.82v7.95c0,.75-.33,1.08-1.08,1.08h-4.55c-.81,0-1.17-.33-1.17-1.08v-4.21h-5.33v4.21C160.55,223.49,160.22,223.82,159.47,223.82Zm10-2.71V214.7a8,8,0,0,0-.51-2.92l-2.08-4.91c-.48-1.17-.84-2-2.17-2h-3c-1.38,0-1.75.87-2.2,2l-1.93,4.94a8,8,0,0,0-.51,2.92v6.41h.3v-5.18h11.74v5.18Zm-11.56-9.21,1.93-4.94c.39-1,.72-1.81,1.93-1.81h3c1.11,0,1.44.78,1.9,1.84l2.08,4.91a7.89,7.89,0,0,1,.48,2.8v.93H157.45v-.93A7.88,7.88,0,0,1,157.94,211.9Zm2.92,1.14h4.73l-1.41-4.58c-.15-.36-.33-.51-.57-.51h-.75c-.24,0-.42.15-.57.51Z"/><path class="cls-11" d="M185.55,224.27c-7.47,0-9.3-2.47-9.3-6.14v-14.9c0-.75.33-1.08,1.08-1.08h4.73c.75,0,1.08.33,1.08,1.08V217c0,.81.36,1.42,2.47,1.42s2.5-.6,2.5-1.42V203.23c0-.75.3-1.08,1.08-1.08h4.58c.75,0,1.08.33,1.08,1.08v14.9C194.85,221.8,193,224.27,185.55,224.27Zm-6-6.86c0,2.44,1.29,4.06,6,4.06s6.05-1.63,6.05-4.06V204.85h-.3v12.55c0,2.26-1.26,3.76-5.75,3.76s-5.72-1.51-5.72-3.76V204.85h-.3Z"/><path class="cls-11" d="M199.4,223.82c-.75,0-1.08-.33-1.08-1.08v-3.52c0-.75.33-1.08,1.08-1.08h8.1a.78.78,0,0,0,.78-.87c0-.69-.27-1-.78-1L203,215.6c-2.83-.42-4.67-1.63-4.67-5v-3.16c0-3.43,2.32-5.3,6.23-5.3H213c.75,0,1.08.33,1.08,1.08v3.58c0,.75-.33,1.08-1.08,1.08h-7a.8.8,0,0,0-.81.9.89.89,0,0,0,.81,1l4.49.6c2.83.42,4.7,1.63,4.7,5v3.16c0,3.43-2.35,5.3-6.23,5.3Zm5.27-19a2.77,2.77,0,0,0-3.07,2.74v2.47c0,1.66.72,2.11,1.78,2.32l6.35,1.29c1.11.24,1.84.75,1.84,2.65v1.75a2.74,2.74,0,0,1-3,2.74H201v.3h7.5a3,3,0,0,0,3.34-3v-1.75c0-2.11-.87-2.71-2.08-2.95l-6.35-1.3c-.93-.18-1.54-.6-1.54-2v-2.47a2.49,2.49,0,0,1,2.77-2.44h6.68v-.3Z"/><path class="cls-11" d="M223.49,223.82c-.75,0-1.08-.33-1.08-1.08V208H218c-.75,0-1.08-.33-1.08-1.08v-3.64c0-.75.33-1.08,1.08-1.08h15.89c.75,0,1.08.33,1.08,1.08v3.64c0,.75-.33,1.08-1.08,1.08h-4.43v14.78c0,.75-.33,1.08-1.08,1.08Zm2.59-2.71v-16h6.17v-.3H219.61v.3h6.17v16Z"/><path class="cls-11" d="M237.41,222.73v-3.58c0-.75.33-1.08,1.08-1.08h3V208h-3c-.75,0-1.08-.33-1.08-1.08v-3.64c0-.75.33-1.08,1.08-1.08h12.82c.75,0,1.08.33,1.08,1.08v3.64c0,.75-.33,1.08-1.08,1.08h-2.92v10.11h2.92c.75,0,1.08.33,1.08,1.08v3.58c0,.75-.33,1.08-1.08,1.08H238.49C237.74,223.82,237.41,223.49,237.41,222.73Zm12.28-1.93h-4.61V205.15h4.61v-.3h-9.57v.3h4.67v15.65h-4.67v.3h9.57Z"/><path class="cls-11" d="M257.19,223.82c-.75,0-1.08-.33-1.08-1.08V203.23c0-.75.33-1.08,1.08-1.08h3.13a2,2,0,0,1,1.78.81l5.84,6.68v-6.41c0-.75.33-1.08,1.08-1.08h4.52c.75,0,1.08.33,1.08,1.08v19.51c0,.75-.33,1.08-1.08,1.08H269c-.75,0-1.08-.33-1.08-1.08V219l-5.15-6.23v9.93c0,.75-.33,1.08-1.08,1.08Zm2.44-19a.35.35,0,0,0-.36.36v15.92h.3V205.24s0-.09.06-.09.09,0,.15.09L271.16,218v3.1h.3V204.85h-.3v12.7l-11.08-12.46C259.87,204.88,259.81,204.82,259.63,204.82Z"/><path class="cls-12" d="M314,190.08v52.38a19.1,19.1,0,0,1-19,19H160a19.1,19.1,0,0,1-19-19V190.08"/><path class="cls-13" d="M141,190.08V107.54a19.1,19.1,0,0,1,19-19H295a19.1,19.1,0,0,1,19,19v82.53"/><path class="cls-13" d="M162.43,171.82s22.22,6.35,52.38-12.7,65.07-46,65.07-46,6.35,4.76,7.94,15.87c0,0-6.35,6.35-25.39,12.7a89.47,89.47,0,0,0-31.74,19S195.76,186.11,164,181.35C164,181.35,157.67,176.59,162.43,171.82Z"/><path class="cls-13" d="M287.81,128.48s7.14,9.22,7.14,14S260,164.68,253.69,166.27c0,0-6.35,0-7.94-1.59s-9.52,3.17-9.52,3.17-3.17,7.94-6.35,11.11-45.23,13.49-65.87,2.38"/><path class="cls-13" d="M162.43,171.82s24.6-10.32,27.78-15.08c0,0,15.87,4.76,36.5-36.5,0,0,28.57,14.28,42.85-19l11.11,12.7"/><path class="cls-14" d="M226.71,120.24c0-4.76-9.52-12.7-9.52-12.7l-6.38,11.64,7.44,5.77a1.59,1.59,0,0,1-1.94,2.51l-7-5.46-2.32,4.23,6.54,5.07a1.59,1.59,0,0,1-1.94,2.51L205.39,129l-2.32,4.23,5.65,4.38a1.59,1.59,0,0,1-1.94,2.51l-5.25-4.07-2.32,4.23L204,144a1.59,1.59,0,0,1-1.94,2.51l-4.35-3.37-7.47,13.61"/><polyline class="cls-13" points="226.71 120.24 220.36 104.37 263.21 88.5"/><line class="cls-13" x1="263.21" y1="88.5" x2="269.56" y2="101.2"/><line class="cls-13" x1="221.94" y1="103.78" x2="215.84" y2="88.5"/><line class="cls-14" x1="230.4" y1="100.65" x2="232.26" y2="105.16"/><line class="cls-14" x1="241.51" y1="97.48" x2="243.37" y2="101.99"/><line class="cls-14" x1="252.62" y1="94.3" x2="254.48" y2="98.82"/><path class="cls-15" d="M158.5,255c-.75,0-1.08-.33-1.08-1.08V234.37c0-.75.33-1.08,1.08-1.08h10c4.52,0,5.93,2,5.93,5v1.38c0,1.69-.42,2.89-1.69,3.43,2.2.24,3.64,1.84,3.64,4.36v6.38c0,.75-.33,1.08-1.08,1.08h-4.67c-.75,0-1.08-.33-1.08-1.08v-4.61c0-.9-.3-1.29-1.14-1.29h-4.21v5.9c0,.75-.33,1.08-1.08,1.08Zm2.47-9.69h8.52c2.29,0,3.34,1,3.34,2.95v4h.3v-4c0-2.11-1.17-3.22-3.64-3.22h-.33c1.45-.45,1.81-1.66,1.81-3.49v-2.08a3.13,3.13,0,0,0-3.43-3.43h-6.86v16.26h.3Zm9.69-5.84v2.11c0,2.23-.63,3.46-3.13,3.46H161v-8.7h6.56A2.84,2.84,0,0,1,170.66,239.42Zm-6.44,3.13h2.26c1.05,0,1.32-.6,1.32-1.42v-1c0-.81-.27-1.42-1.32-1.42h-2.26Z"/><path class="cls-15" d="M188.94,255.41c-7.47,0-9.3-2.47-9.3-6.14v-14.9c0-.75.33-1.08,1.08-1.08h4.73c.75,0,1.08.33,1.08,1.08v13.73c0,.81.36,1.42,2.47,1.42s2.5-.6,2.5-1.42V234.37c0-.75.3-1.08,1.08-1.08h4.58c.75,0,1.08.33,1.08,1.08v14.9C198.24,252.94,196.41,255.41,188.94,255.41Zm-6-6.86c0,2.44,1.29,4.06,6,4.06S195,251,195,248.54V236h-.3v12.55c0,2.26-1.26,3.76-5.75,3.76s-5.72-1.51-5.72-3.76V236H183Z"/><path class="cls-15" d="M203.34,255c-.75,0-1.08-.33-1.08-1.08V234.37c0-.75.33-1.08,1.08-1.08h3.13a2,2,0,0,1,1.78.81l5.84,6.68v-6.41c0-.75.33-1.08,1.08-1.08h4.52c.75,0,1.08.33,1.08,1.08v19.51c0,.75-.33,1.08-1.08,1.08h-4.52c-.75,0-1.08-.33-1.08-1.08v-3.7l-5.15-6.23v9.93c0,.75-.33,1.08-1.08,1.08Zm2.44-19a.35.35,0,0,0-.36.36v15.92h.3V236.38s0-.09.06-.09.09,0,.15.09l11.38,12.76v3.1h.3V236h-.3v12.7l-11.08-12.46C206,236,206,236,205.78,236Z"/><path class="cls-15" d="M159.47,223.82H155c-.75,0-1.08-.33-1.08-1.08v-7.95a14,14,0,0,1,1.17-4.82l2.62-6.83a1.41,1.41,0,0,1,1.54-1h8.1a1.4,1.4,0,0,1,1.51,1l2.62,6.83a14,14,0,0,1,1.17,4.82v7.95c0,.75-.33,1.08-1.08,1.08h-4.55c-.81,0-1.17-.33-1.17-1.08v-4.21h-5.33v4.21C160.55,223.49,160.22,223.82,159.47,223.82Zm10-2.71V214.7a8,8,0,0,0-.51-2.92l-2.08-4.91c-.48-1.17-.84-2-2.17-2h-3c-1.38,0-1.75.87-2.2,2l-1.93,4.94a8,8,0,0,0-.51,2.92v6.41h.3v-5.18h11.74v5.18Zm-11.56-9.21,1.93-4.94c.39-1,.72-1.81,1.93-1.81h3c1.11,0,1.44.78,1.9,1.84l2.08,4.91a7.89,7.89,0,0,1,.48,2.8v.93H157.45v-.93A7.88,7.88,0,0,1,157.94,211.9Zm2.92,1.14h4.73l-1.41-4.58c-.15-.36-.33-.51-.57-.51h-.75c-.24,0-.42.15-.57.51Z"/><path class="cls-15" d="M185.55,224.27c-7.47,0-9.3-2.47-9.3-6.14v-14.9c0-.75.33-1.08,1.08-1.08h4.73c.75,0,1.08.33,1.08,1.08V217c0,.81.36,1.42,2.47,1.42s2.5-.6,2.5-1.42V203.23c0-.75.3-1.08,1.08-1.08h4.58c.75,0,1.08.33,1.08,1.08v14.9C194.85,221.8,193,224.27,185.55,224.27Zm-6-6.86c0,2.44,1.29,4.06,6,4.06s6.05-1.63,6.05-4.06V204.85h-.3v12.55c0,2.26-1.26,3.76-5.75,3.76s-5.72-1.51-5.72-3.76V204.85h-.3Z"/><path class="cls-15" d="M199.4,223.82c-.75,0-1.08-.33-1.08-1.08v-3.52c0-.75.33-1.08,1.08-1.08h8.1a.78.78,0,0,0,.78-.87c0-.69-.27-1-.78-1L203,215.6c-2.83-.42-4.67-1.63-4.67-5v-3.16c0-3.43,2.32-5.3,6.23-5.3H213c.75,0,1.08.33,1.08,1.08v3.58c0,.75-.33,1.08-1.08,1.08h-7a.8.8,0,0,0-.81.9.89.89,0,0,0,.81,1l4.49.6c2.83.42,4.7,1.63,4.7,5v3.16c0,3.43-2.35,5.3-6.23,5.3Zm5.27-19a2.77,2.77,0,0,0-3.07,2.74v2.47c0,1.66.72,2.11,1.78,2.32l6.35,1.29c1.11.24,1.84.75,1.84,2.65v1.75a2.74,2.74,0,0,1-3,2.74H201v.3h7.5a3,3,0,0,0,3.34-3v-1.75c0-2.11-.87-2.71-2.08-2.95l-6.35-1.3c-.93-.18-1.54-.6-1.54-2v-2.47a2.49,2.49,0,0,1,2.77-2.44h6.68v-.3Z"/><path class="cls-15" d="M223.49,223.82c-.75,0-1.08-.33-1.08-1.08V208H218c-.75,0-1.08-.33-1.08-1.08v-3.64c0-.75.33-1.08,1.08-1.08h15.89c.75,0,1.08.33,1.08,1.08v3.64c0,.75-.33,1.08-1.08,1.08h-4.43v14.78c0,.75-.33,1.08-1.08,1.08Zm2.59-2.71v-16h6.17v-.3H219.61v.3h6.17v16Z"/><path class="cls-15" d="M237.41,222.73v-3.58c0-.75.33-1.08,1.08-1.08h3V208h-3c-.75,0-1.08-.33-1.08-1.08v-3.64c0-.75.33-1.08,1.08-1.08h12.82c.75,0,1.08.33,1.08,1.08v3.64c0,.75-.33,1.08-1.08,1.08h-2.92v10.11h2.92c.75,0,1.08.33,1.08,1.08v3.58c0,.75-.33,1.08-1.08,1.08H238.49C237.74,223.82,237.41,223.49,237.41,222.73Zm12.28-1.93h-4.61V205.15h4.61v-.3h-9.57v.3h4.67v15.65h-4.67v.3h9.57Z"/><path class="cls-15" d="M257.19,223.82c-.75,0-1.08-.33-1.08-1.08V203.23c0-.75.33-1.08,1.08-1.08h3.13a2,2,0,0,1,1.78.81l5.84,6.68v-6.41c0-.75.33-1.08,1.08-1.08h4.52c.75,0,1.08.33,1.08,1.08v19.51c0,.75-.33,1.08-1.08,1.08H269c-.75,0-1.08-.33-1.08-1.08V219l-5.15-6.23v9.93c0,.75-.33,1.08-1.08,1.08Zm2.44-19a.35.35,0,0,0-.36.36v15.92h.3V205.24s0-.09.06-.09.09,0,.15.09L271.16,218v3.1h.3V204.85h-.3v12.7l-11.08-12.46C259.87,204.88,259.81,204.82,259.63,204.82Z"/><path class="cls-5" d="M159.47,223.82H155c-.75,0-1.08-.33-1.08-1.08v-7.95a14,14,0,0,1,1.17-4.82l2.62-6.83a1.41,1.41,0,0,1,1.54-1h8.1a1.4,1.4,0,0,1,1.51,1l2.62,6.83a14,14,0,0,1,1.17,4.82v7.95c0,.75-.33,1.08-1.08,1.08h-4.55c-.81,0-1.17-.33-1.17-1.08v-4.21h-5.33v4.21C160.55,223.49,160.22,223.82,159.47,223.82Zm10-2.71V214.7a8,8,0,0,0-.51-2.92l-2.08-4.91c-.48-1.17-.84-2-2.17-2h-3c-1.38,0-1.75.87-2.2,2l-1.93,4.94a8,8,0,0,0-.51,2.92v6.41h.3v-5.18h11.74v5.18Zm-11.56-9.21,1.93-4.94c.39-1,.72-1.81,1.93-1.81h3c1.11,0,1.44.78,1.9,1.84l2.08,4.91a7.89,7.89,0,0,1,.48,2.8v.93H157.45v-.93A7.88,7.88,0,0,1,157.94,211.9Zm2.92,1.14h4.73l-1.41-4.58c-.15-.36-.33-.51-.57-.51h-.75c-.24,0-.42.15-.57.51Z"/><path class="cls-5" d="M185.55,224.27c-7.47,0-9.3-2.47-9.3-6.14v-14.9c0-.75.33-1.08,1.08-1.08h4.73c.75,0,1.08.33,1.08,1.08V217c0,.81.36,1.42,2.47,1.42s2.5-.6,2.5-1.42V203.23c0-.75.3-1.08,1.08-1.08h4.58c.75,0,1.08.33,1.08,1.08v14.9C194.85,221.8,193,224.27,185.55,224.27Zm-6-6.86c0,2.44,1.29,4.06,6,4.06s6.05-1.63,6.05-4.06V204.85h-.3v12.55c0,2.26-1.26,3.76-5.75,3.76s-5.72-1.51-5.72-3.76V204.85h-.3Z"/><path class="cls-5" d="M199.4,223.82c-.75,0-1.08-.33-1.08-1.08v-3.52c0-.75.33-1.08,1.08-1.08h8.1a.78.78,0,0,0,.78-.87c0-.69-.27-1-.78-1L203,215.6c-2.83-.42-4.67-1.63-4.67-5v-3.16c0-3.43,2.32-5.3,6.23-5.3H213c.75,0,1.08.33,1.08,1.08v3.58c0,.75-.33,1.08-1.08,1.08h-7a.8.8,0,0,0-.81.9.89.89,0,0,0,.81,1l4.49.6c2.83.42,4.7,1.63,4.7,5v3.16c0,3.43-2.35,5.3-6.23,5.3Zm5.27-19a2.77,2.77,0,0,0-3.07,2.74v2.47c0,1.66.72,2.11,1.78,2.32l6.35,1.29c1.11.24,1.84.75,1.84,2.65v1.75a2.74,2.74,0,0,1-3,2.74H201v.3h7.5a3,3,0,0,0,3.34-3v-1.75c0-2.11-.87-2.71-2.08-2.95l-6.35-1.3c-.93-.18-1.54-.6-1.54-2v-2.47a2.49,2.49,0,0,1,2.77-2.44h6.68v-.3Z"/><path class="cls-5" d="M223.49,223.82c-.75,0-1.08-.33-1.08-1.08V208H218c-.75,0-1.08-.33-1.08-1.08v-3.64c0-.75.33-1.08,1.08-1.08h15.89c.75,0,1.08.33,1.08,1.08v3.64c0,.75-.33,1.08-1.08,1.08h-4.43v14.78c0,.75-.33,1.08-1.08,1.08Zm2.59-2.71v-16h6.17v-.3H219.61v.3h6.17v16Z"/><path class="cls-5" d="M237.41,222.73v-3.58c0-.75.33-1.08,1.08-1.08h3V208h-3c-.75,0-1.08-.33-1.08-1.08v-3.64c0-.75.33-1.08,1.08-1.08h12.82c.75,0,1.08.33,1.08,1.08v3.64c0,.75-.33,1.08-1.08,1.08h-2.92v10.11h2.92c.75,0,1.08.33,1.08,1.08v3.58c0,.75-.33,1.08-1.08,1.08H238.49C237.74,223.82,237.41,223.49,237.41,222.73Zm12.28-1.93h-4.61V205.15h4.61v-.3h-9.57v.3h4.67v15.65h-4.67v.3h9.57Z"/><path class="cls-5" d="M257.19,223.82c-.75,0-1.08-.33-1.08-1.08V203.23c0-.75.33-1.08,1.08-1.08h3.13a2,2,0,0,1,1.78.81l5.84,6.68v-6.41c0-.75.33-1.08,1.08-1.08h4.52c.75,0,1.08.33,1.08,1.08v19.51c0,.75-.33,1.08-1.08,1.08H269c-.75,0-1.08-.33-1.08-1.08V219l-5.15-6.23v9.93c0,.75-.33,1.08-1.08,1.08Zm2.44-19a.35.35,0,0,0-.36.36v15.92h.3V205.24s0-.09.06-.09.09,0,.15.09L271.16,218v3.1h.3V204.85h-.3v12.7l-11.08-12.46C259.87,204.88,259.81,204.82,259.63,204.82Z"/><path class="cls-5" d="M158.5,255c-.75,0-1.08-.33-1.08-1.08V234.37c0-.75.33-1.08,1.08-1.08h10c4.52,0,5.93,2,5.93,5v1.38c0,1.69-.42,2.89-1.69,3.43,2.2.24,3.64,1.84,3.64,4.36v6.38c0,.75-.33,1.08-1.08,1.08h-4.67c-.75,0-1.08-.33-1.08-1.08v-4.61c0-.9-.3-1.29-1.14-1.29h-4.21v5.9c0,.75-.33,1.08-1.08,1.08Zm2.47-9.69h8.52c2.29,0,3.34,1,3.34,2.95v4h.3v-4c0-2.11-1.17-3.22-3.64-3.22h-.33c1.45-.45,1.81-1.66,1.81-3.49v-2.08a3.13,3.13,0,0,0-3.43-3.43h-6.86v16.26h.3Zm9.69-5.84v2.11c0,2.23-.63,3.46-3.13,3.46H161v-8.7h6.56A2.84,2.84,0,0,1,170.66,239.42Zm-6.44,3.13h2.26c1.05,0,1.32-.6,1.32-1.42v-1c0-.81-.27-1.42-1.32-1.42h-2.26Z"/><path class="cls-5" d="M188.94,255.41c-7.47,0-9.3-2.47-9.3-6.14v-14.9c0-.75.33-1.08,1.08-1.08h4.73c.75,0,1.08.33,1.08,1.08v13.73c0,.81.36,1.42,2.47,1.42s2.5-.6,2.5-1.42V234.37c0-.75.3-1.08,1.08-1.08h4.58c.75,0,1.08.33,1.08,1.08v14.9C198.24,252.94,196.41,255.41,188.94,255.41Zm-6-6.86c0,2.44,1.29,4.06,6,4.06S195,251,195,248.54V236h-.3v12.55c0,2.26-1.26,3.76-5.75,3.76s-5.72-1.51-5.72-3.76V236H183Z"/><path class="cls-5" d="M203.34,255c-.75,0-1.08-.33-1.08-1.08V234.37c0-.75.33-1.08,1.08-1.08h3.13a2,2,0,0,1,1.78.81l5.84,6.68v-6.41c0-.75.33-1.08,1.08-1.08h4.52c.75,0,1.08.33,1.08,1.08v19.51c0,.75-.33,1.08-1.08,1.08h-4.52c-.75,0-1.08-.33-1.08-1.08v-3.7l-5.15-6.23v9.93c0,.75-.33,1.08-1.08,1.08Zm2.44-19a.35.35,0,0,0-.36.36v15.92h.3V236.38s0-.09.06-.09.09,0,.15.09l11.38,12.76v3.1h.3V236h-.3v12.7l-11.08-12.46C206,236,206,236,205.78,236Z"/></g></svg>