<svg xmlns="http://www.w3.org/2000/svg" viewBox="0 0 449 449"><defs><style>.cls-1{fill:#fff;}.cls-2{fill:red;}.cls-3{fill:#fbb03b;}.cls-4{fill:#0071bc;}.cls-5{fill-rule:evenodd;}</style></defs><title>logo</title><g id="bg"><rect class="cls-1" width="449" height="449"/></g><g id="Layer_1" data-name="Layer 1"><rect class="cls-2" x="123" y="336" width="51" height="51"/><rect class="cls-3" x="174" y="336" width="51" height="51"/><rect class="cls-3" x="225" y="336" width="51" height="51"/><rect class="cls-3" x="276" y="336" width="51" height="51"/><rect class="cls-4" x="174" y="336" width="51" height="51"/><rect class="cls-3" x="225" y="336" width="51" height="51"/><rect class="cls-3" x="276" y="336" width="51" height="51"/><rect class="cls-1" x="225" y="336" width="51" height="51"/><rect x="276" y="336" width="51" height="51"/><path class="cls-4" d="M170.89,232.19V220.85h2.29v4.46h4.49v-4.46H180v11.34h-2.29v-5h-4.49v5Z"/><path class="cls-4" d="M183.93,226.48l-2-.36a3.07,3.07,0,0,1,1.14-1.76,4.19,4.19,0,0,1,2.41-.57,5.2,5.2,0,0,1,2.17.34,2.16,2.16,0,0,1,1,.87A4.48,4.48,0,0,1,189,227l0,2.54a8.8,8.8,0,0,0,.1,1.6,4.66,4.66,0,0,0,.39,1.1h-2.15q-.09-.22-.21-.64l-.08-.26a3.92,3.92,0,0,1-1.19.81,3.41,3.41,0,0,1-1.35.27,2.8,2.8,0,0,1-2-.69,2.29,2.29,0,0,1-.73-1.74,2.34,2.34,0,0,1,.33-1.24,2.17,2.17,0,0,1,.93-.84,7.29,7.29,0,0,1,1.73-.51,11.84,11.84,0,0,0,2.11-.53v-.22a1.13,1.13,0,0,0-.31-.89,1.85,1.85,0,0,0-1.17-.27,1.56,1.56,0,0,0-.9.23A1.59,1.59,0,0,0,183.93,226.48Zm2.91,1.76a13.61,13.61,0,0,1-1.32.33,4,4,0,0,0-1.18.38.91.91,0,0,0-.43.77,1.07,1.07,0,0,0,.34.79,1.19,1.19,0,0,0,.87.33,1.88,1.88,0,0,0,1.12-.39,1.36,1.36,0,0,0,.52-.72,4.29,4.29,0,0,0,.09-1.06Z"/><path class="cls-4" d="M191,224h2v1.12a3.22,3.22,0,0,1,2.56-1.31,2.76,2.76,0,0,1,1.37.32,2.5,2.5,0,0,1,1,1,3.8,3.8,0,0,1,1.17-1,2.87,2.87,0,0,1,1.34-.32,3,3,0,0,1,1.53.37,2.25,2.25,0,0,1,.94,1.08,4.68,4.68,0,0,1,.22,1.7v5.25h-2.17v-4.69a3.5,3.5,0,0,0-.22-1.58,1,1,0,0,0-.93-.46,1.48,1.48,0,0,0-.86.28,1.54,1.54,0,0,0-.58.82,5.87,5.87,0,0,0-.18,1.7v3.94h-2.17v-4.5a6.24,6.24,0,0,0-.12-1.55,1,1,0,0,0-.36-.52,1.14,1.14,0,0,0-.66-.17,1.58,1.58,0,0,0-.9.27,1.48,1.48,0,0,0-.58.78,5.81,5.81,0,0,0-.17,1.69v4H191Z"/><path class="cls-4" d="M205.14,224h2v1.21a3,3,0,0,1,1.07-1,2.94,2.94,0,0,1,1.49-.39,3.13,3.13,0,0,1,2.43,1.12,4.54,4.54,0,0,1,1,3.12,4.68,4.68,0,0,1-1,3.2,3.13,3.13,0,0,1-2.44,1.14,2.77,2.77,0,0,1-1.23-.27,4.16,4.16,0,0,1-1.16-.93v4.14h-2.17Zm2.15,4a3.16,3.16,0,0,0,.55,2,1.68,1.68,0,0,0,1.34.66,1.57,1.57,0,0,0,1.26-.61,3.13,3.13,0,0,0,.5-2,3,3,0,0,0-.52-1.92,1.6,1.6,0,0,0-1.28-.63,1.67,1.67,0,0,0-1.32.61A2.74,2.74,0,0,0,207.29,227.94Z"/><path class="cls-4" d="M218.64,224v1.73h-1.48V229a8.22,8.22,0,0,0,0,1.17.48.48,0,0,0,.19.27.61.61,0,0,0,.37.11,2.81,2.81,0,0,0,.87-.21l.19,1.69a4.32,4.32,0,0,1-1.72.32,2.73,2.73,0,0,1-1.06-.2,1.55,1.55,0,0,1-.69-.51,2,2,0,0,1-.31-.85,10.53,10.53,0,0,1-.07-1.53v-3.58h-1V224h1v-1.63l2.18-1.27V224Z"/><path class="cls-4" d="M219.65,228a4.44,4.44,0,0,1,.53-2.1,3.66,3.66,0,0,1,1.51-1.55,4.49,4.49,0,0,1,2.18-.53,4.1,4.1,0,0,1,3.06,1.21,4.18,4.18,0,0,1,1.19,3.06,4.23,4.23,0,0,1-1.2,3.09,4.07,4.07,0,0,1-3,1.23,4.77,4.77,0,0,1-2.15-.51,3.5,3.5,0,0,1-1.56-1.5A5,5,0,0,1,219.65,228Zm2.23.12a2.72,2.72,0,0,0,.58,1.87,1.9,1.9,0,0,0,2.86,0,2.76,2.76,0,0,0,.58-1.89,2.71,2.71,0,0,0-.58-1.86,1.9,1.9,0,0,0-2.86,0A2.72,2.72,0,0,0,221.87,228.08Z"/><path class="cls-4" d="M237.29,232.19h-2.17V228a6.48,6.48,0,0,0-.14-1.72,1.21,1.21,0,0,0-.45-.61,1.29,1.29,0,0,0-.75-.22,1.74,1.74,0,0,0-1,.31,1.56,1.56,0,0,0-.61.82,7.08,7.08,0,0,0-.17,1.89v3.72h-2.17V224h2v1.21a3.37,3.37,0,0,1,4-1.13,2.21,2.21,0,0,1,.9.66,2.4,2.4,0,0,1,.43.91,6.79,6.79,0,0,1,.12,1.46Z"/><path class="cls-4" d="M251.17,228l2.22.7a5,5,0,0,1-1.7,2.76,5.34,5.34,0,0,1-6.72-.64,5.9,5.9,0,0,1-1.45-4.22,6.2,6.2,0,0,1,1.46-4.4,5,5,0,0,1,3.84-1.57,4.72,4.72,0,0,1,3.38,1.23,4.47,4.47,0,0,1,1.16,2.09l-2.27.54a2.34,2.34,0,0,0-2.39-1.9,2.58,2.58,0,0,0-2,.9,4.44,4.44,0,0,0-.78,2.93,4.76,4.76,0,0,0,.77,3.06,2.51,2.51,0,0,0,2,.91,2.29,2.29,0,0,0,1.57-.58A3.37,3.37,0,0,0,251.17,228Z"/><path class="cls-4" d="M254.84,228a4.44,4.44,0,0,1,.53-2.1,3.66,3.66,0,0,1,1.51-1.55,4.49,4.49,0,0,1,2.18-.53,4.1,4.1,0,0,1,3.06,1.21,4.18,4.18,0,0,1,1.19,3.06,4.23,4.23,0,0,1-1.2,3.09,4.07,4.07,0,0,1-3,1.23,4.77,4.77,0,0,1-2.15-.51,3.5,3.5,0,0,1-1.56-1.5A5,5,0,0,1,254.84,228Zm2.23.12a2.72,2.72,0,0,0,.58,1.87,1.9,1.9,0,0,0,2.86,0,2.76,2.76,0,0,0,.58-1.89,2.71,2.71,0,0,0-.58-1.86,1.9,1.9,0,0,0-2.86,0A2.72,2.72,0,0,0,257.06,228.08Z"/><path class="cls-4" d="M267.27,232.19,264,224h2.28l1.55,4.19.45,1.4q.18-.53.22-.7.11-.35.23-.7l1.56-4.19h2.24l-3.26,8.21Z"/><path class="cls-4" d="M278.58,229.58l2.17.36a3.55,3.55,0,0,1-1.32,1.81,3.87,3.87,0,0,1-2.25.62A3.67,3.67,0,0,1,274,231a4.7,4.7,0,0,1-.81-2.83,4.53,4.53,0,0,1,1.07-3.2,3.51,3.51,0,0,1,2.7-1.16,3.65,3.65,0,0,1,2.89,1.21,5.35,5.35,0,0,1,1,3.71h-5.44a2.2,2.2,0,0,0,.53,1.5,1.65,1.65,0,0,0,1.25.54,1.33,1.33,0,0,0,.86-.28A1.72,1.72,0,0,0,278.58,229.58Zm.12-2.2a2.09,2.09,0,0,0-.49-1.43,1.49,1.49,0,0,0-1.13-.49,1.51,1.51,0,0,0-1.18.52,2,2,0,0,0-.46,1.41Z"/><path class="cls-2" d="M183,249.16h-2.11L180,247h-3.85l-.79,2.19h-2.06l3.75-9.63h2.06Zm-3.58-3.81-1.33-3.57-1.3,3.57Z"/><path class="cls-2" d="M190.33,249.16h-1.85V245.6a5.5,5.5,0,0,0-.12-1.46,1,1,0,0,0-.38-.52,1.1,1.1,0,0,0-.64-.18,1.48,1.48,0,0,0-.86.26,1.32,1.32,0,0,0-.52.7,6,6,0,0,0-.14,1.6v3.16H184v-7h1.71v1a2.86,2.86,0,0,1,3.42-1,1.87,1.87,0,0,1,.77.56,2,2,0,0,1,.36.77,5.76,5.76,0,0,1,.1,1.24Z"/><path class="cls-2" d="M192.2,241.24v-1.71H194v1.71Zm0,7.92v-7H194v7Z"/><path class="cls-2" d="M195.8,242.19h1.7v1a2.74,2.74,0,0,1,2.17-1.11,2.34,2.34,0,0,1,1.16.28,2.12,2.12,0,0,1,.81.83,3.22,3.22,0,0,1,1-.83,2.43,2.43,0,0,1,1.14-.28,2.53,2.53,0,0,1,1.3.31,1.91,1.91,0,0,1,.79.92,4,4,0,0,1,.19,1.44v4.46h-1.85v-4a3,3,0,0,0-.19-1.34.87.87,0,0,0-.79-.39,1.26,1.26,0,0,0-.73.24,1.31,1.31,0,0,0-.49.69,5,5,0,0,0-.15,1.44v3.35H200v-3.82a5.29,5.29,0,0,0-.1-1.31.84.84,0,0,0-.31-.44,1,1,0,0,0-.56-.14,1.35,1.35,0,0,0-.77.23,1.26,1.26,0,0,0-.49.66,4.93,4.93,0,0,0-.15,1.44v3.39H195.8Z"/><path class="cls-2" d="M209.28,244.32l-1.67-.3a2.61,2.61,0,0,1,1-1.5,3.56,3.56,0,0,1,2-.49,4.42,4.42,0,0,1,1.84.29,1.83,1.83,0,0,1,.85.74,3.81,3.81,0,0,1,.25,1.65l0,2.15a7.49,7.49,0,0,0,.09,1.36,4,4,0,0,0,.33.94h-1.83q-.07-.18-.18-.54l-.07-.22a3.32,3.32,0,0,1-1,.69,2.9,2.9,0,0,1-1.15.23,2.38,2.38,0,0,1-1.7-.58,1.94,1.94,0,0,1-.62-1.48,2,2,0,0,1,.28-1.05,1.84,1.84,0,0,1,.79-.71,6.18,6.18,0,0,1,1.47-.43,10,10,0,0,0,1.79-.45v-.18a1,1,0,0,0-.26-.76,1.57,1.57,0,0,0-1-.23,1.32,1.32,0,0,0-.77.19A1.34,1.34,0,0,0,209.28,244.32Zm2.47,1.5a11.47,11.47,0,0,1-1.12.28,3.39,3.39,0,0,0-1,.32.77.77,0,0,0-.36.65.9.9,0,0,0,.29.67,1,1,0,0,0,.74.28,1.6,1.6,0,0,0,1-.33,1.16,1.16,0,0,0,.44-.61,3.64,3.64,0,0,0,.07-.9Z"/><path class="cls-2" d="M215.38,249.16v-9.63h1.85v9.63Z"/><path class="cls-2" d="M222.87,249.16v-9.63h1.94v3.79h3.81v-3.79h1.94v9.63h-1.94V245h-3.81v4.21Z"/><path class="cls-2" d="M232.14,245.58a3.77,3.77,0,0,1,.45-1.78,3.11,3.11,0,0,1,1.28-1.31,3.81,3.81,0,0,1,1.86-.45,3.48,3.48,0,0,1,2.59,1,3.55,3.55,0,0,1,1,2.6,3.59,3.59,0,0,1-1,2.62,3.45,3.45,0,0,1-2.57,1,4,4,0,0,1-1.83-.43,3,3,0,0,1-1.32-1.27A4.23,4.23,0,0,1,232.14,245.58Zm1.89.1a2.31,2.31,0,0,0,.49,1.59,1.61,1.61,0,0,0,2.43,0,2.34,2.34,0,0,0,.49-1.6,2.3,2.3,0,0,0-.49-1.58,1.61,1.61,0,0,0-2.43,0A2.31,2.31,0,0,0,234,245.68Z"/><path class="cls-2" d="M240.13,247.17l1.85-.28a1.36,1.36,0,0,0,.48.82,1.62,1.62,0,0,0,1,.28,1.83,1.83,0,0,0,1.08-.26.59.59,0,0,0,.24-.49.49.49,0,0,0-.13-.35,1.47,1.47,0,0,0-.62-.24,10,10,0,0,1-2.83-.9,1.8,1.8,0,0,1-.83-1.57,1.93,1.93,0,0,1,.72-1.52,3.34,3.34,0,0,1,2.22-.62,3.87,3.87,0,0,1,2.13.47,2.38,2.38,0,0,1,1,1.38l-1.74.32a1.08,1.08,0,0,0-.42-.62,1.55,1.55,0,0,0-.89-.22,2,2,0,0,0-1,.2.44.44,0,0,0-.21.37.41.41,0,0,0,.18.33,6.91,6.91,0,0,0,1.72.52,5.13,5.13,0,0,1,2.06.82,1.71,1.71,0,0,1,.58,1.37,2.11,2.11,0,0,1-.8,1.65,3.55,3.55,0,0,1-2.37.69,3.89,3.89,0,0,1-2.26-.58A2.66,2.66,0,0,1,240.13,247.17Z"/><path class="cls-2" d="M248.21,242.19h1.72v1a2.57,2.57,0,0,1,.91-.85,2.5,2.5,0,0,1,1.27-.33,2.66,2.66,0,0,1,2.06,1,3.85,3.85,0,0,1,.85,2.65,4,4,0,0,1-.85,2.72,2.66,2.66,0,0,1-2.07,1,2.35,2.35,0,0,1-1-.23,3.52,3.52,0,0,1-1-.79v3.51h-1.85Zm1.83,3.37a2.69,2.69,0,0,0,.47,1.74,1.43,1.43,0,0,0,1.14.56,1.33,1.33,0,0,0,1.07-.52,2.66,2.66,0,0,0,.43-1.69,2.52,2.52,0,0,0-.44-1.63,1.36,1.36,0,0,0-1.09-.53,1.42,1.42,0,0,0-1.12.52A2.32,2.32,0,0,0,250,245.56Z"/><path class="cls-2" d="M256.48,241.24v-1.71h1.85v1.71Zm0,7.92v-7h1.85v7Z"/><path class="cls-2" d="M263.41,242.19v1.47h-1.26v2.81a7,7,0,0,0,0,1,.41.41,0,0,0,.16.23.52.52,0,0,0,.31.09,2.39,2.39,0,0,0,.74-.18l.16,1.43a3.67,3.67,0,0,1-1.46.28,2.31,2.31,0,0,1-.9-.17,1.31,1.31,0,0,1-.59-.43,1.71,1.71,0,0,1-.26-.72,8.94,8.94,0,0,1-.06-1.3v-3h-.85v-1.47h.85V240.8l1.85-1.08v2.46Z"/><path class="cls-2" d="M266.07,244.32l-1.67-.3a2.61,2.61,0,0,1,1-1.5,3.56,3.56,0,0,1,2-.49,4.42,4.42,0,0,1,1.84.29,1.83,1.83,0,0,1,.85.74,3.8,3.8,0,0,1,.25,1.65l0,2.15a7.47,7.47,0,0,0,.09,1.36,4,4,0,0,0,.33.94h-1.83q-.07-.18-.18-.54l-.07-.22a3.32,3.32,0,0,1-1,.69,2.9,2.9,0,0,1-1.15.23,2.38,2.38,0,0,1-1.7-.58,1.94,1.94,0,0,1-.62-1.48,2,2,0,0,1,.28-1.05,1.84,1.84,0,0,1,.79-.71,6.18,6.18,0,0,1,1.47-.43,10,10,0,0,0,1.79-.45v-.18a1,1,0,0,0-.26-.76,1.57,1.57,0,0,0-1-.23,1.32,1.32,0,0,0-.77.19A1.34,1.34,0,0,0,266.07,244.32Zm2.47,1.5a11.47,11.47,0,0,1-1.12.28,3.39,3.39,0,0,0-1,.32.77.77,0,0,0-.36.65.9.9,0,0,0,.29.67,1,1,0,0,0,.74.28,1.6,1.6,0,0,0,1-.33,1.16,1.16,0,0,0,.44-.61,3.66,3.66,0,0,0,.07-.9Z"/><path class="cls-2" d="M272.17,249.16v-9.63H274v9.63Z"/><path class="cls-5" d="M304.14,191.65a78.7,78.7,0,0,1-7,32.67c-.56.05-1.05.1-1.42.1-1.5,0-3-2.63-5.85-3.94s-4.84-1.31-6.51-2.06-2-.19-4.51-3.38-3.67-6.94-7.18-8.07-4.34-4.32-6-5.63-3.84-6.38-4.68-6.19-9,12.38-9,12.38a3,3,0,0,0-2.67,1.5c-1.17,1.69-1.17,5.07-2.67,6.76-.94,1-1.1,1.23-1.88,2.07A50.42,50.42,0,0,0,241,213.4c-4.71-5-4-4.23-6.12-6.61s-2.12-7.14-3.77-9.52a4.26,4.26,0,0,0-3.77-2.12S215.77,178,214.59,177.7s-4.24,6.88-6.59,8.73-3.53,6.35-8.48,7.94-6.59,6.88-10.12,11.37-4,3.7-6.36,4.76-5.18,1.06-9.18,2.91-6.12,5.55-8.24,5.55-7.11-1.14-10.13.79a37.6,37.6,0,0,0-3.26,2.56,79.05,79.05,0,1,1,151.92-30.67Z"/><path class="cls-1" d="M194.67,146.66s2-.39,2.67.16,1.81.08,2.44.31,1.42,1.81,0,3.38-.86,3.62.39,5,1.34,1.81,1.34,1.81,2.28-3.7,3.22-3.38c0,0,1.57-3.46,2.52-3.22s1,1.73.47,2.28-.71.71-.71.86c0,0,2.75.31,2.75,1.89s-2,.71-2,.71a2.23,2.23,0,0,0-1.42-.39s0,6.37-1.26,7.31-.39,2-1.26,3-5.27,4.56-6.53,8.57c0,0,1.49,3.85-.08,6.76a5.12,5.12,0,0,0-.47,2.12s.24.31,1.34.31,4.25-.31,4.25.94-.63,1.18-1,1.18c0,0-.24.39-2-.08A9.71,9.71,0,0,0,196,186c-2.52.08-1.65-1.89-1.89-2.59s-.94-1.57-1.42-1.65a14.42,14.42,0,0,1-.63,2.2,1.61,1.61,0,0,0,1.34,2.28c1.65.08,3.77.55,3.62,1.73s-3.62.24-3.62.24a17.61,17.61,0,0,0-2.44-.63,1.73,1.73,0,0,1-1.49-2.28c.31-1.81-1.81-3.38-3.3-3.93,0,0-9.2-1.26-5.35-11.64,0,0,6.21-6.53-1.57-8.1,0,0-1.49-.86.08-1.26s4.87.16,5.5,4.8a5.86,5.86,0,0,1-1.42,3.93c-1.57,1.81-2.28,6.45.63,8.41,0,0,2.2-8.49,6.29-12.66a6.91,6.91,0,0,0,1.34-4.48c-.16-2.67,1.18-4.09,0-6.37a18,18,0,0,1-.24-4.09s-.71-3.46-.47-3.93,2.59,1,2.59,1a13.94,13.94,0,0,1,.08-1.73C193.73,145.08,194.67,146.66,194.67,146.66Z"/><path class="cls-2" d="M235.79,123.68v6.7a.81.81,0,0,1-.81.81h-5.71v5.71a.81.81,0,0,1-.81.81h-6.7a.81.81,0,0,1-.81-.81v-5.71h-5.71a.81.81,0,0,1-.81-.81v-6.7a.81.81,0,0,1,.81-.81h5.71v-5.71a.81.81,0,0,1,.81-.81h6.7a.81.81,0,0,1,.81.81v5.71H235A.81.81,0,0,1,235.79,123.68Z"/><path class="cls-1" d="M228.45,138.23h-6.7a1.32,1.32,0,0,1-1.32-1.32v-5.2h-5.2a1.32,1.32,0,0,1-1.32-1.32v-6.7a1.32,1.32,0,0,1,1.32-1.32h5.2v-5.2a1.32,1.32,0,0,1,1.32-1.32h6.7a1.32,1.32,0,0,1,1.32,1.32v5.2H235a1.32,1.32,0,0,1,1.32,1.32v6.7A1.32,1.32,0,0,1,235,131.7h-5.2v5.2A1.32,1.32,0,0,1,228.45,138.23Zm-13.23-14.85a.3.3,0,0,0-.3.3v6.7a.3.3,0,0,0,.3.3h6.23v6.23a.3.3,0,0,0,.3.3h6.7a.3.3,0,0,0,.3-.3v-6.23H235a.3.3,0,0,0,.3-.3v-6.7a.3.3,0,0,0-.3-.3h-6.23v-6.23a.3.3,0,0,0-.3-.3h-6.7a.3.3,0,0,0-.3.3v6.23Z"/><path class="cls-1" d="M247.91,137.36s6.79.54,8.15,6.79c0,0,2.46,6.52,2.46,8.15s16,2.44,24.17,7.06c0,0,2.44,1.9,4.07.54s4.35-3.53.27-5.16S282.41,152.3,283,152s7.88-1.09,9.51,3.8-6.25,9-6,11.13,0,6.79-6.25,11.68a12.44,12.44,0,0,0-1.09,7.88c.81,4.62-6.25,9.51-8.15,10s-5.43-1.63-.54-3.26a6.94,6.94,0,0,0,4.62-7.6s-5.7,3.26-5.7,4.07c0,0-4.89.27-5.16-.54s.54-2.17,3.8-2.17,3.8-4.07,3.53-5.43-1.36-8.15-.54-9.23c0,0-12.22,1.36-16.29,1.09,0,0-3.8,9-3.8,9.78a9.53,9.53,0,0,1-1.63,4.35c-.81.81-.54,5.7-4.35,6,0,0-2.17-.81,0-3.53,0,0-3.26,0-1.09-2.44s4.07-9.23,4.35-12.76-4.07-8.69-2.44-14.39L244.38,149s-.81-3-1.9-3.53-5.7-4.62-3.8-7.06c0,0-.27-2.17,2.44-1.36s3.8,1.63,4.89,1.09A16.15,16.15,0,0,1,247.91,137.36Z"/><path d="M225,272.35a81,81,0,1,1,57.28-23.72A80.47,80.47,0,0,1,225,272.35Zm0-159.7a78.7,78.7,0,1,0,55.65,23.05A78.19,78.19,0,0,0,225,112.65Z"/></g></svg>