<svg xmlns="http://www.w3.org/2000/svg" viewBox="0 0 449 449"><defs><style>.cls-1{fill:#fff;}.cls-2,.cls-8{fill:#f0ca4d;}.cls-3{fill:#fbb03b;}.cls-10,.cls-4{fill:#e37b40;}.cls-5,.cls-9{fill:#f53855;}.cls-11,.cls-6{fill:#46b29d;}.cls-12,.cls-7{fill:#324d5c;}.cls-10,.cls-11,.cls-12,.cls-8,.cls-9{stroke:#000;stroke-miterlimit:10;stroke-width:0.75px;}.cls-13{fill:#1a1a1a;}</style></defs><title>logo</title><g id="bg"><rect class="cls-1" width="449" height="449"/></g><g id="Layer_1" data-name="Layer 1"><rect class="cls-2" x="113" y="334" width="51" height="51"/><rect class="cls-3" x="164" y="334" width="51" height="51"/><rect class="cls-3" x="215" y="334" width="51" height="51"/><rect class="cls-3" x="266" y="334" width="51" height="51"/><rect class="cls-4" x="164" y="334" width="51" height="51"/><rect class="cls-3" x="215" y="334" width="51" height="51"/><rect class="cls-3" x="266" y="334" width="51" height="51"/><rect class="cls-3" x="317" y="334" width="51" height="51"/><rect class="cls-5" x="215" y="334" width="51" height="51"/><rect class="cls-6" x="266" y="334" width="51" height="51"/><rect class="cls-7" x="317" y="334" width="51" height="51"/><path class="cls-4" d="M290.37,225.36c-2.12-.41-.52,2.62-3.31,7.75s-9-.58-3.85-5.31,6.85-5.79-2.1-7.48c-4.12-.78-2.58-7.61-2.84-9.83-.33-2.9-3.24-8.29-11.84,1.19-8.17,9-15.85,1.1-14.46-4.16,2.35-8.92,19.94-1.73,21.32-6.49,1.86-6.39-12.53-4.22-10.44-9.5,2.48-6.26,8.38,2.87,12,4.14,7,2.43,9.15-9-.15-12-4.3-1.39-.07-9.7,4.86.22,2,4,11.05,4.44,7.3-7.28-1.26-3.92-4.79-10.08-3.82-12.71,2.49-6.77,12.53-4.91,10,13-1.5,10.6,5.32,3,7.57,2.79,6.63-.67,1.71,8.54,9.18,3.75,9-5.77,9-11.44,14.52-16.49,3.86-3.54,7.61-3.38,9.59-.11,1.54,2.54.3,6.38-3.78,8.81-4.92,2.94-5.86,5.38-4,5.62,10.79,1.45,13.15,10.34,8.16,16.2-3.49,4.09-5.34,8.15-3,10.63,5.46,5.7.46,14.19-9.05,10.74s-9.93,1.19-9.8,4.34,9.78,8.26,6.58,14.74c-2.35,4.75-10.41,5.13-13.5-1.06s3-9.13-1.11-12-4.56,3.88-8.33,4.14S292.39,225.75,290.37,225.36Z"/><path class="cls-6" d="M251.42,206.18c-1-1.81-2.32,1.37-8,2.76s-5.13-6.9,1.65-6.34,11.49-7.89.55-5.76-6.24-12.71,1.39-8.5c6.29,3.47,8.17-.86,8.17-.86s4.29-7.88-8.27-7.81c-11.93.06-10.69-10.79-5.83-13.28,8.25-4.23,13.71,13.34,18.19,11.17,6-2.91-2.91-8,2.21-11.88,3.19-2.4,5.17,2,7.67,3.34,0,0,1.75,1.72,4.26-2s5.48-1.56,5.53,4.31c0,4.47,4.83,3.09,7.41-.18s4.69-10.19,7.3-11.25c6.7-2.7,11.53,5.84-3.72,16-9,6,.71,8.48,4.29,5,1.68-1.65,3.52,1.49,1.74,3.38s-7.49.09-9.28,1.45.4,4.51,8.68,6.74c10,2.7,21.94,1.09,29.2,1.71,5.09.44,7.3,3.27,6,6.9-1,2.81-4.67,4.47-9.06,3.12-5.3-1.62-12.49-5.52-21.21-7.37-15.94-3.39-14.75,1.25-13.2,3.12s8,3.89,12.13,6.84,1.13,11.32-3.76,9.16-6.61-12.54-12.25-9.58c-5.22,2.74-5.48,8.77,2,15.16,5.81,5-5.83,12.79-9.12,3.58s-7.08-6.42-9.4-4.23-1.7,15.06-8.62,17.05c-5.08,1.46-10.38-4.14-7.58-10.52s10.28-6.38,10-11.27-5.79-.73-8.33-3.3S252.38,207.9,251.42,206.18Z"/><path class="cls-6" d="M240.09,191.41s1.79-4.29,5.1-3a21.74,21.74,0,0,1,5.56,3.35"/><path class="cls-5" d="M309.72,204.67c-1.57-1.11-2-1.16-5.31,2.9s-7.72-2.12-2.41-5.41,3.94-11.88-2.89-4.4-11.85-5.65-3.83-6.81c6.61-1,5.52-5.06,5.52-5.06s-1.34-8-10.55-1.06c-8.74,6.54-14-1.86-11.87-6.29,3.65-7.51,17.7,2,19.76-1.95,2.77-5.35-6.73-4.14-5.16-9.67,1-3.44,5-1.37,7.55-1.8,0,0,2.27.27,2-3.75s3.14-4.09,6.53.06c2.58,3.16,5.32-.43,5.34-4.16s-1.86-9.58-1.05-12c2.13-6.38,10.76-1.62,7.81,8.13-2.81,9.29,1.49,6.89,4.56,6.46,2.09-.29,4.28,1.34,3.6,3.58-.38,1.25-2,2-3,3.29-1.3,1.54-.52,3.67,6.85.75,8.89-3.52,5.71-9.64,11.4-13.15,4-2.46,7.63-.72,9,1.6,1.85,3.22-.24,6.7-3.72,8.18-1.54.65-7.17,1.71-10.49,3.76-5.85,3.61-5.09,7.11-2.88,7.59s3.08.21,7.78.08,7.3,7.45,2.47,8.57-12-5.34-14.49-.16c-2.28,4.79,1,9.23,10.14,9.7,7.1.37,3,12.29-4.66,7.52s-8.87-.72-9.33,2.1,7.35,11.65,3.4,16.84c-2.9,3.81-10,2.7-11.59-3.36s3.91-10.14.89-13.46-4.18,2.41-7.51,2.84C312.22,206.34,311.16,205.69,309.72,204.67Z"/><path class="cls-2" d="M287.76,187.4c-2.21.86,1.09,2.77,1.57,9.24s-8.66,4.7-6.75-2.75,2.89-9.46-6.42-5.82c-4.29,1.68-7-5.66-8.52-7.6-2-2.54-8-5.91-10.27,8.05-2.18,13.26-14,10.31-15.9,4.54-3.16-9.78,17.45-13.29,15.89-18.59-2.11-7.11-14.15,3.35-15.37-2.84-1.45-7.35,9.49-2.19,13.62-3.13,7.92-1.79,3.07-13.86-7.36-11.27-4.82,1.2-5.88-9.1,4.64-2.64,4.28,2.63,12.91-2.28,2.41-11.13-3.51-3-10.48-6.69-11.16-9.74-1.75-7.83,8.68-12,17.09,6.44,5,10.87,6.74-.27,8.69-1.8,5.74-4.5,6.7,7,10.76-1.83,4.89-10.71,1.52-16.07,3.59-24,1.45-5.59,5-7.64,8.83-5.71,3,1.49,4.1,5.83,1.77,10.51-2.81,5.65-4.68,4.93-8.39,14.34-6.78,17.21-.37,18.16,1,15.11,1.13-2.54.44-6.23,4.48-7.64,6-2.07,14.33,5.56,10,10.49-2,2.26.68,9.75,9.22,2.36,6.62-5.73,13.16,8.33,2.27,10.65s-8.49,6.93-6.49,9.82,14,2.06,14.94,10c.67,5.85-6.57,10.92-13.16,6.89s-2.73-10.33-8.24-10.69-1.91,6.32-5.24,8.77S289.87,186.59,287.76,187.4Z"/><path class="cls-4" d="M105.58,219.55c-1-.19-.24,1.2-1.51,3.54s-4.09-.26-1.76-2.42,3.13-2.64-1-3.41c-1.88-.36-1.18-3.47-1.29-4.48-.15-1.32-1.48-3.78-5.4.54-3.73,4.11-7.23.5-6.6-1.9,1.07-4.07,9.1-.79,9.73-3,.85-2.92-5.71-1.93-4.76-4.33,1.13-2.85,3.82,1.31,5.48,1.89,3.18,1.11,4.17-4.12-.07-5.5-2-.64,0-4.42,2.22.1.92,1.84,5,2,3.33-3.32-.57-1.79-2.18-4.6-1.74-5.8,1.14-3.09,5.72-2.24,4.56,6-.68,4.84,2.43,1.38,3.45,1.27,3-.3.78,3.9,4.19,1.71,4.11-2.63,4.12-5.22,6.63-7.52,1.76-1.62,3.47-1.54,4.38,0,.7,1.16.14,2.91-1.72,4-2.25,1.34-2.67,2.45-1.84,2.56,4.92.66,6,4.72,3.72,7.39-1.59,1.87-2.44,3.72-1.35,4.85,2.49,2.6.21,6.47-4.13,4.9s-4.53.54-4.47,2,4.46,3.77,3,6.72c-1.07,2.17-4.75,2.34-6.16-.48s1.35-4.16-.51-5.49-2.08,1.77-3.8,1.89S106.5,219.73,105.58,219.55Z"/><path class="cls-6" d="M87.91,205c-.44-.76-1,.55-3.3,1.08s-2.2-2.92.64-2.63,4.73-3.19.18-2.39-2.71-5.34.51-3.53c2.65,1.49,3.4-.29,3.4-.29s1.73-3.25-3.51-3.32c-5-.07-4.55-4.58-2.54-5.58,3.41-1.7,5.83,5.67,7.68,4.8,2.49-1.16-1.28-3.37.83-4.93,1.31-1,2.17.89,3.23,1.45,0,0,.75.73,1.76-.8s2.28-.6,2.34,1.84c.05,1.86,2,1.32,3.09,0s1.88-4.21,3-4.62c2.77-1.07,4.86,2.53-1.42,6.62-3.71,2.42.37,3.54,1.83,2.1.69-.67,1.48.65.75,1.42s-3.12,0-3.86.53.2,1.88,3.68,2.88c4.19,1.2,9.17.63,12.2.95,2.13.22,3.07,1.42,2.58,2.92-.38,1.16-1.91,1.82-3.75,1.23-2.22-.72-5.26-2.4-8.91-3.24-6.68-1.54-6.15.4-5.48,1.19s3.38,1.68,5.12,2.94.56,4.72-1.5,3.78-2.86-5.28-5.19-4.09c-2.16,1.1-2.22,3.61,1,6.33,2.46,2.11-2.33,5.28-3.78,1.42s-3-2.73-4-1.84-.59,6.26-3.46,7c-2.11.57-4.36-1.81-3.25-4.44s4.24-2.57,4.07-4.61-2.42-.35-3.5-1.44S88.33,205.71,87.91,205Z"/><path class="cls-6" d="M83.07,198.74s.71-1.77,2.1-1.23A9.56,9.56,0,0,1,87.52,199"/><path class="cls-5" d="M121,212.66c-.86-.17-1-.13-1.69,2.19s-3.61.53-2-1.82-.53-5.68-2-1.31-6-.18-2.85-2.14c2.58-1.61,1.37-3.13,1.37-3.13s-2-3.07-4.6,1.49c-2.45,4.34-6.2,1.8-6.11-.45.15-3.8,7.77-2.4,7.9-4.44.17-2.74-3.57-.49-3.93-3.09-.22-1.62,1.82-1.48,2.82-2.14,0,0,1-.3.14-1.93s.56-2.29,2.74-1.17c1.66.85,2.14-1.16,1.47-2.72s-2.53-3.66-2.64-4.81c-.28-3.05,4.2-2.65,4.75,2,.53,4.39,1.89,2.6,3.09,1.86a1.37,1.37,0,0,1,2.16.83c.07.59-.44,1.21-.65,1.93-.26.88.46,1.63,3-.94,3.07-3.1.61-5.08,2.35-7.58a2.84,2.84,0,0,1,4-1c1.37,1,1.13,2.84-.05,4.1-.52.56-2.68,2-3.69,3.5-1.78,2.58-.82,3.9.19,3.7a13.58,13.58,0,0,0,3.26-1.4c1.94-.92,4.41,1.77,2.6,3.13s-6,0-6.08,2.59c-.07,2.42,2.11,3.67,6,2.19,3-1.15,3.52,4.58-.57,4s-3.84,1.33-3.51,2.59,5.21,3.52,4.51,6.41c-.51,2.12-3.68,3-5.46.72s-.23-5-2.1-5.78-1.3,1.77-2.61,2.57A2.49,2.49,0,0,1,121,212.66Z"/><path class="cls-2" d="M110.9,200.87c-1,.38.48,1.22.69,4.07s-3.82,2.07-3-1.21,1.27-4.17-2.83-2.56c-1.89.74-3.06-2.49-3.75-3.35-.9-1.12-3.51-2.61-4.52,3.55-1,5.84-6.18,4.54-7,2-1.39-4.31,7.69-5.85,7-8.19-.93-3.13-6.23,1.47-6.77-1.25-.64-3.24,4.18-1,6-1.38,3.49-.79,1.35-6.11-3.24-5-2.12.53-2.59-4,2-1.16,1.89,1.16,5.69-1,1.06-4.9-1.55-1.3-4.62-2.95-4.92-4.29-.77-3.45,3.83-5.27,7.53,2.84,2.19,4.79,3-.12,3.83-.79,2.53-2,3,3.1,4.74-.81,2.16-4.72.67-7.08,1.58-10.59.64-2.46,2.21-3.36,3.89-2.52,1.3.66,1.81,2.57.78,4.63-1.24,2.49-2.06,2.17-3.69,6.32-3,7.58-.16,8,.44,6.66.5-1.12.19-2.75,2-3.36,2.63-.91,6.31,2.45,4.4,4.62-.88,1,.3,4.3,4.06,1,2.91-2.52,5.8,3.67,1,4.69s-3.74,3.05-2.86,4.33,6.18.91,6.58,4.42c.3,2.58-2.9,4.81-5.8,3s-1.2-4.55-3.63-4.71-.84,2.79-2.31,3.86S111.82,200.51,110.9,200.87Z"/><path class="cls-8" d="M141.43,190a2.31,2.31,0,0,1,.28-.65,2.58,2.58,0,0,1,.46-.56,1.63,1.63,0,0,1,.59-.35,1,1,0,0,1,.66,0,16.23,16.23,0,0,1,2.12-.76,9.49,9.49,0,0,1,2.17-.35,7.62,7.62,0,0,1,2.14.21,6.26,6.26,0,0,1,3.43,2.32,8.81,8.81,0,0,1,1,1.73,7.77,7.77,0,0,1-.08,6.28,7.65,7.65,0,0,1-1.81,2.46,7.13,7.13,0,0,1-2.74,1.55,7.77,7.77,0,0,1-2.41.35,20.85,20.85,0,0,1-2.41-.17v2.94q0,.33,0,.7a6.44,6.44,0,0,1,0,.73,4.51,4.51,0,0,1-.08.71,1.88,1.88,0,0,1-.27.65,1.41,1.41,0,0,1-.87.74,1.62,1.62,0,0,1-1-.06,2,2,0,0,1-.84-.67,1.85,1.85,0,0,1-.35-1.14v-5.46a2,2,0,0,1-.79-.76,1.67,1.67,0,0,1-.22-.93,2,2,0,0,1,.28-.89,2,2,0,0,1,.7-.7v-7.77Zm8.19,1.33a4.13,4.13,0,0,0-2.41-.3,8.6,8.6,0,0,0-2.38.79v6.61a10,10,0,0,0,2.7.12,5.23,5.23,0,0,0,2.53-.91,3,3,0,0,0,1.13-1.46,4.17,4.17,0,0,0,.22-1.79,4.27,4.27,0,0,0-.56-1.74A3.75,3.75,0,0,0,149.61,191.37Z"/><path class="cls-9" d="M170.26,206.24a2.44,2.44,0,0,1-.42,1.14,1.84,1.84,0,0,1-.77.65,1.38,1.38,0,0,1-.93,0,1.76,1.76,0,0,1-.91-.71,2,2,0,0,1-.41-1.08,9.62,9.62,0,0,0-.15-1.17,27.68,27.68,0,0,0-.82-3.43q-1.74,0-3.46,0t-3.43,0q-.25.79-.44,1.61t-.35,1.61q-.14.61-.25,1.26a2.43,2.43,0,0,1-.51,1.14,1.63,1.63,0,0,1-1,.68,1.43,1.43,0,0,1-1-.2,1.93,1.93,0,0,1-.7-.83,2.32,2.32,0,0,1-.18-1.29,10.33,10.33,0,0,1,.34-1.85q.25-.91.48-1.82a70.71,70.71,0,0,1,3.26-10.1q.17-.42.35-.82t.35-.79q.2-.42.39-.91a5.18,5.18,0,0,1,.46-.89,2.9,2.9,0,0,1,.63-.7,1.41,1.41,0,0,1,.9-.29,1.59,1.59,0,0,1,1.18.49,18.58,18.58,0,0,1,3.15,4.66q1.24,2.59,2.22,5.29a11.24,11.24,0,0,1,1.15,0,1.44,1.44,0,0,1,1,.55,1.69,1.69,0,0,1,.46.91,2,2,0,0,1-.08.94,1.93,1.93,0,0,1-.51.79,1.84,1.84,0,0,1-.86.46q.28,1.06.49,2.17t.35,2.23ZM164.52,198q-.53-1.37-1.14-2.72a21.1,21.1,0,0,0-1.36-2.56q-.56,1.33-1.05,2.65T160,198l2.32,0Z"/><path class="cls-10" d="M179.71,203.93a1.84,1.84,0,0,1,1.21.47,2,2,0,0,1,.62,1,1.83,1.83,0,0,1-.08,1.14,1.62,1.62,0,0,1-.93.86,4,4,0,0,1-1.2.27,12.62,12.62,0,0,1-1.38,0q-.69,0-1.28-.06t-.9,0h-1.66a1.54,1.54,0,0,1-1-.35,2,2,0,0,1-.6-.83,1.9,1.9,0,0,1-.08-1,2,2,0,0,1,.52-1,1.56,1.56,0,0,1,1-.49,6.88,6.88,0,0,1,1.29,0v-12l-1.21,0a2,2,0,0,1-1.13-.44,1.61,1.61,0,0,1-.56-.77,1.65,1.65,0,0,1,0-.88,2.29,2.29,0,0,1,.38-.83,1.66,1.66,0,0,1,.7-.58,1.92,1.92,0,0,1,.82-.18l2.88,0q1.45,0,2.91,0a.45.45,0,0,1,.27.09,1.44,1.44,0,0,0,.27.15,2,2,0,0,1,.87,1.12,1.75,1.75,0,0,1-.17,1.43,1.53,1.53,0,0,1-.49.56,1.85,1.85,0,0,1-.65.27,3.39,3.39,0,0,1-.72.08h-.7V204l.41,0,.41,0Z"/><path class="cls-11" d="M195.52,189.13a2.31,2.31,0,0,1,.55-1,1.81,1.81,0,0,1,.83-.52,1.43,1.43,0,0,1,.91.06,1.69,1.69,0,0,1,.8.73,2.13,2.13,0,0,1,.21.36.94.94,0,0,1,.1.39q.06,4.34,0,8.66t-.32,8.66a1.45,1.45,0,0,1-.41,1.09,1.86,1.86,0,0,1-.93.5,1.75,1.75,0,0,1-1.06-.12,1.49,1.49,0,0,1-.79-.77.09.09,0,0,1,0-.06v.06q-1.83-3.25-3.85-6.24T187.28,195v9.19q0,.94,0,1.53t-.07.93a2.85,2.85,0,0,1-.13.58,1.56,1.56,0,0,1-.77,1,1.6,1.6,0,0,1-1.05.12,1.66,1.66,0,0,1-.93-.61,1.86,1.86,0,0,1-.39-1.21V198q0-1.27,0-2.38t0-1.87q0-1,0-2t0-2a1.57,1.57,0,0,1,.24-.88,1.66,1.66,0,0,1,.61-.56,1.93,1.93,0,0,1,.79-.23,1.87,1.87,0,0,1,.82.12,1.83,1.83,0,0,1,.69.5q.35.38.69.82t.63.88l.49.71,1.69,2.23q1,1.26,1.77,2.38t1.59,2.31q.77,1.15,1.51,2.31.08-2.76.11-5.49t0-5.49Z"/><path class="cls-12" d="M213.64,188.46a2.1,2.1,0,0,1,.89.77,2.54,2.54,0,0,1,.42,1.09,1.57,1.57,0,0,1-.2,1,1.37,1.37,0,0,1-.94.61,11.51,11.51,0,0,1-2.43.21l-2,0q0,3.64,0,7.16t0,7.43a1.4,1.4,0,0,1-.53,1.23,1.68,1.68,0,0,1-1.17.32,2,2,0,0,1-1.17-.55,1.71,1.71,0,0,1-.53-1.33q0-3.58,0-7.13v-7.13l-.86,0q-.61,0-1.32,0a12.49,12.49,0,0,1-1.48-.12,3.9,3.9,0,0,1-1.32-.41,1.16,1.16,0,0,1-.59-.71,1.74,1.74,0,0,1,0-1,2.45,2.45,0,0,1,.46-.91,1.67,1.67,0,0,1,.84-.58q2.36-.15,4.57-.11t4.49,0l1.35,0,1.38,0Z"/><circle class="cls-1" cx="289.26" cy="188.22" r="16.36"/><path class="cls-13" d="M283.12,181.57a2.16,2.16,0,0,1,.29-.63,2.55,2.55,0,0,1,.48-.54,1.74,1.74,0,0,1,.62-.34,1.12,1.12,0,0,1,.69,0,17.86,17.86,0,0,1,2.22-.73,10.65,10.65,0,0,1,2.26-.34,8.58,8.58,0,0,1,2.23.21,6.48,6.48,0,0,1,2.13.93,6,6,0,0,1,1.45,1.32,8.38,8.38,0,0,1,1,1.67,7,7,0,0,1-.09,6.08,7.47,7.47,0,0,1-1.89,2.38,7.63,7.63,0,0,1-2.86,1.5,8.72,8.72,0,0,1-2.51.34,23.42,23.42,0,0,1-2.51-.16v2.85q0,.32,0,.68a5.8,5.8,0,0,1,0,.7,4.16,4.16,0,0,1-.09.69,1.76,1.76,0,0,1-.28.63,1.45,1.45,0,0,1-.91.72,1.81,1.81,0,0,1-1.07-.06,2,2,0,0,1-.88-.65,1.7,1.7,0,0,1-.37-1.1v-5.29a2,2,0,0,1-.82-.73,1.52,1.52,0,0,1-.23-.9,1.79,1.79,0,0,1,.29-.87,2,2,0,0,1,.73-.68v-7.52Zm8.55,1.29a4.62,4.62,0,0,0-2.51-.29,9.46,9.46,0,0,0-2.48.76v6.4a11.24,11.24,0,0,0,2.82.12,5.73,5.73,0,0,0,2.64-.88,2.91,2.91,0,0,0,1.17-1.41,3.76,3.76,0,0,0,.23-1.73,3.93,3.93,0,0,0-.59-1.69A3.76,3.76,0,0,0,291.67,182.86Z"/><path class="cls-1" d="M215.3,101.3V271H368V101.3Zm104,108a8.2,8.2,0,0,1-8.18,8.18H269.15a8.2,8.2,0,0,1-8.18-8.18V167.43a8.2,8.2,0,0,1,8.18-8.18h41.92a8.2,8.2,0,0,1,8.18,8.18Z"/><path class="cls-2" d="M256.63,230.26a2.31,2.31,0,0,1,.28-.65,2.58,2.58,0,0,1,.46-.56,1.63,1.63,0,0,1,.59-.35,1,1,0,0,1,.66,0,16.23,16.23,0,0,1,2.12-.76,9.49,9.49,0,0,1,2.17-.35,7.62,7.62,0,0,1,2.14.21,6.26,6.26,0,0,1,3.43,2.32,8.81,8.81,0,0,1,1,1.73,7.77,7.77,0,0,1-.08,6.28,7.65,7.65,0,0,1-1.81,2.46,7.13,7.13,0,0,1-2.74,1.55,7.77,7.77,0,0,1-2.41.35,20.85,20.85,0,0,1-2.41-.17v2.94q0,.33,0,.7a6.44,6.44,0,0,1,0,.73,4.51,4.51,0,0,1-.08.71,1.88,1.88,0,0,1-.27.65,1.41,1.41,0,0,1-.87.74,1.62,1.62,0,0,1-1-.06,2,2,0,0,1-.84-.67,1.85,1.85,0,0,1-.35-1.14v-5.46a2,2,0,0,1-.79-.76,1.67,1.67,0,0,1-.22-.93,2,2,0,0,1,.28-.89,2,2,0,0,1,.7-.7v-7.77Zm8.19,1.33a4.13,4.13,0,0,0-2.41-.3,8.6,8.6,0,0,0-2.38.79v6.61a10,10,0,0,0,2.7.12,5.23,5.23,0,0,0,2.53-.91,3,3,0,0,0,1.13-1.46,4.17,4.17,0,0,0,.22-1.79,4.27,4.27,0,0,0-.56-1.74A3.75,3.75,0,0,0,264.82,231.59Z"/><path d="M258.42,249.21a1.93,1.93,0,0,1-.72-.14,2.3,2.3,0,0,1-1-.78,2.19,2.19,0,0,1-.42-1.34v-5.27a2.25,2.25,0,0,1-.74-.78,2,2,0,0,1-.27-1.11,2.29,2.29,0,0,1,.33-1,2.34,2.34,0,0,1,.66-.71l0-7.85a2.67,2.67,0,0,1,.32-.75,2.94,2.94,0,0,1,.52-.63,2,2,0,0,1,.71-.42,1.31,1.31,0,0,1,.75,0,16.59,16.59,0,0,1,2.05-.72,9.88,9.88,0,0,1,2.24-.36,8,8,0,0,1,2.23.22,6.6,6.6,0,0,1,3.63,2.45,9.2,9.2,0,0,1,1,1.8,8.11,8.11,0,0,1-.09,6.56,8,8,0,0,1-1.89,2.57,7.5,7.5,0,0,1-2.87,1.62,8.13,8.13,0,0,1-2.51.36c-.7,0-1.39-.05-2.06-.12v2.56q0,.32,0,.67a6.72,6.72,0,0,1,0,.77,4.91,4.91,0,0,1-.09.77,2.23,2.23,0,0,1-.31.77,1.72,1.72,0,0,1-1.07.89A2.06,2.06,0,0,1,258.42,249.21ZM257,230.33l0,.17v7.91l-.16.1a1.68,1.68,0,0,0-.59.58,1.6,1.6,0,0,0-.23.74,1.32,1.32,0,0,0,.18.74,1.67,1.67,0,0,0,.66.63l.17.1v5.66a1.5,1.5,0,0,0,.28.93,1.61,1.61,0,0,0,.7.55,1.27,1.27,0,0,0,.82,0,1.07,1.07,0,0,0,.66-.58,1.6,1.6,0,0,0,.23-.55,4.21,4.21,0,0,0,.08-.66,6.11,6.11,0,0,0,0-.69c0-.25,0-.49,0-.72v-3.33l.38,0a20.64,20.64,0,0,0,2.37.16,7.39,7.39,0,0,0,2.3-.33,6.83,6.83,0,0,0,2.61-1.47,7.34,7.34,0,0,0,1.73-2.35,7.42,7.42,0,0,0,.08-6,8.5,8.5,0,0,0-1-1.66,5.92,5.92,0,0,0-3.24-2.19,7.27,7.27,0,0,0-2-.2,9.21,9.21,0,0,0-2.09.34,15.92,15.92,0,0,0-2.08.74l-.12.05-.13,0a.67.67,0,0,0-.44,0,1.28,1.28,0,0,0-.47.28,2.26,2.26,0,0,0-.4.49A2,2,0,0,0,257,230.33Zm4.86,8.87A10.23,10.23,0,0,1,260,239l-.28-.05v-7.11l.19-.09a9,9,0,0,1,2.47-.82,4.48,4.48,0,0,1,2.6.33l0,0a4.11,4.11,0,0,1,1.35,1.44,4.63,4.63,0,0,1,.61,1.88,4.53,4.53,0,0,1-.24,1.93,3.31,3.31,0,0,1-1.25,1.62,5.59,5.59,0,0,1-2.7,1Q262.3,239.19,261.83,239.19Zm-1.45-.79a9.83,9.83,0,0,0,2.33.07,4.91,4.91,0,0,0,2.37-.85,2.6,2.6,0,0,0,1-1.29,3.85,3.85,0,0,0,.21-1.65,4,4,0,0,0-.52-1.61,3.43,3.43,0,0,0-1.1-1.19,3.81,3.81,0,0,0-2.19-.27,8.25,8.25,0,0,0-2.09.67Z"/><path class="cls-5" d="M285.47,246.46a2.44,2.44,0,0,1-.42,1.14,1.84,1.84,0,0,1-.77.65,1.38,1.38,0,0,1-.93,0,1.76,1.76,0,0,1-.91-.71,2,2,0,0,1-.41-1.08,9.62,9.62,0,0,0-.15-1.17,27.68,27.68,0,0,0-.82-3.43q-1.74,0-3.46,0t-3.43,0q-.25.79-.44,1.61t-.35,1.61q-.14.61-.25,1.26a2.43,2.43,0,0,1-.51,1.14,1.63,1.63,0,0,1-1,.68,1.43,1.43,0,0,1-1-.2,1.93,1.93,0,0,1-.7-.83,2.32,2.32,0,0,1-.18-1.29,10.33,10.33,0,0,1,.34-1.85q.25-.91.48-1.82a70.71,70.71,0,0,1,3.26-10.1q.17-.42.35-.82t.35-.79q.2-.42.39-.91a5.18,5.18,0,0,1,.46-.89,2.9,2.9,0,0,1,.63-.7,1.41,1.41,0,0,1,.9-.29,1.59,1.59,0,0,1,1.18.49,18.58,18.58,0,0,1,3.15,4.66q1.24,2.59,2.22,5.29a11.24,11.24,0,0,1,1.15,0,1.44,1.44,0,0,1,1,.55,1.69,1.69,0,0,1,.46.91,2,2,0,0,1-.08.94,1.93,1.93,0,0,1-.51.79,1.84,1.84,0,0,1-.86.46q.28,1.06.49,2.17t.35,2.23Zm-5.74-8.25q-.53-1.37-1.14-2.72a21.1,21.1,0,0,0-1.36-2.56q-.56,1.33-1.05,2.65t-.91,2.68l2.32,0Z"/><path d="M283.76,248.69a1.88,1.88,0,0,1-.5-.07,2.09,2.09,0,0,1-1.1-.84,2.32,2.32,0,0,1-.47-1.25,9.28,9.28,0,0,0-.15-1.13,27.34,27.34,0,0,0-.73-3.15c-2.15,0-4.27,0-6.39.05-.14.44-.26.9-.36,1.35s-.24,1.08-.35,1.61-.18.82-.25,1.25a2.78,2.78,0,0,1-.58,1.29,2,2,0,0,1-1.24.81,1.77,1.77,0,0,1-1.21-.25,2.27,2.27,0,0,1-.83-1,2.67,2.67,0,0,1-.21-1.48,10.7,10.7,0,0,1,.35-1.9q.25-.91.48-1.81A71.4,71.4,0,0,1,273.48,232c.11-.29.23-.56.36-.83s.24-.52.35-.78.26-.58.39-.9a5.5,5.5,0,0,1,.5-1,3.25,3.25,0,0,1,.71-.78,1.75,1.75,0,0,1,1.11-.36,1.93,1.93,0,0,1,1.42.59,19,19,0,0,1,3.21,4.75c.79,1.66,1.51,3.37,2.15,5.09.32,0,.63,0,.94,0a1.77,1.77,0,0,1,1.25.66,2,2,0,0,1,.54,1.09,2.35,2.35,0,0,1-.1,1.1,2.28,2.28,0,0,1-.59.93,2.13,2.13,0,0,1-.68.44c.16.62.3,1.25.42,1.88s.26,1.5.35,2.25v.3a2.79,2.79,0,0,1-.48,1.29,2.18,2.18,0,0,1-.92.77A1.66,1.66,0,0,1,283.76,248.69Zm-2.45-7.13.07.25a28.15,28.15,0,0,1,.83,3.47,10,10,0,0,1,.16,1.2,1.64,1.64,0,0,0,.34.9,1.45,1.45,0,0,0,.73.59,1.05,1.05,0,0,0,.71,0,1.52,1.52,0,0,0,.63-.54,2.11,2.11,0,0,0,.36-1v-.19c-.09-.7-.21-1.44-.35-2.17s-.3-1.44-.49-2.15l-.09-.34.34-.08a1.49,1.49,0,0,0,.7-.37,1.58,1.58,0,0,0,.42-.65,1.64,1.64,0,0,0,.07-.78,1.35,1.35,0,0,0-.38-.73,1.11,1.11,0,0,0-.78-.44,11,11,0,0,0-1.12,0h-.25l-.09-.24c-.65-1.78-1.39-3.55-2.21-5.26a18.31,18.31,0,0,0-3.09-4.57,1.25,1.25,0,0,0-.93-.38,1.07,1.07,0,0,0-.69.22,2.57,2.57,0,0,0-.56.62,4.92,4.92,0,0,0-.43.84q-.2.49-.4.92c-.11.26-.23.52-.35.79s-.23.52-.34.8a70.68,70.68,0,0,0-3.25,10.06q-.23.92-.48,1.83a10.08,10.08,0,0,0-.33,1.79,2,2,0,0,0,.15,1.11,1.61,1.61,0,0,0,.58.69,1.09,1.09,0,0,0,.76.15,1.32,1.32,0,0,0,.81-.56,2.08,2.08,0,0,0,.44-1q.11-.66.26-1.28c.11-.52.23-1.06.35-1.61s.27-1.1.44-1.64l.07-.23h.24c2.28,0,4.56,0,6.89-.06Zm-6.51-2.94.14-.45c.28-.91.59-1.82.92-2.7s.68-1.77,1.06-2.67l.25-.6.35.56a21.47,21.47,0,0,1,1.39,2.6c.4.9.79,1.82,1.15,2.73l.18.45h-.48l-2.16,0-2.31,0Zm2.49-4.94c-.28.68-.55,1.36-.79,2s-.53,1.47-.77,2.22c1.35,0,2.31,0,3.51,0-.3-.75-.62-1.51-1-2.25A21,21,0,0,0,277.28,233.68Z"/><path class="cls-4" d="M294.92,244.15a1.84,1.84,0,0,1,1.21.47,2,2,0,0,1,.62,1,1.83,1.83,0,0,1-.08,1.14,1.62,1.62,0,0,1-.93.86,4,4,0,0,1-1.2.27,12.62,12.62,0,0,1-1.38,0q-.69,0-1.28-.06t-.9,0h-1.66a1.54,1.54,0,0,1-1-.35,2,2,0,0,1-.6-.83,1.9,1.9,0,0,1-.08-1,2,2,0,0,1,.52-1,1.56,1.56,0,0,1,1-.49,6.88,6.88,0,0,1,1.29,0v-12l-1.21,0a2,2,0,0,1-1.13-.44,1.61,1.61,0,0,1-.56-.77,1.65,1.65,0,0,1,0-.88,2.29,2.29,0,0,1,.38-.83,1.66,1.66,0,0,1,.7-.58,1.92,1.92,0,0,1,.82-.18l2.88,0q1.45,0,2.91,0a.45.45,0,0,1,.27.09,1.44,1.44,0,0,0,.27.15,2,2,0,0,1,.87,1.12,1.75,1.75,0,0,1-.17,1.43,1.53,1.53,0,0,1-.49.56,1.85,1.85,0,0,1-.65.27,3.39,3.39,0,0,1-.72.08h-.7v12.08l.41,0,.41,0Z"/><path d="M293.43,248.3h-.28q-.7,0-1.3-.06t-.87,0h-1.66a1.88,1.88,0,0,1-1.23-.43,2.31,2.31,0,0,1-.71-1,2.25,2.25,0,0,1-.1-1.21,2.33,2.33,0,0,1,.61-1.17,1.9,1.9,0,0,1,1.26-.59,7.25,7.25,0,0,1,1,0V232.48h-.88a2.29,2.29,0,0,1-1.32-.51,2,2,0,0,1-.68-.94,2,2,0,0,1,0-1.06,2.63,2.63,0,0,1,.43-1,2,2,0,0,1,.85-.69,2.25,2.25,0,0,1,.95-.21h2.88c1,0,1.94,0,2.92,0h0a.78.78,0,0,1,.46.16l.2.12A2.3,2.3,0,0,1,297,229.7a2.08,2.08,0,0,1-.2,1.69,1.87,1.87,0,0,1-.6.68,2.2,2.2,0,0,1-.76.32,3.74,3.74,0,0,1-.79.08h-.36v11.38h0l.39,0h.25a2.18,2.18,0,0,1,1.43.56,2.36,2.36,0,0,1,.72,1.19,2.17,2.17,0,0,1-.1,1.35,2,2,0,0,1-1.11,1.05,4.4,4.4,0,0,1-1.3.3C294.19,248.29,293.81,248.3,293.43,248.3Zm-3.6-3.84-.61,0a1.23,1.23,0,0,0-.82.38,1.64,1.64,0,0,0-.43.83,1.55,1.55,0,0,0,.07.85,1.62,1.62,0,0,0,.5.69,1.2,1.2,0,0,0,.8.27H291c.21,0,.52,0,.93,0s.81,0,1.26.06a12.13,12.13,0,0,0,1.34,0,3.71,3.71,0,0,0,1.09-.25,1.28,1.28,0,0,0,.74-.68,1.48,1.48,0,0,0,.07-.93,1.68,1.68,0,0,0-.52-.85,1.49,1.49,0,0,0-1-.38h-.19l-.38,0-.44,0h-.34V231.8h1a3.05,3.05,0,0,0,.65-.07,1.52,1.52,0,0,0,.53-.22,1.19,1.19,0,0,0,.38-.44,1.41,1.41,0,0,0,.14-1.16,1.6,1.6,0,0,0-.72-.93,1.47,1.47,0,0,1-.29-.17.11.11,0,0,0-.07,0c-1,0-1.95,0-2.91,0h-2.89a1.57,1.57,0,0,0-.67.15,1.32,1.32,0,0,0-.57.47,1.94,1.94,0,0,0-.32.71,1.29,1.29,0,0,0,0,.7,1.27,1.27,0,0,0,.45.61,1.62,1.62,0,0,0,.92.37h1.54v12.73l-.37,0Z"/><path class="cls-6" d="M310.73,229.35a2.31,2.31,0,0,1,.55-1,1.81,1.81,0,0,1,.83-.52,1.43,1.43,0,0,1,.91.06,1.69,1.69,0,0,1,.8.73,2.13,2.13,0,0,1,.21.36.94.94,0,0,1,.1.39q.06,4.34,0,8.66t-.32,8.66a1.45,1.45,0,0,1-.41,1.09,1.86,1.86,0,0,1-.93.5,1.75,1.75,0,0,1-1.06-.12,1.49,1.49,0,0,1-.79-.77.09.09,0,0,1,0-.06v.06q-1.83-3.25-3.85-6.24t-4.22-5.93v9.19q0,.94,0,1.53t-.07.93a2.85,2.85,0,0,1-.13.58,1.56,1.56,0,0,1-.77,1,1.6,1.6,0,0,1-1.05.12,1.66,1.66,0,0,1-.93-.61,1.86,1.86,0,0,1-.39-1.21v-8.47q0-1.27,0-2.38t0-1.87q0-1,0-2t0-2a1.57,1.57,0,0,1,.24-.88,1.66,1.66,0,0,1,.61-.56,1.93,1.93,0,0,1,.79-.23,1.87,1.87,0,0,1,.82.12,1.83,1.83,0,0,1,.69.5q.35.38.69.82t.63.88l.49.71,1.69,2.23q1,1.26,1.77,2.38t1.59,2.31q.77,1.15,1.51,2.31.08-2.76.11-5.49t0-5.49Z"/><path d="M300.79,248.93a2,2,0,0,1-.43,0,2,2,0,0,1-1.12-.72,2.2,2.2,0,0,1-.47-1.43v-8.47q0-1.27,0-2.38t0-1.87q0-1,0-2c0-.68,0-1.38,0-2.07a1.9,1.9,0,0,1,.29-1.06,2,2,0,0,1,.73-.67,2.28,2.28,0,0,1,.93-.27,2.22,2.22,0,0,1,1,.14,2.16,2.16,0,0,1,.82.59c.24.26.48.54.71.84s.45.6.65.9l.49.7,1.68,2.22q1,1.26,1.78,2.39t1.6,2.32l.91,1.38c0-1.48.07-2.95.08-4.38q0-2.73,0-5.49l0-.27a2.65,2.65,0,0,1,.63-1.15,2.15,2.15,0,0,1,1-.61,1.76,1.76,0,0,1,1.13.07,2,2,0,0,1,1,.87,2.38,2.38,0,0,1,.23.4,1.28,1.28,0,0,1,.13.54c0,2.9,0,5.82,0,8.67s-.17,5.79-.32,8.67a1.77,1.77,0,0,1-.51,1.32,2.2,2.2,0,0,1-1.1.59,2.1,2.1,0,0,1-1.26-.14,1.86,1.86,0,0,1-.34-.19v.34l-.64-1.07c-1.21-2.15-2.5-4.24-3.84-6.21-1.15-1.7-2.36-3.4-3.6-5.09v8.16q0,1,0,1.55c0,.41,0,.72-.07,1a3.25,3.25,0,0,1-.14.65,1.89,1.89,0,0,1-1,1.17A2,2,0,0,1,300.79,248.93Zm0-20.34h-.12a1.6,1.6,0,0,0-.65.19,1.32,1.32,0,0,0-.48.45,1.22,1.22,0,0,0-.18.69c0,.69,0,1.37,0,2s0,1.37,0,2.06q0,.76,0,1.86t0,2.39v8.47a1.52,1.52,0,0,0,.32,1,1.32,1.32,0,0,0,.74.49,1.27,1.27,0,0,0,.84-.1,1.24,1.24,0,0,0,.6-.77,2.58,2.58,0,0,0,.11-.51c0-.22,0-.52.07-.9s0-.9,0-1.52V234.2l.61.82c1.46,2,2.88,4,4.23,5.94s2.63,4.06,3.84,6.2h0l.06.09a1.14,1.14,0,0,0,.61.6,1.4,1.4,0,0,0,.85.1,1.51,1.51,0,0,0,.76-.41,1.12,1.12,0,0,0,.3-.85c.15-2.89.26-5.8.32-8.67s.08-5.75,0-8.65a.62.62,0,0,0-.07-.25,1.79,1.79,0,0,0-.18-.31,1.41,1.41,0,0,0-.65-.61,1.09,1.09,0,0,0-.7,0,1.47,1.47,0,0,0-.67.42,2,2,0,0,0-.46.84l0,.16c0,1.79,0,3.62,0,5.44s-.06,3.64-.11,5.5l0,1.11-.59-.94q-.73-1.15-1.5-2.3t-1.58-2.3q-.81-1.11-1.77-2.37l-1.69-2.23-.5-.73q-.29-.43-.62-.86c-.22-.28-.44-.55-.67-.79a1.5,1.5,0,0,0-.55-.41A1.53,1.53,0,0,0,300.83,228.59Z"/><path class="cls-7" d="M328.84,228.68a2.1,2.1,0,0,1,.89.77,2.54,2.54,0,0,1,.42,1.09,1.57,1.57,0,0,1-.2,1,1.37,1.37,0,0,1-.94.61,11.51,11.51,0,0,1-2.43.21l-2,0q0,3.64,0,7.16t0,7.43a1.4,1.4,0,0,1-.53,1.23,1.68,1.68,0,0,1-1.17.32,2,2,0,0,1-1.17-.55,1.71,1.71,0,0,1-.53-1.33q0-3.58,0-7.13v-7.13l-.86,0q-.61,0-1.32,0a12.49,12.49,0,0,1-1.48-.12,3.9,3.9,0,0,1-1.32-.41,1.16,1.16,0,0,1-.59-.71,1.74,1.74,0,0,1,0-1,2.45,2.45,0,0,1,.46-.91,1.67,1.67,0,0,1,.84-.58q2.36-.15,4.57-.11t4.49,0l1.35,0,1.38,0Z"/><path d="M323.07,248.84h-.2a2.34,2.34,0,0,1-1.36-.63,2,2,0,0,1-.65-1.59q0-3.58,0-7.13V232.7l-.5,0c-.41,0-.86,0-1.35,0a13,13,0,0,1-1.52-.12,4.25,4.25,0,0,1-1.44-.45,1.5,1.5,0,0,1-.76-.92,2.07,2.07,0,0,1,0-1.14,2.79,2.79,0,0,1,.53-1,2,2,0,0,1,1-.69h.08c1.58-.1,3.13-.14,4.6-.11,1.89,0,3.86.08,5.82,0h1.39l.12,0,.19.07a2.44,2.44,0,0,1,1,.9,2.9,2.9,0,0,1,.48,1.24,1.91,1.91,0,0,1-.24,1.23,1.7,1.7,0,0,1-1.16.77,11.88,11.88,0,0,1-2.52.22l-1.63,0q0,3.46,0,6.82c0,2.35,0,4.85,0,7.44a1.73,1.73,0,0,1-.68,1.5A2,2,0,0,1,323.07,248.84ZM321.16,232h.34v7.47q0,3.55,0,7.13a1.38,1.38,0,0,0,.42,1.09,1.66,1.66,0,0,0,1,.46,1.35,1.35,0,0,0,.94-.26,1.08,1.08,0,0,0,.39-1c0-2.59,0-5.09,0-7.43s0-4.73,0-7.16V232h.34l2,0a11.09,11.09,0,0,0,2.36-.21,1,1,0,0,0,.71-.44,1.23,1.23,0,0,0,.15-.8,2.23,2.23,0,0,0-.37-.95,1.75,1.75,0,0,0-.73-.65l-.1,0H327.3c-2,0-4,0-5.85,0-1.44,0-3,0-4.5.1a1.32,1.32,0,0,0-.64.45,2.12,2.12,0,0,0-.4.78,1.38,1.38,0,0,0,0,.77.83.83,0,0,0,.43.51,3.58,3.58,0,0,0,1.21.37,12.36,12.36,0,0,0,1.44.12c.47,0,.91,0,1.3,0Z"/></g></svg>