<svg xmlns="http://www.w3.org/2000/svg" viewBox="0 0 449 449"><defs><style>.cls-1{fill:#13ffcd;}.cls-2{fill:#fff;}</style></defs><title>logo</title><g id="bg"><rect width="449" height="449"/></g><g id="Layer_1" data-name="Layer 1"><rect class="cls-1" x="157" y="136.35" width="133" height="133" rx="31.11" ry="31.11"/><path class="cls-2" d="M201.44,198.43a2.28,2.28,0,0,1-1.93-1.06l-1-1.58a20.94,20.94,0,0,1,35.36-22.45l1,1.58a2.28,2.28,0,0,1-3.86,2.45l-1-1.58a16.38,16.38,0,1,0-27.65,17.56l1,1.58a2.28,2.28,0,0,1-1.93,3.51Z"/><path class="cls-2" d="M197.49,201.57a66.49,66.49,0,0,0-20.89,8.38c-4.91,3.12-10.78,9.85-4.31,14.84,5.43,4.19,12.77.3,17.71-2.8a162,162,0,0,0,16.84-12.34c11.42-9.41,21.87-19.92,33.16-29.47a158.07,158.07,0,0,1,17.88-13.3c3.71-2.33,16.21-10.48,17.21-1.54.75,6.68-7.6,8.43-12.44,10-6.42,2.06-13.43,3.38-19.22,6.92-2.82,1.72-.24,6.17,2.59,4.44,5.2-3.18,11.56-4.37,17.34-6.19,4.53-1.43,10.26-2.9,13.76-6.3,3.73-3.62,4.24-10.54,1-14.61-4.69-5.88-12.66-3-18.09.05-25.39,14.24-43.58,37.82-67.25,54.37a60.48,60.48,0,0,1-9.82,6.08c-1.73.76-4.1,1.76-6,1.34-2.34-.5-2.8-2.33-1.37-4.15,2.36-3,6.93-4.92,10.35-6.47a67.57,67.57,0,0,1,13-4.27c3.22-.73,1.86-5.68-1.37-5Z"/><path class="cls-2" d="M208,212.25a13.12,13.12,0,0,0,21.92,3.18c3.14-3.66,4.33-8.47,5-13.15.7-5.25,1-10.58,1.16-15.87,0-.64,0-1.56,0-2.06a145.35,145.35,0,0,1-1.3,16.83c-.7,4.6-2.08,9.32-5.39,12.75A13.11,13.11,0,0,1,208,210.11c.27.58-.28,1.55,0,2.14Z"/><path class="cls-2" d="M172.85,230.72h8.68v1.74h-6.6v5.35H181v1.72h-6.09v7.29h-2.08Z"/><path class="cls-2" d="M189.74,246.83l-.17-1.46h-.07a4.31,4.31,0,0,1-3.54,1.72,3.3,3.3,0,0,1-3.54-3.32c0-2.8,2.49-4.33,7-4.3v-.24a2.38,2.38,0,0,0-2.63-2.68,5.77,5.77,0,0,0-3,.86l-.48-1.39a7.18,7.18,0,0,1,3.8-1c3.54,0,4.4,2.41,4.4,4.73v4.33a16.3,16.3,0,0,0,.19,2.77Zm-.31-5.9c-2.29,0-4.9.36-4.9,2.6a1.86,1.86,0,0,0,2,2,2.88,2.88,0,0,0,2.8-1.94,2.21,2.21,0,0,0,.12-.67Z"/><path class="cls-2" d="M194.57,244.68a5.51,5.51,0,0,0,2.77.84c1.53,0,2.25-.76,2.25-1.72s-.6-1.55-2.15-2.13c-2.08-.74-3.06-1.89-3.06-3.27,0-1.86,1.51-3.39,4-3.39a5.78,5.78,0,0,1,2.84.72l-.53,1.53a4.5,4.5,0,0,0-2.37-.67c-1.24,0-1.94.72-1.94,1.58s.69,1.39,2.2,2c2,.76,3,1.77,3,3.49,0,2-1.58,3.47-4.33,3.47a6.6,6.6,0,0,1-3.25-.79Z"/><path class="cls-2" d="M204.32,229.86h2.1v7.22h0a3.9,3.9,0,0,1,1.51-1.48,4.33,4.33,0,0,1,2.15-.6c1.55,0,4,1,4,4.95v6.88h-2.1v-6.64c0-1.86-.69-3.44-2.68-3.44a3,3,0,0,0-2.82,2.1,2.55,2.55,0,0,0-.14,1v7h-2.1Z"/><path class="cls-2" d="M219.93,232a1.3,1.3,0,0,1-2.61,0,1.28,1.28,0,0,1,1.31-1.31A1.25,1.25,0,0,1,219.93,232Zm-2.34,14.82V235.26h2.1v11.57Z"/><path class="cls-2" d="M233.64,240.95c0,4.28-3,6.14-5.76,6.14-3.13,0-5.54-2.29-5.54-6,0-3.87,2.53-6.14,5.74-6.14S233.64,237.41,233.64,240.95Zm-9.18.12c0,2.53,1.46,4.45,3.51,4.45s3.51-1.89,3.51-4.49c0-2-1-4.45-3.47-4.45S224.47,238.87,224.47,241.07Z"/><path class="cls-2" d="M236.29,238.39c0-1.2,0-2.17-.1-3.13h1.86l.12,1.91h0a4.25,4.25,0,0,1,3.82-2.17c1.6,0,4.09,1,4.09,4.92v6.91H244v-6.67c0-1.86-.69-3.42-2.68-3.42a3,3,0,0,0-2.82,2.15,3,3,0,0,0-.14,1v7h-2.1Z"/><path class="cls-2" d="M251.9,232a1.3,1.3,0,0,1-2.61,0,1.28,1.28,0,0,1,1.31-1.31A1.25,1.25,0,0,1,251.9,232Zm-2.34,14.82V235.26h2.1v11.57Z"/><path class="cls-2" d="M254.86,244.68a5.51,5.51,0,0,0,2.77.84c1.53,0,2.25-.76,2.25-1.72s-.6-1.55-2.15-2.13c-2.08-.74-3.06-1.89-3.06-3.27,0-1.86,1.51-3.39,4-3.39a5.78,5.78,0,0,1,2.84.72l-.53,1.53a4.5,4.5,0,0,0-2.37-.67c-1.24,0-1.94.72-1.94,1.58s.69,1.39,2.2,2c2,.76,3,1.77,3,3.49,0,2-1.58,3.47-4.33,3.47a6.6,6.6,0,0,1-3.25-.79Z"/><path class="cls-2" d="M267.15,231.94v3.32h3v1.6h-3v6.24c0,1.43.41,2.25,1.58,2.25a4.67,4.67,0,0,0,1.22-.14l.1,1.58a5.15,5.15,0,0,1-1.86.29,2.91,2.91,0,0,1-2.27-.88,4.28,4.28,0,0,1-.81-3v-6.31H263.3v-1.6h1.79v-2.77Z"/><path class="cls-2" d="M278.93,246.83l-.17-1.46h-.07a4.31,4.31,0,0,1-3.54,1.72,3.3,3.3,0,0,1-3.54-3.32c0-2.8,2.49-4.33,7-4.3v-.24a2.38,2.38,0,0,0-2.63-2.68,5.76,5.76,0,0,0-3,.86l-.48-1.39a7.18,7.18,0,0,1,3.8-1c3.54,0,4.4,2.41,4.4,4.73v4.33a16.3,16.3,0,0,0,.19,2.77Zm-.31-5.9c-2.29,0-4.9.36-4.9,2.6a1.86,1.86,0,0,0,2,2,2.88,2.88,0,0,0,2.8-1.94,2.21,2.21,0,0,0,.12-.67Z"/></g></svg>