<svg xmlns="http://www.w3.org/2000/svg" viewBox="0 0 449 449"><defs><style>.cls-1{fill:#fbe721;}.cls-2{fill:#fbb03b;}.cls-3{fill:#f69d23;}.cls-4{fill:#f37723;}.cls-5{fill:#f4481d;}.cls-6{fill:#f9260f;}.cls-7{font-size:30.57px;fill:#fcee21;font-family:Silkscreen-Expanded, Silkscreen Expanded;}.cls-8{fill:#f59423;}.cls-9{fill:#f7a822;}.cls-10{fill:#f8b922;}.cls-11{fill:#f9c022;}.cls-12{fill:#f8bc22;}.cls-13{fill:#f7ac22;}.cls-14{fill:#f69823;}.cls-15{fill:#f15f24;}.cls-16{fill:#f37224;}.cls-17{fill:#f48423;}.cls-18{fill:#f69b23;}.cls-19{fill:#f8b322;}.cls-20{fill:#f9c922;}.cls-21{fill:#fad521;}.cls-22{fill:#face22;}.cls-23{fill:#f8b822;}.cls-24{fill:#f6a123;}.cls-25{fill:#f58d23;}.cls-26{fill:#f26324;}.cls-27{fill:#f34a1e;}.cls-28{fill:#f25522;}.cls-29{fill:#f16024;}.cls-30{fill:#f37323;}.cls-31{fill:#f48623;}.cls-32{fill:#f69e23;}.cls-33{fill:#f8b722;}.cls-34{fill:#fad122;}.cls-35{fill:#fad821;}.cls-36{fill:#f8bd22;}.cls-37{fill:#f7a422;}.cls-38{fill:#f59023;}.cls-39{fill:#f37823;}.cls-40{fill:#f26424;}.cls-41{fill:#f15923;}.cls-42{fill:#f34d1f;}.cls-43{fill:#f44a1d;}.cls-44{fill:#f25422;}.cls-45{fill:#f48523;}.cls-46{fill:#f8b522;}.cls-47{fill:#facd22;}.cls-48{fill:#fbdb21;}.cls-49{fill:#fad222;}.cls-50{fill:#f8bb22;}.cls-51{fill:#f6a223;}.cls-52{fill:#f58e23;}.cls-53{fill:#f15823;}.cls-54{fill:#f53e19;}.cls-55{fill:#f63817;}.cls-56{fill:#f25321;}.cls-57{fill:#f15d24;}.cls-58{fill:#f36f24;}.cls-59{fill:#f48023;}.cls-60{fill:#f59623;}.cls-61{fill:#f7ab22;}.cls-62{fill:#f8be22;}.cls-63{fill:#f9c622;}.cls-64{fill:#f9c122;}.cls-65{fill:#f7b022;}.cls-66{fill:#f48923;}.cls-67{fill:#f37423;}.cls-68{fill:#f15723;}.cls-69{fill:#f34b1e;}.cls-70{fill:#f63c18;}.cls-71{fill:#f73615;}.cls-72{fill:#f4451c;}.cls-73{fill:#f35020;}.cls-74{fill:#f15a24;}.cls-75{fill:#f26924;}.cls-76{fill:#f37923;}.cls-77{fill:#f58c23;}.cls-78{fill:#f7b122;}.cls-79{fill:#f7ae22;}.cls-80{fill:#f48123;}.cls-81{fill:#f26d24;}.cls-82{fill:#f15c24;}.cls-83{fill:#f4491d;}.cls-84{fill:#f63917;}.cls-85{fill:#f92810;}.cls-86{fill:#f73214;}.cls-87{fill:#f5421a;}.cls-88{fill:#f26224;}.cls-89{fill:#f37024;}.cls-90{fill:#f69f23;}.cls-91{fill:#f59323;}.cls-92{fill:#f26624;}.cls-93{fill:#f15924;}.cls-94{fill:#f25221;}.cls-95{fill:#f9250f;}.cls-96{fill:#f82d12;}.cls-97{fill:#f15b24;}.cls-98{fill:#f48823;}.cls-99{fill:#f58923;}.cls-100{fill:#f48223;}.cls-101{fill:#f37623;}.cls-102{fill:#f26b24;}.cls-103{fill:#f25622;}.cls-104{fill:#f5401a;}.cls-105{fill:#f73013;}.cls-106{fill:#fa1f0c;}.cls-107{fill:#f5411a;}.cls-108{fill:#f25623;}.cls-109{fill:#f26824;}.cls-110{fill:#f4461c;}.cls-111{fill:#f82a11;}.cls-112{fill:#f82e12;}.cls-113{fill:#f63a17;}.cls-114{fill:#f26124;}.cls-115{fill:#f26724;}.cls-116{fill:#f53f19;}.cls-117{fill:#fa220e;}.cls-118{fill:#f34f20;}.cls-119{fill:#f63716;}.cls-120{fill:#f92911;}.cls-121{fill:#fb1c0b;}.cls-122{fill:#f92710;}.cls-123{fill:#f73415;}.cls-124{fill:#f34c1e;}.cls-125{fill:#f25120;}.cls-126{fill:#f73616;}.cls-127{fill:#fc1107;}.cls-128{fill:#f73314;}.cls-129{fill:#f82b11;}.cls-130{fill:#fa210d;}.cls-131{fill:#fc1408;}.cls-132{fill:#fe0502;}.cls-133{fill:#fd1006;}.cls-134{fill:#f63d18;}.cls-135{fill:#f73515;}.cls-136{fill:#ff2f2f;}.cls-137{fill:red;}.cls-138{fill:#fe0402;}.cls-139{fill:#f82f13;}.cls-140{fill:#f83013;}.cls-141{fill:#f92910;}.cls-142{fill:#fa1e0c;}.cls-143{fill:#fa200d;}.cls-144{fill:#fb1a0a;}.cls-145{fill:#fc1508;}.cls-146{fill:#fc1006;}.cls-147{fill:#fd0e06;}.cls-148{fill:#fd0a04;}</style></defs><title>logo</title><g id="bg"><rect width="449" height="449"/></g><g id="Layer_1" data-name="Layer 1"><rect class="cls-1" x="106" y="334" width="51" height="51"/><rect class="cls-2" x="157" y="334" width="51" height="51"/><rect class="cls-2" x="208" y="334" width="51" height="51"/><rect class="cls-2" x="259" y="334" width="51" height="51"/><rect class="cls-3" x="157" y="334" width="51" height="51"/><rect class="cls-2" x="208" y="334" width="51" height="51"/><rect class="cls-2" x="259" y="334" width="51" height="51"/><rect class="cls-2" x="310" y="334" width="51" height="51"/><rect class="cls-4" x="208" y="334" width="51" height="51"/><rect class="cls-5" x="259" y="334" width="51" height="51"/><rect class="cls-6" x="310" y="334" width="51" height="51"/><text class="cls-7" transform="translate(133.88 265.72)">SPARKED</text><rect class="cls-8" x="236.25" y="232.05" width="5.51" height="5.26"/><rect class="cls-9" x="230.74" y="232.05" width="5.51" height="5.26"/><rect class="cls-10" x="225.22" y="232.05" width="5.51" height="5.26"/><rect class="cls-11" x="219.71" y="232.05" width="5.51" height="5.26"/><rect class="cls-12" x="214.2" y="232.05" width="5.51" height="5.26"/><rect class="cls-13" x="208.69" y="232.05" width="5.51" height="5.26"/><rect class="cls-14" x="203.18" y="232.05" width="5.51" height="5.26"/><rect class="cls-15" x="252.78" y="226.79" width="5.51" height="5.26"/><rect class="cls-16" x="247.27" y="226.79" width="5.51" height="5.26"/><rect class="cls-17" x="241.76" y="226.79" width="5.51" height="5.26"/><rect class="cls-18" x="236.25" y="226.79" width="5.51" height="5.26"/><rect class="cls-19" x="230.74" y="226.79" width="5.51" height="5.26"/><rect class="cls-20" x="225.22" y="226.79" width="5.51" height="5.26"/><rect class="cls-21" x="219.71" y="226.79" width="5.51" height="5.26"/><rect class="cls-22" x="214.2" y="226.79" width="5.51" height="5.26"/><rect class="cls-23" x="208.69" y="226.79" width="5.51" height="5.26"/><rect class="cls-24" x="203.18" y="226.79" width="5.51" height="5.26"/><rect class="cls-25" x="197.67" y="226.79" width="5.51" height="5.26"/><rect class="cls-4" x="192.15" y="226.79" width="5.51" height="5.26"/><rect class="cls-26" x="186.64" y="226.79" width="5.51" height="5.26"/><rect class="cls-27" x="263.81" y="221.53" width="5.51" height="5.26"/><rect class="cls-28" x="258.29" y="221.53" width="5.51" height="5.26"/><rect class="cls-29" x="252.78" y="221.53" width="5.51" height="5.26"/><rect class="cls-30" x="247.27" y="221.53" width="5.51" height="5.26"/><rect class="cls-31" x="241.76" y="221.53" width="5.51" height="5.26"/><rect class="cls-32" x="236.25" y="221.53" width="5.51" height="5.26"/><rect class="cls-33" x="230.74" y="221.53" width="5.51" height="5.26"/><rect class="cls-34" x="225.22" y="221.53" width="5.51" height="5.26"/><rect class="cls-1" x="219.71" y="221.53" width="5.51" height="5.26"/><rect class="cls-35" x="214.2" y="221.53" width="5.51" height="5.26"/><rect class="cls-36" x="208.69" y="221.53" width="5.51" height="5.26"/><rect class="cls-37" x="203.18" y="221.53" width="5.51" height="5.26"/><rect class="cls-38" x="197.67" y="221.53" width="5.51" height="5.26"/><rect class="cls-39" x="192.15" y="221.53" width="5.51" height="5.26"/><rect class="cls-40" x="186.64" y="221.53" width="5.51" height="5.26"/><rect class="cls-41" x="181.13" y="221.53" width="5.51" height="5.26"/><rect class="cls-42" x="175.62" y="221.53" width="5.51" height="5.26"/><rect class="cls-43" x="263.81" y="216.27" width="5.51" height="5.26"/><rect class="cls-44" x="258.29" y="216.27" width="5.51" height="5.26"/><rect class="cls-15" x="252.78" y="216.27" width="5.51" height="5.26"/><rect class="cls-16" x="247.27" y="216.27" width="5.51" height="5.26"/><rect class="cls-45" x="241.76" y="216.27" width="5.51" height="5.26"/><rect class="cls-3" x="236.25" y="216.27" width="5.51" height="5.26"/><rect class="cls-46" x="230.74" y="216.27" width="5.51" height="5.26"/><rect class="cls-47" x="225.22" y="216.27" width="5.51" height="5.26"/><rect class="cls-48" x="219.71" y="216.27" width="5.51" height="5.26"/><rect class="cls-49" x="214.2" y="216.27" width="5.51" height="5.26"/><rect class="cls-50" x="208.69" y="216.27" width="5.51" height="5.26"/><rect class="cls-51" x="203.18" y="216.27" width="5.51" height="5.26"/><rect class="cls-52" x="197.67" y="216.27" width="5.51" height="5.26"/><rect class="cls-4" x="192.15" y="216.27" width="5.51" height="5.26"/><rect class="cls-26" x="186.64" y="216.27" width="5.51" height="5.26"/><rect class="cls-53" x="181.13" y="216.27" width="5.51" height="5.26"/><rect class="cls-42" x="175.62" y="216.27" width="5.51" height="5.26"/><rect class="cls-54" x="170.11" y="216.27" width="5.51" height="5.26"/><rect class="cls-55" x="269.32" y="211" width="5.51" height="5.26"/><rect class="cls-5" x="263.81" y="211" width="5.51" height="5.26"/><rect class="cls-56" x="258.29" y="211" width="5.51" height="5.26"/><rect class="cls-57" x="252.78" y="211" width="5.51" height="5.26"/><rect class="cls-58" x="247.27" y="211" width="5.51" height="5.26"/><rect class="cls-59" x="241.76" y="211" width="5.51" height="5.26"/><rect class="cls-60" x="236.25" y="211" width="5.51" height="5.26"/><rect class="cls-61" x="230.74" y="211" width="5.51" height="5.26"/><rect class="cls-62" x="225.22" y="211" width="5.51" height="5.26"/><rect class="cls-63" x="219.71" y="211" width="5.51" height="5.26"/><rect class="cls-64" x="214.2" y="211" width="5.51" height="5.26"/><rect class="cls-65" x="208.69" y="211" width="5.51" height="5.26"/><rect class="cls-18" x="203.18" y="211" width="5.51" height="5.26"/><rect class="cls-66" x="197.67" y="211" width="5.51" height="5.26"/><rect class="cls-67" x="192.15" y="211" width="5.51" height="5.26"/><rect class="cls-29" x="186.64" y="211" width="5.51" height="5.26"/><rect class="cls-68" x="181.13" y="211" width="5.51" height="5.26"/><rect class="cls-69" x="175.62" y="211" width="5.51" height="5.26"/><rect class="cls-70" x="170.11" y="211" width="5.51" height="5.26"/><rect class="cls-71" x="269.32" y="205.74" width="5.51" height="5.26"/><rect class="cls-72" x="263.81" y="205.74" width="5.51" height="5.26"/><rect class="cls-73" x="258.29" y="205.74" width="5.51" height="5.26"/><rect class="cls-74" x="252.78" y="205.74" width="5.51" height="5.26"/><rect class="cls-75" x="247.27" y="205.74" width="5.51" height="5.26"/><rect class="cls-76" x="241.76" y="205.74" width="5.51" height="5.26"/><rect class="cls-77" x="236.25" y="205.74" width="5.51" height="5.26"/><rect class="cls-32" x="230.74" y="205.74" width="5.51" height="5.26"/><rect class="cls-13" x="225.22" y="205.74" width="5.51" height="5.26"/><rect class="cls-78" x="219.71" y="205.74" width="5.51" height="5.26"/><rect class="cls-79" x="214.2" y="205.74" width="5.51" height="5.26"/><rect class="cls-24" x="208.69" y="205.74" width="5.51" height="5.26"/><rect class="cls-38" x="203.18" y="205.74" width="5.51" height="5.26"/><rect class="cls-80" x="197.67" y="205.74" width="5.51" height="5.26"/><rect class="cls-81" x="192.15" y="205.74" width="5.51" height="5.26"/><rect class="cls-82" x="186.64" y="205.74" width="5.51" height="5.26"/><rect class="cls-28" x="181.13" y="205.74" width="5.51" height="5.26"/><rect class="cls-83" x="175.62" y="205.74" width="5.51" height="5.26"/><rect class="cls-84" x="170.11" y="205.74" width="5.51" height="5.26"/><rect class="cls-85" x="164.6" y="205.74" width="5.51" height="5.26"/><rect class="cls-86" x="269.32" y="200.48" width="5.51" height="5.26"/><rect class="cls-87" x="263.81" y="200.48" width="5.51" height="5.26"/><rect class="cls-42" x="258.29" y="200.48" width="5.51" height="5.26"/><rect class="cls-53" x="252.78" y="200.48" width="5.51" height="5.26"/><rect class="cls-88" x="247.27" y="200.48" width="5.51" height="5.26"/><rect class="cls-89" x="241.76" y="200.48" width="5.51" height="5.26"/><rect class="cls-80" x="236.25" y="200.48" width="5.51" height="5.26"/><rect class="cls-38" x="230.74" y="200.48" width="5.51" height="5.26"/><rect class="cls-18" x="225.22" y="200.48" width="5.51" height="5.26"/><rect class="cls-90" x="219.71" y="200.48" width="5.51" height="5.26"/><rect class="cls-3" x="214.2" y="200.48" width="5.51" height="5.26"/><rect class="cls-91" x="208.69" y="200.48" width="5.51" height="5.26"/><rect class="cls-17" x="203.18" y="200.48" width="5.51" height="5.26"/><rect class="cls-4" x="197.67" y="200.48" width="5.51" height="5.26"/><rect class="cls-92" x="192.15" y="200.48" width="5.51" height="5.26"/><rect class="cls-93" x="186.64" y="200.48" width="5.51" height="5.26"/><rect class="cls-94" x="181.13" y="200.48" width="5.51" height="5.26"/><rect class="cls-72" x="175.62" y="200.48" width="5.51" height="5.26"/><rect class="cls-71" x="170.11" y="200.48" width="5.51" height="5.26"/><rect class="cls-95" x="164.6" y="200.48" width="5.51" height="5.26"/><rect class="cls-96" x="269.32" y="195.22" width="5.51" height="5.26"/><rect class="cls-70" x="263.81" y="195.22" width="5.51" height="5.26"/><rect class="cls-5" x="258.29" y="195.22" width="5.51" height="5.26"/><rect class="cls-56" x="252.78" y="195.22" width="5.51" height="5.26"/><rect class="cls-97" x="247.27" y="195.22" width="5.51" height="5.26"/><rect class="cls-92" x="241.76" y="195.22" width="5.51" height="5.26"/><rect class="cls-67" x="236.25" y="195.22" width="5.51" height="5.26"/><rect class="cls-59" x="230.74" y="195.22" width="5.51" height="5.26"/><rect class="cls-98" x="225.22" y="195.22" width="5.51" height="5.26"/><rect class="cls-77" x="219.71" y="195.22" width="5.51" height="5.26"/><rect class="cls-99" x="214.2" y="195.22" width="5.51" height="5.26"/><rect class="cls-100" x="208.69" y="195.22" width="5.51" height="5.26"/><rect class="cls-101" x="203.18" y="195.22" width="5.51" height="5.26"/><rect class="cls-102" x="197.67" y="195.22" width="5.51" height="5.26"/><rect class="cls-57" x="192.15" y="195.22" width="5.51" height="5.26"/><rect class="cls-103" x="186.64" y="195.22" width="5.51" height="5.26"/><rect class="cls-42" x="181.13" y="195.22" width="5.51" height="5.26"/><rect class="cls-104" x="175.62" y="195.22" width="5.51" height="5.26"/><rect class="cls-105" x="170.11" y="195.22" width="5.51" height="5.26"/><rect class="cls-106" x="164.6" y="195.22" width="5.51" height="5.26"/><rect class="cls-6" x="269.32" y="189.96" width="5.51" height="5.26"/><rect class="cls-71" x="263.81" y="189.96" width="5.51" height="5.26"/><rect class="cls-107" x="258.29" y="189.96" width="5.51" height="5.26"/><rect class="cls-42" x="252.78" y="189.96" width="5.51" height="5.26"/><rect class="cls-108" x="247.27" y="189.96" width="5.51" height="5.26"/><rect class="cls-97" x="241.76" y="189.96" width="5.51" height="5.26"/><rect class="cls-92" x="236.25" y="189.96" width="5.51" height="5.26"/><rect class="cls-89" x="230.74" y="189.96" width="5.51" height="5.26"/><rect class="cls-101" x="225.22" y="189.96" width="5.51" height="5.26"/><rect class="cls-76" x="219.71" y="189.96" width="5.51" height="5.26"/><rect class="cls-4" x="214.2" y="189.96" width="5.51" height="5.26"/><rect class="cls-16" x="208.69" y="189.96" width="5.51" height="5.26"/><rect class="cls-109" x="203.18" y="189.96" width="5.51" height="5.26"/><rect class="cls-29" x="197.67" y="189.96" width="5.51" height="5.26"/><rect class="cls-53" x="192.15" y="189.96" width="5.51" height="5.26"/><rect class="cls-73" x="186.64" y="189.96" width="5.51" height="5.26"/><rect class="cls-110" x="181.13" y="189.96" width="5.51" height="5.26"/><rect class="cls-84" x="175.62" y="189.96" width="5.51" height="5.26"/><rect class="cls-111" x="170.11" y="189.96" width="5.51" height="5.26"/><rect class="cls-112" x="263.81" y="184.69" width="5.51" height="5.26"/><rect class="cls-113" x="258.29" y="184.69" width="5.51" height="5.26"/><rect class="cls-110" x="252.78" y="184.69" width="5.51" height="5.26"/><rect class="cls-73" x="247.27" y="184.69" width="5.51" height="5.26"/><rect class="cls-103" x="241.76" y="184.69" width="5.51" height="5.26"/><rect class="cls-74" x="236.25" y="184.69" width="5.51" height="5.26"/><rect class="cls-114" x="230.74" y="184.69" width="5.51" height="5.26"/><rect class="cls-92" x="225.22" y="184.69" width="5.51" height="5.26"/><rect class="cls-109" x="219.71" y="184.69" width="5.51" height="5.26"/><rect class="cls-115" x="214.2" y="184.69" width="5.51" height="5.26"/><rect class="cls-88" x="208.69" y="184.69" width="5.51" height="5.26"/><rect class="cls-82" x="203.18" y="184.69" width="5.51" height="5.26"/><rect class="cls-53" x="197.67" y="184.69" width="5.51" height="5.26"/><rect class="cls-94" x="192.15" y="184.69" width="5.51" height="5.26"/><rect class="cls-5" x="186.64" y="184.69" width="5.51" height="5.26"/><rect class="cls-116" x="181.13" y="184.69" width="5.51" height="5.26"/><rect class="cls-86" x="175.62" y="184.69" width="5.51" height="5.26"/><rect class="cls-117" x="170.11" y="184.69" width="5.51" height="5.26"/><rect class="cls-6" x="263.81" y="179.43" width="5.51" height="5.26"/><rect class="cls-86" x="258.29" y="179.43" width="5.51" height="5.26"/><rect class="cls-54" x="252.78" y="179.43" width="5.51" height="5.26"/><rect class="cls-5" x="247.27" y="179.43" width="5.51" height="5.26"/><rect class="cls-118" x="241.76" y="179.43" width="5.51" height="5.26"/><rect class="cls-28" x="236.25" y="179.43" width="5.51" height="5.26"/><rect class="cls-41" x="230.74" y="179.43" width="5.51" height="5.26"/><rect class="cls-74" x="225.22" y="179.43" width="5.51" height="5.26"/><rect class="cls-97" x="219.71" y="179.43" width="5.51" height="5.26"/><rect class="cls-97" x="214.2" y="179.43" width="5.51" height="5.26"/><rect class="cls-93" x="208.69" y="179.43" width="5.51" height="5.26"/><rect class="cls-103" x="203.18" y="179.43" width="5.51" height="5.26"/><rect class="cls-94" x="197.67" y="179.43" width="5.51" height="5.26"/><rect class="cls-27" x="192.15" y="179.43" width="5.51" height="5.26"/><rect class="cls-104" x="186.64" y="179.43" width="5.51" height="5.26"/><rect class="cls-119" x="181.13" y="179.43" width="5.51" height="5.26"/><rect class="cls-120" x="175.62" y="179.43" width="5.51" height="5.26"/><rect class="cls-121" x="263.81" y="174.17" width="5.51" height="5.26"/><rect class="cls-122" x="258.29" y="174.17" width="5.51" height="5.26"/><rect class="cls-123" x="252.78" y="174.17" width="5.51" height="5.26"/><rect class="cls-54" x="247.27" y="174.17" width="5.51" height="5.26"/><rect class="cls-72" x="241.76" y="174.17" width="5.51" height="5.26"/><rect class="cls-124" x="236.25" y="174.17" width="5.51" height="5.26"/><rect class="cls-73" x="230.74" y="174.17" width="5.51" height="5.26"/><rect class="cls-56" x="225.22" y="174.17" width="5.51" height="5.26"/><rect class="cls-44" x="219.71" y="174.17" width="5.51" height="5.26"/><rect class="cls-56" x="214.2" y="174.17" width="5.51" height="5.26"/><rect class="cls-125" x="208.69" y="174.17" width="5.51" height="5.26"/><rect class="cls-42" x="203.18" y="174.17" width="5.51" height="5.26"/><rect class="cls-5" x="197.67" y="174.17" width="5.51" height="5.26"/><rect class="cls-5" x="197.67" y="168.45" width="6.29" height="6.01"/><rect class="cls-104" x="192.15" y="174.17" width="5.51" height="5.26"/><rect class="cls-126" x="186.64" y="174.17" width="5.51" height="5.26"/><rect class="cls-96" x="181.13" y="174.17" width="5.51" height="5.26"/><rect class="cls-106" x="175.62" y="174.17" width="5.51" height="5.26"/><rect class="cls-127" x="263.81" y="168.91" width="5.51" height="5.26"/><rect class="cls-121" x="258.29" y="168.91" width="5.51" height="5.26"/><rect class="cls-85" x="252.78" y="168.91" width="5.51" height="5.26"/><rect class="cls-128" x="247.27" y="168.91" width="5.51" height="5.26"/><rect class="cls-113" x="241.76" y="168.91" width="5.51" height="5.26"/><rect class="cls-104" x="236.25" y="168.91" width="5.51" height="5.26"/><rect class="cls-72" x="230.74" y="168.91" width="5.51" height="5.26"/><rect class="cls-5" x="225.22" y="168.91" width="5.51" height="5.26"/><rect class="cls-83" x="219.71" y="168.91" width="5.51" height="5.26"/><rect class="cls-83" x="214.2" y="168.91" width="5.51" height="5.26"/><rect class="cls-110" x="208.69" y="168.91" width="5.51" height="5.26"/><rect class="cls-87" x="203.18" y="168.91" width="5.51" height="5.26"/><rect class="cls-129" x="186.64" y="168.91" width="5.51" height="5.26"/><rect class="cls-130" x="181.13" y="168.91" width="5.51" height="5.26"/><rect class="cls-131" x="175.62" y="168.91" width="5.51" height="5.26"/><rect class="cls-132" x="176.01" y="165.1" width="5.51" height="5.26"/><rect class="cls-132" x="263.81" y="163.64" width="5.51" height="5.26"/><rect class="cls-133" x="258.29" y="163.64" width="5.51" height="5.26"/><rect class="cls-121" x="252.78" y="163.64" width="5.51" height="5.26"/><rect class="cls-6" x="247.27" y="163.64" width="5.51" height="5.26"/><rect class="cls-123" x="236.25" y="163.64" width="5.51" height="5.26"/><rect class="cls-84" x="230.74" y="163.64" width="5.51" height="5.26"/><rect class="cls-70" x="225.22" y="163.64" width="5.51" height="5.26"/><rect class="cls-134" x="219.71" y="163.64" width="5.51" height="5.26"/><rect class="cls-70" x="214.2" y="163.64" width="5.51" height="5.26"/><rect class="cls-113" x="208.69" y="163.64" width="5.51" height="5.26"/><rect class="cls-135" x="203.18" y="163.64" width="5.51" height="5.26"/><rect class="cls-135" x="198.03" y="163.64" width="5.51" height="5.26"/><rect class="cls-136" x="267.35" y="154.58" width="5.51" height="5.26"/><rect class="cls-137" x="263.81" y="158.38" width="5.51" height="5.26"/><rect class="cls-138" x="258.29" y="158.38" width="5.51" height="5.26"/><rect class="cls-122" x="236.25" y="158.38" width="5.51" height="5.26"/><rect class="cls-96" x="230.74" y="158.38" width="5.51" height="5.26"/><rect class="cls-139" x="225.22" y="158.38" width="5.51" height="5.26"/><rect class="cls-105" x="219.71" y="158.38" width="5.51" height="5.26"/><rect class="cls-140" x="214.2" y="158.38" width="5.51" height="5.26"/><rect class="cls-96" x="208.69" y="158.38" width="5.51" height="5.26"/><rect class="cls-141" x="203.18" y="158.38" width="5.51" height="5.26"/><rect class="cls-141" x="198.03" y="158.38" width="5.51" height="5.26"/><rect class="cls-142" x="230.74" y="153.12" width="5.51" height="5.26"/><rect class="cls-143" x="225.22" y="153.12" width="5.51" height="5.26"/><rect class="cls-130" x="219.71" y="153.12" width="5.51" height="5.26"/><rect class="cls-130" x="214.2" y="153.12" width="5.51" height="5.26"/><rect class="cls-142" x="208.69" y="153.12" width="5.51" height="5.26"/><rect class="cls-144" x="203.18" y="153.12" width="5.51" height="5.26"/><rect class="cls-145" x="197.67" y="153.12" width="5.51" height="5.26"/><rect class="cls-146" x="225.22" y="147.86" width="5.51" height="5.26"/><rect class="cls-127" x="219.71" y="147.86" width="5.51" height="5.26"/><rect class="cls-127" x="214.2" y="147.86" width="5.51" height="5.26"/><rect class="cls-147" x="208.69" y="147.86" width="5.51" height="5.26"/><rect class="cls-148" x="203.18" y="147.86" width="5.51" height="5.26"/><rect class="cls-132" x="197.67" y="147.86" width="5.51" height="5.26"/><rect class="cls-137" x="219.71" y="142.6" width="5.51" height="5.26"/><rect class="cls-137" x="214.2" y="142.6" width="5.51" height="5.26"/><rect class="cls-137" x="208.69" y="142.6" width="5.51" height="5.26"/><rect class="cls-137" x="203.18" y="142.6" width="5.51" height="5.26"/><rect class="cls-137" x="197.67" y="142.6" width="5.51" height="5.26"/><rect class="cls-137" x="219.71" y="137.33" width="5.51" height="5.26"/><rect class="cls-137" x="214.2" y="137.33" width="5.51" height="5.26"/><rect class="cls-137" x="208.69" y="137.33" width="5.51" height="5.26"/><rect class="cls-137" x="203.18" y="137.33" width="5.51" height="5.26"/><rect class="cls-137" x="219.32" y="127" width="5.51" height="5.26"/><rect class="cls-137" x="219.71" y="132.07" width="5.51" height="5.26"/><rect class="cls-137" x="214.2" y="132.07" width="5.51" height="5.26"/><rect class="cls-137" x="208.69" y="132.07" width="5.51" height="5.26"/><path d="M208.6,199.38v7.08a1.9,1.9,0,0,1-1.9,1.9h-4.36a1.9,1.9,0,0,0-1.9,1.9v4.36a1.9,1.9,0,0,1-1.9,1.9h-7.08a1.9,1.9,0,0,1-1.9-1.9v-4.36a1.9,1.9,0,0,0-1.9-1.9h-4.36a1.9,1.9,0,0,1-1.9-1.9v-7.08a1.9,1.9,0,0,1,1.9-1.9h4.36a1.9,1.9,0,0,0,1.9-1.9v-4.36a1.9,1.9,0,0,1,1.9-1.9h7.08a1.9,1.9,0,0,1,1.9,1.9v4.36a1.9,1.9,0,0,0,1.9,1.9h4.36A1.9,1.9,0,0,1,208.6,199.38Z"/><circle cx="244.48" cy="195.11" r="8.25"/><circle cx="227.99" cy="211.05" r="8.25"/></g></svg>