<svg xmlns="http://www.w3.org/2000/svg" viewBox="0 0 449 449"><defs><style>.cls-1{fill:#fbb03b;}.cls-2{fill:#fff;}</style></defs><title>logo</title><g id="bg"><rect class="cls-1" width="449" height="449"/></g><g id="Layer_1" data-name="Layer 1"><path class="cls-2" d="M120.9,212.91v10.53a1.5,1.5,0,1,1-3,0V212.91c0-6,3.41-11.13,8-13a95.45,95.45,0,0,0-14-1.3,1.5,1.5,0,0,1,0-3,96,96,0,0,1,19.05,2.31,2,2,0,0,1,1.5,2c0,1-.85,2-1.5,2C124.91,201.88,120.9,206.9,120.9,212.91Z"/><path class="cls-2" d="M153.09,198.57c.3,2,1.25,9.43,1.4,10.33.65,4.36,2,8.92,2,13a1.5,1.5,0,0,1-3,0c0-3.26-1-7.07-1.4-9.18-1.1.85-3.16,1.85-7.57,1.85.2,1.75.45,4.81.45,5.82,0,3.36-1.7,4.51-4,4.51-1.25,0-2.66-.6-3.51-3a21.88,21.88,0,0,1-1-5.82c0-3.36,3.36-4.51,4.76-4.51A142.58,142.58,0,0,1,140,197.07c0-1,.4-1.5,1.5-1.5a1.31,1.31,0,0,1,1.5,1.5,139.44,139.44,0,0,0,1.3,14.54c4.41,0,7.12-1.3,7.12-2.71-.15-1-1-7.62-1.25-9.63a3.1,3.1,0,0,1,0-.7c0-1,.45-1.5,1.45-1.5S152.94,197.57,153.09,198.57ZM142,220.43c0-1-.5-5.82-.5-5.82-1,0-2,.5-2,1.5s.5,5.82,1.5,5.82S142,221.44,142,220.43Z"/><path class="cls-2" d="M180.16,221.94c0,.7-.8,1.15-1.5,1.5l-.3.15a24.71,24.71,0,0,1-6.92,1.35c-6,0-10.93-5.16-10.93-9,0-2.31,3-4.21,5.42-5.57,1.81-1,3.31-1.65,3.31-2.16,0-1-7.12-3.76-7.12-8.62,0-3.51,3.76-4,5.11-4,2.31,0,4.31,1.5,5.31,2,.7.35,1.4.7,1.4,1.6a1.44,1.44,0,0,1-1.5,1.5,3.23,3.23,0,0,1-1.35-.5c-1-.5-2.86-1.6-3.86-1.6s-2.11,0-2.11,1c0,3,7.17,5.41,7.17,8.62,0,2.61-2.51,3.36-4.66,4.66s-4.11,2.31-4.11,3.06c0,2,3.46,6,7.92,6a15.84,15.84,0,0,0,6.52-1.3,3.11,3.11,0,0,1,.7-.2A1.33,1.33,0,0,1,180.16,221.94Z"/><path class="cls-2" d="M217.16,214.92c0,1,5,1.1,5,5.51a4.26,4.26,0,0,1-4.51,4.51h-3c-4.71,0-10-3.66-10-11,0-12,8.67-18.35,14.69-18.35,2.26,0,5.36,1.4,5.36,5a7,7,0,0,1-.75,3.41,2.56,2.56,0,0,1-1.75,1.5,1.44,1.44,0,0,1-1.5-1.5,3.5,3.5,0,0,1,.4-1,4.3,4.3,0,0,0,.6-2.41,2.09,2.09,0,0,0-2.36-2c-3.86,0-11.68,4.46-11.68,15.34,0,4.91,3.16,8,7,8h3a1.33,1.33,0,0,0,1.5-1.5c0-2.56-5-1.4-5-5.51,0-1.55.55-4,6-4h3a1.37,1.37,0,0,1,1.5,1.55c0,1-.5,1.45-1.5,1.45h-3C219.16,213.92,217.16,213.92,217.16,214.92Z"/><path class="cls-2" d="M229.89,223.44a49.63,49.63,0,0,1-1.2-11.53c0-7.57,5-16.35,14-16.35,5.31,0,9,2.51,9,7.82,0,7.12-5.72,8.52-11,8.52,4.51,2.41,6.82,5,9.53,7.72,1.1,1.1,1.5,1.91,1.5,2.31a1.33,1.33,0,0,1-1.5,1.5c-.7,0-1.05-.55-2-1.5-3-3-4.41-4.91-12.53-9.63-.7-.4-1.5-.9-1.5-1.91a1.33,1.33,0,0,1,1.5-1.5h5c5.31,0,8-1.2,8-5.52,0-3.26-1.75-4.81-6-4.81-7.37,0-11,7.42-11,13.34a46.91,46.91,0,0,0,1.1,10.78,2.71,2.71,0,0,1,.1.75,1.33,1.33,0,0,1-1.5,1.5C230.54,224.95,230,223.74,229.89,223.44Z"/><path class="cls-2" d="M268.9,195.56a15,15,0,0,1,7.42,2.21c1,.6,1.5,1.25,1.5,1.6,0,1-.3,1.5-1.5,1.5a2.29,2.29,0,0,1-1.1-.3,12.71,12.71,0,0,0-6.32-2c-4,0-6.72.85-10.48,2.11a4.84,4.84,0,0,1-1.15.2,1.33,1.33,0,0,1-1.5-1.5c0-.55.5-1.15,1.5-1.5C261.23,196.57,263.83,195.56,268.9,195.56Zm-3.61,6.82a1.33,1.33,0,0,1,1.5,1.5v6c0,6,.5,12,.5,12,.35,0,.8.05,1.6.05,1.75,0,4.76-.8,8.37-3.41a2,2,0,0,1,1.05-.3,1.33,1.33,0,0,1,1.5,1.5c0,.55-.8,1.15-1.2,1.45-2,1.45-5.67,3.76-9.73,3.76-5.42,0-7.87-1.4-9.38-4.11a2.44,2.44,0,0,1-.25-1,1.37,1.37,0,0,1,1.5-1.5c1,0,1.35,1,1.5,1.25a5.24,5.24,0,0,0,2,1.7s-.45-5.41-.45-11.38v-6A1.33,1.33,0,0,1,265.29,202.38Z"/><path class="cls-2" d="M289.85,197.07c1.65,0,3,1.2,3.91,3.61a64.72,64.72,0,0,1,2.76,11.23c1.2,6.62,1.86,8.52,2.86,8.52,4,0,5.51-12.48,5.51-23.41,0-1,.5-1.45,1.5-1.45s1.5.45,1.5,1.45c0,1.91-.15,17.95-3.76,23.41-1.2,1.86-2.76,3-4.76,3-4.41,0-5-6.52-5.92-11.53-.85-4.41-2.31-11.83-3.61-11.83-.7,0-1,.5-1,1.5,0,1.5-1.35,17.45-2,21.86-.15,1-.6,1.5-1.5,1.5a1.33,1.33,0,0,1-1.5-1.5,3.79,3.79,0,0,1,.1-.85c.6-3.91,1.91-19.5,1.91-21C285.84,198.87,287.55,197.07,289.85,197.07Z"/><path class="cls-2" d="M312.56,217.93a50,50,0,0,1-.65-8.52,31.42,31.42,0,0,1,1-8.92,6.85,6.85,0,0,1,4.41-4.36,16.86,16.86,0,0,1,4.11-.55c5.21,0,10.53,4.76,10.53,9.23,0,9.48-9.38,13.54-15.39,19-1,.9-1.45,1.55-2.46,1.55s-1.5-.45-1.5-1.55c0-.5.5-1,1.5-1.91,6.32-5.72,14.84-9.43,14.84-16.95,0-3-4.21-6.32-7.52-6.32a12.23,12.23,0,0,0-3.06.4,3.71,3.71,0,0,0-2.66,2.71,25.65,25.65,0,0,0-.8,7.72,50.6,50.6,0,0,0,.6,7.77,5.2,5.2,0,0,1,.1.75,1.36,1.36,0,0,1-1.5,1.5C313.07,219.43,312.82,218.93,312.56,217.93Z"/><path class="cls-2" d="M278.31,247.49c-.2,0-.23,0-.23,0V249l0,1.49c-.06,1-.14,2-.2,3l-.33,3c-.13,1-.31,2-.46,3A67.24,67.24,0,0,1,273.88,271a65.29,65.29,0,0,1-12.45,20.74,62.33,62.33,0,0,1-9.1,8.33,58.69,58.69,0,0,1-35.1,11.64,64.29,64.29,0,0,1-12.51-1.27,62.24,62.24,0,0,1-12-3.77,61.45,61.45,0,0,1-20.38-14.26,60.15,60.15,0,0,1-12.86-21,57.25,57.25,0,0,1-2.86-11.86c-.1-1-.24-2-.31-3s-.13-2-.16-3,0-2,0-3,.11-2,.18-3h0q.18,1.49.33,3c.14,1,.31,2,.46,2.94s.38,1.94.57,2.91.47,1.92.7,2.87a64.34,64.34,0,0,0,4.06,11A61.57,61.57,0,0,0,185,295.67a60.5,60.5,0,0,0,10.1,5.15A60,60,0,0,0,217.23,305a64,64,0,0,0,22.19-4,62,62,0,0,0,19.66-11.73,59,59,0,0,0,7.92-8.6,55.72,55.72,0,0,0,6-10.14,54.9,54.9,0,0,0,3.76-11.27c.18-1,.4-1.95.55-2.93s.3-2,.4-3,.17-2,.24-3l0-1.49,0-.75v-.7s0,0-.22,0Z"/><path class="cls-2" d="M280,256.64c0,.21,0,.24,0,.23h.47l.48,0,1,.11a18.84,18.84,0,0,1,1.91.35,19.62,19.62,0,0,1,3.7,1.26,18.09,18.09,0,0,1,6.4,4.78,16.13,16.13,0,0,1,3.6,7.46,14.33,14.33,0,0,1,.26,2.1,15.15,15.15,0,0,1,0,2.12c0,.35-.07.7-.1,1.05a9.32,9.32,0,0,1-.19,1.1,11.86,11.86,0,0,1-.71,2.14,13.52,13.52,0,0,1-2.42,3.65,18.68,18.68,0,0,1-3.18,2.76,28.4,28.4,0,0,1-7.28,3.54,37,37,0,0,1-7.76,1.66,32.23,32.23,0,0,1-3.94.18,24.43,24.43,0,0,1-3.9-.34h0a46.31,46.31,0,0,0,7.55-1.41,48.62,48.62,0,0,0,7.11-2.51,30.91,30.91,0,0,0,6.33-3.69,13.67,13.67,0,0,0,4.33-5.21,8.41,8.41,0,0,0,.49-1.52c.06-.27.1-.5.14-.8s.09-.58.1-.87c0-.58.08-1.16.08-1.74,0-.29,0-.58,0-.87s0-.58-.06-.87a17.51,17.51,0,0,0-2-6.79,15,15,0,0,0-5-5.43,14.49,14.49,0,0,0-3.46-1.61,16.77,16.77,0,0,0-1.87-.45l-1-.13-.48,0-.24,0H280s0,0,0,.22Z"/><path class="cls-2" d="M276.19,247.89c-.23-.18-.18-.12-.19-.12l0,0,0,0-.08.09-.16.17-.33.33c-.22.22-.46.41-.71.61a13.47,13.47,0,0,1-1.56,1,24.82,24.82,0,0,1-3.39,1.56,59.3,59.3,0,0,1-7.14,2.2,140.77,140.77,0,0,1-14.72,2.81q-7.43,1-14.91,1.63c-2.49.16-5,.3-7.48.4s-5,.12-7.49.14q-7.48,0-15-.25-3.74-.16-7.48-.39l-3.74-.26q-1.87-.16-3.74-.35c-2.49-.25-5-.53-7.46-.9s-5-.8-7.41-1.34a56,56,0,0,1-7.24-2.14,22.93,22.93,0,0,1-3.43-1.61,8.41,8.41,0,0,1-2.78-2.53h0a8.2,8.2,0,0,0,3,2.17,22.77,22.77,0,0,0,3.46,1.3,54.88,54.88,0,0,0,7.25,1.52c4.89.77,9.84,1.18,14.79,1.46l3.72.18,3.72.17q3.72.15,7.44.23c5,.11,9.93.12,14.89.1s9.93,0,14.89-.16,9.92-.29,14.87-.67c2.47-.19,4.95-.42,7.41-.72s4.92-.65,7.35-1.16a54.07,54.07,0,0,0,7.18-2,24.72,24.72,0,0,0,3.4-1.5,13.42,13.42,0,0,0,1.57-1c.25-.19.49-.38.72-.59l.33-.32.16-.17.08-.09,0,0,0,0s.07,0-.16-.16Z"/><path class="cls-2" d="M250,178.34c-.26-.14-.19-.1-.21-.1h0v0l0,0-.05.09-.11.18-.25.35-.28.32-.3.3a10.07,10.07,0,0,1-1.34,1.06,18.09,18.09,0,0,1-3,1.6,48.27,48.27,0,0,1-6.57,2.2,54.21,54.21,0,0,1-13.73,1.83q-3.45,0-6.89-.2c-1.15-.09-2.3-.19-3.45-.32l-1.72-.2-1.72-.28c-1.14-.21-2.29-.42-3.42-.72a34.34,34.34,0,0,1-3.36-1.06,15.87,15.87,0,0,1-3.16-1.65,7.6,7.6,0,0,1-1.35-1.19,4.4,4.4,0,0,1-.87-1.54h0a4.2,4.2,0,0,0,1.13,1.23,7.13,7.13,0,0,0,1.43.85,15.81,15.81,0,0,0,3.18,1c1.09.26,2.19.45,3.31.6s2.23.28,3.35.37c2.25.17,4.5.31,6.76.35s4.52.09,6.78.08q1.69,0,3.39,0c1.13,0,2.26,0,3.39-.06,2.26,0,4.52-.15,6.76-.39a35.9,35.9,0,0,0,6.65-1.27,15.3,15.3,0,0,0,3.11-1.34,9.11,9.11,0,0,0,1.37-1l.31-.3.28-.32.26-.34.11-.18.06-.09,0,0v0h0s.06,0-.19-.12Z"/><path class="cls-2" d="M275.84,246.52c.22-.19.15-.15.16-.16l0,0,0,0-.08-.09-.16-.17-.33-.32c-.23-.21-.47-.4-.72-.59a13.42,13.42,0,0,0-1.57-1,24.72,24.72,0,0,0-3.4-1.5,49.82,49.82,0,0,0-7.2-1.85c-2.44-.47-4.9-.75-7.37-1s-4.94-.43-7.41-.57c-4.95-.27-9.91-.35-14.86-.36-2.48,0-5,0-7.43,0s-5,0-7.43,0c-5,0-9.92,0-14.87.1q-3.72,0-7.43.14l-3.71.13-3.71.14c-2.47.1-4.94.27-7.4.45s-4.92.42-7.36.75a54.69,54.69,0,0,0-7.26,1.32,22.78,22.78,0,0,0-3.47,1.2,8.14,8.14,0,0,0-3,2.06h0a8.35,8.35,0,0,1,2.84-2.42,22.85,22.85,0,0,1,3.44-1.51,55.55,55.55,0,0,1,7.25-1.94,149,149,0,0,1,14.84-2l3.73-.31,3.73-.21q3.73-.19,7.47-.31c5-.15,10-.25,14.94-.25s10,.18,14.94.42,9.95.72,14.9,1.31a138.41,138.41,0,0,1,14.73,2.5,54.26,54.26,0,0,1,7.17,2.09,24.82,24.82,0,0,1,3.39,1.56,13.47,13.47,0,0,1,1.56,1c.24.19.49.39.71.61l.33.33.16.17.08.09,0,0,0,0s0,.06.19-.12Z"/><path class="cls-2" d="M363.07,131c0,4.28-5.8,7.13-12.63,8h0c-1,.22-3.47,2.52-3.82,2.9a28.48,28.48,0,0,1-6.56,5.08,60.73,60.73,0,0,1-7.35,3.63c-1.25.53-2.52,1-3.79,1.49s-2.56.9-3.84,1.32a151,151,0,0,1-15.63,4.07l-3.95.79c-1.32.25-2.64.47-4,.7-2.64.45-5.3.84-7.95,1.19s-5.31.67-8,.95-5.33.51-8,.71-5.34.33-8,.45a58,58,0,0,0-7.58.76,40.92,40.92,0,0,0-14.24,5.11A31.94,31.94,0,0,0,236.7,179l0,0a24,24,0,0,1,3.78-7.14c.4-.55.83-1.08,1.27-1.61s.91-1,1.39-1.52a31.29,31.29,0,0,1,3.07-2.78,39.6,39.6,0,0,1,14.89-7.24,55.31,55.31,0,0,1,8.19-1.44c2.62-.25,5.23-.58,7.85-.87s5.23-.64,7.84-1,5.22-.71,7.83-1.07c10.41-1.52,20.79-3.25,31-5.61a104.44,104.44,0,0,0,14.89-4.51,36.11,36.11,0,0,0,5.2-2.58,1.6,1.6,0,0,0,.45-2.3,6.18,6.18,0,0,0-1.48-1.36l-.16-.08c-3.8-1.41-6.32-3.94-6.32-6.82,0-4.43,6-8,13.37-8S363.07,126.59,363.07,131Z"/></g></svg>