<svg xmlns="http://www.w3.org/2000/svg" viewBox="0 0 449 449"><defs><style>.cls-1{fill:#fff;}.cls-2{fill:#bf6500;}.cls-3{fill:#fbb03b;}.cls-4{fill:#754c24;}.cls-5{fill:#42210b;}.cls-6{fill:red;}.cls-7{opacity:0.3;}.cls-8{opacity:0.4;}</style></defs><title>logo</title><g id="bg"><rect class="cls-1" width="449" height="449"/></g><g id="Layer_1" data-name="Layer 1"><rect class="cls-2" x="139" y="335" width="51" height="51"/><rect class="cls-3" x="190" y="335" width="51" height="51"/><rect class="cls-3" x="241" y="335" width="51" height="51"/><rect class="cls-3" x="292" y="335" width="51" height="51"/><rect class="cls-4" x="190" y="335" width="51" height="51"/><rect class="cls-3" x="241" y="335" width="51" height="51"/><rect class="cls-3" x="292" y="335" width="51" height="51"/><rect class="cls-5" x="241" y="335" width="51" height="51"/><rect class="cls-6" x="292" y="335" width="51" height="51"/><rect class="cls-4" x="194.97" y="166.33" width="36.65" height="45.71"/><rect class="cls-5" x="231.83" y="166.54" width="36.65" height="45.71"/><rect class="cls-4" x="268.49" y="166.54" width="36.65" height="45.71"/><rect class="cls-5" x="305.14" y="166.54" width="36.65" height="45.71"/><rect class="cls-5" x="194.97" y="212.46" width="36.65" height="45.71"/><rect class="cls-4" x="231.83" y="212.25" width="36.65" height="45.71"/><rect class="cls-5" x="268.49" y="212.25" width="36.65" height="45.71"/><rect class="cls-4" x="305.14" y="212.25" width="36.65" height="45.71"/><path class="cls-2" d="M149.05,186.72s-.41,9.06,2.47,12.77,2.88,12.77,2.88,12.77-13.18-14.41-20.59.41c0,0-5.77,16.89-7,23.89l-1.24,1.24-2.06-2.06-.82-6.18-2.47-5.77-2.47-1.24-2.47,2.06-.82,2.06.82,1.24,1.65-.41,1.24.82,1.24,3.29s.41,14,7.41,16.89,16.89-10.71,16.89-10.71,11.53,30.48,27.18,0a103.69,103.69,0,0,0,7-33.77s17.71.41,11.12-21.42-27.59-15.24-27.59-15.24S150.29,169.83,149.05,186.72Z"/><circle class="cls-1" cx="168" cy="178.48" r="9.47"/><path d="M168,188.78a10.3,10.3,0,1,1,10.3-10.3A10.31,10.31,0,0,1,168,188.78Zm0-18.94a8.65,8.65,0,1,0,8.65,8.65A8.66,8.66,0,0,0,168,169.83Z"/><ellipse class="cls-1" cx="185.29" cy="176.84" rx="4.94" ry="8.65"/><path class="cls-1" d="M185.29,185.69c-2.84,0-5.15-4-5.15-8.85s2.31-8.85,5.15-8.85,5.15,4,5.15,8.85S188.13,185.69,185.29,185.69Zm0-17.3c-2.61,0-4.74,3.79-4.74,8.44s2.12,8.44,4.74,8.44,4.74-3.79,4.74-8.44S187.91,168.39,185.29,168.39Z"/><path class="cls-6" d="M163.67,192.69s.41,24.3,8.24,9.88C171.91,202.58,164.5,197.63,163.67,192.69Z"/><g class="cls-7"><path d="M161.41,167.36s-10.52,9.92-7.41,28,1.86,28.27.41,28c0,0,1.65-11.12-2.06-21S144.93,175.6,161.41,167.36Z"/></g><g class="cls-7"><path d="M125.61,237.76s0,0,0,0c2.85-.8,3.43-3,7.38-14.39,3.71-10.71,4.94-14,11.53-16.89,0,0-11.28-1.24-15.11,20C129.41,226.46,128.06,235.25,125.61,237.76Z"/></g><g class="cls-8"><path d="M165.53,196.19s.41,9.88,2.88,10.3l-.82.82-2.88-2.88-1.24-10.3Z"/></g><path d="M154.59,226.22l-1.61-.33c0-.14,2.88-14.34-2-25-6.18-13.52-.74-25.34,3-29.71,2.5-2.92,11.85-9.17,24.86-3.09,8.65,4,13.64,17.38,12.17,26.18-1,5.86-4.52,9.41-10,10a18.14,18.14,0,0,1-8.72-1c-1.21,2.62-2.43,4.17-3.63,4.61a1.8,1.8,0,0,1-1.05.08,3,3,0,0,1-2.09-1c-3.27-3.43-2.79-15.39-2.72-16.74l1.64-.05c.06.57,1.76,14,16.39,12.45,5.94-.63,7.91-5,8.51-8.62,1.68-10-4.67-21.34-11.24-24.41-12-5.61-20.79.2-22.91,2.67a25.2,25.2,0,0,0-4.66,9.75,27.26,27.26,0,0,0,1.91,18.2C157.59,211.36,154.72,225.62,154.59,226.22Zm9.9-30.62c.16,4,.74,8.58,2.27,10.19a1.38,1.38,0,0,0,1,.5H168l.07,0c.19,0,1.24-.42,2.79-3.79A15.11,15.11,0,0,1,164.5,195.59Z"/><path d="M129,249.74a6.9,6.9,0,0,1-1.81-.24c-6-1.64-7.53-11-7.59-11.38v-.07c-.29-4.1-1.28-8.93-2.37-9.59a.17.17,0,0,0-.19,0,2.41,2.41,0,0,1-2.62-.07c-1-.87-.64-2.61-.56-2.95l0-.09,0-.09c1.39-2.66,2.82-3.85,4.39-3.65,3.31.43,5.06,7.39,5.38,8.79v.05c.87,5.38,1.68,6.43,1.92,6.63.51-.36,1.35-2.47,1.82-4.59,2.4-14.78,5.56-19.84,5.88-20.31,2.38-4.12,5.35-6.37,8.81-6.69,6.72-.63,12.74,6.29,13,6.59l-1.25,1.07c-.06-.07-5.72-6.58-11.6-6-2.9.27-5.44,2.26-7.54,5.9l0,.05s-3.23,4.91-5.63,19.7v0c-.49,2.22-1.58,5.94-3.44,5.94h0c-1.14,0-2.35-1-3.49-8-.69-3-2.38-7.29-4-7.49-.76-.09-1.7.85-2.67,2.68a1.88,1.88,0,0,0,0,1.21s.29.07.91-.19a1.81,1.81,0,0,1,1.7.12c2.35,1.43,3,9.19,3.15,10.84.09.56,1.53,8.7,6.39,10,3.81,1,9.07-2.44,15.21-10l1.28,1C138.31,246.11,133.23,249.74,129,249.74Z"/><path d="M156.67,252c-6.65,0-11.61-5.63-14.34-16.27a75.54,75.54,0,0,1-2.14-15.84l1.65,0c0,.3.57,30.49,14.83,30.49,7.9,0,12.72-9.44,15.38-17.36a108.22,108.22,0,0,0,4.91-29.5l1.65,0a110,110,0,0,1-5,30C169.55,245.6,163.7,252,156.67,252Z"/><path d="M171.09,178.69c0,2.27-1.47,4.12-3.29,4.12s-3.29-1.85-3.29-4.12a3.84,3.84,0,0,1,.41-1.65,1.69,1.69,0,1,0,1.65-2.06,2.63,2.63,0,0,1,1.24-.41C169.61,174.57,171.09,176.41,171.09,178.69Z"/><path d="M167.79,183c-1.93,0-3.5-1.94-3.5-4.32,0-.38.27-1.87.61-1.87h.21V177a1.49,1.49,0,1,0,1.44-1.85h-.21V175c0-.31,1.13-.61,1.45-.61,1.93,0,3.5,1.94,3.5,4.32S169.72,183,167.79,183Zm-3-5.16a3.55,3.55,0,0,0-.12.84c0,2.16,1.39,3.91,3.09,3.91s3.09-1.76,3.09-3.91-1.39-3.91-3.09-3.91a2,2,0,0,0-.61.13,2.29,2.29,0,0,1,1.23,2.13,2.09,2.09,0,0,1-1.85,2.27A1.91,1.91,0,0,1,164.83,177.85Z"/><path d="M188.18,176.53c0,2-1.2,3.6-2.68,3.6s-2.68-1.61-2.68-3.6a3.56,3.56,0,0,1,.33-1.44c0,1,.6,1.8,1.34,1.8s1.34-.81,1.34-1.8-.6-1.8-1.34-1.8a2,2,0,0,1,1-.36C187,172.92,188.18,174.54,188.18,176.53Z"/><path d="M185.5,180.34c-1.59,0-2.88-1.71-2.88-3.81,0-.18.18-1.66.54-1.66h.21v.22c0,.88.51,1.6,1.13,1.6s1.13-.72,1.13-1.6-.51-1.6-1.13-1.6h-.21v-.21c0-.29.94-.56,1.21-.56,1.59,0,2.88,1.71,2.88,3.81S187.09,180.34,185.5,180.34Zm-2.4-4.4a3,3,0,0,0-.07.59c0,1.87,1.11,3.4,2.47,3.4s2.47-1.52,2.47-3.4-1.11-3.4-2.47-3.4a1.36,1.36,0,0,0-.43.09,2.08,2.08,0,0,1,1,1.86,1.82,1.82,0,0,1-1.54,2A1.58,1.58,0,0,1,183.1,175.94Z"/><path d="M342,258.17H194.94V166.33H342Zm-146.65-.41H341.59v-91H195.35Z"/><rect x="195.15" y="212.05" width="146.65" height="0.41"/><rect x="304.93" y="166.54" width="0.41" height="91.43"/><rect x="268.26" y="166.54" width="0.41" height="91.43"/><rect x="231.6" y="166.54" width="0.41" height="91.43"/><path class="cls-1" d="M214,200.42h-7.64a3.25,3.25,0,0,1-2.36-.71,3.11,3.11,0,0,1-.71-2.27v-18a3.05,3.05,0,0,1,.72-2.28,3.31,3.31,0,0,1,2.35-.7h8.1a19.73,19.73,0,0,1,3.1.21,6.81,6.81,0,0,1,2.35.82,6.12,6.12,0,0,1,1.57,1.28,5.62,5.62,0,0,1,1,1.72,5.54,5.54,0,0,1,.36,2q0,3.6-3.75,5.27,4.93,1.51,4.93,5.86a6.42,6.42,0,0,1-4,6,10.65,10.65,0,0,1-2.63.65A27.9,27.9,0,0,1,214,200.42Zm-5.65-20.33v6.2H213a9.69,9.69,0,0,0,2.93-.34,2.76,2.76,0,0,0,1.58-1.31,2.86,2.86,0,0,0,.43-1.54,2.37,2.37,0,0,0-1.35-2.41,10.7,10.7,0,0,0-4.11-.6Zm5.27,9.68h-5.27v7h5.44q5.13,0,5.13-3.55a2.86,2.86,0,0,0-1.33-2.63A7.72,7.72,0,0,0,213.66,189.78Z"/><path class="cls-1" d="M249.67,176a13.82,13.82,0,0,1,6.68,1.51,10,10,0,0,1,4.22,4.3A14.15,14.15,0,0,1,262,188.4a15.43,15.43,0,0,1-.78,5.05,10.84,10.84,0,0,1-2.35,3.94,10.31,10.31,0,0,1-3.86,2.55,15.81,15.81,0,0,1-10.49,0,10.43,10.43,0,0,1-3.87-2.56,10.83,10.83,0,0,1-2.35-4,15.45,15.45,0,0,1-.79-5,14.92,14.92,0,0,1,.83-5.07,10.79,10.79,0,0,1,2.4-3.93,10.39,10.39,0,0,1,3.82-2.48A14.28,14.28,0,0,1,249.67,176Zm7.2,12.33a10.85,10.85,0,0,0-.89-4.56,6.43,6.43,0,0,0-2.53-2.92,7.19,7.19,0,0,0-3.78-1,7.09,7.09,0,0,0-2.81.55,6.15,6.15,0,0,0-2.22,1.59,7.52,7.52,0,0,0-1.47,2.67,11.62,11.62,0,0,0-.54,3.66,11.91,11.91,0,0,0,.54,3.7,7.49,7.49,0,0,0,1.52,2.74,6.36,6.36,0,0,0,2.25,1.63,7.38,7.38,0,0,0,6.36-.39,6.54,6.54,0,0,0,2.59-2.88A10.74,10.74,0,0,0,256.86,188.37Z"/><path class="cls-1" d="M286.35,176a13.82,13.82,0,0,1,6.68,1.51,10,10,0,0,1,4.22,4.3,14.15,14.15,0,0,1,1.43,6.55,15.43,15.43,0,0,1-.78,5.05,10.84,10.84,0,0,1-2.35,3.94,10.31,10.31,0,0,1-3.86,2.55,15.81,15.81,0,0,1-10.49,0,10.43,10.43,0,0,1-3.87-2.56,10.83,10.83,0,0,1-2.35-4,15.45,15.45,0,0,1-.79-5,14.92,14.92,0,0,1,.83-5.07,10.79,10.79,0,0,1,2.4-3.93,10.39,10.39,0,0,1,3.82-2.48A14.28,14.28,0,0,1,286.35,176Zm7.2,12.33a10.85,10.85,0,0,0-.89-4.56,6.43,6.43,0,0,0-2.53-2.92,7.19,7.19,0,0,0-3.78-1,7.09,7.09,0,0,0-2.81.55,6.15,6.15,0,0,0-2.22,1.59,7.52,7.52,0,0,0-1.47,2.67,11.62,11.62,0,0,0-.54,3.66,11.91,11.91,0,0,0,.54,3.7,7.49,7.49,0,0,0,1.52,2.74,6.36,6.36,0,0,0,2.25,1.63A7.38,7.38,0,0,0,290,196a6.54,6.54,0,0,0,2.59-2.88A10.74,10.74,0,0,0,293.54,188.37Z"/><path class="cls-1" d="M317.69,179v8.41l9.95-9.94a9,9,0,0,1,1.22-1.06,2.34,2.34,0,0,1,1.34-.34,2.52,2.52,0,0,1,1.77.61,2,2,0,0,1,.67,1.5,2.94,2.94,0,0,1-1.14,2.11l-6.16,5.59,7.1,9.75a12.16,12.16,0,0,1,1.13,1.77,3.34,3.34,0,0,1,.38,1.48,1.81,1.81,0,0,1-.66,1.39,2.57,2.57,0,0,1-1.78.59,3.11,3.11,0,0,1-1.72-.43,3.79,3.79,0,0,1-1.13-1.15q-.46-.72-.82-1.31l-6-8.83-4.14,3.81v5a3.07,3.07,0,0,1-.72,2.23,2.47,2.47,0,0,1-1.84.73,2.56,2.56,0,0,1-1.25-.33,2.34,2.34,0,0,1-.92-.88,2.78,2.78,0,0,1-.29-1.06q-.05-.6-.05-1.75V179a3.17,3.17,0,0,1,.67-2.21,2.36,2.36,0,0,1,1.83-.74,2.47,2.47,0,0,1,1.85.73A3.07,3.07,0,0,1,317.69,179Z"/><path d="M217.38,242.59l-4-14.38-4.09,14.38q-.48,1.64-.76,2.35a3.12,3.12,0,0,1-1,1.28,2.87,2.87,0,0,1-1.86.56,3.17,3.17,0,0,1-1.54-.34,2.63,2.63,0,0,1-1-.95,5.83,5.83,0,0,1-.61-1.46q-.24-.84-.43-1.56l-4.16-16.14a9.07,9.07,0,0,1-.38-2.14,2.06,2.06,0,0,1,.68-1.57,2.38,2.38,0,0,1,1.69-.64,1.94,1.94,0,0,1,1.86.85,9.34,9.34,0,0,1,.84,2.47l3.28,14,3.67-13.1a20.37,20.37,0,0,1,.73-2.29,3.31,3.31,0,0,1,1.06-1.36,3.16,3.16,0,0,1,2-.57,3,3,0,0,1,2,.6,3.27,3.27,0,0,1,1,1.3q.27.7.73,2.32l3.7,13.1,3.28-14a16.05,16.05,0,0,1,.45-1.72,2.74,2.74,0,0,1,.73-1.11,2.12,2.12,0,0,1,1.51-.49,2.41,2.41,0,0,1,1.68.63,2,2,0,0,1,.69,1.58,9.87,9.87,0,0,1-.38,2.14l-4.16,16.14q-.43,1.64-.71,2.4a3.19,3.19,0,0,1-1,1.33,2.85,2.85,0,0,1-1.9.57,2.9,2.9,0,0,1-1.86-.56,3,3,0,0,1-1-1.25Q217.87,244.28,217.38,242.59Z"/><path d="M249.67,222a13.82,13.82,0,0,1,6.68,1.51,10,10,0,0,1,4.22,4.3,14.15,14.15,0,0,1,1.43,6.55,15.43,15.43,0,0,1-.78,5.05,10.84,10.84,0,0,1-2.35,3.94A10.31,10.31,0,0,1,255,245.9a15.81,15.81,0,0,1-10.49,0,10.43,10.43,0,0,1-3.87-2.56,10.83,10.83,0,0,1-2.35-4,15.45,15.45,0,0,1-.79-5,14.92,14.92,0,0,1,.83-5.07,10.79,10.79,0,0,1,2.4-3.93,10.39,10.39,0,0,1,3.82-2.48A14.28,14.28,0,0,1,249.67,222Zm7.2,12.33a10.85,10.85,0,0,0-.89-4.56,6.43,6.43,0,0,0-2.53-2.92,7.19,7.19,0,0,0-3.78-1,7.09,7.09,0,0,0-2.81.55,6.15,6.15,0,0,0-2.22,1.59,7.52,7.52,0,0,0-1.47,2.67,11.62,11.62,0,0,0-.54,3.66,11.91,11.91,0,0,0,.54,3.7,7.49,7.49,0,0,0,1.52,2.74,6.36,6.36,0,0,0,2.25,1.63,7.38,7.38,0,0,0,6.36-.39,6.54,6.54,0,0,0,2.59-2.88A10.74,10.74,0,0,0,256.86,234.32Z"/><path d="M283.8,236.12H282v7.7a3.11,3.11,0,0,1-.7,2.24,2.43,2.43,0,0,1-1.83.72,2.37,2.37,0,0,1-1.88-.75,3.24,3.24,0,0,1-.67-2.21V225.37a3,3,0,0,1,.73-2.27,3.35,3.35,0,0,1,2.37-.7h8.24a26.14,26.14,0,0,1,2.92.14,7.59,7.59,0,0,1,2.18.56,6.34,6.34,0,0,1,2.08,1.36,5.92,5.92,0,0,1,1.37,2.05,6.6,6.6,0,0,1,.47,2.48,5.84,5.84,0,0,1-1.58,4.29,9.21,9.21,0,0,1-4.79,2.27,9.19,9.19,0,0,1,2.58,2,20.63,20.63,0,0,1,2.19,2.85,20.91,20.91,0,0,1,1.5,2.73,5.23,5.23,0,0,1,.54,1.68,1.66,1.66,0,0,1-.32.94,2.18,2.18,0,0,1-.86.74,2.81,2.81,0,0,1-1.26.27,2.54,2.54,0,0,1-1.43-.38,3.77,3.77,0,0,1-1-1q-.42-.59-1.13-1.73l-2-3.24a17.85,17.85,0,0,0-2-2.72,4.81,4.81,0,0,0-1.75-1.28A6.25,6.25,0,0,0,283.8,236.12ZM286.7,226H282v6.59h4.54a13.23,13.23,0,0,0,3.07-.3,3.64,3.64,0,0,0,1.9-1,2.88,2.88,0,0,0,.66-2,3,3,0,0,0-.53-1.76,3.17,3.17,0,0,0-1.47-1.14A11,11,0,0,0,286.7,226Z"/><path d="M320.21,242.76l-4-15.28V244a2.93,2.93,0,0,1-.64,2.06,2.42,2.42,0,0,1-3.37,0,2.9,2.9,0,0,1-.65-2.07v-19a2.33,2.33,0,0,1,.85-2.12,4.22,4.22,0,0,1,2.3-.55h1.57a6.23,6.23,0,0,1,2.06.25,1.7,1.7,0,0,1,.95.88,13.37,13.37,0,0,1,.7,2.08l3.63,13.13,3.63-13.13a13.32,13.32,0,0,1,.7-2.08,1.7,1.7,0,0,1,.95-.88,6.23,6.23,0,0,1,2.06-.25h1.57a4.22,4.22,0,0,1,2.3.55,2.33,2.33,0,0,1,.85,2.12v19a2.93,2.93,0,0,1-.64,2.06,2.23,2.23,0,0,1-1.71.69,2.18,2.18,0,0,1-1.66-.69A2.9,2.9,0,0,1,331,244V227.48l-4,15.28q-.39,1.49-.64,2.18a3,3,0,0,1-.91,1.27,2.73,2.73,0,0,1-1.84.57,2.87,2.87,0,0,1-1.5-.37,2.7,2.7,0,0,1-1-.94,5.22,5.22,0,0,1-.54-1.27Z"/><path d="M167.79,188.57a10.3,10.3,0,1,1,10.3-10.3A10.31,10.31,0,0,1,167.79,188.57Zm0-18.94a8.65,8.65,0,1,0,8.65,8.65A8.66,8.66,0,0,0,167.79,169.63Z"/><path d="M185.9,186.09c-3.11,0-5.79-3.9-6.15-9.06s1.86-9.63,5.09-9.85,6,3.75,6.41,9h0c.37,5.3-1.86,9.63-5.09,9.85Zm-.8-17.27H185c-2.23.16-3.86,3.86-3.56,8.09s2.43,7.68,4.66,7.52,3.86-3.86,3.56-8.09S187.27,168.82,185.1,168.82Z"/><path d="M177.79,177.85l-1.07-1.25a3.48,3.48,0,0,1,4.33-.21l-1,1.32A1.85,1.85,0,0,0,177.79,177.85Z"/></g></svg>