<svg xmlns="http://www.w3.org/2000/svg" xmlns:xlink="http://www.w3.org/1999/xlink" viewBox="0 0 449 449"><defs><style>.cls-1{fill:#fff;}.cls-2{fill:#847a79;}.cls-3{fill:#fbb03b;}.cls-4{fill:#666;}.cls-5{fill:#4d4d4d;}.cls-10,.cls-20,.cls-6{fill:#f15a24;}.cls-7{fill:#008c93;}.cls-8{fill:url(#linear-gradient);}.cls-9{fill:#ccc;}.cls-10{font-size:47.68px;font-family:MarkerFelt-Wide, Marker Felt;}.cls-11{letter-spacing:0.03em;}.cls-12{letter-spacing:0.04em;}.cls-13{letter-spacing:0.03em;}.cls-14{letter-spacing:0.04em;}.cls-15{letter-spacing:0.05em;}.cls-16,.cls-21{fill:none;stroke-miterlimit:10;}.cls-16{stroke:#f15a24;stroke-width:0.25px;}.cls-17{fill:#b3b3b3;}.cls-18{fill:#999;}.cls-19{fill:#333;}.cls-20{font-size:10.57px;font-family:HoboStd, Hobo Std;}.cls-21{stroke:#fff;stroke-linecap:round;stroke-width:6px;}</style><linearGradient id="linear-gradient" x1="142.75" y1="162.29" x2="142.75" y2="267.24" gradientUnits="userSpaceOnUse"><stop offset="0" stop-color="#0083ba"/><stop offset="0.02" stop-color="#0882b4"/><stop offset="0.17" stop-color="#417885"/><stop offset="0.32" stop-color="#72705c"/><stop offset="0.47" stop-color="#9a6a3b"/><stop offset="0.61" stop-color="#b96521"/><stop offset="0.75" stop-color="#cf610f"/><stop offset="0.88" stop-color="#dc5f04"/><stop offset="1" stop-color="#e15e00"/></linearGradient></defs><title>logo</title><g id="bg"><rect class="cls-1" width="449" height="449"/></g><g id="Layer_1" data-name="Layer 1"><rect class="cls-2" x="108" y="333" width="51" height="51"/><rect class="cls-3" x="159" y="333" width="51" height="51"/><rect class="cls-3" x="210" y="333" width="51" height="51"/><rect class="cls-3" x="261" y="333" width="51" height="51"/><rect class="cls-4" x="159" y="333" width="51" height="51"/><rect class="cls-3" x="210" y="333" width="51" height="51"/><rect class="cls-3" x="261" y="333" width="51" height="51"/><rect class="cls-3" x="312" y="333" width="51" height="51"/><rect class="cls-5" x="210" y="333" width="51" height="51"/><rect class="cls-6" x="261" y="333" width="51" height="51"/><rect class="cls-7" x="312" y="333" width="51" height="51"/><path class="cls-8" d="M142.75,264.33A50.48,50.48,0,1,1,186.1,188l.11.19v0a50.5,50.5,0,0,1-5.61,59c-.36.41-.74.83-1.16,1.27a50.34,50.34,0,0,1-36.71,15.83Z"/><path d="M142.75,165.65a48.17,48.17,0,0,1,41.42,23.54l.11.18a48.23,48.23,0,0,1-5.36,56.35q-.55.62-1.11,1.22a48.2,48.2,0,1,1-35.06-81.28m0-4.55a52.76,52.76,0,1,0,38.37,89c.44-.46.84-.9,1.22-1.34a52.77,52.77,0,0,0,5.86-61.66l0,0-.13-.21a52.72,52.72,0,0,0-45.29-25.7Z"/><path class="cls-9" d="M126.68,224.18h0v0Z"/><path class="cls-5" d="M126.68,224.18h0v0Z"/><path d="M191.14,217.1a48,48,0,0,1-12,31.86q-.55.62-1.11,1.22L177,249V249c-1.22-1.53-2-2.68-2-2.68S162,241.36,156,238a20.33,20.33,0,0,1-3.18,1.5,38.14,38.14,0,0,1-29.27,8.18c-.64-.09-1.27-.19-1.9-.31l-.2-.3a22.93,22.93,0,0,1-3.5-10.19l-.15-.1a35.61,35.61,0,0,1-16-29.76v-.32a20.94,20.94,0,0,0,17.29,20.5,20,20,0,0,0,3.67.33,18.14,18.14,0,0,0,2-.1v0h0l0,0A21.67,21.67,0,0,1,123,220.1c0-.41,0-.83,0-1.25a21.66,21.66,0,0,1,.18-2.76l.09.24.1.24,0,.1.08.18a6.34,6.34,0,0,0,.34.62l.12.18.17.25.06.08c.11.15.23.29.35.43a7.14,7.14,0,0,0,12.5-4.7s0-.08,0-.11,0-.12,0-.18,0-.09,0-.14,0,0,0-.07,0-.14,0-.21,0-.1,0-.15v0l0-.17,0-.15q0-.11,0-.21c0-.07,0-.13,0-.2s0-.15-.06-.22,0,0,0-.06v0c0-.14-.15-.45-.31-.88-.76-2.07-2.55-7-2.55-10.12,0-.34,0-.68,0-1a18.82,18.82,0,0,0,9.1,7.71,33.81,33.81,0,0,1,1.58-6.7,22.06,22.06,0,0,0,5.35,3.57c.35.18.72.37,1.12.6a81.64,81.64,0,0,1,29.21-12.19l.33-.06h0l.48-.06h0c1.19-.14,2.42-.18,3.21-.2l.11.18A48,48,0,0,1,191.14,217.1Z"/><path class="cls-4" d="M141.79,230.11a6.3,6.3,0,0,1-.73.61l-.22.16v-.23a2.22,2.22,0,0,0,.3-2.54c-.15-.29-.32-.53-.44-.78l0-.85.08.16a3.59,3.59,0,0,0,.87,1.18A2.41,2.41,0,0,1,141.79,230.11Z"/><text class="cls-10" transform="translate(206.41 230.51)"><tspan class="cls-11">W</tspan><tspan class="cls-12" x="43.53" y="0">i</tspan><tspan x="57.02" y="0">l</tspan><tspan class="cls-13" x="67.99" y="0">d</tspan><tspan class="cls-14" x="94.83" y="0">l</tspan><tspan class="cls-15" x="107.95" y="0">i</tspan><tspan x="122.01" y="0">fe</tspan></text><path class="cls-16" d="M155.58,235.57c-.28.24-.54.46-.83.69a20,20,0,0,1-2.32.73A33.26,33.26,0,0,0,155.58,235.57Z"/><path class="cls-2" d="M190.95,213.85a48,48,0,0,1-12,31.86c-1.23-1.53-2.06-2.69-2.06-2.69s-12.9-4.91-18.93-8.26a20.33,20.33,0,0,1-3.18,1.5,38.14,38.14,0,0,1-29.27,8.18c-.64-.09-1.27-.19-1.9-.31l-.2-.3a22.93,22.93,0,0,1-3.5-10.19l-.15-.1a35.61,35.61,0,0,1-16-29.76v-.32A20.94,20.94,0,0,0,121,224a20,20,0,0,0,3.67.33,18.14,18.14,0,0,0,2-.1v0h0s-1.44-7.19-.83-9c.93,2,3,4.5,7.52,3.67,6.26-1.15,6.28-6.28,6.16-7.68a4.22,4.22,0,0,0-.42-2.65c-.75-1.32-2.43-9.68-2.48-9.94,1.92,3.82,9.37,7.26,9.37,7.26-.38-.77.57-7.46.57-7.46,1.72,1.72,7.46,5.16,7.46,5.16,5.74-5.55,31.3-12.27,31.3-12.27A48,48,0,0,1,190.95,213.85Z"/><circle cx="139.41" cy="228.75" r="0.89"/><ellipse cx="126.03" cy="240.34" rx="1.78" ry="0.89"/><path d="M147.43,201.1s0,5.35,1.78,7.13,4.46,0,3.57-2.68S147.43,201.1,147.43,201.1Z"/><path d="M141.63,229.21a2.41,2.41,0,0,1-.57,1.51,2.84,2.84,0,0,1-.29.3c-.11.09-.26-.06-.15-.16a2.26,2.26,0,0,0,.21-.22,2.22,2.22,0,0,0,.3-2.54c-.15-.29-.32-.53-.44-.78a1.5,1.5,0,0,1-.16-.88c0-.14.24-.14.22,0a1.52,1.52,0,0,0,0,.18C140.74,227.54,141.65,228.24,141.63,229.21Z"/><path d="M137.84,227.84a3.6,3.6,0,0,0-.17,1.84,2,2,0,0,0,1,1.15c.12.07.24-.12.11-.19a1.78,1.78,0,0,1-.92-1.18,3.86,3.86,0,0,1,.21-1.57c0-.14-.19-.2-.21-.06Z"/><path class="cls-9" d="M126.68,224.18c-1,7.84-6.89,9.37-6.89,9.37h-.05a35.61,35.61,0,0,1-16-29.76v-.32A20.94,20.94,0,0,0,121,224a20,20,0,0,0,3.67.33,18.14,18.14,0,0,0,2-.1l0-.06Z"/><path class="cls-17" d="M103.81,205.16c0-.16,0-.32-.07-.47s0-.6,0-.9v-.32Q103.74,204.32,103.81,205.16Z"/><path class="cls-18" d="M122.5,232.12a8.37,8.37,0,0,1-2.7,1.44h-.05a35.6,35.6,0,0,1-16-28.44,35.61,35.61,0,0,0,18,27.31h.05A5.32,5.32,0,0,0,122.5,232.12Z"/><path class="cls-17" d="M103.76,205.1c0-.4-.08-.81-.11-1.21l0-.32q0,.56.12,1.12C103.75,204.82,103.75,205,103.76,205.1Z"/><path class="cls-5" d="M126.11,214.74c.11.15.23.29.35.43C126.33,215,126.22,214.88,126.11,214.74Z"/><path class="cls-4" d="M159.77,232s7.65-16.64,6.69-24.48C166.47,207.54,172.2,219.78,159.77,232Z"/><path class="cls-19" d="M141.86,230.78a2.49,2.49,0,0,1-4.94-.38,2.87,2.87,0,0,0,4.94.38Z"/><path class="cls-5" d="M185.33,191.25S159.77,198,154,203.52c0,0-5.55-3.25-7.27-5,0,0-1.15,6.5-.77,7.27,0,0-7.45-3.44-9.37-7.26.05.26,1.91,7.65,2.48,9.37a11.91,11.91,0,0,1,.57,3.44c.11,1.4,0,6.31-6.31,7.46-4.52.83-6.6-1.66-7.52-3.67-.61,1.83.83,9,.83,9h0v0a21.67,21.67,0,0,1-1.69-7.29c0-.41,0-.83,0-1.25a21.66,21.66,0,0,1,.18-2.76l.09.24.1.24,0,.1.08.18a6.34,6.34,0,0,0,.34.62l.12.18.17.25.06.08c.11.15.23.29.35.43a7.14,7.14,0,0,0,12.5-4.7s0-.08,0-.11,0-.12,0-.18,0-.09,0-.14,0,0,0-.07,0-.14,0-.21,0-.1,0-.15v0l0-.17,0-.15q0-.11,0-.21c0-.07,0-.13,0-.2s0-.15-.06-.22,0,0,0-.06v0c0-.14-.15-.45-.31-.88-.76-2.07-2.55-7-2.55-10.12,0-.34,0-.68,0-1a18.82,18.82,0,0,0,9.1,7.71,33.81,33.81,0,0,1,1.58-6.7,22.06,22.06,0,0,0,5.35,3.57c.35.18.72.37,1.12.6a81.64,81.64,0,0,1,29.21-12.19,7.86,7.86,0,0,1,2.06-.14q.55.92,1,1.87Z"/><path class="cls-5" d="M131.45,241.59a45.73,45.73,0,0,1-6,2.85c-.64-.09-1.27-.19-1.9-.31l-.2-.3A36.56,36.56,0,0,0,131.45,241.59Z"/><text class="cls-20" transform="translate(341.12 179.06)">TM</text><path class="cls-21" d="M113,222.77a18.9,18.9,0,0,0,8.11,2.75"/></g></svg>