<?xml version="1.0" encoding="utf-8"?>
<!-- Generator: Adobe Illustrator 21.0.2, SVG Export Plug-In . SVG Version: 6.00 Build 0)  -->
<svg version="1.1" xmlns="http://www.w3.org/2000/svg" xmlns:xlink="http://www.w3.org/1999/xlink" x="0px" y="0px"
	 viewBox="0 0 49 49" style="enable-background:new 0 0 49 49;" xml:space="preserve">
<style type="text/css">
	.st0{fill:#FFFFFF;}
	.st1{fill:none;stroke:#000000;stroke-width:0.5;stroke-miterlimit:10;}
	.st2{fill:#34363A;}
	.st3{fill:#63AA29;}
	.st4{fill:#DCA031;}
	.st5{fill:#DB413E;}
	.st6{fill:#EDECE8;}
	.st7{opacity:0.3;fill:#070606;}
	.st8{fill:none;stroke:#278A2A;stroke-width:0.25;stroke-miterlimit:10;}
	.st9{fill:#BBC1C5;}
	.st10{fill:#32354C;}
	.st11{opacity:0.3;}
	.st12{fill:#070606;}
	.st13{fill:#999189;}
	.st14{fill:#9F978F;}
	.st15{fill:#DEDBD4;}
	.st16{fill:#B8B3AA;}
	.st17{fill:#6E6160;}
	.st18{opacity:0.7;}
	.st19{opacity:0.29;fill:#00A99D;}
	.st20{fill:#E5E3DE;}
	.st21{fill:#F6F6F5;}
	.st22{fill:#D8D7D1;}
	.st23{fill:#564D4C;}
	.st24{fill:#E3E1DB;}
	.st25{fill:#5880BA;}
	.st26{opacity:0.9;}
	.st27{fill:#999999;}
	.st28{fill:#333333;}
	.st29{fill:#808080;}
	.st30{fill:#666666;}
	.st31{fill:#CCCCCC;}
	.st32{fill:none;stroke:#808080;stroke-width:10;stroke-miterlimit:10;}
	.st33{opacity:0.38;fill:#FFFF00;}
	.st34{opacity:0.38;fill:#F15A24;}
	.st35{fill:#E6E6E6;}
	.st36{fill:#4D4D4D;}
	.st37{fill:#EB8300;}
	.st38{fill:none;stroke:#808080;stroke-width:0.75;stroke-miterlimit:10;}
	.st39{fill:#F53855;}
	.st40{fill:#46B29D;}
	.st41{fill:#E37B40;}
	.st42{fill:#324D5C;}
	.st43{fill:#754C24;}
	.st44{fill:#42210B;}
	.st45{fill:#BF6500;}
	.st46{fill:#FF0000;}
	.st47{opacity:0.4;}
	.st48{fill:#B17124;}
	.st49{fill:#DD9C34;}
	.st50{fill:#EAB55A;}
	.st51{fill:#D3882B;}
	.st52{fill:#FBB75B;}
	.st53{fill:#C90D07;}
	.st54{opacity:0.25;}
	.st55{fill:#212121;}
	.st56{fill:#EEEEEE;}
	.st57{fill:#757576;}
	.st58{fill:#E0E0E0;}
	.st59{fill:#BDBDBD;}
	.st60{fill:#FAFBFB;}
	.st61{opacity:0.61;fill:#B3B3B3;}
	.st62{fill:#F2F2F2;}
	.st63{fill:#1A1A1A;}
	.st64{fill:#00A99D;}
	.st65{clip-path:url(#SVGID_2_);fill:#00F3F1;}
	.st66{clip-path:url(#SVGID_2_);fill:#00F2F0;}
	.st67{clip-path:url(#SVGID_2_);fill:#00F1EF;}
	.st68{clip-path:url(#SVGID_2_);fill:#00F0EE;}
	.st69{clip-path:url(#SVGID_2_);fill:#00EFED;}
	.st70{clip-path:url(#SVGID_2_);fill:#00EEEC;}
	.st71{clip-path:url(#SVGID_2_);fill:#00EDEB;}
	.st72{clip-path:url(#SVGID_2_);fill:#00ECEA;}
	.st73{clip-path:url(#SVGID_2_);fill:#00EBE9;}
	.st74{clip-path:url(#SVGID_2_);fill:#00EBE8;}
	.st75{clip-path:url(#SVGID_2_);fill:#00EAE7;}
	.st76{clip-path:url(#SVGID_2_);fill:#00E9E6;}
	.st77{clip-path:url(#SVGID_2_);fill:#00E8E5;}
	.st78{clip-path:url(#SVGID_2_);fill:#00E7E4;}
	.st79{clip-path:url(#SVGID_2_);fill:#00E6E3;}
	.st80{clip-path:url(#SVGID_2_);fill:#00E5E2;}
	.st81{clip-path:url(#SVGID_2_);fill:#00E4E1;}
	.st82{clip-path:url(#SVGID_2_);fill:#00E4E0;}
	.st83{clip-path:url(#SVGID_2_);fill:#00E3DF;}
	.st84{clip-path:url(#SVGID_2_);fill:#00E2DE;}
	.st85{clip-path:url(#SVGID_2_);fill:#00E1DD;}
	.st86{clip-path:url(#SVGID_2_);fill:#00FFFF;}
	.st87{clip-path:url(#SVGID_2_);fill:#00FEFE;}
	.st88{clip-path:url(#SVGID_2_);fill:#00FDFD;}
	.st89{clip-path:url(#SVGID_2_);fill:#00FCFC;}
	.st90{clip-path:url(#SVGID_2_);fill:#00FBFB;}
	.st91{clip-path:url(#SVGID_2_);fill:#00FBFA;}
	.st92{clip-path:url(#SVGID_2_);fill:#00FAF9;}
	.st93{clip-path:url(#SVGID_2_);fill:#00F9F8;}
	.st94{clip-path:url(#SVGID_2_);fill:#00F8F7;}
	.st95{clip-path:url(#SVGID_2_);fill:#00F7F6;}
	.st96{clip-path:url(#SVGID_2_);fill:#00F6F5;}
	.st97{clip-path:url(#SVGID_2_);fill:#00F5F4;}
	.st98{clip-path:url(#SVGID_2_);fill:#00F4F3;}
	.st99{clip-path:url(#SVGID_2_);fill:#00F3F2;}
	.st100{clip-path:url(#SVGID_2_);fill:#00E0DC;}
	.st101{clip-path:url(#SVGID_2_);fill:#00DFDB;}
	.st102{clip-path:url(#SVGID_2_);fill:#00DEDA;}
	.st103{clip-path:url(#SVGID_2_);fill:#00DDD9;}
	.st104{clip-path:url(#SVGID_2_);fill:#00DCD8;}
	.st105{clip-path:url(#SVGID_2_);fill:#00DCD7;}
	.st106{clip-path:url(#SVGID_2_);fill:#00DBD6;}
	.st107{clip-path:url(#SVGID_2_);fill:#00DAD5;}
	.st108{clip-path:url(#SVGID_2_);fill:#00D9D4;}
	.st109{clip-path:url(#SVGID_2_);fill:#00D8D3;}
	.st110{clip-path:url(#SVGID_2_);fill:#00D7D2;}
	.st111{clip-path:url(#SVGID_2_);fill:#00D6D1;}
	.st112{clip-path:url(#SVGID_2_);fill:#00D5D0;}
	.st113{clip-path:url(#SVGID_2_);fill:#00D4CF;}
	.st114{clip-path:url(#SVGID_2_);fill:#00D4CD;}
	.st115{clip-path:url(#SVGID_2_);fill:#00D3CC;}
	.st116{clip-path:url(#SVGID_2_);fill:#00D2CB;}
	.st117{clip-path:url(#SVGID_2_);fill:#00D1CA;}
	.st118{clip-path:url(#SVGID_2_);fill:#00D0C9;}
	.st119{clip-path:url(#SVGID_2_);fill:#00CFC8;}
	.st120{clip-path:url(#SVGID_2_);fill:#00CEC7;}
	.st121{clip-path:url(#SVGID_2_);fill:#00CDC6;}
	.st122{clip-path:url(#SVGID_2_);fill:#00CCC5;}
	.st123{clip-path:url(#SVGID_2_);fill:#00CCC4;}
	.st124{clip-path:url(#SVGID_2_);fill:#00CBC3;}
	.st125{clip-path:url(#SVGID_2_);fill:#00CAC2;}
	.st126{clip-path:url(#SVGID_2_);fill:#00C9C1;}
	.st127{clip-path:url(#SVGID_2_);fill:#00C8C0;}
	.st128{clip-path:url(#SVGID_2_);fill:#00C7BF;}
	.st129{clip-path:url(#SVGID_2_);fill:#00C6BE;}
	.st130{clip-path:url(#SVGID_2_);fill:#00C5BD;}
	.st131{clip-path:url(#SVGID_2_);fill:#00C4BC;}
	.st132{clip-path:url(#SVGID_2_);fill:#00C4BB;}
	.st133{clip-path:url(#SVGID_2_);fill:#00C3BA;}
	.st134{clip-path:url(#SVGID_2_);fill:#00C2B9;}
	.st135{clip-path:url(#SVGID_2_);fill:#00C1B8;}
	.st136{clip-path:url(#SVGID_2_);fill:#00C0B7;}
	.st137{clip-path:url(#SVGID_2_);fill:#00BFB6;}
	.st138{clip-path:url(#SVGID_2_);fill:#00BEB5;}
	.st139{clip-path:url(#SVGID_2_);fill:#00BDB4;}
	.st140{clip-path:url(#SVGID_2_);fill:#00BDB3;}
	.st141{clip-path:url(#SVGID_2_);fill:#00BCB2;}
	.st142{clip-path:url(#SVGID_2_);fill:#00BBB1;}
	.st143{clip-path:url(#SVGID_2_);fill:#00BAB0;}
	.st144{clip-path:url(#SVGID_4_);fill:#00DBD6;}
	.st145{clip-path:url(#SVGID_4_);fill:#00DAD5;}
	.st146{clip-path:url(#SVGID_4_);fill:#00D9D4;}
	.st147{clip-path:url(#SVGID_4_);fill:#00D8D3;}
	.st148{clip-path:url(#SVGID_4_);fill:#00D7D2;}
	.st149{clip-path:url(#SVGID_4_);fill:#00D6D1;}
	.st150{clip-path:url(#SVGID_4_);fill:#00D5D0;}
	.st151{clip-path:url(#SVGID_4_);fill:#00D4CF;}
	.st152{clip-path:url(#SVGID_4_);fill:#00D4CD;}
	.st153{clip-path:url(#SVGID_4_);fill:#00D3CC;}
	.st154{clip-path:url(#SVGID_4_);fill:#00D2CB;}
	.st155{clip-path:url(#SVGID_4_);fill:#00D1CA;}
	.st156{clip-path:url(#SVGID_4_);fill:#00D0C9;}
	.st157{clip-path:url(#SVGID_4_);fill:#00CFC8;}
	.st158{clip-path:url(#SVGID_4_);fill:#00CEC7;}
	.st159{clip-path:url(#SVGID_4_);fill:#00CDC6;}
	.st160{clip-path:url(#SVGID_4_);fill:#00CCC5;}
	.st161{clip-path:url(#SVGID_4_);fill:#00CCC4;}
	.st162{clip-path:url(#SVGID_4_);fill:#00CBC3;}
	.st163{clip-path:url(#SVGID_4_);fill:#00CAC2;}
	.st164{clip-path:url(#SVGID_4_);fill:#00C9C1;}
	.st165{clip-path:url(#SVGID_4_);fill:#00C8C0;}
	.st166{clip-path:url(#SVGID_4_);fill:#00C7BF;}
	.st167{clip-path:url(#SVGID_4_);fill:#00C6BE;}
	.st168{clip-path:url(#SVGID_4_);fill:#00C5BD;}
	.st169{clip-path:url(#SVGID_4_);fill:#00C4BC;}
	.st170{clip-path:url(#SVGID_4_);fill:#00C4BB;}
	.st171{clip-path:url(#SVGID_4_);fill:#00C3BA;}
	.st172{clip-path:url(#SVGID_4_);fill:#00C2B9;}
	.st173{clip-path:url(#SVGID_4_);fill:#00C1B8;}
	.st174{clip-path:url(#SVGID_4_);fill:#00C0B7;}
	.st175{clip-path:url(#SVGID_4_);fill:#00BFB6;}
	.st176{clip-path:url(#SVGID_4_);fill:#00BEB5;}
	.st177{clip-path:url(#SVGID_4_);fill:#00BDB4;}
	.st178{clip-path:url(#SVGID_4_);fill:#00BDB3;}
	.st179{clip-path:url(#SVGID_4_);fill:#00BCB2;}
	.st180{clip-path:url(#SVGID_6_);fill:#00D0C9;}
	.st181{clip-path:url(#SVGID_6_);fill:#00CFC8;}
	.st182{clip-path:url(#SVGID_6_);fill:#00CEC7;}
	.st183{clip-path:url(#SVGID_6_);fill:#00CDC6;}
	.st184{clip-path:url(#SVGID_6_);fill:#00CCC5;}
	.st185{clip-path:url(#SVGID_6_);fill:#00CCC4;}
	.st186{clip-path:url(#SVGID_6_);fill:#00CBC3;}
	.st187{clip-path:url(#SVGID_6_);fill:#00CAC2;}
	.st188{clip-path:url(#SVGID_6_);fill:#00C9C1;}
	.st189{clip-path:url(#SVGID_6_);fill:#00C8C0;}
	.st190{clip-path:url(#SVGID_6_);fill:#00C7BF;}
	.st191{clip-path:url(#SVGID_6_);fill:#00C6BE;}
	.st192{clip-path:url(#SVGID_6_);fill:#00C5BD;}
	.st193{clip-path:url(#SVGID_6_);fill:#00C4BC;}
	.st194{clip-path:url(#SVGID_6_);fill:#00DBD6;}
	.st195{clip-path:url(#SVGID_6_);fill:#00DAD5;}
	.st196{clip-path:url(#SVGID_6_);fill:#00D9D4;}
	.st197{clip-path:url(#SVGID_6_);fill:#00D8D3;}
	.st198{clip-path:url(#SVGID_6_);fill:#00D7D2;}
	.st199{clip-path:url(#SVGID_6_);fill:#00D6D1;}
	.st200{clip-path:url(#SVGID_6_);fill:#00D5D0;}
	.st201{clip-path:url(#SVGID_6_);fill:#00D4CF;}
	.st202{clip-path:url(#SVGID_6_);fill:#00D4CD;}
	.st203{clip-path:url(#SVGID_6_);fill:#00D3CC;}
	.st204{clip-path:url(#SVGID_6_);fill:#00D2CB;}
	.st205{clip-path:url(#SVGID_6_);fill:#00D1CA;}
	.st206{clip-path:url(#SVGID_6_);fill:#00C4BB;}
	.st207{clip-path:url(#SVGID_6_);fill:#00C3BA;}
	.st208{clip-path:url(#SVGID_6_);fill:#00C2B9;}
	.st209{clip-path:url(#SVGID_6_);fill:#00C1B8;}
	.st210{clip-path:url(#SVGID_6_);fill:#00C0B7;}
	.st211{clip-path:url(#SVGID_6_);fill:#00BFB6;}
	.st212{clip-path:url(#SVGID_6_);fill:#00BEB5;}
	.st213{clip-path:url(#SVGID_6_);fill:#00BDB4;}
	.st214{clip-path:url(#SVGID_6_);fill:#00BDB3;}
	.st215{clip-path:url(#SVGID_6_);fill:#00BCB2;}
	.st216{clip-path:url(#SVGID_6_);fill:#00BBB1;}
	.st217{clip-path:url(#SVGID_6_);fill:#00BAB0;}
	.st218{clip-path:url(#SVGID_6_);fill:#00B9AF;}
	.st219{clip-path:url(#SVGID_6_);fill:#00B8AE;}
	.st220{clip-path:url(#SVGID_6_);fill:#00B7AD;}
	.st221{clip-path:url(#SVGID_6_);fill:#00B6AC;}
	.st222{clip-path:url(#SVGID_6_);fill:#00B5AB;}
	.st223{clip-path:url(#SVGID_6_);fill:#00B5AA;}
	.st224{clip-path:url(#SVGID_6_);fill:#00B4A9;}
	.st225{clip-path:url(#SVGID_6_);fill:#00B3A8;}
	.st226{clip-path:url(#SVGID_6_);fill:#00B2A7;}
	.st227{clip-path:url(#SVGID_6_);fill:#00B1A6;}
	.st228{clip-path:url(#SVGID_6_);fill:#00B0A5;}
	.st229{clip-path:url(#SVGID_6_);fill:#00AFA4;}
	.st230{clip-path:url(#SVGID_6_);fill:#00AEA3;}
	.st231{clip-path:url(#SVGID_6_);fill:#00ADA2;}
	.st232{clip-path:url(#SVGID_6_);fill:#00ADA1;}
	.st233{clip-path:url(#SVGID_8_);fill:#00DCD7;}
	.st234{clip-path:url(#SVGID_8_);fill:#00DBD6;}
	.st235{clip-path:url(#SVGID_8_);fill:#00DAD5;}
	.st236{clip-path:url(#SVGID_8_);fill:#00D9D4;}
	.st237{clip-path:url(#SVGID_8_);fill:#00D8D3;}
	.st238{clip-path:url(#SVGID_8_);fill:#00D7D2;}
	.st239{clip-path:url(#SVGID_8_);fill:#00D6D1;}
	.st240{clip-path:url(#SVGID_8_);fill:#00D5D0;}
	.st241{clip-path:url(#SVGID_8_);fill:#00D4CF;}
	.st242{clip-path:url(#SVGID_8_);fill:#00D4CD;}
	.st243{clip-path:url(#SVGID_8_);fill:#00D3CC;}
	.st244{clip-path:url(#SVGID_8_);fill:#00D2CB;}
	.st245{clip-path:url(#SVGID_8_);fill:#00D1CA;}
	.st246{clip-path:url(#SVGID_8_);fill:#00D0C9;}
	.st247{clip-path:url(#SVGID_8_);fill:#00CFC8;}
	.st248{clip-path:url(#SVGID_8_);fill:#00CEC7;}
	.st249{clip-path:url(#SVGID_8_);fill:#00CDC6;}
	.st250{clip-path:url(#SVGID_8_);fill:#00CCC5;}
	.st251{clip-path:url(#SVGID_8_);fill:#00CCC4;}
	.st252{clip-path:url(#SVGID_8_);fill:#00CBC3;}
	.st253{clip-path:url(#SVGID_8_);fill:#00CAC2;}
	.st254{clip-path:url(#SVGID_8_);fill:#00C9C1;}
	.st255{clip-path:url(#SVGID_8_);fill:#00C8C0;}
	.st256{clip-path:url(#SVGID_8_);fill:#00C7BF;}
	.st257{clip-path:url(#SVGID_8_);fill:#00C6BE;}
	.st258{clip-path:url(#SVGID_8_);fill:#00C5BD;}
	.st259{clip-path:url(#SVGID_8_);fill:#00C4BC;}
	.st260{clip-path:url(#SVGID_8_);fill:#00C4BB;}
	.st261{clip-path:url(#SVGID_8_);fill:#00C3BA;}
	.st262{clip-path:url(#SVGID_8_);fill:#00C2B9;}
	.st263{clip-path:url(#SVGID_8_);fill:#00C1B8;}
	.st264{clip-path:url(#SVGID_8_);fill:#00C0B7;}
	.st265{clip-path:url(#SVGID_8_);fill:#00BFB6;}
	.st266{clip-path:url(#SVGID_8_);fill:#00BEB5;}
	.st267{clip-path:url(#SVGID_8_);fill:#00BDB4;}
	.st268{clip-path:url(#SVGID_8_);fill:#00BDB3;}
	.st269{clip-path:url(#SVGID_8_);fill:#00BCB2;}
	.st270{clip-path:url(#SVGID_8_);fill:#00BBB1;}
	.st271{clip-path:url(#SVGID_8_);fill:#00BAB0;}
	.st272{clip-path:url(#SVGID_8_);fill:#00B9AF;}
	.st273{fill:#858D99;}
	.st274{fill:#C1272D;}
	.st275{fill:#00FFFF;}
	.st276{fill:#F0CA4D;}
	.st277{fill:#CADAC8;}
	.st278{fill:#88F9D4;}
	.st279{opacity:0.41;}
	.st280{fill:#FCEE21;}
	.st281{fill:#F59423;}
	.st282{fill:#F7A822;}
	.st283{fill:#F8B922;}
	.st284{fill:#F9C022;}
	.st285{fill:#F8BC22;}
	.st286{fill:#F7AC22;}
	.st287{fill:#F69823;}
	.st288{fill:#F15F24;}
	.st289{fill:#F37224;}
	.st290{fill:#F48423;}
	.st291{fill:#F69B23;}
	.st292{fill:#F8B322;}
	.st293{fill:#F9C922;}
	.st294{fill:#FAD521;}
	.st295{fill:#FACE22;}
	.st296{fill:#F8B822;}
	.st297{fill:#F6A123;}
	.st298{fill:#F58D23;}
	.st299{fill:#F37723;}
	.st300{fill:#F26324;}
	.st301{fill:#F34A1E;}
	.st302{fill:#F25522;}
	.st303{fill:#F16024;}
	.st304{fill:#F37323;}
	.st305{fill:#F48623;}
	.st306{fill:#F69E23;}
	.st307{fill:#F8B722;}
	.st308{fill:#FAD122;}
	.st309{fill:#FBE721;}
	.st310{fill:#FAD821;}
	.st311{fill:#F8BD22;}
	.st312{fill:#F7A422;}
	.st313{fill:#F59023;}
	.st314{fill:#F37823;}
	.st315{fill:#F26424;}
	.st316{fill:#F15923;}
	.st317{fill:#F34D1F;}
	.st318{fill:#F44A1D;}
	.st319{fill:#F25422;}
	.st320{fill:#F48523;}
	.st321{fill:#F69D23;}
	.st322{fill:#F8B522;}
	.st323{fill:#FACD22;}
	.st324{fill:#FBDB21;}
	.st325{fill:#FAD222;}
	.st326{fill:#F8BB22;}
	.st327{fill:#F6A223;}
	.st328{fill:#F58E23;}
	.st329{fill:#F15823;}
	.st330{fill:#F53E19;}
	.st331{fill:#F63817;}
	.st332{fill:#F4481D;}
	.st333{fill:#F25321;}
	.st334{fill:#F15D24;}
	.st335{fill:#F36F24;}
	.st336{fill:#F48023;}
	.st337{fill:#F59623;}
	.st338{fill:#F7AB22;}
	.st339{fill:#F8BE22;}
	.st340{fill:#F9C622;}
	.st341{fill:#F9C122;}
	.st342{fill:#F7B022;}
	.st343{fill:#F48923;}
	.st344{fill:#F37423;}
	.st345{fill:#F15723;}
	.st346{fill:#F34B1E;}
	.st347{fill:#F63C18;}
	.st348{fill:#F73615;}
	.st349{fill:#F4451C;}
	.st350{fill:#F35020;}
	.st351{fill:#F15A24;}
	.st352{fill:#F26924;}
	.st353{fill:#F37923;}
	.st354{fill:#F58C23;}
	.st355{fill:#F7B122;}
	.st356{fill:#F7AE22;}
	.st357{fill:#F48123;}
	.st358{fill:#F26D24;}
	.st359{fill:#F15C24;}
	.st360{fill:#F4491D;}
	.st361{fill:#F63917;}
	.st362{fill:#F92810;}
	.st363{fill:#F73214;}
	.st364{fill:#F5421A;}
	.st365{fill:#F26224;}
	.st366{fill:#F37024;}
	.st367{fill:#F69F23;}
	.st368{fill:#F59323;}
	.st369{fill:#F26624;}
	.st370{fill:#F15924;}
	.st371{fill:#F25221;}
	.st372{fill:#F9250F;}
	.st373{fill:#F82D12;}
	.st374{fill:#F15B24;}
	.st375{fill:#F48823;}
	.st376{fill:#F58923;}
	.st377{fill:#F48223;}
	.st378{fill:#F37623;}
	.st379{fill:#F26B24;}
	.st380{fill:#F25622;}
	.st381{fill:#F5401A;}
	.st382{fill:#F73013;}
	.st383{fill:#FA1F0C;}
	.st384{fill:#F9260F;}
	.st385{fill:#F5411A;}
	.st386{fill:#F25623;}
	.st387{fill:#F26824;}
	.st388{fill:#F4461C;}
	.st389{fill:#F82A11;}
	.st390{fill:#F82E12;}
	.st391{fill:#F63A17;}
	.st392{fill:#F26124;}
	.st393{fill:#F26724;}
	.st394{fill:#F53F19;}
	.st395{fill:#FA220E;}
	.st396{fill:#F34F20;}
	.st397{fill:#F63716;}
	.st398{fill:#F92911;}
	.st399{fill:#FB1C0B;}
	.st400{fill:#F92710;}
	.st401{fill:#F73415;}
	.st402{fill:#F34C1E;}
	.st403{fill:#F25120;}
	.st404{fill:#F73616;}
	.st405{fill:#FC1107;}
	.st406{fill:#F73314;}
	.st407{fill:#F82B11;}
	.st408{fill:#FA210D;}
	.st409{fill:#FC1408;}
	.st410{fill:#FE0502;}
	.st411{fill:#FD1006;}
	.st412{fill:#F63D18;}
	.st413{fill:#F73515;}
	.st414{fill:#FF2F2F;}
	.st415{fill:#FE0402;}
	.st416{fill:#F82F13;}
	.st417{fill:#F83013;}
	.st418{fill:#F92910;}
	.st419{fill:#FA1E0C;}
	.st420{fill:#FA200D;}
	.st421{fill:#FB1A0A;}
	.st422{fill:#FC1508;}
	.st423{fill:#FC1006;}
	.st424{fill:#FD0E06;}
	.st425{fill:#FD0A04;}
	.st426{clip-path:url(#SVGID_10_);fill:#00F3F1;}
	.st427{clip-path:url(#SVGID_10_);fill:#00F2F0;}
	.st428{clip-path:url(#SVGID_10_);fill:#00F1EF;}
	.st429{clip-path:url(#SVGID_10_);fill:#00F0EE;}
	.st430{clip-path:url(#SVGID_10_);fill:#00EFED;}
	.st431{clip-path:url(#SVGID_10_);fill:#00EEEC;}
	.st432{clip-path:url(#SVGID_10_);fill:#00EDEB;}
	.st433{clip-path:url(#SVGID_10_);fill:#00ECEA;}
	.st434{clip-path:url(#SVGID_10_);fill:#00EBE9;}
	.st435{clip-path:url(#SVGID_10_);fill:#00EBE8;}
	.st436{clip-path:url(#SVGID_10_);fill:#00EAE7;}
	.st437{clip-path:url(#SVGID_10_);fill:#00E9E6;}
	.st438{clip-path:url(#SVGID_10_);fill:#00E8E5;}
	.st439{clip-path:url(#SVGID_10_);fill:#00E7E4;}
	.st440{clip-path:url(#SVGID_10_);fill:#00E6E3;}
	.st441{clip-path:url(#SVGID_10_);fill:#00E5E2;}
	.st442{clip-path:url(#SVGID_10_);fill:#00E4E1;}
	.st443{clip-path:url(#SVGID_10_);fill:#00E4E0;}
	.st444{clip-path:url(#SVGID_10_);fill:#00E3DF;}
	.st445{clip-path:url(#SVGID_10_);fill:#00E2DE;}
	.st446{clip-path:url(#SVGID_10_);fill:#00E1DD;}
	.st447{clip-path:url(#SVGID_10_);fill:#00FFFF;}
	.st448{clip-path:url(#SVGID_10_);fill:#00FEFE;}
	.st449{clip-path:url(#SVGID_10_);fill:#00FDFD;}
	.st450{clip-path:url(#SVGID_10_);fill:#00FCFC;}
	.st451{clip-path:url(#SVGID_10_);fill:#00FBFB;}
	.st452{clip-path:url(#SVGID_10_);fill:#00FBFA;}
	.st453{clip-path:url(#SVGID_10_);fill:#00FAF9;}
	.st454{clip-path:url(#SVGID_10_);fill:#00F9F8;}
	.st455{clip-path:url(#SVGID_10_);fill:#00F8F7;}
	.st456{clip-path:url(#SVGID_10_);fill:#00F7F6;}
	.st457{clip-path:url(#SVGID_10_);fill:#00F6F5;}
	.st458{clip-path:url(#SVGID_10_);fill:#00F5F4;}
	.st459{clip-path:url(#SVGID_10_);fill:#00F4F3;}
	.st460{clip-path:url(#SVGID_10_);fill:#00F3F2;}
	.st461{clip-path:url(#SVGID_10_);fill:#00E0DC;}
	.st462{clip-path:url(#SVGID_10_);fill:#00DFDB;}
	.st463{clip-path:url(#SVGID_10_);fill:#00DEDA;}
	.st464{clip-path:url(#SVGID_10_);fill:#00DDD9;}
	.st465{clip-path:url(#SVGID_10_);fill:#00DCD8;}
	.st466{clip-path:url(#SVGID_10_);fill:#00DCD7;}
	.st467{clip-path:url(#SVGID_10_);fill:#00DBD6;}
	.st468{clip-path:url(#SVGID_10_);fill:#00DAD5;}
	.st469{clip-path:url(#SVGID_10_);fill:#00D9D4;}
	.st470{clip-path:url(#SVGID_10_);fill:#00D8D3;}
	.st471{clip-path:url(#SVGID_10_);fill:#00D7D2;}
	.st472{clip-path:url(#SVGID_10_);fill:#00D6D1;}
	.st473{clip-path:url(#SVGID_10_);fill:#00D5D0;}
	.st474{clip-path:url(#SVGID_10_);fill:#00D4CF;}
	.st475{clip-path:url(#SVGID_10_);fill:#00D4CD;}
	.st476{clip-path:url(#SVGID_10_);fill:#00D3CC;}
	.st477{clip-path:url(#SVGID_10_);fill:#00D2CB;}
	.st478{clip-path:url(#SVGID_10_);fill:#00D1CA;}
	.st479{clip-path:url(#SVGID_10_);fill:#00D0C9;}
	.st480{clip-path:url(#SVGID_10_);fill:#00CFC8;}
	.st481{clip-path:url(#SVGID_10_);fill:#00CEC7;}
	.st482{clip-path:url(#SVGID_10_);fill:#00CDC6;}
	.st483{clip-path:url(#SVGID_10_);fill:#00CCC5;}
	.st484{clip-path:url(#SVGID_10_);fill:#00CCC4;}
	.st485{clip-path:url(#SVGID_10_);fill:#00CBC3;}
	.st486{clip-path:url(#SVGID_10_);fill:#00CAC2;}
	.st487{clip-path:url(#SVGID_10_);fill:#00C9C1;}
	.st488{clip-path:url(#SVGID_10_);fill:#00C8C0;}
	.st489{clip-path:url(#SVGID_10_);fill:#00C7BF;}
	.st490{clip-path:url(#SVGID_10_);fill:#00C6BE;}
	.st491{clip-path:url(#SVGID_10_);fill:#00C5BD;}
	.st492{clip-path:url(#SVGID_10_);fill:#00C4BC;}
	.st493{clip-path:url(#SVGID_10_);fill:#00C4BB;}
	.st494{clip-path:url(#SVGID_10_);fill:#00C3BA;}
	.st495{clip-path:url(#SVGID_10_);fill:#00C2B9;}
	.st496{clip-path:url(#SVGID_10_);fill:#00C1B8;}
	.st497{clip-path:url(#SVGID_10_);fill:#00C0B7;}
	.st498{clip-path:url(#SVGID_10_);fill:#00BFB6;}
	.st499{clip-path:url(#SVGID_10_);fill:#00BEB5;}
	.st500{clip-path:url(#SVGID_10_);fill:#00BDB4;}
	.st501{clip-path:url(#SVGID_10_);fill:#00BDB3;}
	.st502{clip-path:url(#SVGID_10_);fill:#00BCB2;}
	.st503{clip-path:url(#SVGID_10_);fill:#00BBB1;}
	.st504{clip-path:url(#SVGID_10_);fill:#00BAB0;}
	.st505{clip-path:url(#SVGID_12_);fill:#00DBD6;}
	.st506{clip-path:url(#SVGID_12_);fill:#00DAD5;}
	.st507{clip-path:url(#SVGID_12_);fill:#00D9D4;}
	.st508{clip-path:url(#SVGID_12_);fill:#00D8D3;}
	.st509{clip-path:url(#SVGID_12_);fill:#00D7D2;}
	.st510{clip-path:url(#SVGID_12_);fill:#00D6D1;}
	.st511{clip-path:url(#SVGID_12_);fill:#00D5D0;}
	.st512{clip-path:url(#SVGID_12_);fill:#00D4CF;}
	.st513{clip-path:url(#SVGID_12_);fill:#00D4CD;}
	.st514{clip-path:url(#SVGID_12_);fill:#00D3CC;}
	.st515{clip-path:url(#SVGID_12_);fill:#00D2CB;}
	.st516{clip-path:url(#SVGID_12_);fill:#00D1CA;}
	.st517{clip-path:url(#SVGID_12_);fill:#00D0C9;}
	.st518{clip-path:url(#SVGID_12_);fill:#00CFC8;}
	.st519{clip-path:url(#SVGID_12_);fill:#00CEC7;}
	.st520{clip-path:url(#SVGID_12_);fill:#00CDC6;}
	.st521{clip-path:url(#SVGID_12_);fill:#00CCC5;}
	.st522{clip-path:url(#SVGID_12_);fill:#00CCC4;}
	.st523{clip-path:url(#SVGID_12_);fill:#00CBC3;}
	.st524{clip-path:url(#SVGID_12_);fill:#00CAC2;}
	.st525{clip-path:url(#SVGID_12_);fill:#00C9C1;}
	.st526{clip-path:url(#SVGID_12_);fill:#00C8C0;}
	.st527{clip-path:url(#SVGID_12_);fill:#00C7BF;}
	.st528{clip-path:url(#SVGID_12_);fill:#00C6BE;}
	.st529{clip-path:url(#SVGID_12_);fill:#00C5BD;}
	.st530{clip-path:url(#SVGID_12_);fill:#00C4BC;}
	.st531{clip-path:url(#SVGID_12_);fill:#00C4BB;}
	.st532{clip-path:url(#SVGID_12_);fill:#00C3BA;}
	.st533{clip-path:url(#SVGID_12_);fill:#00C2B9;}
	.st534{clip-path:url(#SVGID_12_);fill:#00C1B8;}
	.st535{clip-path:url(#SVGID_12_);fill:#00C0B7;}
	.st536{clip-path:url(#SVGID_12_);fill:#00BFB6;}
	.st537{clip-path:url(#SVGID_12_);fill:#00BEB5;}
	.st538{clip-path:url(#SVGID_12_);fill:#00BDB4;}
	.st539{clip-path:url(#SVGID_12_);fill:#00BDB3;}
	.st540{clip-path:url(#SVGID_12_);fill:#00BCB2;}
	.st541{clip-path:url(#SVGID_14_);fill:#00D0C9;}
	.st542{clip-path:url(#SVGID_14_);fill:#00CFC8;}
	.st543{clip-path:url(#SVGID_14_);fill:#00CEC7;}
	.st544{clip-path:url(#SVGID_14_);fill:#00CDC6;}
	.st545{clip-path:url(#SVGID_14_);fill:#00CCC5;}
	.st546{clip-path:url(#SVGID_14_);fill:#00CCC4;}
	.st547{clip-path:url(#SVGID_14_);fill:#00CBC3;}
	.st548{clip-path:url(#SVGID_14_);fill:#00CAC2;}
	.st549{clip-path:url(#SVGID_14_);fill:#00C9C1;}
	.st550{clip-path:url(#SVGID_14_);fill:#00C8C0;}
	.st551{clip-path:url(#SVGID_14_);fill:#00C7BF;}
	.st552{clip-path:url(#SVGID_14_);fill:#00C6BE;}
	.st553{clip-path:url(#SVGID_14_);fill:#00C5BD;}
	.st554{clip-path:url(#SVGID_14_);fill:#00C4BC;}
	.st555{clip-path:url(#SVGID_14_);fill:#00DBD6;}
	.st556{clip-path:url(#SVGID_14_);fill:#00DAD5;}
	.st557{clip-path:url(#SVGID_14_);fill:#00D9D4;}
	.st558{clip-path:url(#SVGID_14_);fill:#00D8D3;}
	.st559{clip-path:url(#SVGID_14_);fill:#00D7D2;}
	.st560{clip-path:url(#SVGID_14_);fill:#00D6D1;}
	.st561{clip-path:url(#SVGID_14_);fill:#00D5D0;}
	.st562{clip-path:url(#SVGID_14_);fill:#00D4CF;}
	.st563{clip-path:url(#SVGID_14_);fill:#00D4CD;}
	.st564{clip-path:url(#SVGID_14_);fill:#00D3CC;}
	.st565{clip-path:url(#SVGID_14_);fill:#00D2CB;}
	.st566{clip-path:url(#SVGID_14_);fill:#00D1CA;}
	.st567{clip-path:url(#SVGID_14_);fill:#00C4BB;}
	.st568{clip-path:url(#SVGID_14_);fill:#00C3BA;}
	.st569{clip-path:url(#SVGID_14_);fill:#00C2B9;}
	.st570{clip-path:url(#SVGID_14_);fill:#00C1B8;}
	.st571{clip-path:url(#SVGID_14_);fill:#00C0B7;}
	.st572{clip-path:url(#SVGID_14_);fill:#00BFB6;}
	.st573{clip-path:url(#SVGID_14_);fill:#00BEB5;}
	.st574{clip-path:url(#SVGID_14_);fill:#00BDB4;}
	.st575{clip-path:url(#SVGID_14_);fill:#00BDB3;}
	.st576{clip-path:url(#SVGID_14_);fill:#00BCB2;}
	.st577{clip-path:url(#SVGID_14_);fill:#00BBB1;}
	.st578{clip-path:url(#SVGID_14_);fill:#00BAB0;}
	.st579{clip-path:url(#SVGID_14_);fill:#00B9AF;}
	.st580{clip-path:url(#SVGID_14_);fill:#00B8AE;}
	.st581{clip-path:url(#SVGID_14_);fill:#00B7AD;}
	.st582{clip-path:url(#SVGID_14_);fill:#00B6AC;}
	.st583{clip-path:url(#SVGID_14_);fill:#00B5AB;}
	.st584{clip-path:url(#SVGID_14_);fill:#00B5AA;}
	.st585{clip-path:url(#SVGID_14_);fill:#00B4A9;}
	.st586{clip-path:url(#SVGID_14_);fill:#00B3A8;}
	.st587{clip-path:url(#SVGID_14_);fill:#00B2A7;}
	.st588{clip-path:url(#SVGID_14_);fill:#00B1A6;}
	.st589{clip-path:url(#SVGID_14_);fill:#00B0A5;}
	.st590{clip-path:url(#SVGID_14_);fill:#00AFA4;}
	.st591{clip-path:url(#SVGID_14_);fill:#00AEA3;}
	.st592{clip-path:url(#SVGID_14_);fill:#00ADA2;}
	.st593{clip-path:url(#SVGID_14_);fill:#00ADA1;}
	.st594{clip-path:url(#SVGID_16_);fill:#00DCD7;}
	.st595{clip-path:url(#SVGID_16_);fill:#00DBD6;}
	.st596{clip-path:url(#SVGID_16_);fill:#00DAD5;}
	.st597{clip-path:url(#SVGID_16_);fill:#00D9D4;}
	.st598{clip-path:url(#SVGID_16_);fill:#00D8D3;}
	.st599{clip-path:url(#SVGID_16_);fill:#00D7D2;}
	.st600{clip-path:url(#SVGID_16_);fill:#00D6D1;}
	.st601{clip-path:url(#SVGID_16_);fill:#00D5D0;}
	.st602{clip-path:url(#SVGID_16_);fill:#00D4CF;}
	.st603{clip-path:url(#SVGID_16_);fill:#00D4CD;}
	.st604{clip-path:url(#SVGID_16_);fill:#00D3CC;}
	.st605{clip-path:url(#SVGID_16_);fill:#00D2CB;}
	.st606{clip-path:url(#SVGID_16_);fill:#00D1CA;}
	.st607{clip-path:url(#SVGID_16_);fill:#00D0C9;}
	.st608{clip-path:url(#SVGID_16_);fill:#00CFC8;}
	.st609{clip-path:url(#SVGID_16_);fill:#00CEC7;}
	.st610{clip-path:url(#SVGID_16_);fill:#00CDC6;}
	.st611{clip-path:url(#SVGID_16_);fill:#00CCC5;}
	.st612{clip-path:url(#SVGID_16_);fill:#00CCC4;}
	.st613{clip-path:url(#SVGID_16_);fill:#00CBC3;}
	.st614{clip-path:url(#SVGID_16_);fill:#00CAC2;}
	.st615{clip-path:url(#SVGID_16_);fill:#00C9C1;}
	.st616{clip-path:url(#SVGID_16_);fill:#00C8C0;}
	.st617{clip-path:url(#SVGID_16_);fill:#00C7BF;}
	.st618{clip-path:url(#SVGID_16_);fill:#00C6BE;}
	.st619{clip-path:url(#SVGID_16_);fill:#00C5BD;}
	.st620{clip-path:url(#SVGID_16_);fill:#00C4BC;}
	.st621{clip-path:url(#SVGID_16_);fill:#00C4BB;}
	.st622{clip-path:url(#SVGID_16_);fill:#00C3BA;}
	.st623{clip-path:url(#SVGID_16_);fill:#00C2B9;}
	.st624{clip-path:url(#SVGID_16_);fill:#00C1B8;}
	.st625{clip-path:url(#SVGID_16_);fill:#00C0B7;}
	.st626{clip-path:url(#SVGID_16_);fill:#00BFB6;}
	.st627{clip-path:url(#SVGID_16_);fill:#00BEB5;}
	.st628{clip-path:url(#SVGID_16_);fill:#00BDB4;}
	.st629{clip-path:url(#SVGID_16_);fill:#00BDB3;}
	.st630{clip-path:url(#SVGID_16_);fill:#00BCB2;}
	.st631{clip-path:url(#SVGID_16_);fill:#00BBB1;}
	.st632{clip-path:url(#SVGID_16_);fill:#00BAB0;}
	.st633{clip-path:url(#SVGID_16_);fill:#00B9AF;}
	.st634{display:none;}
	.st635{display:inline;}
	.st636{display:inline;opacity:0.38;fill:#FFFF00;}
	.st637{display:inline;opacity:0.38;fill:#F15A24;}
</style>
<g id="lock">
</g>
<g id="row">
</g>
<g id="col">
</g>
<g id="Layer_1">
</g>
<g id="bg">
</g>
<g id="logo_bg">
	<rect class="st0" width="49" height="49"/>
</g>
<g id="logo">
	<g>
		<g>
			<path class="st41" d="M14.7,30.1c-0.2,0-0.1,0.3-0.3,0.8c-0.3,0.5-0.9-0.1-0.4-0.5c0.5-0.5,0.7-0.6-0.2-0.8
				c-0.4-0.1-0.3-0.8-0.3-1c0-0.3-0.3-0.8-1.2,0.1c-0.8,0.9-1.6,0.1-1.5-0.4c0.2-0.9,2-0.2,2.2-0.7c0.2-0.6-1.3-0.4-1.1-1
				c0.3-0.6,0.8,0.3,1.2,0.4c0.7,0.2,0.9-0.9,0-1.2c-0.4-0.1,0-1,0.5,0c0.2,0.4,1.1,0.4,0.7-0.7c-0.1-0.4-0.5-1-0.4-1.3
				c0.3-0.7,1.3-0.5,1,1.3c-0.2,1.1,0.5,0.3,0.8,0.3c0.7-0.1,0.2,0.9,0.9,0.4c0.9-0.6,0.9-1.2,1.5-1.7c0.4-0.4,0.8-0.3,1,0
				c0.2,0.3,0,0.6-0.4,0.9c-0.5,0.3-0.6,0.5-0.4,0.6c1.1,0.1,1.3,1,0.8,1.6c-0.4,0.4-0.5,0.8-0.3,1.1c0.6,0.6,0,1.4-0.9,1.1
				c-1-0.3-1,0.1-1,0.4c0,0.3,1,0.8,0.7,1.5c-0.2,0.5-1.1,0.5-1.4-0.1c-0.3-0.6,0.3-0.9-0.1-1.2c-0.4-0.3-0.5,0.4-0.8,0.4
				C14.9,30.5,14.9,30.1,14.7,30.1z"/>
		</g>
	</g>
	<g>
		<g>
			<path class="st40" d="M10.8,26.8c-0.1-0.2-0.2,0.1-0.7,0.2c-0.5,0.1-0.5-0.6,0.1-0.6c0.6,0.1,1-0.7,0-0.5c-1,0.2-0.6-1.2,0.1-0.8
				c0.6,0.3,0.8-0.1,0.8-0.1s0.4-0.7-0.8-0.7c-1.1,0-1-1-0.6-1.2c0.8-0.4,1.3,1.3,1.7,1.1c0.6-0.3-0.3-0.7,0.2-1.1
				c0.3-0.2,0.5,0.2,0.7,0.3c0,0,0.2,0.2,0.4-0.2c0.2-0.3,0.5-0.1,0.5,0.4c0,0.4,0.5,0.3,0.7,0c0.2-0.3,0.4-0.9,0.7-1
				c0.6-0.2,1.1,0.6-0.3,1.5c-0.8,0.5,0.1,0.8,0.4,0.5c0.2-0.1,0.3,0.1,0.2,0.3c-0.2,0.2-0.7,0-0.9,0.1c-0.2,0.1,0,0.4,0.8,0.6
				c0.9,0.3,2,0.1,2.7,0.2c0.5,0,0.7,0.3,0.6,0.6c-0.1,0.3-0.4,0.4-0.8,0.3c-0.5-0.2-1.2-0.5-2-0.7c-1.5-0.3-1.4,0.1-1.2,0.3
				c0.1,0.2,0.7,0.4,1.1,0.7c0.4,0.3,0.1,1-0.3,0.8c-0.5-0.2-0.6-1.2-1.1-0.9c-0.5,0.2-0.5,0.8,0.2,1.4c0.5,0.5-0.5,1.2-0.8,0.3
				c-0.3-0.9-0.7-0.6-0.9-0.4c-0.2,0.2-0.1,1.4-0.8,1.6c-0.5,0.1-1-0.4-0.7-1c0.2-0.6,0.9-0.6,0.9-1c0-0.5-0.5-0.1-0.8-0.3
				C10.7,27.2,10.9,27,10.8,26.8z"/>
		</g>
		<g>
			<path class="st40" d="M9.7,25.5c0,0,0.2-0.4,0.5-0.3c0.3,0.1,0.5,0.3,0.5,0.3"/>
		</g>
	</g>
	<g>
		<g>
			<path class="st39" d="M18.1,28.5c-0.2,0-0.2,0-0.4,0.5c-0.1,0.5-0.8,0.1-0.4-0.4c0.4-0.5-0.1-1.3-0.4-0.3c-0.3,1-1.3,0-0.6-0.5
				c0.6-0.4,0.3-0.7,0.3-0.7s-0.4-0.7-1,0.3c-0.5,1-1.4,0.4-1.4-0.1c0-0.8,1.7-0.5,1.7-1c0-0.6-0.8-0.1-0.9-0.7
				c0-0.4,0.4-0.3,0.6-0.5c0,0,0.2-0.1,0-0.4c-0.2-0.4,0.1-0.5,0.6-0.3c0.4,0.2,0.5-0.3,0.3-0.6c-0.1-0.3-0.6-0.8-0.6-1.1
				c-0.1-0.7,0.9-0.6,1.1,0.4c0.1,1,0.4,0.6,0.7,0.4c0.2-0.1,0.4,0,0.5,0.2c0,0.1-0.1,0.3-0.1,0.4c-0.1,0.2,0.1,0.4,0.7-0.2
				c0.7-0.7,0.1-1.1,0.5-1.7c0.3-0.4,0.7-0.4,0.9-0.2c0.3,0.2,0.3,0.6,0,0.9c-0.1,0.1-0.6,0.4-0.8,0.8c-0.4,0.6-0.2,0.9,0,0.8
				c0.2,0,0.3-0.1,0.7-0.3c0.4-0.2,1,0.4,0.6,0.7c-0.4,0.3-1.3,0-1.3,0.6c0,0.5,0.5,0.8,1.3,0.5c0.7-0.3,0.8,1-0.1,0.9
				c-0.9-0.1-0.8,0.3-0.8,0.6c0.1,0.3,1.2,0.8,1,1.4c-0.1,0.5-0.8,0.7-1.2,0.2c-0.4-0.5-0.1-1.1-0.5-1.3c-0.4-0.2-0.3,0.4-0.6,0.6
				C18.4,28.6,18.3,28.6,18.1,28.5z"/>
		</g>
	</g>
	<g>
		<g>
			<path class="st276" d="M15.9,25.9c-0.2,0.1,0.1,0.3,0.2,0.9c0,0.6-0.8,0.5-0.7-0.3c0.2-0.7,0.3-0.9-0.6-0.6
				c-0.4,0.2-0.7-0.6-0.8-0.7c-0.2-0.2-0.8-0.6-1,0.8c-0.2,1.3-1.4,1-1.6,0.4c-0.3-1,1.7-1.3,1.5-1.8c-0.2-0.7-1.4,0.3-1.5-0.3
				c-0.1-0.7,0.9-0.2,1.3-0.3c0.8-0.2,0.3-1.4-0.7-1.1c-0.5,0.1-0.6-0.9,0.5-0.3c0.4,0.3,1.3-0.2,0.2-1.1c-0.3-0.3-1-0.7-1.1-0.9
				c-0.2-0.8,0.8-1.2,1.7,0.6c0.5,1.1,0.7,0,0.8-0.2c0.6-0.4,0.7,0.7,1-0.2c0.5-1,0.1-1.6,0.3-2.3c0.1-0.5,0.5-0.7,0.9-0.6
				c0.3,0.1,0.4,0.6,0.2,1c-0.3,0.6-0.5,0.5-0.8,1.4c-0.7,1.7,0,1.8,0.1,1.5c0.1-0.2,0-0.6,0.4-0.7c0.6-0.2,1.4,0.5,1,1
				c-0.2,0.2,0.1,1,0.9,0.2c0.6-0.6,1.3,0.8,0.2,1c-1.1,0.2-0.8,0.7-0.6,1c0.2,0.3,1.4,0.2,1.5,1c0.1,0.6-0.6,1.1-1.3,0.7
				c-0.6-0.4-0.3-1-0.8-1c-0.5,0-0.2,0.6-0.5,0.9C16.3,26.2,16.1,25.8,15.9,25.9z"/>
		</g>
	</g>
	<g>
		<g>
			<path class="st276" d="M22.7,23.5c0,0,0-0.1,0.1-0.1c0,0,0.1-0.1,0.1-0.1c0,0,0.1-0.1,0.1-0.1c0,0,0.1,0,0.1,0
				c0.2-0.1,0.3-0.1,0.5-0.2c0.2,0,0.3-0.1,0.5-0.1c0.2,0,0.3,0,0.5,0c0.2,0,0.3,0.1,0.5,0.2c0.1,0.1,0.2,0.2,0.3,0.3
				c0.1,0.1,0.2,0.2,0.2,0.4c0.1,0.2,0.1,0.5,0.1,0.7c0,0.2-0.1,0.5-0.2,0.7c-0.1,0.2-0.2,0.4-0.4,0.5c-0.2,0.2-0.4,0.3-0.6,0.3
				c-0.2,0.1-0.4,0.1-0.5,0.1c-0.2,0-0.4,0-0.5,0v0.7c0,0,0,0.1,0,0.2c0,0.1,0,0.1,0,0.2c0,0.1,0,0.1,0,0.2s0,0.1-0.1,0.1
				c0,0.1-0.1,0.1-0.2,0.2c-0.1,0-0.2,0-0.2,0c-0.1,0-0.1-0.1-0.2-0.1c-0.1-0.1-0.1-0.2-0.1-0.3V26c-0.1,0-0.1-0.1-0.2-0.2
				c0-0.1-0.1-0.1,0-0.2c0-0.1,0-0.1,0.1-0.2c0-0.1,0.1-0.1,0.2-0.2L22.7,23.5L22.7,23.5z M24.5,23.8c-0.2-0.1-0.4-0.1-0.5-0.1
				c-0.2,0-0.4,0.1-0.5,0.2v1.5c0.2,0,0.4,0,0.6,0c0.2,0,0.4-0.1,0.6-0.2c0.1-0.1,0.2-0.2,0.2-0.3c0-0.1,0.1-0.3,0-0.4
				c0-0.1-0.1-0.3-0.1-0.4C24.7,24,24.6,23.9,24.5,23.8z"/>
			<path d="M23.1,27.7c-0.1,0-0.1,0-0.2,0c-0.1,0-0.2-0.1-0.2-0.2c-0.1-0.1-0.1-0.2-0.1-0.3v-1.2c-0.1,0-0.1-0.1-0.2-0.2
				c0-0.1-0.1-0.2-0.1-0.2c0-0.1,0-0.2,0.1-0.2c0-0.1,0.1-0.1,0.1-0.2v-1.7l0-0.1c0-0.1,0-0.1,0.1-0.2c0-0.1,0.1-0.1,0.1-0.1
				c0,0,0.1-0.1,0.2-0.1c0.1,0,0.1,0,0.2,0c0.1-0.1,0.3-0.1,0.5-0.2c0.2,0,0.3-0.1,0.5-0.1c0.2,0,0.3,0,0.5,0c0.2,0,0.3,0.1,0.5,0.2
				c0.1,0.1,0.2,0.2,0.3,0.3c0.1,0.1,0.2,0.3,0.2,0.4c0.1,0.3,0.2,0.5,0.1,0.8c0,0.2-0.1,0.5-0.2,0.7c-0.1,0.2-0.2,0.4-0.4,0.6
				c-0.2,0.2-0.4,0.3-0.6,0.4c-0.2,0.1-0.4,0.1-0.6,0.1c-0.2,0-0.3,0-0.5,0v0.6c0,0,0,0.1,0,0.1c0,0.1,0,0.1,0,0.2
				c0,0.1,0,0.1,0,0.2c0,0.1,0,0.1-0.1,0.2c-0.1,0.1-0.1,0.2-0.2,0.2C23.1,27.7,23.1,27.7,23.1,27.7z M22.7,23.5L22.7,23.5l0,1.8
				l0,0c-0.1,0-0.1,0.1-0.1,0.1c0,0.1,0,0.1-0.1,0.2c0,0.1,0,0.1,0,0.2c0,0.1,0.1,0.1,0.1,0.1l0,0v1.2c0,0.1,0,0.2,0.1,0.2
				c0,0.1,0.1,0.1,0.2,0.1c0.1,0,0.1,0,0.2,0c0.1,0,0.1-0.1,0.2-0.1c0,0,0-0.1,0.1-0.1c0,0,0-0.1,0-0.1c0-0.1,0-0.1,0-0.2
				c0-0.1,0-0.1,0-0.2v-0.7l0.1,0c0.2,0,0.3,0,0.5,0c0.2,0,0.3,0,0.5-0.1c0.2-0.1,0.4-0.2,0.6-0.3c0.2-0.1,0.3-0.3,0.4-0.5
				c0.1-0.2,0.1-0.4,0.1-0.6c0-0.2,0-0.5-0.1-0.7c-0.1-0.1-0.1-0.3-0.2-0.4c-0.1-0.1-0.2-0.2-0.3-0.3c-0.1-0.1-0.3-0.2-0.4-0.2
				c-0.1,0-0.3-0.1-0.5,0c-0.2,0-0.3,0-0.5,0.1c-0.2,0-0.3,0.1-0.5,0.2l0,0l0,0c0,0-0.1,0-0.1,0c0,0-0.1,0-0.1,0.1
				c0,0-0.1,0.1-0.1,0.1C22.8,23.5,22.7,23.5,22.7,23.5z M23.8,25.5c-0.1,0-0.3,0-0.4,0l-0.1,0v-1.6l0,0c0.2-0.1,0.4-0.1,0.5-0.2
				c0.2,0,0.4,0,0.6,0.1l0,0c0.1,0.1,0.2,0.2,0.3,0.3c0.1,0.1,0.1,0.3,0.1,0.4c0,0.1,0,0.3-0.1,0.4c-0.1,0.1-0.1,0.3-0.3,0.4
				c-0.2,0.1-0.4,0.2-0.6,0.2C24,25.5,23.9,25.5,23.8,25.5z M23.5,25.3c0.2,0,0.3,0,0.5,0c0.2,0,0.4-0.1,0.5-0.2
				c0.1-0.1,0.2-0.2,0.2-0.3c0-0.1,0.1-0.2,0-0.4c0-0.1-0.1-0.2-0.1-0.4c-0.1-0.1-0.1-0.2-0.2-0.3c-0.2-0.1-0.3-0.1-0.5-0.1
				c-0.2,0-0.3,0.1-0.5,0.1V25.3z"/>
		</g>
		<g>
			<path class="st39" d="M29,27.1c0,0.1,0,0.2-0.1,0.3c0,0.1-0.1,0.1-0.2,0.1c-0.1,0-0.1,0-0.2,0c-0.1,0-0.1-0.1-0.2-0.2
				c-0.1-0.1-0.1-0.2-0.1-0.2c0-0.1,0-0.2,0-0.3c0-0.2-0.1-0.5-0.2-0.8c-0.3,0-0.5,0-0.8,0c-0.3,0-0.5,0-0.8,0
				c0,0.1-0.1,0.2-0.1,0.4c0,0.1-0.1,0.2-0.1,0.4c0,0.1,0,0.2-0.1,0.3c0,0.1-0.1,0.2-0.1,0.3c-0.1,0.1-0.1,0.1-0.2,0.2
				c-0.1,0-0.2,0-0.2,0c-0.1,0-0.1-0.1-0.2-0.2c0-0.1-0.1-0.2,0-0.3c0-0.1,0-0.3,0.1-0.4c0-0.1,0.1-0.3,0.1-0.4
				c0.2-0.8,0.4-1.5,0.7-2.2c0-0.1,0.1-0.1,0.1-0.2c0-0.1,0.1-0.1,0.1-0.2c0-0.1,0.1-0.1,0.1-0.2c0-0.1,0.1-0.1,0.1-0.2
				c0-0.1,0.1-0.1,0.1-0.2c0.1,0,0.1-0.1,0.2-0.1c0.1,0,0.2,0,0.3,0.1c0.3,0.3,0.5,0.6,0.7,1c0.2,0.4,0.3,0.8,0.5,1.2
				c0.1,0,0.2,0,0.3,0c0.1,0,0.2,0,0.2,0.1c0.1,0.1,0.1,0.1,0.1,0.2c0,0.1,0,0.1,0,0.2c0,0.1-0.1,0.1-0.1,0.2
				c-0.1,0-0.1,0.1-0.2,0.1c0,0.2,0.1,0.3,0.1,0.5C29,26.7,29,26.9,29,27.1L29,27.1z M27.8,25.3c-0.1-0.2-0.2-0.4-0.3-0.6
				c-0.1-0.2-0.2-0.4-0.3-0.6c-0.1,0.2-0.2,0.4-0.2,0.6c-0.1,0.2-0.1,0.4-0.2,0.6c0.2,0,0.4,0,0.5,0C27.4,25.3,27.6,25.3,27.8,25.3z
				"/>
			<path d="M28.7,27.6c0,0-0.1,0-0.1,0c-0.1,0-0.2-0.1-0.2-0.2c-0.1-0.1-0.1-0.2-0.1-0.3c0-0.1,0-0.2,0-0.3c0-0.2-0.1-0.5-0.2-0.7
				c-0.5,0-1,0-1.4,0c0,0.1-0.1,0.2-0.1,0.3c0,0.1-0.1,0.2-0.1,0.4c0,0.1,0,0.2-0.1,0.3c0,0.1-0.1,0.2-0.1,0.3
				c-0.1,0.1-0.2,0.2-0.3,0.2c-0.1,0-0.2,0-0.3-0.1c-0.1,0-0.1-0.1-0.2-0.2c0-0.1-0.1-0.2,0-0.3c0-0.1,0-0.3,0.1-0.4
				c0-0.1,0.1-0.3,0.1-0.4c0.2-0.8,0.4-1.5,0.7-2.2c0-0.1,0.1-0.1,0.1-0.2c0-0.1,0.1-0.1,0.1-0.2c0-0.1,0.1-0.1,0.1-0.2
				c0-0.1,0.1-0.1,0.1-0.2c0-0.1,0.1-0.1,0.2-0.2c0.1-0.1,0.1-0.1,0.2-0.1c0.1,0,0.2,0,0.3,0.1c0.3,0.3,0.5,0.7,0.7,1
				c0.2,0.4,0.3,0.7,0.5,1.1c0.1,0,0.1,0,0.2,0c0.1,0,0.2,0.1,0.3,0.1c0.1,0.1,0.1,0.2,0.1,0.2c0,0.1,0,0.2,0,0.2
				c0,0.1-0.1,0.1-0.1,0.2c0,0-0.1,0.1-0.2,0.1c0,0.1,0.1,0.3,0.1,0.4c0,0.2,0.1,0.3,0.1,0.5l0,0.1l0,0c0,0.1,0,0.2-0.1,0.3
				c-0.1,0.1-0.1,0.1-0.2,0.2C28.8,27.6,28.7,27.6,28.7,27.6z M28.1,26L28.1,26c0.1,0.3,0.2,0.6,0.2,0.8c0,0.1,0,0.2,0,0.3
				c0,0.1,0,0.1,0.1,0.2c0.1,0.1,0.1,0.1,0.2,0.1c0.1,0,0.1,0,0.2,0c0.1,0,0.1-0.1,0.1-0.1c0-0.1,0.1-0.1,0.1-0.2v0
				c0-0.2,0-0.3-0.1-0.5c0-0.2-0.1-0.3-0.1-0.5l0-0.1l0.1,0c0.1,0,0.1,0,0.2-0.1c0,0,0.1-0.1,0.1-0.1c0-0.1,0-0.1,0-0.2
				c0-0.1,0-0.1-0.1-0.2c-0.1-0.1-0.1-0.1-0.2-0.1c-0.1,0-0.2,0-0.2,0l-0.1,0l0,0c-0.1-0.4-0.3-0.8-0.5-1.2c-0.2-0.4-0.4-0.7-0.7-1
				c-0.1-0.1-0.1-0.1-0.2-0.1c-0.1,0-0.1,0-0.2,0c0,0-0.1,0.1-0.1,0.1c0,0.1-0.1,0.1-0.1,0.2c0,0.1-0.1,0.1-0.1,0.2
				c0,0.1-0.1,0.1-0.1,0.2c0,0.1-0.1,0.1-0.1,0.2c-0.3,0.7-0.5,1.5-0.7,2.2c0,0.1-0.1,0.3-0.1,0.4c0,0.1-0.1,0.3-0.1,0.4
				c0,0.1,0,0.2,0,0.2c0,0.1,0.1,0.1,0.1,0.2c0.1,0,0.1,0,0.2,0c0.1,0,0.1-0.1,0.2-0.1c0.1-0.1,0.1-0.1,0.1-0.2c0-0.1,0-0.2,0.1-0.3
				c0-0.1,0.1-0.2,0.1-0.4c0-0.1,0.1-0.2,0.1-0.4l0,0l0,0C27,26,27.6,26,28.1,26L28.1,26z M26.7,25.4L26.7,25.4
				c0.1-0.3,0.2-0.5,0.2-0.7c0.1-0.2,0.2-0.4,0.2-0.6l0.1-0.1l0.1,0.1c0.1,0.2,0.2,0.4,0.3,0.6c0.1,0.2,0.2,0.4,0.3,0.6l0,0.1
				l-0.1,0c-0.2,0-0.3,0-0.5,0C27.2,25.4,27,25.4,26.7,25.4L26.7,25.4z M27.2,24.3c-0.1,0.2-0.1,0.3-0.2,0.5
				c-0.1,0.2-0.1,0.3-0.2,0.5c0.3,0,0.5,0,0.8,0c-0.1-0.2-0.1-0.3-0.2-0.5C27.4,24.6,27.3,24.4,27.2,24.3z"/>
		</g>
		<g>
			<path class="st41" d="M31.1,26.6c0.1,0,0.2,0,0.3,0.1c0.1,0.1,0.1,0.1,0.1,0.2c0,0.1,0,0.2,0,0.3c0,0.1-0.1,0.1-0.2,0.2
				c-0.1,0-0.2,0.1-0.3,0.1c-0.1,0-0.2,0-0.3,0c-0.1,0-0.2,0-0.3,0c-0.1,0-0.2,0-0.2,0h-0.4c-0.1,0-0.2,0-0.2-0.1
				c-0.1-0.1-0.1-0.1-0.1-0.2c0-0.1,0-0.1,0-0.2c0-0.1,0.1-0.2,0.1-0.2c0.1-0.1,0.1-0.1,0.2-0.1c0.1,0,0.2,0,0.3,0v-2.7
				c-0.1,0-0.2,0-0.3,0c-0.1,0-0.2,0-0.2-0.1c-0.1,0-0.1-0.1-0.1-0.2c0-0.1,0-0.1,0-0.2c0-0.1,0-0.1,0.1-0.2c0-0.1,0.1-0.1,0.2-0.1
				c0.1,0,0.1,0,0.2,0c0.2,0,0.4,0,0.6,0c0.2,0,0.4,0,0.6,0c0,0,0,0,0.1,0c0,0,0,0,0.1,0c0.1,0.1,0.2,0.1,0.2,0.2c0,0.1,0,0.2,0,0.3
				c0,0.1-0.1,0.1-0.1,0.1c0,0-0.1,0-0.1,0.1c-0.1,0-0.1,0-0.2,0c-0.1,0-0.1,0-0.2,0v2.7c0,0,0.1,0,0.1,0
				C31,26.6,31.1,26.6,31.1,26.6L31.1,26.6z"/>
			<path d="M30.8,27.5C30.8,27.5,30.8,27.5,30.8,27.5c-0.2,0-0.3,0-0.3,0c-0.1,0-0.1,0-0.2,0h-0.4c-0.1,0-0.2,0-0.3-0.1
				c-0.1-0.1-0.1-0.1-0.2-0.2c0-0.1,0-0.2,0-0.3c0-0.1,0.1-0.2,0.1-0.3c0.1-0.1,0.2-0.1,0.3-0.1c0.1,0,0.1,0,0.2,0V24
				c-0.1,0-0.1,0-0.2,0c-0.1,0-0.2,0-0.3-0.1c-0.1-0.1-0.1-0.1-0.1-0.2c0-0.1,0-0.2,0-0.2c0-0.1,0-0.1,0.1-0.2
				c0-0.1,0.1-0.1,0.2-0.2c0.1,0,0.1,0,0.2,0c0.2,0,0.4,0,0.6,0c0.2,0,0.4,0,0.6,0h0c0,0,0.1,0,0.1,0c0,0,0,0,0,0
				c0.1,0.1,0.2,0.2,0.2,0.3c0,0.1,0,0.3,0,0.4c0,0.1-0.1,0.1-0.1,0.1c-0.1,0-0.1,0.1-0.2,0.1c-0.1,0-0.1,0-0.2,0H31v2.5
				c0,0,0,0,0,0c0,0,0.1,0,0.1,0l0.1,0l0,0c0.1,0,0.2,0,0.3,0.1c0.1,0.1,0.1,0.2,0.2,0.3c0,0.1,0,0.2,0,0.3c0,0.1-0.1,0.2-0.2,0.2
				c-0.1,0-0.2,0.1-0.3,0.1C31,27.5,30.9,27.5,30.8,27.5z M30,26.7c0,0-0.1,0-0.1,0c-0.1,0-0.1,0-0.2,0.1c-0.1,0.1-0.1,0.1-0.1,0.2
				c0,0.1,0,0.1,0,0.2c0,0.1,0.1,0.1,0.1,0.2c0.1,0,0.1,0.1,0.2,0.1h0.4c0,0,0.1,0,0.2,0c0.1,0,0.2,0,0.3,0c0.1,0,0.2,0,0.3,0
				c0.1,0,0.2,0,0.2-0.1c0.1,0,0.1-0.1,0.2-0.2c0-0.1,0-0.1,0-0.2c0-0.1-0.1-0.1-0.1-0.2c-0.1-0.1-0.1-0.1-0.2-0.1h0
				c0,0-0.1,0-0.1,0c0,0-0.1,0-0.1,0h-0.1v-2.8h0.2c0,0,0.1,0,0.1,0c0,0,0.1,0,0.1-0.1c0,0,0.1-0.1,0.1-0.1c0-0.1,0.1-0.2,0-0.3
				c0-0.1-0.1-0.2-0.2-0.2c0,0,0,0-0.1,0c0,0,0,0,0,0c-0.2,0-0.4,0-0.6,0c-0.2,0-0.4,0-0.6,0c-0.1,0-0.1,0-0.2,0
				c-0.1,0-0.1,0.1-0.1,0.1c0,0.1-0.1,0.1-0.1,0.2c0,0.1,0,0.1,0,0.2c0,0.1,0,0.1,0.1,0.1c0.1,0.1,0.1,0.1,0.2,0.1
				c0.1,0,0.2,0,0.3,0h0.1v2.8l-0.1,0C30.1,26.7,30.1,26.7,30,26.7z"/>
		</g>
		<g>
			<path class="st40" d="M34.6,23.3c0-0.1,0.1-0.2,0.1-0.2c0.1-0.1,0.1-0.1,0.2-0.1c0.1,0,0.1,0,0.2,0c0.1,0,0.1,0.1,0.2,0.2
				c0,0,0,0,0,0.1c0,0,0,0.1,0,0.1c0,0.6,0,1.3,0,1.9c0,0.6,0,1.3-0.1,1.9c0,0.1,0,0.2-0.1,0.2c-0.1,0.1-0.1,0.1-0.2,0.1
				c-0.1,0-0.2,0-0.2,0c-0.1,0-0.1-0.1-0.2-0.2c0,0,0,0,0,0v0c-0.3-0.5-0.6-0.9-0.9-1.4c-0.3-0.4-0.6-0.9-0.9-1.3v1.5
				c0,0.2,0,0.4,0,0.5c0,0.1,0,0.3,0,0.3c0,0.1,0,0.2,0,0.2c0,0,0,0.1,0,0.1c0,0.1-0.1,0.2-0.2,0.2c-0.1,0-0.2,0-0.2,0
				c-0.1,0-0.1-0.1-0.2-0.1c-0.1-0.1-0.1-0.2-0.1-0.3c0-0.1,0-0.2,0-0.3c0-0.1,0-0.3,0-0.5c0-0.2,0-0.4,0-0.5c0-0.2,0-0.4,0-0.6
				c0-0.2,0-0.4,0-0.5c0-0.2,0-0.3,0-0.4c0-0.2,0-0.3,0-0.5c0-0.1,0-0.3,0-0.5c0-0.1,0-0.1,0.1-0.2c0-0.1,0.1-0.1,0.1-0.1
				c0.1,0,0.1,0,0.2-0.1c0.1,0,0.1,0,0.2,0c0,0,0.1,0.1,0.2,0.1c0.1,0.1,0.1,0.1,0.2,0.2c0,0.1,0.1,0.1,0.1,0.2
				c0,0.1,0.1,0.1,0.1,0.2c0.1,0.1,0.2,0.3,0.4,0.5c0.1,0.2,0.3,0.4,0.4,0.5c0.1,0.2,0.2,0.3,0.4,0.5c0.1,0.2,0.2,0.3,0.3,0.5
				c0-0.4,0-0.8,0-1.2C34.6,24.2,34.6,23.8,34.6,23.3L34.6,23.3z"/>
			<path d="M32.4,27.7C32.4,27.7,32.4,27.7,32.4,27.7c-0.2,0-0.3-0.1-0.3-0.2C32,27.4,32,27.3,32,27.2v-1.9c0-0.2,0-0.4,0-0.5
				c0-0.2,0-0.3,0-0.4c0-0.2,0-0.3,0-0.5c0-0.2,0-0.3,0-0.5c0-0.1,0-0.2,0.1-0.2c0-0.1,0.1-0.1,0.2-0.1c0.1,0,0.1-0.1,0.2-0.1
				c0.1,0,0.1,0,0.2,0c0.1,0,0.1,0.1,0.2,0.1c0.1,0.1,0.1,0.1,0.2,0.2c0.1,0.1,0.1,0.1,0.1,0.2c0,0.1,0.1,0.1,0.1,0.2
				c0.1,0.1,0.2,0.3,0.4,0.5c0.1,0.2,0.3,0.4,0.4,0.5c0.1,0.2,0.2,0.3,0.4,0.5c0.1,0.1,0.1,0.2,0.2,0.3c0-0.3,0-0.7,0-1
				c0-0.4,0-0.8,0-1.2l0-0.1c0-0.1,0.1-0.2,0.1-0.3c0.1-0.1,0.1-0.1,0.2-0.1c0.1,0,0.2,0,0.2,0c0.1,0,0.2,0.1,0.2,0.2
				c0,0,0,0.1,0.1,0.1c0,0,0,0.1,0,0.1c0,0.6,0,1.3,0,1.9c0,0.6,0,1.3-0.1,1.9c0,0.1,0,0.2-0.1,0.3c-0.1,0.1-0.2,0.1-0.2,0.1
				c-0.1,0-0.2,0-0.3,0c0,0-0.1,0-0.1,0v0.1l-0.1-0.2c-0.3-0.5-0.6-0.9-0.8-1.4c-0.3-0.4-0.5-0.8-0.8-1.1v1.8c0,0.1,0,0.3,0,0.3
				c0,0.1,0,0.2,0,0.2c0,0.1,0,0.1,0,0.1c0,0.1-0.1,0.2-0.2,0.3C32.6,27.6,32.5,27.7,32.4,27.7z M32.4,23.2
				C32.4,23.2,32.4,23.2,32.4,23.2c-0.1,0-0.1,0-0.2,0c0,0-0.1,0.1-0.1,0.1c0,0,0,0.1,0,0.2c0,0.2,0,0.3,0,0.5c0,0.2,0,0.3,0,0.5
				c0,0.1,0,0.2,0,0.4c0,0.2,0,0.3,0,0.5v1.9c0,0.1,0,0.2,0.1,0.2c0,0.1,0.1,0.1,0.2,0.1c0.1,0,0.1,0,0.2,0c0.1,0,0.1-0.1,0.1-0.2
				c0,0,0-0.1,0-0.1c0,0,0-0.1,0-0.2c0-0.1,0-0.2,0-0.3v-2.2l0.1,0.2c0.3,0.4,0.6,0.9,0.9,1.3c0.3,0.4,0.6,0.9,0.8,1.4l0,0l0,0
				c0,0.1,0.1,0.1,0.1,0.1c0.1,0,0.1,0,0.2,0c0.1,0,0.1,0,0.2-0.1c0,0,0.1-0.1,0.1-0.2c0-0.6,0.1-1.3,0.1-1.9c0-0.6,0-1.3,0-1.9
				c0,0,0,0,0-0.1c0,0,0,0,0-0.1c0-0.1-0.1-0.1-0.1-0.1c-0.1,0-0.1,0-0.2,0c-0.1,0-0.1,0-0.2,0.1c0,0-0.1,0.1-0.1,0.2l0,0
				c0,0.4,0,0.8,0,1.2c0,0.4,0,0.8,0,1.2l0,0.2l-0.1-0.2c-0.1-0.2-0.2-0.3-0.3-0.5c-0.1-0.2-0.2-0.3-0.4-0.5
				c-0.1-0.2-0.3-0.3-0.4-0.5c-0.1-0.2-0.3-0.4-0.4-0.5c0,0-0.1-0.1-0.1-0.2c0-0.1-0.1-0.1-0.1-0.2c0-0.1-0.1-0.1-0.1-0.2
				c0,0-0.1-0.1-0.1-0.1C32.5,23.2,32.5,23.2,32.4,23.2z"/>
		</g>
		<g>
			<path class="st42" d="M38.6,23.2c0.1,0,0.1,0.1,0.2,0.2c0.1,0.1,0.1,0.2,0.1,0.2c0,0.1,0,0.2,0,0.2c0,0.1-0.1,0.1-0.2,0.1
				c-0.2,0-0.4,0.1-0.5,0c-0.2,0-0.3,0-0.4,0c0,0.5,0,1.1,0,1.6c0,0.5,0,1.1,0,1.6c0,0.1,0,0.2-0.1,0.3c-0.1,0.1-0.2,0.1-0.3,0.1
				c-0.1,0-0.2,0-0.3-0.1c-0.1-0.1-0.1-0.2-0.1-0.3c0-0.5,0-1.1,0-1.6c0-0.5,0-1,0-1.6c0,0-0.1,0-0.2,0c-0.1,0-0.2,0-0.3,0
				c-0.1,0-0.2,0-0.3,0s-0.2,0-0.3-0.1c-0.1,0-0.1-0.1-0.1-0.2c0-0.1,0-0.1,0-0.2c0-0.1,0.1-0.1,0.1-0.2c0-0.1,0.1-0.1,0.2-0.1
				c0.3,0,0.7,0,1,0c0.3,0,0.7,0,1,0c0.1,0,0.2,0,0.3,0C38.4,23.2,38.5,23.2,38.6,23.2L38.6,23.2z"/>
			<path d="M37.4,27.6C37.3,27.6,37.3,27.6,37.4,27.6c-0.2,0-0.3-0.1-0.3-0.1c-0.1-0.1-0.1-0.2-0.1-0.3c0-0.5,0-1.1,0-1.6v-1.5
				c0,0-0.1,0-0.1,0c-0.1,0-0.2,0-0.3,0c-0.1,0-0.2,0-0.3,0c-0.1,0-0.2,0-0.3-0.1c-0.1,0-0.1-0.1-0.2-0.2c0-0.1,0-0.2,0-0.2
				c0-0.1,0.1-0.2,0.1-0.2c0.1-0.1,0.1-0.1,0.2-0.2l0,0c0.3,0,0.7,0,1,0c0.4,0,0.9,0,1.3,0c0.1,0,0.2,0,0.3,0l0,0l0,0
				c0.1,0,0.2,0.1,0.2,0.2c0.1,0.1,0.1,0.2,0.1,0.3c0,0.1,0,0.2-0.1,0.3c0,0.1-0.1,0.1-0.3,0.2c-0.2,0-0.4,0.1-0.6,0
				c-0.1,0-0.3,0-0.4,0c0,0.5,0,1,0,1.5c0,0.5,0,1.1,0,1.6c0,0.1,0,0.3-0.1,0.3C37.5,27.6,37.5,27.6,37.4,27.6z M36.9,23.9
				L36.9,23.9l0.1,1.6c0,0.5,0,1,0,1.6c0,0.1,0,0.2,0.1,0.2c0.1,0.1,0.1,0.1,0.2,0.1c0.1,0,0.1,0,0.2-0.1c0.1,0,0.1-0.1,0.1-0.2
				c0-0.6,0-1.1,0-1.6c0-0.5,0-1,0-1.6v-0.1h0.1c0.1,0,0.3,0,0.4,0c0.2,0,0.3,0,0.5,0c0.1,0,0.1-0.1,0.2-0.1c0-0.1,0-0.1,0-0.2
				c0-0.1,0-0.1-0.1-0.2c0-0.1-0.1-0.1-0.2-0.1l0,0c-0.1,0-0.2,0-0.3,0c-0.4,0-0.9,0-1.3,0c-0.3,0-0.7,0-1,0c-0.1,0-0.1,0.1-0.1,0.1
				c0,0.1-0.1,0.1-0.1,0.2c0,0.1,0,0.1,0,0.2c0,0.1,0,0.1,0.1,0.1c0.1,0,0.2,0.1,0.3,0.1c0.1,0,0.2,0,0.3,0c0.1,0,0.2,0,0.3,0
				C36.8,23.9,36.9,23.9,36.9,23.9z"/>
		</g>
	</g>
</g>
<g id="grid" class="st634">
</g>
</svg>
