<svg xmlns="http://www.w3.org/2000/svg" viewBox="0 0 49 49"><defs><style>.cls-1{fill:#fff;}.cls-2{fill:#cadac8;}</style></defs><title>rabbit</title><g id="logo_bg" data-name="logo bg"><rect class="cls-1" width="49" height="49"/></g><g id="logo"><path class="cls-2" d="M29.77,28.22c0,.93-2.22,2.59-6.3,2S20,26.92,20,26.92a5.94,5.94,0,0,1,3.23-4.28c-.42-.56-1.29-1.56-1.29-1.56-.19,3.71-4.45,4.45-4.45,4.45-1.11-5.19,3.15-8.15,4.26-7.41.92.61,1.71,3.38,2,4.32a3.56,3.56,0,0,1,.54-.15,5.13,5.13,0,0,1,1.48.19l.14,0a12.38,12.38,0,0,0-.05-2.34c-.19-1.3-.74-5,2.22-7.78,0,0,2.41,4.26.93,8.52A8.55,8.55,0,0,0,28,24.19,9.7,9.7,0,0,1,29.77,28.22Z"/><path d="M25.08,30.68a12.17,12.17,0,0,1-1.64-.12,4.58,4.58,0,0,1-3.28-1.63,2.84,2.84,0,0,1-.5-2.06,6.35,6.35,0,0,1,3.07-4.32l-.61-.73c-.66,3.3-4.57,4-4.61,4l-.29.05-.06-.29a6.9,6.9,0,0,1,2.57-7.31c.86-.59,1.67-.75,2.16-.42.89.59,1.61,2.76,2,4.19l.28-.07h.05a6.15,6.15,0,0,1,1.34.14,11.06,11.06,0,0,0-.07-1.92v0c-.2-1.41-.74-5.15,2.32-8l.28-.27.19.34c.1.18,2.46,4.43.95,8.77l0,0a8.34,8.34,0,0,0-.87,3,9.84,9.84,0,0,1,1.74,4.12,1.65,1.65,0,0,1-.66,1.16A6.51,6.51,0,0,1,25.08,30.68ZM20.25,27a2.27,2.27,0,0,0,.41,1.59A4,4,0,0,0,23.52,30c2.75.37,4.64-.29,5.5-1a1.11,1.11,0,0,0,.46-.7,9.53,9.53,0,0,0-1.69-3.85l-.07-.09v-.11a8.83,8.83,0,0,1,.94-3.39,11,11,0,0,0-.73-7.89c-2.5,2.61-2,5.92-1.84,7.2v0a12.64,12.64,0,0,1,.05,2.41l0,.36-.35-.08-.12,0H25.6a4.9,4.9,0,0,0-1.36-.17,3.59,3.59,0,0,0-.47.13l-.23.08-.23.11A5.61,5.61,0,0,0,20.25,27Zm1-8.68a2.38,2.38,0,0,0-1.22.48,6.25,6.25,0,0,0-2.38,6.37,7,7,0,0,0,1.77-.74,4,4,0,0,0,2.13-3.36l0-.75.5.57s.76.87,1.2,1.44c-.45-1.67-1.14-3.52-1.78-3.95A.47.47,0,0,0,21.29,18.32Z"/><circle class="cls-1" cx="21.71" cy="25.72" r="1.67"/><path d="M21.71,27.63a1.91,1.91,0,1,1,1.91-1.91A1.91,1.91,0,0,1,21.71,27.63Zm0-3.33a1.42,1.42,0,1,0,1.42,1.42A1.43,1.43,0,0,0,21.71,24.3Z"/><path class="cls-1" d="M24.12,27.39a8.67,8.67,0,0,1,3.71-.19,2.07,2.07,0,0,0-1.55-2.72,1.35,1.35,0,0,0-.65,0C25,24.67,23.7,25.28,24.12,27.39Z"/><path d="M23.94,27.7l-.05-.26c-.47-2.33,1-3,1.68-3.18a1.6,1.6,0,0,1,.77,0,2.26,2.26,0,0,1,1.54,1,2.76,2.76,0,0,1,.18,2l-.06.21-.22,0a8.47,8.47,0,0,0-3.59.18Zm2-3a1.08,1.08,0,0,0-.28,0,1.88,1.88,0,0,0-1.37,2.36,8.9,8.9,0,0,1,3.32-.16,2.15,2.15,0,0,0-.19-1.4,1.8,1.8,0,0,0-1.23-.8Z"/><path class="cls-1" d="M27.69,15a4.71,4.71,0,0,0-1,3.77c.09,1.36.38,1.65.38,2.39C27,21.18,29.54,17,27.69,15Z"/><path d="M26.79,22.06v-.88a3.17,3.17,0,0,0-.13-.83,7.94,7.94,0,0,1-.25-1.54c-.19-2.74,1.06-3.92,1.12-4l.18-.16.16.17c.82.87,1,2.27.42,4.06a12.06,12.06,0,0,1-1,2.4Zm.9-6.67a5,5,0,0,0-.79,3.38,7.42,7.42,0,0,0,.24,1.46l0,.16C27.74,19.23,28.7,16.8,27.69,15.4Z"/><path class="cls-1" d="M22.18,29.15s-.37-.19-.37-.37.93-.19.93,0S22.18,29.15,22.18,29.15Z"/><path d="M22.15,29.48,22,29.42c-.16-.08-.54-.31-.54-.64,0-.17.1-.44.77-.44s.77.28.77.44-.26.49-.76.66Zm-.07-.62Z"/><path d="M13.28,33.47h-.62v2a.37.37,0,0,1-.08.26.26.26,0,0,1-.2.08.27.27,0,0,1-.2-.09.37.37,0,0,1-.08-.26v-2h-.62a.31.31,0,0,1-.21-.06.22.22,0,0,1-.07-.17.21.21,0,0,1,.07-.17.32.32,0,0,1,.21-.06h1.79a.32.32,0,0,1,.22.06.22.22,0,0,1,.07.17.21.21,0,0,1-.07.17A.32.32,0,0,1,13.28,33.47Z"/><path d="M14,34.05l.34,1.16.31-1.08.07-.23a.3.3,0,0,1,.09-.12.27.27,0,0,1,.18-.06.27.27,0,0,1,.18.06.32.32,0,0,1,.09.12s0,.12.07.23l.31,1.08L16,34.05l.06-.18a.24.24,0,0,1,.07-.1.21.21,0,0,1,.14,0,.23.23,0,0,1,.16.06.2.2,0,0,1,.07.15.79.79,0,0,1-.06.24L16,35.43l-.09.23a.34.34,0,0,1-.1.13.32.32,0,0,1-.36,0,.36.36,0,0,1-.1-.14q0-.09-.07-.22l-.3-1-.29,1a1.24,1.24,0,0,1-.12.32.25.25,0,0,1-.23.11.3.3,0,0,1-.15,0,.28.28,0,0,1-.1-.1.71.71,0,0,1-.07-.15l0-.13-.42-1.24a.88.88,0,0,1-.06-.24.21.21,0,0,1,.07-.15.22.22,0,0,1,.16-.07.19.19,0,0,1,.17.07A1.08,1.08,0,0,1,14,34.05Z"/><path d="M17.14,33.49a.27.27,0,0,1-.19-.07.26.26,0,0,1,0-.37.26.26,0,0,1,.18-.07.27.27,0,0,1,.18.06.23.23,0,0,1,.08.19.24.24,0,0,1-.08.19A.26.26,0,0,1,17.14,33.49Zm.26.54v1.5a.33.33,0,0,1-.07.24.25.25,0,0,1-.19.08.23.23,0,0,1-.19-.08.34.34,0,0,1-.07-.23V34a.33.33,0,0,1,.07-.23.24.24,0,0,1,.19-.08.25.25,0,0,1,.19.08A.3.3,0,0,1,17.39,34Z"/><path d="M18,33.77H18v-.31q0-.13,0-.2a.29.29,0,0,1,0-.12.23.23,0,0,1,.09-.09.25.25,0,0,1,.13,0,.26.26,0,0,1,.18.07.22.22,0,0,1,.07.12,1.09,1.09,0,0,1,0,.2v.35h.19a.24.24,0,0,1,.17.05.17.17,0,0,1,.06.13.15.15,0,0,1-.08.15.54.54,0,0,1-.24,0h-.1v1a1.57,1.57,0,0,0,0,.19.19.19,0,0,0,0,.11.16.16,0,0,0,.12,0l.12,0,.12,0a.16.16,0,0,1,.11.05.17.17,0,0,1,.05.12.21.21,0,0,1-.14.19.93.93,0,0,1-.39.07.68.68,0,0,1-.37-.08.38.38,0,0,1-.16-.23,1.53,1.53,0,0,1,0-.39v-1h-.07a.25.25,0,0,1-.17-.05.17.17,0,0,1-.06-.13.17.17,0,0,1,.06-.13A.27.27,0,0,1,18,33.77Z"/><path d="M21.16,35.19a.45.45,0,0,1-.06.21.71.71,0,0,1-.18.21.92.92,0,0,1-.3.16,1.27,1.27,0,0,1-.41.06,1,1,0,0,1-.75-.28,1,1,0,0,1-.27-.75,1.24,1.24,0,0,1,.12-.56.89.89,0,0,1,.36-.38,1.21,1.21,0,0,1,.93-.07,1,1,0,0,1,.28.15.73.73,0,0,1,.18.2.39.39,0,0,1,.06.2.21.21,0,0,1-.07.16.24.24,0,0,1-.17.06.17.17,0,0,1-.11,0l-.1-.11a.79.79,0,0,0-.2-.22.49.49,0,0,0-.63.11.78.78,0,0,0-.14.49,1,1,0,0,0,0,.27.61.61,0,0,0,.1.21.45.45,0,0,0,.17.13.5.5,0,0,0,.21,0,.48.48,0,0,0,.27-.07.63.63,0,0,0,.2-.22.51.51,0,0,1,.1-.14.19.19,0,0,1,.13,0,.2.2,0,0,1,.16.07A.23.23,0,0,1,21.16,35.19Z"/><path d="M22,33.27V34a1.11,1.11,0,0,1,.19-.18.69.69,0,0,1,.21-.1.88.88,0,0,1,.24,0,.72.72,0,0,1,.35.08.65.65,0,0,1,.31.45,1.64,1.64,0,0,1,0,.26v1a.34.34,0,0,1-.07.24.24.24,0,0,1-.19.08q-.26,0-.26-.32v-.88a.8.8,0,0,0-.07-.38.29.29,0,0,0-.28-.13.42.42,0,0,0-.25.08.47.47,0,0,0-.17.22,1.38,1.38,0,0,0,0,.41v.69a.35.35,0,0,1-.07.23.24.24,0,0,1-.19.08q-.26,0-.26-.32V33.27a.36.36,0,0,1,.07-.24.24.24,0,0,1,.19-.08A.24.24,0,0,1,22,33,.35.35,0,0,1,22,33.27Z"/><path d="M24.35,35.9l0-.12-.64-1.61a.6.6,0,0,1-.06-.2.24.24,0,0,1,0-.12.25.25,0,0,1,.09-.09.25.25,0,0,1,.12,0,.2.2,0,0,1,.17.07.66.66,0,0,1,.1.2l.44,1.28.42-1.19a2,2,0,0,1,.09-.23.26.26,0,0,1,.08-.11.23.23,0,0,1,.13,0,.22.22,0,0,1,.11,0,.22.22,0,0,1,.08.08.23.23,0,0,1,0,.11l0,.1,0,.13L24.86,36a2.07,2.07,0,0,1-.17.37.56.56,0,0,1-.22.2.81.81,0,0,1-.37.07.9.9,0,0,1-.34,0,.18.18,0,0,1-.11-.18.18.18,0,0,1,.05-.14.23.23,0,0,1,.16,0H24a.31.31,0,0,0,.14,0,.25.25,0,0,0,.09-.09A1.4,1.4,0,0,0,24.35,35.9Z"/><path d="M27.74,34.6h-.2v.89a.37.37,0,0,1-.08.26.26.26,0,0,1-.2.08.26.26,0,0,1-.21-.09.39.39,0,0,1-.07-.26V33.35a.3.3,0,0,1,.35-.35h.92l.32,0a.82.82,0,0,1,.24.07.7.7,0,0,1,.23.16.69.69,0,0,1,.15.24.79.79,0,0,1,.05.29.69.69,0,0,1-.18.5,1,1,0,0,1-.53.26,1,1,0,0,1,.29.24,2.4,2.4,0,0,1,.24.33,2.47,2.47,0,0,1,.17.32.63.63,0,0,1,.06.19.2.2,0,0,1,0,.11.25.25,0,0,1-.1.09.3.3,0,0,1-.14,0,.27.27,0,0,1-.16,0,.43.43,0,0,1-.11-.11l-.13-.2-.23-.38a2.06,2.06,0,0,0-.22-.32.54.54,0,0,0-.19-.15A.67.67,0,0,0,27.74,34.6Zm.32-1.17h-.52v.77H28a1.41,1.41,0,0,0,.34,0A.4.4,0,0,0,28.6,34a.34.34,0,0,0,.07-.23.35.35,0,0,0-.22-.34A1.18,1.18,0,0,0,28.06,33.43Z"/><path d="M31,35.54a1.6,1.6,0,0,1-.36.22,1,1,0,0,1-.39.07.75.75,0,0,1-.35-.08.58.58,0,0,1-.23-.21.55.55,0,0,1-.08-.29.52.52,0,0,1,.13-.36.67.67,0,0,1,.37-.2l.24-.05.33-.07.3-.08a.54.54,0,0,0-.08-.3.37.37,0,0,0-.3-.1.63.63,0,0,0-.3.06.48.48,0,0,0-.17.17l-.1.15a.17.17,0,0,1-.13,0,.22.22,0,0,1-.15-.06.18.18,0,0,1-.06-.14.44.44,0,0,1,.1-.27.69.69,0,0,1,.3-.21,1.36,1.36,0,0,1,.51-.08,1.45,1.45,0,0,1,.54.08.5.5,0,0,1,.28.26,1.12,1.12,0,0,1,.08.46q0,.18,0,.31t0,.28a1,1,0,0,0,0,.3,1,1,0,0,1,0,.2.19.19,0,0,1-.08.15.25.25,0,0,1-.17.07.23.23,0,0,1-.16-.08A1.11,1.11,0,0,1,31,35.54Zm0-.75-.33.09-.3.07a.41.41,0,0,0-.16.09.22.22,0,0,0-.08.18.26.26,0,0,0,.09.2.33.33,0,0,0,.23.08.61.61,0,0,0,.28-.07.45.45,0,0,0,.19-.17.79.79,0,0,0,.07-.39Z"/><path d="M32.43,33.25V34a1.21,1.21,0,0,1,.3-.23.79.79,0,0,1,.38-.08.83.83,0,0,1,.45.12.8.8,0,0,1,.3.35,1.31,1.31,0,0,1,.11.55,1.48,1.48,0,0,1-.06.43,1,1,0,0,1-.17.34.78.78,0,0,1-.28.22.81.81,0,0,1-.36.08.86.86,0,0,1-.22,0,.66.66,0,0,1-.18-.07l-.13-.1-.14-.15v.05a.31.31,0,0,1-.07.22.23.23,0,0,1-.18.08.22.22,0,0,1-.18-.08.33.33,0,0,1-.07-.22V33.28A.38.38,0,0,1,32,33a.21.21,0,0,1,.18-.08.23.23,0,0,1,.18.08A.33.33,0,0,1,32.43,33.25Zm0,1.54a.71.71,0,0,0,.14.48.46.46,0,0,0,.37.17.43.43,0,0,0,.34-.17.74.74,0,0,0,.14-.49,1,1,0,0,0-.06-.35.51.51,0,0,0-.17-.23.41.41,0,0,0-.25-.08.45.45,0,0,0-.26.08.54.54,0,0,0-.18.23A.91.91,0,0,0,32.45,34.79Z"/><path d="M34.81,33.25V34a1.21,1.21,0,0,1,.3-.23.79.79,0,0,1,.38-.08.83.83,0,0,1,.45.12.8.8,0,0,1,.3.35,1.31,1.31,0,0,1,.11.55,1.48,1.48,0,0,1-.06.43,1,1,0,0,1-.17.34.78.78,0,0,1-.28.22.81.81,0,0,1-.36.08.86.86,0,0,1-.22,0,.66.66,0,0,1-.18-.07l-.13-.1-.14-.15v.05a.31.31,0,0,1-.07.22.23.23,0,0,1-.18.08.22.22,0,0,1-.18-.08.33.33,0,0,1-.07-.22V33.28a.38.38,0,0,1,.06-.24.21.21,0,0,1,.18-.08.23.23,0,0,1,.18.08A.33.33,0,0,1,34.81,33.25Zm0,1.54a.71.71,0,0,0,.14.48.46.46,0,0,0,.37.17.43.43,0,0,0,.34-.17.74.74,0,0,0,.14-.49,1,1,0,0,0-.06-.35.51.51,0,0,0-.17-.23.41.41,0,0,0-.25-.08.45.45,0,0,0-.26.08.54.54,0,0,0-.18.23A.91.91,0,0,0,34.83,34.79Z"/><path d="M37,33.49a.27.27,0,0,1-.19-.07.26.26,0,0,1,0-.37A.26.26,0,0,1,37,33a.27.27,0,0,1,.18.06.23.23,0,0,1,.08.19.24.24,0,0,1-.08.19A.26.26,0,0,1,37,33.49Zm.26.54v1.5a.33.33,0,0,1-.07.24.25.25,0,0,1-.19.08.23.23,0,0,1-.19-.08.34.34,0,0,1-.07-.23V34a.33.33,0,0,1,.07-.23.24.24,0,0,1,.19-.08.25.25,0,0,1,.19.08A.3.3,0,0,1,37.28,34Z"/><path d="M37.84,33.77h.06v-.31q0-.13,0-.2a.29.29,0,0,1,0-.12.23.23,0,0,1,.09-.09.25.25,0,0,1,.13,0,.26.26,0,0,1,.18.07.22.22,0,0,1,.07.12,1.09,1.09,0,0,1,0,.2v.35h.19a.24.24,0,0,1,.17.05.17.17,0,0,1,.06.13.15.15,0,0,1-.08.15.54.54,0,0,1-.24,0h-.1v1a1.57,1.57,0,0,0,0,.19.19.19,0,0,0,0,.11.16.16,0,0,0,.12,0l.12,0,.12,0a.16.16,0,0,1,.11.05.17.17,0,0,1,.05.12.21.21,0,0,1-.14.19.93.93,0,0,1-.39.07.68.68,0,0,1-.37-.08.38.38,0,0,1-.16-.23,1.53,1.53,0,0,1,0-.39v-1h-.07a.25.25,0,0,1-.17-.05A.17.17,0,0,1,37.6,34a.17.17,0,0,1,.06-.13A.27.27,0,0,1,37.84,33.77Z"/></g></svg>