<svg xmlns="http://www.w3.org/2000/svg" viewBox="0 0 49 49"><defs><style>.cls-1{fill:#fff;}.cls-2{opacity:0.41;}</style></defs><title>sharp</title><g id="logo_bg" data-name="logo bg"><rect width="49" height="49"/></g><g id="logo"><circle class="cls-1" cx="10.09" cy="24.93" r="5.01"/><path d="M13.21,20.19s-6.06,2-8.8,4.27A22,22,0,0,1,13.21,20.19Z"/><path d="M4.41,24.12s7-.17,11.53,2C15.94,26.17,12,24.37,4.41,24.12Z"/><path d="M15.54,25.94A23.77,23.77,0,0,0,5.35,28.47,33,33,0,0,1,15.54,25.94Z"/><path d="M39,21.72a1.25,1.25,0,0,1,.85.94A2.2,2.2,0,0,0,39,21.72Z"/><path class="cls-1" d="M22.8,25.49a1.32,1.32,0,0,1-.13.58,1.38,1.38,0,0,1-.36.46,1.7,1.7,0,0,1-.57.3,2.36,2.36,0,0,1-.74.11,3.65,3.65,0,0,1-.77-.08,3.08,3.08,0,0,1-.71-.24l.21-.77a3.47,3.47,0,0,0,.58.21,2.52,2.52,0,0,0,.66.09,1.06,1.06,0,0,0,.59-.15.48.48,0,0,0,.23-.43.51.51,0,0,0-.22-.43,2.94,2.94,0,0,0-.66-.35,4.74,4.74,0,0,1-.56-.27,1.81,1.81,0,0,1-.41-.31,1.27,1.27,0,0,1-.26-.39,1.36,1.36,0,0,1,.36-1.5A1.89,1.89,0,0,1,21.25,22,3.3,3.3,0,0,1,22,22a2.53,2.53,0,0,1,.63.23l-.19.77a3,3,0,0,0-.53-.2,2.14,2.14,0,0,0-.57-.08,1,1,0,0,0-.51.12.4.4,0,0,0-.19.37.57.57,0,0,0,0,.2.41.41,0,0,0,.12.16,1.24,1.24,0,0,0,.23.15l.36.17.55.26a2.27,2.27,0,0,1,.46.32,1.44,1.44,0,0,1,.32.42A1.18,1.18,0,0,1,22.8,25.49Z"/><path class="cls-1" d="M26.54,26.86v-2h-2v2h-1v-4.8h1V24h2V22.06h1v4.8Z"/><path class="cls-1" d="M32.94,26.86h-1l-.34-1h-2l-.34,1h-1L30,22.06h1.1Zm-2.37-4-.72,2.18h1.44Z"/><path class="cls-1" d="M37.05,23.52a1.31,1.31,0,0,1-.29.86,1.81,1.81,0,0,1-.83.54l1.62,1.94H36.3l-1.39-1.75h-.32v1.75h-1v-4.8H35a3.52,3.52,0,0,1,.82.09,2,2,0,0,1,.65.27,1.32,1.32,0,0,1,.42.46A1.31,1.31,0,0,1,37.05,23.52Zm-1,0a.57.57,0,0,0-.29-.53,1.49,1.49,0,0,0-.75-.17h-.42v1.5h.3a1.54,1.54,0,0,0,.84-.2A.66.66,0,0,0,36,23.54Z"/><path class="cls-1" d="M41.41,23.57a1.39,1.39,0,0,1-.17.69,1.46,1.46,0,0,1-.45.49,2.07,2.07,0,0,1-.68.3,3.49,3.49,0,0,1-.84.1h-.19v1.71h-1v-4.8h1.31a3.4,3.4,0,0,1,.8.09,2,2,0,0,1,.65.28,1.35,1.35,0,0,1,.43.47A1.39,1.39,0,0,1,41.41,23.57Zm-1,0a.61.61,0,0,0-.28-.55,1.39,1.39,0,0,0-.75-.18h-.3v1.52h.25a1.4,1.4,0,0,0,.79-.19A.67.67,0,0,0,40.4,23.57Z"/><g class="cls-2"><path d="M18.38,21.9l24.26-.68,1.37,2s-11.45,1.2-25.62,1.54Z"/></g></g></svg>