<svg xmlns="http://www.w3.org/2000/svg" viewBox="0 0 49 49"><defs><style>.cls-1{fill:#88f9d4;}</style></defs><title>space</title><g id="logo_bg" data-name="logo bg"><rect width="49" height="49"/></g><g id="logo"><path class="cls-1" d="M11.58,30.92c-.2,0-.29-.09-.29-.29v-.89c0-.18.07-.26.24-.27.69,0,1.37-.07,2-.14.14,0,.2-.14.19-.29s-.11-.29-.25-.28h-1.2a.94.94,0,0,1-1-1.06V27a2,2,0,0,1,1-1.92c.87-.48,1.75-.93,2.64-1.37.29-.14.43-.12.44.09q0,.57,0,1.14a.54.54,0,0,1-.38.55l-2.19,1a.32.32,0,0,0-.18.35c0,.15.1.23.24.19l1.33-.31c1.05-.24,1.61.34,1.6,1.39v1.2a1.54,1.54,0,0,1-1.68,1.7Zm.84-5.2a1.08,1.08,0,0,0-.59,1l.05.63c0,.42.2.5.45.49l1.76-.07c.46,0,.61.39.62.78l0,.59a.81.81,0,0,1-.79.91c-.66,0-1.32,0-2,0v.08c.66,0,1.32,0,2,0a.89.89,0,0,0,.87-1l0-.6c-.05-.45-.16-.9-.7-.87l-1.76.09c-.23,0-.36-.06-.39-.43l-.06-.64a1,1,0,0,1,.54-.94l2-1v-.09Q13.4,25.21,12.42,25.72Z"/><path class="cls-1" d="M17,30.92c-.2,0-.29-.08-.29-.31V23a.49.49,0,0,1,.29-.47l2.16-1.21c.45-.24,1.15-.6,1.67-.36s.55,1.14.56,1.66v2.23c0,1.43-.22,3.52-2,3.7l-.9.08c0,.65,0,1.3,0,1.95,0,.23-.08.31-.28.31Zm3.42-6.11q0-.61,0-1.22c0-.85-.24-1.89-1.3-1.29l-1.52.81c0,2.32,0,4.65,0,7h.08q0-1.24,0-2.48l1.57-.27C20.4,27.12,20.45,25.73,20.42,24.81Zm-2.78-1.64,1.46-.76c1-.56,1.19.45,1.2,1.22l0,1.22c0,.86,0,2.13-1.09,2.32l-1.57.29Q17.66,25.31,17.65,23.17ZM18.43,26l.67-.19c.34-.12.36-.59.34-.89l0-.82c0-.19,0-.73-.38-.56l-.65.29Q18.41,25,18.43,26Z"/><path class="cls-1" d="M30.32,30.92c-1.68,0-2-1.12-2-2.6V22.87c0-.51-.08-1.56.47-1.87s1.12.14,1.5.35c.7.37,1.4.75,2.09,1.14a.52.52,0,0,1,.32.5c0,.42,0,.84,0,1.26s-.1.38-.32.27l-1.71-.78c-.4-.21-.51.2-.5.52q0,1.87,0,3.75c0,.35.1.72.5.75l1.65.17c.21,0,.3.17.29.46s0,.82,0,1.23c0,.23-.09.31-.29.31Zm.17-1c-1.08,0-1.22-.79-1.22-1.72q0-2.33,0-4.65c0-1,.16-1.65,1.22-1.1l1.41.73v-.11l-1.42-.74c-.28-.15-.75-.4-1-.16s-.25,1-.26,1.34q0,2.34,0,4.68c0,1,.13,1.83,1.3,1.85l1.36,0V30Z"/><path class="cls-1" d="M33.8,30.92c-.2,0-.29-.08-.29-.31V23.38c0-.22.07-.27.25-.17q1.91,1,3.79,2.06a.49.49,0,0,1,.3.46v.91c0,.19-.09.23-.3.13l-2.3-1.06v.77l1.62.62a.4.4,0,0,1,.3.41v.87c0,.2-.09.28-.3.24l-1.61-.3v.87l2.26.22c.2,0,.29.11.29.3v.91c0,.2-.09.29-.29.29Zm.66-.9q0-1.39,0-2.79l2,.55v-.09l-2-.57q0-1.35,0-2.7,1.36.68,2.71,1.4v-.08q-1.39-.74-2.78-1.45c0,1.94,0,3.88.06,5.83l2.74.07v-.08Z"/><path class="cls-1" d="M27.27,27.5a12.09,12.09,0,0,0,.22-1.44,9.68,9.68,0,0,0-2.7-7.66,9.68,9.68,0,0,0-2.7,7.66,12.09,12.09,0,0,0,.22,1.44l-.62.43v3l1.69-1.08a2.05,2.05,0,0,0,1.19.72V31H25v-.39a2.05,2.05,0,0,0,1.19-.72L27.89,31v-3Zm-3.6-4.64a6.32,6.32,0,0,1,1.09-2.36,6.32,6.32,0,0,1,1.09,2.36Z"/><polygon class="cls-1" points="13.02 25.05 11.93 25.56 11.76 26.54 11.64 27.81 12.22 28.21 13.02 28.21 13.94 28.44 13.94 29.13 13.43 29.71 11.64 30.05 11.64 30.57 14.58 30.57 15.32 29.76 14.98 27.81 14.4 27.29 13.2 27.46 12.16 27.06 12.39 26.25 14.69 25.05 14.69 24.41 13.02 25.05"/><polygon class="cls-1" points="17.28 22.86 17.39 30.34 17.91 30.34 18.03 27.86 20.04 27.46 21.08 25.56 20.56 21.94 19.06 21.94 18.26 22.34 18.66 22.98 19.46 22.86 19.7 23.67 19.93 25.28 19.52 26.31 17.97 26.71 17.91 23.84 18.32 23.26 17.8 22.57 17.28 22.86"/><polygon class="cls-1" points="30.68 22.98 32.01 23.61 32.35 22.86 29.36 21.65 28.9 22.86 29.01 29.88 30.05 30.63 32.35 30.28 31.6 29.42 30.51 29.3 29.65 28.21 29.7 24.7 29.88 23.09 30.68 22.98"/><polygon class="cls-1" points="33.84 24.07 34.02 30.63 37.53 30.63 37.53 29.94 35 29.71 34.82 27.81 36.66 28.21 36.72 27.35 34.82 26.66 34.88 25.22 37.64 26.48 37.53 25.51 33.84 24.07"/></g></svg>