<svg xmlns="http://www.w3.org/2000/svg" viewBox="0 0 49 49"><defs><style>.cls-1{fill:#fcee21;}.cls-2{fill:#f59423;}.cls-3{fill:#f7a822;}.cls-4{fill:#f8b922;}.cls-5{fill:#f9c022;}.cls-6{fill:#f8bc22;}.cls-7{fill:#f7ac22;}.cls-8{fill:#f69823;}.cls-9{fill:#f15f24;}.cls-10{fill:#f37224;}.cls-11{fill:#f48423;}.cls-12{fill:#f69b23;}.cls-13{fill:#f8b322;}.cls-14{fill:#f9c922;}.cls-15{fill:#fad521;}.cls-16{fill:#face22;}.cls-17{fill:#f8b822;}.cls-18{fill:#f6a123;}.cls-19{fill:#f58d23;}.cls-20{fill:#f37723;}.cls-21{fill:#f26324;}.cls-22{fill:#f34a1e;}.cls-23{fill:#f25522;}.cls-24{fill:#f16024;}.cls-25{fill:#f37323;}.cls-26{fill:#f48623;}.cls-27{fill:#f69e23;}.cls-28{fill:#f8b722;}.cls-29{fill:#fad122;}.cls-30{fill:#fbe721;}.cls-31{fill:#fad821;}.cls-32{fill:#f8bd22;}.cls-33{fill:#f7a422;}.cls-34{fill:#f59023;}.cls-35{fill:#f37823;}.cls-36{fill:#f26424;}.cls-37{fill:#f15923;}.cls-38{fill:#f34d1f;}.cls-39{fill:#f44a1d;}.cls-40{fill:#f25422;}.cls-41{fill:#f48523;}.cls-42{fill:#f69d23;}.cls-43{fill:#f8b522;}.cls-44{fill:#facd22;}.cls-45{fill:#fbdb21;}.cls-46{fill:#fad222;}.cls-47{fill:#f8bb22;}.cls-48{fill:#f6a223;}.cls-49{fill:#f58e23;}.cls-50{fill:#f15823;}.cls-51{fill:#f53e19;}.cls-52{fill:#f63817;}.cls-53{fill:#f4481d;}.cls-54{fill:#f25321;}.cls-55{fill:#f15d24;}.cls-56{fill:#f36f24;}.cls-57{fill:#f48023;}.cls-58{fill:#f59623;}.cls-59{fill:#f7ab22;}.cls-60{fill:#f8be22;}.cls-61{fill:#f9c622;}.cls-62{fill:#f9c122;}.cls-63{fill:#f7b022;}.cls-64{fill:#f48923;}.cls-65{fill:#f37423;}.cls-66{fill:#f15723;}.cls-67{fill:#f34b1e;}.cls-68{fill:#f63c18;}.cls-69{fill:#f73615;}.cls-70{fill:#f4451c;}.cls-71{fill:#f35020;}.cls-72{fill:#f15a24;}.cls-73{fill:#f26924;}.cls-74{fill:#f37923;}.cls-75{fill:#f58c23;}.cls-76{fill:#f7b122;}.cls-77{fill:#f7ae22;}.cls-78{fill:#f48123;}.cls-79{fill:#f26d24;}.cls-80{fill:#f15c24;}.cls-81{fill:#f4491d;}.cls-82{fill:#f63917;}.cls-83{fill:#f92810;}.cls-84{fill:#f73214;}.cls-85{fill:#f5421a;}.cls-86{fill:#f26224;}.cls-87{fill:#f37024;}.cls-88{fill:#f69f23;}.cls-89{fill:#f59323;}.cls-90{fill:#f26624;}.cls-91{fill:#f15924;}.cls-92{fill:#f25221;}.cls-93{fill:#f9250f;}.cls-94{fill:#f82d12;}.cls-95{fill:#f15b24;}.cls-96{fill:#f48823;}.cls-97{fill:#f58923;}.cls-98{fill:#f48223;}.cls-99{fill:#f37623;}.cls-100{fill:#f26b24;}.cls-101{fill:#f25622;}.cls-102{fill:#f5401a;}.cls-103{fill:#f73013;}.cls-104{fill:#fa1f0c;}.cls-105{fill:#f9260f;}.cls-106{fill:#f5411a;}.cls-107{fill:#f25623;}.cls-108{fill:#f26824;}.cls-109{fill:#f4461c;}.cls-110{fill:#f82a11;}.cls-111{fill:#f82e12;}.cls-112{fill:#f63a17;}.cls-113{fill:#f26124;}.cls-114{fill:#f26724;}.cls-115{fill:#f53f19;}.cls-116{fill:#fa220e;}.cls-117{fill:#f34f20;}.cls-118{fill:#f63716;}.cls-119{fill:#f92911;}.cls-120{fill:#fb1c0b;}.cls-121{fill:#f92710;}.cls-122{fill:#f73415;}.cls-123{fill:#f34c1e;}.cls-124{fill:#f25120;}.cls-125{fill:#f73616;}.cls-126{fill:#fc1107;}.cls-127{fill:#f73314;}.cls-128{fill:#f82b11;}.cls-129{fill:#fa210d;}.cls-130{fill:#fc1408;}.cls-131{fill:#fe0502;}.cls-132{fill:#fd1006;}.cls-133{fill:#f63d18;}.cls-134{fill:#f73515;}.cls-135{fill:#ff2f2f;}.cls-136{fill:red;}.cls-137{fill:#fe0402;}.cls-138{fill:#f82f13;}.cls-139{fill:#f83013;}.cls-140{fill:#f92910;}.cls-141{fill:#fa1e0c;}.cls-142{fill:#fa200d;}.cls-143{fill:#fb1a0a;}.cls-144{fill:#fc1508;}.cls-145{fill:#fc1006;}.cls-146{fill:#fd0e06;}.cls-147{fill:#fd0a04;}</style></defs><title>sparked</title><g id="logo_bg" data-name="logo bg"><rect width="49" height="49"/></g><g id="logo"><path class="cls-1" d="M11.66,32.15h.54v.54h-.54Zm0,2.16v-.54h1.62v.54Zm.54-2.16v-.54h1.62v.54Zm0,1.08h1.08v-.54H12.2Zm1.08,0h.54v.54h-.54Z"/><path class="cls-1" d="M15.44,34.32v-2.7h1.62v.54H16v.54h1.08v.54H16v1.08Zm1.62-2.16h.54v.54h-.54Z"/><path class="cls-1" d="M19.24,34.32V32.15h.54v.54h1.08v-.54h.54v2.16h-.54V33.23H19.79v1.08Zm.54-2.7v.54h1.08v-.54Z"/><path class="cls-1" d="M23,34.32v-2.7h1.62v.54H23.56v.54h1.08v.54H23.56v1.08Zm1.08-1.08h.54v.54H24.1Zm.54-1.08h.54v.54h-.54Zm0,1.62h.54v.54h-.54Z"/><path class="cls-1" d="M27.35,33.23v1.08H26.8v-2.7h.54v1.08h.54v.54Zm.54-1.08h.54v.54h-.54Zm0,1.08h.54v.54h-.54Zm.54-1.62H29v.54h-.54Zm0,2.16H29v.54h-.54Z"/><path class="cls-1" d="M32.21,32.15H31.13v.54h1.08v.54H31.13v.54h1.08v.54H30.59v-2.7h1.62Z"/><path class="cls-1" d="M33.84,34.32v-2.7h1.62v.54H34.38v1.62h1.08v.54ZM36,32.15v1.62h-.54V32.15Z"/><rect class="cls-2" x="26.34" y="29.31" width="0.82" height="0.78"/><rect class="cls-3" x="25.52" y="29.31" width="0.82" height="0.78"/><rect class="cls-4" x="24.7" y="29.31" width="0.82" height="0.78"/><rect class="cls-5" x="23.88" y="29.31" width="0.82" height="0.78"/><rect class="cls-6" x="23.06" y="29.31" width="0.82" height="0.78"/><rect class="cls-7" x="22.24" y="29.31" width="0.82" height="0.78"/><rect class="cls-8" x="21.42" y="29.31" width="0.82" height="0.78"/><rect class="cls-9" x="28.79" y="28.53" width="0.82" height="0.78"/><rect class="cls-10" x="27.97" y="28.53" width="0.82" height="0.78"/><rect class="cls-11" x="27.15" y="28.53" width="0.82" height="0.78"/><rect class="cls-12" x="26.34" y="28.53" width="0.82" height="0.78"/><rect class="cls-13" x="25.52" y="28.53" width="0.82" height="0.78"/><rect class="cls-14" x="24.7" y="28.53" width="0.82" height="0.78"/><rect class="cls-15" x="23.88" y="28.53" width="0.82" height="0.78"/><rect class="cls-16" x="23.06" y="28.53" width="0.82" height="0.78"/><rect class="cls-17" x="22.24" y="28.53" width="0.82" height="0.78"/><rect class="cls-18" x="21.42" y="28.53" width="0.82" height="0.78"/><rect class="cls-19" x="20.6" y="28.53" width="0.82" height="0.78"/><rect class="cls-20" x="19.78" y="28.53" width="0.82" height="0.78"/><rect class="cls-21" x="18.96" y="28.53" width="0.82" height="0.78"/><rect class="cls-22" x="30.43" y="27.75" width="0.82" height="0.78"/><rect class="cls-23" x="29.61" y="27.75" width="0.82" height="0.78"/><rect class="cls-24" x="28.79" y="27.75" width="0.82" height="0.78"/><rect class="cls-25" x="27.97" y="27.75" width="0.82" height="0.78"/><rect class="cls-26" x="27.15" y="27.75" width="0.82" height="0.78"/><rect class="cls-27" x="26.34" y="27.75" width="0.82" height="0.78"/><rect class="cls-28" x="25.52" y="27.75" width="0.82" height="0.78"/><rect class="cls-29" x="24.7" y="27.75" width="0.82" height="0.78"/><rect class="cls-30" x="23.88" y="27.75" width="0.82" height="0.78"/><rect class="cls-31" x="23.06" y="27.75" width="0.82" height="0.78"/><rect class="cls-32" x="22.24" y="27.75" width="0.82" height="0.78"/><rect class="cls-33" x="21.42" y="27.75" width="0.82" height="0.78"/><rect class="cls-34" x="20.6" y="27.75" width="0.82" height="0.78"/><rect class="cls-35" x="19.78" y="27.75" width="0.82" height="0.78"/><rect class="cls-36" x="18.96" y="27.75" width="0.82" height="0.78"/><rect class="cls-37" x="18.14" y="27.75" width="0.82" height="0.78"/><rect class="cls-38" x="17.32" y="27.75" width="0.82" height="0.78"/><rect class="cls-39" x="30.43" y="26.96" width="0.82" height="0.78"/><rect class="cls-40" x="29.61" y="26.96" width="0.82" height="0.78"/><rect class="cls-9" x="28.79" y="26.96" width="0.82" height="0.78"/><rect class="cls-10" x="27.97" y="26.96" width="0.82" height="0.78"/><rect class="cls-41" x="27.15" y="26.96" width="0.82" height="0.78"/><rect class="cls-42" x="26.34" y="26.96" width="0.82" height="0.78"/><rect class="cls-43" x="25.52" y="26.96" width="0.82" height="0.78"/><rect class="cls-44" x="24.7" y="26.96" width="0.82" height="0.78"/><rect class="cls-45" x="23.88" y="26.96" width="0.82" height="0.78"/><rect class="cls-46" x="23.06" y="26.96" width="0.82" height="0.78"/><rect class="cls-47" x="22.24" y="26.96" width="0.82" height="0.78"/><rect class="cls-48" x="21.42" y="26.96" width="0.82" height="0.78"/><rect class="cls-49" x="20.6" y="26.96" width="0.82" height="0.78"/><rect class="cls-20" x="19.78" y="26.96" width="0.82" height="0.78"/><rect class="cls-21" x="18.96" y="26.96" width="0.82" height="0.78"/><rect class="cls-50" x="18.14" y="26.96" width="0.82" height="0.78"/><rect class="cls-38" x="17.32" y="26.96" width="0.82" height="0.78"/><rect class="cls-51" x="16.5" y="26.96" width="0.82" height="0.78"/><rect class="cls-52" x="31.25" y="26.18" width="0.82" height="0.78"/><rect class="cls-53" x="30.43" y="26.18" width="0.82" height="0.78"/><rect class="cls-54" x="29.61" y="26.18" width="0.82" height="0.78"/><rect class="cls-55" x="28.79" y="26.18" width="0.82" height="0.78"/><rect class="cls-56" x="27.97" y="26.18" width="0.82" height="0.78"/><rect class="cls-57" x="27.15" y="26.18" width="0.82" height="0.78"/><rect class="cls-58" x="26.34" y="26.18" width="0.82" height="0.78"/><rect class="cls-59" x="25.52" y="26.18" width="0.82" height="0.78"/><rect class="cls-60" x="24.7" y="26.18" width="0.82" height="0.78"/><rect class="cls-61" x="23.88" y="26.18" width="0.82" height="0.78"/><rect class="cls-62" x="23.06" y="26.18" width="0.82" height="0.78"/><rect class="cls-63" x="22.24" y="26.18" width="0.82" height="0.78"/><rect class="cls-12" x="21.42" y="26.18" width="0.82" height="0.78"/><rect class="cls-64" x="20.6" y="26.18" width="0.82" height="0.78"/><rect class="cls-65" x="19.78" y="26.18" width="0.82" height="0.78"/><rect class="cls-24" x="18.96" y="26.18" width="0.82" height="0.78"/><rect class="cls-66" x="18.14" y="26.18" width="0.82" height="0.78"/><rect class="cls-67" x="17.32" y="26.18" width="0.82" height="0.78"/><rect class="cls-68" x="16.5" y="26.18" width="0.82" height="0.78"/><rect class="cls-69" x="31.25" y="25.4" width="0.82" height="0.78"/><rect class="cls-70" x="30.43" y="25.4" width="0.82" height="0.78"/><rect class="cls-71" x="29.61" y="25.4" width="0.82" height="0.78"/><rect class="cls-72" x="28.79" y="25.4" width="0.82" height="0.78"/><rect class="cls-73" x="27.97" y="25.4" width="0.82" height="0.78"/><rect class="cls-74" x="27.15" y="25.4" width="0.82" height="0.78"/><rect class="cls-75" x="26.34" y="25.4" width="0.82" height="0.78"/><rect class="cls-27" x="25.52" y="25.4" width="0.82" height="0.78"/><rect class="cls-7" x="24.7" y="25.4" width="0.82" height="0.78"/><rect class="cls-76" x="23.88" y="25.4" width="0.82" height="0.78"/><rect class="cls-77" x="23.06" y="25.4" width="0.82" height="0.78"/><rect class="cls-18" x="22.24" y="25.4" width="0.82" height="0.78"/><rect class="cls-34" x="21.42" y="25.4" width="0.82" height="0.78"/><rect class="cls-78" x="20.6" y="25.4" width="0.82" height="0.78"/><rect class="cls-79" x="19.78" y="25.4" width="0.82" height="0.78"/><rect class="cls-80" x="18.96" y="25.4" width="0.82" height="0.78"/><rect class="cls-23" x="18.14" y="25.4" width="0.82" height="0.78"/><rect class="cls-81" x="17.32" y="25.4" width="0.82" height="0.78"/><rect class="cls-82" x="16.5" y="25.4" width="0.82" height="0.78"/><rect class="cls-83" x="15.68" y="25.4" width="0.82" height="0.78"/><rect class="cls-84" x="31.25" y="24.62" width="0.82" height="0.78"/><rect class="cls-85" x="30.43" y="24.62" width="0.82" height="0.78"/><rect class="cls-38" x="29.61" y="24.62" width="0.82" height="0.78"/><rect class="cls-50" x="28.79" y="24.62" width="0.82" height="0.78"/><rect class="cls-86" x="27.97" y="24.62" width="0.82" height="0.78"/><rect class="cls-87" x="27.15" y="24.62" width="0.82" height="0.78"/><rect class="cls-78" x="26.34" y="24.62" width="0.82" height="0.78"/><rect class="cls-34" x="25.52" y="24.62" width="0.82" height="0.78"/><rect class="cls-12" x="24.7" y="24.62" width="0.82" height="0.78"/><rect class="cls-88" x="23.88" y="24.62" width="0.82" height="0.78"/><rect class="cls-42" x="23.06" y="24.62" width="0.82" height="0.78"/><rect class="cls-89" x="22.24" y="24.62" width="0.82" height="0.78"/><rect class="cls-11" x="21.42" y="24.62" width="0.82" height="0.78"/><rect class="cls-20" x="20.6" y="24.62" width="0.82" height="0.78"/><rect class="cls-90" x="19.78" y="24.62" width="0.82" height="0.78"/><rect class="cls-91" x="18.96" y="24.62" width="0.82" height="0.78"/><rect class="cls-92" x="18.14" y="24.62" width="0.82" height="0.78"/><rect class="cls-70" x="17.32" y="24.62" width="0.82" height="0.78"/><rect class="cls-69" x="16.5" y="24.62" width="0.82" height="0.78"/><rect class="cls-93" x="15.68" y="24.62" width="0.82" height="0.78"/><rect class="cls-94" x="31.25" y="23.83" width="0.82" height="0.78"/><rect class="cls-68" x="30.43" y="23.83" width="0.82" height="0.78"/><rect class="cls-53" x="29.61" y="23.83" width="0.82" height="0.78"/><rect class="cls-54" x="28.79" y="23.83" width="0.82" height="0.78"/><rect class="cls-95" x="27.97" y="23.83" width="0.82" height="0.78"/><rect class="cls-90" x="27.15" y="23.83" width="0.82" height="0.78"/><rect class="cls-65" x="26.34" y="23.83" width="0.82" height="0.78"/><rect class="cls-57" x="25.52" y="23.83" width="0.82" height="0.78"/><rect class="cls-96" x="24.7" y="23.83" width="0.82" height="0.78"/><rect class="cls-75" x="23.88" y="23.83" width="0.82" height="0.78"/><rect class="cls-97" x="23.06" y="23.83" width="0.82" height="0.78"/><rect class="cls-98" x="22.24" y="23.83" width="0.82" height="0.78"/><rect class="cls-99" x="21.42" y="23.83" width="0.82" height="0.78"/><rect class="cls-100" x="20.6" y="23.83" width="0.82" height="0.78"/><rect class="cls-55" x="19.78" y="23.83" width="0.82" height="0.78"/><rect class="cls-101" x="18.96" y="23.83" width="0.82" height="0.78"/><rect class="cls-38" x="18.14" y="23.83" width="0.82" height="0.78"/><rect class="cls-102" x="17.32" y="23.83" width="0.82" height="0.78"/><rect class="cls-103" x="16.5" y="23.83" width="0.82" height="0.78"/><rect class="cls-104" x="15.68" y="23.83" width="0.82" height="0.78"/><rect class="cls-105" x="31.25" y="23.05" width="0.82" height="0.78"/><rect class="cls-69" x="30.43" y="23.05" width="0.82" height="0.78"/><rect class="cls-106" x="29.61" y="23.05" width="0.82" height="0.78"/><rect class="cls-38" x="28.79" y="23.05" width="0.82" height="0.78"/><rect class="cls-107" x="27.97" y="23.05" width="0.82" height="0.78"/><rect class="cls-95" x="27.15" y="23.05" width="0.82" height="0.78"/><rect class="cls-90" x="26.34" y="23.05" width="0.82" height="0.78"/><rect class="cls-87" x="25.52" y="23.05" width="0.82" height="0.78"/><rect class="cls-99" x="24.7" y="23.05" width="0.82" height="0.78"/><rect class="cls-74" x="23.88" y="23.05" width="0.82" height="0.78"/><rect class="cls-20" x="23.06" y="23.05" width="0.82" height="0.78"/><rect class="cls-10" x="22.24" y="23.05" width="0.82" height="0.78"/><rect class="cls-108" x="21.42" y="23.05" width="0.82" height="0.78"/><rect class="cls-24" x="20.6" y="23.05" width="0.82" height="0.78"/><rect class="cls-50" x="19.78" y="23.05" width="0.82" height="0.78"/><rect class="cls-71" x="18.96" y="23.05" width="0.82" height="0.78"/><rect class="cls-109" x="18.14" y="23.05" width="0.82" height="0.78"/><rect class="cls-82" x="17.32" y="23.05" width="0.82" height="0.78"/><rect class="cls-110" x="16.5" y="23.05" width="0.82" height="0.78"/><rect class="cls-111" x="30.43" y="22.27" width="0.82" height="0.78"/><rect class="cls-112" x="29.61" y="22.27" width="0.82" height="0.78"/><rect class="cls-109" x="28.79" y="22.27" width="0.82" height="0.78"/><rect class="cls-71" x="27.97" y="22.27" width="0.82" height="0.78"/><rect class="cls-101" x="27.15" y="22.27" width="0.82" height="0.78"/><rect class="cls-72" x="26.34" y="22.27" width="0.82" height="0.78"/><rect class="cls-113" x="25.52" y="22.27" width="0.82" height="0.78"/><rect class="cls-90" x="24.7" y="22.27" width="0.82" height="0.78"/><rect class="cls-108" x="23.88" y="22.27" width="0.82" height="0.78"/><rect class="cls-114" x="23.06" y="22.27" width="0.82" height="0.78"/><rect class="cls-86" x="22.24" y="22.27" width="0.82" height="0.78"/><rect class="cls-80" x="21.42" y="22.27" width="0.82" height="0.78"/><rect class="cls-50" x="20.6" y="22.27" width="0.82" height="0.78"/><rect class="cls-92" x="19.78" y="22.27" width="0.82" height="0.78"/><rect class="cls-53" x="18.96" y="22.27" width="0.82" height="0.78"/><rect class="cls-115" x="18.14" y="22.27" width="0.82" height="0.78"/><rect class="cls-84" x="17.32" y="22.27" width="0.82" height="0.78"/><rect class="cls-116" x="16.5" y="22.27" width="0.82" height="0.78"/><rect class="cls-105" x="30.43" y="21.49" width="0.82" height="0.78"/><rect class="cls-84" x="29.61" y="21.49" width="0.82" height="0.78"/><rect class="cls-51" x="28.79" y="21.49" width="0.82" height="0.78"/><rect class="cls-53" x="27.97" y="21.49" width="0.82" height="0.78"/><rect class="cls-117" x="27.15" y="21.49" width="0.82" height="0.78"/><rect class="cls-23" x="26.34" y="21.49" width="0.82" height="0.78"/><rect class="cls-37" x="25.52" y="21.49" width="0.82" height="0.78"/><rect class="cls-72" x="24.7" y="21.49" width="0.82" height="0.78"/><rect class="cls-95" x="23.88" y="21.49" width="0.82" height="0.78"/><rect class="cls-95" x="23.06" y="21.49" width="0.82" height="0.78"/><rect class="cls-91" x="22.24" y="21.49" width="0.82" height="0.78"/><rect class="cls-101" x="21.42" y="21.49" width="0.82" height="0.78"/><rect class="cls-92" x="20.6" y="21.49" width="0.82" height="0.78"/><rect class="cls-22" x="19.78" y="21.49" width="0.82" height="0.78"/><rect class="cls-102" x="18.96" y="21.49" width="0.82" height="0.78"/><rect class="cls-118" x="18.14" y="21.49" width="0.82" height="0.78"/><rect class="cls-119" x="17.32" y="21.49" width="0.82" height="0.78"/><rect class="cls-120" x="30.43" y="20.71" width="0.82" height="0.78"/><rect class="cls-121" x="29.61" y="20.71" width="0.82" height="0.78"/><rect class="cls-122" x="28.79" y="20.71" width="0.82" height="0.78"/><rect class="cls-51" x="27.97" y="20.71" width="0.82" height="0.78"/><rect class="cls-70" x="27.15" y="20.71" width="0.82" height="0.78"/><rect class="cls-123" x="26.34" y="20.71" width="0.82" height="0.78"/><rect class="cls-71" x="25.52" y="20.71" width="0.82" height="0.78"/><rect class="cls-54" x="24.7" y="20.71" width="0.82" height="0.78"/><rect class="cls-40" x="23.88" y="20.71" width="0.82" height="0.78"/><rect class="cls-54" x="23.06" y="20.71" width="0.82" height="0.78"/><rect class="cls-124" x="22.24" y="20.71" width="0.82" height="0.78"/><rect class="cls-38" x="21.42" y="20.71" width="0.82" height="0.78"/><rect class="cls-53" x="20.6" y="20.71" width="0.82" height="0.78"/><rect class="cls-53" x="20.6" y="19.86" width="0.94" height="0.89"/><rect class="cls-102" x="19.78" y="20.71" width="0.82" height="0.78"/><rect class="cls-125" x="18.96" y="20.71" width="0.82" height="0.78"/><rect class="cls-94" x="18.14" y="20.71" width="0.82" height="0.78"/><rect class="cls-104" x="17.32" y="20.71" width="0.82" height="0.78"/><rect class="cls-126" x="30.43" y="19.92" width="0.82" height="0.78"/><rect class="cls-120" x="29.61" y="19.92" width="0.82" height="0.78"/><rect class="cls-83" x="28.79" y="19.92" width="0.82" height="0.78"/><rect class="cls-127" x="27.97" y="19.92" width="0.82" height="0.78"/><rect class="cls-112" x="27.15" y="19.92" width="0.82" height="0.78"/><rect class="cls-102" x="26.34" y="19.92" width="0.82" height="0.78"/><rect class="cls-70" x="25.52" y="19.92" width="0.82" height="0.78"/><rect class="cls-53" x="24.7" y="19.92" width="0.82" height="0.78"/><rect class="cls-81" x="23.88" y="19.92" width="0.82" height="0.78"/><rect class="cls-81" x="23.06" y="19.92" width="0.82" height="0.78"/><rect class="cls-109" x="22.24" y="19.92" width="0.82" height="0.78"/><rect class="cls-85" x="21.42" y="19.92" width="0.82" height="0.78"/><rect class="cls-128" x="18.96" y="19.92" width="0.82" height="0.78"/><rect class="cls-129" x="18.14" y="19.92" width="0.82" height="0.78"/><rect class="cls-130" x="17.32" y="19.92" width="0.82" height="0.78"/><rect class="cls-131" x="17.38" y="19.36" width="0.82" height="0.78"/><rect class="cls-131" x="30.43" y="19.14" width="0.82" height="0.78"/><rect class="cls-132" x="29.61" y="19.14" width="0.82" height="0.78"/><rect class="cls-120" x="28.79" y="19.14" width="0.82" height="0.78"/><rect class="cls-105" x="27.97" y="19.14" width="0.82" height="0.78"/><rect class="cls-122" x="26.34" y="19.14" width="0.82" height="0.78"/><rect class="cls-82" x="25.52" y="19.14" width="0.82" height="0.78"/><rect class="cls-68" x="24.7" y="19.14" width="0.82" height="0.78"/><rect class="cls-133" x="23.88" y="19.14" width="0.82" height="0.78"/><rect class="cls-68" x="23.06" y="19.14" width="0.82" height="0.78"/><rect class="cls-112" x="22.24" y="19.14" width="0.82" height="0.78"/><rect class="cls-134" x="21.42" y="19.14" width="0.82" height="0.78"/><rect class="cls-134" x="20.65" y="19.14" width="0.82" height="0.78"/><rect class="cls-135" x="30.96" y="17.79" width="0.82" height="0.78"/><rect class="cls-136" x="30.43" y="18.36" width="0.82" height="0.78"/><rect class="cls-137" x="29.61" y="18.36" width="0.82" height="0.78"/><rect class="cls-121" x="26.34" y="18.36" width="0.82" height="0.78"/><rect class="cls-94" x="25.52" y="18.36" width="0.82" height="0.78"/><rect class="cls-138" x="24.7" y="18.36" width="0.82" height="0.78"/><rect class="cls-103" x="23.88" y="18.36" width="0.82" height="0.78"/><rect class="cls-139" x="23.06" y="18.36" width="0.82" height="0.78"/><rect class="cls-94" x="22.24" y="18.36" width="0.82" height="0.78"/><rect class="cls-140" x="21.42" y="18.36" width="0.82" height="0.78"/><rect class="cls-140" x="20.65" y="18.36" width="0.82" height="0.78"/><rect class="cls-141" x="25.52" y="17.58" width="0.82" height="0.78"/><rect class="cls-142" x="24.7" y="17.58" width="0.82" height="0.78"/><rect class="cls-129" x="23.88" y="17.58" width="0.82" height="0.78"/><rect class="cls-129" x="23.06" y="17.58" width="0.82" height="0.78"/><rect class="cls-141" x="22.24" y="17.58" width="0.82" height="0.78"/><rect class="cls-143" x="21.42" y="17.58" width="0.82" height="0.78"/><rect class="cls-144" x="20.6" y="17.58" width="0.82" height="0.78"/><rect class="cls-145" x="24.7" y="16.79" width="0.82" height="0.78"/><rect class="cls-126" x="23.88" y="16.79" width="0.82" height="0.78"/><rect class="cls-126" x="23.06" y="16.79" width="0.82" height="0.78"/><rect class="cls-146" x="22.24" y="16.79" width="0.82" height="0.78"/><rect class="cls-147" x="21.42" y="16.79" width="0.82" height="0.78"/><rect class="cls-131" x="20.6" y="16.79" width="0.82" height="0.78"/><rect class="cls-136" x="23.88" y="16.01" width="0.82" height="0.78"/><rect class="cls-136" x="23.06" y="16.01" width="0.82" height="0.78"/><rect class="cls-136" x="22.24" y="16.01" width="0.82" height="0.78"/><rect class="cls-136" x="21.42" y="16.01" width="0.82" height="0.78"/><rect class="cls-136" x="20.6" y="16.01" width="0.82" height="0.78"/><rect class="cls-136" x="23.88" y="15.23" width="0.82" height="0.78"/><rect class="cls-136" x="23.06" y="15.23" width="0.82" height="0.78"/><rect class="cls-136" x="22.24" y="15.23" width="0.82" height="0.78"/><rect class="cls-136" x="21.42" y="15.23" width="0.82" height="0.78"/><rect class="cls-136" x="23.82" y="13.69" width="0.82" height="0.78"/><rect class="cls-136" x="23.88" y="14.45" width="0.82" height="0.78"/><rect class="cls-136" x="23.06" y="14.45" width="0.82" height="0.78"/><rect class="cls-136" x="22.24" y="14.45" width="0.82" height="0.78"/><path d="M22.22,24.45v1.05a.28.28,0,0,1-.28.28h-.65a.28.28,0,0,0-.28.28v.65a.28.28,0,0,1-.28.28H19.68a.28.28,0,0,1-.28-.28v-.65a.28.28,0,0,0-.28-.28h-.65a.28.28,0,0,1-.28-.28V24.45a.28.28,0,0,1,.28-.28h.65a.28.28,0,0,0,.28-.28v-.65a.28.28,0,0,1,.28-.28h1.05a.28.28,0,0,1,.28.28v.65a.28.28,0,0,0,.28.28h.65A.28.28,0,0,1,22.22,24.45Z"/><circle cx="27.56" cy="23.82" r="1.23"/><circle cx="25.11" cy="26.19" r="1.23"/></g></svg>