<svg xmlns="http://www.w3.org/2000/svg" viewBox="0 0 626 626"><defs><style>.cls-1,.cls-11{fill:#fff;}.cls-2{fill:#c69c6d;}.cls-3{fill:#1a1a1a;}.cls-4{fill:#755b00;}.cls-10,.cls-4,.cls-6,.cls-8,.cls-9{stroke:#000;stroke-miterlimit:10;}.cls-5{fill:#0e0e00;}.cls-6{fill:#ffbfd8;}.cls-10,.cls-6,.cls-9{stroke-width:2px;}.cls-7{opacity:0.3;}.cls-10,.cls-8{fill:none;}.cls-9{fill:#ffe1ec;}.cls-11{font-size:30.89px;font-family:TsukuBRdGothic-Bold-83pv-RKSJ-H, Tsukushi B Round Gothic;font-weight:700;letter-spacing:-0.12em;}.cls-12{letter-spacing:-0.13em;}.cls-13{letter-spacing:-0.01em;}</style></defs><title>yuu-logo</title><g id="Layer_4" data-name="Layer 4"><rect class="cls-1" width="626" height="626"/></g><g id="color"><path class="cls-2" d="M193.26,297.58c1.71-16.36,1-17.48,9.92-31.29,8.08-12.48,9.45-12.34,22.08-20.18C242,235.72,242.57,236,261.7,231.32c24.41-6,24.68-6.42,49.8-5.68,18.13.53,17.69,3.93,35.44,7.68s18.59.77,35.47,7.42c24.77,9.76,30.68,3.8,46.7,25.06,12.9,17.12,3,21,5,42.32L432.5,308c-1.49,7.29-3,15.18-5,23.44,0,.05,1.1.37,1.09.41-.09.35-.2.69-.28,1,0,.12-.09.23-.12.34-2.92,11.91-6.44,24.61-10.52,37.54-3.84,12.17-8.95,24.27-13.93,36.39a324.32,324.32,0,0,1-16.81,35.07c-6.55,11.68-13.55,22.69-21.61,32.29a65.69,65.69,0,0,1-31.76,21,67.29,67.29,0,0,1-38.17.25c-12-3.55-22.63-11.06-31.38-21.47-7.58-9-15.06-18.72-21.3-29.62A313.62,313.62,0,0,1,226.12,412c-4.8-11.26-7.8-23.27-11.58-34.7-4-11.95-8.44-23.45-11.39-34.74-2.09-8-3.07-16-4.69-23.26C194.08,308.83,192.08,308.87,193.26,297.58Z"/><path d="M192.76,297.53c.35-3.37.64-6.74,1-10.12.2-1.69.46-3.38.83-5.07a30,30,0,0,1,1.59-4.92,66.93,66.93,0,0,1,4.93-9c1.82-2.87,3.65-5.73,5.66-8.49a43.33,43.33,0,0,1,3.27-4,28.46,28.46,0,0,1,3.9-3.4c2.78-2,5.72-3.72,8.6-5.51s5.75-3.58,8.67-5.32a89.62,89.62,0,0,1,9-4.86,62.28,62.28,0,0,1,9.7-3.31c3.29-.88,6.58-1.66,9.87-2.47,6.59-1.59,13.13-3.32,19.8-4.71A79,79,0,0,1,289.75,225c3.41-.26,6.82-.29,10.21-.27s6.79.11,10.18.2,6.81.22,10.21.65a51.15,51.15,0,0,1,10,2.28c3.24,1.07,6.41,2.17,9.66,3a128.28,128.28,0,0,0,19.83,3.73A95.87,95.87,0,0,1,370,236a71.63,71.63,0,0,1,9.84,2.94l4.76,1.79,2.37.88,2.39.8c3.19,1.08,6.43,2,9.7,2.85s6.58,1.65,9.84,2.79a32.74,32.74,0,0,1,9.17,4.86,47.67,47.67,0,0,1,7.46,7.14c1.15,1.27,2.2,2.62,3.25,4s2,2.76,3,4.15a30.5,30.5,0,0,1,4.37,9.47A26.4,26.4,0,0,1,436.3,288c-.52,3.38-1.09,6.67-1.33,10a65.46,65.46,0,0,0,.12,10v.09a1,1,0,0,1-.62.88,1,1,0,0,1-.38.07h-.43l-.41,0-.41,0h-.23a.93.93,0,0,0,.24-.06,1,1,0,0,0,.48-.42.93.93,0,0,0,.11-.46l0,.19c-1,4.78-1.9,9.57-2.92,14.35q-.76,3.59-1.59,7.16l-.42,1.77,0,.11a1.56,1.56,0,0,0-.48-1c-.1-.05,0,0,.07,0l.42.14.23.08.14.05c0,.36.11-.78.69,1.23l-.12.44c-.38,1.18-.61,2.36-.92,3.54q-3.54,14.23-7.77,28.27c-1.41,4.67-2.85,9.36-4.49,14s-3.37,9.19-5.19,13.73-3.69,9-5.56,13.55-3.77,9-5.8,13.47c-4,8.91-8.47,17.66-13.35,26.14a220.33,220.33,0,0,1-16.07,24.59,91.83,91.83,0,0,1-9.74,11.1,67.22,67.22,0,0,1-11.82,8.91,68.22,68.22,0,0,1-28,9,63.13,63.13,0,0,1-53.57-19.94c-1.7-1.77-3.34-3.64-4.88-5.52s-3.1-3.78-4.62-5.7c-3-3.84-6-7.76-8.73-11.8s-5.36-8.21-7.75-12.48-4.75-8.54-7-12.88-4.41-8.73-6.43-13.18-3.91-9-5.51-13.61c-3.24-9.24-5.72-18.69-8.83-27.91s-6.52-18.39-9.3-27.77a133.18,133.18,0,0,1-3.45-14.27c-.91-4.8-1.66-9.62-2.7-14.36l0,.09q-1.1-2.62-2.32-5.19a55.23,55.23,0,0,1-2.32-5.28,18.05,18.05,0,0,1-.91-5.77A53.59,53.59,0,0,1,192.76,297.53Zm1,.1c-.35,3.75-.68,7.6.56,11.1a54.57,54.57,0,0,0,2.29,5.17q1.24,2.58,2.36,5.23l0,0v0c1.06,4.79,1.83,9.61,2.75,14.39a132,132,0,0,0,3.47,14.15c2.79,9.32,6.25,18.45,9.37,27.71s5.66,18.7,8.9,27.87c1.61,4.59,3.47,9.07,5.51,13.49s4.18,8.79,6.44,13.1,4.61,8.58,7,12.81,5,8.36,7.72,12.35,5.68,7.89,8.7,11.7q2.27,2.85,4.61,5.65c1.55,1.88,3.14,3.68,4.82,5.43a61.49,61.49,0,0,0,52.27,19.31,66.46,66.46,0,0,0,27.24-8.89,65.4,65.4,0,0,0,11.48-8.7,90,90,0,0,0,9.51-10.9,218.43,218.43,0,0,0,15.86-24.42c4.82-8.44,9.2-17.14,13.19-26,2-4.44,3.89-8.91,5.73-13.43s3.71-9,5.51-13.54,3.56-9.06,5.18-13.64,3.07-9.21,4.5-13.87q4.25-14,7.83-28.15c.31-1.18.56-2.39.93-3.53l.12-.45c.59,1.93.55.78.52,1.11l-.08,0-.2-.07-.45-.15a2.61,2.61,0,0,1-.36-.15,1.19,1.19,0,0,1-.51-1.18l0-.11.43-1.79q.84-3.55,1.6-7.12c1-4.76,2-9.54,3-14.32l0,.19a1,1,0,0,1,.62-.88,1,1,0,0,1,.39-.07H433l.41,0,.41,0H434a.93.93,0,0,0-.24.06,1,1,0,0,0-.48.42.93.93,0,0,0-.11.46v.09a67.34,67.34,0,0,1-.1-10.31c.26-3.43.85-6.82,1.37-10.14a24.58,24.58,0,0,0,0-9.75,28.74,28.74,0,0,0-4.09-8.89c-1-1.36-1.88-2.75-3-4.05s-2.06-2.66-3.18-3.9a46,46,0,0,0-7.17-6.91,31,31,0,0,0-8.7-4.64c-3.13-1.11-6.42-1.9-9.7-2.78s-6.57-1.8-9.79-2.9l-2.42-.82-2.39-.9-4.75-1.8a70.06,70.06,0,0,0-9.61-2.9,94.59,94.59,0,0,0-10-1.36,129.8,129.8,0,0,1-20.07-3.83c-3.29-.89-6.53-2-9.72-3.09a49.63,49.63,0,0,0-9.75-2.25c-3.32-.43-6.69-.56-10.07-.67s-6.77-.19-10.15-.23-6.75,0-10.1.24a77.63,77.63,0,0,0-10,1.4c-6.6,1.36-13.17,3.07-19.76,4.64-3.29.8-6.59,1.57-9.85,2.43a61,61,0,0,0-9.52,3.22,88.49,88.49,0,0,0-8.89,4.77c-2.91,1.73-5.77,3.52-8.67,5.29s-5.83,3.47-8.53,5.43a27.31,27.31,0,0,0-3.76,3.26,42.25,42.25,0,0,0-3.19,3.86c-2,2.71-3.82,5.56-5.64,8.41a66,66,0,0,0-4.88,8.81,29,29,0,0,0-1.55,4.74c-.36,1.63-.62,3.29-.82,5C194.41,290.88,194.12,294.26,193.75,297.63Z"/><path class="cls-3" d="M194.18,315.5c-14.55-26.62-21.71-48.08-16.68-78s22.21-68.11,44.67-88.51c17.46-15.86,39.25-33.62,62.33-38.49,32.33-6.83,76.8,2.77,105,20s50.31,52.11,59,84c8.76,32.16-5.68,63-15.38,94.86l-.62,2.14c0-28-28-49.43-48-59-15.8-7.55-41.5-15.57-59-15-27.25.89-47.2,6.06-72.93,15.08-15.1,5.29-30.12,12.2-41.16,23.78S194,305,198.69,320.32Z"/><path d="M194.82,315.13c-9.05-16.67-16.79-34.23-18-53.4-1.11-17.81,3-35.66,9-52.34,6.13-17.06,14.54-33.68,25.85-47.92S238,135.15,253,125.33c15.8-10.32,32.6-15.86,51.48-16.26a165.42,165.42,0,0,1,53.69,8.27c16.39,5.26,32.11,12.89,45.07,24.35,13.47,11.91,24.27,26.78,32.53,42.7,10.1,19.48,16.57,40.4,13.93,62.51s-11.73,43.05-18,64.4l1.47.2c-.64-38.83-44.35-61.11-76.64-70.06-9.66-2.68-19.75-4.79-29.82-4.72a186.84,186.84,0,0,0-35.36,3.88,273.39,273.39,0,0,0-33.88,9.46c-10.69,3.63-21.35,7.6-31.05,13.45-19.36,11.68-35.2,33.46-28.54,57l1.25-.73L194.71,315c-.66-.71-1.72.36-1.06,1.06l4.52,4.82a.76.76,0,0,0,1.25-.73c-6.39-22.56,8.68-43.51,27.14-54.88,18-11.08,40-17.54,60.52-22.18,20.15-4.56,41.06-6.69,61.38-2.13,17.74,4,35.43,10.51,50.53,20.78,16.77,11.41,32.41,28.41,32.76,49.78a.75.75,0,0,0,1.47.2c5.84-20,14.08-39.45,17.37-60.15,3.11-19.58-.21-37.78-7.85-55.9-14.14-33.59-38.39-61.72-72.53-75.57-31.89-12.93-72.59-19.27-104.62-3.67C248,125,231.31,138.29,217.68,152.3c-12.41,12.76-21.6,28.63-28.65,44.88-8,18.45-14,38.72-13.88,59,.08,21.5,8.28,41.12,18.38,59.72C194,316.73,195.29,316,194.82,315.13Z"/><path class="cls-4" d="M427.85,333.16c3.35-11.34-.35-52.66-1.35-46.66s-30,27-30,27c8-5,13-32,13-32-18,10-83,40-83,40a92.13,92.13,0,0,0,30-43c-27,15-90,44-90,44,10-5,33-41,33-41-22,20-66,43-66,43,9-5,23-51,23-51-15,7-53,69-53,69l-14-53,21-33s41-29,92-25,90,5,90,5l17,14,24,23,3,21Z"/><path class="cls-5" d="M432.5,311.5c0-28-28-49.43-48-59-15.8-7.55-41.5-15.57-59-15-27.25.89-47.2,6.06-72.93,15.08-15.1,5.29-30.12,12.2-41.16,23.78S194,305,198.69,320.32c-10.81-13.18-12.19-22.82-12.19-22.82-4.7-15.29,13.87-42.56,24.91-54.14s26.06-18.49,41.16-23.78c25.73-9,45.68-14.18,72.93-15.08,17.5-.57,43.2,7.45,59,15,20,9.57,57,37,57,65C441.5,284.5,435.5,304.5,432.5,311.5Z"/><path class="cls-6" d="M453,334s10.5-157.5-139.5-157.5S179,333,179,333s1,2-3,1c0,0-12.5-169.5,137.5-169.5S457,336,457,336,455,338,453,334Z"/></g><g id="シャドw"><path class="cls-7" d="M285.14,491.62a66.33,66.33,0,0,1-21.62-17c-29.53-35.15-48.44-87.85-60-132.18,0,0,0,0,0,0L212,328C209.29,325.92,234.61,432.93,285.14,491.62Z"/><path class="cls-7" d="M295.83,108.8C283.81,120,235.21,156,208,199c-5.63,8.9-20.73,57.52-23,76,0,0,3,5.3,3,5.31a112.26,112.26,0,0,0-.63,22,144,144,0,0,1-6.09-14.85A198.76,198.76,0,0,0,179,308l-2.47-2a238,238,0,0,1,3.14-23.9c-4-13.8-5-27.86-2.14-44.56,5-29.92,22.21-68.11,44.67-88.51,17.46-15.85,39.25-33.61,62.33-38.49A100.49,100.49,0,0,1,295.83,108.8Z"/></g><g id="Layer_1" data-name="Layer 1"><path d="M198.45,319.43c1.73,7.71,2.74,15.53,4.78,23.08l0,.15a.62.62,0,0,0-.38-.56.65.65,0,0,0-.24,0h0l.07,0,.16,0,.17,0,.1,0h.18a.62.62,0,0,1,.64.61l0-.15c2.38,8.92,5.6,17.6,8.69,26.34,1.55,4.37,3.07,8.76,4.46,13.19l4.18,13.25c1.43,4.4,2.93,8.77,4.63,13s3.62,8.47,5.67,12.61c4.1,8.27,8.74,16.28,13.36,24.31a239.18,239.18,0,0,0,14.88,23.33c5.5,7.34,11.73,14.27,19.22,19.47a50.63,50.63,0,0,0,12.14,6.13,63.42,63.42,0,0,0,13.27,3.19,70.81,70.81,0,0,0,27.14-1.74,59.61,59.61,0,0,0,12.66-5,64.81,64.81,0,0,0,11.31-7.66,72.64,72.64,0,0,0,9.63-9.74c2.94-3.53,5.67-7.24,8.27-11,5.22-7.61,9.79-15.62,14.35-23.71s9.42-16,13.44-24.25c2-4.14,3.76-8.4,5.39-12.72s3.14-8.69,4.58-13.08,2.83-8.81,4.22-13.23,2.79-8.82,4.07-13.27c2.57-8.88,4.8-17.87,7-26.86l.42-1.69L427,333c-.07.12.14-.4.3-.45a1,1,0,0,1,.24-.12l.18-.06s0,0-.14.11c-.19.31-.09.21-.11.19,0-.21,0-.5.11-.86l0-.13c-.13.14.3-.58.35-.48s-.07-.06-.21.33l0-.11.1-.42.21-.85.4-1.69q.78-3.38,1.49-6.77l2.77-13.62v.09a.51.51,0,0,1,.47-.49h.47a.49.49,0,0,0-.2.06.5.5,0,0,0-.25.43h1a.51.51,0,0,1-.46.5h-.48a.5.5,0,0,0,.46-.49v.09l-2.64,13.65c-.94,4.53-1.77,9.2-3.33,13.29-2.15,9-4.3,18-6.8,27-1.23,4.48-2.64,8.91-4,13.33s-2.75,8.85-4.18,13.27-2.93,8.81-4.56,13.17-3.38,8.68-5.41,12.88c-4,8.41-8.84,16.37-13.42,24.41S380.27,455.4,375,463.1c-2.62,3.85-5.37,7.62-8.35,11.22a74.65,74.65,0,0,1-9.85,10,66.85,66.85,0,0,1-11.64,7.93,61.7,61.7,0,0,1-13.08,5.26,71.25,71.25,0,0,1-28,1.77A65.48,65.48,0,0,1,290.45,496a52.67,52.67,0,0,1-12.58-6.41,70.54,70.54,0,0,1-10.62-9.23,111,111,0,0,1-9-10.75A240.92,240.92,0,0,1,243.33,446c-4.59-8-9.22-16.1-13.33-24.45-2.05-4.17-4-8.41-5.69-12.75s-3.2-8.74-4.62-13.16l-4.14-13.27c-1.39-4.41-2.85-8.79-4.35-13.17-3-8.76-6.15-17.5-8.47-26.52l0-.15a.62.62,0,0,0,.38.56.65.65,0,0,0,.24,0h-.05l-.16,0-.17,0-.1,0h-.17a.62.62,0,0,1-.63-.61l0,.15c-2-7.67-2.93-15.52-4.57-23.18Z"/><path class="cls-8" d="M222,342.63c9.67,0,9.67-.26,19.33-.26s9.67.75,19.33.75,9.67-.77,19.33-.77"/><path d="M256.5,345.5c0,7.73-3.36,14-7.5,14s-7.5-6.27-7.5-14c0-.85,0-1.69.12-2.5h14.76C256.46,343.81,256.5,344.65,256.5,345.5Z"/><path class="cls-8" d="M337,342.63c9.67,0,9.67-.26,19.33-.26s9.67.75,19.33.75,9.67-.77,19.33-.77"/><path d="M371.5,345.5c0,7.73-3.36,14-7.5,14s-7.5-6.27-7.5-14c0-.85,0-1.69.12-2.5h14.76C371.46,343.81,371.5,344.65,371.5,345.5Z"/><path class="cls-8" d="M203.51,342.5s38-62,53-69c0,0-14,46-23,51,0,0,44-23,66-43,0,0-23,36-33,41,0,0,63-29,90-44a92.13,92.13,0,0,1-30,43s65-30,83-40c0,0-5,27-13,32,0,0,29-21,30-27s4.7,35.33,1.35,46.66"/><path d="M299.85,471.39q6.86-.5,13.72-.87c4.26-.22,10.84-1.78,14.57.63,1.63,1.05,3.13-1.55,1.51-2.59-3.58-2.31-8.11-1.42-12.17-1.23q-8.83.41-17.64,1.06c-1.91.14-1.93,3.14,0,3Z"/><path class="cls-9" d="M213.95,420.17l-6.34.82a8.31,8.31,0,0,1-9.3-7.17l-11.62-89.64c-.59-4.55,1.26-7.09,5.81-7.68l4,3c2,7,2,10,4,17l20.62,74.36A8.31,8.31,0,0,1,213.95,420.17Z"/><path class="cls-6" d="M197.83,410.16l-14.29-3.83a5.36,5.36,0,0,1-3.93-4.48l-7.95-61.31a5.36,5.36,0,0,1,2.65-5.34l12.85-7.35Z"/><path class="cls-6" d="M173.57,342.07h2.1a0,0,0,0,1,0,0v59a0,0,0,0,1,0,0h-2.1a3.9,3.9,0,0,1-3.9-3.9V346a3.9,3.9,0,0,1,3.9-3.9Z" transform="translate(-46.33 25.28) rotate(-7.39)"/><path class="cls-9" d="M417.05,419.17l6.34.82a8.31,8.31,0,0,0,9.3-7.17l11.62-89.64c.59-4.55-1.26-7.09-5.81-7.68l-4,3c-2,7-2,10-4,17l-20.62,74.36A8.31,8.31,0,0,0,417.05,419.17Z"/><path class="cls-6" d="M433.17,409.16l14.29-3.83a5.36,5.36,0,0,0,3.93-4.48l7.95-61.31a5.36,5.36,0,0,0-2.65-5.34l-12.85-7.35Z"/><path class="cls-6" d="M459.24,341.07h2.1a0,0,0,0,1,0,0v59a0,0,0,0,1,0,0h-2.1a3.9,3.9,0,0,1-3.9-3.9V345A3.9,3.9,0,0,1,459.24,341.07Z" transform="translate(865.23 796.98) rotate(-172.61)"/><path d="M446.31,264.68c-4.1,15.77-10,31-14.53,46.62l1.47.2c-.64-38.83-44.35-61.11-76.64-70.06-9.66-2.67-19.75-4.79-29.82-4.72a186.7,186.7,0,0,0-35.36,3.88,273,273,0,0,0-33.88,9.46c-10.69,3.63-21.35,7.59-31.05,13.45-19.36,11.68-35.2,33.46-28.54,57l1.25-.73C189.1,309,183.1,292.93,179.5,278.67c-4.41-17.46-3.18-35.38,1.21-52.71,7.94-31.34,23.66-60.53,48.1-81.9,13.65-11.93,28.57-23.54,45.75-29.88,16.6-6.13,35.16-6.09,52.5-3.83,32.84,4.27,64.82,17.11,87.11,42.24a158.29,158.29,0,0,1,28.92,47.9c3.72,9.65,6.64,19.62,7.22,30,.65,11.56-1.23,23-4,34.18a.75.75,0,0,0,1.45.4c4.87-19.54,5.7-38.56-.66-57.85a162.32,162.32,0,0,0-23.81-45.77C413.68,148.53,402,136.92,388,128.75c-14.93-8.73-31.7-14.44-48.6-17.86S305,106.18,288,109.08c-18.18,3.1-34.14,12.95-48.46,24.15-13.55,10.6-26.09,22.06-35.68,36.44a182.63,182.63,0,0,0-21.94,46.59c-5.79,18.45-8.74,38-5.09,57.19a121.54,121.54,0,0,0,9.56,28.37c2.16,4.65,4.26,10.06,7.28,14.22a54.48,54.48,0,0,0,4.51,4.82.76.76,0,0,0,1.25-.73c-6.39-22.56,8.68-43.51,27.15-54.88,18-11.08,40-17.54,60.52-22.18,20.16-4.56,41.06-6.69,61.38-2.12,17.74,4,35.43,10.51,50.53,20.77,16.77,11.41,32.41,28.41,32.76,49.78a.75.75,0,0,0,1.47.2c4.53-15.64,10.43-30.85,14.53-46.62A.75.75,0,0,0,446.31,264.68Z"/><path d="M442.25,284.5c-.39-20.61-17.12-37.7-32.27-49.66-16.75-13.22-35.82-21.94-56.47-27.23-24.28-6.22-49.09-3.66-73.15,2.54s-51.79,14.21-69.48,32.68a116.61,116.61,0,0,0-19.12,27.05c-4.26,8.27-8.56,18.4-6,27.82a.75.75,0,0,0,1.45-.4c-2.57-9.4,2.13-19.74,6.48-27.89a121.45,121.45,0,0,1,16.18-23.28c16.34-18.43,41.55-26.25,64.52-32.81,22.7-6.48,47.55-10.77,71-6,19.71,4,39,11.34,55.57,22.75,17.74,12.18,39.37,31.14,39.81,54.47a.75.75,0,0,0,1.5,0Z"/><path class="cls-10" d="M453,332a194.84,194.84,0,0,0-7.62-61c-12.77-43.56-46.05-94.47-131.88-94.47-55.83,0-88.73,21.68-108,48.9-14.06,19.81-20.91,42.55-24.15,62,0,0,0,0,0,0A198.76,198.76,0,0,0,179,308a170.85,170.85,0,0,0,0,25"/><path class="cls-10" d="M457,334a232.29,232.29,0,0,0-10-69.12C432.65,218,397.77,164.5,313.5,164.5c-42.61,0-72.11,13.68-92.5,33.27-25,24-36.32,56.86-41.36,84.29A238.06,238.06,0,0,0,176.5,306a203.39,203.39,0,0,0-.5,28"/><text class="cls-11" transform="translate(271.35 149.48)">だ<tspan class="cls-12" x="27.19" y="0">る</tspan><tspan class="cls-13" x="54.06" y="0">い</tspan></text></g></svg>